<?xml version="1.0" encoding="UTF-8"?>
<!-- Generator: Adobe Illustrator 24.0.2, SVG Export Plug-In . SVG Version: 6.00 Build 0)  -->
<svg version="1.1" id="Calque_1" xmlns="http://www.w3.org/2000/svg" xmlns:xlink="http://www.w3.org/1999/xlink" x="0px" y="0px" viewBox="0 0 149 78" style="enable-background:new 0 0 149 78;" xml:space="preserve">
<style type="text/css">
	.st0{fill:#FFFFFF;stroke:#DADADA;stroke-width:0.7246;stroke-miterlimit:10;}
	.st1{fill:#FFFFFF;stroke:#9D9D9C;stroke-width:0.7246;stroke-miterlimit:10;}
	.st2{fill:#FFFFFF;stroke:#000000;stroke-width:0.9661;stroke-miterlimit:10;}
	.st3{enable-background:new    ;}
	.st4{fill:#7DB728;}
	.st5{fill:none;stroke:#B2B2B2;stroke-width:0.3623;stroke-miterlimit:10;}
	.st6{fill:#878787;}
	.st7{fill:#B2B2B2;}
	.st8{fill:#575756;}
	.st9{fill:#E11683;}
	.st10{opacity:0.8;enable-background:new    ;}
	.st11{fill:#7FC7EB;}
	.st12{fill:none;stroke:#B2B2B2;stroke-width:0.639;stroke-linecap:round;stroke-linejoin:round;stroke-miterlimit:10;}
	.st13{fill:none;stroke:#B2B2B2;stroke-width:0.3623;stroke-linecap:round;stroke-linejoin:round;stroke-miterlimit:10;}
	.st14{fill:none;}
	.st15{fill:none;stroke:#878787;stroke-width:0.2174;stroke-linecap:round;stroke-linejoin:round;stroke-miterlimit:10;}
	.st16{fill:#FFFFFF;}
	.st17{fill:none;stroke:#575756;stroke-width:0.1738;stroke-linecap:round;stroke-linejoin:round;stroke-miterlimit:10;}
	.st18{fill:none;stroke:#575756;stroke-width:0.5214;stroke-linecap:round;stroke-linejoin:round;stroke-miterlimit:10;}
</style>
<g id="_x3C_Groupe_x3E__avion">
	<rect x="110.6" y="43.3" class="st0" width="38" height="12"/>
	<rect x="110.6" y="31.4" class="st0" width="38" height="12"/>
	<polygon class="st1" points="95.5,55.2 82.9,55.2 82.9,28 110.4,28 110.4,55.2 98.1,55.2  "/>
	<path class="st2" d="M60.9,55.1H29V1.6h54.1v53.5H67.6c0,0-5,8.9-13.2,10.6C54.3,65.7,59.3,62.4,60.9,55.1z"/>
	<g class="st3">
		<path class="st4" d="M106.996,33.963h-1.543l-0.336,0.956h-0.515c0.021-0.05,0.044-0.102,0.067-0.156s0.049-0.116,0.076-0.185    c0.028-0.069,0.059-0.147,0.092-0.235c0.033-0.087,0.072-0.189,0.115-0.305l1.004-2.743h0.54l1.005,2.743    c0.041,0.116,0.078,0.218,0.112,0.305c0.033,0.088,0.064,0.166,0.093,0.235s0.055,0.13,0.078,0.185s0.046,0.106,0.067,0.156    h-0.515L106.996,33.963z M105.16,30.947l0.853-1.067h0.427l0.854,1.067h-0.377l-0.689-0.695l-0.69,0.695H105.16z M105.589,33.578    h1.272l-0.641-1.8L105.589,33.578z"/>
	</g>
	<g class="st3">
		<path class="st4" d="M86.234,34.938c-0.343,0-0.596-0.149-0.759-0.447c-0.126-0.215-0.188-0.511-0.188-0.888    c0-0.459,0.111-0.84,0.332-1.142c0.243-0.314,0.601-0.472,1.074-0.472c0.288,0,0.521,0.084,0.702,0.254v-0.23h0.59v1.937    c0,0.004,0,0.008,0,0.013c0,0.004,0,0.007,0,0.009c0,0.002,0,0.005,0,0.009c0,0.004,0,0.007,0,0.009s0,0.005,0,0.009    c0,0.004,0,0.007,0,0.009s0,0.004,0,0.006c0,0.002,0,0.004,0,0.006c0,0.002,0,0.005,0,0.009c0,0.004,0,0.007,0,0.009    c0,0.002,0,0.005,0,0.009c0,0.004,0,0.007,0,0.01c0,0.002,0,0.005,0,0.009c0,0.004,0,0.007,0,0.009s0,0.004,0,0.006    c0,0.002,0,0.004,0,0.006s0,0.005,0,0.009c0,0.004,0,0.007,0,0.009c0,0.002,0,0.005,0,0.009c0,0.004,0,0.007,0,0.009    c0,0.002,0,0.005,0,0.009c0,0.004,0,0.007,0,0.01c0,0.002,0,0.005,0,0.009c0,0.004,0,0.009,0,0.015c0,0.006,0,0.011,0,0.013    s0,0.004,0,0.006c0,0.002,0,0.004,0,0.006c0,0.002,0,0.005,0,0.009c0,0.004,0,0.007,0,0.009c0,0.002,0,0.004,0,0.006    s0,0.045,0,0.13s0.015,0.158,0.044,0.22c0.041,0.1,0.134,0.149,0.275,0.149c0.135,0,0.277-0.169,0.428-0.509    c0.024-0.066,0.05-0.137,0.074-0.211c0.025-0.058,0.065-0.167,0.119-0.329l0.102,0.192c-0.139,0.397-0.234,0.647-0.289,0.751    c-0.139,0.207-0.337,0.311-0.596,0.311c-0.311,0-0.507-0.042-0.59-0.125c-0.105-0.091-0.157-0.275-0.157-0.552    c-0.167,0.219-0.343,0.385-0.527,0.497c-0.196,0.116-0.407,0.176-0.634,0.18V34.938z M86.542,30.829    c-0.255,0.207-0.59,0.409-1.004,0.608l0.069-0.211c0.229-0.137,0.439-0.286,0.627-0.447c0.227-0.199,0.404-0.387,0.533-0.565    c0.13,0.269,0.291,0.484,0.483,0.646c0.13,0.137,0.335,0.259,0.615,0.366l-0.025,0.211c-0.185-0.008-0.416-0.087-0.696-0.236    c-0.306-0.141-0.508-0.263-0.609-0.366L86.542,30.829z M86.806,32.151c-0.313,0-0.548,0.149-0.702,0.447    c-0.135,0.24-0.201,0.523-0.201,0.851c0,0.252,0.055,0.478,0.162,0.676c0.135,0.236,0.324,0.354,0.572,0.354    c0.142,0,0.288-0.05,0.438-0.149c0.108-0.095,0.216-0.215,0.32-0.36v-1.303c-0.084-0.343-0.282-0.515-0.597-0.515H86.806z"/>
	</g>
	<path class="st5" d="M41,51c0,0,2.9,3.3,7,0"/>
	<path class="st5" d="M57.6,51c0,0,4.3,4.1,10.4,0"/>
	<path class="st5" d="M49.5,51c0,0,2.8,4.1,6.7,0"/>
	<g class="st3">
		<path class="st6" d="M71.077,60.012v0.396h-1.456v0.596c0,0.246,0.002,0.464,0.005,0.652c0.003,0.188,0.015,0.33,0.033,0.428    h-0.552c0.019-0.1,0.029-0.242,0.033-0.431s0.005-0.404,0.005-0.649v-1.8c0-0.11-0.001-0.213-0.004-0.307    c-0.002-0.093-0.006-0.177-0.011-0.252c-0.005-0.074-0.013-0.136-0.023-0.187h2.184v0.41h-1.669v1.143H71.077z"/>
		<path class="st6" d="M71.829,60.83c0-0.213,0.033-0.402,0.098-0.566c0.065-0.166,0.153-0.305,0.264-0.418    c0.11-0.113,0.239-0.199,0.386-0.257c0.147-0.058,0.304-0.087,0.469-0.087c0.172,0,0.33,0.029,0.473,0.087    s0.266,0.144,0.369,0.257s0.183,0.252,0.24,0.418c0.057,0.164,0.085,0.354,0.085,0.566c0,0.214-0.033,0.402-0.098,0.566    s-0.153,0.301-0.264,0.412c-0.11,0.111-0.239,0.195-0.386,0.252c-0.147,0.057-0.304,0.086-0.469,0.086    c-0.172,0-0.33-0.029-0.473-0.086s-0.266-0.141-0.369-0.252s-0.183-0.248-0.24-0.412C71.858,61.232,71.829,61.044,71.829,60.83z     M72.293,60.83c0,0.145,0.018,0.273,0.053,0.388s0.085,0.21,0.149,0.289s0.141,0.139,0.229,0.181    c0.089,0.041,0.188,0.062,0.296,0.062c0.101,0,0.195-0.021,0.284-0.062c0.088-0.042,0.166-0.102,0.232-0.181    c0.066-0.079,0.118-0.175,0.156-0.289s0.057-0.243,0.057-0.388c0-0.146-0.018-0.275-0.053-0.391s-0.085-0.213-0.149-0.293    s-0.142-0.142-0.231-0.184c-0.089-0.043-0.188-0.063-0.295-0.063c-0.102,0-0.197,0.021-0.286,0.063    c-0.089,0.042-0.166,0.104-0.231,0.184s-0.117,0.178-0.154,0.293S72.293,60.685,72.293,60.83z"/>
		<path class="st6" d="M74.841,62.084v-1.527c0-0.244-0.014-0.451-0.042-0.621c-0.028-0.17-0.056-0.298-0.084-0.384h0.452    c0.02,0.046,0.037,0.104,0.053,0.175c0.017,0.07,0.029,0.148,0.041,0.234c0.011,0.086,0.019,0.178,0.023,0.275    c0.006,0.098,0.008,0.197,0.008,0.296v0.161c0.086-0.232,0.169-0.426,0.251-0.579s0.163-0.275,0.245-0.366    c0.08-0.092,0.162-0.154,0.244-0.191c0.082-0.036,0.166-0.055,0.251-0.055c0.063,0,0.122,0.006,0.176,0.018    s0.108,0.031,0.163,0.057l-0.075,0.459c-0.048-0.02-0.091-0.032-0.128-0.039c-0.037-0.006-0.082-0.01-0.136-0.01    c-0.068,0-0.14,0.028-0.216,0.086c-0.075,0.057-0.149,0.133-0.223,0.227c-0.072,0.095-0.141,0.201-0.207,0.32    c-0.064,0.119-0.122,0.241-0.172,0.366c-0.049,0.125-0.088,0.247-0.117,0.366s-0.044,0.225-0.044,0.318    c0,0.041,0,0.079,0.001,0.113c0.001,0.035,0.004,0.068,0.008,0.102c0.004,0.031,0.01,0.064,0.016,0.096    c0.008,0.033,0.016,0.066,0.025,0.104H74.841z"/>
		<path class="st6" d="M78.229,59.502c0.167,0,0.312,0.02,0.433,0.059s0.229,0.09,0.32,0.152l-0.088,0.447    c-0.113-0.083-0.227-0.145-0.339-0.187c-0.112-0.041-0.233-0.062-0.364-0.062c-0.111,0-0.216,0.021-0.313,0.063    c-0.096,0.043-0.18,0.104-0.25,0.184c-0.072,0.078-0.127,0.176-0.168,0.293c-0.039,0.115-0.06,0.246-0.06,0.392    c0,0.134,0.019,0.256,0.056,0.364c0.036,0.109,0.089,0.203,0.158,0.282c0.068,0.079,0.15,0.14,0.248,0.183    c0.097,0.043,0.207,0.064,0.328,0.064c0.152,0,0.291-0.025,0.414-0.076c0.125-0.052,0.242-0.125,0.352-0.222l0.051,0.435    c-0.064,0.048-0.127,0.089-0.189,0.123c-0.063,0.033-0.129,0.063-0.197,0.084c-0.068,0.022-0.143,0.039-0.221,0.05    s-0.165,0.017-0.259,0.017c-0.169,0-0.327-0.029-0.474-0.088c-0.148-0.06-0.277-0.145-0.387-0.256    c-0.111-0.11-0.197-0.244-0.262-0.401c-0.063-0.157-0.096-0.335-0.096-0.534c0-0.187,0.031-0.363,0.092-0.528    c0.062-0.165,0.148-0.311,0.262-0.435s0.25-0.223,0.412-0.295C77.85,59.538,78.03,59.502,78.229,59.502z"/>
		<path class="st6" d="M80.689,59.502c0.137,0,0.258,0.016,0.363,0.049c0.105,0.032,0.197,0.076,0.273,0.134    c0.078,0.058,0.143,0.124,0.193,0.2c0.053,0.076,0.094,0.158,0.125,0.246c0.031,0.087,0.053,0.179,0.066,0.273    c0.014,0.096,0.02,0.189,0.02,0.282v0.097c0,0.041,0,0.074-0.002,0.097h-1.779c0.005,0.146,0.027,0.272,0.068,0.38    s0.098,0.197,0.168,0.268c0.072,0.07,0.155,0.122,0.252,0.156c0.096,0.035,0.201,0.053,0.314,0.053    c0.162,0,0.321-0.018,0.477-0.055c0.156-0.036,0.311-0.101,0.465-0.193l0.051,0.41c-0.09,0.044-0.176,0.082-0.262,0.113    s-0.171,0.057-0.256,0.077c-0.086,0.021-0.172,0.034-0.26,0.044c-0.088,0.009-0.181,0.014-0.277,0.014    c-0.16,0-0.314-0.028-0.459-0.084c-0.146-0.055-0.273-0.137-0.385-0.246c-0.11-0.107-0.198-0.242-0.264-0.402    c-0.064-0.16-0.098-0.348-0.098-0.559c0-0.205,0.028-0.392,0.084-0.558c0.057-0.167,0.137-0.309,0.24-0.427    c0.104-0.119,0.23-0.209,0.379-0.273C80.336,59.534,80.504,59.502,80.689,59.502z M80.652,59.875c-0.185,0-0.336,0.053-0.453,0.16    c-0.117,0.106-0.193,0.271-0.23,0.497h1.311c0-0.106-0.016-0.2-0.047-0.282s-0.074-0.15-0.131-0.207    c-0.056-0.056-0.122-0.098-0.199-0.127C80.826,59.889,80.742,59.875,80.652,59.875z"/>
	</g>
	<g class="st3">
		<path class="st6" d="M32.02,58.354h1.442v0.162h-0.609c-0.133,0-0.223,0.042-0.271,0.126c-0.027,0.047-0.04,0.107-0.04,0.182    v4.559c0,0.1,0.014,0.176,0.043,0.225c0.05,0.086,0.147,0.129,0.291,0.129h0.586v0.173H32.02V58.354z"/>
		<path class="st6" d="M36.613,62.041c0,0.388,0.114,0.582,0.343,0.582c0.045,0,0.109-0.012,0.19-0.037    c0.081-0.025,0.134-0.037,0.16-0.037c0.012,0,0.019,0.004,0.02,0.014c0,0.027-0.004,0.047-0.013,0.061    c-0.145,0.172-0.355,0.258-0.631,0.258c-0.277,0-0.458-0.104-0.542-0.313c-0.006,0-0.098,0.039-0.274,0.119    c-0.186,0.083-0.294,0.129-0.323,0.139c-0.135,0.046-0.278,0.068-0.43,0.068c-0.082,0-0.17-0.012-0.268-0.035    c-0.147-0.035-0.263-0.135-0.346-0.299c-0.07-0.14-0.105-0.293-0.105-0.459c0-0.123,0.021-0.236,0.062-0.34    c0.107-0.266,0.388-0.488,0.843-0.663c0.05-0.019,0.226-0.081,0.527-0.187c0.188-0.066,0.281-0.106,0.281-0.119v-0.366    c0-0.167-0.073-0.316-0.218-0.446c-0.141-0.127-0.296-0.191-0.468-0.191c-0.083,0-0.16,0.021-0.233,0.062    c-0.164,0.092-0.246,0.243-0.246,0.454c0,0.025,0.003,0.066,0.01,0.119c0.007,0.053,0.01,0.092,0.01,0.119    c0,0.008-0.004,0.018-0.014,0.026c-0.049-0.003-0.127-0.028-0.236-0.076c-0.108-0.048-0.183-0.088-0.224-0.121    c-0.009-0.009-0.013-0.022-0.013-0.04c0-0.15,0.146-0.313,0.437-0.484c0.224-0.134,0.476-0.2,0.756-0.2    c0.361,0,0.632,0.095,0.812,0.282c0.089,0.096,0.134,0.211,0.134,0.348V62.041z M34.906,61.973    c-0.004,0.483,0.167,0.725,0.514,0.725c0.229,0,0.426-0.083,0.589-0.25c0.069-0.07,0.104-0.139,0.104-0.203V60.97    c-0.13,0-0.3,0.057-0.51,0.171c-0.183,0.099-0.331,0.202-0.445,0.309C34.991,61.605,34.907,61.779,34.906,61.973z"/>
		<path class="st6" d="M39.693,63.909h-1.446v-0.165h0.613c0.205,0,0.308-0.102,0.308-0.305v-4.563c0-0.233-0.11-0.35-0.331-0.35    h-0.589v-0.173h1.446V63.909z"/>
	</g>
	<g class="st3">
		<path class="st6" d="M71.7,66.965l-0.309-0.359c0.26-0.162,0.486-0.359,0.68-0.59c0.194-0.23,0.324-0.468,0.389-0.711    c-0.159,0.098-0.345,0.146-0.56,0.146c-0.268,0-0.498-0.099-0.689-0.295c-0.191-0.197-0.288-0.434-0.288-0.711    c0-0.287,0.102-0.531,0.306-0.732c0.205-0.199,0.454-0.3,0.748-0.3c0.332,0,0.603,0.118,0.813,0.354    c0.21,0.237,0.316,0.541,0.316,0.912c0,0.42-0.132,0.845-0.396,1.273C72.447,66.383,72.11,66.721,71.7,66.965z M72.559,64.811    c0.02-0.133,0.03-0.219,0.03-0.258c0-0.201-0.056-0.364-0.169-0.492c-0.113-0.127-0.258-0.191-0.435-0.191    c-0.163,0-0.297,0.055-0.403,0.163c-0.106,0.108-0.16,0.245-0.16,0.409c0,0.15,0.058,0.279,0.173,0.389    c0.115,0.109,0.253,0.164,0.414,0.164C72.196,64.994,72.379,64.934,72.559,64.811z"/>
		<path class="st6" d="M74.888,63.447l0.05-0.034l0.304,0.378c-0.268,0.17-0.49,0.356-0.667,0.559    c-0.176,0.203-0.313,0.44-0.408,0.715c0.186-0.095,0.371-0.143,0.555-0.143c0.276,0,0.508,0.098,0.698,0.291    s0.283,0.432,0.283,0.713c0,0.289-0.103,0.535-0.309,0.736c-0.205,0.203-0.456,0.303-0.75,0.303c-0.33,0-0.596-0.113-0.8-0.344    c-0.203-0.229-0.305-0.529-0.305-0.899c0-0.278,0.052-0.555,0.157-0.831c0.104-0.275,0.255-0.533,0.452-0.773    C74.345,63.876,74.592,63.652,74.888,63.447z M74.06,65.578c-0.014,0.078-0.02,0.164-0.02,0.26c0,0.195,0.057,0.356,0.172,0.482    c0.115,0.125,0.261,0.188,0.44,0.188c0.161,0,0.293-0.054,0.398-0.161s0.157-0.244,0.157-0.407c0-0.167-0.057-0.303-0.168-0.406    c-0.111-0.104-0.257-0.155-0.44-0.155c-0.094,0-0.179,0.014-0.255,0.043C74.268,65.449,74.173,65.502,74.06,65.578z"/>
		<path class="st6" d="M78.216,63.418c0.216,0,0.399,0.076,0.552,0.229s0.229,0.335,0.229,0.549c0,0.211-0.076,0.394-0.229,0.546    s-0.337,0.229-0.551,0.229s-0.397-0.076-0.552-0.229c-0.152-0.152-0.229-0.335-0.229-0.546c0-0.214,0.076-0.396,0.229-0.549    S78,63.418,78.216,63.418z M79.991,63.408h0.388l-2.305,3.557h-0.389L79.991,63.408z M78.209,63.795    c-0.111,0-0.207,0.039-0.286,0.117c-0.079,0.079-0.118,0.174-0.118,0.284c0,0.108,0.039,0.202,0.119,0.28    c0.08,0.076,0.176,0.115,0.285,0.115c0.112,0,0.207-0.039,0.287-0.115c0.079-0.078,0.119-0.172,0.119-0.28    c0-0.112-0.039-0.207-0.118-0.284C78.419,63.834,78.322,63.795,78.209,63.795z M79.871,65.416c0.214,0,0.397,0.076,0.551,0.228    c0.154,0.151,0.23,0.333,0.23,0.545s-0.076,0.392-0.229,0.54c-0.153,0.148-0.338,0.223-0.553,0.223    c-0.217,0-0.402-0.074-0.555-0.223c-0.153-0.148-0.23-0.328-0.23-0.54c0-0.214,0.078-0.396,0.231-0.546    S79.655,65.416,79.871,65.416z M79.865,65.794c-0.109,0-0.203,0.038-0.281,0.116c-0.077,0.078-0.115,0.171-0.115,0.279    c0,0.111,0.038,0.205,0.115,0.283c0.078,0.078,0.172,0.118,0.281,0.118c0.114,0,0.21-0.039,0.289-0.116    c0.078-0.078,0.117-0.173,0.117-0.285c0-0.11-0.039-0.204-0.117-0.281C80.075,65.832,79.979,65.794,79.865,65.794z"/>
	</g>
	<g>
		<g class="st3">
			<path class="st4" d="M99.438,39.501c0,0.835,0.047,1.535,0.141,2.103c0.094,0.566,0.214,1.035,0.361,1.406h-1.172     c-0.021-0.057-0.053-0.137-0.094-0.238c-0.04-0.102-0.081-0.217-0.123-0.348c-0.043-0.13-0.083-0.27-0.121-0.42     c-0.037-0.15-0.07-0.301-0.097-0.451c-0.175,0.221-0.358,0.429-0.552,0.623c-0.195,0.194-0.398,0.366-0.613,0.516     c-0.214,0.15-0.438,0.269-0.669,0.355c-0.231,0.086-0.469,0.129-0.71,0.129c-0.281,0-0.561-0.061-0.84-0.18     s-0.529-0.297-0.753-0.535s-0.403-0.538-0.542-0.897c-0.139-0.36-0.207-0.782-0.207-1.269c0-0.507,0.057-0.967,0.17-1.38     c0.114-0.413,0.27-0.78,0.465-1.102c0.175-0.282,0.359-0.53,0.557-0.742c0.195-0.211,0.411-0.387,0.646-0.526     c0.234-0.139,0.491-0.244,0.772-0.314c0.281-0.071,0.594-0.106,0.938-0.106c0.17,0,0.357,0.012,0.565,0.036     c0.208,0.024,0.419,0.059,0.636,0.103c0.217,0.044,0.432,0.097,0.646,0.159c0.214,0.062,0.412,0.128,0.596,0.198V39.501z      M94.016,35.264l2.275-2.847h1.139l2.275,2.847h-1.004l-1.841-1.854l-1.841,1.854H94.016z M96.727,37.25     c-0.143,0-0.287,0.017-0.432,0.05s-0.288,0.089-0.429,0.169c-0.14,0.08-0.276,0.184-0.408,0.314s-0.255,0.294-0.371,0.493     c-0.12,0.203-0.218,0.456-0.292,0.758c-0.073,0.303-0.109,0.612-0.109,0.93c0,0.367,0.034,0.681,0.104,0.944     c0.068,0.262,0.16,0.479,0.274,0.648s0.243,0.295,0.388,0.374s0.291,0.119,0.438,0.119c0.188,0,0.392-0.058,0.612-0.172     s0.437-0.267,0.646-0.457c0.209-0.189,0.406-0.408,0.592-0.655s0.338-0.504,0.459-0.768v-2.482     c-0.067-0.031-0.153-0.062-0.258-0.093c-0.105-0.031-0.221-0.06-0.348-0.086c-0.128-0.027-0.266-0.047-0.416-0.063     C97.029,37.258,96.878,37.25,96.727,37.25z"/>
		</g>
		<g class="st3">
			<path class="st4" d="M94.217,47.254c0,0.521,0.029,0.959,0.088,1.314c0.059,0.354,0.133,0.646,0.226,0.879h-0.732     c-0.014-0.035-0.033-0.086-0.059-0.148c-0.024-0.064-0.051-0.137-0.077-0.218s-0.052-0.169-0.075-0.263     c-0.024-0.094-0.044-0.188-0.062-0.281c-0.107,0.138-0.223,0.268-0.344,0.389c-0.122,0.121-0.25,0.229-0.383,0.322     c-0.135,0.094-0.273,0.168-0.419,0.223c-0.146,0.053-0.293,0.08-0.443,0.08c-0.176,0-0.351-0.037-0.524-0.111     c-0.175-0.074-0.332-0.187-0.471-0.336c-0.141-0.148-0.253-0.336-0.34-0.561c-0.086-0.225-0.129-0.488-0.129-0.792     c0-0.317,0.035-0.604,0.106-0.862s0.168-0.488,0.29-0.689c0.109-0.176,0.225-0.331,0.348-0.463     c0.123-0.133,0.258-0.242,0.404-0.33c0.146-0.086,0.307-0.152,0.482-0.195c0.176-0.045,0.371-0.066,0.586-0.066     c0.105,0,0.224,0.008,0.354,0.022s0.262,0.036,0.397,0.063c0.136,0.028,0.27,0.062,0.403,0.1c0.135,0.039,0.258,0.08,0.373,0.125     V47.254z M90.828,44.606l1.422-1.779h0.711l1.423,1.779h-0.628l-1.15-1.159l-1.15,1.159H90.828z M92.521,45.848     c-0.088,0-0.179,0.01-0.27,0.031c-0.09,0.021-0.18,0.056-0.268,0.105c-0.088,0.049-0.173,0.115-0.255,0.196     c-0.083,0.081-0.159,0.185-0.232,0.308c-0.075,0.127-0.136,0.285-0.182,0.475c-0.046,0.188-0.069,0.383-0.069,0.581     c0,0.229,0.021,0.426,0.064,0.59c0.044,0.164,0.102,0.3,0.172,0.405c0.071,0.106,0.152,0.184,0.242,0.234     c0.092,0.049,0.183,0.074,0.274,0.074c0.117,0,0.245-0.036,0.383-0.107c0.138-0.072,0.272-0.168,0.403-0.286     s0.255-0.255,0.371-0.409c0.115-0.154,0.211-0.314,0.286-0.48v-1.551c-0.042-0.02-0.096-0.039-0.161-0.059     s-0.138-0.037-0.217-0.054c-0.08-0.017-0.166-0.03-0.26-0.04C92.711,45.853,92.617,45.848,92.521,45.848z"/>
		</g>
		<g class="st3">
			<path class="st7" d="M97.292,46.005c0.356,0,0.63,0.115,0.819,0.346s0.285,0.573,0.285,1.028v2.068h-0.619v-1.82     c0-0.207-0.014-0.379-0.042-0.514s-0.069-0.24-0.124-0.318c-0.055-0.079-0.123-0.134-0.207-0.164     c-0.084-0.031-0.183-0.047-0.297-0.047c-0.12,0-0.238,0.028-0.353,0.084c-0.115,0.057-0.22,0.129-0.316,0.219     c-0.096,0.09-0.181,0.19-0.255,0.303c-0.073,0.113-0.128,0.226-0.164,0.338v1.92H95.4v-2.035c0-0.327-0.018-0.604-0.055-0.83     s-0.074-0.396-0.111-0.512h0.602c0.014,0.036,0.027,0.082,0.041,0.139c0.013,0.056,0.025,0.115,0.036,0.176     c0.011,0.063,0.021,0.123,0.03,0.183l0.027,0.149c0.211-0.252,0.426-0.434,0.642-0.545     C96.829,46.061,97.055,46.005,97.292,46.005z"/>
			<path class="st7" d="M100.775,46.005c0.184,0,0.346,0.021,0.486,0.064c0.14,0.043,0.262,0.103,0.364,0.179     s0.188,0.165,0.257,0.267c0.07,0.102,0.125,0.21,0.166,0.327s0.071,0.239,0.089,0.366c0.019,0.127,0.026,0.252,0.026,0.376v0.129     c0,0.055,0,0.098-0.003,0.129h-2.372c0.006,0.194,0.037,0.363,0.092,0.506c0.055,0.145,0.129,0.263,0.225,0.356     c0.094,0.094,0.205,0.164,0.334,0.21c0.129,0.047,0.268,0.07,0.42,0.07c0.217,0,0.428-0.025,0.636-0.073     c0.208-0.049,0.414-0.135,0.619-0.259l0.067,0.547c-0.119,0.06-0.234,0.11-0.348,0.152c-0.114,0.041-0.229,0.076-0.342,0.103     s-0.229,0.046-0.347,0.058s-0.24,0.018-0.37,0.018c-0.214,0-0.418-0.036-0.611-0.11c-0.195-0.073-0.365-0.183-0.513-0.327     s-0.265-0.324-0.352-0.538s-0.13-0.462-0.13-0.745c0-0.273,0.037-0.521,0.111-0.743c0.075-0.222,0.182-0.411,0.32-0.569     c0.138-0.158,0.307-0.279,0.505-0.363C100.305,46.047,100.528,46.005,100.775,46.005z M100.726,46.502     c-0.245,0-0.446,0.07-0.603,0.213s-0.259,0.363-0.308,0.664h1.747c0-0.142-0.021-0.268-0.063-0.376     c-0.041-0.109-0.1-0.202-0.174-0.276c-0.074-0.075-0.163-0.131-0.266-0.169C100.957,46.52,100.846,46.502,100.726,46.502z"/>
		</g>
		<g class="st3">
			<path class="st6" d="M102.816,51.742h0.024c0.183,0,0.321-0.037,0.417-0.111c0.096-0.075,0.144-0.184,0.144-0.326     c0-0.127-0.046-0.232-0.14-0.312c-0.092-0.08-0.214-0.12-0.364-0.12c-0.152,0-0.321,0.047-0.507,0.141v-0.395     c0.17-0.084,0.355-0.127,0.557-0.127c0.27,0,0.481,0.07,0.637,0.209c0.156,0.139,0.233,0.33,0.233,0.57     c0,0.146-0.03,0.27-0.09,0.369s-0.155,0.186-0.286,0.258c0.114,0.044,0.197,0.098,0.25,0.162     c0.054,0.064,0.095,0.143,0.124,0.232c0.029,0.092,0.044,0.188,0.044,0.291c0,0.252-0.085,0.461-0.256,0.625     c-0.17,0.166-0.385,0.248-0.644,0.248c-0.222,0-0.436-0.053-0.642-0.159v-0.451c0.22,0.137,0.434,0.204,0.642,0.204     c0.142,0,0.255-0.041,0.34-0.123c0.086-0.083,0.129-0.193,0.129-0.33c0-0.113-0.036-0.214-0.106-0.299     c-0.042-0.049-0.088-0.084-0.14-0.107c-0.051-0.022-0.161-0.044-0.329-0.064l-0.037-0.004V51.742z"/>
			<path class="st6" d="M106.133,50.5c0.18,0,0.334,0.064,0.461,0.191s0.189,0.279,0.189,0.457c0,0.176-0.063,0.328-0.191,0.455     c-0.127,0.127-0.28,0.189-0.459,0.189c-0.178,0-0.331-0.063-0.459-0.189c-0.127-0.127-0.191-0.279-0.191-0.455     c0-0.178,0.063-0.33,0.19-0.457S105.953,50.5,106.133,50.5z M107.613,50.492h0.322l-1.92,2.965h-0.324L107.613,50.492z      M106.128,50.814c-0.093,0-0.173,0.033-0.239,0.099c-0.065,0.065-0.099,0.144-0.099,0.236c0,0.091,0.033,0.169,0.101,0.233     c0.066,0.064,0.146,0.096,0.237,0.096c0.093,0,0.173-0.031,0.239-0.096c0.065-0.064,0.099-0.143,0.099-0.233     c0-0.094-0.032-0.173-0.099-0.237C106.303,50.848,106.223,50.814,106.128,50.814z M107.513,52.166     c0.179,0,0.331,0.063,0.459,0.189c0.128,0.126,0.192,0.277,0.192,0.454s-0.064,0.326-0.191,0.45     c-0.127,0.123-0.281,0.185-0.46,0.185c-0.181,0-0.335-0.062-0.463-0.185c-0.128-0.124-0.19-0.273-0.19-0.45     c0-0.179,0.063-0.329,0.191-0.455C107.18,52.229,107.333,52.166,107.513,52.166z M107.508,52.48c-0.092,0-0.17,0.032-0.234,0.098     c-0.064,0.064-0.097,0.142-0.097,0.232c0,0.092,0.032,0.171,0.097,0.236c0.064,0.064,0.143,0.098,0.234,0.098     c0.096,0,0.175-0.032,0.24-0.097c0.065-0.065,0.098-0.144,0.098-0.237c0-0.092-0.032-0.17-0.098-0.234     S107.604,52.48,107.508,52.48z"/>
		</g>
	</g>
	<g class="st3">
		<path class="st8" d="M61.672,27.353c0,2.195,0.124,4.039,0.37,5.532s0.563,2.727,0.951,3.702h-3.083    c-0.059-0.151-0.141-0.36-0.247-0.627c-0.106-0.267-0.214-0.572-0.326-0.915c-0.112-0.342-0.217-0.711-0.317-1.106    c-0.1-0.395-0.185-0.79-0.255-1.185c-0.458,0.581-0.942,1.127-1.453,1.638c-0.511,0.511-1.048,0.964-1.612,1.359    c-0.563,0.395-1.151,0.706-1.761,0.932c-0.611,0.227-1.233,0.34-1.867,0.34c-0.74,0-1.477-0.157-2.211-0.47    c-0.734-0.314-1.395-0.784-1.981-1.412c-0.587-0.627-1.063-1.414-1.427-2.36c-0.364-0.947-0.546-2.059-0.546-3.336    c0-1.336,0.149-2.547,0.449-3.633c0.299-1.086,0.707-2.053,1.224-2.901c0.458-0.743,0.945-1.394,1.462-1.951    c0.517-0.558,1.083-1.02,1.7-1.385c0.617-0.366,1.295-0.642,2.035-0.828c0.74-0.186,1.562-0.279,2.466-0.279    c0.446,0,0.942,0.032,1.488,0.096c0.546,0.064,1.104,0.154,1.673,0.27c0.57,0.117,1.136,0.256,1.7,0.418    c0.563,0.163,1.086,0.337,1.567,0.522V27.353z M54.538,21.429c-0.376,0-0.754,0.043-1.136,0.131    c-0.381,0.087-0.757,0.235-1.127,0.444c-0.37,0.209-0.729,0.485-1.075,0.827c-0.347,0.343-0.672,0.775-0.978,1.298    c-0.317,0.534-0.572,1.199-0.766,1.995c-0.194,0.796-0.291,1.612-0.291,2.448c0,0.964,0.091,1.792,0.273,2.483    c0.182,0.691,0.422,1.26,0.722,1.708c0.299,0.447,0.64,0.775,1.021,0.984c0.381,0.209,0.766,0.313,1.154,0.313    c0.493,0,1.03-0.151,1.612-0.453c0.581-0.302,1.147-0.703,1.7-1.202c0.552-0.499,1.071-1.074,1.559-1.725s0.89-1.324,1.207-2.021    v-6.534c-0.176-0.081-0.402-0.163-0.678-0.244c-0.276-0.081-0.582-0.157-0.916-0.227c-0.335-0.07-0.699-0.125-1.092-0.166    C55.333,21.449,54.937,21.429,54.538,21.429z"/>
	</g>
	<g class="st3">
		<path class="st8" d="M47.061,46.034c0,0.782,0.044,1.438,0.132,1.971s0.201,0.972,0.339,1.319h-1.098    c-0.021-0.054-0.05-0.129-0.088-0.224c-0.038-0.095-0.077-0.204-0.116-0.325c-0.04-0.123-0.078-0.254-0.113-0.395    c-0.035-0.141-0.066-0.281-0.091-0.422c-0.163,0.207-0.336,0.4-0.518,0.583c-0.182,0.183-0.374,0.344-0.575,0.484    c-0.201,0.141-0.41,0.251-0.627,0.332s-0.439,0.121-0.665,0.121c-0.264,0-0.526-0.056-0.788-0.167    c-0.261-0.112-0.497-0.28-0.706-0.504c-0.209-0.223-0.378-0.504-0.508-0.841s-0.194-0.733-0.194-1.188    c0-0.477,0.053-0.908,0.16-1.295c0.107-0.387,0.252-0.731,0.437-1.033c0.163-0.266,0.336-0.497,0.521-0.695    c0.184-0.199,0.386-0.363,0.605-0.494c0.22-0.13,0.461-0.229,0.725-0.295s0.556-0.1,0.878-0.1c0.159,0,0.336,0.012,0.53,0.035    c0.195,0.022,0.394,0.055,0.597,0.096c0.203,0.041,0.405,0.092,0.605,0.148c0.201,0.059,0.387,0.121,0.559,0.188V46.034z     M44.519,43.924c-0.134,0-0.269,0.016-0.405,0.046c-0.136,0.031-0.27,0.084-0.402,0.158c-0.132,0.075-0.259,0.173-0.383,0.295    s-0.239,0.276-0.348,0.462c-0.113,0.191-0.204,0.428-0.273,0.711c-0.069,0.284-0.104,0.574-0.104,0.873    c0,0.344,0.032,0.639,0.097,0.885s0.15,0.449,0.257,0.607c0.106,0.16,0.228,0.277,0.364,0.352    c0.136,0.074,0.273,0.111,0.411,0.111c0.176,0,0.367-0.054,0.574-0.161c0.208-0.107,0.409-0.251,0.606-0.429    s0.382-0.383,0.555-0.614c0.174-0.231,0.317-0.472,0.43-0.72v-2.328c-0.063-0.029-0.144-0.059-0.242-0.088    c-0.098-0.028-0.207-0.055-0.326-0.08c-0.12-0.025-0.249-0.045-0.389-0.059C44.803,43.931,44.661,43.924,44.519,43.924z"/>
	</g>
	<g class="st3">
		<path class="st7" d="M53.985,44.218c-0.071,0.144-0.144,0.298-0.22,0.466c-0.076,0.166-0.148,0.33-0.217,0.49    c-0.069,0.16-0.134,0.313-0.195,0.455c-0.061,0.145-0.111,0.266-0.152,0.366c-0.034,0.08-0.079,0.189-0.134,0.327    c-0.056,0.139-0.118,0.295-0.188,0.467c-0.069,0.172-0.143,0.354-0.22,0.545s-0.153,0.381-0.228,0.568    c-0.179,0.44-0.37,0.914-0.572,1.422h-0.962c-0.196-0.484-0.379-0.941-0.552-1.371c-0.074-0.184-0.15-0.371-0.228-0.562    s-0.151-0.373-0.22-0.548c-0.069-0.176-0.133-0.336-0.192-0.483s-0.109-0.269-0.149-0.365c-0.041-0.101-0.091-0.224-0.152-0.368    s-0.126-0.298-0.197-0.458s-0.144-0.323-0.218-0.488s-0.147-0.319-0.218-0.463h1.063l1.544,4.104l1.544-4.104H53.985z"/>
		<path class="st7" d="M54.871,42.59c0-0.093,0.015-0.18,0.045-0.262s0.073-0.154,0.129-0.216s0.123-0.11,0.2-0.146    s0.164-0.053,0.258-0.053c0.094,0,0.182,0.018,0.263,0.053c0.081,0.035,0.15,0.084,0.208,0.146    c0.057,0.062,0.103,0.134,0.136,0.216s0.051,0.169,0.051,0.262c0,0.094-0.017,0.182-0.051,0.264s-0.079,0.153-0.136,0.215    c-0.058,0.063-0.127,0.11-0.208,0.146c-0.081,0.035-0.169,0.053-0.263,0.053c-0.095,0-0.181-0.018-0.258-0.053    s-0.145-0.083-0.2-0.146c-0.056-0.062-0.099-0.133-0.129-0.215S54.871,42.684,54.871,42.59z M55.984,46.946    c0,0.16,0.002,0.35,0.008,0.567c0.005,0.219,0.012,0.44,0.02,0.664s0.019,0.438,0.03,0.641c0.012,0.203,0.026,0.373,0.043,0.506    h-1.038v-2.653c0-0.243-0.001-0.483-0.003-0.722c-0.001-0.236-0.005-0.461-0.01-0.673c-0.005-0.212-0.013-0.409-0.023-0.591    s-0.023-0.338-0.041-0.468h1.012V46.946z"/>
		<path class="st7" d="M57.427,46.796c0-0.431,0.066-0.812,0.197-1.144c0.132-0.332,0.309-0.613,0.531-0.842    c0.223-0.229,0.483-0.4,0.78-0.518s0.612-0.176,0.946-0.176c0.348,0,0.666,0.059,0.954,0.176s0.537,0.289,0.744,0.518    s0.369,0.51,0.483,0.842s0.172,0.713,0.172,1.144s-0.066,0.812-0.198,1.142c-0.131,0.33-0.309,0.607-0.531,0.831    s-0.482,0.394-0.78,0.509c-0.297,0.114-0.612,0.172-0.946,0.172c-0.348,0-0.666-0.058-0.954-0.172    c-0.289-0.115-0.537-0.285-0.744-0.509s-0.369-0.501-0.483-0.831S57.427,47.227,57.427,46.796z M58.364,46.796    c0,0.29,0.035,0.551,0.106,0.781c0.071,0.229,0.171,0.425,0.301,0.583s0.284,0.279,0.463,0.363    c0.179,0.083,0.378,0.125,0.598,0.125c0.202,0,0.393-0.042,0.572-0.125c0.179-0.084,0.335-0.205,0.468-0.363    s0.238-0.354,0.314-0.583c0.076-0.23,0.114-0.491,0.114-0.781c0-0.294-0.036-0.557-0.106-0.788    c-0.071-0.232-0.171-0.43-0.301-0.592c-0.13-0.161-0.285-0.285-0.465-0.369c-0.181-0.086-0.379-0.129-0.595-0.129    c-0.206,0-0.398,0.043-0.577,0.129c-0.179,0.084-0.334,0.208-0.466,0.369c-0.131,0.162-0.235,0.359-0.311,0.592    C58.401,46.239,58.364,46.502,58.364,46.796z"/>
		<path class="st7" d="M66.355,44.117c0.54,0,0.953,0.175,1.24,0.523c0.287,0.349,0.43,0.867,0.43,1.555v3.129h-0.937V46.57    c0-0.313-0.021-0.572-0.063-0.775c-0.042-0.203-0.105-0.365-0.188-0.483s-0.187-0.201-0.314-0.248    c-0.126-0.046-0.275-0.069-0.448-0.069c-0.182,0-0.36,0.042-0.534,0.127c-0.174,0.086-0.333,0.195-0.478,0.33    c-0.145,0.136-0.273,0.289-0.385,0.459s-0.194,0.34-0.248,0.51v2.904h-0.937v-3.079c0-0.493-0.028-0.911-0.083-1.254    s-0.112-0.601-0.169-0.773h0.911c0.02,0.054,0.041,0.122,0.061,0.208c0.021,0.084,0.039,0.174,0.056,0.268    c0.017,0.094,0.032,0.186,0.046,0.275l0.041,0.225c0.32-0.38,0.645-0.654,0.972-0.823S65.998,44.117,66.355,44.117z"/>
	</g>
	<g class="st3">
		<path class="st8" d="M77.023,10.523h-2.83l-0.617,1.752h-0.943c0.04-0.091,0.081-0.187,0.124-0.287s0.09-0.213,0.141-0.339    c0.05-0.125,0.106-0.269,0.168-0.43c0.061-0.161,0.132-0.347,0.211-0.56l1.841-5.029h0.988l1.841,5.029    c0.077,0.212,0.146,0.399,0.207,0.56c0.062,0.161,0.118,0.305,0.171,0.43c0.052,0.126,0.1,0.239,0.143,0.339    s0.084,0.196,0.124,0.287h-0.943L77.023,10.523z M74.442,9.818h2.333l-1.174-3.3L74.442,9.818z"/>
	</g>
	<g class="st3">
		<path class="st8" d="M37.453,10.345c-0.254,0.344-0.522,0.609-0.803,0.794c-0.335,0.199-0.693,0.298-1.074,0.298    c-0.542,0-0.934-0.228-1.175-0.685c-0.214-0.384-0.318-0.86-0.311-1.43c0-0.735,0.177-1.344,0.532-1.828    c0.388-0.503,0.964-0.754,1.727-0.754c0.428,0,0.796,0.136,1.104,0.407V6.791h0.944v3.525c0,0.014,0,0.023,0,0.03    c0,0.007,0,0.014,0,0.02c0,0.013,0,0.025,0,0.035s0,0.017,0,0.02s0,0.01,0,0.02c0,0.01,0,0.017,0,0.02s0,0.01,0,0.02    c0,0.01,0,0.017,0,0.02c0,0.003,0,0.01,0,0.02s0,0.017,0,0.02s0,0.008,0,0.015c0,0.007,0,0.012,0,0.015s0,0.006,0,0.01    s0,0.007,0,0.01c0,0.003,0,0.006,0,0.01s0,0.048,0,0.134c0,0.086,0.023,0.166,0.07,0.238c0.067,0.093,0.214,0.139,0.442,0.139    c0.221,0,0.452-0.271,0.692-0.814c0.021-0.06,0.057-0.161,0.111-0.303c0.053-0.142,0.12-0.329,0.201-0.561l0.161,0.308    c-0.167,0.49-0.281,0.801-0.341,0.933c-0.241,0.51-0.603,0.765-1.084,0.765c-0.796,0-1.195-0.36-1.195-1.082V10.345z M36.52,6.999    c-0.515,0-0.89,0.235-1.125,0.705c-0.214,0.404-0.321,0.86-0.321,1.37c0,0.404,0.09,0.765,0.271,1.083    c0.201,0.377,0.499,0.566,0.894,0.566c0.241,0,0.475-0.08,0.703-0.238c0.174-0.132,0.345-0.324,0.512-0.576V7.833    C37.319,7.277,37.008,6.999,36.52,6.999z"/>
	</g>
	<g class="st3">
		<path class="st7" d="M118.396,49.025h0.67v-0.58c0-0.496,0.102-0.869,0.306-1.117s0.487-0.372,0.849-0.372    c0.131,0,0.261,0.021,0.388,0.062c0.128,0.041,0.243,0.098,0.349,0.17l-0.154,0.496c-0.085-0.061-0.179-0.109-0.281-0.145    s-0.203-0.053-0.301-0.053c-0.088,0-0.164,0.014-0.231,0.044s-0.122,0.077-0.167,0.144s-0.078,0.152-0.102,0.257    s-0.035,0.232-0.035,0.382v0.713h0.902v0.479h-0.902v1.179c0,0.16,0.001,0.32,0.004,0.479c0.004,0.157,0.01,0.307,0.018,0.449    s0.018,0.274,0.031,0.396c0.014,0.121,0.029,0.225,0.047,0.311h-0.719v-2.813h-0.67V49.025z"/>
	</g>
	<g class="st3">
		<path class="st9" d="M123.195,48.016c0.229,0,0.431,0.026,0.606,0.08c0.176,0.055,0.327,0.129,0.456,0.224    s0.236,0.206,0.322,0.333s0.155,0.264,0.207,0.41c0.051,0.146,0.088,0.299,0.111,0.457c0.021,0.158,0.033,0.314,0.033,0.469v0.162    c0,0.068-0.002,0.123-0.004,0.161h-2.967c0.009,0.243,0.047,0.454,0.115,0.634c0.068,0.179,0.162,0.327,0.28,0.444    s0.259,0.204,0.419,0.263c0.16,0.058,0.335,0.087,0.524,0.087c0.271,0,0.536-0.03,0.795-0.091s0.517-0.168,0.774-0.323    l0.083,0.683c-0.147,0.074-0.293,0.139-0.435,0.19c-0.143,0.053-0.285,0.095-0.428,0.128c-0.142,0.033-0.285,0.058-0.432,0.072    c-0.146,0.016-0.301,0.023-0.463,0.023c-0.268,0-0.523-0.047-0.766-0.139s-0.456-0.229-0.64-0.41    c-0.185-0.18-0.331-0.404-0.439-0.672s-0.163-0.578-0.163-0.932c0-0.342,0.047-0.65,0.141-0.928    c0.093-0.277,0.227-0.515,0.398-0.712c0.174-0.197,0.384-0.349,0.633-0.456C122.607,48.068,122.886,48.016,123.195,48.016z     M123.133,48.636c-0.307,0-0.559,0.089-0.754,0.267c-0.194,0.178-0.322,0.455-0.385,0.83h2.184c0-0.177-0.025-0.333-0.076-0.47    c-0.053-0.137-0.125-0.251-0.219-0.345c-0.093-0.094-0.203-0.165-0.332-0.212S123.283,48.636,123.133,48.636z"/>
	</g>
	<g class="st10">
		<path class="st11" d="M128.502,52.318h-0.619v-1.887c0-0.205-0.008-0.371-0.023-0.498s-0.042-0.227-0.078-0.298    c-0.037-0.071-0.087-0.12-0.149-0.144c-0.063-0.025-0.141-0.037-0.234-0.037c-0.083,0-0.165,0.017-0.247,0.05    c-0.083,0.033-0.162,0.08-0.236,0.141s-0.145,0.132-0.207,0.216c-0.064,0.082-0.118,0.173-0.163,0.272v2.185h-0.619v-2.035    c0-0.327-0.019-0.604-0.057-0.83s-0.075-0.396-0.11-0.512h0.602c0.025,0.071,0.047,0.154,0.064,0.25    c0.018,0.097,0.032,0.184,0.043,0.264c0.104-0.117,0.201-0.213,0.295-0.288s0.187-0.134,0.279-0.177s0.185-0.073,0.276-0.09    c0.091-0.016,0.185-0.024,0.28-0.024c0.109,0,0.209,0.015,0.299,0.046c0.089,0.031,0.168,0.072,0.235,0.123    c0.068,0.051,0.127,0.109,0.176,0.177c0.05,0.067,0.087,0.138,0.114,0.21c0.104-0.112,0.206-0.205,0.305-0.275    c0.098-0.072,0.193-0.129,0.287-0.17s0.186-0.069,0.276-0.086c0.091-0.016,0.179-0.024,0.267-0.024    c0.169,0,0.312,0.026,0.428,0.081c0.115,0.055,0.209,0.134,0.279,0.24c0.07,0.105,0.121,0.236,0.15,0.394    c0.03,0.157,0.045,0.337,0.045,0.543v2.185h-0.619v-1.82c0-0.215-0.008-0.389-0.023-0.523s-0.041-0.24-0.078-0.317    s-0.086-0.13-0.148-0.159c-0.063-0.028-0.141-0.043-0.234-0.043c-0.083,0-0.164,0.016-0.244,0.048s-0.158,0.077-0.232,0.136    c-0.075,0.059-0.145,0.13-0.208,0.214c-0.063,0.083-0.12,0.177-0.169,0.281V52.318z"/>
	</g>
	<g class="st3">
		<path class="st7" d="M134.164,52.318h-0.619v-1.887c0-0.205-0.008-0.371-0.023-0.498s-0.043-0.227-0.079-0.298    c-0.037-0.071-0.087-0.12-0.149-0.144c-0.063-0.025-0.141-0.037-0.234-0.037c-0.082,0-0.164,0.017-0.247,0.05    s-0.161,0.08-0.235,0.141c-0.075,0.061-0.145,0.132-0.208,0.216c-0.063,0.082-0.118,0.173-0.163,0.272v2.185h-0.619v-2.035    c0-0.327-0.018-0.604-0.057-0.83c-0.037-0.227-0.074-0.396-0.109-0.512h0.602c0.025,0.071,0.046,0.154,0.064,0.25    c0.018,0.097,0.031,0.184,0.043,0.264c0.103-0.117,0.201-0.213,0.295-0.288s0.186-0.134,0.279-0.177    c0.092-0.043,0.184-0.073,0.275-0.09c0.092-0.016,0.186-0.024,0.281-0.024c0.109,0,0.209,0.015,0.298,0.046    s0.168,0.072,0.235,0.123c0.068,0.051,0.127,0.109,0.176,0.177c0.05,0.067,0.088,0.138,0.114,0.21    c0.104-0.112,0.206-0.205,0.305-0.275c0.099-0.072,0.194-0.129,0.288-0.17s0.186-0.069,0.275-0.086    c0.091-0.016,0.18-0.024,0.267-0.024c0.169,0,0.312,0.026,0.429,0.081c0.115,0.055,0.209,0.134,0.279,0.24    c0.07,0.105,0.12,0.236,0.15,0.394c0.029,0.157,0.045,0.337,0.045,0.543v2.185h-0.619v-1.82c0-0.215-0.008-0.389-0.023-0.523    s-0.041-0.24-0.078-0.317s-0.087-0.13-0.149-0.159c-0.063-0.028-0.141-0.043-0.234-0.043c-0.083,0-0.163,0.016-0.244,0.048    c-0.08,0.032-0.157,0.077-0.232,0.136s-0.144,0.13-0.208,0.214c-0.063,0.083-0.119,0.177-0.168,0.281V52.318z"/>
		<path class="st7" d="M138.564,48.876c0.182,0,0.344,0.021,0.484,0.064s0.262,0.103,0.365,0.179    c0.103,0.076,0.188,0.165,0.258,0.267c0.068,0.102,0.124,0.21,0.166,0.327c0.041,0.117,0.07,0.239,0.088,0.366    s0.027,0.252,0.027,0.376v0.129c0,0.055-0.002,0.098-0.004,0.129h-2.373c0.008,0.194,0.037,0.363,0.093,0.506    c0.054,0.145,0.129,0.263,0.224,0.356c0.096,0.094,0.207,0.164,0.335,0.21c0.128,0.047,0.269,0.07,0.42,0.07    c0.216,0,0.429-0.025,0.636-0.073c0.207-0.049,0.414-0.135,0.619-0.259l0.066,0.547c-0.117,0.06-0.233,0.11-0.348,0.152    c-0.113,0.041-0.227,0.076-0.341,0.103s-0.229,0.046-0.347,0.058s-0.24,0.018-0.369,0.018c-0.215,0-0.419-0.036-0.613-0.11    c-0.193-0.073-0.364-0.183-0.512-0.327s-0.264-0.324-0.352-0.538c-0.087-0.214-0.131-0.462-0.131-0.745    c0-0.273,0.038-0.521,0.113-0.743c0.074-0.222,0.181-0.411,0.318-0.569c0.139-0.158,0.307-0.279,0.506-0.363    C138.094,48.918,138.316,48.876,138.564,48.876z M138.514,49.373c-0.246,0-0.446,0.07-0.603,0.213    c-0.155,0.143-0.259,0.363-0.308,0.664h1.746c0-0.142-0.02-0.268-0.061-0.376c-0.042-0.109-0.1-0.202-0.175-0.276    c-0.075-0.075-0.163-0.131-0.267-0.169C138.746,49.391,138.635,49.373,138.514,49.373z"/>
	</g>
	<g class="st3">
		<path class="st7" d="M127.184,37.146c0,0.106,0.002,0.23,0.005,0.374s0.008,0.289,0.014,0.437    c0.005,0.148,0.013,0.289,0.021,0.424c0.008,0.134,0.017,0.247,0.027,0.337h-0.686v-3.74c0-0.322-0.006-0.614-0.017-0.875    c-0.011-0.262-0.028-0.488-0.05-0.681h0.686V37.146z"/>
	</g>
	<g class="st3">
		<path class="st4" d="M132.033,36.526c0,0.521,0.029,0.959,0.088,1.313s0.133,0.647,0.226,0.879h-0.732    c-0.014-0.036-0.033-0.085-0.059-0.149c-0.024-0.063-0.051-0.136-0.077-0.217c-0.026-0.081-0.052-0.169-0.075-0.263    c-0.024-0.094-0.044-0.188-0.062-0.281c-0.107,0.138-0.223,0.268-0.344,0.389c-0.122,0.122-0.25,0.229-0.383,0.323    c-0.135,0.094-0.273,0.167-0.419,0.222c-0.146,0.054-0.293,0.081-0.443,0.081c-0.176,0-0.351-0.037-0.524-0.112    c-0.175-0.074-0.332-0.186-0.471-0.335c-0.141-0.149-0.253-0.336-0.34-0.561c-0.086-0.225-0.129-0.489-0.129-0.792    c0-0.317,0.035-0.605,0.106-0.863s0.168-0.487,0.29-0.689c0.109-0.176,0.225-0.331,0.348-0.463s0.258-0.242,0.404-0.329    s0.307-0.152,0.482-0.196s0.371-0.066,0.586-0.066c0.105,0,0.224,0.008,0.354,0.023s0.262,0.037,0.397,0.064    c0.136,0.028,0.27,0.061,0.403,0.1c0.135,0.039,0.258,0.08,0.373,0.124V36.526z M129.753,32.099l1.464,1.779h-0.669l-1.757-1.779    H129.753z M130.338,35.119c-0.088,0-0.179,0.01-0.27,0.031c-0.09,0.021-0.18,0.056-0.268,0.105    c-0.088,0.05-0.173,0.115-0.255,0.197c-0.083,0.082-0.159,0.184-0.232,0.308c-0.075,0.127-0.136,0.285-0.182,0.474    c-0.046,0.189-0.069,0.383-0.069,0.582c0,0.229,0.021,0.426,0.064,0.59c0.044,0.164,0.102,0.299,0.172,0.405    c0.071,0.106,0.152,0.184,0.242,0.234c0.092,0.049,0.183,0.074,0.274,0.074c0.117,0,0.245-0.036,0.383-0.107    s0.272-0.167,0.403-0.286s0.255-0.255,0.371-0.41c0.115-0.154,0.211-0.314,0.286-0.48v-1.551c-0.042-0.02-0.096-0.039-0.161-0.058    c-0.065-0.019-0.138-0.037-0.217-0.054c-0.08-0.017-0.166-0.03-0.26-0.04C130.527,35.124,130.434,35.119,130.338,35.119z"/>
	</g>
	<g class="st3">
		<path class="st6" d="M17.497,68.71l-0.627,0.355l-0.052-0.372l0.721-0.439h0.356v2.711h0.659v0.352h-1.715v-0.352h0.659V68.71z"/>
		<path class="st6" d="M20.31,70.023c0,0.42-0.075,0.809-0.224,1.164c-0.149,0.356-0.367,0.682-0.654,0.977l-0.199-0.299    c0.117-0.133,0.218-0.27,0.304-0.411s0.157-0.288,0.212-0.44c0.056-0.15,0.097-0.309,0.124-0.475    c0.026-0.164,0.04-0.336,0.04-0.516c0-0.174-0.013-0.345-0.04-0.512c-0.027-0.168-0.068-0.328-0.124-0.48    s-0.126-0.295-0.212-0.428s-0.187-0.253-0.304-0.359l0.157-0.32c0.138,0.102,0.264,0.227,0.377,0.372    c0.114,0.146,0.21,0.31,0.291,0.49c0.08,0.181,0.142,0.376,0.186,0.585S20.31,69.797,20.31,70.023z"/>
		<path class="st6" d="M22.422,71.368c-0.05,0-0.105-0.005-0.164-0.014c-0.06-0.009-0.119-0.022-0.179-0.042    s-0.116-0.045-0.169-0.074c-0.053-0.031-0.098-0.066-0.136-0.107l0.094-0.383c0.035,0.039,0.074,0.074,0.117,0.105    c0.043,0.031,0.088,0.058,0.135,0.078c0.046,0.021,0.095,0.037,0.144,0.047c0.05,0.012,0.099,0.018,0.147,0.018    c0.077,0,0.147-0.014,0.211-0.041c0.064-0.026,0.119-0.068,0.165-0.124c0.046-0.056,0.082-0.126,0.108-0.212    s0.039-0.188,0.039-0.307v-1.023c0-0.101,0-0.199-0.001-0.295c0-0.096-0.002-0.186-0.004-0.271    c-0.002-0.084-0.005-0.163-0.01-0.235c-0.004-0.072-0.01-0.136-0.017-0.191h0.429v1.913c0,0.216-0.022,0.396-0.067,0.545    c-0.044,0.147-0.107,0.267-0.187,0.357c-0.081,0.092-0.176,0.156-0.288,0.197C22.678,71.348,22.556,71.368,22.422,71.368z"/>
		<path class="st6" d="M24.064,68.244c0.007-0.033,0.02-0.063,0.039-0.088s0.042-0.047,0.068-0.064    c0.026-0.017,0.055-0.03,0.086-0.04s0.061-0.015,0.09-0.015c0.042,0,0.081,0.008,0.118,0.023c0.037,0.017,0.069,0.039,0.096,0.068    c0.027,0.03,0.049,0.066,0.065,0.107c0.016,0.043,0.024,0.09,0.024,0.143c0,0.127-0.03,0.252-0.091,0.377    c-0.061,0.123-0.152,0.242-0.275,0.357l-0.209-0.083c0.031-0.03,0.063-0.067,0.095-0.112c0.033-0.043,0.063-0.092,0.091-0.143    c0.028-0.053,0.051-0.105,0.069-0.162c0.018-0.056,0.027-0.109,0.027-0.162h-0.292V68.244z"/>
		<path class="st6" d="M26.062,69.165c0.114,0,0.215,0.013,0.303,0.04s0.164,0.064,0.228,0.111c0.064,0.048,0.118,0.104,0.161,0.167    c0.043,0.063,0.078,0.132,0.104,0.205s0.044,0.149,0.055,0.229c0.011,0.079,0.017,0.157,0.017,0.235v0.08    c0,0.035-0.001,0.062-0.002,0.08h-1.483c0.004,0.122,0.023,0.228,0.058,0.316c0.034,0.09,0.081,0.164,0.14,0.223    c0.06,0.059,0.129,0.104,0.209,0.132c0.08,0.028,0.167,0.044,0.262,0.044c0.135,0,0.268-0.016,0.397-0.046    s0.259-0.085,0.387-0.161l0.042,0.341c-0.074,0.037-0.146,0.069-0.217,0.095c-0.071,0.027-0.143,0.049-0.213,0.064    c-0.071,0.017-0.144,0.029-0.217,0.037c-0.073,0.007-0.15,0.011-0.231,0.011c-0.134,0-0.261-0.022-0.383-0.069    c-0.121-0.047-0.228-0.114-0.32-0.205c-0.092-0.09-0.166-0.202-0.22-0.336s-0.082-0.289-0.082-0.465    c0-0.172,0.023-0.326,0.07-0.465c0.047-0.139,0.113-0.258,0.2-0.355c0.086-0.1,0.191-0.175,0.315-0.229    C25.767,69.191,25.907,69.165,26.062,69.165z M26.03,69.475c-0.153,0-0.279,0.045-0.376,0.134s-0.162,0.228-0.192,0.415h1.092    c0-0.088-0.013-0.166-0.039-0.234c-0.025-0.068-0.062-0.127-0.108-0.174c-0.047-0.047-0.103-0.082-0.167-0.105    S26.105,69.475,26.03,69.475z"/>
		<path class="st6" d="M28.653,69.165c0.223,0,0.394,0.071,0.512,0.216c0.119,0.145,0.178,0.358,0.178,0.643v1.293h-0.387v-1.138    c0-0.13-0.009-0.237-0.026-0.321c-0.017-0.084-0.043-0.15-0.077-0.199s-0.078-0.083-0.13-0.103    c-0.052-0.019-0.114-0.028-0.185-0.028c-0.075,0-0.149,0.018-0.221,0.053s-0.138,0.08-0.197,0.137    c-0.06,0.055-0.113,0.118-0.159,0.188s-0.08,0.142-0.103,0.212v1.199h-0.387v-1.272c0-0.204-0.012-0.376-0.035-0.519    c-0.023-0.141-0.046-0.248-0.07-0.319h0.377c0.008,0.022,0.017,0.051,0.025,0.086s0.016,0.072,0.023,0.11    c0.007,0.039,0.013,0.077,0.019,0.114l0.017,0.093c0.132-0.156,0.266-0.271,0.401-0.34C28.363,69.199,28.505,69.165,28.653,69.165    z"/>
		<path class="st6" d="M29.69,69.258h0.418v-0.672h0.387v0.672h0.68v0.301h-0.68v0.951c0,0.105,0.005,0.193,0.016,0.26    c0.01,0.068,0.026,0.121,0.048,0.159c0.022,0.038,0.049,0.063,0.083,0.077c0.033,0.014,0.074,0.021,0.121,0.021    c0.06,0,0.127-0.014,0.203-0.04c0.076-0.026,0.159-0.064,0.251-0.116v0.332c-0.096,0.062-0.188,0.104-0.276,0.129    c-0.088,0.023-0.169,0.036-0.243,0.036c-0.082,0-0.159-0.009-0.23-0.028c-0.071-0.018-0.134-0.051-0.187-0.098    c-0.054-0.047-0.096-0.109-0.127-0.188c-0.03-0.078-0.046-0.177-0.046-0.297v-1.199H29.69V69.258z"/>
		<path class="st6" d="M32.577,69.165c0.114,0,0.215,0.013,0.303,0.04s0.164,0.064,0.228,0.111c0.064,0.048,0.118,0.104,0.161,0.167    c0.043,0.063,0.078,0.132,0.104,0.205s0.044,0.149,0.055,0.229c0.011,0.079,0.017,0.157,0.017,0.235v0.08    c0,0.035-0.001,0.062-0.002,0.08h-1.483c0.004,0.122,0.023,0.228,0.058,0.316c0.034,0.09,0.081,0.164,0.14,0.223    c0.06,0.059,0.129,0.104,0.209,0.132c0.08,0.028,0.167,0.044,0.262,0.044c0.135,0,0.268-0.016,0.397-0.046    s0.259-0.085,0.387-0.161l0.042,0.341c-0.074,0.037-0.146,0.069-0.217,0.095c-0.071,0.027-0.143,0.049-0.213,0.064    c-0.071,0.017-0.144,0.029-0.217,0.037c-0.073,0.007-0.15,0.011-0.231,0.011c-0.134,0-0.261-0.022-0.383-0.069    c-0.121-0.047-0.228-0.114-0.32-0.205c-0.092-0.09-0.166-0.202-0.22-0.336s-0.082-0.289-0.082-0.465    c0-0.172,0.023-0.326,0.07-0.465c0.047-0.139,0.113-0.258,0.2-0.355c0.086-0.1,0.191-0.175,0.315-0.229    C32.282,69.191,32.422,69.165,32.577,69.165z M32.545,69.475c-0.153,0-0.279,0.045-0.376,0.134s-0.162,0.228-0.192,0.415h1.092    c0-0.088-0.013-0.166-0.039-0.234c-0.025-0.068-0.062-0.127-0.108-0.174c-0.047-0.047-0.103-0.082-0.167-0.105    S32.621,69.475,32.545,69.475z"/>
		<path class="st6" d="M35.168,69.165c0.223,0,0.394,0.071,0.512,0.216c0.119,0.145,0.178,0.358,0.178,0.643v1.293h-0.387v-1.138    c0-0.13-0.009-0.237-0.026-0.321c-0.017-0.084-0.043-0.15-0.077-0.199s-0.078-0.083-0.13-0.103    c-0.052-0.019-0.114-0.028-0.185-0.028c-0.075,0-0.149,0.018-0.221,0.053s-0.138,0.08-0.197,0.137    c-0.06,0.055-0.113,0.118-0.159,0.188s-0.08,0.142-0.103,0.212v1.199h-0.387v-1.272c0-0.204-0.012-0.376-0.035-0.519    c-0.023-0.141-0.046-0.248-0.07-0.319h0.377c0.008,0.022,0.017,0.051,0.025,0.086s0.016,0.072,0.023,0.11    c0.007,0.039,0.013,0.077,0.019,0.114l0.017,0.093c0.132-0.156,0.266-0.271,0.401-0.34C34.878,69.199,35.02,69.165,35.168,69.165z    "/>
		<path class="st6" d="M38.297,70.22c0,0.261,0.015,0.479,0.045,0.657s0.067,0.324,0.112,0.439h-0.376    c-0.015-0.035-0.034-0.09-0.055-0.16c-0.022-0.071-0.042-0.146-0.06-0.223c-0.101,0.141-0.214,0.248-0.341,0.322    c-0.126,0.075-0.268,0.112-0.422,0.112c-0.128,0-0.244-0.024-0.346-0.071c-0.103-0.048-0.19-0.115-0.263-0.203    c-0.073-0.088-0.129-0.193-0.168-0.316s-0.059-0.261-0.059-0.412c0-0.184,0.025-0.35,0.076-0.497s0.121-0.273,0.21-0.378    c0.089-0.104,0.194-0.184,0.314-0.24s0.251-0.085,0.392-0.085c0.045,0,0.091,0.005,0.139,0.015    c0.048,0.01,0.096,0.022,0.145,0.039c0.048,0.017,0.095,0.035,0.141,0.057s0.089,0.043,0.13,0.065v-0.579    c0-0.167-0.004-0.313-0.012-0.438s-0.021-0.23-0.041-0.318h0.439V70.22z M37.355,69.517c-0.079,0-0.155,0.019-0.228,0.054    c-0.073,0.036-0.137,0.088-0.194,0.155c-0.056,0.067-0.101,0.149-0.135,0.247s-0.05,0.207-0.05,0.33    c0,0.241,0.042,0.424,0.125,0.549c0.083,0.123,0.216,0.186,0.398,0.186c0.064,0,0.128-0.016,0.191-0.047    c0.063-0.032,0.124-0.074,0.18-0.125c0.057-0.051,0.108-0.109,0.154-0.175s0.084-0.132,0.113-0.202v-0.816    c-0.052-0.027-0.1-0.051-0.145-0.07s-0.088-0.035-0.132-0.048c-0.043-0.013-0.087-0.021-0.132-0.028    C37.458,69.52,37.409,69.517,37.355,69.517z"/>
		<path class="st6" d="M39.708,69.165c0.075,0,0.146,0.005,0.212,0.015c0.066,0.01,0.127,0.021,0.182,0.038    c0.055,0.016,0.106,0.034,0.152,0.054s0.087,0.039,0.124,0.059l-0.073,0.362c-0.035-0.021-0.075-0.042-0.119-0.065    c-0.045-0.022-0.093-0.043-0.146-0.063s-0.108-0.035-0.167-0.049c-0.059-0.014-0.121-0.02-0.185-0.02    c-0.077,0-0.141,0.008-0.193,0.024s-0.094,0.038-0.125,0.063s-0.054,0.055-0.068,0.087c-0.014,0.032-0.021,0.063-0.021,0.094    c0,0.036,0.005,0.067,0.017,0.095c0.011,0.028,0.035,0.054,0.07,0.077c0.035,0.023,0.086,0.046,0.151,0.068    s0.153,0.046,0.264,0.07c0.095,0.021,0.184,0.048,0.268,0.079c0.084,0.033,0.157,0.074,0.22,0.123    c0.063,0.051,0.112,0.109,0.148,0.18c0.036,0.069,0.054,0.152,0.054,0.249c0,0.094-0.021,0.181-0.063,0.261    s-0.099,0.15-0.171,0.21c-0.073,0.06-0.158,0.106-0.255,0.141s-0.203,0.051-0.316,0.051c-0.085,0-0.167-0.007-0.246-0.019    c-0.079-0.013-0.153-0.029-0.222-0.052s-0.132-0.048-0.189-0.077c-0.057-0.028-0.106-0.059-0.148-0.09l0.104-0.373    c0.047,0.041,0.101,0.079,0.16,0.113c0.059,0.035,0.12,0.064,0.183,0.09c0.063,0.024,0.126,0.043,0.189,0.057    c0.063,0.014,0.123,0.02,0.179,0.02c0.061,0,0.117-0.008,0.168-0.023c0.051-0.016,0.095-0.037,0.131-0.063    c0.037-0.025,0.066-0.055,0.087-0.089s0.031-0.068,0.031-0.104c0-0.039-0.008-0.074-0.024-0.108s-0.045-0.066-0.088-0.098    c-0.042-0.03-0.101-0.062-0.176-0.09c-0.074-0.028-0.17-0.058-0.288-0.087c-0.126-0.03-0.23-0.066-0.311-0.107    c-0.08-0.041-0.143-0.087-0.188-0.137c-0.045-0.049-0.076-0.104-0.093-0.161c-0.017-0.058-0.025-0.12-0.025-0.185    c0-0.031,0.005-0.068,0.016-0.111s0.028-0.088,0.052-0.133c0.024-0.047,0.057-0.092,0.096-0.137s0.09-0.086,0.149-0.121    c0.06-0.035,0.13-0.063,0.211-0.086C39.509,69.176,39.603,69.165,39.708,69.165z"/>
	</g>
	<g class="st3">
		<path class="st6" d="M28.694,75.168c-0.446,0-0.669-0.297-0.669-0.89v-0.61c0-0.066,0-0.126-0.001-0.18    c-0.001-0.055-0.002-0.105-0.005-0.156s-0.007-0.102-0.013-0.154c-0.005-0.053-0.013-0.109-0.023-0.172h0.429v1.148    c0,0.117,0.006,0.219,0.018,0.303c0.012,0.085,0.032,0.154,0.06,0.209s0.064,0.096,0.11,0.121    c0.045,0.026,0.102,0.039,0.168,0.039c0.061,0,0.126-0.018,0.196-0.055c0.07-0.036,0.136-0.083,0.2-0.139    c0.063-0.057,0.122-0.119,0.174-0.188s0.092-0.135,0.12-0.197v-0.58c0-0.067,0-0.129-0.001-0.184c0-0.054-0.002-0.105-0.005-0.156    c-0.002-0.049-0.007-0.1-0.012-0.15c-0.006-0.051-0.014-0.108-0.023-0.172h0.429v1.18c0,0.201,0.011,0.377,0.034,0.528    s0.057,0.285,0.102,0.402h-0.355c-0.01-0.023-0.021-0.051-0.031-0.083c-0.011-0.031-0.022-0.065-0.033-0.102    c-0.01-0.035-0.02-0.072-0.029-0.112c-0.009-0.039-0.016-0.078-0.022-0.116c-0.127,0.152-0.257,0.268-0.392,0.347    S28.841,75.168,28.694,75.168z"/>
		<path class="st6" d="M31.683,72.965c0.223,0,0.394,0.072,0.512,0.216c0.119,0.145,0.178,0.358,0.178,0.643v1.293h-0.387v-1.138    c0-0.13-0.009-0.236-0.026-0.32c-0.017-0.084-0.043-0.151-0.077-0.2s-0.078-0.083-0.13-0.103s-0.114-0.029-0.185-0.029    c-0.075,0-0.149,0.018-0.221,0.053s-0.138,0.081-0.197,0.137c-0.06,0.057-0.113,0.119-0.159,0.189s-0.08,0.141-0.103,0.211v1.2    h-0.387v-1.272c0-0.204-0.012-0.377-0.035-0.518c-0.023-0.143-0.046-0.248-0.07-0.32h0.377c0.008,0.022,0.017,0.051,0.025,0.086    s0.016,0.072,0.023,0.111c0.007,0.038,0.013,0.076,0.019,0.113l0.017,0.094c0.132-0.158,0.266-0.271,0.401-0.341    S31.535,72.965,31.683,72.965z"/>
		<path class="st6" d="M34.885,72.965c0.075,0,0.146,0.005,0.212,0.014c0.066,0.01,0.127,0.023,0.182,0.039    c0.055,0.016,0.106,0.033,0.152,0.054s0.087,0.04,0.124,0.06l-0.073,0.361c-0.035-0.021-0.075-0.043-0.119-0.064    c-0.045-0.023-0.093-0.045-0.146-0.064c-0.052-0.019-0.108-0.035-0.167-0.048c-0.059-0.013-0.121-0.02-0.185-0.02    c-0.077,0-0.141,0.008-0.193,0.024s-0.094,0.037-0.125,0.063c-0.031,0.025-0.054,0.054-0.068,0.087    c-0.014,0.032-0.021,0.063-0.021,0.094c0,0.036,0.005,0.068,0.017,0.096s0.035,0.053,0.07,0.076    c0.035,0.023,0.086,0.047,0.151,0.068s0.153,0.045,0.264,0.07c0.095,0.021,0.184,0.047,0.268,0.08    c0.084,0.031,0.157,0.072,0.22,0.123c0.063,0.049,0.112,0.109,0.148,0.179s0.054,0.152,0.054,0.249    c0,0.094-0.021,0.181-0.063,0.261s-0.099,0.149-0.171,0.21c-0.073,0.061-0.158,0.107-0.255,0.141s-0.203,0.051-0.316,0.051    c-0.085,0-0.167-0.006-0.246-0.019s-0.153-0.03-0.222-0.052s-0.132-0.048-0.189-0.076c-0.057-0.029-0.106-0.06-0.148-0.092    l0.104-0.372c0.047,0.042,0.101,0.079,0.16,0.114c0.059,0.034,0.12,0.063,0.183,0.088c0.063,0.025,0.126,0.045,0.189,0.058    c0.063,0.013,0.123,0.02,0.179,0.02c0.061,0,0.117-0.008,0.168-0.024c0.051-0.016,0.095-0.036,0.131-0.062    c0.037-0.025,0.066-0.056,0.087-0.089s0.031-0.068,0.031-0.104c0-0.038-0.008-0.075-0.024-0.108    c-0.016-0.034-0.045-0.066-0.088-0.098s-0.101-0.061-0.176-0.09c-0.074-0.029-0.17-0.058-0.288-0.087    c-0.126-0.03-0.23-0.065-0.311-0.107c-0.08-0.042-0.143-0.087-0.188-0.137s-0.076-0.104-0.093-0.161    c-0.017-0.059-0.025-0.119-0.025-0.184c0-0.032,0.005-0.07,0.016-0.112c0.01-0.043,0.028-0.087,0.052-0.134    c0.024-0.046,0.057-0.092,0.096-0.137s0.09-0.084,0.149-0.119c0.06-0.035,0.13-0.064,0.211-0.086    C34.686,72.976,34.779,72.965,34.885,72.965z"/>
		<path class="st6" d="M36.024,74.071c0-0.178,0.027-0.335,0.082-0.473s0.127-0.253,0.22-0.348c0.092-0.095,0.199-0.165,0.322-0.214    c0.123-0.049,0.253-0.072,0.391-0.072c0.144,0,0.275,0.023,0.395,0.072s0.222,0.119,0.308,0.214c0.085,0.095,0.152,0.21,0.2,0.348    s0.071,0.295,0.071,0.473c0,0.179-0.027,0.335-0.082,0.472c-0.054,0.137-0.127,0.252-0.22,0.344    c-0.092,0.092-0.199,0.162-0.322,0.21c-0.123,0.048-0.253,0.071-0.391,0.071c-0.144,0-0.275-0.023-0.395-0.071    s-0.222-0.118-0.307-0.21c-0.086-0.092-0.152-0.207-0.2-0.344C36.048,74.406,36.024,74.25,36.024,74.071z M36.411,74.071    c0,0.12,0.015,0.228,0.044,0.323c0.029,0.095,0.071,0.176,0.125,0.24c0.054,0.066,0.118,0.116,0.191,0.15    c0.074,0.035,0.156,0.052,0.247,0.052c0.083,0,0.162-0.017,0.236-0.052c0.074-0.034,0.138-0.084,0.193-0.15    c0.055-0.064,0.098-0.146,0.129-0.24c0.032-0.096,0.047-0.203,0.047-0.323c0-0.121-0.015-0.229-0.044-0.325    s-0.071-0.178-0.125-0.244c-0.054-0.067-0.118-0.118-0.192-0.153s-0.157-0.053-0.246-0.053c-0.085,0-0.165,0.018-0.239,0.053    c-0.074,0.035-0.138,0.086-0.192,0.153c-0.054,0.066-0.097,0.148-0.128,0.244S36.411,73.95,36.411,74.071z"/>
		<path class="st6" d="M39.714,72.965c0.223,0,0.394,0.072,0.512,0.216c0.119,0.145,0.178,0.358,0.178,0.643v1.293h-0.387v-1.138    c0-0.13-0.009-0.236-0.026-0.32c-0.017-0.084-0.043-0.151-0.077-0.2s-0.078-0.083-0.13-0.103s-0.114-0.029-0.185-0.029    c-0.075,0-0.149,0.018-0.221,0.053s-0.138,0.081-0.197,0.137c-0.06,0.057-0.113,0.119-0.159,0.189s-0.08,0.141-0.103,0.211v1.2    h-0.387v-1.272c0-0.204-0.012-0.377-0.035-0.518c-0.023-0.143-0.046-0.248-0.07-0.32h0.377c0.008,0.022,0.017,0.051,0.025,0.086    s0.016,0.072,0.023,0.111c0.007,0.038,0.013,0.076,0.019,0.113l0.017,0.094c0.132-0.158,0.266-0.271,0.401-0.341    S39.566,72.965,39.714,72.965z"/>
	</g>
	<g class="st3">
		<path class="st6" d="M87.975,20.228h-2.008v-0.352c0.095-0.068,0.196-0.146,0.305-0.235c0.107-0.089,0.215-0.185,0.322-0.287    c0.105-0.102,0.209-0.208,0.307-0.32c0.099-0.111,0.186-0.222,0.261-0.334s0.136-0.222,0.181-0.33    c0.045-0.108,0.068-0.21,0.068-0.305c0-0.096-0.018-0.179-0.051-0.247c-0.035-0.068-0.08-0.124-0.136-0.167    s-0.119-0.075-0.19-0.094c-0.07-0.019-0.145-0.029-0.219-0.029c-0.064,0-0.131,0.009-0.199,0.028s-0.135,0.045-0.199,0.08    c-0.065,0.035-0.127,0.075-0.187,0.122s-0.112,0.098-0.158,0.153l-0.095-0.352c0.043-0.058,0.097-0.111,0.164-0.16    c0.066-0.049,0.141-0.092,0.223-0.128c0.082-0.036,0.167-0.064,0.258-0.084c0.09-0.02,0.178-0.03,0.266-0.03    c0.126,0,0.246,0.021,0.359,0.061c0.113,0.041,0.213,0.099,0.3,0.174s0.155,0.167,0.206,0.273    c0.051,0.107,0.076,0.228,0.076,0.361c0,0.116-0.021,0.233-0.063,0.353s-0.1,0.237-0.171,0.354c-0.07,0.116-0.152,0.23-0.242,0.34    c-0.091,0.11-0.184,0.215-0.28,0.314c-0.097,0.099-0.191,0.191-0.284,0.276c-0.094,0.085-0.179,0.16-0.256,0.225h0.533    c0.104,0,0.201,0,0.293-0.001c0.092-0.001,0.178-0.002,0.254-0.004c0.078-0.002,0.147-0.005,0.209-0.009    c0.061-0.004,0.113-0.009,0.154-0.017V20.228z"/>
		<path class="st6" d="M89.648,18.935c0,0.42-0.075,0.809-0.225,1.165c-0.148,0.356-0.367,0.682-0.654,0.977l-0.199-0.3    c0.117-0.132,0.219-0.27,0.305-0.411c0.086-0.142,0.156-0.288,0.213-0.44c0.055-0.151,0.096-0.31,0.123-0.475    c0.026-0.165,0.039-0.337,0.039-0.516c0-0.174-0.013-0.345-0.039-0.512c-0.027-0.167-0.068-0.328-0.123-0.48    c-0.057-0.152-0.127-0.295-0.213-0.428c-0.086-0.133-0.188-0.252-0.305-0.359l0.157-0.321c0.138,0.103,0.264,0.227,0.378,0.373    c0.113,0.146,0.21,0.31,0.291,0.49c0.08,0.181,0.142,0.375,0.186,0.584S89.648,18.709,89.648,18.935z"/>
		<path class="st6" d="M91.76,20.28c-0.05,0-0.104-0.004-0.164-0.014c-0.059-0.009-0.119-0.023-0.179-0.042    c-0.06-0.02-0.116-0.044-0.169-0.075s-0.099-0.066-0.137-0.107l0.095-0.383c0.034,0.04,0.073,0.075,0.117,0.106    c0.043,0.031,0.088,0.057,0.135,0.078c0.046,0.021,0.095,0.037,0.144,0.047c0.051,0.011,0.1,0.017,0.148,0.017    c0.076,0,0.146-0.013,0.211-0.04s0.119-0.068,0.165-0.125c0.046-0.056,0.082-0.126,0.108-0.212    c0.025-0.085,0.038-0.188,0.038-0.306v-1.024c0-0.101,0-0.199-0.001-0.295c0-0.096-0.002-0.186-0.004-0.271    s-0.006-0.164-0.01-0.236s-0.01-0.136-0.017-0.191h0.429v1.914c0,0.215-0.022,0.396-0.066,0.544    c-0.045,0.147-0.107,0.267-0.188,0.358c-0.08,0.091-0.176,0.156-0.287,0.196C92.017,20.26,91.895,20.28,91.76,20.28z"/>
		<path class="st6" d="M93.402,17.156c0.007-0.033,0.02-0.063,0.039-0.088c0.019-0.025,0.041-0.047,0.067-0.064    s0.056-0.031,0.086-0.041s0.061-0.014,0.09-0.014c0.042,0,0.081,0.008,0.118,0.023c0.037,0.016,0.068,0.039,0.096,0.068    s0.049,0.065,0.065,0.107c0.017,0.042,0.024,0.089,0.024,0.142c0,0.127-0.031,0.252-0.092,0.376s-0.152,0.243-0.274,0.358    l-0.21-0.083c0.031-0.03,0.063-0.067,0.096-0.112c0.033-0.044,0.063-0.092,0.091-0.144s0.052-0.105,0.069-0.162    c0.018-0.056,0.027-0.11,0.027-0.162h-0.293V17.156z"/>
		<path class="st6" d="M95.4,18.077c0.113,0,0.215,0.013,0.303,0.04s0.164,0.064,0.229,0.112c0.063,0.047,0.117,0.103,0.16,0.167    s0.078,0.132,0.104,0.205c0.026,0.073,0.045,0.149,0.056,0.229c0.011,0.079,0.017,0.157,0.017,0.235v0.081    c0,0.035,0,0.062-0.002,0.081h-1.482c0.004,0.122,0.023,0.227,0.057,0.316c0.035,0.09,0.082,0.164,0.141,0.223    c0.06,0.059,0.129,0.103,0.209,0.131s0.168,0.043,0.263,0.043c0.136,0,0.268-0.015,0.397-0.045s0.259-0.084,0.387-0.162    l0.042,0.341c-0.073,0.037-0.146,0.069-0.218,0.095c-0.07,0.026-0.143,0.048-0.213,0.064c-0.071,0.017-0.144,0.029-0.217,0.037    c-0.073,0.007-0.15,0.011-0.23,0.011c-0.135,0-0.262-0.023-0.383-0.069s-0.229-0.114-0.32-0.205s-0.166-0.203-0.22-0.336    s-0.081-0.289-0.081-0.465c0-0.171,0.023-0.326,0.069-0.464c0.047-0.139,0.113-0.257,0.2-0.356    c0.086-0.099,0.191-0.174,0.315-0.228S95.245,18.077,95.4,18.077z M95.369,18.387c-0.154,0-0.279,0.044-0.377,0.133    c-0.098,0.089-0.162,0.228-0.192,0.415h1.092c0-0.088-0.013-0.167-0.039-0.235c-0.025-0.068-0.062-0.126-0.108-0.173    s-0.103-0.082-0.166-0.105C95.514,18.398,95.443,18.387,95.369,18.387z M96.225,16.918l-0.879,0.89h-0.335l0.732-0.89H96.225z"/>
		<path class="st6" d="M97.773,18.077c0.14,0,0.26,0.016,0.361,0.048c0.101,0.033,0.189,0.075,0.266,0.127l-0.072,0.372    c-0.096-0.069-0.189-0.121-0.283-0.155c-0.093-0.035-0.193-0.052-0.303-0.052c-0.094,0-0.18,0.018-0.26,0.053    s-0.15,0.086-0.21,0.152c-0.06,0.066-0.105,0.147-0.139,0.244c-0.034,0.097-0.05,0.206-0.05,0.327    c0,0.111,0.015,0.213,0.045,0.304c0.031,0.091,0.075,0.169,0.133,0.235c0.057,0.065,0.125,0.116,0.207,0.152    c0.08,0.036,0.172,0.054,0.273,0.054c0.127,0,0.242-0.021,0.346-0.064c0.103-0.042,0.2-0.104,0.293-0.184l0.041,0.362    c-0.053,0.04-0.105,0.074-0.158,0.103c-0.052,0.028-0.106,0.052-0.164,0.07c-0.057,0.019-0.118,0.032-0.184,0.041    c-0.066,0.009-0.138,0.014-0.216,0.014c-0.141,0-0.272-0.024-0.396-0.073c-0.122-0.049-0.229-0.12-0.322-0.212    c-0.092-0.092-0.164-0.204-0.217-0.335s-0.08-0.279-0.08-0.445c0-0.156,0.025-0.303,0.076-0.441    c0.051-0.138,0.124-0.258,0.219-0.362c0.094-0.104,0.208-0.185,0.342-0.245C97.457,18.106,97.607,18.077,97.773,18.077z"/>
		<path class="st6" d="M98.945,20.228v-1.272c0-0.204-0.012-0.376-0.035-0.518s-0.047-0.248-0.07-0.32h0.377    c0.017,0.039,0.031,0.087,0.045,0.146s0.024,0.124,0.033,0.195c0.01,0.072,0.016,0.148,0.02,0.23    c0.005,0.081,0.007,0.163,0.007,0.246v0.134c0.071-0.194,0.141-0.355,0.209-0.483s0.136-0.229,0.204-0.305    c0.067-0.076,0.136-0.129,0.204-0.159c0.067-0.03,0.138-0.045,0.209-0.045c0.053,0,0.102,0.005,0.146,0.014    c0.044,0.01,0.09,0.026,0.136,0.048l-0.063,0.383c-0.041-0.017-0.076-0.028-0.107-0.033c-0.03-0.005-0.068-0.008-0.112-0.008    c-0.058,0-0.117,0.024-0.18,0.071c-0.063,0.047-0.124,0.111-0.186,0.189c-0.061,0.079-0.118,0.167-0.173,0.267    c-0.054,0.1-0.102,0.201-0.143,0.305s-0.074,0.206-0.099,0.305s-0.036,0.188-0.036,0.265c0,0.035,0,0.066,0.001,0.095    c0.001,0.029,0.003,0.057,0.006,0.084s0.009,0.054,0.014,0.081c0.006,0.027,0.013,0.056,0.021,0.086H98.945z"/>
		<path class="st6" d="M100.807,17.445c0-0.039,0.006-0.075,0.018-0.108c0.014-0.034,0.031-0.063,0.055-0.089    c0.022-0.025,0.05-0.045,0.082-0.06s0.067-0.022,0.106-0.022s0.075,0.007,0.108,0.022c0.034,0.015,0.063,0.035,0.086,0.06    s0.043,0.055,0.057,0.089s0.021,0.07,0.021,0.108s-0.008,0.075-0.021,0.109s-0.033,0.063-0.057,0.089s-0.052,0.045-0.086,0.06    c-0.033,0.015-0.069,0.021-0.108,0.021s-0.074-0.007-0.106-0.021s-0.06-0.035-0.082-0.06c-0.023-0.025-0.041-0.055-0.055-0.089    C100.813,17.521,100.807,17.484,100.807,17.445z M101.266,19.245c0,0.066,0.002,0.145,0.004,0.235s0.005,0.182,0.008,0.274    c0.004,0.092,0.008,0.181,0.014,0.265c0.004,0.084,0.01,0.154,0.018,0.209h-0.43v-1.097c0-0.101,0-0.2,0-0.298    c-0.002-0.098-0.003-0.19-0.005-0.278c-0.002-0.087-0.005-0.169-0.009-0.244c-0.005-0.075-0.01-0.14-0.018-0.194h0.418V19.245z"/>
		<path class="st6" d="M102.741,18.077c0.075,0,0.146,0.005,0.212,0.014c0.066,0.01,0.127,0.022,0.182,0.039    c0.056,0.016,0.106,0.034,0.152,0.054s0.087,0.04,0.123,0.059l-0.072,0.362c-0.035-0.021-0.075-0.042-0.119-0.065    c-0.045-0.023-0.094-0.044-0.146-0.063c-0.052-0.019-0.107-0.035-0.167-0.048s-0.121-0.02-0.185-0.02    c-0.077,0-0.142,0.008-0.193,0.024c-0.053,0.017-0.095,0.038-0.126,0.063c-0.031,0.025-0.054,0.054-0.067,0.087    c-0.015,0.032-0.021,0.063-0.021,0.094c0,0.036,0.006,0.068,0.017,0.095c0.011,0.028,0.034,0.053,0.07,0.077    c0.035,0.023,0.086,0.046,0.151,0.068s0.153,0.045,0.264,0.07c0.095,0.021,0.184,0.047,0.268,0.08s0.156,0.073,0.22,0.123    c0.063,0.05,0.112,0.109,0.148,0.179c0.036,0.069,0.054,0.152,0.054,0.249c0,0.094-0.02,0.181-0.063,0.261    c-0.041,0.08-0.099,0.15-0.171,0.21c-0.073,0.06-0.157,0.107-0.255,0.141s-0.203,0.051-0.316,0.051    c-0.085,0-0.167-0.006-0.246-0.019c-0.078-0.013-0.152-0.03-0.221-0.052c-0.069-0.022-0.133-0.048-0.189-0.077    c-0.058-0.029-0.107-0.059-0.148-0.091l0.104-0.373c0.048,0.042,0.102,0.079,0.16,0.114c0.06,0.035,0.121,0.064,0.184,0.089    s0.126,0.044,0.189,0.057c0.063,0.013,0.123,0.02,0.179,0.02c0.062,0,0.117-0.008,0.169-0.024    c0.051-0.016,0.094-0.037,0.131-0.062s0.066-0.055,0.087-0.089s0.031-0.068,0.031-0.104c0-0.039-0.008-0.075-0.024-0.108    c-0.016-0.034-0.045-0.066-0.088-0.098c-0.042-0.031-0.101-0.061-0.176-0.09c-0.074-0.029-0.17-0.058-0.287-0.087    c-0.127-0.03-0.23-0.066-0.311-0.107s-0.143-0.087-0.188-0.137c-0.046-0.049-0.076-0.104-0.094-0.161    c-0.017-0.058-0.025-0.12-0.025-0.184c0-0.032,0.006-0.069,0.016-0.112c0.011-0.043,0.028-0.087,0.053-0.133    c0.024-0.046,0.057-0.092,0.096-0.137c0.04-0.045,0.09-0.085,0.15-0.12c0.06-0.035,0.13-0.063,0.211-0.086    C102.542,18.087,102.635,18.077,102.741,18.077z"/>
	</g>
	<g class="st3">
		<path class="st6" d="M91.757,23.045c0,0.066,0.001,0.145,0.003,0.234c0.002,0.09,0.006,0.181,0.009,0.273    c0.003,0.092,0.008,0.181,0.013,0.265s0.011,0.154,0.018,0.211H91.37V21.69c0-0.201-0.003-0.384-0.011-0.547    c-0.007-0.164-0.018-0.305-0.031-0.425h0.429V23.045z"/>
		<path class="st6" d="M93.357,21.876c0.113,0,0.215,0.013,0.303,0.04s0.164,0.064,0.229,0.112c0.063,0.047,0.117,0.103,0.16,0.167    s0.078,0.132,0.104,0.205c0.026,0.073,0.045,0.149,0.056,0.229c0.011,0.079,0.017,0.157,0.017,0.235v0.081    c0,0.035,0,0.062-0.002,0.081H92.74c0.004,0.122,0.023,0.227,0.057,0.316c0.035,0.09,0.082,0.164,0.141,0.223    c0.06,0.059,0.129,0.103,0.209,0.131s0.168,0.043,0.263,0.043c0.136,0,0.268-0.015,0.397-0.045s0.259-0.084,0.387-0.162    l0.042,0.341c-0.073,0.037-0.146,0.069-0.218,0.095c-0.07,0.026-0.143,0.048-0.213,0.064c-0.071,0.017-0.144,0.029-0.217,0.037    c-0.073,0.007-0.15,0.011-0.23,0.011c-0.135,0-0.262-0.023-0.383-0.069s-0.229-0.114-0.32-0.205s-0.166-0.203-0.22-0.336    s-0.081-0.289-0.081-0.465c0-0.171,0.023-0.326,0.069-0.464c0.047-0.139,0.113-0.257,0.2-0.356    c0.086-0.099,0.191-0.174,0.315-0.228S93.202,21.876,93.357,21.876z M93.326,22.187c-0.154,0-0.279,0.044-0.377,0.133    c-0.098,0.089-0.162,0.228-0.192,0.415h1.092c0-0.088-0.013-0.167-0.039-0.235c-0.025-0.068-0.062-0.126-0.108-0.173    s-0.103-0.082-0.166-0.105C93.471,22.198,93.4,22.187,93.326,22.187z"/>
		<path class="st6" d="M96.672,21.876c0.075,0,0.146,0.005,0.213,0.014c0.065,0.01,0.127,0.022,0.182,0.039    c0.055,0.016,0.105,0.034,0.151,0.054s0.087,0.04,0.124,0.059l-0.074,0.362c-0.035-0.021-0.074-0.042-0.119-0.065    c-0.045-0.023-0.093-0.044-0.145-0.063c-0.053-0.019-0.108-0.035-0.168-0.048c-0.059-0.013-0.121-0.02-0.186-0.02    c-0.076,0-0.141,0.008-0.193,0.024c-0.052,0.017-0.094,0.038-0.125,0.063c-0.031,0.025-0.055,0.054-0.068,0.087    c-0.014,0.032-0.021,0.063-0.021,0.094c0,0.036,0.005,0.068,0.017,0.095c0.012,0.028,0.035,0.053,0.07,0.077    s0.086,0.046,0.151,0.068s0.153,0.045,0.264,0.07c0.095,0.021,0.185,0.047,0.268,0.08c0.084,0.032,0.157,0.073,0.22,0.123    s0.112,0.109,0.148,0.179c0.036,0.069,0.055,0.152,0.055,0.249c0,0.094-0.021,0.181-0.063,0.261c-0.043,0.08-0.1,0.15-0.172,0.21    s-0.158,0.107-0.256,0.141s-0.202,0.051-0.315,0.051c-0.085,0-0.167-0.006-0.245-0.019c-0.079-0.013-0.153-0.03-0.223-0.052    c-0.068-0.022-0.132-0.048-0.189-0.077c-0.057-0.029-0.105-0.059-0.148-0.091l0.105-0.373c0.047,0.042,0.101,0.079,0.16,0.114    c0.059,0.035,0.119,0.064,0.183,0.089c0.063,0.025,0.126,0.044,0.189,0.057s0.123,0.02,0.179,0.02    c0.061,0,0.117-0.008,0.168-0.024c0.051-0.016,0.096-0.037,0.132-0.062c0.037-0.025,0.065-0.055,0.087-0.089    s0.031-0.068,0.031-0.104c0-0.039-0.008-0.075-0.023-0.108c-0.017-0.034-0.046-0.066-0.088-0.098    c-0.043-0.031-0.102-0.061-0.176-0.09s-0.171-0.058-0.288-0.087c-0.126-0.03-0.229-0.066-0.311-0.107    c-0.08-0.042-0.143-0.087-0.188-0.137c-0.045-0.049-0.076-0.104-0.093-0.161c-0.017-0.058-0.024-0.12-0.024-0.184    c0-0.032,0.005-0.069,0.016-0.112c0.01-0.043,0.027-0.087,0.052-0.133c0.024-0.046,0.057-0.092,0.097-0.137    c0.039-0.045,0.09-0.085,0.148-0.12c0.061-0.035,0.131-0.063,0.212-0.086C96.473,21.887,96.566,21.876,96.672,21.876z"/>
		<path class="st6" d="M97.813,22.983c0-0.178,0.027-0.335,0.081-0.473s0.128-0.253,0.22-0.348c0.092-0.094,0.199-0.166,0.322-0.214    s0.253-0.072,0.391-0.072c0.145,0,0.275,0.024,0.395,0.072s0.222,0.12,0.308,0.214c0.085,0.095,0.152,0.21,0.2,0.348    c0.047,0.137,0.07,0.295,0.07,0.473c0,0.178-0.027,0.335-0.082,0.472c-0.054,0.137-0.127,0.251-0.219,0.344    s-0.199,0.162-0.322,0.21c-0.123,0.047-0.254,0.071-0.391,0.071c-0.145,0-0.275-0.024-0.395-0.071    c-0.119-0.048-0.223-0.118-0.308-0.21c-0.086-0.092-0.152-0.207-0.2-0.344C97.836,23.318,97.813,23.161,97.813,22.983z     M98.199,22.983c0,0.12,0.014,0.228,0.043,0.323s0.071,0.176,0.125,0.241s0.117,0.116,0.191,0.15    c0.074,0.035,0.156,0.052,0.247,0.052c0.083,0,0.162-0.017,0.236-0.052c0.073-0.034,0.138-0.084,0.193-0.15    s0.099-0.146,0.13-0.241s0.047-0.203,0.047-0.323c0-0.121-0.015-0.23-0.044-0.326s-0.071-0.177-0.124-0.244    c-0.055-0.067-0.118-0.118-0.193-0.153c-0.074-0.035-0.156-0.053-0.245-0.053c-0.085,0-0.165,0.018-0.239,0.053    c-0.073,0.035-0.137,0.086-0.191,0.153s-0.098,0.148-0.129,0.244S98.199,22.862,98.199,22.983z"/>
		<path class="st6" d="M101.502,21.876c0.223,0,0.394,0.072,0.512,0.216c0.119,0.145,0.178,0.358,0.178,0.643v1.293h-0.387V22.89    c0-0.13-0.009-0.237-0.026-0.321c-0.017-0.084-0.043-0.151-0.077-0.2s-0.078-0.083-0.13-0.103    c-0.052-0.019-0.114-0.029-0.185-0.029c-0.076,0-0.149,0.018-0.221,0.053c-0.072,0.035-0.139,0.081-0.197,0.137    c-0.061,0.056-0.113,0.119-0.16,0.189c-0.045,0.07-0.08,0.141-0.102,0.211v1.2h-0.387v-1.272c0-0.204-0.012-0.376-0.035-0.518    s-0.047-0.248-0.07-0.32h0.377c0.008,0.022,0.017,0.051,0.025,0.086c0.008,0.035,0.016,0.072,0.022,0.111s0.013,0.077,0.019,0.114    l0.018,0.093c0.132-0.157,0.266-0.271,0.4-0.34C101.212,21.911,101.354,21.876,101.502,21.876z"/>
	</g>
	<path class="st12" d="M43.2,70c0,0,0.2-3.1,3.2-3.1s3.2,3,3.2,3.1s0.2,1.2-1.1,2.5c0,0-0.3,0.3-0.4,0.9c0,0.7,0.2,1.8-0.6,2.5   c0,0-2.5,1.5-3.1-1.3"/>
	<path class="st12" d="M48.5,70.3c0,0-0.2-1.8-1.8-1.8s-1.8,1.9-1.8,2.1s0.1,0.7,0.5,0.7s0.6-0.9,1.3-0.9s0.9,0.4,0.9,0.7   c0,0.3-0.4,0.9-0.5,1.4c-0.1,0.4,0,1.2-0.5,1.6c-0.4,0.3-1.4,0.3-1.4-0.7"/>
	<path class="st13" d="M51,70.4c0,0,1.3,1.2,0.1,2.4"/>
	<path class="st13" d="M52.1,69.4c0,0,2.1,2.3,0,4.5"/>
	<path class="st13" d="M53.1,68.4c0,0,3.1,2.8,0,6.6"/>
	<g>
		<line class="st14" x1="110.7" y1="19.2" x2="108.6" y2="17.6"/>
		<polygon class="st7" points="114.5,10.2 116.5,7.7 118.6,9.4 116.6,11.9   "/>
		<polygon class="st4" points="112.5,12.7 114.5,10.2 116.7,11.9 114.6,14.3   "/>
		<polygon class="st11" points="108.5,17.6 110.6,15.1 112.7,16.8 110.6,19.3   "/>
		<polygon class="st9" points="110.6,15.1 112.6,12.6 114.7,14.3 112.7,16.8   "/>
		<polygon class="st15" points="110.2,19.5 108.2,17.9 105.8,23 110.3,19.6   "/>
	</g>
	<polygon class="st15" points="108.5,17.6 110.6,19.1 118.6,9.4 116.5,7.7  "/>
	<path class="st8" d="M131.5,41c0,0.6-0.5,1.1-1.1,1.1s-1.1-0.5-1.1-1.1s0.5-1.1,1.1-1.1S131.5,40.3,131.5,41z"/>
	<g>
		<path class="st16" d="M24.8,27.6l-0.2-5.2c0-0.5-0.2-1-0.6-1.4c-0.6-0.5-1.4-1.2-1.4-1.2l-2.3,8.5c0,0-7.3,1.3-8.6,1.9    c0,0-1.2,0.6-4.8-0.7l-1-2.4l-1.3,0.3L4.5,29c0,0-1.7-0.7-2.4-0.4C1.4,28.8,1,29.1,1,29.1l2.5,2.1l-3,3c-0.1,0.1,0,0.2,0.1,0.2    c0.5,0,1.5-0.2,2.4-0.9c1.3-1,1.6-1.2,1.6-1.2s2.2,0.9,3.3,0.8c0,0,0.1,0.9,1,0.9s3.2-0.2,3.8-0.5l3-0.1c0,0,1.4-0.1,0.4,1.2    S7.5,44.7,7.5,44.7l1.8-0.1c0,0,1.9-0.3,2.8-1.2C13,42.6,23.7,33,23.7,33s1.1-1,2.7-1.1s10-1.3,10-3C36.4,29,35.4,27,24.8,27.6z"/>
		<path class="st17" d="M11.4,30.4c0,0-0.3,0.6-1,0.7C9,31.2,5,31.5,5,31.5"/>
		<path class="st17" d="M3.4,31.2l2.3-0.7c0,0,1.8-0.4-1.3,1.4"/>
		<path class="st17" d="M17.3,33.3c0,0,2.2-0.6,5.5-0.6"/>
		<path class="st17" d="M33.6,28c0,0,0.1,0.1-0.5,0.7s-1.4,0.6-1.2,0.9c0.2,0.2,0.8,0.7,1.4,0.5c0.7-0.2,1.6-0.8,1.7-1.6L33.6,28z"/>
		<path class="st17" d="M26.4,28c0,0-4.5,0.5-7.8,1.1"/>
		<path class="st17" d="M7.2,30.1c0,0-3.2-0.8-3.7-1"/>
		<path class="st17" d="M12.7,33.5c0.5-0.7-0.5-1.1-0.5-1.1C11,31.8,8,33.1,8,33.1"/>
		<path class="st17" d="M12.1,32.4c0,0-0.5,0.5,0.3,1.2"/>
		<path class="st17" d="M16.6,31.5c0,0,0.2-1.3,0.8-0.1"/>
		<path class="st17" d="M23.8,30.7c0,0,0.2-1.3,0.8-0.1"/>
		<path class="st17" d="M22.3,30.9c0,0,0.2-1.3,0.8-0.1"/>
		<path class="st17" d="M20.7,31c0,0,0.2-1.3,0.8-0.1"/>
		<path class="st17" d="M19.2,31.2c0,0,0.2-1.3,0.8-0.1"/>
		<path class="st17" d="M17.9,31.3c0,0,0.2-1.3,0.8-0.1"/>
		<path class="st17" d="M25.2,30.5c0,0,0.2-1.3,0.8-0.1"/>
		<path class="st17" d="M26.6,30.3c0,0,0.2-1.3,0.8-0.1"/>
		<path class="st18" d="M24.8,27.6l-0.2-5.2c0-0.5-0.2-1-0.6-1.4c-0.6-0.5-1.4-1.2-1.4-1.2l-2.3,8.5c0,0-7.3,1.3-8.6,1.9    c0,0-1.2,0.6-4.8-0.7l-1-2.4l-1.3,0.3L4.5,29c0,0-1.7-0.7-2.4-0.4C1.4,28.8,1,29.1,1,29.1l2.5,2.1l-3,3c-0.1,0.1,0,0.2,0.1,0.2    c0.5,0,1.5-0.2,2.4-0.9c1.3-1,1.6-1.2,1.6-1.2s2.2,0.9,3.3,0.8c0,0,0.1,0.9,1,0.9s3.2-0.2,3.8-0.5l3-0.1c0,0,1.4-0.1,0.4,1.2    S7.5,44.7,7.5,44.7l1.8-0.1c0,0,1.9-0.3,2.8-1.2C13,42.6,23.7,33,23.7,33s1.1-1,2.7-1.1s10-1.3,10-3C36.4,29,35.4,27,24.8,27.6z"/>
	</g>
</g>
</svg>