<?xml version="1.0" encoding="UTF-8"?>
<!-- Generator: Adobe Illustrator 24.0.2, SVG Export Plug-In . SVG Version: 6.00 Build 0)  -->
<svg version="1.1" id="Calque_1" xmlns="http://www.w3.org/2000/svg" xmlns:xlink="http://www.w3.org/1999/xlink" x="0px" y="0px" viewBox="0 0 147 75" style="enable-background:new 0 0 147 75;" xml:space="preserve">
<style type="text/css">
	.st0{fill:#FFFFFF;stroke:#DADADA;stroke-width:0.7457;stroke-miterlimit:10;}
	.st1{fill:#FFFFFF;stroke:#9D9D9C;stroke-width:0.7293;stroke-miterlimit:10;}
	.st2{fill:#FFFFFF;stroke:#9D9D9C;stroke-width:0.7291;stroke-miterlimit:10;}
	.st3{fill:#FFFFFF;stroke:#000000;stroke-width:0.9722;stroke-miterlimit:10;}
	.st4{fill:none;stroke:#9D9D9C;stroke-width:0.9722;stroke-miterlimit:10;stroke-dasharray:9.4314,3.4296,9.4314,3.4296;}
	.st5{enable-background:new    ;}
	.st6{fill:#E11683;}
	.st7{fill:#706F6F;}
	.st8{fill:#7FC7EB;}
	.st9{fill:none;stroke:#B2B2B2;stroke-width:0.3646;stroke-miterlimit:10;}
	.st10{fill:#9D9D9C;}
	.st11{fill:#878787;}
	.st12{fill:#575756;}
	.st13{opacity:0.6;enable-background:new    ;}
	.st14{fill:#B2B2B2;}
	.st15{fill:#7DB728;}
	.st16{fill:#FFFFFF;}
	.st17{fill:none;stroke:#575756;stroke-width:0.1749;stroke-linecap:round;stroke-linejoin:round;stroke-miterlimit:10;}
	.st18{fill:none;stroke:#575756;stroke-width:0.5247;stroke-linecap:round;stroke-linejoin:round;stroke-miterlimit:10;}
	.st19{fill:#FFFFFF;stroke:#929292;stroke-width:0.1749;stroke-linecap:round;stroke-linejoin:round;stroke-miterlimit:10;}
	.st20{fill:none;stroke:#929292;stroke-width:0.1749;stroke-linecap:round;stroke-linejoin:round;stroke-miterlimit:10;}
	.st21{fill:none;stroke:#000000;stroke-width:0.1072;stroke-linecap:round;stroke-linejoin:round;stroke-miterlimit:10;}
</style>
<g id="_x3C_Groupe_x3E__ange">
	<rect x="109.5" y="58" class="st0" width="36.4" height="12.8"/>
	<rect x="109.7" y="1.2" class="st1" width="36" height="30.1"/>
	<rect x="109.8" y="31.3" class="st2" width="36" height="26.7"/>
	<rect x="65.4" y="22.5" class="st2" width="44.3" height="48.2"/>
	<path class="st3" d="M48.9,62.8H25.3V22.6h40v40.1H53.8c0,0-3.7,6.7-9.8,8C44,70.7,47.7,68.3,48.9,62.8z"/>
	<line class="st4" x1="65.8" y1="56.1" x2="109.7" y2="56.1"/>
	<g class="st5">
		<path class="st6" d="M99.813,26.498v0.537h-1.905v1.744h0.883c0.332,0,0.61-0.002,0.836-0.006s0.404-0.019,0.538-0.044v0.604    h-2.942c0.024-0.134,0.039-0.328,0.044-0.582c0.004-0.254,0.006-0.546,0.006-0.877v-1.979c0-0.331-0.002-0.624-0.006-0.877    c-0.005-0.253-0.02-0.448-0.044-0.582h2.843v0.554h-2.157v1.51H99.813z"/>
	</g>
	<g class="st5">
		<path class="st7" d="M101.711,25.468v3.865h-0.602c0.023-0.134,0.039-0.328,0.043-0.582s0.006-0.546,0.006-0.877v-1.979    c0-0.331-0.002-0.624-0.006-0.877c-0.004-0.253-0.02-0.448-0.043-0.582h0.602l2.658,3.881v-3.881h0.602    c-0.011,0.067-0.02,0.15-0.026,0.249c-0.007,0.098-0.012,0.209-0.015,0.333c-0.004,0.125-0.006,0.26-0.008,0.408    c0,0.147-0.001,0.304-0.001,0.47v3.438h-0.552L101.711,25.468z"/>
	</g>
	<g class="st5">
		<path class="st6" d="M69.328,27.179c0.044,0.273,0.127,0.479,0.247,0.617c0.152,0.215,0.377,0.322,0.676,0.322    c0.392,0,0.718-0.105,0.976-0.315c0.178-0.147,0.326-0.371,0.441-0.671l0.107,0.215c-0.139,0.402-0.357,0.693-0.656,0.872    c-0.294,0.174-0.689,0.262-1.184,0.262c-0.517,0-0.876-0.159-1.077-0.477c-0.165-0.228-0.248-0.552-0.248-0.973    c0-0.515,0.109-0.919,0.328-1.214c0.254-0.335,0.64-0.503,1.157-0.503c0.388,0,0.673,0.092,0.856,0.275    c0.178,0.161,0.268,0.389,0.268,0.684c0,0.004,0,0.008,0,0.01c0,0.002,0,0.004,0,0.006c0,0.002,0,0.005,0,0.007    c0,0.002,0,0.004,0,0.007s0,0.004,0,0.007c0,0.002,0,0.004,0,0.006c0,0.002,0,0.005,0,0.007c0,0.002,0,0.004,0,0.007    s0,0.004,0,0.007c0,0.002,0,0.004,0,0.006c0,0.002,0,0.005,0,0.007c0,0.002,0,0.004,0,0.007s0,0.005,0,0.01    c0,0.005,0,0.01,0,0.017s-0.001,0.018-0.003,0.034c-0.002,0.016-0.003,0.03-0.003,0.043c-0.04,0.282-0.375,0.483-1.003,0.604    c-0.196,0.049-0.493,0.087-0.889,0.114H69.328z M70.926,26.381c0-0.014,0.001-0.029,0.003-0.047    c0.002-0.018,0.003-0.041,0.003-0.067c0-0.201-0.074-0.375-0.221-0.523c-0.152-0.139-0.334-0.208-0.548-0.208    c-0.308,0-0.535,0.167-0.682,0.503c-0.121,0.269-0.181,0.57-0.181,0.906c0.036-0.004,0.094-0.011,0.174-0.02    c0.027,0,0.057-0.002,0.09-0.007c0.033-0.004,0.065-0.009,0.097-0.013c0.027,0,0.057-0.002,0.09-0.007    c0.034-0.004,0.066-0.009,0.097-0.014c0.04-0.004,0.104-0.011,0.194-0.02C70.587,26.792,70.882,26.631,70.926,26.381z"/>
	</g>
	<g class="st5">
		<path class="st7" d="M73.314,26.079c0.107-0.192,0.288-0.372,0.542-0.537c0.236-0.152,0.471-0.228,0.702-0.228    c0.25,0,0.448,0.054,0.595,0.161c0.188,0.13,0.281,0.317,0.281,0.563v1.671c0,0.166,0.01,0.277,0.027,0.335    c0.026,0.134,0.094,0.201,0.2,0.201c0.12,0,0.257-0.19,0.408-0.57c0.022-0.085,0.049-0.168,0.08-0.249    c0.014-0.044,0.03-0.093,0.05-0.144c0.021-0.051,0.041-0.106,0.064-0.165l0.1,0.202c-0.035,0.085-0.065,0.161-0.09,0.228    c-0.025,0.067-0.046,0.127-0.063,0.181c-0.009,0.018-0.017,0.037-0.021,0.057c-0.004,0.02-0.009,0.037-0.014,0.05    c-0.008,0.018-0.016,0.036-0.023,0.054c-0.006,0.018-0.012,0.033-0.016,0.047c-0.014,0.04-0.026,0.078-0.037,0.114    c-0.012,0.036-0.02,0.065-0.023,0.087c-0.134,0.224-0.373,0.335-0.716,0.335c-0.156,0-0.272-0.034-0.348-0.101    c-0.147-0.094-0.221-0.235-0.221-0.423v-1.832c0-0.139-0.022-0.257-0.067-0.355c-0.066-0.116-0.176-0.174-0.327-0.174    c-0.21,0-0.428,0.096-0.656,0.288c-0.272,0.219-0.417,0.454-0.435,0.705v1.892h-0.622v-2.086v-0.289    c0-0.201-0.004-0.322-0.013-0.362c-0.022-0.058-0.056-0.099-0.1-0.121c-0.107,0-0.254,0.272-0.441,0.818    c-0.049,0.134-0.093,0.25-0.13,0.349c-0.038,0.099-0.066,0.177-0.084,0.235c-0.053,0.148-0.087,0.249-0.1,0.302l-0.107-0.202    c0.018-0.063,0.033-0.109,0.047-0.141c0.004-0.027,0.011-0.053,0.02-0.077c0.009-0.024,0.018-0.05,0.026-0.077    c0.009-0.022,0.017-0.046,0.023-0.07c0.007-0.025,0.017-0.051,0.03-0.077c0.004-0.022,0.011-0.046,0.02-0.071    c0.009-0.024,0.018-0.05,0.027-0.077c0.009-0.022,0.017-0.044,0.023-0.067s0.017-0.047,0.03-0.074    c0.009-0.045,0.027-0.096,0.054-0.154c0.009-0.031,0.022-0.073,0.04-0.125c0.018-0.051,0.04-0.11,0.067-0.178    c0.169-0.411,0.386-0.617,0.649-0.617c0.258,0,0.419,0.067,0.481,0.201c0.04,0.076,0.06,0.264,0.06,0.564H73.314z"/>
	</g>
	<g class="st5">
		<path class="st6" d="M137.916,5.57v0.402h-1.414v1.309h0.654c0.246,0,0.453-0.002,0.621-0.005c0.166-0.003,0.3-0.014,0.398-0.032    v0.453h-2.184c0.019-0.101,0.029-0.246,0.033-0.437c0.003-0.19,0.004-0.41,0.004-0.658V5.117c0-0.248-0.001-0.467-0.004-0.658    c-0.004-0.19-0.015-0.336-0.033-0.437h2.109v0.415h-1.6V5.57H137.916z"/>
	</g>
	<g class="st5">
		<path class="st8" d="M139.584,4.022l1.068,3.158l1.078-3.158h0.547c0.02,0.599,0.039,1.149,0.059,1.65    c0.006,0.143,0.012,0.286,0.018,0.429c0.007,0.143,0.014,0.283,0.021,0.42s0.013,0.267,0.02,0.39    c0.007,0.123,0.013,0.236,0.019,0.338s0.012,0.191,0.02,0.268c0.006,0.076,0.013,0.135,0.02,0.177h-0.459l-0.07-3.014L140.9,7.696    h-0.484l-1.027-3.006l-0.077,3.006h-0.459c0.005-0.042,0.011-0.101,0.018-0.177c0.007-0.077,0.013-0.166,0.019-0.268    s0.012-0.215,0.019-0.338c0.007-0.124,0.013-0.253,0.021-0.39c0.006-0.137,0.012-0.277,0.018-0.42    c0.006-0.144,0.012-0.287,0.02-0.429c0.02-0.501,0.04-1.052,0.062-1.65H139.584z"/>
	</g>
	<g class="st5">
		<path class="st6" d="M112.982,6.563c0.039,0.239,0.11,0.418,0.215,0.54c0.131,0.188,0.326,0.282,0.584,0.282    c0.34,0,0.622-0.092,0.846-0.276c0.154-0.129,0.282-0.325,0.383-0.587l0.092,0.188c-0.119,0.353-0.309,0.607-0.566,0.763    c-0.256,0.153-0.598,0.229-1.025,0.229c-0.447,0-0.758-0.139-0.932-0.417c-0.144-0.199-0.215-0.483-0.215-0.851    c0-0.45,0.095-0.804,0.283-1.063c0.221-0.293,0.555-0.44,1.002-0.44c0.336,0,0.583,0.081,0.741,0.241    c0.154,0.141,0.231,0.34,0.231,0.599c0,0.004,0,0.007,0,0.009c0,0.002,0,0.004,0,0.006s0,0.004,0,0.006s0,0.004,0,0.006    s0,0.004,0,0.006s0,0.004,0,0.006s0,0.004,0,0.006s0,0.004,0,0.006s0,0.004,0,0.006s0,0.004,0,0.006s0,0.004,0,0.006    s0,0.004,0,0.006s0,0.005,0,0.009s0,0.009,0,0.015s0,0.016-0.002,0.029s-0.004,0.026-0.004,0.038    c-0.034,0.247-0.324,0.423-0.868,0.528c-0.17,0.043-0.427,0.076-0.771,0.1H112.982z M114.367,5.865c0-0.012,0-0.025,0.002-0.041    s0.004-0.035,0.004-0.059c0-0.176-0.064-0.329-0.191-0.458c-0.131-0.122-0.289-0.182-0.475-0.182c-0.267,0-0.464,0.147-0.591,0.44    c-0.104,0.235-0.157,0.499-0.157,0.792c0.031-0.004,0.082-0.01,0.151-0.018c0.022,0,0.05-0.002,0.078-0.006    s0.057-0.008,0.084-0.012c0.022,0,0.05-0.002,0.078-0.006s0.057-0.008,0.084-0.012c0.034-0.004,0.091-0.01,0.168-0.018    C114.073,6.225,114.328,6.084,114.367,5.865z"/>
	</g>
	<g class="st5">
		<path class="st8" d="M118.014,7.696h-0.55V5.624c0-0.121-0.021-0.225-0.063-0.311c-0.066-0.106-0.158-0.159-0.277-0.159    c-0.166,0-0.321,0.072-0.464,0.217c-0.144,0.152-0.226,0.331-0.249,0.534v1.791h-0.533V5.871V5.618    c0-0.078-0.004-0.184-0.012-0.317c-0.019-0.059-0.047-0.094-0.086-0.106c-0.081,0-0.197,0.194-0.348,0.581    c-0.035,0.083-0.079,0.198-0.133,0.347c-0.055,0.149-0.118,0.333-0.191,0.552l-0.081-0.165c0.008-0.035,0.022-0.092,0.046-0.17    c0.016-0.039,0.025-0.068,0.029-0.088c0.004-0.012,0.009-0.025,0.015-0.041s0.013-0.031,0.021-0.047    c0.012-0.035,0.027-0.082,0.046-0.141c0.02-0.059,0.042-0.129,0.069-0.211c0.213-0.583,0.431-0.875,0.654-0.875    c0.221,0,0.359,0.033,0.417,0.1c0.058,0.07,0.087,0.217,0.087,0.44c0.205-0.372,0.482-0.558,0.834-0.558    c0.182,0,0.342,0.039,0.48,0.118c0.154,0.102,0.251,0.247,0.289,0.434c0.213-0.368,0.5-0.552,0.863-0.552    c0.212,0,0.384,0.045,0.516,0.135c0.166,0.117,0.248,0.286,0.248,0.505v1.567c0,0.133,0.008,0.215,0.023,0.247    c0.02,0.086,0.082,0.129,0.186,0.129s0.215-0.17,0.33-0.511c0.016-0.059,0.027-0.096,0.035-0.111    c0.016-0.043,0.028-0.084,0.04-0.124c0.012-0.035,0.018-0.055,0.018-0.059c0.007-0.012,0.015-0.033,0.022-0.064    c0.008-0.02,0.016-0.039,0.023-0.059s0.018-0.042,0.029-0.065l0.092,0.182c-0.049,0.125-0.092,0.241-0.127,0.346    c-0.012,0.04-0.023,0.074-0.035,0.103c-0.011,0.029-0.019,0.052-0.022,0.067c-0.004,0.02-0.014,0.049-0.028,0.088    c-0.004,0.016-0.01,0.031-0.016,0.044s-0.008,0.026-0.008,0.038c-0.136,0.211-0.355,0.317-0.66,0.317    c-0.127,0-0.223-0.029-0.284-0.088c-0.116-0.083-0.173-0.192-0.173-0.329V5.624c0-0.121-0.02-0.225-0.059-0.311    c-0.059-0.106-0.152-0.159-0.283-0.159c-0.14,0-0.272,0.045-0.4,0.135c-0.17,0.117-0.279,0.276-0.33,0.475V7.696z"/>
	</g>
	<g class="st5">
		<path class="st7" d="M137.6,36.596h-1.541l-0.337,0.969h-0.515c0.022-0.05,0.045-0.103,0.068-0.159    c0.023-0.055,0.049-0.118,0.076-0.187c0.027-0.07,0.059-0.149,0.092-0.238s0.072-0.192,0.115-0.31l1.004-2.78h0.539l1.003,2.78    c0.042,0.117,0.079,0.221,0.112,0.31s0.064,0.168,0.094,0.238c0.027,0.069,0.054,0.132,0.077,0.187    c0.023,0.056,0.046,0.108,0.067,0.159h-0.514L137.6,36.596z M136.193,36.207h1.271l-0.64-1.824L136.193,36.207z"/>
	</g>
	<g class="st5">
		<path class="st8" d="M139.737,33.892l1.079,3.158l1.09-3.158h0.553c0.02,0.599,0.039,1.149,0.06,1.65    c0.005,0.143,0.011,0.286,0.018,0.429c0.007,0.143,0.013,0.283,0.021,0.42c0.006,0.137,0.013,0.267,0.02,0.39    c0.007,0.123,0.014,0.236,0.02,0.338s0.012,0.191,0.018,0.268c0.008,0.076,0.014,0.135,0.021,0.177h-0.464l-0.07-3.014    l-1.033,3.014h-0.488l-1.039-3.006l-0.078,3.006h-0.463c0.004-0.042,0.01-0.101,0.018-0.177c0.006-0.077,0.012-0.166,0.018-0.268    s0.013-0.215,0.02-0.338c0.006-0.124,0.014-0.253,0.02-0.39c0.008-0.137,0.014-0.277,0.02-0.42    c0.006-0.144,0.012-0.287,0.019-0.429c0.021-0.501,0.041-1.052,0.063-1.65H139.737z"/>
	</g>
	<g class="st5">
		<path class="st7" d="M114.949,36.721c-0.148,0.204-0.305,0.36-0.469,0.47c-0.195,0.118-0.404,0.176-0.626,0.176    c-0.315,0-0.544-0.135-0.685-0.405c-0.125-0.227-0.186-0.508-0.182-0.845c0-0.435,0.104-0.794,0.311-1.08    c0.226-0.297,0.562-0.446,1.006-0.446c0.25,0,0.465,0.081,0.645,0.241V34.62h0.549v2.084c0,0.008,0,0.014,0,0.018    c0,0.004,0,0.008,0,0.012c0,0.008,0,0.015,0,0.021s0,0.01,0,0.012s0,0.006,0,0.012s0,0.01,0,0.012s0,0.006,0,0.012s0,0.01,0,0.012    s0,0.006,0,0.012s0,0.01,0,0.012s0,0.005,0,0.009s0,0.007,0,0.009s0,0.004,0,0.006s0,0.004,0,0.006s0,0.004,0,0.006    s0,0.028,0,0.079c0,0.051,0.014,0.098,0.041,0.141c0.039,0.055,0.125,0.082,0.258,0.082c0.129,0,0.264-0.16,0.404-0.481    c0.012-0.035,0.033-0.095,0.064-0.179c0.031-0.084,0.07-0.195,0.117-0.332l0.094,0.182c-0.098,0.29-0.164,0.474-0.199,0.552    c-0.141,0.302-0.352,0.452-0.633,0.452c-0.464,0-0.695-0.213-0.695-0.64V36.721z M114.404,34.743    c-0.301,0-0.519,0.139-0.655,0.417c-0.125,0.239-0.188,0.509-0.188,0.811c0,0.239,0.053,0.452,0.158,0.64    c0.117,0.223,0.29,0.334,0.521,0.334c0.141,0,0.277-0.047,0.41-0.141c0.102-0.078,0.201-0.192,0.299-0.341v-1.227    C114.871,34.907,114.689,34.743,114.404,34.743z"/>
	</g>
	<g class="st5">
		<path class="st8" d="M119.391,37.361h-0.556v-2.072c0-0.121-0.021-0.225-0.063-0.311c-0.066-0.106-0.16-0.159-0.281-0.159    c-0.168,0-0.324,0.072-0.469,0.217c-0.145,0.152-0.229,0.331-0.252,0.534v1.791h-0.537v-1.826v-0.252    c0-0.078-0.004-0.184-0.012-0.317c-0.02-0.059-0.049-0.094-0.088-0.106c-0.082,0-0.199,0.194-0.352,0.581    c-0.035,0.083-0.08,0.198-0.135,0.347s-0.119,0.333-0.193,0.552l-0.082-0.165c0.008-0.035,0.023-0.092,0.047-0.17    c0.016-0.039,0.025-0.068,0.029-0.088c0.004-0.012,0.01-0.025,0.016-0.041s0.012-0.031,0.02-0.047    c0.012-0.035,0.027-0.082,0.047-0.141c0.02-0.059,0.043-0.129,0.07-0.211c0.215-0.583,0.436-0.875,0.662-0.875    c0.222,0,0.362,0.033,0.421,0.1c0.058,0.07,0.087,0.217,0.087,0.44c0.207-0.372,0.488-0.558,0.844-0.558    c0.184,0,0.345,0.039,0.485,0.118c0.155,0.102,0.253,0.247,0.292,0.434c0.215-0.368,0.506-0.552,0.873-0.552    c0.214,0,0.388,0.045,0.52,0.135c0.168,0.117,0.252,0.286,0.252,0.505v1.567c0,0.133,0.008,0.215,0.023,0.247    c0.02,0.086,0.082,0.129,0.188,0.129s0.217-0.17,0.334-0.511c0.016-0.059,0.027-0.096,0.035-0.111    c0.016-0.043,0.029-0.084,0.041-0.124c0.012-0.035,0.018-0.055,0.018-0.059c0.008-0.012,0.016-0.033,0.023-0.064    c0.008-0.02,0.016-0.039,0.023-0.059s0.018-0.042,0.029-0.065l0.094,0.182c-0.051,0.125-0.094,0.241-0.129,0.346    c-0.012,0.04-0.023,0.074-0.035,0.103s-0.02,0.052-0.023,0.067c-0.004,0.02-0.014,0.049-0.029,0.088    c-0.004,0.016-0.01,0.031-0.016,0.044s-0.008,0.026-0.008,0.038c-0.137,0.211-0.359,0.317-0.668,0.317    c-0.129,0-0.225-0.029-0.286-0.088c-0.117-0.083-0.176-0.192-0.176-0.329v-1.655c0-0.121-0.02-0.225-0.059-0.311    c-0.059-0.106-0.153-0.159-0.286-0.159c-0.141,0-0.275,0.045-0.404,0.135c-0.172,0.117-0.283,0.276-0.334,0.475V37.361z"/>
	</g>
	<path class="st9" d="M47.3,59.1c0,0,3.9,3.1,9.2,0"/>
	<path class="st9" d="M34.3,59.3c0,0,4.8,2.7,11.2,0"/>
	<g class="st5">
		<path class="st6" d="M80.258,31.578c0.57,0,1.076,0.068,1.516,0.204c0.438,0.136,0.818,0.325,1.139,0.566    c0.32,0.241,0.588,0.522,0.805,0.844c0.215,0.321,0.388,0.667,0.518,1.038c0.128,0.371,0.221,0.757,0.276,1.159    s0.083,0.798,0.083,1.19v0.409c0,0.175-0.003,0.311-0.01,0.409h-7.409c0.021,0.616,0.116,1.15,0.288,1.604    c0.17,0.455,0.403,0.83,0.699,1.127c0.297,0.297,0.645,0.52,1.045,0.666s0.838,0.22,1.313,0.22c0.675,0,1.337-0.077,1.984-0.23    c0.648-0.153,1.293-0.427,1.934-0.817l0.209,1.729c-0.369,0.188-0.731,0.35-1.087,0.481c-0.354,0.133-0.71,0.242-1.065,0.326    s-0.717,0.145-1.082,0.184c-0.365,0.037-0.75,0.057-1.154,0.057c-0.669,0-1.307-0.117-1.912-0.351    c-0.606-0.234-1.14-0.58-1.6-1.038c-0.459-0.457-0.825-1.025-1.097-1.703c-0.272-0.678-0.407-1.465-0.407-2.359    c0-0.867,0.116-1.651,0.35-2.354c0.233-0.703,0.566-1.304,0.998-1.803s0.957-0.884,1.578-1.153    C78.787,31.712,79.484,31.578,80.258,31.578z M80.102,33.15c-0.768,0-1.395,0.226-1.882,0.676s-0.808,1.151-0.962,2.102h5.455    c0-0.447-0.064-0.844-0.193-1.19c-0.129-0.346-0.31-0.638-0.543-0.875c-0.233-0.237-0.51-0.416-0.83-0.535    C80.825,33.21,80.477,33.15,80.102,33.15z"/>
	</g>
	<g class="st5">
		<path class="st10" d="M92.826,31.578c1.115,0,1.969,0.365,2.561,1.095c0.592,0.73,0.889,1.815,0.889,3.255v6.552h-1.934v-5.766    c0-0.657-0.043-1.199-0.131-1.625c-0.087-0.426-0.216-0.764-0.387-1.012c-0.17-0.248-0.387-0.421-0.647-0.519    c-0.261-0.098-0.569-0.146-0.925-0.146c-0.376,0-0.744,0.089-1.103,0.267s-0.688,0.409-0.987,0.692    c-0.3,0.283-0.564,0.603-0.794,0.959s-0.401,0.713-0.513,1.069v6.08h-1.933v-6.447c0-1.034-0.058-1.91-0.173-2.626    s-0.231-1.256-0.35-1.62h1.881c0.041,0.112,0.084,0.257,0.125,0.435c0.042,0.178,0.08,0.365,0.115,0.561    c0.035,0.195,0.066,0.388,0.094,0.576l0.084,0.472c0.662-0.797,1.33-1.372,2.006-1.725S92.088,31.578,92.826,31.578z"/>
	</g>
	<g class="st5">
		<path class="st11" d="M98.395,52.258h0.031c0.219,0,0.385-0.045,0.5-0.135c0.114-0.092,0.172-0.223,0.172-0.396    c0-0.156-0.056-0.282-0.167-0.38s-0.257-0.146-0.438-0.146c-0.183,0-0.385,0.058-0.606,0.172v-0.48    c0.203-0.104,0.426-0.154,0.666-0.154c0.323,0,0.578,0.085,0.764,0.254c0.188,0.17,0.28,0.4,0.28,0.694    c0,0.178-0.036,0.327-0.108,0.448c-0.072,0.122-0.186,0.227-0.344,0.313c0.138,0.054,0.238,0.12,0.301,0.198    c0.064,0.078,0.113,0.172,0.148,0.283c0.035,0.11,0.053,0.228,0.053,0.352c0,0.308-0.102,0.562-0.306,0.762    c-0.204,0.201-0.462,0.301-0.772,0.301c-0.266,0-0.522-0.064-0.77-0.193v-0.549c0.264,0.166,0.52,0.25,0.77,0.25    c0.168,0,0.305-0.051,0.407-0.152c0.103-0.1,0.154-0.233,0.154-0.399c0-0.14-0.042-0.261-0.128-0.364    c-0.05-0.059-0.105-0.103-0.166-0.13c-0.062-0.028-0.193-0.054-0.396-0.079l-0.046-0.006V52.258z"/>
		<path class="st11" d="M101.615,50.779l0.05-0.035l0.304,0.382c-0.268,0.173-0.49,0.362-0.666,0.567s-0.313,0.446-0.407,0.723    c0.186-0.095,0.37-0.143,0.554-0.143c0.276,0,0.509,0.098,0.697,0.295c0.189,0.195,0.283,0.437,0.283,0.721    c0,0.295-0.103,0.543-0.309,0.748c-0.205,0.205-0.455,0.307-0.75,0.307c-0.328,0-0.595-0.115-0.798-0.348    s-0.305-0.537-0.305-0.912c0-0.282,0.052-0.563,0.157-0.842c0.104-0.279,0.254-0.541,0.451-0.785    C101.072,51.213,101.319,50.986,101.615,50.779z M100.787,52.938c-0.014,0.079-0.02,0.167-0.02,0.264    c0,0.198,0.057,0.361,0.172,0.488c0.114,0.128,0.261,0.191,0.439,0.191c0.161,0,0.293-0.055,0.398-0.164    c0.104-0.108,0.156-0.246,0.156-0.412c0-0.17-0.056-0.307-0.167-0.411c-0.11-0.104-0.258-0.157-0.44-0.157    c-0.094,0-0.178,0.014-0.254,0.043C100.996,52.808,100.901,52.86,100.787,52.938z"/>
		<path class="st11" d="M104.94,50.748c0.216,0,0.399,0.078,0.552,0.232s0.229,0.34,0.229,0.556c0,0.215-0.076,0.399-0.229,0.554    s-0.337,0.231-0.551,0.231s-0.397-0.077-0.55-0.231c-0.153-0.154-0.23-0.339-0.23-0.554c0-0.216,0.076-0.401,0.229-0.556    S104.725,50.748,104.94,50.748z M106.715,50.738h0.388l-2.304,3.605h-0.387L106.715,50.738z M104.934,51.131    c-0.111,0-0.207,0.04-0.285,0.119c-0.08,0.08-0.119,0.176-0.119,0.287s0.04,0.205,0.12,0.283c0.08,0.079,0.175,0.118,0.284,0.118    c0.112,0,0.208-0.039,0.287-0.118c0.079-0.078,0.119-0.172,0.119-0.283c0-0.113-0.039-0.209-0.118-0.288    C105.144,51.17,105.048,51.131,104.934,51.131z M106.595,52.773c0.214,0,0.397,0.077,0.551,0.23    c0.153,0.154,0.23,0.338,0.23,0.553s-0.077,0.396-0.229,0.547s-0.336,0.226-0.552,0.226c-0.218,0-0.401-0.075-0.555-0.226    s-0.229-0.332-0.229-0.547c0-0.217,0.077-0.4,0.23-0.554C106.195,52.851,106.379,52.773,106.595,52.773z M106.59,53.156    c-0.11,0-0.204,0.039-0.281,0.118c-0.078,0.079-0.117,0.173-0.117,0.283c0,0.112,0.039,0.208,0.117,0.287    c0.077,0.079,0.171,0.119,0.281,0.119c0.113,0,0.209-0.039,0.287-0.118c0.078-0.078,0.117-0.174,0.117-0.288    c0-0.112-0.039-0.207-0.117-0.284C106.799,53.195,106.703,53.156,106.59,53.156z"/>
	</g>
	<g class="st5">
		<path class="st11" d="M98.508,64.22h0.502v3.515h-0.502V64.22z"/>
		<path class="st11" d="M101.097,67.249h1.333v0.485h-2.217v-0.035l0.211-0.249c0.33-0.409,0.592-0.757,0.786-1.042    s0.321-0.5,0.382-0.646c0.059-0.146,0.088-0.29,0.088-0.433c0-0.198-0.056-0.356-0.168-0.477c-0.111-0.12-0.26-0.181-0.445-0.181    c-0.141,0-0.279,0.042-0.416,0.125c-0.136,0.083-0.258,0.2-0.367,0.352v-0.64c0.272-0.224,0.554-0.335,0.843-0.335    c0.306,0,0.558,0.103,0.757,0.308c0.197,0.204,0.297,0.464,0.297,0.78c0,0.141-0.025,0.291-0.074,0.451s-0.137,0.345-0.262,0.554    s-0.339,0.493-0.64,0.854L101.097,67.249z"/>
		<path class="st11" d="M104.94,64.18c0.216,0,0.399,0.076,0.552,0.23s0.229,0.34,0.229,0.557c0,0.215-0.076,0.399-0.229,0.554    s-0.337,0.231-0.551,0.231s-0.397-0.077-0.55-0.231c-0.153-0.154-0.23-0.339-0.23-0.554c0-0.217,0.076-0.402,0.229-0.557    S104.725,64.18,104.94,64.18z M106.715,64.17h0.388l-2.304,3.604h-0.387L106.715,64.17z M104.934,64.562    c-0.111,0-0.207,0.04-0.285,0.119c-0.08,0.079-0.119,0.175-0.119,0.288c0,0.109,0.04,0.204,0.12,0.283    c0.08,0.078,0.175,0.117,0.284,0.117c0.112,0,0.208-0.039,0.287-0.117c0.079-0.079,0.119-0.174,0.119-0.283    c0-0.114-0.039-0.211-0.118-0.289C105.144,64.602,105.048,64.562,104.934,64.562z M106.595,66.205c0.214,0,0.397,0.076,0.551,0.23    c0.153,0.152,0.23,0.337,0.23,0.552c0,0.214-0.077,0.397-0.229,0.547c-0.152,0.15-0.336,0.226-0.552,0.226    c-0.218,0-0.401-0.075-0.555-0.226c-0.153-0.149-0.229-0.333-0.229-0.547c0-0.216,0.077-0.401,0.23-0.554    C106.195,66.281,106.379,66.205,106.595,66.205z M106.59,66.587c-0.11,0-0.204,0.04-0.281,0.118    c-0.078,0.078-0.117,0.173-0.117,0.283c0,0.112,0.039,0.208,0.117,0.287c0.077,0.08,0.171,0.119,0.281,0.119    c0.113,0,0.209-0.039,0.287-0.117c0.078-0.079,0.117-0.176,0.117-0.289c0-0.111-0.039-0.207-0.117-0.285    C106.799,66.626,106.703,66.587,106.59,66.587z"/>
	</g>
	<g class="st5">
		<path class="st12" d="M42.086,41.882c0,1.506,0.083,2.771,0.25,3.794c0.167,1.024,0.381,1.871,0.644,2.54h-2.085    c-0.04-0.104-0.095-0.247-0.167-0.431c-0.072-0.183-0.145-0.393-0.221-0.627c-0.075-0.234-0.147-0.488-0.214-0.759    s-0.125-0.542-0.173-0.813c-0.31,0.399-0.637,0.773-0.982,1.124c-0.346,0.351-0.709,0.661-1.09,0.933    c-0.381,0.271-0.778,0.483-1.191,0.639c-0.413,0.156-0.834,0.233-1.263,0.233c-0.5,0-0.999-0.107-1.495-0.323    c-0.497-0.215-0.943-0.537-1.34-0.967c-0.397-0.432-0.719-0.971-0.965-1.62s-0.369-1.412-0.369-2.288    c0-0.916,0.101-1.747,0.304-2.492c0.203-0.744,0.478-1.408,0.828-1.99c0.31-0.51,0.639-0.956,0.989-1.338    c0.35-0.383,0.733-0.699,1.15-0.95s0.875-0.44,1.376-0.568c0.5-0.127,1.056-0.191,1.667-0.191c0.302,0,0.637,0.022,1.007,0.065    c0.369,0.044,0.746,0.106,1.131,0.186s0.769,0.175,1.15,0.287c0.381,0.112,0.734,0.231,1.06,0.358V41.882z M37.261,37.818    c-0.254,0-0.51,0.03-0.768,0.09c-0.258,0.06-0.512,0.161-0.763,0.305c-0.25,0.144-0.492,0.333-0.727,0.568    c-0.234,0.234-0.455,0.531-0.661,0.89c-0.214,0.366-0.387,0.823-0.518,1.368c-0.131,0.546-0.197,1.105-0.197,1.68    c0,0.661,0.062,1.229,0.185,1.703c0.123,0.474,0.286,0.864,0.489,1.171c0.202,0.307,0.433,0.532,0.691,0.675    c0.258,0.144,0.518,0.215,0.78,0.215c0.333,0,0.697-0.104,1.09-0.311s0.776-0.481,1.149-0.824    c0.374-0.342,0.725-0.736,1.054-1.184c0.33-0.445,0.602-0.908,0.816-1.386v-4.481c-0.119-0.056-0.272-0.111-0.459-0.168    c-0.187-0.055-0.393-0.107-0.619-0.155c-0.227-0.048-0.473-0.085-0.739-0.114C37.799,37.833,37.531,37.818,37.261,37.818z"/>
		<path class="st12" d="M52.438,35.787c1.271,0,2.244,0.416,2.919,1.249c0.675,0.833,1.012,2.07,1.012,3.71v7.47h-2.204v-6.573    c0-0.748-0.05-1.366-0.149-1.852c-0.1-0.486-0.246-0.871-0.441-1.154c-0.194-0.282-0.44-0.479-0.738-0.591    c-0.298-0.112-0.649-0.167-1.054-0.167c-0.429,0-0.848,0.102-1.257,0.305c-0.409,0.203-0.785,0.466-1.126,0.788    c-0.341,0.323-0.643,0.688-0.905,1.094s-0.457,0.813-0.583,1.219v6.932h-2.204v-7.35c0-1.179-0.065-2.177-0.196-2.994    c-0.131-0.817-0.264-1.432-0.399-1.847h2.145c0.047,0.127,0.095,0.293,0.143,0.496c0.047,0.203,0.091,0.417,0.131,0.639    c0.04,0.223,0.075,0.442,0.107,0.657l0.096,0.538c0.754-0.908,1.517-1.563,2.287-1.966C50.79,35.988,51.596,35.787,52.438,35.787z    "/>
	</g>
	<g class="st5">
		<path class="st12" d="M38.866,54.445c0,0.688,0.038,1.264,0.114,1.731c0.076,0.467,0.174,0.853,0.293,1.158h-0.951    c-0.019-0.048-0.043-0.112-0.076-0.196s-0.066-0.179-0.101-0.286c-0.035-0.106-0.067-0.223-0.098-0.347    c-0.031-0.123-0.057-0.246-0.079-0.37c-0.141,0.182-0.291,0.353-0.448,0.513s-0.323,0.301-0.497,0.425s-0.355,0.221-0.543,0.292    c-0.188,0.07-0.38,0.105-0.576,0.105c-0.228,0-0.456-0.049-0.682-0.146c-0.227-0.098-0.43-0.246-0.611-0.441    c-0.181-0.197-0.328-0.443-0.44-0.738c-0.112-0.297-0.168-0.645-0.168-1.045c0-0.418,0.046-0.797,0.139-1.137    s0.218-0.643,0.378-0.907c0.141-0.232,0.292-0.437,0.451-0.61c0.16-0.175,0.334-0.318,0.524-0.434    c0.19-0.114,0.399-0.201,0.628-0.259c0.228-0.058,0.481-0.087,0.761-0.087c0.137,0,0.291,0.01,0.459,0.029    c0.168,0.021,0.34,0.049,0.516,0.085s0.351,0.079,0.524,0.131c0.174,0.051,0.335,0.105,0.483,0.163V54.445z M36.666,52.592    c-0.116,0-0.232,0.014-0.35,0.041c-0.118,0.027-0.234,0.074-0.348,0.14c-0.114,0.065-0.225,0.151-0.331,0.259    c-0.107,0.107-0.208,0.242-0.302,0.406c-0.098,0.167-0.177,0.375-0.236,0.624c-0.06,0.249-0.09,0.505-0.09,0.766    c0,0.302,0.028,0.562,0.084,0.776c0.056,0.217,0.13,0.395,0.223,0.535c0.092,0.14,0.197,0.242,0.315,0.308    s0.237,0.099,0.356,0.099c0.152,0,0.318-0.047,0.498-0.143c0.179-0.094,0.354-0.219,0.524-0.375c0.17-0.156,0.33-0.337,0.48-0.541    c0.15-0.203,0.274-0.414,0.373-0.632v-2.044c-0.055-0.025-0.125-0.051-0.209-0.076s-0.179-0.049-0.282-0.071    c-0.104-0.021-0.216-0.039-0.337-0.052C36.911,52.599,36.789,52.592,36.666,52.592z"/>
	</g>
	<g class="st5">
		<path class="st12" d="M43.619,51.666c0.58,0,1.023,0.189,1.332,0.569c0.308,0.38,0.462,0.944,0.462,1.692v3.407h-1.005v-2.998    c0-0.342-0.022-0.624-0.068-0.845c-0.045-0.223-0.112-0.397-0.201-0.526s-0.201-0.219-0.337-0.271    c-0.136-0.051-0.296-0.076-0.481-0.076c-0.195,0-0.387,0.047-0.573,0.14s-0.357,0.212-0.513,0.359s-0.293,0.313-0.413,0.499    s-0.208,0.371-0.266,0.557v3.161h-1.005v-3.353c0-0.537-0.03-0.993-0.09-1.365c-0.06-0.373-0.121-0.653-0.182-0.842h0.978    c0.022,0.058,0.044,0.133,0.065,0.226c0.022,0.093,0.042,0.19,0.06,0.292s0.035,0.201,0.049,0.299l0.043,0.246    c0.344-0.414,0.692-0.713,1.043-0.896C42.868,51.758,43.235,51.666,43.619,51.666z"/>
	</g>
	<g class="st13">
		<path class="st6" d="M51.227,57.23c0,0.369-0.054,0.685-0.161,0.947s-0.248,0.478-0.422,0.644    c-0.174,0.167-0.373,0.288-0.596,0.367c-0.223,0.078-0.45,0.117-0.682,0.117c-0.267,0-0.533-0.046-0.796-0.138    c-0.264-0.093-0.507-0.215-0.729-0.365l0.271-0.65c0.198,0.143,0.397,0.259,0.598,0.348c0.201,0.09,0.406,0.135,0.615,0.135    c0.108,0,0.229-0.02,0.359-0.059s0.253-0.107,0.368-0.203c0.114-0.097,0.21-0.227,0.287-0.389s0.115-0.364,0.115-0.607v-0.775    c-0.109,0.137-0.224,0.254-0.345,0.35c-0.121,0.097-0.244,0.175-0.368,0.234c-0.124,0.061-0.248,0.104-0.372,0.131    c-0.124,0.026-0.243,0.039-0.357,0.039c-0.192,0-0.378-0.033-0.556-0.1c-0.178-0.068-0.336-0.175-0.474-0.321    c-0.138-0.147-0.248-0.337-0.331-0.572c-0.082-0.235-0.123-0.519-0.123-0.852c0-0.321,0.042-0.634,0.125-0.938    c0.083-0.305,0.213-0.576,0.389-0.813c0.175-0.236,0.4-0.426,0.675-0.57c0.274-0.144,0.603-0.215,0.984-0.215    c0.125,0,0.254,0.008,0.387,0.027c0.132,0.018,0.264,0.042,0.395,0.072c0.131,0.031,0.259,0.065,0.385,0.104    c0.125,0.037,0.245,0.074,0.359,0.111V57.23z M49.576,53.688c-0.229,0-0.423,0.047-0.585,0.14    c-0.162,0.094-0.293,0.217-0.395,0.369s-0.176,0.325-0.224,0.519c-0.047,0.192-0.071,0.388-0.071,0.586    c0,0.26,0.021,0.477,0.061,0.648c0.04,0.172,0.096,0.309,0.167,0.41c0.071,0.103,0.155,0.176,0.251,0.219s0.201,0.064,0.315,0.064    c0.106,0,0.219-0.021,0.338-0.064c0.12-0.043,0.241-0.105,0.362-0.187s0.238-0.182,0.351-0.302    c0.113-0.121,0.215-0.258,0.307-0.411v-1.824c-0.067-0.024-0.138-0.048-0.213-0.069c-0.075-0.021-0.152-0.038-0.229-0.053    c-0.078-0.014-0.154-0.024-0.228-0.033C49.709,53.691,49.64,53.688,49.576,53.688z"/>
	</g>
	<g class="st5">
		<path class="st14" d="M54.276,52.975c0.229,0,0.431,0.027,0.606,0.081c0.176,0.055,0.328,0.13,0.456,0.227    c0.128,0.097,0.235,0.209,0.322,0.337c0.086,0.129,0.155,0.268,0.207,0.416c0.052,0.148,0.088,0.303,0.111,0.463    c0.022,0.161,0.034,0.32,0.034,0.477v0.163c0,0.069-0.001,0.124-0.004,0.163h-2.963c0.008,0.246,0.046,0.461,0.115,0.643    s0.162,0.332,0.28,0.45c0.118,0.118,0.258,0.208,0.418,0.267s0.335,0.088,0.524,0.088c0.271,0,0.535-0.031,0.794-0.092    c0.259-0.063,0.517-0.171,0.773-0.328l0.084,0.692c-0.148,0.075-0.293,0.14-0.435,0.192c-0.142,0.054-0.284,0.097-0.426,0.131    c-0.142,0.033-0.286,0.058-0.433,0.072c-0.146,0.016-0.3,0.023-0.462,0.023c-0.268,0-0.522-0.047-0.765-0.141    c-0.243-0.094-0.456-0.231-0.64-0.414c-0.184-0.184-0.33-0.41-0.439-0.682c-0.108-0.271-0.163-0.586-0.163-0.943    c0-0.348,0.047-0.661,0.14-0.941c0.093-0.281,0.227-0.521,0.399-0.722c0.172-0.2,0.383-0.354,0.631-0.462    C53.688,53.027,53.967,52.975,54.276,52.975z M54.214,53.604c-0.307,0-0.558,0.09-0.752,0.27    c-0.195,0.181-0.323,0.461-0.385,0.842h2.182c0-0.18-0.026-0.338-0.078-0.477c-0.051-0.139-0.124-0.255-0.217-0.35    c-0.093-0.096-0.204-0.167-0.332-0.215C54.503,53.627,54.364,53.604,54.214,53.604z"/>
	</g>
	<g class="st5">
		<path class="st12" d="M55.959,29.259h-1.928l-0.42,1.211h-0.643c0.027-0.063,0.055-0.129,0.084-0.198    c0.029-0.069,0.061-0.147,0.096-0.234c0.035-0.087,0.073-0.186,0.114-0.297c0.042-0.111,0.09-0.24,0.145-0.387l1.254-3.475h0.674    l1.254,3.475c0.052,0.147,0.099,0.276,0.141,0.387c0.042,0.111,0.081,0.21,0.116,0.297c0.035,0.087,0.068,0.166,0.097,0.234    c0.029,0.069,0.057,0.135,0.084,0.198h-0.643L55.959,29.259z M54.201,28.771h1.589l-0.799-2.28L54.201,28.771z"/>
		<path class="st12" d="M58.282,26.847v3.623h-0.564c0.023-0.126,0.037-0.308,0.041-0.545c0.004-0.238,0.006-0.512,0.006-0.823    v-1.855c0-0.31-0.002-0.584-0.006-0.822c-0.004-0.238-0.018-0.42-0.041-0.546h0.564l2.492,3.639v-3.639h0.564    c-0.011,0.063-0.019,0.141-0.025,0.233s-0.011,0.196-0.014,0.313c-0.003,0.116-0.005,0.244-0.006,0.382    c-0.001,0.139-0.002,0.285-0.002,0.44v3.224h-0.517L58.282,26.847z"/>
	</g>
	<g class="st5">
		<path class="st12" d="M30.192,29.13c-0.159,0.218-0.326,0.386-0.501,0.503c-0.209,0.126-0.433,0.189-0.671,0.189    c-0.338,0-0.583-0.145-0.733-0.434c-0.134-0.243-0.199-0.545-0.194-0.906c0-0.465,0.111-0.851,0.332-1.157    c0.243-0.319,0.602-0.478,1.079-0.478c0.268,0,0.498,0.086,0.689,0.258v-0.227h0.589v2.233c0,0.009,0,0.015,0,0.019    s0,0.008,0,0.013c0,0.008,0,0.016,0,0.022s0,0.01,0,0.012c0,0.002,0,0.006,0,0.013s0,0.011,0,0.013s0,0.006,0,0.013    s0,0.01,0,0.013c0,0.002,0,0.006,0,0.012s0,0.011,0,0.013c0,0.002,0,0.005,0,0.009c0,0.004,0,0.007,0,0.01    c0,0.002,0,0.004,0,0.006c0,0.002,0,0.004,0,0.006c0,0.002,0,0.004,0,0.006c0,0.002,0,0.031,0,0.085    c0,0.055,0.015,0.105,0.044,0.151c0.042,0.059,0.134,0.088,0.276,0.088c0.138,0,0.282-0.172,0.433-0.516    c0.013-0.038,0.036-0.102,0.069-0.191c0.033-0.09,0.075-0.209,0.125-0.355l0.101,0.195c-0.104,0.311-0.176,0.507-0.213,0.591    c-0.15,0.323-0.376,0.484-0.677,0.484c-0.497,0-0.746-0.229-0.746-0.686V29.13z M29.609,27.011c-0.322,0-0.556,0.149-0.702,0.446    c-0.134,0.256-0.201,0.545-0.201,0.868c0,0.256,0.057,0.484,0.169,0.686c0.125,0.239,0.312,0.358,0.558,0.358    c0.15,0,0.296-0.05,0.439-0.151c0.108-0.083,0.215-0.205,0.319-0.365v-1.314C30.108,27.187,29.914,27.011,29.609,27.011z"/>
		<path class="st12" d="M33.239,27.57c0.1-0.18,0.27-0.348,0.508-0.503c0.221-0.143,0.441-0.214,0.658-0.214    c0.234,0,0.42,0.05,0.558,0.151c0.175,0.122,0.263,0.298,0.263,0.528v1.566c0,0.155,0.008,0.26,0.025,0.315    c0.025,0.125,0.088,0.188,0.188,0.188c0.113,0,0.24-0.178,0.382-0.535c0.021-0.08,0.046-0.157,0.075-0.233    c0.013-0.042,0.028-0.087,0.047-0.135c0.019-0.048,0.039-0.099,0.06-0.154l0.094,0.188c-0.034,0.08-0.062,0.151-0.084,0.214    c-0.023,0.063-0.043,0.12-0.06,0.17c-0.009,0.017-0.015,0.035-0.019,0.054c-0.004,0.019-0.008,0.034-0.013,0.047    c-0.008,0.017-0.016,0.034-0.022,0.05c-0.006,0.017-0.011,0.032-0.016,0.044c-0.012,0.038-0.024,0.074-0.034,0.107    c-0.011,0.034-0.018,0.061-0.022,0.082c-0.125,0.209-0.349,0.314-0.671,0.314c-0.146,0-0.255-0.031-0.326-0.094    c-0.138-0.088-0.207-0.22-0.207-0.396v-1.717c0-0.13-0.021-0.241-0.063-0.333c-0.063-0.109-0.165-0.164-0.307-0.164    c-0.197,0-0.401,0.09-0.615,0.271c-0.255,0.206-0.391,0.425-0.407,0.66v1.774H32.65V27.86v-0.271c0-0.189-0.004-0.302-0.013-0.34    c-0.021-0.054-0.052-0.092-0.094-0.113c-0.1,0-0.238,0.256-0.414,0.768c-0.046,0.126-0.087,0.235-0.123,0.327    c-0.035,0.092-0.062,0.166-0.078,0.22c-0.05,0.138-0.082,0.232-0.094,0.283l-0.1-0.188c0.017-0.059,0.031-0.103,0.044-0.132    c0.004-0.025,0.01-0.049,0.019-0.072c0.008-0.023,0.017-0.047,0.025-0.072c0.008-0.021,0.016-0.043,0.022-0.066    c0.006-0.023,0.016-0.047,0.028-0.072c0.004-0.021,0.011-0.043,0.019-0.066c0.008-0.023,0.017-0.047,0.025-0.072    c0.008-0.021,0.016-0.042,0.022-0.063c0.006-0.021,0.016-0.044,0.028-0.069c0.008-0.042,0.025-0.09,0.05-0.145    c0.008-0.029,0.021-0.068,0.038-0.116c0.017-0.048,0.038-0.104,0.063-0.167c0.159-0.386,0.361-0.579,0.608-0.579    c0.242,0,0.393,0.063,0.451,0.188c0.038,0.071,0.057,0.248,0.057,0.528H33.239z"/>
	</g>
	<g>
		<g class="st5">
			<path class="st6" d="M122.986,11.114c0.361,0,0.682,0.043,0.96,0.131c0.278,0.087,0.519,0.208,0.722,0.362     c0.202,0.154,0.372,0.334,0.509,0.54s0.246,0.427,0.327,0.664c0.082,0.237,0.141,0.484,0.176,0.742     c0.035,0.257,0.053,0.511,0.053,0.761v0.262c0,0.112-0.002,0.199-0.006,0.262h-4.691c0.013,0.394,0.073,0.736,0.182,1.026     c0.107,0.291,0.256,0.531,0.443,0.721c0.188,0.19,0.408,0.332,0.662,0.426c0.253,0.094,0.529,0.141,0.83,0.141     c0.428,0,0.847-0.049,1.257-0.147c0.411-0.098,0.818-0.273,1.224-0.523l0.133,1.107c-0.233,0.121-0.463,0.224-0.688,0.309     c-0.226,0.085-0.45,0.154-0.676,0.208c-0.225,0.054-0.453,0.093-0.685,0.118c-0.231,0.024-0.476,0.037-0.731,0.037     c-0.424,0-0.826-0.075-1.211-0.225c-0.384-0.15-0.721-0.371-1.012-0.664s-0.523-0.656-0.695-1.09     c-0.172-0.434-0.258-0.937-0.258-1.51c0-0.554,0.074-1.057,0.221-1.506c0.148-0.45,0.359-0.834,0.633-1.154     c0.273-0.319,0.606-0.565,0.999-0.738S122.497,11.114,122.986,11.114z M122.887,12.12c-0.484,0-0.882,0.144-1.19,0.433     c-0.31,0.289-0.512,0.737-0.608,1.345h3.453c0-0.286-0.04-0.54-0.121-0.761c-0.082-0.222-0.197-0.408-0.345-0.561     c-0.147-0.152-0.323-0.266-0.526-0.342C123.346,12.158,123.125,12.12,122.887,12.12z"/>
		</g>
		<g class="st5">
			<path class="st8" d="M132.438,18.091h-1.225v-3.824c0-0.416-0.016-0.752-0.046-1.01s-0.083-0.458-0.155-0.604     c-0.073-0.145-0.172-0.242-0.295-0.292s-0.277-0.074-0.463-0.074c-0.164,0-0.326,0.034-0.49,0.101     c-0.163,0.067-0.318,0.162-0.467,0.285c-0.146,0.123-0.283,0.268-0.41,0.436c-0.125,0.167-0.232,0.352-0.32,0.553v4.428h-1.225     v-4.126c0-0.662-0.037-1.222-0.112-1.681s-0.147-0.804-0.218-1.037h1.19c0.049,0.143,0.091,0.312,0.126,0.506     c0.035,0.195,0.064,0.373,0.086,0.533c0.203-0.237,0.396-0.431,0.582-0.583c0.186-0.152,0.369-0.271,0.553-0.359     s0.365-0.147,0.546-0.181s0.366-0.05,0.556-0.05c0.217,0,0.412,0.031,0.59,0.094c0.176,0.063,0.332,0.146,0.466,0.249     c0.135,0.103,0.251,0.222,0.348,0.359c0.097,0.136,0.172,0.278,0.226,0.426c0.207-0.228,0.407-0.415,0.602-0.56     c0.193-0.146,0.384-0.259,0.568-0.342c0.186-0.083,0.368-0.141,0.547-0.174c0.178-0.034,0.354-0.05,0.525-0.05     c0.336,0,0.618,0.055,0.848,0.165c0.229,0.109,0.414,0.271,0.553,0.486c0.139,0.214,0.238,0.481,0.297,0.798     c0.061,0.317,0.09,0.684,0.09,1.1v4.428h-1.225v-3.69c0-0.434-0.016-0.787-0.046-1.06s-0.083-0.488-0.155-0.644     c-0.073-0.157-0.172-0.264-0.295-0.322s-0.277-0.087-0.463-0.087c-0.164,0-0.324,0.033-0.483,0.098s-0.312,0.156-0.46,0.275     c-0.147,0.119-0.284,0.263-0.41,0.433c-0.125,0.17-0.236,0.36-0.334,0.57V18.091z"/>
		</g>
		<g class="st5">
			<path class="st14" d="M114.204,21.045c0.353,0,0.623,0.117,0.811,0.351s0.281,0.581,0.281,1.042v2.097h-0.612v-1.845     c0-0.21-0.014-0.383-0.041-0.52c-0.027-0.136-0.068-0.244-0.123-0.324c-0.054-0.079-0.122-0.134-0.205-0.166     c-0.082-0.031-0.18-0.047-0.293-0.047c-0.119,0-0.234,0.029-0.349,0.085c-0.113,0.057-0.218,0.131-0.313,0.222     c-0.095,0.09-0.179,0.193-0.251,0.307c-0.073,0.114-0.127,0.229-0.162,0.342v1.946h-0.612v-2.063c0-0.331-0.019-0.611-0.055-0.84     c-0.036-0.229-0.073-0.402-0.11-0.519h0.595c0.014,0.036,0.026,0.083,0.04,0.139c0.014,0.057,0.025,0.117,0.036,0.18     s0.021,0.124,0.03,0.185l0.025,0.151c0.211-0.255,0.422-0.439,0.637-0.552C113.746,21.102,113.971,21.045,114.204,21.045z"/>
			<path class="st14" d="M116.061,22.839c0-0.288,0.043-0.544,0.129-0.766c0.086-0.223,0.201-0.411,0.348-0.564     c0.146-0.153,0.314-0.269,0.51-0.347c0.193-0.078,0.4-0.117,0.618-0.117c0.228,0,0.435,0.039,0.624,0.117     c0.188,0.079,0.351,0.194,0.486,0.347c0.135,0.153,0.24,0.341,0.316,0.564c0.074,0.222,0.111,0.478,0.111,0.766     c0,0.289-0.043,0.543-0.129,0.765c-0.086,0.221-0.201,0.407-0.348,0.557c-0.145,0.15-0.314,0.264-0.509,0.341     s-0.4,0.116-0.618,0.116c-0.229,0-0.436-0.039-0.625-0.116c-0.188-0.077-0.35-0.191-0.486-0.341     c-0.135-0.149-0.24-0.335-0.315-0.557C116.098,23.383,116.061,23.128,116.061,22.839z M116.672,22.839     c0,0.195,0.023,0.369,0.07,0.523c0.046,0.154,0.111,0.285,0.197,0.391c0.084,0.106,0.186,0.187,0.303,0.243     c0.116,0.056,0.246,0.084,0.39,0.084c0.132,0,0.257-0.028,0.374-0.084c0.117-0.056,0.219-0.137,0.307-0.243     c0.086-0.106,0.154-0.237,0.205-0.391c0.049-0.154,0.074-0.329,0.074-0.523c0-0.196-0.023-0.373-0.07-0.528     c-0.046-0.155-0.111-0.287-0.196-0.396s-0.187-0.191-0.304-0.249c-0.119-0.057-0.248-0.085-0.39-0.085     c-0.134,0-0.261,0.029-0.377,0.085c-0.117,0.057-0.218,0.14-0.304,0.249c-0.087,0.108-0.154,0.24-0.204,0.396     C116.697,22.467,116.672,22.643,116.672,22.839z"/>
			<path class="st14" d="M122.992,21.112c-0.047,0.096-0.094,0.2-0.145,0.312c-0.049,0.112-0.097,0.222-0.142,0.329     c-0.046,0.107-0.088,0.209-0.128,0.305c-0.039,0.096-0.072,0.178-0.099,0.245c-0.022,0.054-0.052,0.127-0.088,0.22     s-0.077,0.197-0.122,0.312s-0.094,0.237-0.145,0.366s-0.1,0.255-0.148,0.381c-0.117,0.295-0.242,0.613-0.374,0.953h-0.628     c-0.129-0.324-0.249-0.631-0.361-0.919c-0.049-0.123-0.098-0.249-0.148-0.376s-0.1-0.25-0.145-0.367     c-0.045-0.118-0.087-0.226-0.125-0.324c-0.039-0.099-0.072-0.18-0.098-0.245c-0.027-0.067-0.061-0.149-0.1-0.247     c-0.04-0.097-0.083-0.199-0.129-0.307c-0.047-0.107-0.094-0.216-0.143-0.327s-0.096-0.214-0.143-0.311h0.695l1.009,2.751     l1.009-2.751H122.992z"/>
		</g>
		<g class="st5">
			<path class="st6" d="M125.053,20.173c0.226,0,0.426,0.027,0.6,0.082c0.174,0.055,0.324,0.13,0.451,0.227     c0.126,0.096,0.232,0.209,0.318,0.337c0.085,0.129,0.153,0.267,0.204,0.415c0.052,0.148,0.087,0.303,0.11,0.463     c0.021,0.161,0.032,0.32,0.032,0.476v0.164c0,0.07-0.001,0.125-0.004,0.164h-2.933c0.009,0.246,0.047,0.46,0.114,0.642     s0.159,0.332,0.276,0.451s0.256,0.208,0.414,0.266c0.158,0.059,0.332,0.088,0.52,0.088c0.268,0,0.529-0.031,0.785-0.092     c0.257-0.062,0.512-0.17,0.766-0.327l0.082,0.692c-0.146,0.075-0.289,0.14-0.43,0.193s-0.281,0.096-0.422,0.13     s-0.283,0.058-0.428,0.073c-0.145,0.016-0.297,0.023-0.457,0.023c-0.266,0-0.518-0.047-0.758-0.141     c-0.239-0.094-0.45-0.232-0.633-0.415c-0.182-0.183-0.326-0.41-0.434-0.682c-0.107-0.271-0.161-0.585-0.161-0.943     c0-0.347,0.046-0.661,0.138-0.941c0.094-0.281,0.225-0.521,0.396-0.721s0.38-0.354,0.624-0.461     C124.471,20.227,124.746,20.173,125.053,20.173z M124.99,20.802c-0.303,0-0.551,0.09-0.744,0.271     c-0.193,0.18-0.32,0.46-0.381,0.841h2.159c0-0.179-0.025-0.338-0.077-0.476c-0.051-0.138-0.122-0.255-0.215-0.35     c-0.092-0.095-0.201-0.167-0.328-0.214S125.139,20.802,124.99,20.802z"/>
		</g>
		<g class="st5">
			<path class="st8" d="M130.922,24.534h-0.765v-2.39c0-0.26-0.01-0.47-0.028-0.631c-0.02-0.161-0.053-0.286-0.098-0.377     s-0.107-0.152-0.184-0.183c-0.078-0.031-0.174-0.046-0.29-0.046c-0.103,0-0.204,0.021-0.306,0.063     c-0.103,0.042-0.199,0.102-0.292,0.178c-0.093,0.077-0.178,0.168-0.257,0.273c-0.078,0.104-0.145,0.22-0.2,0.346v2.768h-0.765     v-2.579c0-0.414-0.023-0.764-0.07-1.051s-0.093-0.502-0.137-0.648h0.744c0.03,0.09,0.057,0.195,0.078,0.317     c0.022,0.122,0.041,0.232,0.055,0.333c0.127-0.148,0.248-0.27,0.363-0.365c0.116-0.095,0.231-0.169,0.346-0.224     s0.229-0.092,0.342-0.113c0.112-0.021,0.229-0.031,0.347-0.031c0.136,0,0.258,0.02,0.368,0.059s0.207,0.091,0.291,0.155     c0.085,0.064,0.157,0.139,0.218,0.224c0.061,0.085,0.107,0.174,0.141,0.266c0.13-0.143,0.255-0.259,0.376-0.35     s0.24-0.162,0.355-0.214c0.116-0.051,0.23-0.088,0.342-0.109s0.221-0.031,0.328-0.031c0.21,0,0.387,0.034,0.53,0.103     s0.259,0.17,0.345,0.304c0.088,0.134,0.149,0.3,0.187,0.499c0.037,0.198,0.056,0.428,0.056,0.688v2.768h-0.766v-2.306     c0-0.271-0.01-0.492-0.028-0.663c-0.02-0.17-0.052-0.305-0.097-0.403c-0.046-0.098-0.107-0.165-0.185-0.201     c-0.077-0.036-0.174-0.054-0.29-0.054c-0.102,0-0.202,0.02-0.301,0.061c-0.1,0.041-0.195,0.098-0.288,0.172     c-0.093,0.074-0.178,0.165-0.257,0.271c-0.078,0.106-0.148,0.225-0.209,0.356V24.534z"/>
		</g>
		<g class="st5">
			<path class="st14" d="M134.102,24.315v-3.968c0-0.143-0.002-0.287-0.005-0.431s-0.009-0.282-0.015-0.413     c-0.007-0.131-0.017-0.243-0.029-0.337h0.661v2.6c0.077-0.103,0.161-0.198,0.251-0.285c0.091-0.087,0.188-0.163,0.293-0.228     c0.105-0.065,0.219-0.116,0.34-0.153c0.121-0.037,0.251-0.055,0.391-0.055c0.167,0,0.32,0.042,0.459,0.124     c0.139,0.083,0.26,0.199,0.361,0.347c0.102,0.149,0.18,0.326,0.236,0.532c0.057,0.206,0.084,0.431,0.084,0.674     c0,0.289-0.037,0.549-0.113,0.782s-0.184,0.432-0.323,0.597c-0.139,0.166-0.308,0.293-0.505,0.382s-0.418,0.134-0.663,0.134     c-0.134,0-0.265-0.01-0.39-0.029c-0.127-0.019-0.248-0.043-0.366-0.074s-0.232-0.063-0.343-0.097     C134.316,24.383,134.207,24.349,134.102,24.315z M135.524,24.098c0.146,0,0.28-0.03,0.403-0.091     c0.124-0.06,0.23-0.145,0.32-0.255c0.089-0.109,0.158-0.242,0.209-0.397s0.076-0.327,0.076-0.515     c0-0.186-0.016-0.353-0.049-0.503s-0.082-0.277-0.145-0.381s-0.141-0.184-0.232-0.24c-0.094-0.056-0.199-0.084-0.318-0.084     c-0.104,0-0.207,0.023-0.311,0.069s-0.203,0.11-0.297,0.193c-0.094,0.083-0.182,0.182-0.263,0.297s-0.149,0.242-0.205,0.381     v1.342c0.081,0.034,0.156,0.062,0.224,0.085c0.066,0.023,0.133,0.042,0.197,0.057c0.063,0.015,0.127,0.025,0.189,0.032     C135.387,24.094,135.454,24.098,135.524,24.098z"/>
			<path class="st14" d="M137.956,24.534v-2.063c0-0.331-0.019-0.611-0.054-0.84c-0.037-0.229-0.074-0.402-0.111-0.519h0.596     c0.025,0.063,0.05,0.142,0.07,0.237c0.021,0.095,0.039,0.201,0.053,0.317c0.016,0.116,0.025,0.24,0.032,0.372     c0.007,0.132,0.01,0.265,0.01,0.399v0.218c0.112-0.315,0.223-0.577,0.331-0.784c0.107-0.207,0.215-0.372,0.322-0.495     s0.215-0.209,0.322-0.258c0.108-0.049,0.219-0.074,0.332-0.074c0.083,0,0.16,0.008,0.23,0.023s0.143,0.042,0.215,0.077     l-0.099,0.621c-0.063-0.027-0.12-0.045-0.169-0.054s-0.107-0.013-0.178-0.013c-0.092,0-0.186,0.039-0.285,0.116     s-0.197,0.179-0.293,0.307s-0.188,0.272-0.273,0.433c-0.086,0.161-0.161,0.326-0.227,0.495c-0.064,0.169-0.117,0.333-0.155,0.495     s-0.058,0.304-0.058,0.43c0,0.056,0,0.107,0.002,0.154c0.001,0.047,0.004,0.092,0.01,0.136s0.013,0.087,0.021,0.131     s0.02,0.09,0.033,0.139H137.956z"/>
			<path class="st14" d="M142.291,21.045c0.181,0,0.34,0.022,0.479,0.065c0.139,0.043,0.259,0.104,0.36,0.181     s0.187,0.167,0.255,0.27s0.123,0.213,0.164,0.332c0.04,0.119,0.069,0.242,0.087,0.371c0.018,0.129,0.027,0.256,0.027,0.381v0.131     c0,0.056-0.002,0.1-0.004,0.131h-2.346c0.007,0.197,0.037,0.368,0.092,0.513c0.053,0.146,0.127,0.266,0.221,0.361     c0.094,0.095,0.204,0.166,0.331,0.213s0.265,0.07,0.415,0.07c0.215,0,0.424-0.024,0.629-0.074s0.409-0.136,0.612-0.262     l0.065,0.554c-0.116,0.06-0.23,0.112-0.344,0.154c-0.112,0.042-0.225,0.077-0.338,0.104c-0.111,0.027-0.227,0.046-0.342,0.059     s-0.238,0.019-0.365,0.019c-0.212,0-0.414-0.038-0.605-0.112c-0.192-0.075-0.361-0.186-0.506-0.333     c-0.146-0.146-0.262-0.328-0.348-0.545s-0.129-0.468-0.129-0.755c0-0.277,0.036-0.528,0.11-0.753     c0.073-0.225,0.179-0.417,0.315-0.577c0.137-0.16,0.304-0.283,0.5-0.369C141.825,21.088,142.046,21.045,142.291,21.045z      M142.241,21.548c-0.243,0-0.441,0.072-0.596,0.217c-0.154,0.144-0.256,0.368-0.304,0.672h1.727c0-0.143-0.021-0.27-0.062-0.381     c-0.04-0.11-0.099-0.204-0.172-0.28c-0.073-0.076-0.161-0.133-0.263-0.171S142.36,21.548,142.241,21.548z"/>
		</g>
		<g class="st5">
			<path class="st11" d="M137.979,26.568l0.042-0.029l0.25,0.319c-0.221,0.144-0.404,0.302-0.549,0.473     c-0.146,0.171-0.258,0.372-0.337,0.603c0.153-0.08,0.306-0.12,0.457-0.12c0.228,0,0.419,0.082,0.575,0.245     s0.233,0.364,0.233,0.602c0,0.245-0.085,0.452-0.255,0.623c-0.169,0.17-0.375,0.256-0.617,0.256     c-0.271,0-0.492-0.097-0.659-0.291c-0.167-0.193-0.251-0.447-0.251-0.76c0-0.234,0.043-0.468,0.129-0.701     c0.086-0.232,0.211-0.451,0.373-0.654C137.532,26.93,137.735,26.742,137.979,26.568z M137.297,28.367     c-0.011,0.066-0.017,0.139-0.017,0.22c0,0.165,0.048,0.301,0.142,0.407c0.095,0.106,0.216,0.16,0.363,0.16     c0.133,0,0.242-0.045,0.328-0.136c0.086-0.091,0.129-0.206,0.129-0.344c0-0.141-0.046-0.255-0.138-0.343     s-0.212-0.131-0.362-0.131c-0.078,0-0.148,0.012-0.211,0.036S137.391,28.303,137.297,28.367z"/>
			<path class="st11" d="M140.721,26.543c0.178,0,0.33,0.064,0.455,0.193c0.126,0.128,0.188,0.283,0.188,0.463     c0,0.179-0.063,0.333-0.188,0.461c-0.127,0.129-0.278,0.193-0.455,0.193c-0.176,0-0.327-0.064-0.453-0.193     c-0.127-0.128-0.189-0.282-0.189-0.461c0-0.181,0.063-0.335,0.188-0.463C140.392,26.607,140.543,26.543,140.721,26.543z      M142.184,26.535h0.32l-1.899,3.004h-0.319L142.184,26.535z M140.717,26.862c-0.093,0-0.172,0.033-0.236,0.1     c-0.066,0.066-0.098,0.146-0.098,0.239c0,0.092,0.032,0.17,0.098,0.236c0.066,0.065,0.145,0.098,0.236,0.098     s0.17-0.033,0.235-0.098c0.065-0.066,0.098-0.145,0.098-0.236c0-0.095-0.032-0.175-0.097-0.24     C140.889,26.895,140.81,26.862,140.717,26.862z M142.085,28.231c0.177,0,0.327,0.064,0.454,0.192s0.189,0.281,0.189,0.46     c0,0.179-0.063,0.331-0.188,0.456c-0.126,0.125-0.277,0.188-0.455,0.188c-0.179,0-0.331-0.063-0.457-0.188     c-0.126-0.125-0.188-0.277-0.188-0.456c0-0.181,0.063-0.334,0.189-0.461C141.756,28.295,141.907,28.231,142.085,28.231z      M142.081,28.55c-0.091,0-0.168,0.033-0.231,0.098c-0.064,0.065-0.097,0.145-0.097,0.236c0,0.093,0.032,0.173,0.097,0.239     c0.063,0.066,0.141,0.099,0.231,0.099c0.093,0,0.173-0.033,0.237-0.098s0.097-0.146,0.097-0.24c0-0.093-0.032-0.172-0.097-0.237     S142.174,28.55,142.081,28.55z"/>
		</g>
	</g>
	<g>
		<g class="st5">
			<path class="st10" d="M125.697,42.47c0,0.634,0.035,1.167,0.105,1.598s0.16,0.788,0.271,1.069h-0.879     c-0.016-0.043-0.039-0.104-0.07-0.182c-0.029-0.076-0.061-0.164-0.092-0.264c-0.032-0.1-0.063-0.205-0.091-0.319     s-0.052-0.229-0.073-0.343c-0.13,0.168-0.268,0.326-0.413,0.474s-0.298,0.278-0.459,0.392c-0.161,0.115-0.327,0.205-0.501,0.27     c-0.174,0.066-0.352,0.099-0.532,0.099c-0.21,0-0.421-0.046-0.63-0.136c-0.209-0.091-0.396-0.227-0.564-0.408     c-0.166-0.181-0.303-0.408-0.406-0.682s-0.154-0.594-0.154-0.963c0-0.387,0.042-0.736,0.127-1.05     c0.086-0.313,0.201-0.593,0.349-0.838c0.131-0.214,0.27-0.402,0.417-0.563c0.146-0.161,0.309-0.295,0.483-0.4     c0.176-0.105,0.368-0.186,0.579-0.238c0.211-0.055,0.445-0.081,0.703-0.081c0.127,0,0.268,0.009,0.424,0.028     c0.154,0.018,0.314,0.044,0.477,0.078c0.162,0.033,0.322,0.073,0.483,0.12s0.31,0.097,0.446,0.151V42.47z M123.666,40.759     c-0.107,0-0.215,0.013-0.323,0.038s-0.216,0.068-0.321,0.128c-0.105,0.061-0.207,0.14-0.307,0.239     c-0.098,0.1-0.191,0.224-0.277,0.375c-0.091,0.154-0.164,0.346-0.219,0.576c-0.055,0.229-0.082,0.465-0.082,0.707     c0,0.278,0.025,0.518,0.077,0.717s0.12,0.364,0.206,0.493c0.085,0.13,0.182,0.224,0.291,0.284     c0.108,0.061,0.218,0.091,0.328,0.091c0.141,0,0.293-0.044,0.459-0.131s0.326-0.203,0.484-0.347     c0.156-0.145,0.305-0.311,0.443-0.499c0.139-0.188,0.254-0.382,0.344-0.583v-1.887c-0.051-0.023-0.115-0.048-0.193-0.071     s-0.165-0.046-0.261-0.065c-0.095-0.02-0.198-0.035-0.312-0.048C123.893,40.765,123.779,40.759,123.666,40.759z"/>
		</g>
		<g class="st5">
			<path class="st8" d="M131.004,45.137h-0.928v-2.868c0-0.312-0.012-0.564-0.035-0.757c-0.023-0.193-0.063-0.344-0.118-0.453     s-0.13-0.182-0.224-0.219s-0.211-0.056-0.351-0.056c-0.124,0-0.247,0.024-0.372,0.075c-0.123,0.051-0.24,0.122-0.354,0.214     c-0.111,0.093-0.215,0.202-0.311,0.327c-0.096,0.126-0.176,0.264-0.243,0.415v3.321h-0.928v-3.095     c0-0.497-0.028-0.917-0.085-1.261s-0.112-0.603-0.166-0.777h0.902c0.037,0.107,0.068,0.234,0.096,0.381     c0.027,0.145,0.049,0.278,0.065,0.399c0.153-0.178,0.301-0.323,0.441-0.438c0.14-0.113,0.28-0.203,0.419-0.269     s0.276-0.11,0.414-0.136c0.137-0.025,0.277-0.038,0.421-0.038c0.163,0,0.313,0.024,0.446,0.071s0.252,0.108,0.354,0.186     s0.189,0.167,0.264,0.27c0.073,0.102,0.131,0.209,0.17,0.319c0.158-0.171,0.31-0.312,0.457-0.421     c0.146-0.108,0.291-0.193,0.432-0.256s0.277-0.105,0.414-0.131c0.135-0.025,0.268-0.038,0.398-0.038     c0.254,0,0.468,0.042,0.642,0.124s0.313,0.203,0.419,0.364s0.181,0.36,0.226,0.599c0.046,0.238,0.067,0.514,0.067,0.825v3.321     h-0.928v-2.768c0-0.325-0.012-0.59-0.035-0.795s-0.063-0.365-0.117-0.483c-0.056-0.117-0.13-0.198-0.224-0.241     s-0.21-0.065-0.351-0.065c-0.125,0-0.246,0.024-0.367,0.073c-0.12,0.049-0.236,0.117-0.348,0.206     c-0.112,0.089-0.217,0.196-0.312,0.324s-0.18,0.271-0.253,0.428V45.137z"/>
		</g>
		<g class="st5">
			<path class="st14" d="M118.608,51.457c0,0.313-0.03,0.576-0.089,0.789c-0.059,0.212-0.143,0.383-0.252,0.511     c-0.109,0.129-0.242,0.222-0.396,0.276c-0.155,0.057-0.328,0.084-0.518,0.084c-0.046,0-0.102-0.004-0.165-0.015     c-0.063-0.01-0.129-0.024-0.197-0.042c-0.067-0.018-0.135-0.041-0.2-0.068c-0.066-0.028-0.123-0.059-0.172-0.093l0.117-0.554     c0.035,0.027,0.08,0.053,0.137,0.078c0.055,0.023,0.113,0.046,0.174,0.064c0.061,0.02,0.12,0.034,0.18,0.044     c0.061,0.011,0.114,0.015,0.161,0.015c0.089,0,0.171-0.017,0.244-0.051c0.073-0.035,0.138-0.09,0.19-0.164     c0.054-0.073,0.095-0.168,0.124-0.285c0.028-0.115,0.044-0.256,0.044-0.422v-1.861c0-0.164-0.002-0.324-0.002-0.484     c-0.002-0.158-0.004-0.309-0.007-0.451c-0.003-0.141-0.009-0.273-0.015-0.395c-0.008-0.123-0.016-0.227-0.027-0.314h0.669V51.457     z M117.873,47.029c0-0.063,0.01-0.121,0.029-0.176c0.021-0.055,0.049-0.104,0.086-0.145s0.08-0.074,0.132-0.098     s0.108-0.035,0.171-0.035s0.12,0.012,0.174,0.035c0.053,0.023,0.099,0.057,0.137,0.098c0.037,0.041,0.068,0.09,0.09,0.145     c0.022,0.055,0.033,0.113,0.033,0.176s-0.011,0.121-0.033,0.176c-0.021,0.055-0.053,0.104-0.09,0.145     c-0.038,0.041-0.084,0.074-0.137,0.098c-0.054,0.023-0.111,0.035-0.174,0.035s-0.119-0.012-0.171-0.035s-0.095-0.057-0.132-0.098     s-0.065-0.09-0.086-0.145C117.883,47.15,117.873,47.092,117.873,47.029z"/>
		</g>
		<g class="st5">
			<path class="st10" d="M123.327,49.318c0,0.529,0.029,0.973,0.088,1.332s0.134,0.656,0.226,0.891h-0.731     c-0.014-0.036-0.033-0.086-0.059-0.15c-0.024-0.064-0.051-0.139-0.077-0.221s-0.052-0.172-0.075-0.266     c-0.024-0.096-0.044-0.191-0.061-0.285c-0.108,0.139-0.224,0.271-0.345,0.394s-0.249,0.231-0.383,0.327     c-0.134,0.095-0.273,0.17-0.418,0.225s-0.293,0.082-0.443,0.082c-0.176,0-0.35-0.039-0.523-0.113     c-0.175-0.076-0.332-0.189-0.471-0.34c-0.14-0.151-0.252-0.341-0.339-0.568c-0.087-0.229-0.13-0.496-0.13-0.803     c0-0.322,0.036-0.613,0.107-0.875c0.07-0.262,0.168-0.494,0.29-0.697c0.108-0.18,0.224-0.336,0.347-0.471     c0.123-0.134,0.258-0.245,0.404-0.333c0.146-0.088,0.307-0.154,0.482-0.199c0.176-0.044,0.37-0.067,0.585-0.067     c0.106,0,0.224,0.008,0.353,0.023c0.131,0.016,0.263,0.037,0.397,0.064c0.136,0.028,0.271,0.063,0.403,0.102     c0.134,0.039,0.258,0.08,0.372,0.125V49.318z M121.635,47.893c-0.09,0-0.18,0.011-0.27,0.031     c-0.091,0.021-0.18,0.057-0.268,0.107s-0.174,0.117-0.256,0.199s-0.159,0.187-0.231,0.313c-0.075,0.129-0.136,0.289-0.182,0.48     s-0.069,0.387-0.069,0.589c0,0.231,0.021,0.431,0.064,0.597c0.044,0.167,0.102,0.305,0.172,0.412     c0.071,0.107,0.152,0.186,0.242,0.236c0.091,0.051,0.182,0.076,0.273,0.076c0.117,0,0.245-0.037,0.383-0.109     c0.139-0.072,0.272-0.17,0.404-0.289c0.131-0.121,0.254-0.26,0.369-0.416s0.211-0.318,0.287-0.486v-1.572     c-0.043-0.02-0.096-0.039-0.162-0.059c-0.064-0.02-0.137-0.037-0.217-0.055c-0.08-0.017-0.166-0.029-0.26-0.039     C121.823,47.898,121.729,47.893,121.635,47.893z"/>
		</g>
		<g class="st5">
			<path class="st8" d="M127.684,51.541h-0.773V49.15c0-0.26-0.01-0.47-0.029-0.631c-0.02-0.16-0.053-0.286-0.099-0.377     s-0.108-0.152-0.187-0.183s-0.176-0.046-0.292-0.046c-0.104,0-0.206,0.021-0.31,0.063s-0.201,0.102-0.295,0.178     c-0.094,0.078-0.18,0.168-0.259,0.273c-0.079,0.104-0.147,0.22-0.202,0.346v2.768h-0.773v-2.578c0-0.414-0.023-0.765-0.071-1.051     c-0.048-0.287-0.094-0.503-0.138-0.648h0.752c0.031,0.09,0.057,0.195,0.08,0.316c0.021,0.122,0.039,0.232,0.054,0.334     c0.128-0.148,0.251-0.27,0.368-0.365c0.117-0.095,0.232-0.17,0.349-0.225s0.23-0.092,0.345-0.113     c0.114-0.021,0.231-0.031,0.352-0.031c0.137,0,0.26,0.02,0.371,0.059s0.21,0.092,0.295,0.156c0.086,0.063,0.158,0.139,0.22,0.224     s0.108,0.175,0.142,0.267c0.131-0.143,0.258-0.26,0.381-0.351s0.242-0.162,0.359-0.214c0.117-0.051,0.232-0.088,0.345-0.109     c0.113-0.021,0.224-0.031,0.333-0.031c0.211,0,0.39,0.035,0.535,0.104c0.145,0.068,0.261,0.17,0.349,0.304     c0.087,0.134,0.15,0.3,0.188,0.499c0.037,0.198,0.056,0.428,0.056,0.688v2.768h-0.772v-2.307c0-0.271-0.01-0.492-0.029-0.662     s-0.053-0.305-0.099-0.402s-0.108-0.165-0.187-0.201c-0.078-0.037-0.176-0.055-0.293-0.055c-0.103,0-0.204,0.02-0.305,0.061     c-0.1,0.041-0.197,0.098-0.29,0.172c-0.094,0.074-0.181,0.164-0.259,0.271c-0.08,0.106-0.15,0.226-0.211,0.356V51.541z"/>
		</g>
		<g class="st5">
			<path class="st14" d="M130.896,51.322v-3.968c0-0.144-0.002-0.287-0.005-0.431c-0.003-0.145-0.009-0.282-0.015-0.413     c-0.008-0.131-0.018-0.243-0.031-0.337h0.67v2.6c0.078-0.104,0.162-0.197,0.254-0.285s0.189-0.163,0.295-0.229     c0.106-0.064,0.221-0.115,0.344-0.152c0.122-0.037,0.254-0.055,0.395-0.055c0.169,0,0.324,0.041,0.465,0.123     c0.141,0.084,0.262,0.199,0.364,0.348s0.183,0.326,0.239,0.531c0.057,0.207,0.085,0.432,0.085,0.675     c0,0.288-0.038,0.55-0.115,0.782s-0.186,0.432-0.326,0.597c-0.14,0.165-0.311,0.293-0.51,0.382     c-0.2,0.09-0.423,0.135-0.671,0.135c-0.136,0-0.268-0.01-0.395-0.029c-0.127-0.019-0.25-0.043-0.369-0.073     s-0.234-0.063-0.346-0.097C131.113,51.391,131.004,51.356,130.896,51.322z M132.334,51.105c0.147,0,0.283-0.031,0.408-0.092     c0.125-0.06,0.232-0.145,0.322-0.254c0.091-0.109,0.162-0.242,0.213-0.398c0.051-0.154,0.077-0.326,0.077-0.515     c0-0.186-0.017-0.353-0.05-0.503c-0.034-0.15-0.082-0.277-0.146-0.381c-0.063-0.104-0.142-0.184-0.235-0.24     c-0.094-0.055-0.2-0.084-0.321-0.084c-0.104,0-0.209,0.023-0.314,0.069c-0.104,0.046-0.204,0.11-0.299,0.192     c-0.095,0.084-0.184,0.182-0.266,0.297s-0.152,0.242-0.207,0.381v1.342c0.082,0.034,0.157,0.063,0.225,0.086     c0.068,0.023,0.135,0.043,0.199,0.057c0.064,0.016,0.129,0.025,0.192,0.032S132.264,51.105,132.334,51.105z"/>
			<path class="st14" d="M136.197,48.053c0.182,0,0.344,0.021,0.484,0.064c0.141,0.044,0.262,0.104,0.364,0.182     s0.188,0.167,0.258,0.27c0.069,0.104,0.124,0.214,0.165,0.332c0.041,0.119,0.07,0.242,0.089,0.371s0.026,0.256,0.026,0.381v0.131     c0,0.057-0.001,0.1-0.003,0.131h-2.37c0.006,0.197,0.037,0.367,0.092,0.514c0.055,0.145,0.129,0.266,0.224,0.36     s0.206,0.166,0.335,0.213c0.127,0.047,0.268,0.07,0.419,0.07c0.216,0,0.429-0.024,0.636-0.073     c0.207-0.05,0.413-0.137,0.618-0.262l0.067,0.553c-0.119,0.061-0.234,0.112-0.348,0.154c-0.114,0.043-0.229,0.078-0.342,0.104     s-0.229,0.046-0.346,0.059s-0.24,0.019-0.369,0.019c-0.215,0-0.418-0.037-0.612-0.112s-0.364-0.187-0.512-0.333     c-0.147-0.146-0.265-0.328-0.351-0.545c-0.088-0.217-0.131-0.468-0.131-0.754c0-0.277,0.037-0.529,0.111-0.754     c0.075-0.225,0.182-0.416,0.32-0.576c0.138-0.16,0.307-0.283,0.504-0.369C135.727,48.096,135.949,48.053,136.197,48.053z      M136.146,48.555c-0.245,0-0.445,0.072-0.602,0.217s-0.259,0.369-0.309,0.673h1.746c0-0.144-0.021-0.271-0.063-0.381     c-0.041-0.11-0.099-0.204-0.174-0.28c-0.074-0.076-0.162-0.133-0.266-0.171C136.379,48.574,136.268,48.555,136.146,48.555z"/>
		</g>
		<g class="st5">
			<path class="st11" d="M136.77,54.234h0.025c0.182,0,0.32-0.038,0.416-0.113c0.096-0.076,0.144-0.186,0.144-0.33     c0-0.129-0.046-0.234-0.14-0.316c-0.092-0.08-0.214-0.121-0.364-0.121c-0.151,0-0.32,0.047-0.505,0.143v-0.4     c0.17-0.086,0.354-0.128,0.555-0.128c0.27,0,0.481,0.07,0.637,0.212c0.155,0.141,0.233,0.334,0.233,0.578     c0,0.147-0.03,0.272-0.09,0.373c-0.06,0.102-0.155,0.189-0.286,0.262c0.113,0.045,0.197,0.1,0.25,0.164     c0.053,0.065,0.094,0.145,0.123,0.236s0.045,0.19,0.045,0.293c0,0.257-0.086,0.469-0.256,0.635     c-0.17,0.168-0.385,0.252-0.643,0.252c-0.223,0-0.436-0.055-0.643-0.162v-0.457c0.221,0.139,0.435,0.207,0.643,0.207     c0.141,0,0.254-0.041,0.339-0.125c0.086-0.084,0.128-0.195,0.128-0.334c0-0.115-0.035-0.217-0.105-0.304     c-0.042-0.049-0.088-0.085-0.139-0.108c-0.052-0.022-0.161-0.045-0.33-0.065l-0.037-0.005V54.234z"/>
			<path class="st11" d="M140.084,52.977c0.18,0,0.332,0.063,0.459,0.192c0.127,0.128,0.191,0.282,0.191,0.464     c0,0.178-0.064,0.332-0.191,0.461c-0.128,0.129-0.281,0.192-0.459,0.192c-0.179,0-0.332-0.063-0.459-0.192     s-0.191-0.283-0.191-0.461c0-0.182,0.063-0.336,0.19-0.464C139.75,53.04,139.904,52.977,140.084,52.977z M141.563,52.968h0.322     l-1.919,3.005h-0.323L141.563,52.968z M140.078,53.295c-0.093,0-0.172,0.033-0.238,0.1c-0.066,0.065-0.1,0.146-0.1,0.238     c0,0.092,0.034,0.171,0.101,0.236c0.067,0.066,0.146,0.099,0.237,0.099c0.094,0,0.173-0.032,0.238-0.099     c0.066-0.065,0.1-0.145,0.1-0.236c0-0.094-0.033-0.174-0.098-0.24C140.253,53.327,140.173,53.295,140.078,53.295z      M141.462,54.664c0.179,0,0.331,0.063,0.459,0.191s0.192,0.281,0.192,0.461c0,0.178-0.064,0.33-0.191,0.455     s-0.28,0.188-0.46,0.188c-0.181,0-0.335-0.063-0.462-0.188s-0.191-0.277-0.191-0.455c0-0.182,0.064-0.334,0.192-0.462     C141.129,54.728,141.283,54.664,141.462,54.664z M141.458,54.982c-0.092,0-0.17,0.033-0.234,0.098     c-0.065,0.066-0.097,0.145-0.097,0.236c0,0.094,0.031,0.174,0.097,0.24c0.064,0.066,0.143,0.099,0.234,0.099     c0.095,0,0.175-0.032,0.239-0.099c0.065-0.064,0.098-0.145,0.098-0.24c0-0.093-0.032-0.172-0.098-0.236     C141.633,55.015,141.553,54.982,141.458,54.982z"/>
		</g>
	</g>
	<g class="st5">
		<path class="st11" d="M54.136,71.699v0.402h-1.455v0.604c0,0.25,0.001,0.471,0.005,0.66c0.003,0.191,0.014,0.336,0.033,0.435    h-0.552c0.018-0.101,0.029-0.246,0.033-0.437c0.003-0.19,0.005-0.41,0.005-0.658v-1.824c0-0.111-0.001-0.215-0.004-0.311    c-0.002-0.095-0.006-0.18-0.011-0.255s-0.013-0.139-0.022-0.188h2.182v0.414h-1.667v1.158H54.136z"/>
		<path class="st11" d="M54.888,72.529c0-0.217,0.033-0.408,0.098-0.575c0.065-0.167,0.153-0.308,0.264-0.423    c0.11-0.114,0.239-0.201,0.386-0.26c0.147-0.059,0.303-0.088,0.469-0.088c0.172,0,0.33,0.029,0.473,0.088s0.266,0.146,0.369,0.26    c0.103,0.115,0.183,0.256,0.24,0.423c0.057,0.167,0.085,0.358,0.085,0.575s-0.032,0.408-0.098,0.574s-0.153,0.305-0.263,0.417    s-0.239,0.198-0.386,0.255c-0.147,0.059-0.304,0.088-0.469,0.088c-0.172,0-0.33-0.029-0.473-0.088    c-0.143-0.057-0.266-0.143-0.369-0.255s-0.183-0.251-0.239-0.417C54.917,72.938,54.888,72.746,54.888,72.529z M55.352,72.529    c0,0.146,0.018,0.277,0.053,0.393s0.085,0.213,0.149,0.293c0.064,0.08,0.141,0.141,0.229,0.183    c0.088,0.042,0.187,0.063,0.296,0.063c0.1,0,0.194-0.021,0.283-0.063c0.088-0.042,0.166-0.103,0.232-0.183    s0.118-0.178,0.156-0.293s0.056-0.246,0.056-0.393c0-0.147-0.018-0.279-0.053-0.396c-0.035-0.116-0.085-0.215-0.149-0.297    c-0.064-0.081-0.142-0.143-0.231-0.186s-0.188-0.064-0.294-0.064c-0.102,0-0.197,0.021-0.286,0.064    c-0.088,0.043-0.166,0.104-0.23,0.186c-0.065,0.082-0.117,0.181-0.154,0.297C55.371,72.25,55.352,72.382,55.352,72.529z"/>
		<path class="st11" d="M57.897,73.8v-1.548c0-0.248-0.014-0.458-0.042-0.63c-0.027-0.172-0.056-0.302-0.084-0.389h0.452    c0.02,0.047,0.038,0.106,0.054,0.178c0.016,0.071,0.029,0.15,0.04,0.237c0.011,0.088,0.019,0.181,0.024,0.279    c0.005,0.1,0.008,0.199,0.008,0.3v0.163c0.085-0.236,0.168-0.432,0.25-0.588c0.082-0.154,0.164-0.278,0.245-0.371    c0.081-0.092,0.163-0.156,0.245-0.193s0.166-0.055,0.25-0.055c0.064,0,0.122,0.006,0.176,0.018s0.108,0.031,0.163,0.058    l-0.075,0.466c-0.049-0.021-0.091-0.034-0.128-0.041c-0.037-0.006-0.082-0.01-0.136-0.01c-0.068,0-0.14,0.029-0.215,0.087    s-0.149,0.134-0.222,0.229s-0.142,0.205-0.207,0.325c-0.065,0.12-0.122,0.245-0.171,0.371s-0.089,0.251-0.118,0.371    s-0.044,0.228-0.044,0.321c0,0.043,0,0.081,0.001,0.117c0.001,0.035,0.003,0.068,0.007,0.102c0.004,0.032,0.01,0.064,0.017,0.098    c0.006,0.033,0.015,0.067,0.025,0.104H57.897z"/>
		<path class="st11" d="M61.283,71.184c0.167,0,0.311,0.02,0.433,0.059c0.121,0.039,0.228,0.092,0.32,0.154l-0.088,0.453    c-0.114-0.084-0.227-0.146-0.339-0.188c-0.112-0.042-0.233-0.063-0.363-0.063c-0.112,0-0.216,0.021-0.313,0.064    s-0.18,0.105-0.25,0.186c-0.071,0.08-0.127,0.18-0.167,0.297s-0.06,0.25-0.06,0.397c0,0.136,0.018,0.259,0.055,0.37    c0.037,0.11,0.089,0.205,0.158,0.285c0.069,0.08,0.151,0.141,0.249,0.186c0.097,0.043,0.207,0.064,0.329,0.064    c0.152,0,0.29-0.025,0.414-0.078c0.124-0.052,0.241-0.126,0.351-0.224l0.05,0.44c-0.063,0.049-0.126,0.09-0.189,0.125    c-0.063,0.034-0.128,0.063-0.197,0.085s-0.142,0.04-0.221,0.05c-0.079,0.012-0.165,0.018-0.258,0.018    c-0.169,0-0.327-0.03-0.474-0.09c-0.147-0.06-0.276-0.146-0.386-0.258s-0.197-0.248-0.261-0.408    c-0.063-0.158-0.095-0.34-0.095-0.541c0-0.189,0.03-0.367,0.091-0.535s0.148-0.314,0.261-0.44c0.113-0.126,0.25-0.226,0.411-0.298    C60.904,71.22,61.084,71.184,61.283,71.184z"/>
		<path class="st11" d="M63.741,71.184c0.137,0,0.258,0.016,0.364,0.049s0.196,0.078,0.273,0.136    c0.077,0.058,0.141,0.126,0.193,0.202c0.052,0.078,0.093,0.16,0.125,0.25c0.031,0.088,0.053,0.182,0.066,0.277    c0.013,0.097,0.02,0.191,0.02,0.285v0.099c0,0.042-0.001,0.075-0.002,0.099h-1.778c0.005,0.146,0.028,0.275,0.069,0.385    s0.097,0.199,0.168,0.27c0.071,0.072,0.154,0.125,0.25,0.16s0.201,0.053,0.315,0.053c0.162,0,0.321-0.018,0.477-0.055    c0.155-0.037,0.31-0.103,0.464-0.197l0.05,0.416c-0.089,0.045-0.176,0.084-0.261,0.115c-0.085,0.032-0.17,0.059-0.256,0.078    c-0.085,0.021-0.171,0.035-0.259,0.044s-0.18,0.015-0.277,0.015c-0.16,0-0.313-0.029-0.459-0.085s-0.273-0.14-0.383-0.249    s-0.198-0.246-0.264-0.408c-0.065-0.163-0.098-0.352-0.098-0.566c0-0.208,0.028-0.396,0.084-0.564    c0.056-0.17,0.136-0.313,0.24-0.434c0.104-0.119,0.229-0.212,0.378-0.276C63.388,71.215,63.555,71.184,63.741,71.184z     M63.703,71.561c-0.184,0-0.334,0.055-0.451,0.162c-0.117,0.108-0.194,0.276-0.231,0.505h1.309c0-0.107-0.015-0.202-0.046-0.286    c-0.031-0.082-0.074-0.152-0.13-0.21c-0.056-0.057-0.123-0.1-0.199-0.128C63.877,71.574,63.793,71.561,63.703,71.561z"/>
	</g>
	<g class="st5">
		<path class="st11" d="M27.683,65.727h1.441v0.164h-0.608c-0.133,0-0.223,0.042-0.271,0.127c-0.027,0.047-0.04,0.109-0.04,0.185    v4.62c0,0.102,0.015,0.178,0.043,0.228c0.05,0.087,0.147,0.131,0.291,0.131h0.585v0.175h-1.441V65.727z"/>
		<path class="st11" d="M32.356,67.393l0.444-0.281v2.576c0,0.125,0.029,0.211,0.085,0.262c0.05,0.045,0.139,0.072,0.268,0.082    c0.103,0.01,0.154,0.031,0.154,0.067c-0.013,0.034-0.177,0.073-0.492,0.118c-0.037,0.005-0.104,0.024-0.204,0.059    c-0.086,0.029-0.155,0.045-0.208,0.045c-0.036,0-0.056-0.012-0.062-0.035v-0.611c0,0.207-0.11,0.383-0.329,0.527    c-0.149,0.098-0.357,0.145-0.622,0.139c-0.262-0.006-0.504-0.08-0.726-0.227c-0.457-0.298-0.684-0.761-0.679-1.389    c0.003-0.456,0.16-0.851,0.47-1.184c0.31-0.334,0.69-0.5,1.14-0.498c0.303,0,0.526,0.084,0.669,0.253    C32.318,67.357,32.349,67.39,32.356,67.393z M31.043,66.17c-0.114,0.016-0.271,0.072-0.471,0.174    c-0.083,0.042-0.132,0.064-0.146,0.068c-0.079,0-0.046-0.054,0.099-0.161c0.107-0.071,0.214-0.145,0.322-0.219    c0.107-0.075,0.207-0.12,0.298-0.136c0.118,0,0.27,0.043,0.454,0.127c0.094,0.042,0.166,0.071,0.217,0.088    c0.058,0.02,0.119,0.027,0.184,0.025c0.086-0.004,0.174-0.027,0.266-0.072c0.09-0.05,0.18-0.102,0.271-0.152    c0.143-0.08,0.226-0.119,0.25-0.119c0.009,0.006,0.013,0.014,0.013,0.021c0,0.102-0.145,0.25-0.436,0.443    c-0.124,0.082-0.234,0.134-0.331,0.154c-0.042,0.009-0.081,0.014-0.115,0.014c-0.089,0-0.221-0.041-0.396-0.125    C31.334,66.214,31.175,66.17,31.043,66.17z M30.912,69.652c0.278,0.279,0.54,0.42,0.788,0.42c0.253,0,0.443-0.124,0.57-0.371    c0.053-0.104,0.08-0.199,0.08-0.289v-1.236c0-0.305-0.099-0.572-0.298-0.803c-0.123-0.143-0.297-0.213-0.523-0.213    c-0.096,0-0.201,0.016-0.316,0.047c-0.255,0.069-0.45,0.228-0.583,0.475c-0.117,0.215-0.176,0.467-0.176,0.755    C30.454,68.939,30.606,69.346,30.912,69.652z"/>
		<path class="st11" d="M35.606,71.355h-1.445v-0.168h0.612c0.205,0,0.308-0.104,0.308-0.309v-4.623c0-0.236-0.11-0.355-0.331-0.355    h-0.588v-0.174h1.445V71.355z"/>
	</g>
	<g class="st5">
		<path class="st11" d="M55.623,66.559h0.206v1.973h0.391v0.428h-0.391v1.16h-0.489v-1.16h-1.482v-0.217L55.623,66.559z     M55.339,68.531v-1.019l-0.811,1.019H55.339z"/>
		<path class="st11" d="M57.426,69.634h1.333v0.485h-2.217v-0.035l0.21-0.249c0.33-0.409,0.591-0.757,0.786-1.042    s0.322-0.5,0.381-0.646c0.059-0.146,0.089-0.29,0.089-0.433c0-0.198-0.056-0.356-0.168-0.477s-0.261-0.181-0.446-0.181    c-0.141,0-0.279,0.042-0.415,0.125s-0.259,0.2-0.368,0.352v-0.64c0.272-0.224,0.554-0.335,0.843-0.335    c0.306,0,0.558,0.103,0.756,0.308c0.198,0.204,0.297,0.464,0.297,0.78c0,0.141-0.024,0.291-0.074,0.451s-0.137,0.345-0.262,0.554    c-0.125,0.209-0.338,0.493-0.639,0.854L57.426,69.634z"/>
		<path class="st11" d="M61.27,66.564c0.216,0,0.4,0.076,0.552,0.23c0.152,0.154,0.229,0.34,0.229,0.557    c0,0.215-0.077,0.399-0.229,0.554c-0.153,0.154-0.336,0.231-0.551,0.231c-0.214,0-0.397-0.077-0.55-0.231    s-0.229-0.339-0.229-0.554c0-0.217,0.076-0.402,0.228-0.557C60.871,66.641,61.055,66.564,61.27,66.564z M63.044,66.555h0.388    l-2.304,3.604h-0.387L63.044,66.555z M61.264,66.946c-0.111,0-0.207,0.04-0.286,0.119s-0.119,0.175-0.119,0.288    c0,0.109,0.04,0.204,0.12,0.283c0.08,0.078,0.175,0.117,0.285,0.117c0.112,0,0.208-0.039,0.287-0.117    c0.079-0.079,0.119-0.174,0.119-0.283c0-0.114-0.039-0.211-0.118-0.289C61.473,66.986,61.377,66.946,61.264,66.946z M62.924,68.59    c0.213,0,0.397,0.076,0.551,0.23c0.153,0.152,0.23,0.337,0.23,0.552c0,0.214-0.077,0.397-0.229,0.547    c-0.152,0.15-0.336,0.226-0.552,0.226c-0.217,0-0.402-0.075-0.555-0.226c-0.153-0.149-0.229-0.333-0.229-0.547    c0-0.216,0.077-0.401,0.23-0.554C62.524,68.666,62.709,68.59,62.924,68.59z M62.919,68.972c-0.11,0-0.204,0.04-0.281,0.118    c-0.077,0.078-0.116,0.173-0.116,0.283c0,0.112,0.039,0.208,0.116,0.287c0.078,0.08,0.171,0.119,0.281,0.119    c0.113,0,0.209-0.039,0.288-0.117c0.079-0.079,0.118-0.176,0.118-0.289c0-0.111-0.039-0.207-0.118-0.285    C63.128,69.011,63.032,68.972,62.919,68.972z"/>
	</g>
	<g class="st5">
		<path class="st14" d="M76.32,47.607c0,0.369,0.02,0.681,0.061,0.932c0.041,0.252,0.094,0.459,0.158,0.624h-0.512    c-0.01-0.025-0.023-0.061-0.041-0.105c-0.018-0.046-0.035-0.097-0.055-0.154c-0.018-0.058-0.035-0.12-0.053-0.187    c-0.016-0.066-0.029-0.133-0.041-0.199c-0.076,0.098-0.157,0.189-0.242,0.275s-0.174,0.162-0.268,0.229    c-0.094,0.067-0.191,0.119-0.293,0.158c-0.102,0.037-0.205,0.057-0.311,0.057c-0.122,0-0.244-0.026-0.367-0.079    c-0.121-0.053-0.23-0.132-0.328-0.237s-0.177-0.238-0.237-0.398c-0.061-0.159-0.091-0.347-0.091-0.563    c0-0.225,0.025-0.428,0.075-0.611s0.118-0.346,0.203-0.488c0.076-0.125,0.158-0.235,0.244-0.329    c0.086-0.095,0.18-0.172,0.281-0.233c0.104-0.062,0.215-0.108,0.338-0.14s0.26-0.047,0.41-0.047c0.074,0,0.156,0.005,0.247,0.017    c0.091,0.01,0.184,0.025,0.278,0.045c0.094,0.02,0.188,0.043,0.282,0.07s0.181,0.057,0.261,0.088V47.607z M75.135,46.609    c-0.063,0-0.125,0.008-0.188,0.021c-0.063,0.016-0.126,0.04-0.188,0.075c-0.062,0.036-0.12,0.082-0.179,0.14    c-0.057,0.058-0.111,0.131-0.162,0.219c-0.053,0.09-0.095,0.202-0.127,0.336c-0.032,0.135-0.049,0.271-0.049,0.412    c0,0.162,0.016,0.303,0.046,0.418c0.03,0.117,0.069,0.213,0.12,0.288c0.049,0.075,0.105,0.131,0.17,0.166    c0.063,0.035,0.127,0.053,0.191,0.053c0.082,0,0.171-0.025,0.268-0.076c0.096-0.051,0.19-0.118,0.282-0.202    s0.178-0.182,0.259-0.291s0.148-0.223,0.201-0.34v-1.102c-0.029-0.014-0.067-0.027-0.113-0.041s-0.097-0.026-0.152-0.038    c-0.055-0.012-0.115-0.021-0.182-0.028C75.268,46.613,75.201,46.609,75.135,46.609z"/>
		<path class="st14" d="M79.831,46.169c-0.041,0.085-0.083,0.175-0.128,0.272c-0.043,0.099-0.086,0.194-0.125,0.288    c-0.04,0.095-0.078,0.183-0.113,0.268c-0.035,0.084-0.064,0.155-0.088,0.214c-0.02,0.047-0.045,0.111-0.077,0.192    s-0.068,0.173-0.108,0.272c-0.039,0.102-0.082,0.208-0.127,0.32c-0.045,0.113-0.089,0.224-0.132,0.334    c-0.104,0.258-0.214,0.535-0.331,0.833h-0.555c-0.113-0.284-0.221-0.552-0.32-0.804c-0.042-0.108-0.086-0.218-0.131-0.329    c-0.045-0.112-0.088-0.219-0.127-0.321c-0.041-0.104-0.078-0.197-0.111-0.283c-0.035-0.086-0.063-0.158-0.086-0.215    c-0.023-0.059-0.053-0.131-0.088-0.215c-0.035-0.086-0.074-0.176-0.115-0.27s-0.082-0.189-0.125-0.286s-0.085-0.187-0.126-0.271    h0.614l0.893,2.407l0.893-2.407H79.831z"/>
	</g>
	<g class="st5">
		<path class="st6" d="M82.276,44.803c0.229,0,0.431,0.027,0.606,0.081c0.176,0.055,0.327,0.13,0.455,0.227    c0.129,0.097,0.236,0.209,0.322,0.337c0.086,0.129,0.155,0.268,0.207,0.416c0.051,0.148,0.088,0.303,0.11,0.463    c0.022,0.161,0.034,0.32,0.034,0.477v0.163c0,0.069-0.002,0.124-0.005,0.163h-2.964c0.009,0.246,0.047,0.461,0.115,0.643    s0.162,0.332,0.28,0.45s0.258,0.208,0.418,0.267s0.335,0.088,0.524,0.088c0.271,0,0.535-0.031,0.795-0.092    c0.258-0.063,0.516-0.171,0.772-0.328l0.084,0.692c-0.147,0.075-0.293,0.14-0.435,0.192c-0.143,0.054-0.285,0.097-0.427,0.131    c-0.142,0.033-0.286,0.058-0.433,0.072c-0.146,0.016-0.301,0.023-0.462,0.023c-0.268,0-0.522-0.047-0.765-0.141    s-0.455-0.231-0.64-0.414c-0.185-0.184-0.33-0.41-0.438-0.682c-0.109-0.271-0.164-0.586-0.164-0.943    c0-0.348,0.047-0.661,0.141-0.941c0.094-0.281,0.227-0.521,0.399-0.722s0.383-0.354,0.631-0.462    C81.688,44.855,81.967,44.803,82.276,44.803z M82.214,45.432c-0.307,0-0.558,0.09-0.753,0.27    c-0.195,0.181-0.322,0.461-0.385,0.842h2.183c0-0.18-0.026-0.338-0.077-0.477c-0.052-0.139-0.125-0.255-0.218-0.35    c-0.093-0.096-0.204-0.167-0.332-0.215C82.504,45.455,82.364,45.432,82.214,45.432z"/>
	</g>
	<g class="st5">
		<path class="st10" d="M87.464,44.803c0.446,0,0.787,0.146,1.024,0.438c0.236,0.292,0.355,0.727,0.355,1.303v2.62H88.07v-2.306    c0-0.264-0.018-0.48-0.053-0.65c-0.035-0.171-0.086-0.306-0.154-0.404c-0.068-0.1-0.154-0.169-0.26-0.208    c-0.104-0.039-0.228-0.059-0.369-0.059c-0.15,0-0.298,0.036-0.441,0.106c-0.144,0.072-0.275,0.164-0.395,0.277    c-0.12,0.113-0.227,0.24-0.318,0.383s-0.16,0.285-0.205,0.428v2.433h-0.773v-2.579c0-0.414-0.022-0.764-0.068-1.051    c-0.046-0.286-0.093-0.502-0.141-0.647h0.753c0.017,0.045,0.034,0.103,0.05,0.175c0.018,0.07,0.032,0.146,0.047,0.224    c0.014,0.079,0.025,0.155,0.037,0.231l0.033,0.188c0.266-0.318,0.533-0.548,0.803-0.689    C86.886,44.873,87.168,44.803,87.464,44.803z"/>
	</g>
	<g class="st5">
		<path class="st14" d="M89.53,46.242h0.585v-0.953h0.541v0.953h0.951v0.426h-0.951v1.351c0,0.15,0.008,0.274,0.022,0.37    s0.037,0.17,0.067,0.225c0.029,0.053,0.068,0.09,0.115,0.109s0.104,0.029,0.17,0.029c0.084,0,0.178-0.019,0.283-0.056    s0.223-0.092,0.352-0.164v0.47c-0.135,0.088-0.264,0.148-0.387,0.184c-0.123,0.033-0.235,0.051-0.339,0.051    c-0.115,0-0.222-0.014-0.321-0.039c-0.1-0.027-0.188-0.073-0.262-0.14c-0.076-0.067-0.135-0.155-0.178-0.266    s-0.064-0.251-0.064-0.421v-1.703H89.53V46.242z"/>
		<path class="st14" d="M93.275,49.236c-0.624,0-0.936-0.42-0.936-1.262v-0.866c0-0.094-0.001-0.179-0.002-0.255    s-0.004-0.15-0.008-0.223c-0.004-0.07-0.01-0.144-0.018-0.219c-0.008-0.074-0.018-0.154-0.031-0.243h0.6v1.63    c0,0.166,0.008,0.309,0.024,0.43c0.017,0.12,0.044,0.219,0.083,0.296s0.091,0.135,0.154,0.172    c0.063,0.037,0.142,0.056,0.235,0.056c0.086,0,0.178-0.025,0.274-0.078c0.098-0.051,0.191-0.117,0.28-0.197    s0.169-0.169,0.243-0.266c0.072-0.098,0.129-0.19,0.168-0.281v-0.821c0-0.096-0.001-0.183-0.002-0.26s-0.004-0.151-0.007-0.222    c-0.005-0.07-0.011-0.142-0.018-0.215c-0.008-0.072-0.019-0.152-0.032-0.243h0.6v1.673c0,0.286,0.016,0.536,0.049,0.75    c0.031,0.215,0.079,0.404,0.142,0.571h-0.497c-0.014-0.033-0.029-0.072-0.045-0.117c-0.016-0.046-0.03-0.093-0.045-0.144    s-0.028-0.104-0.041-0.16c-0.013-0.057-0.023-0.111-0.031-0.166c-0.177,0.217-0.359,0.381-0.548,0.493    C93.68,49.181,93.482,49.236,93.275,49.236z"/>
		<path class="st14" d="M95.807,49.163v-1.806c0-0.289-0.017-0.534-0.049-0.734c-0.032-0.201-0.064-0.352-0.098-0.454h0.526    c0.023,0.056,0.044,0.124,0.063,0.207c0.018,0.083,0.033,0.176,0.047,0.277c0.012,0.103,0.021,0.21,0.027,0.325    c0.006,0.116,0.008,0.232,0.008,0.35v0.191c0.1-0.276,0.197-0.504,0.293-0.686s0.191-0.325,0.285-0.434    c0.096-0.107,0.189-0.183,0.285-0.226s0.193-0.064,0.293-0.064c0.074,0,0.143,0.007,0.205,0.021s0.125,0.036,0.189,0.067    l-0.087,0.544c-0.057-0.024-0.106-0.04-0.149-0.048s-0.096-0.012-0.158-0.012c-0.08,0-0.164,0.034-0.252,0.102    s-0.174,0.157-0.258,0.269c-0.086,0.111-0.166,0.238-0.242,0.379s-0.143,0.285-0.2,0.433s-0.104,0.292-0.138,0.433    s-0.051,0.267-0.051,0.376c0,0.049,0,0.094,0.001,0.136c0.001,0.041,0.004,0.08,0.009,0.118s0.012,0.076,0.02,0.114    c0.008,0.039,0.018,0.079,0.029,0.122H95.807z"/>
		<path class="st14" d="M99.639,46.11c0.16,0,0.302,0.019,0.424,0.058c0.123,0.037,0.23,0.091,0.32,0.158    c0.089,0.067,0.164,0.146,0.225,0.236s0.109,0.188,0.145,0.291c0.036,0.104,0.063,0.211,0.078,0.324    c0.016,0.112,0.023,0.223,0.023,0.333v0.114c0,0.049-0.002,0.087-0.004,0.114h-2.074c0.006,0.173,0.033,0.322,0.081,0.449    c0.048,0.128,0.112,0.232,0.196,0.315c0.082,0.084,0.18,0.146,0.292,0.187s0.235,0.062,0.367,0.062    c0.189,0,0.374-0.021,0.556-0.064s0.362-0.119,0.541-0.229l0.059,0.484c-0.103,0.053-0.204,0.098-0.304,0.135    s-0.198,0.067-0.298,0.091s-0.201,0.04-0.303,0.052c-0.104,0.01-0.211,0.016-0.324,0.016c-0.188,0-0.365-0.033-0.535-0.098    c-0.17-0.066-0.318-0.163-0.447-0.291c-0.129-0.129-0.231-0.287-0.308-0.477c-0.076-0.19-0.114-0.41-0.114-0.661    c0-0.243,0.033-0.462,0.098-0.659c0.066-0.196,0.159-0.365,0.279-0.504c0.121-0.141,0.269-0.248,0.442-0.324    C99.228,46.148,99.422,46.11,99.639,46.11z M99.596,46.551c-0.215,0-0.391,0.063-0.527,0.189c-0.137,0.126-0.227,0.322-0.27,0.588    h1.527c0-0.125-0.018-0.236-0.054-0.332c-0.036-0.098-0.087-0.18-0.152-0.246s-0.143-0.116-0.232-0.149S99.7,46.551,99.596,46.551    z"/>
	</g>
	<g class="st5">
		<path class="st6" d="M72.324,61.674c0.343,0,0.646,0.041,0.909,0.123s0.491,0.195,0.684,0.34s0.353,0.313,0.482,0.506    c0.13,0.193,0.233,0.4,0.311,0.623s0.133,0.454,0.166,0.695c0.034,0.24,0.05,0.479,0.05,0.714v0.245    c0,0.105-0.002,0.187-0.006,0.245h-4.445c0.013,0.369,0.07,0.69,0.172,0.962c0.103,0.273,0.243,0.498,0.42,0.677    s0.386,0.312,0.627,0.399c0.24,0.088,0.502,0.133,0.787,0.133c0.406,0,0.803-0.047,1.191-0.139    c0.388-0.093,0.775-0.256,1.16-0.491l0.125,1.038c-0.221,0.113-0.438,0.209-0.651,0.289c-0.214,0.08-0.426,0.145-0.64,0.195    c-0.213,0.051-0.429,0.087-0.649,0.109c-0.219,0.023-0.45,0.035-0.693,0.035c-0.401,0-0.784-0.07-1.147-0.211    c-0.363-0.141-0.683-0.348-0.959-0.623c-0.276-0.273-0.496-0.615-0.658-1.021c-0.163-0.406-0.245-0.879-0.245-1.415    c0-0.521,0.07-0.991,0.21-1.412s0.339-0.782,0.599-1.082s0.575-0.53,0.947-0.692C71.442,61.755,71.86,61.674,72.324,61.674z     M72.23,62.617c-0.46,0-0.836,0.136-1.129,0.406s-0.485,0.691-0.577,1.262h3.273c0-0.27-0.039-0.507-0.116-0.715    c-0.077-0.207-0.186-0.383-0.326-0.525c-0.14-0.143-0.307-0.249-0.499-0.32C72.665,62.653,72.456,62.617,72.23,62.617z"/>
	</g>
	<g class="st5">
		<path class="st10" d="M80.105,61.674c0.668,0,1.181,0.22,1.535,0.658c0.355,0.438,0.533,1.089,0.533,1.953v3.931h-1.16v-3.46    c0-0.394-0.025-0.719-0.078-0.975c-0.052-0.256-0.129-0.458-0.231-0.607c-0.103-0.148-0.232-0.252-0.39-0.311    c-0.156-0.059-0.341-0.088-0.555-0.088c-0.225,0-0.445,0.053-0.661,0.16s-0.413,0.245-0.593,0.415s-0.338,0.362-0.477,0.575    c-0.137,0.215-0.24,0.428-0.307,0.643v3.647h-1.16v-3.868c0-0.621-0.034-1.146-0.104-1.576c-0.068-0.43-0.139-0.754-0.21-0.971    h1.129c0.024,0.066,0.05,0.153,0.075,0.26c0.025,0.107,0.048,0.22,0.068,0.337c0.021,0.118,0.04,0.233,0.057,0.347l0.051,0.283    c0.396-0.479,0.798-0.824,1.203-1.035C79.238,61.78,79.662,61.674,80.105,61.674z"/>
	</g>
	<g class="st5">
		<path class="st15" d="M83.161,61.957h1.254v-2.044h1.16v2.044h2.038v0.912h-2.038v2.894c0,0.323,0.016,0.587,0.047,0.792    c0.031,0.206,0.079,0.367,0.144,0.482c0.065,0.115,0.148,0.193,0.248,0.235c0.101,0.042,0.222,0.063,0.363,0.063    c0.18,0,0.383-0.041,0.609-0.12c0.225-0.079,0.477-0.197,0.752-0.353v1.007c-0.289,0.188-0.564,0.319-0.828,0.394    c-0.263,0.072-0.506,0.109-0.727,0.109c-0.247,0-0.477-0.028-0.689-0.085c-0.214-0.057-0.4-0.156-0.562-0.299    s-0.288-0.332-0.38-0.569c-0.092-0.236-0.138-0.537-0.138-0.902v-3.648h-1.254V61.957z"/>
	</g>
	<g class="st5">
		<path class="st14" d="M120.092,64.938c0-0.208-0.001-0.4-0.004-0.578c-0.004-0.178-0.012-0.342-0.021-0.49    c-0.012-0.148-0.028-0.283-0.051-0.404s-0.053-0.229-0.09-0.322h0.602c0.024,0.059,0.049,0.141,0.073,0.246    c0.024,0.107,0.045,0.237,0.061,0.392c0.077-0.103,0.163-0.198,0.256-0.285s0.19-0.161,0.294-0.224    c0.104-0.061,0.213-0.109,0.328-0.145c0.114-0.034,0.234-0.051,0.359-0.051c0.189,0,0.363,0.041,0.52,0.125    c0.157,0.084,0.291,0.201,0.401,0.353s0.196,0.33,0.258,0.536c0.062,0.207,0.092,0.434,0.092,0.68c0,0.287-0.04,0.545-0.12,0.777    c-0.08,0.23-0.189,0.428-0.326,0.592c-0.137,0.163-0.299,0.289-0.483,0.377s-0.382,0.133-0.592,0.133    c-0.089,0-0.173-0.01-0.253-0.027c-0.078-0.018-0.156-0.042-0.23-0.073s-0.148-0.069-0.223-0.116    c-0.073-0.045-0.15-0.096-0.23-0.152v0.789c0,0.133,0.002,0.255,0.006,0.363c0.003,0.108,0.008,0.209,0.015,0.301    s0.015,0.176,0.026,0.253s0.023,0.151,0.037,0.223h-0.703V64.938z M121.647,66.095c0.118,0,0.231-0.028,0.339-0.084    c0.108-0.056,0.205-0.137,0.288-0.243c0.083-0.105,0.15-0.234,0.2-0.386c0.051-0.151,0.076-0.321,0.076-0.512    c0-0.186-0.018-0.354-0.053-0.505c-0.034-0.15-0.085-0.279-0.152-0.386c-0.066-0.106-0.146-0.188-0.242-0.247    c-0.094-0.058-0.202-0.086-0.322-0.086c-0.096,0-0.193,0.021-0.295,0.063c-0.1,0.043-0.197,0.105-0.292,0.188    s-0.184,0.187-0.266,0.311c-0.083,0.124-0.155,0.267-0.218,0.428v1.057c0.113,0.081,0.213,0.147,0.297,0.2    c0.083,0.052,0.159,0.094,0.229,0.123c0.068,0.031,0.135,0.051,0.199,0.063C121.498,66.09,121.569,66.095,121.647,66.095z"/>
	</g>
	<g class="st5">
		<path class="st10" d="M127.641,64.342c0,0.529,0.029,0.973,0.088,1.332s0.135,0.656,0.227,0.891h-0.732    c-0.014-0.036-0.033-0.086-0.059-0.15c-0.024-0.064-0.051-0.139-0.076-0.221c-0.027-0.082-0.053-0.172-0.076-0.266    c-0.023-0.096-0.043-0.191-0.061-0.285c-0.108,0.139-0.223,0.271-0.344,0.394c-0.122,0.123-0.25,0.231-0.383,0.327    c-0.135,0.095-0.273,0.17-0.418,0.225s-0.293,0.082-0.443,0.082c-0.176,0-0.351-0.039-0.524-0.113    c-0.175-0.076-0.331-0.189-0.47-0.34c-0.141-0.151-0.253-0.341-0.34-0.568c-0.086-0.229-0.129-0.496-0.129-0.803    c0-0.322,0.035-0.613,0.106-0.875s0.168-0.494,0.29-0.697c0.109-0.18,0.225-0.336,0.348-0.471    c0.123-0.134,0.257-0.245,0.403-0.333c0.146-0.088,0.308-0.154,0.482-0.199c0.176-0.044,0.37-0.067,0.585-0.067    c0.106,0,0.225,0.008,0.354,0.023c0.13,0.016,0.262,0.037,0.396,0.064c0.136,0.028,0.271,0.063,0.404,0.102    c0.133,0.039,0.258,0.08,0.371,0.125V64.342z M125.948,62.916c-0.089,0-0.179,0.011-0.27,0.031    c-0.091,0.021-0.18,0.057-0.268,0.107c-0.087,0.051-0.173,0.117-0.255,0.199s-0.16,0.187-0.232,0.313    c-0.074,0.129-0.135,0.289-0.182,0.48c-0.045,0.191-0.068,0.387-0.068,0.589c0,0.231,0.021,0.431,0.064,0.597    c0.043,0.167,0.101,0.305,0.172,0.412c0.07,0.107,0.151,0.186,0.242,0.236c0.09,0.051,0.182,0.076,0.273,0.076    c0.117,0,0.244-0.037,0.383-0.109c0.138-0.072,0.271-0.17,0.403-0.289c0.131-0.121,0.254-0.26,0.37-0.416    c0.115-0.156,0.211-0.318,0.286-0.486v-1.572c-0.042-0.02-0.096-0.039-0.161-0.059s-0.138-0.037-0.217-0.055    c-0.08-0.017-0.166-0.029-0.26-0.039S126.043,62.916,125.948,62.916z"/>
	</g>
	<g class="st5">
		<path class="st8" d="M128.643,64.447c0-0.361,0.055-0.68,0.164-0.959c0.108-0.277,0.254-0.513,0.438-0.704    s0.398-0.336,0.644-0.435c0.245-0.098,0.506-0.146,0.781-0.146c0.287,0,0.551,0.049,0.789,0.146    c0.238,0.099,0.442,0.243,0.613,0.435c0.172,0.191,0.305,0.427,0.399,0.704c0.095,0.279,0.143,0.598,0.143,0.959    c0,0.36-0.055,0.679-0.163,0.955c-0.109,0.277-0.255,0.51-0.439,0.697c-0.184,0.187-0.398,0.328-0.643,0.425    c-0.246,0.097-0.506,0.146-0.782,0.146c-0.287,0-0.55-0.049-0.788-0.146s-0.443-0.238-0.614-0.425    c-0.171-0.188-0.305-0.42-0.399-0.697C128.69,65.126,128.643,64.808,128.643,64.447z M129.416,64.447    c0,0.242,0.029,0.461,0.088,0.654c0.059,0.192,0.142,0.355,0.249,0.488s0.235,0.234,0.382,0.304    c0.148,0.069,0.313,0.104,0.494,0.104c0.167,0,0.324-0.035,0.473-0.104c0.146-0.069,0.275-0.171,0.387-0.304    c0.109-0.133,0.195-0.296,0.258-0.488c0.063-0.193,0.095-0.412,0.095-0.654c0-0.246-0.029-0.467-0.088-0.66    c-0.059-0.195-0.142-0.359-0.249-0.496c-0.107-0.135-0.235-0.238-0.385-0.31c-0.148-0.071-0.313-0.106-0.49-0.106    c-0.17,0-0.329,0.035-0.477,0.106c-0.148,0.071-0.275,0.175-0.385,0.31c-0.109,0.137-0.194,0.301-0.258,0.496    C129.447,63.98,129.416,64.201,129.416,64.447z"/>
	</g>
	<g class="st5">
		<path class="st10" d="M136.036,62.203c0.446,0,0.787,0.146,1.024,0.438c0.236,0.292,0.355,0.726,0.355,1.302v2.621h-0.773v-2.307    c0-0.262-0.018-0.479-0.053-0.649s-0.086-0.306-0.154-0.405c-0.068-0.099-0.154-0.168-0.26-0.207    c-0.104-0.039-0.228-0.059-0.369-0.059c-0.15,0-0.298,0.035-0.441,0.107c-0.144,0.07-0.275,0.162-0.395,0.275    c-0.12,0.113-0.227,0.242-0.318,0.385s-0.16,0.285-0.205,0.428v2.432h-0.773v-2.578c0-0.414-0.022-0.765-0.068-1.051    c-0.046-0.287-0.093-0.503-0.141-0.648h0.753c0.017,0.045,0.034,0.104,0.05,0.174c0.018,0.072,0.032,0.146,0.047,0.225    c0.014,0.078,0.025,0.155,0.037,0.23l0.033,0.189c0.266-0.319,0.533-0.549,0.803-0.69    C135.458,62.273,135.74,62.203,136.036,62.203z"/>
	</g>
	<path class="st16" d="M17,49.1c0,0,0.3,0.2,1.1-0.4c0.3-0.2,0.5-0.5,0.5-0.8c0.5-1.6,1.4-3.1,2.9-4c0.1-0.1,0.2-0.2,0.4-0.2   c0.4-0.3,0.8-0.5,1.3-0.7c0.4-0.2,1.1-0.6,1.4-1.4c0,0,1.1,0.3,0.4,1.6c0,0,0.6,0.7-0.7,1.9c0,0,1,0.3-0.7,1.6c0,0,0.5,0.5-1.3,1.3   c0,0,3-0.8,0.4,1.1c0,0,1.8,0.1-0.5,1c0,0-1.1,1.1-3.4,1.6C18.8,51.5,18,50.5,17,49.1z"/>
	<path class="st16" d="M16.8,45.3c0,0,1.4-2.9,2.7-3.7c0.8-0.5,1.8-2.5,1.8-2.5s0.8,0.4,0.2,1.9"/>
	<path class="st16" d="M21.5,42.4c0.2-0.4,0.1-0.9-0.1-1.4"/>
	<path class="st16" d="M21.6,43.8c0,0,1.1-1-0.2-1.4"/>
	<path class="st16" d="M11.8,52.7l0.8-0.6l0.7,0.7c0,0-0.3,0.3-0.8,0.4C12.5,53.3,12.2,52.9,11.8,52.7z"/>
	<path class="st16" d="M28.7,54.9l-2,0.3c-0.6,0.1-1.1,0.4-1.5,0.8c-0.1,0.2-0.3,0.4-0.3,0.5c0,0-1.5-1.7-2.7-2l-0.6-1.1   c-0.2-0.5-0.6-0.8-1.1-0.9c-0.8-0.2-1.9-0.8-2.5-2c-1.2-2.1-2.6-2.6-2.6-2.6v-0.3c0,0,2-0.8,1.3-4.7c-0.4-2.3-3.3-1.5-3.3-1.5   s-2.3-1.4-3.5,0.9c0,0-0.4,0.2-0.7,0.8c-0.4,0.8,0,1.6,0,1.7c0.3,0.5,0.2,1.5,0.2,1.5c-0.1,2.6,2.4,2.9,2.4,2.9l-2.6,3l-2,0.7   c-0.1-0.5-0.9-0.3-0.9-0.3c-0.6-0.3-0.8-0.2-1-0.1c-0.1,0.2-0.1,0.4,0.1,0.5l0.9,0.5l-1.2,0.1c0,0.1,0,0.4,0.1,0.6   c0.1,0.2,0.2,0.3,0.3,0.4c0,0.1,0,0.2,0.1,0.3c0.1,0.2,0.3,0.3,0.4,0.3c0,0.1,0.1,0.2,0.3,0.2c0.2,0.1,0.4,0,0.5,0   c0.5,0.1,0.9-0.2,1-0.4s-0.2-0.5-0.2-0.5l1.1-0.6c0.8,0,1.6-0.2,1.6-0.2l0.4,0.4c0.1,1,0.6,0.5,0.6,0.5c0.3,1.1,1.1,0.1,1.1,0.1   c1.3,0.3,2.7-0.3,2.7-0.3c0.9,0.9,1.9,1.5,2,1.4l2.6,2.2c0.2,0.1,1.6,1.4,3.5,1.5c0,0,0.7,0.5,2-0.1c0,0,1.7-1,3.2-2.2   c0,0,1.9,2.4,2.1,0.2c0,0,0.8,0.1,0.6-1.2l0,0c0-0.2-0.1-0.3-0.2-0.4c-0.3-0.2-0.7-0.5-0.9-1.1v0.2C30,54.9,29.6,54.1,28.7,54.9z"/>
	<path class="st6" d="M15.4,47.6c0,0,1.4-1.1,1.4-2.6c0,0,1.7-3.2,2.7-3.4c0,0,1.8-2,1.8-2.5c0,0,0.8,0.6,0.2,1.9   c0,0,0.2,0.8,0.3,1.5c0,0,0.7,0.6,0.6,0.9c0,0-2.5,1.4-3.4,3.7c0,0-0.2,1.3-0.8,1.7l-1,0.5c0,0-1.2-1.4-2-1.6"/>
	<path class="st17" d="M21.6,41c-0.3,0.8-0.6,1.1-1.7,1.8"/>
	<path class="st17" d="M20.5,43.6c0,0,0.8-0.2,1.2-1.2"/>
	<path class="st17" d="M18.9,49c0.5-0.2,0.7-0.7,0.9-1.1c0.3-0.8,0.7-1.6,1.4-2.2c0.8-0.7,2-1.6,3.9-2.5"/>
	<path class="st17" d="M21.9,46.5c0,0,1.9-0.7,2.4-1.3"/>
	<path class="st17" d="M21.4,47.6c0.3,0,0.7-0.1,1.2-0.3c0.4-0.2,0.8-0.4,1-0.6"/>
	<path class="st17" d="M20.9,48.3c0,0,0.9,0,1.4-0.4"/>
	<path class="st17" d="M20.8,49.4c0.2,0.1,0.6,0.1,1.1,0c0.3-0.1,0.6-0.2,0.8-0.3"/>
	<path class="st17" d="M20.4,50c0,0,1.1,0.1,2-0.1"/>
	<path class="st17" d="M19.7,50.5c0,0,0.5,0.2,1.6,0.2"/>
	<path class="st17" d="M15.4,47.9c0,0-2.4-0.2-0.9,3.5l0.1,1.4c0,0-0.8-0.2-1.4,0"/>
	<path class="st17" d="M16.6,50.1c0,0,1.1,3.9-1.7,4.5"/>
	<path class="st17" d="M16.7,56.1c0,0,3.3-0.9,3.2-3.7"/>
	<path class="st17" d="M9.5,44.9c0,0,1,0.2,1.3-0.9"/>
	<path class="st17" d="M12.3,44.4c0,0-0.8,1-1.6,0.1"/>
	<path class="st17" d="M15.1,46c0,0-0.3-0.3-0.3-0.8c0,0-0.9,1-1.2-0.5c0,0-0.9,1.1-1.4-0.3"/>
	<path class="st17" d="M15.1,46c0,0,0.8-1,1.4,0.1"/>
	<path class="st17" d="M14.9,47.1c0,0,0.4,0.7,1-0.1"/>
	<path class="st17" d="M16,46.1c0,0-0.4-0.1-0.6,0.5"/>
	<path class="st17" d="M12.5,45.5c0,0-0.4,0.1-0.6,0.4"/>
	<path class="st17" d="M11.1,46.5c0,0-0.2-0.5-0.7-0.2"/>
	<path class="st17" d="M12.3,47.9c0,0,0.4-1.1,0.9-0.5c0,0-0.7,0.9-1.8,0.3"/>
	<path class="st12" d="M12,46.6c0.1,0.1,0.2,0.1,0.4,0c0.1-0.1,0.1-0.2,0-0.4c-0.1-0.1-0.2-0.1-0.4,0C11.9,46.3,11.9,46.5,12,46.6z"/>
	<path class="st17" d="M11.9,49.1c0,0,0,2.1,0.7,2.8"/>
	<path class="st17" d="M11.8,49c0,0,1.9,0,2.6-1.3"/>
	<path class="st17" d="M5.3,54.3c0,0,1.7-0.3,0.9-0.8"/>
	<path class="st17" d="M5.8,54.9c0,0,1.4-0.6,0.5-0.9"/>
	<path class="st17" d="M6.4,55.2c0,0,0.9-0.6,0.1-0.9"/>
	<line class="st17" x1="7.4" y1="54.4" x2="6.9" y2="54.7"/>
	<path class="st17" d="M11.7,52.5"/>
	<path class="st17" d="M10.9,53"/>
	<path class="st17" d="M10.1,53.6"/>
	<path class="st17" d="M20.9,57.2c0,0,1.1,0.7,1.9,1.5c0,0,0.7,0.9,1.7,0.2s3-1.5,4.2-2c0,0,0.6,1.1,1.6,1.4"/>
	<path class="st17" d="M22.1,54.6c-0.1-0.2-0.1,3.6-3.4,3.2"/>
	<path class="st18" d="M17,49.1c0,0,0.3,0.2,1.1-0.4c0.3-0.2,0.5-0.5,0.5-0.8c0.5-1.6,1.4-3.1,2.9-4c0.1-0.1,0.2-0.2,0.4-0.2   c0.4-0.3,0.8-0.5,1.3-0.7c0.4-0.2,1.1-0.6,1.4-1.4c0,0,1.1,0.3,0.4,1.6c0,0,0.6,0.7-0.7,1.9c0,0,1,0.3-0.7,1.6c0,0,0.5,0.5-1.3,1.3   c0,0,3-0.8,0.4,1.1c0,0,1.8,0.1-0.5,1c0,0-1.1,1.1-3.4,1.6C18.8,51.5,18,50.5,17,49.1z"/>
	<path class="st18" d="M16.8,45.3c0,0,1.4-2.9,2.7-3.7c0.8-0.5,1.8-2.5,1.8-2.5s0.8,0.4,0.2,1.9"/>
	<path class="st18" d="M21.5,42.4c0.2-0.4,0.1-0.9-0.1-1.4"/>
	<path class="st18" d="M21.6,43.8c0,0,1.1-1-0.2-1.4"/>
	<path class="st18" d="M11.8,52.7l0.8-0.6l0.7,0.7c0,0-0.3,0.3-0.8,0.4C12.5,53.3,12.2,52.9,11.8,52.7z"/>
	<path class="st18" d="M28.7,54.9l-2,0.3c-0.6,0.1-1.1,0.4-1.5,0.8c-0.1,0.2-0.3,0.4-0.3,0.5c0,0-1.5-1.7-2.7-2l-0.6-1.1   c-0.2-0.5-0.6-0.8-1.1-0.9c-0.8-0.2-1.9-0.8-2.5-2c-1.2-2.1-2.6-2.6-2.6-2.6v-0.3c0,0,2-0.8,1.3-4.7c-0.4-2.3-3.3-1.5-3.3-1.5   s-2.3-1.4-3.5,0.9c0,0-0.4,0.2-0.7,0.8c-0.4,0.8,0,1.6,0,1.7c0.3,0.5,0.2,1.5,0.2,1.5c-0.1,2.6,2.4,2.9,2.4,2.9l-2.6,3l-2,0.7   c-0.1-0.5-0.9-0.3-0.9-0.3c-0.6-0.3-0.8-0.2-1-0.1c-0.1,0.2-0.1,0.4,0.1,0.5l0.9,0.5l-1.2,0.1c0,0.1,0,0.4,0.1,0.6   c0.1,0.2,0.2,0.3,0.3,0.4c0,0.1,0,0.2,0.1,0.3c0.1,0.2,0.3,0.3,0.4,0.3c0,0.1,0.1,0.2,0.3,0.2c0.2,0.1,0.4,0,0.5,0   c0.5,0.1,0.9-0.2,1-0.4s-0.2-0.5-0.2-0.5l1.1-0.6c0.8,0,1.6-0.2,1.6-0.2l0.4,0.4c0.1,1,0.6,0.5,0.6,0.5c0.3,1.1,1.1,0.1,1.1,0.1   c1.3,0.3,2.7-0.3,2.7-0.3c0.9,0.9,1.9,1.5,2,1.4l2.6,2.2c0.2,0.1,1.6,1.4,3.5,1.5c0,0,0.7,0.5,2-0.1c0,0,1.7-1,3.2-2.2   c0,0,1.9,2.4,2.1,0.2c0,0,0.8,0.1,0.6-1.2l0,0c0-0.2-0.1-0.3-0.2-0.4c-0.3-0.2-0.7-0.5-0.9-1.1v0.2C30,54.9,29.6,54.1,28.7,54.9z"/>
	<polyline class="st19" points="10.9,52.9 3.2,53.6 3.1,52.7 0.4,54.1 3.3,55 3.2,54.2 10.4,53.5  "/>
	<line class="st20" x1="3.2" y1="54" x2="3.2" y2="53.6"/>
	<line class="st20" x1="3.2" y1="54.2" x2="3.2" y2="53.7"/>
	<path class="st19" d="M7.4,55.8c0.8,1.2,1.2,4.4,1.4,5.7c0,0.3,0.2,0.6,0.4,0.8c2,2,1,3.6,1,3.6c0.3-0.7-0.3-1.7-0.3-1.7   c-0.1,0-0.1-0.1-0.2-0.1c-0.8-0.7-1.5-1.6-1.8-2.7c-0.2-0.7-0.5-1.4-0.5-2.1c0-1.4-0.9-3.4-0.9-3.4c0.1,0,0.1-0.1,0.3-0.1   c0.2,0,0.2,0,0.3,0C7.1,55.8,7.3,55.8,7.4,55.8z"/>
	<path class="st19" d="M3,44.6c0,0,1.1,0,0.9,1.6c-0.2,1.6,0.6,3,0.6,3s1.3,3.8,1.2,4.3l0.8-0.1c0,0,0-2.3-0.7-4s-1.4-1.3-1.2-4   C4.6,45.3,4,44.3,3,44.6"/>
	<path class="st20" d="M4.6,45.3c0,0,4.5,4.5,6.2,7.6"/>
	<path class="st20" d="M10.4,64.5c0,0,0.3-1.6,0.6-4.3s0.3-5,0.3-5"/>
	<path class="st21" d="M10.2,53.9c0-0.1,0.2-0.8,0.8-0.6"/>
	<path class="st21" d="M11,53.3c0,0-0.6-1.2,0.7-0.5"/>
</g>
</svg>