<?xml version="1.0" encoding="UTF-8"?>
<!-- Generator: Adobe Illustrator 24.0.2, SVG Export Plug-In . SVG Version: 6.00 Build 0)  -->
<svg version="1.1" id="Calque_1" xmlns="http://www.w3.org/2000/svg" xmlns:xlink="http://www.w3.org/1999/xlink" x="0px" y="0px" viewBox="0 0 114 72" style="enable-background:new 0 0 114 72;" xml:space="preserve">
<style type="text/css">
	.st0{fill:#FFFFFF;stroke:#DADADA;stroke-width:0.7253;stroke-miterlimit:10;}
	.st1{fill:#FFFFFF;stroke:#000000;stroke-width:0.8192;stroke-miterlimit:10;}
	.st2{fill:none;stroke:#B2B2B2;stroke-width:0.3627;stroke-miterlimit:10;}
	.st3{fill:none;stroke:#B2B2B2;stroke-width:0.4378;stroke-miterlimit:10;}
	.st4{enable-background:new    ;}
	.st5{fill:#878787;}
	.st6{fill:#575756;}
	.st7{fill:#B2B2B2;}
	.st8{fill:#7FC7EB;}
	.st9{fill:#9D9D9C;}
	.st10{opacity:0.8;enable-background:new    ;}
	.st11{fill:#7DB728;}
	.st12{fill:#FFFFFF;}
	.st13{fill:#7DB728;stroke:#575756;stroke-width:0.174;stroke-miterlimit:10;}
	.st14{fill:none;stroke:#575756;stroke-width:0.174;stroke-linecap:round;stroke-linejoin:round;stroke-miterlimit:10;}
	.st15{fill:none;stroke:#575756;stroke-width:0.174;stroke-miterlimit:10;}
	.st16{fill:none;stroke:#575756;stroke-width:0.522;stroke-miterlimit:10;}
</style>
<g id="_x3C_Groupe_x3E__botte">
	<rect x="75.6" y="46.8" class="st0" width="37.7" height="12.1"/>
	<path class="st1" d="M52.1,58.6H18v-58h57.8v58H59.2c0,0-5.3,9.7-14.1,11.5C45.1,70.1,50.4,66.6,52.1,58.6z"/>
	<path class="st2" d="M46.8,54.6c0,0,6,3.1,13.9,0"/>
	<path class="st3" d="M33.7,54.6c0,0,5.3,2.6,10.9,0"/>
	<g class="st4">
		<path class="st5" d="M64.26,63.537v0.4h-1.447v0.601c0,0.249,0.002,0.468,0.006,0.657c0.003,0.189,0.014,0.333,0.032,0.432h-0.549    c0.019-0.1,0.028-0.244,0.032-0.434s0.005-0.408,0.005-0.655v-1.814c0-0.112-0.001-0.215-0.003-0.31    c-0.004-0.094-0.007-0.178-0.012-0.254c-0.006-0.074-0.013-0.137-0.022-0.188h2.171v0.413h-1.66v1.151H64.26z"/>
		<path class="st5" d="M65.008,64.363c0-0.215,0.033-0.406,0.098-0.572c0.065-0.166,0.152-0.307,0.262-0.42    c0.11-0.115,0.238-0.201,0.385-0.26s0.302-0.088,0.467-0.088c0.172,0,0.328,0.029,0.471,0.088c0.142,0.059,0.264,0.145,0.366,0.26    c0.103,0.113,0.182,0.254,0.238,0.42s0.085,0.357,0.085,0.572s-0.033,0.405-0.098,0.57s-0.152,0.304-0.262,0.416    c-0.109,0.111-0.238,0.195-0.385,0.254c-0.146,0.057-0.301,0.086-0.467,0.086c-0.17,0-0.327-0.029-0.47-0.086    c-0.142-0.059-0.265-0.143-0.366-0.254c-0.103-0.112-0.182-0.251-0.238-0.416S65.008,64.578,65.008,64.363z M65.471,64.363    c0,0.145,0.018,0.275,0.052,0.391c0.035,0.115,0.085,0.212,0.148,0.291c0.063,0.08,0.14,0.141,0.229,0.182    c0.088,0.041,0.187,0.063,0.294,0.063c0.1,0,0.193-0.021,0.282-0.063s0.165-0.102,0.231-0.182    c0.064-0.079,0.117-0.176,0.154-0.291s0.056-0.246,0.056-0.391c0-0.146-0.017-0.278-0.052-0.395    c-0.035-0.115-0.085-0.215-0.148-0.295c-0.064-0.081-0.141-0.143-0.23-0.186c-0.088-0.043-0.186-0.064-0.293-0.064    c-0.102,0-0.195,0.021-0.284,0.064s-0.165,0.104-0.229,0.186c-0.064,0.08-0.116,0.18-0.153,0.295    C65.488,64.085,65.471,64.217,65.471,64.363z"/>
		<path class="st5" d="M68.002,65.627v-1.539c0-0.247-0.014-0.456-0.041-0.627c-0.027-0.172-0.055-0.3-0.083-0.387h0.448    c0.021,0.047,0.039,0.105,0.055,0.176c0.016,0.071,0.029,0.15,0.039,0.237c0.012,0.087,0.02,0.179,0.023,0.277    c0.006,0.099,0.008,0.198,0.008,0.298v0.163c0.086-0.235,0.168-0.431,0.25-0.585s0.162-0.277,0.243-0.369s0.161-0.156,0.243-0.192    s0.164-0.056,0.25-0.056c0.063,0,0.121,0.006,0.174,0.018c0.054,0.012,0.107,0.031,0.162,0.059l-0.074,0.463    c-0.049-0.021-0.091-0.033-0.127-0.041c-0.037-0.006-0.082-0.01-0.135-0.01c-0.068,0-0.141,0.029-0.215,0.087    c-0.075,0.058-0.148,0.134-0.221,0.229c-0.072,0.094-0.141,0.202-0.206,0.322s-0.122,0.243-0.171,0.369s-0.088,0.249-0.117,0.369    s-0.044,0.227-0.044,0.32c0,0.041,0.001,0.08,0.001,0.115c0.002,0.035,0.004,0.068,0.008,0.102    c0.004,0.032,0.01,0.064,0.016,0.098c0.008,0.032,0.016,0.066,0.025,0.104H68.002z"/>
		<path class="st5" d="M71.371,63.023c0.166,0,0.31,0.02,0.43,0.06c0.121,0.039,0.227,0.091,0.318,0.153l-0.087,0.451    c-0.113-0.084-0.226-0.146-0.337-0.188c-0.111-0.042-0.232-0.063-0.361-0.063c-0.111,0-0.215,0.021-0.311,0.063    s-0.18,0.104-0.25,0.184s-0.126,0.179-0.166,0.296s-0.061,0.248-0.061,0.395c0,0.136,0.02,0.258,0.056,0.369    c0.036,0.109,0.089,0.204,0.157,0.283c0.068,0.08,0.15,0.141,0.247,0.184c0.097,0.044,0.205,0.065,0.327,0.065    c0.15,0,0.288-0.026,0.411-0.077c0.123-0.052,0.239-0.126,0.349-0.223l0.051,0.438c-0.063,0.049-0.126,0.09-0.188,0.124    s-0.128,0.063-0.196,0.085s-0.141,0.039-0.219,0.051c-0.078,0.01-0.164,0.016-0.258,0.016c-0.168,0-0.324-0.029-0.471-0.089    s-0.275-0.145-0.385-0.257c-0.109-0.111-0.196-0.246-0.26-0.405c-0.063-0.158-0.095-0.338-0.095-0.538    c0-0.188,0.03-0.366,0.091-0.533c0.061-0.166,0.147-0.313,0.26-0.438s0.249-0.225,0.409-0.297    C70.994,63.061,71.173,63.023,71.371,63.023z"/>
		<path class="st5" d="M73.816,63.023c0.136,0,0.256,0.018,0.361,0.049c0.105,0.033,0.195,0.078,0.271,0.136    c0.077,0.058,0.141,0.124,0.192,0.202c0.052,0.076,0.093,0.158,0.124,0.247c0.03,0.089,0.053,0.181,0.066,0.276    c0.013,0.096,0.02,0.191,0.02,0.284v0.098c0,0.042-0.001,0.074-0.002,0.098h-1.77c0.005,0.147,0.027,0.274,0.068,0.383    s0.097,0.198,0.168,0.269c0.07,0.072,0.153,0.125,0.249,0.16c0.095,0.035,0.2,0.052,0.313,0.052c0.16,0,0.318-0.019,0.474-0.055    s0.309-0.103,0.462-0.195l0.049,0.413c-0.088,0.045-0.174,0.083-0.259,0.115c-0.085,0.031-0.17,0.057-0.255,0.077    c-0.084,0.021-0.17,0.034-0.258,0.044s-0.18,0.014-0.275,0.014c-0.16,0-0.313-0.027-0.457-0.084    c-0.145-0.056-0.271-0.139-0.382-0.248s-0.196-0.244-0.262-0.406s-0.098-0.35-0.098-0.563c0-0.207,0.028-0.395,0.084-0.563    s0.135-0.311,0.238-0.431c0.103-0.119,0.229-0.211,0.376-0.274C73.465,63.057,73.631,63.023,73.816,63.023z M73.778,63.399    c-0.183,0-0.333,0.054-0.448,0.161c-0.117,0.107-0.193,0.275-0.23,0.502h1.303c0-0.106-0.016-0.201-0.047-0.283    c-0.03-0.083-0.073-0.152-0.129-0.209s-0.122-0.1-0.199-0.129C73.951,63.414,73.868,63.399,73.778,63.399z"/>
	</g>
	<g class="st4">
		<path class="st5" d="M64.881,70.55l-0.307-0.362c0.258-0.164,0.483-0.362,0.676-0.596c0.193-0.232,0.322-0.471,0.387-0.717    c-0.157,0.1-0.343,0.148-0.556,0.148c-0.267,0-0.495-0.1-0.685-0.299c-0.191-0.197-0.286-0.437-0.286-0.715    c0-0.291,0.102-0.537,0.305-0.738c0.202-0.202,0.45-0.303,0.743-0.303c0.33,0,0.6,0.119,0.809,0.357s0.314,0.545,0.314,0.918    c0,0.424-0.131,0.854-0.395,1.285C65.624,69.963,65.289,70.303,64.881,70.55z M65.734,68.377c0.02-0.133,0.03-0.22,0.03-0.26    c0-0.202-0.056-0.367-0.169-0.496c-0.111-0.128-0.256-0.192-0.433-0.192c-0.161,0-0.294,0.055-0.4,0.164    c-0.105,0.109-0.158,0.247-0.158,0.411c0,0.152,0.058,0.283,0.172,0.394s0.253,0.165,0.412,0.165    C65.375,68.563,65.557,68.501,65.734,68.377z"/>
		<path class="st5" d="M67.436,70.55l-0.307-0.362c0.258-0.164,0.483-0.362,0.676-0.596c0.193-0.232,0.322-0.471,0.387-0.717    c-0.157,0.1-0.343,0.148-0.556,0.148c-0.267,0-0.495-0.1-0.685-0.299c-0.191-0.197-0.286-0.437-0.286-0.715    c0-0.291,0.102-0.537,0.305-0.738c0.202-0.202,0.45-0.303,0.743-0.303c0.33,0,0.6,0.119,0.809,0.357s0.314,0.545,0.314,0.918    c0,0.424-0.131,0.854-0.395,1.285C68.179,69.963,67.844,70.303,67.436,70.55z M68.289,68.377c0.02-0.133,0.03-0.22,0.03-0.26    c0-0.202-0.056-0.367-0.169-0.496c-0.111-0.128-0.256-0.192-0.433-0.192c-0.161,0-0.294,0.055-0.4,0.164    c-0.105,0.109-0.158,0.247-0.158,0.411c0,0.152,0.058,0.283,0.172,0.394s0.253,0.165,0.412,0.165    C67.93,68.563,68.111,68.501,68.289,68.377z"/>
		<path class="st5" d="M71.358,66.973c0.214,0,0.397,0.078,0.549,0.23c0.151,0.154,0.228,0.338,0.228,0.554    c0,0.214-0.076,0.397-0.229,0.55c-0.152,0.154-0.335,0.23-0.548,0.23s-0.396-0.076-0.548-0.23    c-0.152-0.152-0.229-0.336-0.229-0.55c0-0.216,0.076-0.399,0.228-0.554C70.961,67.051,71.144,66.973,71.358,66.973z     M73.123,66.963h0.386l-2.292,3.587h-0.385L73.123,66.963z M71.352,67.354c-0.111,0-0.205,0.039-0.284,0.119    c-0.079,0.078-0.118,0.174-0.118,0.285c0,0.109,0.039,0.204,0.119,0.282s0.174,0.117,0.283,0.117c0.111,0,0.207-0.039,0.285-0.117    s0.118-0.173,0.118-0.282c0-0.113-0.039-0.209-0.116-0.287C71.561,67.393,71.465,67.354,71.352,67.354z M73.004,68.988    c0.213,0,0.395,0.076,0.548,0.229s0.229,0.336,0.229,0.55s-0.076,0.396-0.229,0.544c-0.152,0.149-0.335,0.225-0.549,0.225    c-0.216,0-0.4-0.075-0.552-0.225c-0.152-0.148-0.228-0.33-0.228-0.544c0-0.216,0.076-0.399,0.229-0.551    S72.789,68.988,73.004,68.988z M72.998,69.369c-0.109,0-0.202,0.039-0.279,0.117s-0.115,0.172-0.115,0.281    c0,0.111,0.038,0.207,0.115,0.285c0.077,0.08,0.17,0.119,0.279,0.119c0.113,0,0.209-0.039,0.287-0.117s0.117-0.174,0.117-0.287    c0-0.111-0.039-0.205-0.117-0.283C73.207,69.407,73.111,69.369,72.998,69.369z"/>
	</g>
	<g class="st4">
		<path class="st6" d="M39.812,38.828V18.049c0-0.75-0.009-1.502-0.026-2.257s-0.044-1.475-0.079-2.16    c-0.035-0.685-0.088-1.273-0.158-1.766h3.502v13.613c0.409-0.539,0.852-1.036,1.331-1.493c0.479-0.457,0.995-0.854,1.55-1.194    c0.554-0.339,1.153-0.606,1.795-0.799c0.642-0.193,1.331-0.29,2.066-0.29c0.887,0,1.699,0.217,2.434,0.65s1.372,1.039,1.909,1.818    c0.537,0.779,0.954,1.707,1.252,2.784c0.298,1.077,0.446,2.254,0.446,3.53c0,1.511-0.201,2.875-0.604,4.093    s-0.972,2.26-1.707,3.126c-0.735,0.866-1.626,1.534-2.67,2.002c-1.045,0.468-2.215,0.702-3.511,0.702    c-0.712,0-1.401-0.049-2.066-0.148c-0.665-0.1-1.311-0.229-1.935-0.387c-0.625-0.158-1.229-0.328-1.813-0.51    C40.944,39.182,40.372,39.004,39.812,38.828z M47.341,37.687c0.771,0,1.482-0.158,2.136-0.475    c0.654-0.316,1.217-0.761,1.689-1.335c0.473-0.573,0.843-1.267,1.112-2.081c0.268-0.814,0.402-1.713,0.402-2.696    c0-0.972-0.087-1.85-0.263-2.635c-0.175-0.784-0.429-1.449-0.761-1.994c-0.333-0.544-0.745-0.963-1.235-1.256    c-0.49-0.292-1.05-0.439-1.681-0.439c-0.549,0-1.098,0.12-1.646,0.36c-0.549,0.24-1.071,0.577-1.567,1.01s-0.96,0.952-1.392,1.554    c-0.432,0.604-0.794,1.268-1.085,1.994v7.026c0.432,0.176,0.826,0.325,1.182,0.448c0.356,0.123,0.703,0.223,1.042,0.299    s0.674,0.132,1.007,0.167C46.615,37.669,46.967,37.687,47.341,37.687z"/>
	</g>
	<g class="st4">
		<path class="st6" d="M23.826,15.171c0,0.269,0.019,0.526,0.055,0.771c0.03,0.25,0.091,0.443,0.183,0.578    c0.128,0.22,0.339,0.33,0.631,0.33c0.269,0,0.527-0.134,0.778-0.404c0.25-0.263,0.415-0.618,0.494-1.064    c-0.292-0.177-0.512-0.346-0.659-0.505c-0.207-0.208-0.338-0.422-0.393-0.642c-0.024-0.055-0.037-0.135-0.037-0.239    c0-0.153,0.037-0.284,0.11-0.395c0.091-0.134,0.244-0.202,0.457-0.202c0.134,0,0.269,0.03,0.403,0.092    c0.097,0.073,0.177,0.168,0.238,0.284c0.055,0.11,0.104,0.254,0.146,0.431c0.037,0.178,0.055,0.355,0.055,0.533    c0,0.055-0.006,0.144-0.018,0.266c0,0.03-0.003,0.055-0.009,0.073c0,0.012-0.001,0.023-0.004,0.032    c-0.003,0.009-0.005,0.017-0.005,0.023c0,0.018,0,0.034,0,0.046s0,0.024,0,0.037c0.171,0.128,0.342,0.193,0.512,0.193    c0.092,0,0.146-0.028,0.165-0.083l0.146,0.285c-0.109,0.073-0.216,0.11-0.32,0.11c-0.073,0-0.156-0.019-0.247-0.055    c-0.104-0.037-0.208-0.095-0.311-0.174c-0.122,0.642-0.394,1.104-0.814,1.386c-0.311,0.202-0.686,0.306-1.125,0.312    c-0.5,0-0.848-0.22-1.043-0.661c-0.091-0.171-0.152-0.388-0.183-0.651c-0.037-0.257-0.055-0.492-0.055-0.707V7.417    c0-0.863,0.11-1.575,0.329-2.138c0.281-0.728,0.744-1.092,1.391-1.092c0.39,0,0.668,0.15,0.833,0.45    c0.171,0.331,0.256,0.802,0.256,1.413c0,0.563-0.058,1.156-0.174,1.781c-0.085,0.422-0.195,0.89-0.33,1.404l-0.045,0.138    c-0.013,0.031-0.023,0.061-0.032,0.092s-0.02,0.064-0.032,0.101c-0.018,0.049-0.042,0.118-0.073,0.206    c-0.03,0.089-0.064,0.201-0.101,0.335c-0.049,0.129-0.094,0.254-0.137,0.376c-0.042,0.123-0.085,0.245-0.128,0.367    c-0.042,0.128-0.087,0.252-0.133,0.372c-0.045,0.119-0.087,0.237-0.124,0.354c-0.159,0.458-0.292,0.849-0.402,1.17    s-0.192,0.573-0.247,0.757V15.171z M23.826,12.666c0.024-0.08,0.05-0.162,0.078-0.248c0.028-0.086,0.057-0.171,0.087-0.257    c0.055-0.171,0.11-0.336,0.165-0.496c0.024-0.079,0.052-0.159,0.082-0.238c0.031-0.08,0.058-0.156,0.083-0.229    s0.05-0.148,0.078-0.225c0.027-0.077,0.053-0.152,0.078-0.225c0.403-1.138,0.622-1.771,0.659-1.899    c0.08-0.336,0.159-0.725,0.238-1.166c0.048-0.343,0.082-0.581,0.101-0.716c0.03-0.232,0.058-0.477,0.082-0.734    c0.012-0.11,0.019-0.187,0.019-0.229c0-0.055,0.001-0.095,0.004-0.119s0.004-0.246,0.004-0.665c0-0.419-0.296-0.629-0.887-0.629    c-0.384,0-0.64,0.358-0.769,1.074c-0.067,0.428-0.101,0.979-0.101,1.652V12.666z M26.031,15.08    c0.012-0.147,0.018-0.214,0.018-0.202c0-0.006,0-0.012,0-0.018s0-0.015,0-0.028c0-0.018,0-0.033,0-0.045c0-0.019,0-0.031,0-0.037    c0-0.012,0-0.021,0-0.027c0-0.239-0.04-0.483-0.119-0.734c-0.091-0.22-0.198-0.33-0.32-0.33c-0.043,0-0.073,0.009-0.092,0.027    c-0.085,0.062-0.128,0.174-0.128,0.34c0,0.183,0.067,0.376,0.201,0.578c0.128,0.214,0.271,0.373,0.43,0.477H26.031z"/>
	</g>
	<g class="st4">
		<path class="st6" d="M70.02,10.047c0,0.245-0.039,0.473-0.118,0.684c-0.079,0.211-0.206,0.396-0.378,0.551    c-0.174,0.156-0.396,0.279-0.669,0.368s-0.602,0.133-0.987,0.133c-0.207,0-0.416-0.002-0.627-0.006    c-0.211-0.004-0.402-0.009-0.577-0.014c-0.204-0.005-0.399-0.012-0.588-0.02c0.017-0.081,0.028-0.185,0.036-0.311    s0.014-0.269,0.018-0.428c0.005-0.159,0.007-0.331,0.007-0.517V7.128c0-0.188-0.002-0.364-0.007-0.527    c-0.004-0.163-0.01-0.309-0.018-0.438c-0.008-0.129-0.02-0.234-0.036-0.315c0.089-0.005,0.198-0.011,0.33-0.017    c0.132-0.005,0.276-0.01,0.433-0.014c0.157-0.004,0.322-0.007,0.495-0.008s0.345-0.002,0.513-0.002    c0.299,0,0.564,0.024,0.798,0.073c0.233,0.048,0.429,0.128,0.587,0.238s0.279,0.255,0.363,0.436    c0.082,0.18,0.125,0.402,0.125,0.666c0,0.169-0.026,0.322-0.077,0.458c-0.051,0.136-0.122,0.257-0.212,0.363    s-0.193,0.199-0.313,0.276c-0.119,0.078-0.247,0.143-0.384,0.194c0.155,0.041,0.31,0.097,0.463,0.168    c0.152,0.071,0.29,0.166,0.412,0.285c0.122,0.118,0.221,0.266,0.298,0.442S70.02,9.797,70.02,10.047z M66.9,8.291h0.785    c0.215,0,0.4-0.023,0.557-0.069c0.158-0.046,0.287-0.11,0.389-0.194c0.103-0.083,0.178-0.184,0.229-0.301    c0.049-0.117,0.074-0.246,0.074-0.386c0-0.15-0.021-0.283-0.063-0.396c-0.042-0.113-0.107-0.208-0.197-0.285    s-0.207-0.134-0.351-0.172c-0.144-0.038-0.315-0.056-0.517-0.056c-0.078,0-0.162,0-0.25,0.002    c-0.089,0.001-0.175,0.003-0.258,0.006c-0.083,0.003-0.16,0.005-0.229,0.006C67,6.449,66.943,6.451,66.9,6.454V8.291z     M66.9,11.117c0.037,0.003,0.088,0.005,0.152,0.008c0.064,0.002,0.141,0.004,0.227,0.006s0.18,0.003,0.283,0.004    c0.104,0.001,0.211,0.002,0.324,0.002c0.172,0,0.339-0.018,0.501-0.053c0.163-0.035,0.306-0.094,0.431-0.178    s0.226-0.195,0.303-0.335c0.076-0.14,0.113-0.315,0.113-0.525c0-0.374-0.113-0.656-0.34-0.846    c-0.227-0.189-0.576-0.285-1.049-0.285H66.9V11.117z"/>
	</g>
	<g class="st4">
		<path class="st7" d="M85.706,54.164c0,0.42,0.023,0.773,0.071,1.06s0.107,0.522,0.178,0.709h-0.599    c-0.024-0.058-0.054-0.144-0.088-0.259c-0.034-0.114-0.066-0.234-0.095-0.358c-0.16,0.227-0.341,0.4-0.543,0.521    c-0.201,0.12-0.426,0.18-0.672,0.18c-0.203,0-0.387-0.038-0.551-0.115c-0.162-0.076-0.303-0.186-0.418-0.326    c-0.117-0.142-0.207-0.313-0.269-0.511c-0.062-0.199-0.093-0.421-0.093-0.666c0-0.296,0.04-0.563,0.121-0.801    c0.081-0.237,0.192-0.44,0.334-0.608c0.143-0.168,0.309-0.299,0.501-0.389c0.192-0.092,0.399-0.138,0.624-0.138    c0.07,0,0.145,0.008,0.221,0.023s0.153,0.036,0.23,0.063c0.076,0.027,0.15,0.057,0.225,0.092c0.072,0.035,0.141,0.069,0.205,0.105    v-0.935c0-0.27-0.006-0.505-0.018-0.706s-0.034-0.372-0.064-0.512h0.698V54.164z M84.209,53.029c-0.127,0-0.248,0.029-0.363,0.087    s-0.217,0.142-0.307,0.25c-0.09,0.109-0.162,0.242-0.215,0.399c-0.054,0.156-0.08,0.334-0.08,0.531    c0,0.391,0.066,0.685,0.197,0.885c0.133,0.2,0.344,0.301,0.635,0.301c0.102,0,0.203-0.025,0.304-0.077s0.196-0.118,0.286-0.2    s0.172-0.176,0.244-0.281c0.074-0.106,0.134-0.215,0.18-0.326v-1.318c-0.082-0.044-0.158-0.082-0.229-0.113    c-0.071-0.031-0.142-0.057-0.21-0.076c-0.069-0.021-0.139-0.035-0.21-0.045C84.371,53.034,84.293,53.029,84.209,53.029z"/>
		<path class="st7" d="M86.754,55.933v-2.052c0-0.33-0.018-0.608-0.055-0.836c-0.037-0.229-0.074-0.4-0.111-0.516h0.599    c0.026,0.063,0.05,0.141,0.071,0.234c0.021,0.096,0.039,0.2,0.053,0.316c0.016,0.115,0.025,0.238,0.032,0.369    c0.007,0.132,0.01,0.264,0.01,0.398v0.217c0.113-0.314,0.224-0.574,0.333-0.779c0.108-0.206,0.217-0.37,0.324-0.492    c0.107-0.123,0.216-0.209,0.324-0.258c0.109-0.049,0.22-0.073,0.333-0.073c0.084,0,0.161,0.008,0.232,0.023    s0.144,0.042,0.216,0.077l-0.1,0.617c-0.064-0.027-0.121-0.045-0.17-0.054c-0.048-0.009-0.107-0.013-0.179-0.013    c-0.091,0-0.187,0.038-0.286,0.115c-0.1,0.076-0.198,0.178-0.295,0.305c-0.096,0.127-0.188,0.271-0.273,0.431    c-0.088,0.16-0.163,0.324-0.229,0.492s-0.117,0.332-0.156,0.492s-0.059,0.303-0.059,0.427c0,0.057,0.001,0.107,0.002,0.154    s0.004,0.092,0.01,0.135s0.013,0.087,0.021,0.13c0.01,0.044,0.02,0.09,0.033,0.139H86.754z"/>
		<path class="st7" d="M89.715,51.444c0-0.063,0.01-0.12,0.029-0.175s0.049-0.103,0.085-0.145c0.036-0.041,0.081-0.072,0.132-0.096    s0.107-0.035,0.17-0.035c0.062,0,0.119,0.012,0.172,0.035c0.054,0.023,0.1,0.055,0.137,0.096c0.037,0.042,0.068,0.09,0.09,0.145    c0.022,0.055,0.033,0.112,0.033,0.175c0,0.062-0.011,0.12-0.033,0.175c-0.021,0.055-0.053,0.103-0.09,0.145    c-0.037,0.041-0.083,0.072-0.137,0.096c-0.053,0.023-0.11,0.035-0.172,0.035c-0.063,0-0.119-0.012-0.17-0.035    s-0.096-0.055-0.132-0.096c-0.036-0.042-0.065-0.09-0.085-0.145S89.715,51.506,89.715,51.444z M90.446,54.348    c0,0.106,0.001,0.232,0.005,0.379c0.004,0.146,0.008,0.293,0.014,0.441c0.006,0.149,0.012,0.292,0.02,0.428    s0.018,0.248,0.028,0.337H89.83v-1.769c0-0.162,0-0.322-0.001-0.48s-0.003-0.308-0.007-0.449    c-0.003-0.141-0.008-0.272-0.015-0.394s-0.016-0.226-0.026-0.312h0.665V54.348z"/>
	</g>
	<g class="st4">
		<path class="st8" d="M91.655,55.662v-4.936c0-0.178-0.002-0.356-0.007-0.535c-0.004-0.18-0.01-0.352-0.018-0.514    c-0.009-0.162-0.021-0.303-0.038-0.419h0.831v3.232c0.098-0.128,0.203-0.246,0.316-0.354s0.236-0.203,0.368-0.283    c0.132-0.081,0.274-0.145,0.427-0.19s0.315-0.069,0.49-0.069c0.211,0,0.403,0.053,0.578,0.155s0.326,0.247,0.453,0.432    s0.227,0.405,0.297,0.661c0.071,0.256,0.106,0.535,0.106,0.838c0,0.359-0.048,0.684-0.144,0.973s-0.23,0.537-0.405,0.742    c-0.175,0.206-0.386,0.364-0.634,0.476s-0.526,0.167-0.834,0.167c-0.169,0-0.332-0.012-0.49-0.035s-0.312-0.055-0.46-0.092    c-0.148-0.038-0.292-0.078-0.431-0.121S91.788,55.703,91.655,55.662z M93.443,55.391c0.184,0,0.352-0.037,0.508-0.113    c0.154-0.074,0.289-0.18,0.4-0.316c0.113-0.137,0.201-0.301,0.264-0.494c0.064-0.193,0.096-0.407,0.096-0.641    c0-0.23-0.02-0.439-0.062-0.626s-0.103-0.344-0.181-0.474c-0.08-0.129-0.178-0.229-0.293-0.298c-0.117-0.069-0.25-0.104-0.4-0.104    c-0.13,0-0.26,0.029-0.391,0.086c-0.13,0.057-0.254,0.137-0.372,0.24c-0.118,0.103-0.228,0.226-0.331,0.369    c-0.102,0.143-0.188,0.301-0.258,0.473v1.669c0.104,0.042,0.197,0.077,0.281,0.106s0.167,0.053,0.248,0.07    c0.08,0.019,0.16,0.031,0.238,0.04C93.271,55.387,93.354,55.391,93.443,55.391z"/>
	</g>
	<g class="st4">
		<path class="st9" d="M96.44,55.662v-4.936c0-0.178-0.002-0.356-0.007-0.535c-0.004-0.18-0.01-0.352-0.018-0.514    c-0.009-0.162-0.021-0.303-0.038-0.419h0.831v3.232c0.098-0.128,0.203-0.246,0.316-0.354s0.236-0.203,0.368-0.283    c0.132-0.081,0.274-0.145,0.427-0.19s0.315-0.069,0.49-0.069c0.211,0,0.403,0.053,0.578,0.155s0.326,0.247,0.453,0.432    s0.227,0.405,0.297,0.661c0.071,0.256,0.106,0.535,0.106,0.838c0,0.359-0.048,0.684-0.144,0.973s-0.23,0.537-0.405,0.742    c-0.175,0.206-0.386,0.364-0.634,0.476s-0.526,0.167-0.834,0.167c-0.169,0-0.332-0.012-0.49-0.035s-0.312-0.055-0.46-0.092    c-0.148-0.038-0.292-0.078-0.431-0.121S96.573,55.703,96.44,55.662z M98.229,55.391c0.184,0,0.352-0.037,0.508-0.113    c0.154-0.074,0.289-0.18,0.4-0.316c0.113-0.137,0.201-0.301,0.264-0.494c0.064-0.193,0.096-0.407,0.096-0.641    c0-0.23-0.02-0.439-0.062-0.626s-0.103-0.344-0.181-0.474c-0.08-0.129-0.178-0.229-0.293-0.298c-0.117-0.069-0.25-0.104-0.4-0.104    c-0.13,0-0.26,0.029-0.391,0.086c-0.13,0.057-0.254,0.137-0.372,0.24c-0.118,0.103-0.228,0.226-0.331,0.369    c-0.102,0.143-0.188,0.301-0.258,0.473v1.669c0.104,0.042,0.197,0.077,0.281,0.106s0.167,0.053,0.248,0.07    c0.08,0.019,0.16,0.031,0.238,0.04C98.056,55.387,98.14,55.391,98.229,55.391z"/>
	</g>
	<g class="st4">
		<path class="st7" d="M101.97,54.348c0,0.106,0.001,0.232,0.005,0.377s0.008,0.291,0.014,0.44s0.012,0.292,0.02,0.427    c0.008,0.137,0.018,0.25,0.028,0.341h-0.683v-3.771c0-0.325-0.005-0.619-0.016-0.883c-0.012-0.264-0.027-0.492-0.051-0.686h0.683    V54.348z"/>
		<path class="st7" d="M104.515,52.462c0.182,0,0.343,0.022,0.481,0.065c0.141,0.043,0.262,0.104,0.363,0.18    c0.102,0.077,0.188,0.166,0.256,0.27c0.068,0.102,0.124,0.212,0.165,0.33c0.041,0.117,0.07,0.24,0.088,0.369    c0.019,0.127,0.026,0.254,0.026,0.378v0.13c0,0.057,0,0.1-0.003,0.131h-2.358c0.006,0.195,0.037,0.365,0.092,0.51    c0.054,0.145,0.128,0.265,0.223,0.359c0.094,0.094,0.205,0.165,0.332,0.212c0.128,0.046,0.268,0.069,0.418,0.069    c0.215,0,0.426-0.023,0.632-0.072s0.411-0.137,0.616-0.261l0.066,0.55c-0.118,0.061-0.233,0.111-0.347,0.154    c-0.112,0.042-0.226,0.076-0.339,0.104c-0.113,0.026-0.229,0.046-0.345,0.059c-0.116,0.012-0.239,0.018-0.367,0.018    c-0.213,0-0.416-0.037-0.608-0.111c-0.193-0.074-0.363-0.185-0.51-0.33c-0.146-0.146-0.263-0.326-0.35-0.543    c-0.086-0.215-0.129-0.466-0.129-0.75c0-0.276,0.037-0.525,0.111-0.75c0.074-0.223,0.18-0.414,0.317-0.574    c0.138-0.158,0.306-0.281,0.503-0.367C104.047,52.505,104.268,52.462,104.515,52.462z M104.465,52.963    c-0.244,0-0.443,0.071-0.6,0.215c-0.154,0.144-0.257,0.367-0.306,0.67h1.737c0-0.143-0.021-0.27-0.063-0.379    c-0.041-0.111-0.099-0.203-0.173-0.279s-0.162-0.133-0.265-0.17C104.695,52.981,104.584,52.963,104.465,52.963z"/>
	</g>
	<g class="st4">
		<path class="st6" d="M34.029,52.445v-7.404c0-0.268-0.003-0.535-0.009-0.805c-0.006-0.27-0.016-0.525-0.028-0.77    c-0.012-0.244-0.031-0.453-0.056-0.629h1.248v4.85c0.146-0.191,0.303-0.369,0.474-0.531c0.17-0.162,0.354-0.305,0.552-0.426    c0.197-0.121,0.411-0.216,0.639-0.285c0.229-0.068,0.475-0.103,0.736-0.103c0.316,0,0.605,0.077,0.867,0.231    c0.262,0.154,0.489,0.37,0.68,0.647c0.191,0.278,0.34,0.608,0.446,0.992s0.159,0.804,0.159,1.258c0,0.538-0.072,1.024-0.215,1.458    c-0.144,0.435-0.346,0.806-0.608,1.115c-0.262,0.309-0.579,0.546-0.952,0.713c-0.372,0.166-0.789,0.25-1.251,0.25    c-0.253,0-0.499-0.018-0.736-0.053c-0.237-0.035-0.467-0.082-0.689-0.138c-0.223-0.057-0.438-0.117-0.646-0.182    C34.433,52.57,34.229,52.508,34.029,52.445z M36.712,52.038c0.275,0,0.528-0.057,0.761-0.169c0.233-0.113,0.434-0.271,0.602-0.477    c0.168-0.203,0.301-0.451,0.396-0.74c0.096-0.291,0.144-0.611,0.144-0.961c0-0.347-0.031-0.66-0.094-0.939    s-0.153-0.516-0.271-0.71s-0.265-0.343-0.44-0.448c-0.175-0.104-0.374-0.156-0.599-0.156c-0.196,0-0.391,0.043-0.587,0.129    c-0.195,0.086-0.381,0.205-0.558,0.359s-0.342,0.34-0.496,0.555s-0.283,0.451-0.387,0.71v2.503    c0.154,0.063,0.294,0.116,0.421,0.16c0.127,0.043,0.25,0.079,0.372,0.105c0.121,0.027,0.24,0.048,0.358,0.061    C36.453,52.031,36.579,52.038,36.712,52.038z"/>
	</g>
	<g class="st4">
		<path class="st7" d="M40.581,50.303c0-0.434,0.065-0.818,0.196-1.153s0.307-0.618,0.528-0.849c0.221-0.23,0.479-0.404,0.775-0.521    c0.295-0.118,0.609-0.177,0.941-0.177c0.345,0,0.662,0.059,0.948,0.177c0.287,0.117,0.534,0.291,0.74,0.521    c0.207,0.23,0.367,0.514,0.48,0.849c0.114,0.335,0.171,0.72,0.171,1.153s-0.065,0.817-0.196,1.15    c-0.131,0.334-0.307,0.613-0.528,0.838c-0.222,0.226-0.48,0.396-0.775,0.513c-0.295,0.116-0.609,0.174-0.941,0.174    c-0.346,0-0.662-0.058-0.949-0.174c-0.287-0.116-0.533-0.287-0.74-0.513c-0.206-0.225-0.366-0.504-0.48-0.838    C40.638,51.12,40.581,50.736,40.581,50.303z M41.512,50.303c0,0.293,0.035,0.555,0.106,0.787c0.07,0.232,0.17,0.428,0.299,0.588    c0.129,0.16,0.283,0.282,0.46,0.366s0.375,0.126,0.594,0.126c0.201,0,0.391-0.042,0.568-0.126s0.333-0.206,0.465-0.366    c0.133-0.16,0.237-0.355,0.312-0.588c0.076-0.232,0.113-0.494,0.113-0.787c0-0.296-0.035-0.561-0.105-0.795    s-0.17-0.433-0.299-0.596c-0.129-0.163-0.284-0.287-0.463-0.373c-0.18-0.086-0.377-0.129-0.591-0.129    c-0.205,0-0.396,0.043-0.574,0.129s-0.332,0.21-0.463,0.373s-0.234,0.361-0.31,0.596C41.55,49.742,41.512,50.007,41.512,50.303z"/>
	</g>
	<g class="st10">
		<path class="st11" d="M46.933,47.83h1.006v-1.641h0.931v1.641h1.635v0.731h-1.635v2.321c0,0.26,0.012,0.471,0.038,0.637    c0.025,0.164,0.063,0.293,0.116,0.386c0.052,0.093,0.118,0.155,0.199,0.188c0.081,0.034,0.178,0.051,0.292,0.051    c0.144,0,0.307-0.031,0.488-0.096c0.181-0.063,0.382-0.158,0.604-0.282v0.808c-0.231,0.151-0.453,0.256-0.665,0.315    c-0.211,0.059-0.406,0.088-0.583,0.088c-0.198,0-0.382-0.022-0.553-0.067c-0.171-0.046-0.321-0.126-0.451-0.24    c-0.129-0.114-0.23-0.267-0.304-0.457c-0.074-0.189-0.111-0.432-0.111-0.725v-2.927h-1.006V47.83z"/>
	</g>
	<g class="st4">
		<path class="st7" d="M51.021,47.83h1.006v-1.641h0.931v1.641h1.635v0.731h-1.635v2.321c0,0.26,0.012,0.471,0.038,0.637    c0.025,0.164,0.063,0.293,0.116,0.386c0.052,0.093,0.118,0.155,0.199,0.188c0.081,0.034,0.178,0.051,0.292,0.051    c0.144,0,0.307-0.031,0.488-0.096c0.181-0.063,0.382-0.158,0.604-0.282v0.808c-0.231,0.151-0.453,0.256-0.665,0.315    c-0.211,0.059-0.406,0.088-0.583,0.088c-0.198,0-0.382-0.022-0.553-0.067c-0.171-0.046-0.321-0.126-0.451-0.24    c-0.129-0.114-0.23-0.267-0.304-0.457c-0.074-0.189-0.111-0.432-0.111-0.725v-2.927h-1.006V47.83z"/>
	</g>
	<g class="st4">
		<path class="st7" d="M57.85,47.603c0.275,0,0.519,0.032,0.73,0.099c0.211,0.065,0.395,0.156,0.549,0.271    c0.154,0.117,0.283,0.252,0.387,0.407s0.188,0.321,0.249,0.499c0.062,0.179,0.106,0.365,0.134,0.559    c0.026,0.193,0.04,0.384,0.04,0.572v0.197c0,0.084-0.002,0.149-0.005,0.197h-3.568c0.01,0.295,0.056,0.553,0.139,0.771    c0.082,0.219,0.194,0.4,0.337,0.543s0.311,0.25,0.503,0.32s0.403,0.105,0.631,0.105c0.325,0,0.644-0.037,0.956-0.111    c0.313-0.073,0.623-0.205,0.932-0.393l0.1,0.832c-0.178,0.092-0.352,0.168-0.522,0.232s-0.343,0.116-0.513,0.156    c-0.172,0.041-0.346,0.07-0.521,0.089s-0.361,0.027-0.556,0.027c-0.322,0-0.629-0.056-0.92-0.169    c-0.292-0.113-0.549-0.279-0.77-0.5c-0.222-0.22-0.397-0.493-0.528-0.82c-0.131-0.326-0.196-0.705-0.196-1.135    c0-0.418,0.056-0.795,0.168-1.133c0.112-0.339,0.272-0.629,0.48-0.869s0.461-0.426,0.76-0.555    C57.143,47.667,57.478,47.603,57.85,47.603z M57.775,48.359c-0.369,0-0.671,0.108-0.906,0.326    c-0.235,0.217-0.389,0.554-0.463,1.012h2.627c0-0.215-0.031-0.406-0.094-0.573s-0.148-0.308-0.262-0.421    c-0.112-0.115-0.246-0.201-0.4-0.258S57.956,48.359,57.775,48.359z"/>
	</g>
	<g class="st4">
		<path class="st5" d="M22.45,62.749h1.434v0.163h-0.605c-0.132,0-0.222,0.043-0.27,0.127c-0.027,0.047-0.04,0.107-0.04,0.184v4.596    c0,0.101,0.015,0.176,0.043,0.227c0.05,0.086,0.146,0.13,0.29,0.13h0.582v0.173H22.45V62.749z"/>
		<path class="st5" d="M25.957,67.004c-0.08-0.049-0.186-0.129-0.318-0.244c-0.031-0.037-0.055-0.088-0.071-0.152    c-0.009-0.033-0.014-0.119-0.014-0.26v-3.69c0-0.262-0.074-0.41-0.221-0.446c-0.062-0.01-0.124-0.02-0.186-0.029    c-0.097-0.02-0.145-0.04-0.145-0.063c0-0.013,0.173-0.063,0.519-0.15c0.033-0.008,0.119-0.04,0.258-0.097    c0.125-0.05,0.199-0.075,0.22-0.075c0.013,0.005,0.02,0.025,0.02,0.062c0,0.016-0.001,0.04-0.003,0.072s-0.003,0.057-0.003,0.072    v2.467c0,0.092,0.009,0.137,0.027,0.137c0.095-0.09,0.202-0.188,0.319-0.297c0.08-0.064,0.185-0.122,0.314-0.174    c0.136-0.053,0.288-0.078,0.456-0.076c0.275,0.004,0.529,0.078,0.762,0.221c0.229,0.14,0.409,0.333,0.541,0.58    c0.137,0.257,0.202,0.537,0.196,0.84c-0.005,0.338-0.093,0.635-0.263,0.893c-0.149,0.226-0.342,0.406-0.577,0.54    c-0.243,0.138-0.496,0.207-0.76,0.207C26.632,67.339,26.275,67.227,25.957,67.004z M27.788,64.775    c-0.177-0.281-0.458-0.424-0.843-0.424c-0.344,0-0.606,0.107-0.788,0.32c-0.088,0.104-0.131,0.22-0.131,0.352v1.441    c0,0.102,0.07,0.219,0.209,0.35c0.108,0.102,0.223,0.184,0.344,0.246c0.165,0.086,0.341,0.129,0.529,0.129    c0.174,0,0.34-0.042,0.498-0.124c0.358-0.187,0.537-0.547,0.537-1.079C28.143,65.555,28.024,65.152,27.788,64.775z"/>
		<path class="st5" d="M31.175,68.348h-1.437v-0.166h0.608c0.204,0,0.306-0.103,0.306-0.307v-4.6c0-0.235-0.11-0.354-0.329-0.354    h-0.585v-0.173h1.437V68.348z"/>
	</g>
	<path class="st12" d="M20.9,40.9c-0.1,1.7,0.5,2.8,0.6,4.2c0.1,1.1,0.2,1.4,0,2.5c-0.1,0.3-0.1,0.7-0.3,1c-0.2,0.5-1.4,0.5-2.9,0.7   c-1.6,0.2-8.2,0.6-9,0.6s-7.2-0.4-8.1-1.1c-0.6-0.5-0.5-0.8-0.5-1.7s0.3-2.3,0.8-2.6s9.2-0.9,9.7-1.2s0.5-0.3,0.6-0.8   s-1.4-13.7-1.4-13.3c0-0.4,0-0.7,0.1-0.9c0.2-0.2,3.5-0.6,6.7-0.5c3.4,0.1,6.7,0.6,6.7,1C23.8,28.9,21,39.3,20.9,40.9z"/>
	<path class="st13" d="M8.6,43.6v6.3c0.3,0,0.6,0,0.7,0c0.2,0,0.7,0,1.3,0v-6.5C10,43.5,9.2,43.5,8.6,43.6z"/>
	<path class="st14" d="M21.4,47.8c0,0-3,1-10.2,1.2c-7.1,0.1-10.6-1.1-10.6-1.2"/>
	<path class="st15" d="M23.6,29.5c-0.6,0.1-3.8,0.7-6.4,0.7s-6.6-0.8-6.9-1"/>
	<path class="st15" d="M17.1,29.7c-2.3,0-5.6-0.6-5.8-0.7c0,0-0.3-0.3-0.2-0.4c0.2-0.2,3-0.3,5.8-0.3c2.9,0.1,6,0.3,6,0.6   c0,0.1,0,0,0,0.2C22.9,29.1,19.4,29.7,17.1,29.7z"/>
	<path class="st16" d="M20.9,40.9c-0.1,1.7,0.5,2.8,0.6,4.2c0.1,1.1,0.2,1.4,0,2.5c-0.1,0.3-0.1,0.7-0.3,1c-0.2,0.5-1.4,0.5-2.9,0.7   c-1.6,0.2-8.2,0.6-9,0.6s-7.2-0.4-8.1-1.1c-0.6-0.5-0.5-0.8-0.5-1.7s0.3-2.3,0.8-2.6s9.2-0.9,9.7-1.2s0.5-0.3,0.6-0.8   s-1.4-13.7-1.4-13.3c0-0.4,0-0.7,0.1-0.9c0.2-0.2,3.5-0.6,6.7-0.5c3.4,0.1,6.7,0.6,6.7,1C23.8,28.9,21,39.3,20.9,40.9z"/>
</g>
</svg>