<?xml version="1.0" encoding="UTF-8"?>
<!-- Generator: Adobe Illustrator 24.0.2, SVG Export Plug-In . SVG Version: 6.00 Build 0)  -->
<svg version="1.1" id="Calque_1" xmlns="http://www.w3.org/2000/svg" xmlns:xlink="http://www.w3.org/1999/xlink" x="0px" y="0px" viewBox="0 0 110 70" style="enable-background:new 0 0 110 70;" xml:space="preserve">
<style type="text/css">
	.st0{fill:#FFFFFF;stroke:#DADADA;stroke-width:0.7253;stroke-miterlimit:10;}
	.st1{fill:#FFFFFF;stroke:#9D9D9C;stroke-width:0.7253;stroke-miterlimit:10;}
	.st2{fill:#FFFFFF;stroke:#000000;stroke-width:0.9671;stroke-miterlimit:10;}
	.st3{enable-background:new    ;}
	.st4{fill:#E11683;}
	.st5{fill:#706F6F;}
	.st6{fill:none;stroke:#B2B2B2;stroke-width:0.3627;stroke-miterlimit:10;}
	.st7{fill:#878787;}
	.st8{fill:#9D9D9C;}
	.st9{fill:#B2B2B2;}
	.st10{fill:#575756;}
	.st11{opacity:0.6;enable-background:new    ;}
	.st12{opacity:0.8;enable-background:new    ;}
	.st13{fill:#7DB728;}
	.st14{fill:#FFFFFF;}
	.st15{fill:#7DB728;stroke:#575756;stroke-width:0.522;stroke-linecap:round;stroke-linejoin:round;stroke-miterlimit:10;}
	.st16{fill:none;stroke:#575756;stroke-width:0.174;stroke-linecap:round;stroke-linejoin:round;stroke-miterlimit:10;}
	.st17{fill:#575756;stroke:#575756;stroke-width:0.174;stroke-linecap:round;stroke-linejoin:round;stroke-miterlimit:10;}
	.st18{fill:none;stroke:#575756;stroke-width:0.522;stroke-linecap:round;stroke-linejoin:round;stroke-miterlimit:10;}
</style>
<g id="_x3C_Groupe_x3E__chat">
	<rect x="71.8" y="45.1" class="st0" width="37.8" height="12.1"/>
	<rect x="71.8" y="12.4" class="st1" width="32.7" height="32.6"/>
	<path class="st2" d="M48.8,56.9H13.9V0.8h57.9v56.1H55.7c0,0-5.2,9.4-13.7,11.2C42,68.1,47.1,64.7,48.8,56.9z"/>
	<g class="st3">
		<path class="st4" d="M97.172,17.304c-0.09-0.05-0.174-0.092-0.249-0.126c-0.076-0.034-0.149-0.062-0.222-0.084    c-0.071-0.023-0.143-0.039-0.215-0.049c-0.072-0.01-0.147-0.015-0.228-0.015c-0.101,0-0.19,0.015-0.273,0.045    c-0.083,0.03-0.153,0.07-0.214,0.12c-0.061,0.05-0.106,0.107-0.139,0.172c-0.033,0.065-0.049,0.131-0.049,0.2    s0.01,0.13,0.029,0.186c0.019,0.056,0.057,0.108,0.115,0.157c0.059,0.049,0.143,0.098,0.25,0.145    c0.109,0.047,0.252,0.097,0.43,0.148c0.166,0.048,0.313,0.104,0.439,0.169c0.127,0.064,0.234,0.138,0.321,0.221    c0.087,0.083,0.152,0.178,0.197,0.285c0.046,0.107,0.067,0.228,0.067,0.362c0,0.168-0.033,0.321-0.099,0.458    c-0.065,0.137-0.155,0.255-0.271,0.354c-0.113,0.099-0.246,0.176-0.398,0.23c-0.151,0.054-0.313,0.081-0.482,0.081    c-0.119,0-0.236-0.008-0.352-0.025c-0.113-0.017-0.221-0.04-0.322-0.07c-0.101-0.03-0.193-0.065-0.278-0.106    c-0.085-0.041-0.159-0.086-0.223-0.136l0.112-0.512c0.167,0.145,0.34,0.25,0.517,0.314c0.178,0.065,0.359,0.098,0.546,0.098    c0.1,0,0.197-0.014,0.291-0.042c0.093-0.028,0.176-0.07,0.246-0.124c0.072-0.054,0.13-0.121,0.174-0.2    c0.043-0.079,0.064-0.169,0.064-0.271c0-0.065-0.011-0.127-0.031-0.186c-0.021-0.059-0.063-0.117-0.127-0.173    c-0.063-0.057-0.153-0.113-0.271-0.169c-0.119-0.056-0.275-0.113-0.471-0.171s-0.354-0.123-0.477-0.192    c-0.124-0.07-0.221-0.146-0.291-0.229c-0.069-0.083-0.117-0.17-0.143-0.265c-0.026-0.094-0.039-0.194-0.039-0.301    c0-0.107,0.021-0.219,0.066-0.337c0.043-0.118,0.113-0.227,0.208-0.327s0.217-0.183,0.365-0.249s0.327-0.099,0.534-0.099    c0.098,0,0.188,0.004,0.271,0.013c0.084,0.008,0.166,0.021,0.246,0.04c0.078,0.019,0.156,0.042,0.232,0.07    c0.077,0.028,0.156,0.062,0.238,0.102L97.172,17.304z"/>
	</g>
	<g class="st3">
		<path class="st5" d="M100.387,20.301v-1.686h-1.8v1.686h-0.513c0.019-0.1,0.029-0.244,0.033-0.433    c0.003-0.189,0.004-0.407,0.004-0.653v-1.474c0-0.247-0.001-0.464-0.004-0.653c-0.004-0.189-0.015-0.333-0.033-0.433h0.513v1.561    h1.8v-1.561h0.513c-0.019,0.1-0.029,0.244-0.032,0.433c-0.004,0.189-0.006,0.407-0.006,0.653v1.474    c0,0.247,0.002,0.464,0.006,0.653c0.003,0.189,0.014,0.333,0.032,0.433H100.387z"/>
	</g>
	<g class="st3">
		<path class="st4" d="M75.431,20.284l-0.595,1.591l-0.094-0.169l0.671-1.818l0.245,0.087c-0.004,0.012-0.01,0.037-0.018,0.076    c-0.004,0.023-0.006,0.06-0.006,0.111c0,0.121,0.035,0.252,0.105,0.396c0.085,0.179,0.176,0.325,0.273,0.438    c0.222,0.288,0.35,0.462,0.385,0.524c0.039,0.078,0.066,0.159,0.082,0.245c0.016,0.132,0.023,0.245,0.023,0.338    c0.179,0,0.303-0.136,0.373-0.408l0.094,0.181c-0.008,0.07-0.061,0.157-0.158,0.262c-0.112,0.113-0.219,0.169-0.32,0.169    c-0.066,0.214-0.141,0.355-0.222,0.425c-0.124,0.086-0.335,0.128-0.63,0.128c-0.312,0-0.467-0.136-0.467-0.408    c0-0.202,0.094-0.319,0.279-0.35c0.012,0,0.023,0,0.035,0s0.023,0,0.035,0s0.023,0,0.035,0s0.023,0,0.035,0s0.023,0,0.035,0    s0.023,0,0.035,0c0.008,0,0.016,0,0.025,0s0.021,0,0.033,0c0.077,0,0.16,0.006,0.25,0.018c0-0.012,0-0.021,0-0.029    c0-0.004,0-0.009-0.002-0.015s-0.004-0.013-0.004-0.021c0-0.004,0-0.009,0-0.015s0-0.013,0-0.021c0-0.004,0-0.009,0-0.018    c0-0.007,0-0.015,0-0.023c0-0.016-0.014-0.089-0.041-0.222c-0.166-0.284-0.285-0.528-0.355-0.734    C75.477,20.775,75.431,20.529,75.431,20.284z M75.354,22.475c0,0.117,0.088,0.175,0.263,0.175c0.237,0,0.355-0.12,0.355-0.361    c-0.02,0-0.061-0.006-0.122-0.017c-0.055-0.012-0.124-0.018-0.21-0.018c-0.191,0-0.286,0.076-0.286,0.227V22.475z"/>
	</g>
	<g class="st3">
		<path class="st5" d="M77.393,22.86h-0.549v-5.927c0-0.618,0.068-1.128,0.205-1.533c0.178-0.524,0.477-0.787,0.893-0.787    c0.24,0,0.424,0.151,0.548,0.455c0.104,0.256,0.157,0.603,0.157,1.038c0,0.314-0.023,0.631-0.07,0.95    c-0.047,0.311-0.103,0.573-0.168,0.787c-0.027,0.07-0.047,0.128-0.059,0.175c-0.012,0.039-0.025,0.078-0.041,0.116    c-0.016,0.039-0.029,0.082-0.041,0.128c-0.031,0.089-0.065,0.188-0.102,0.297c-0.037,0.108-0.076,0.227-0.114,0.355    c-0.078,0.237-0.177,0.519-0.298,0.845c-0.098,0.26-0.217,0.542-0.361,0.845v0.163c0.102-0.171,0.257-0.324,0.467-0.46    c0.206-0.132,0.406-0.198,0.601-0.198c0.206,0,0.38,0.045,0.519,0.134c0.168,0.113,0.252,0.278,0.252,0.495v1.457    c0,0.097,0.01,0.185,0.029,0.262c0.016,0.07,0.063,0.105,0.145,0.105c0.051,0,0.115-0.083,0.193-0.25    c0.031-0.078,0.053-0.136,0.064-0.175c0.012-0.027,0.021-0.055,0.031-0.084s0.021-0.057,0.032-0.084    c0.031-0.089,0.068-0.187,0.11-0.292l0.094,0.181c-0.175,0.494-0.287,0.771-0.338,0.833c-0.113,0.113-0.278,0.169-0.496,0.169    c-0.283,0-0.426-0.138-0.426-0.414v-1.644c0-0.128-0.02-0.231-0.059-0.309c-0.059-0.101-0.153-0.151-0.285-0.151    c-0.164,0-0.341,0.076-0.531,0.227c-0.187,0.148-0.32,0.325-0.402,0.53V22.86z M77.375,20.243c0.023-0.058,0.048-0.12,0.072-0.184    c0.025-0.064,0.051-0.131,0.074-0.201c0.023-0.066,0.047-0.134,0.072-0.204c0.025-0.07,0.052-0.14,0.078-0.209    c0.023-0.07,0.049-0.141,0.076-0.213s0.053-0.145,0.076-0.218c0.023-0.07,0.049-0.141,0.076-0.213s0.055-0.145,0.082-0.219    c0.019-0.066,0.039-0.129,0.061-0.189c0.021-0.06,0.041-0.117,0.061-0.172c0.023-0.078,0.057-0.175,0.1-0.292    c0.027-0.089,0.05-0.164,0.067-0.224s0.032-0.106,0.044-0.137c0.027-0.128,0.064-0.344,0.11-0.646    c0.043-0.323,0.064-0.603,0.064-0.839c0-0.346-0.037-0.616-0.11-0.81c-0.094-0.241-0.24-0.361-0.438-0.361    c-0.246,0-0.408,0.256-0.49,0.769c-0.051,0.299-0.076,0.698-0.076,1.195V20.243z"/>
	</g>
	<path class="st6" d="M30,53c0,0,10.6,3.6,23.9,0"/>
	<g class="st3">
		<path class="st7" d="M59.298,61.404v0.398h-1.45v0.6c0,0.248,0.002,0.467,0.006,0.656c0.003,0.189,0.014,0.332,0.032,0.431h-0.55    c0.018-0.101,0.029-0.244,0.032-0.433c0.003-0.189,0.005-0.407,0.005-0.654v-1.811c0-0.111-0.002-0.215-0.004-0.309    s-0.006-0.178-0.012-0.254c-0.004-0.074-0.012-0.137-0.021-0.187h2.174v0.412h-1.662v1.149H59.298z"/>
		<path class="st7" d="M60.048,62.229c0-0.215,0.032-0.406,0.098-0.571s0.152-0.306,0.263-0.419c0.109-0.115,0.238-0.201,0.385-0.26    c0.146-0.058,0.303-0.087,0.467-0.087c0.172,0,0.33,0.029,0.473,0.087c0.142,0.059,0.264,0.145,0.367,0.26    c0.102,0.113,0.182,0.254,0.238,0.419s0.085,0.356,0.085,0.571s-0.032,0.404-0.097,0.568c-0.066,0.166-0.153,0.304-0.264,0.415    c-0.109,0.112-0.238,0.196-0.385,0.253c-0.146,0.059-0.303,0.087-0.467,0.087c-0.172,0-0.329-0.028-0.472-0.087    c-0.143-0.057-0.265-0.141-0.368-0.253c-0.102-0.111-0.182-0.249-0.238-0.415C60.076,62.633,60.048,62.443,60.048,62.229z     M60.511,62.229c0,0.145,0.017,0.273,0.052,0.389s0.085,0.213,0.149,0.291c0.063,0.08,0.14,0.14,0.229,0.182    c0.089,0.041,0.187,0.063,0.295,0.063c0.101,0,0.194-0.021,0.282-0.063c0.089-0.042,0.166-0.102,0.231-0.182    c0.065-0.078,0.118-0.176,0.155-0.291s0.057-0.244,0.057-0.389c0-0.146-0.018-0.278-0.053-0.395    c-0.035-0.115-0.085-0.213-0.148-0.294c-0.064-0.081-0.142-0.143-0.23-0.185c-0.09-0.043-0.188-0.064-0.294-0.064    c-0.102,0-0.196,0.021-0.284,0.064c-0.089,0.042-0.166,0.104-0.23,0.185c-0.065,0.081-0.116,0.179-0.154,0.294    C60.529,61.95,60.511,62.082,60.511,62.229z"/>
		<path class="st7" d="M63.048,63.489v-1.536c0-0.246-0.015-0.455-0.042-0.625c-0.027-0.172-0.055-0.3-0.083-0.387h0.45    c0.02,0.047,0.037,0.105,0.053,0.176c0.017,0.071,0.029,0.15,0.041,0.236c0.01,0.087,0.019,0.18,0.023,0.277    c0.005,0.099,0.008,0.197,0.008,0.297v0.162c0.084-0.234,0.168-0.428,0.25-0.582c0.081-0.154,0.162-0.277,0.243-0.369    s0.162-0.155,0.243-0.191c0.082-0.037,0.166-0.056,0.25-0.056c0.064,0,0.123,0.006,0.176,0.018s0.107,0.03,0.162,0.058    l-0.074,0.462c-0.049-0.021-0.092-0.033-0.128-0.04c-0.036-0.006-0.081-0.01-0.136-0.01c-0.068,0-0.139,0.028-0.215,0.086    c-0.074,0.058-0.148,0.134-0.221,0.229c-0.072,0.096-0.141,0.203-0.206,0.322c-0.065,0.12-0.122,0.242-0.171,0.369    c-0.05,0.125-0.089,0.248-0.118,0.367c-0.028,0.121-0.044,0.227-0.044,0.32c0,0.041,0.001,0.08,0.002,0.115    c0,0.035,0.003,0.068,0.008,0.101c0.004,0.032,0.009,0.065,0.016,0.098s0.016,0.067,0.025,0.104H63.048z"/>
		<path class="st7" d="M66.423,60.892c0.167,0,0.31,0.02,0.431,0.059c0.121,0.04,0.228,0.091,0.319,0.153l-0.088,0.45    c-0.113-0.083-0.226-0.146-0.337-0.188s-0.232-0.063-0.363-0.063c-0.111,0-0.215,0.021-0.311,0.063    c-0.096,0.043-0.18,0.104-0.25,0.184c-0.071,0.08-0.127,0.179-0.166,0.295c-0.041,0.117-0.061,0.248-0.061,0.395    c0,0.135,0.019,0.258,0.055,0.367c0.037,0.109,0.09,0.205,0.158,0.283c0.068,0.08,0.15,0.141,0.247,0.184    c0.097,0.044,0.206,0.065,0.327,0.065c0.152,0,0.289-0.026,0.413-0.077c0.123-0.052,0.239-0.126,0.35-0.223l0.05,0.438    c-0.063,0.048-0.126,0.09-0.188,0.123c-0.063,0.034-0.128,0.063-0.196,0.085s-0.142,0.039-0.22,0.05    c-0.079,0.012-0.164,0.017-0.258,0.017c-0.168,0-0.325-0.03-0.472-0.089c-0.147-0.059-0.275-0.145-0.386-0.256    s-0.196-0.246-0.26-0.404s-0.095-0.338-0.095-0.537c0-0.188,0.03-0.365,0.091-0.532c0.062-0.167,0.147-0.312,0.261-0.437    c0.111-0.125,0.248-0.225,0.409-0.297S66.225,60.892,66.423,60.892z"/>
		<path class="st7" d="M68.873,60.892c0.137,0,0.257,0.017,0.361,0.049c0.105,0.032,0.196,0.077,0.273,0.135    c0.076,0.058,0.141,0.124,0.192,0.201s0.093,0.159,0.124,0.247c0.03,0.088,0.053,0.181,0.066,0.276    c0.013,0.096,0.02,0.19,0.02,0.283v0.098c0,0.042-0.001,0.073-0.003,0.097h-1.772c0.006,0.146,0.028,0.274,0.068,0.383    c0.041,0.107,0.098,0.197,0.168,0.269s0.154,0.124,0.25,0.158c0.096,0.035,0.201,0.053,0.314,0.053    c0.161,0,0.319-0.019,0.475-0.056c0.154-0.036,0.309-0.102,0.463-0.194l0.049,0.412c-0.088,0.045-0.174,0.083-0.26,0.115    c-0.084,0.031-0.17,0.058-0.254,0.077c-0.086,0.02-0.172,0.035-0.26,0.044s-0.18,0.014-0.275,0.014    c-0.16,0-0.313-0.028-0.458-0.083c-0.146-0.057-0.272-0.139-0.382-0.248c-0.111-0.109-0.198-0.244-0.264-0.406    c-0.064-0.161-0.098-0.348-0.098-0.562c0-0.206,0.028-0.394,0.084-0.561c0.057-0.167,0.136-0.311,0.239-0.43    c0.103-0.119,0.229-0.211,0.378-0.274C68.521,60.924,68.688,60.892,68.873,60.892z M68.835,61.266    c-0.183,0-0.333,0.055-0.45,0.162c-0.116,0.107-0.193,0.273-0.229,0.5h1.305c0-0.105-0.016-0.201-0.046-0.283    c-0.031-0.082-0.074-0.152-0.131-0.209c-0.055-0.057-0.121-0.099-0.198-0.127S68.925,61.266,68.835,61.266z"/>
	</g>
	<g class="st3">
		<path class="st7" d="M16.68,59.737h1.437V59.9H17.51c-0.132,0-0.223,0.043-0.27,0.127c-0.027,0.047-0.04,0.107-0.04,0.184v4.586    c0,0.1,0.014,0.176,0.043,0.226c0.05,0.087,0.147,0.13,0.29,0.13h0.583v0.174H16.68V59.737z"/>
		<path class="st7" d="M20.793,60.209v4.141c0,0.218-0.064,0.391-0.192,0.518c-0.201,0.201-0.451,0.302-0.75,0.302    c-0.265,0-0.493-0.048-0.683-0.145c-0.013-0.12-0.02-0.259-0.02-0.415c0-0.178,0.016-0.266,0.048-0.266    c0.024,0,0.051,0.066,0.079,0.199c0.031,0.154,0.075,0.26,0.133,0.318c0.125,0.127,0.293,0.191,0.505,0.191    c0.092,0,0.167-0.016,0.225-0.049c0.146-0.08,0.218-0.242,0.218-0.484v-4.141c0-0.218,0.064-0.391,0.191-0.518    c0.2-0.2,0.45-0.301,0.75-0.301c0.261,0,0.489,0.049,0.684,0.144c0.013,0.124,0.02,0.263,0.02,0.417    c0,0.176-0.016,0.264-0.048,0.264c-0.023,0-0.049-0.065-0.077-0.197c-0.034-0.156-0.079-0.262-0.135-0.32    c-0.125-0.127-0.294-0.189-0.505-0.189c-0.095,0-0.169,0.016-0.225,0.047C20.866,59.805,20.793,59.967,20.793,60.209z"/>
		<path class="st7" d="M24.463,65.326h-1.44v-0.167h0.61c0.205,0,0.307-0.103,0.307-0.307v-4.589c0-0.235-0.11-0.354-0.33-0.354    h-0.586v-0.173h1.44V65.326z"/>
	</g>
	<g class="st3">
		<path class="st7" d="M59.92,68.401l-0.307-0.362c0.258-0.163,0.484-0.361,0.678-0.594c0.193-0.231,0.322-0.471,0.387-0.715    c-0.158,0.098-0.344,0.147-0.558,0.147c-0.267,0-0.495-0.099-0.687-0.298c-0.19-0.197-0.285-0.436-0.285-0.714    c0-0.29,0.102-0.535,0.305-0.737c0.203-0.201,0.451-0.302,0.744-0.302c0.33,0,0.601,0.119,0.811,0.356    c0.21,0.238,0.314,0.545,0.314,0.918c0,0.422-0.131,0.85-0.395,1.281C60.664,67.815,60.328,68.154,59.92,68.401z M60.775,66.233    c0.02-0.134,0.029-0.22,0.029-0.26c0-0.202-0.056-0.366-0.168-0.495c-0.113-0.127-0.258-0.191-0.434-0.191    c-0.162,0-0.296,0.055-0.401,0.163c-0.106,0.109-0.159,0.246-0.159,0.411c0,0.151,0.058,0.282,0.173,0.393    c0.114,0.109,0.253,0.164,0.413,0.164C60.414,66.418,60.598,66.356,60.775,66.233z"/>
		<path class="st7" d="M61.768,65.809c0-0.273,0.104-0.506,0.308-0.695c0.205-0.191,0.456-0.286,0.753-0.286    c0.291,0,0.537,0.095,0.738,0.283s0.301,0.421,0.301,0.698c0,0.311-0.145,0.568-0.434,0.771c0.322,0.187,0.484,0.462,0.484,0.825    c0,0.288-0.105,0.526-0.314,0.715c-0.211,0.188-0.476,0.282-0.795,0.282c-0.317,0-0.583-0.097-0.799-0.288    c-0.215-0.193-0.322-0.432-0.322-0.715c0-0.354,0.166-0.627,0.496-0.819c-0.148-0.12-0.256-0.239-0.319-0.358    C61.8,66.102,61.768,65.965,61.768,65.809z M63.413,67.425v-0.05c0-0.16-0.058-0.291-0.171-0.391    c-0.115-0.102-0.263-0.152-0.444-0.152c-0.179,0-0.323,0.052-0.437,0.153c-0.112,0.102-0.168,0.233-0.168,0.395    s0.057,0.293,0.172,0.395s0.264,0.152,0.447,0.152c0.176,0,0.319-0.046,0.432-0.14S63.413,67.572,63.413,67.425z M63.371,65.824    c0-0.152-0.053-0.277-0.156-0.375c-0.105-0.098-0.236-0.147-0.396-0.147c-0.162,0-0.295,0.048-0.398,0.146    c-0.104,0.096-0.154,0.22-0.154,0.371c0,0.145,0.055,0.27,0.164,0.373c0.108,0.103,0.24,0.154,0.393,0.154    s0.281-0.051,0.389-0.154C63.316,66.09,63.371,65.967,63.371,65.824z"/>
		<path class="st7" d="M66.41,64.832c0.215,0,0.398,0.076,0.55,0.23c0.151,0.152,0.228,0.336,0.228,0.551    c0,0.214-0.076,0.396-0.229,0.551c-0.152,0.152-0.336,0.229-0.549,0.229c-0.214,0-0.396-0.076-0.549-0.229    c-0.152-0.154-0.229-0.337-0.229-0.551c0-0.215,0.075-0.398,0.227-0.551C66.012,64.908,66.195,64.832,66.41,64.832z     M68.178,64.822h0.387l-2.296,3.579h-0.386L68.178,64.822z M66.404,65.212c-0.111,0-0.207,0.04-0.286,0.118S66,65.504,66,65.615    c0,0.109,0.039,0.203,0.119,0.281s0.175,0.117,0.285,0.117c0.111,0,0.205-0.039,0.285-0.117c0.078-0.078,0.117-0.172,0.117-0.281    c0-0.113-0.039-0.209-0.116-0.287C66.612,65.251,66.517,65.212,66.404,65.212z M68.059,66.843c0.213,0,0.396,0.076,0.549,0.229    c0.153,0.152,0.23,0.335,0.23,0.548s-0.076,0.395-0.229,0.543c-0.152,0.15-0.336,0.225-0.551,0.225    c-0.217,0-0.4-0.074-0.553-0.225c-0.152-0.148-0.229-0.33-0.229-0.543c0-0.215,0.076-0.397,0.229-0.549    C67.66,66.918,67.844,66.843,68.059,66.843z M68.054,67.223c-0.11,0-0.203,0.039-0.28,0.117c-0.078,0.078-0.116,0.172-0.116,0.281    c0,0.111,0.038,0.206,0.116,0.285c0.077,0.078,0.17,0.117,0.28,0.117c0.112,0,0.208-0.038,0.286-0.116s0.117-0.173,0.117-0.286    c0-0.111-0.039-0.205-0.117-0.283C68.262,67.262,68.166,67.223,68.054,67.223z"/>
	</g>
	<g>
		<g class="st3">
			<path class="st4" d="M85.229,24.659c0.195,0,0.379,0.013,0.551,0.038c0.171,0.025,0.328,0.059,0.471,0.1s0.273,0.088,0.393,0.141     c0.119,0.053,0.226,0.104,0.32,0.154l-0.19,0.947c-0.091-0.054-0.192-0.111-0.309-0.17s-0.241-0.115-0.376-0.165     c-0.136-0.051-0.28-0.093-0.434-0.127c-0.154-0.034-0.313-0.051-0.479-0.051c-0.198,0-0.366,0.021-0.501,0.065     s-0.244,0.098-0.325,0.165s-0.14,0.143-0.176,0.227c-0.036,0.085-0.054,0.167-0.054,0.247c0,0.094,0.014,0.177,0.043,0.249     c0.029,0.072,0.09,0.139,0.182,0.2c0.092,0.061,0.223,0.121,0.393,0.178c0.17,0.058,0.396,0.119,0.682,0.184     c0.246,0.054,0.477,0.124,0.693,0.208s0.406,0.192,0.569,0.322s0.29,0.286,0.384,0.468c0.095,0.182,0.142,0.399,0.142,0.652     c0,0.245-0.054,0.473-0.163,0.682c-0.107,0.209-0.256,0.392-0.443,0.549c-0.188,0.157-0.408,0.28-0.661,0.368     s-0.525,0.132-0.817,0.132c-0.221,0-0.434-0.016-0.637-0.049c-0.204-0.032-0.396-0.078-0.574-0.135s-0.342-0.125-0.49-0.2     s-0.276-0.155-0.385-0.238l0.271-0.974c0.122,0.108,0.26,0.208,0.414,0.297c0.153,0.09,0.311,0.168,0.474,0.233     s0.325,0.114,0.49,0.149c0.164,0.034,0.319,0.051,0.463,0.051c0.159,0,0.304-0.021,0.437-0.063     c0.131-0.042,0.245-0.095,0.341-0.162s0.171-0.145,0.226-0.233c0.054-0.088,0.08-0.179,0.08-0.273     c0-0.101-0.021-0.196-0.062-0.284c-0.042-0.088-0.118-0.173-0.228-0.254c-0.11-0.081-0.262-0.16-0.455-0.235     s-0.441-0.152-0.744-0.228c-0.33-0.079-0.598-0.173-0.805-0.281c-0.208-0.108-0.371-0.228-0.488-0.357s-0.197-0.271-0.24-0.422     c-0.044-0.151-0.065-0.312-0.065-0.481c0-0.083,0.014-0.181,0.04-0.292c0.027-0.112,0.072-0.228,0.137-0.349     c0.063-0.121,0.146-0.24,0.248-0.357c0.104-0.117,0.232-0.222,0.388-0.314s0.337-0.167,0.547-0.225S84.955,24.659,85.229,24.659z     "/>
		</g>
		<g class="st3">
			<path class="st8" d="M91.29,24.659c0.577,0,1.021,0.188,1.327,0.565s0.461,0.937,0.461,1.68v3.382h-1.003V27.31     c0-0.339-0.022-0.619-0.067-0.839c-0.045-0.22-0.113-0.394-0.203-0.522s-0.203-0.217-0.338-0.268     c-0.137-0.05-0.294-0.076-0.475-0.076c-0.195,0-0.386,0.046-0.571,0.138c-0.187,0.092-0.356,0.211-0.513,0.357     c-0.154,0.146-0.292,0.312-0.411,0.495c-0.119,0.184-0.208,0.368-0.265,0.552v3.139h-1.003v-6.115     c0-0.584-0.003-1.096-0.011-1.534s-0.031-0.774-0.07-1.009h1.084v4.167c0.267-0.379,0.58-0.663,0.941-0.852     C90.535,24.753,90.907,24.659,91.29,24.659z"/>
		</g>
		<g class="st3">
			<path class="st4" d="M79.313,33.167c0.15,0,0.291,0.01,0.424,0.029c0.131,0.02,0.252,0.045,0.361,0.077     c0.11,0.032,0.211,0.068,0.303,0.108c0.092,0.04,0.174,0.08,0.246,0.119L80.5,34.229c-0.069-0.042-0.148-0.085-0.237-0.131     s-0.186-0.088-0.29-0.127c-0.104-0.039-0.215-0.071-0.333-0.098s-0.241-0.04-0.368-0.04c-0.153,0-0.281,0.017-0.386,0.05     s-0.188,0.076-0.25,0.127s-0.108,0.11-0.136,0.175c-0.027,0.065-0.041,0.128-0.041,0.189c0,0.072,0.011,0.136,0.033,0.191     c0.021,0.056,0.068,0.107,0.139,0.154c0.071,0.047,0.172,0.093,0.303,0.137s0.306,0.091,0.525,0.142     c0.188,0.042,0.366,0.095,0.533,0.16c0.166,0.065,0.313,0.148,0.438,0.248c0.125,0.1,0.223,0.22,0.295,0.36     s0.109,0.308,0.109,0.501c0,0.189-0.042,0.364-0.125,0.525c-0.084,0.16-0.197,0.301-0.342,0.422s-0.314,0.215-0.509,0.283     S79.455,37.6,79.229,37.6c-0.169,0-0.333-0.012-0.489-0.037c-0.157-0.025-0.305-0.06-0.441-0.104     c-0.139-0.045-0.264-0.096-0.378-0.154s-0.212-0.119-0.296-0.184l0.209-0.749c0.094,0.083,0.2,0.159,0.318,0.229     c0.118,0.068,0.24,0.129,0.365,0.179s0.25,0.088,0.377,0.114c0.126,0.026,0.244,0.039,0.355,0.039     c0.123,0,0.234-0.016,0.336-0.047c0.102-0.032,0.188-0.074,0.262-0.125c0.074-0.052,0.132-0.111,0.174-0.18     c0.041-0.068,0.063-0.138,0.063-0.21c0-0.077-0.017-0.15-0.049-0.218c-0.031-0.068-0.09-0.134-0.174-0.196     c-0.086-0.063-0.202-0.123-0.351-0.181c-0.149-0.058-0.34-0.117-0.573-0.175c-0.252-0.061-0.459-0.133-0.619-0.216     c-0.159-0.083-0.284-0.175-0.375-0.275c-0.09-0.1-0.151-0.208-0.185-0.325c-0.034-0.117-0.05-0.24-0.05-0.371     c0-0.063,0.01-0.139,0.031-0.225c0.021-0.086,0.055-0.176,0.104-0.269s0.113-0.185,0.191-0.275c0.08-0.09,0.18-0.17,0.299-0.241     s0.26-0.128,0.42-0.173C78.916,33.189,79.102,33.167,79.313,33.167z"/>
		</g>
		<g class="st3">
			<path class="st8" d="M84.129,33.167c0.445,0,0.785,0.145,1.021,0.435c0.236,0.29,0.354,0.721,0.354,1.293v2.602h-0.771v-2.29     c0-0.261-0.018-0.476-0.052-0.645c-0.035-0.169-0.088-0.303-0.156-0.402c-0.07-0.099-0.156-0.167-0.261-0.206     s-0.226-0.058-0.364-0.058c-0.15,0-0.297,0.035-0.439,0.106c-0.144,0.071-0.275,0.162-0.395,0.275     c-0.119,0.112-0.225,0.239-0.316,0.381s-0.16,0.283-0.204,0.424v2.415h-0.771v-4.704c0-0.449-0.003-0.843-0.009-1.18     c-0.005-0.337-0.023-0.596-0.054-0.776h0.833v3.206c0.206-0.292,0.447-0.51,0.726-0.656     C83.549,33.24,83.834,33.167,84.129,33.167z"/>
		</g>
		<g class="st3">
			<path class="st9" d="M87.992,34.033c0.182,0,0.343,0.021,0.482,0.065c0.141,0.043,0.262,0.103,0.363,0.18     c0.103,0.077,0.188,0.166,0.258,0.268c0.068,0.102,0.123,0.212,0.164,0.33s0.07,0.241,0.089,0.368     c0.018,0.128,0.026,0.254,0.026,0.378v0.13c0,0.056-0.001,0.099-0.004,0.13h-2.363c0.008,0.195,0.038,0.365,0.092,0.51     c0.055,0.145,0.129,0.264,0.225,0.357c0.094,0.095,0.205,0.165,0.332,0.212c0.129,0.046,0.268,0.069,0.419,0.069     c0.216,0,0.427-0.023,0.634-0.072c0.206-0.049,0.412-0.136,0.616-0.26l0.066,0.549c-0.118,0.061-0.233,0.111-0.347,0.153     s-0.227,0.077-0.34,0.104s-0.229,0.046-0.345,0.058c-0.116,0.013-0.239,0.02-0.368,0.02c-0.214,0-0.417-0.038-0.61-0.112     s-0.363-0.185-0.51-0.329c-0.147-0.146-0.264-0.326-0.351-0.541c-0.086-0.216-0.129-0.466-0.129-0.75     c0-0.275,0.037-0.524,0.111-0.748s0.18-0.414,0.318-0.573c0.137-0.159,0.305-0.281,0.503-0.367     C87.523,34.075,87.745,34.033,87.992,34.033z M87.941,34.532c-0.244,0-0.443,0.072-0.6,0.215s-0.258,0.366-0.307,0.667h1.74     c0-0.142-0.021-0.268-0.063-0.378s-0.098-0.203-0.173-0.278c-0.074-0.076-0.163-0.132-0.265-0.17     C88.173,34.551,88.063,34.532,87.941,34.532z M89.305,32.168L87.905,33.6h-0.534l1.168-1.432H89.305z"/>
			<path class="st9" d="M90.242,37.496v-2.048c0-0.329-0.019-0.607-0.056-0.834c-0.036-0.228-0.073-0.399-0.111-0.515h0.601     c0.025,0.063,0.05,0.141,0.07,0.235c0.021,0.094,0.039,0.199,0.055,0.315c0.014,0.115,0.024,0.238,0.031,0.37     c0.006,0.131,0.01,0.263,0.01,0.396v0.217c0.113-0.313,0.225-0.572,0.334-0.778c0.107-0.205,0.217-0.369,0.324-0.491     s0.217-0.208,0.325-0.256s0.22-0.073,0.333-0.073c0.084,0,0.162,0.008,0.233,0.023c0.071,0.015,0.144,0.041,0.217,0.076     l-0.101,0.616c-0.064-0.026-0.121-0.044-0.17-0.053s-0.108-0.013-0.18-0.013c-0.091,0-0.187,0.038-0.287,0.115     c-0.1,0.077-0.197,0.178-0.295,0.305c-0.096,0.126-0.188,0.27-0.274,0.43s-0.163,0.324-0.229,0.491     c-0.065,0.167-0.118,0.331-0.157,0.491c-0.038,0.16-0.058,0.302-0.058,0.426c0,0.057,0.001,0.107,0.001,0.154     c0.002,0.046,0.005,0.091,0.011,0.135c0.005,0.043,0.013,0.086,0.021,0.129c0.009,0.044,0.021,0.09,0.034,0.139H90.242z"/>
			<path class="st9" d="M93.208,33.017c0-0.063,0.011-0.121,0.03-0.175c0.02-0.055,0.049-0.102,0.085-0.144     c0.036-0.041,0.081-0.073,0.132-0.096c0.051-0.023,0.107-0.035,0.17-0.035s0.119,0.012,0.173,0.035     c0.054,0.023,0.099,0.055,0.137,0.096c0.038,0.042,0.067,0.089,0.091,0.144c0.021,0.054,0.033,0.112,0.033,0.175     c0,0.062-0.012,0.12-0.033,0.175c-0.023,0.054-0.053,0.102-0.091,0.143s-0.083,0.073-0.137,0.097s-0.11,0.035-0.173,0.035     s-0.119-0.011-0.17-0.035s-0.096-0.056-0.132-0.097s-0.065-0.089-0.085-0.143C93.219,33.137,93.208,33.079,93.208,33.017z      M93.941,35.914c0,0.107,0.002,0.232,0.005,0.378s0.008,0.293,0.013,0.441c0.006,0.149,0.013,0.291,0.021,0.427     c0.008,0.135,0.018,0.247,0.028,0.336h-0.684v-1.765c0-0.162,0-0.322-0.001-0.479s-0.003-0.307-0.007-0.448     s-0.008-0.272-0.016-0.393c-0.006-0.121-0.016-0.225-0.025-0.312h0.666V35.914z"/>
		</g>
		<g>
			<path class="st9" d="M94.717,34.183h0.666V33.6c0-0.5,0.102-0.874,0.305-1.124c0.203-0.25,0.485-0.375,0.846-0.375     c0.131,0,0.26,0.021,0.387,0.062s0.242,0.098,0.346,0.172l-0.152,0.5c-0.085-0.063-0.178-0.111-0.28-0.147     c-0.103-0.035-0.202-0.053-0.3-0.053c-0.087,0-0.164,0.015-0.23,0.045c-0.066,0.03-0.122,0.079-0.166,0.145     c-0.045,0.067-0.078,0.153-0.102,0.258S96,33.315,96,33.466v0.716h0.899v0.483H96v1.186c0,0.163,0.002,0.323,0.004,0.481     c0.004,0.158,0.01,0.311,0.018,0.453s0.018,0.275,0.031,0.398c0.014,0.121,0.029,0.227,0.047,0.313h-0.717v-2.831h-0.666V34.183z     "/>
			<path class="st9" d="M94.583,37.996v-0.268h2.5v0.268H94.583z"/>
		</g>
		<g class="st3">
			<path class="st7" d="M95.979,40.416h0.417v2.907h-0.417V40.416z"/>
			<path class="st7" d="M99.189,40.383c0.179,0,0.332,0.063,0.458,0.191c0.126,0.127,0.189,0.28,0.189,0.459     c0,0.178-0.063,0.33-0.19,0.459c-0.127,0.127-0.279,0.191-0.457,0.191s-0.33-0.064-0.457-0.191     c-0.127-0.129-0.191-0.281-0.191-0.459c0-0.179,0.063-0.332,0.189-0.459C98.857,40.446,99.01,40.383,99.189,40.383z      M100.663,40.374h0.321l-1.913,2.982H98.75L100.663,40.374z M99.184,40.699c-0.092,0-0.172,0.032-0.237,0.098     c-0.065,0.066-0.099,0.145-0.099,0.238c0,0.091,0.033,0.169,0.1,0.234c0.066,0.064,0.146,0.098,0.236,0.098     c0.094,0,0.172-0.033,0.238-0.098c0.065-0.065,0.099-0.144,0.099-0.234c0-0.094-0.032-0.174-0.098-0.239     S99.278,40.699,99.184,40.699z M100.563,42.058c0.178,0,0.33,0.063,0.458,0.19s0.191,0.279,0.191,0.457s-0.063,0.328-0.19,0.453     c-0.127,0.123-0.279,0.186-0.459,0.186s-0.333-0.063-0.46-0.186c-0.127-0.125-0.19-0.275-0.19-0.453     c0-0.18,0.064-0.332,0.191-0.458S100.385,42.058,100.563,42.058z M100.559,42.374c-0.091,0-0.169,0.032-0.233,0.098     s-0.097,0.144-0.097,0.234c0,0.093,0.032,0.172,0.097,0.237c0.064,0.066,0.143,0.1,0.233,0.1c0.095,0,0.174-0.033,0.239-0.098     c0.065-0.065,0.098-0.145,0.098-0.239c0-0.093-0.032-0.171-0.098-0.235S100.653,42.374,100.559,42.374z"/>
		</g>
	</g>
	<g class="st3">
		<path class="st10" d="M19.241,13.857c-0.615,0-1.04-0.177-1.275-0.532c-0.185-0.24-0.278-0.602-0.278-1.086    c0-0.579,0.127-1.031,0.383-1.356c0.27-0.37,0.7-0.555,1.29-0.555c0.435,0,0.78,0.095,1.035,0.285    c0.185,0.15,0.277,0.333,0.277,0.547c-0.05,0.14-0.117,0.217-0.202,0.232c-0.1,0.025-0.165-0.002-0.195-0.083    c-0.04-0.06-0.06-0.112-0.06-0.157c0-0.05,0.048-0.075,0.143-0.075c-0.085-0.334-0.387-0.502-0.907-0.502    c-0.32,0-0.565,0.175-0.735,0.524c-0.16,0.33-0.24,0.689-0.24,1.079c0,0.35,0.092,0.642,0.277,0.876    c0.185,0.265,0.445,0.397,0.78,0.397c0.345,0,0.647-0.072,0.907-0.217c0.285-0.165,0.51-0.462,0.675-0.892l0.127,0.24    c-0.17,0.465-0.403,0.785-0.698,0.959c-0.325,0.21-0.762,0.315-1.313,0.315H19.241z"/>
		<path class="st10" d="M21.829,13.857h-0.705v-7.62c0-0.794,0.087-1.451,0.263-1.971c0.229-0.674,0.612-1.012,1.147-1.012    c0.31,0,0.545,0.195,0.705,0.584c0.135,0.33,0.203,0.774,0.203,1.333c0,0.405-0.03,0.812-0.09,1.222    c-0.06,0.399-0.133,0.737-0.218,1.011c-0.035,0.09-0.06,0.165-0.075,0.225c-0.015,0.05-0.033,0.1-0.053,0.15    s-0.038,0.105-0.052,0.165c-0.04,0.115-0.084,0.243-0.131,0.382c-0.048,0.14-0.096,0.292-0.146,0.457    c-0.1,0.305-0.228,0.667-0.382,1.086c-0.125,0.335-0.28,0.697-0.465,1.086v0.21c0.13-0.22,0.33-0.417,0.6-0.592    c0.265-0.17,0.522-0.255,0.772-0.255c0.265,0,0.487,0.058,0.667,0.172c0.215,0.145,0.322,0.357,0.322,0.637v1.874    c0,0.125,0.012,0.237,0.038,0.337c0.02,0.09,0.083,0.135,0.188,0.135c0.065,0,0.147-0.107,0.248-0.322    c0.04-0.1,0.067-0.175,0.083-0.225c0.015-0.035,0.028-0.071,0.041-0.108c0.013-0.038,0.026-0.074,0.042-0.109    c0.04-0.115,0.087-0.24,0.142-0.375l0.12,0.232c-0.225,0.634-0.37,0.991-0.435,1.071c-0.145,0.145-0.357,0.217-0.637,0.217    c-0.365,0-0.548-0.177-0.548-0.532v-2.113c0-0.165-0.025-0.297-0.075-0.397c-0.075-0.13-0.198-0.195-0.368-0.195    c-0.21,0-0.438,0.097-0.682,0.292c-0.24,0.19-0.413,0.417-0.518,0.682V13.857z M21.806,10.493c0.03-0.075,0.061-0.154,0.094-0.236    c0.032-0.082,0.063-0.168,0.094-0.258c0.03-0.085,0.061-0.172,0.094-0.262c0.032-0.09,0.066-0.18,0.101-0.27    c0.03-0.09,0.063-0.181,0.098-0.273c0.035-0.092,0.067-0.186,0.097-0.281c0.03-0.09,0.063-0.181,0.098-0.273    s0.07-0.186,0.105-0.281c0.025-0.085,0.051-0.166,0.079-0.243c0.028-0.078,0.054-0.151,0.079-0.221    c0.03-0.1,0.072-0.225,0.127-0.375c0.035-0.115,0.063-0.211,0.086-0.289s0.042-0.136,0.057-0.176    c0.035-0.165,0.083-0.442,0.142-0.832c0.055-0.415,0.083-0.774,0.083-1.079c0-0.444-0.047-0.792-0.142-1.042    c-0.12-0.31-0.308-0.464-0.563-0.464c-0.315,0-0.525,0.33-0.63,0.989c-0.065,0.385-0.097,0.897-0.097,1.536V10.493z"/>
	</g>
	<g class="st3">
		<path class="st10" d="M61.693,10.827c-0.123,0.114-0.266,0.213-0.43,0.298s-0.335,0.156-0.514,0.214    c-0.18,0.058-0.361,0.102-0.545,0.131c-0.183,0.029-0.354,0.043-0.512,0.043c-0.422,0-0.801-0.071-1.138-0.214    c-0.336-0.143-0.622-0.347-0.858-0.612s-0.417-0.586-0.543-0.964c-0.127-0.377-0.189-0.8-0.189-1.27    c0-0.536,0.077-1.005,0.232-1.409c0.156-0.404,0.363-0.74,0.623-1.009c0.26-0.27,0.559-0.471,0.898-0.606    c0.338-0.134,0.691-0.202,1.058-0.202c0.15,0,0.303,0.01,0.458,0.029c0.156,0.02,0.313,0.052,0.469,0.096    c0.157,0.044,0.313,0.104,0.469,0.179c0.156,0.075,0.309,0.168,0.459,0.279l-0.25,0.75c-0.131-0.117-0.264-0.215-0.4-0.295    c-0.136-0.081-0.271-0.145-0.408-0.194c-0.137-0.048-0.271-0.083-0.406-0.104s-0.265-0.031-0.39-0.031    c-0.292,0-0.56,0.051-0.804,0.152c-0.244,0.102-0.455,0.253-0.631,0.456c-0.177,0.203-0.314,0.455-0.415,0.755    C57.826,7.6,57.777,7.95,57.777,8.35c0,0.322,0.043,0.63,0.129,0.924c0.086,0.294,0.212,0.553,0.379,0.776    c0.166,0.224,0.371,0.402,0.614,0.535s0.521,0.2,0.835,0.2c0.158,0,0.319-0.018,0.482-0.054c0.162-0.036,0.32-0.088,0.477-0.156    c0.155-0.068,0.305-0.149,0.445-0.244c0.143-0.094,0.271-0.2,0.388-0.316L61.693,10.827z"/>
		<path class="st10" d="M66.734,11.41V8.6h-3v2.81h-0.854c0.03-0.167,0.049-0.407,0.054-0.722c0.006-0.315,0.009-0.678,0.009-1.089    V7.143c0-0.411-0.003-0.773-0.009-1.088c-0.005-0.315-0.023-0.556-0.054-0.722h0.854v2.602h3V5.332h0.854    c-0.03,0.167-0.049,0.407-0.054,0.722c-0.006,0.315-0.009,0.678-0.009,1.088v2.456c0,0.411,0.003,0.774,0.009,1.089    c0.005,0.315,0.023,0.556,0.054,0.722H66.734z"/>
	</g>
	<g class="st3">
		<path class="st10" d="M33.042,20.07c1.167,0,2.172,0.137,3.019,0.411c0.846,0.274,1.589,0.632,2.231,1.075l-0.613,3.147    c-0.793-0.583-1.581-1.02-2.362-1.312c-0.782-0.291-1.627-0.437-2.538-0.437c-0.782,0-1.508,0.149-2.179,0.446    c-0.671,0.297-1.254,0.726-1.75,1.285c-0.496,0.56-0.883,1.248-1.164,2.063c-0.28,0.816-0.42,1.737-0.42,2.763    c0,0.944,0.128,1.801,0.385,2.57c0.256,0.77,0.624,1.431,1.102,1.984c0.479,0.554,1.056,0.982,1.732,1.285    c0.677,0.303,1.441,0.455,2.292,0.455c1.062,0,2.024-0.181,2.888-0.542c0.863-0.361,1.68-0.88,2.45-1.556l0.35,3.06    c-0.443,0.339-0.884,0.627-1.321,0.866c-0.438,0.238-0.896,0.437-1.374,0.594c-0.479,0.158-0.992,0.273-1.54,0.35    s-1.149,0.113-1.802,0.113c-1.179,0-2.281-0.207-3.308-0.62c-1.027-0.413-1.925-1.011-2.695-1.792    c-0.77-0.781-1.377-1.725-1.82-2.833c-0.444-1.107-0.665-2.36-0.665-3.759c0-1.317,0.212-2.559,0.639-3.724    c0.426-1.166,1.032-2.186,1.82-3.06c0.788-0.875,1.744-1.565,2.87-2.072C30.397,20.323,31.654,20.07,33.042,20.07z"/>
	</g>
	<g class="st3">
		<path class="st10" d="M51.821,20.07c1.866,0,3.295,0.609,4.287,1.827c0.992,1.218,1.488,3.028,1.488,5.429v10.927h-3.238v-9.616    c0-1.095-0.073-1.999-0.219-2.71c-0.146-0.71-0.365-1.273-0.656-1.687c-0.292-0.414-0.656-0.702-1.094-0.865    s-0.948-0.245-1.531-0.245c-0.63,0-1.245,0.149-1.846,0.446c-0.601,0.297-1.152,0.682-1.653,1.154    c-0.502,0.472-0.945,1.005-1.33,1.6c-0.385,0.594-0.671,1.189-0.857,1.783v10.141h-3.237V18.497c0-1.889-0.012-3.541-0.035-4.957    c-0.023-1.416-0.099-2.503-0.228-3.261h3.5v13.463c0.863-1.224,1.878-2.142,3.045-2.754C49.382,20.376,50.584,20.07,51.821,20.07z    "/>
	</g>
	<g class="st3">
		<path class="st9" d="M75.681,49.498c0.222,0,0.414,0.025,0.575,0.078c0.161,0.052,0.303,0.12,0.425,0.205l-0.116,0.599    c-0.151-0.11-0.301-0.194-0.45-0.249c-0.149-0.057-0.31-0.084-0.483-0.084c-0.148,0-0.287,0.028-0.415,0.085    s-0.239,0.138-0.333,0.245c-0.095,0.106-0.168,0.237-0.223,0.393c-0.053,0.156-0.079,0.331-0.079,0.526    c0,0.18,0.024,0.343,0.073,0.489s0.119,0.273,0.21,0.379s0.201,0.187,0.33,0.244c0.128,0.058,0.274,0.086,0.437,0.086    c0.202,0,0.385-0.033,0.55-0.103s0.32-0.168,0.467-0.296l0.066,0.582c-0.085,0.064-0.168,0.119-0.251,0.165    c-0.084,0.046-0.171,0.083-0.262,0.113c-0.092,0.03-0.189,0.052-0.294,0.066s-0.219,0.022-0.343,0.022    c-0.225,0-0.435-0.04-0.631-0.119c-0.195-0.078-0.366-0.192-0.513-0.342c-0.146-0.148-0.263-0.328-0.347-0.539    s-0.127-0.449-0.127-0.716c0-0.251,0.041-0.487,0.122-0.71c0.081-0.221,0.196-0.416,0.347-0.582s0.332-0.299,0.547-0.395    C75.177,49.546,75.416,49.498,75.681,49.498z"/>
		<path class="st9" d="M77.547,52.961v-2.048c0-0.329-0.018-0.606-0.055-0.835c-0.037-0.227-0.074-0.398-0.111-0.514h0.6    c0.027,0.063,0.051,0.141,0.072,0.234s0.039,0.199,0.053,0.314c0.015,0.115,0.025,0.238,0.031,0.37    c0.008,0.131,0.011,0.263,0.011,0.396v0.217c0.113-0.313,0.224-0.572,0.333-0.777s0.217-0.369,0.325-0.491    s0.216-0.208,0.325-0.257s0.22-0.072,0.333-0.072c0.085,0,0.162,0.008,0.233,0.023c0.071,0.015,0.144,0.041,0.217,0.076    l-0.1,0.615c-0.064-0.025-0.121-0.044-0.17-0.053s-0.109-0.014-0.181-0.014c-0.091,0-0.187,0.039-0.286,0.115    c-0.101,0.076-0.199,0.178-0.295,0.305c-0.098,0.127-0.189,0.27-0.275,0.43c-0.087,0.16-0.163,0.324-0.229,0.491    s-0.117,0.331-0.156,0.491s-0.059,0.302-0.059,0.426c0,0.057,0,0.107,0.002,0.154c0.001,0.046,0.004,0.091,0.01,0.135    c0.006,0.043,0.013,0.086,0.021,0.129c0.009,0.044,0.02,0.09,0.033,0.139H77.547z"/>
	</g>
	<g class="st11">
		<path class="st4" d="M81.953,49.498c0.182,0,0.344,0.021,0.483,0.064s0.261,0.104,0.363,0.18s0.188,0.166,0.257,0.268    c0.068,0.103,0.123,0.213,0.165,0.33c0.041,0.117,0.07,0.24,0.089,0.368c0.018,0.128,0.025,0.254,0.025,0.378v0.13    c0,0.056,0,0.099-0.003,0.13H80.97c0.007,0.195,0.038,0.365,0.092,0.51c0.055,0.145,0.129,0.264,0.224,0.357    c0.094,0.095,0.205,0.165,0.333,0.212c0.128,0.046,0.267,0.069,0.419,0.069c0.215,0,0.426-0.023,0.633-0.072    s0.412-0.136,0.617-0.26l0.066,0.549c-0.118,0.061-0.234,0.111-0.348,0.153s-0.227,0.077-0.34,0.104s-0.229,0.046-0.344,0.058    c-0.117,0.013-0.24,0.02-0.369,0.02c-0.213,0-0.416-0.038-0.609-0.112s-0.363-0.185-0.51-0.329    c-0.147-0.146-0.264-0.326-0.351-0.541c-0.087-0.216-0.13-0.466-0.13-0.75c0-0.275,0.037-0.524,0.111-0.748    c0.074-0.223,0.181-0.414,0.318-0.572s0.306-0.281,0.504-0.367C81.484,49.54,81.707,49.498,81.953,49.498z M81.903,49.997    c-0.245,0-0.444,0.071-0.601,0.215c-0.155,0.144-0.258,0.366-0.307,0.667h1.74c0-0.142-0.021-0.268-0.062-0.377    c-0.041-0.11-0.099-0.203-0.173-0.278s-0.163-0.132-0.266-0.17C82.135,50.016,82.023,49.997,81.903,49.997z"/>
	</g>
	<g class="st3">
		<path class="st4" d="M85.786,48.632c0.149,0,0.29,0.01,0.423,0.028c0.132,0.02,0.252,0.046,0.362,0.078    c0.11,0.031,0.21,0.067,0.302,0.107c0.092,0.041,0.174,0.08,0.246,0.119l-0.146,0.729c-0.068-0.042-0.148-0.086-0.236-0.131    c-0.09-0.047-0.186-0.088-0.29-0.127s-0.216-0.072-0.333-0.098c-0.118-0.027-0.241-0.04-0.369-0.04    c-0.152,0-0.281,0.017-0.385,0.05c-0.104,0.033-0.188,0.076-0.25,0.127s-0.108,0.109-0.136,0.175    c-0.028,0.065-0.042,0.128-0.042,0.189c0,0.072,0.012,0.136,0.033,0.191c0.022,0.056,0.068,0.106,0.14,0.154    c0.071,0.047,0.172,0.093,0.302,0.138c0.131,0.044,0.307,0.091,0.525,0.141c0.189,0.042,0.367,0.096,0.533,0.16    c0.167,0.066,0.313,0.148,0.438,0.248s0.224,0.221,0.296,0.36s0.108,0.308,0.108,0.501c0,0.189-0.041,0.364-0.125,0.525    c-0.084,0.16-0.197,0.301-0.342,0.422s-0.314,0.215-0.508,0.283c-0.195,0.068-0.404,0.102-0.629,0.102    c-0.17,0-0.333-0.012-0.49-0.037c-0.156-0.025-0.305-0.06-0.441-0.104c-0.138-0.045-0.264-0.096-0.377-0.154    c-0.114-0.059-0.213-0.119-0.296-0.184l0.208-0.749c0.095,0.083,0.201,0.159,0.318,0.229c0.119,0.068,0.24,0.129,0.365,0.179    s0.25,0.088,0.377,0.114s0.245,0.039,0.356,0.039c0.122,0,0.233-0.016,0.335-0.047c0.102-0.032,0.189-0.074,0.263-0.125    c0.073-0.052,0.132-0.111,0.173-0.18s0.063-0.138,0.063-0.21c0-0.077-0.016-0.15-0.048-0.218    c-0.032-0.068-0.091-0.134-0.175-0.196c-0.085-0.063-0.201-0.123-0.35-0.181c-0.149-0.059-0.34-0.117-0.573-0.176    c-0.253-0.061-0.46-0.133-0.619-0.216s-0.284-0.175-0.375-0.274c-0.091-0.101-0.151-0.209-0.185-0.325    c-0.034-0.116-0.051-0.24-0.051-0.37c0-0.064,0.011-0.139,0.031-0.225c0.021-0.086,0.056-0.176,0.104-0.27    c0.048-0.092,0.112-0.184,0.191-0.274c0.079-0.09,0.179-0.171,0.298-0.241s0.26-0.129,0.421-0.173S85.574,48.632,85.786,48.632z"/>
	</g>
	<g class="st3">
		<path class="st8" d="M90.206,48.632c0.278,0,0.517,0.032,0.719,0.098c0.201,0.065,0.378,0.15,0.531,0.256l-0.146,0.749    c-0.189-0.139-0.377-0.242-0.563-0.313c-0.187-0.068-0.388-0.104-0.604-0.104c-0.187,0-0.358,0.035-0.519,0.106    s-0.299,0.173-0.417,0.306s-0.21,0.297-0.276,0.491c-0.067,0.194-0.101,0.413-0.101,0.657c0,0.226,0.03,0.43,0.092,0.613    c0.062,0.183,0.148,0.34,0.263,0.472c0.113,0.132,0.251,0.233,0.412,0.306s0.344,0.108,0.546,0.108    c0.253,0,0.481-0.043,0.688-0.129s0.399-0.21,0.583-0.37l0.084,0.729c-0.105,0.08-0.211,0.148-0.314,0.205    c-0.104,0.058-0.214,0.104-0.328,0.143c-0.113,0.037-0.236,0.064-0.366,0.083s-0.273,0.026-0.429,0.026    c-0.281,0-0.543-0.049-0.788-0.147c-0.244-0.099-0.458-0.241-0.642-0.427s-0.328-0.41-0.434-0.674s-0.158-0.563-0.158-0.895    c0-0.314,0.051-0.609,0.152-0.887c0.102-0.278,0.246-0.521,0.434-0.729c0.188-0.209,0.415-0.373,0.684-0.494    C89.576,48.691,89.875,48.632,90.206,48.632z"/>
	</g>
	<g class="st11">
		<path class="st4" d="M93.864,49.498c0.183,0,0.343,0.021,0.483,0.064s0.262,0.104,0.363,0.18s0.188,0.166,0.257,0.268    c0.069,0.103,0.124,0.213,0.165,0.33s0.07,0.24,0.088,0.368s0.027,0.254,0.027,0.378v0.13c0,0.056-0.002,0.099-0.004,0.13h-2.363    c0.007,0.195,0.037,0.365,0.092,0.51s0.129,0.264,0.224,0.357c0.095,0.095,0.205,0.165,0.333,0.212    c0.128,0.046,0.268,0.069,0.418,0.069c0.216,0,0.428-0.023,0.634-0.072s0.412-0.136,0.616-0.26l0.066,0.549    c-0.117,0.061-0.232,0.111-0.346,0.153s-0.227,0.077-0.34,0.104s-0.229,0.046-0.346,0.058c-0.116,0.013-0.239,0.02-0.368,0.02    c-0.214,0-0.417-0.038-0.61-0.112s-0.363-0.185-0.51-0.329c-0.146-0.146-0.264-0.326-0.35-0.541    c-0.087-0.216-0.13-0.466-0.13-0.75c0-0.275,0.037-0.524,0.111-0.748c0.075-0.223,0.181-0.414,0.318-0.572    s0.306-0.281,0.503-0.367C93.396,49.54,93.617,49.498,93.864,49.498z M93.814,49.997c-0.244,0-0.444,0.071-0.6,0.215    c-0.156,0.144-0.258,0.366-0.307,0.667h1.739c0-0.142-0.021-0.268-0.062-0.377c-0.041-0.11-0.099-0.203-0.174-0.278    c-0.074-0.075-0.162-0.132-0.265-0.17S93.935,49.997,93.814,49.997z"/>
	</g>
	<g class="st3">
		<path class="st9" d="M97.947,49.498c0.355,0,0.628,0.115,0.816,0.348c0.189,0.232,0.283,0.576,0.283,1.033v2.082h-0.616v-1.832    c0-0.208-0.014-0.381-0.042-0.516c-0.027-0.136-0.068-0.242-0.123-0.321s-0.123-0.134-0.207-0.165    c-0.083-0.031-0.182-0.047-0.295-0.047c-0.119,0-0.236,0.028-0.352,0.085c-0.114,0.057-0.219,0.13-0.314,0.22    s-0.18,0.191-0.254,0.305c-0.073,0.113-0.127,0.227-0.163,0.34v1.932h-0.616v-2.048c0-0.329-0.019-0.606-0.055-0.835    c-0.037-0.227-0.074-0.398-0.112-0.514h0.601c0.013,0.035,0.025,0.081,0.039,0.138s0.025,0.116,0.037,0.179    c0.011,0.063,0.021,0.123,0.029,0.183l0.027,0.149c0.211-0.252,0.424-0.436,0.64-0.547C97.486,49.554,97.712,49.498,97.947,49.498    z"/>
		<path class="st9" d="M102.934,51.195c0,0.42,0.023,0.772,0.072,1.059c0.047,0.285,0.107,0.521,0.178,0.707h-0.6    c-0.025-0.058-0.055-0.144-0.088-0.258c-0.035-0.115-0.066-0.234-0.096-0.358c-0.16,0.227-0.342,0.399-0.543,0.52    c-0.203,0.12-0.427,0.181-0.674,0.181c-0.204,0-0.389-0.039-0.551-0.115c-0.164-0.077-0.305-0.186-0.421-0.326    c-0.116-0.142-0.206-0.312-0.269-0.51c-0.063-0.199-0.093-0.42-0.093-0.664c0-0.296,0.04-0.563,0.122-0.8    c0.08-0.237,0.192-0.44,0.334-0.608c0.143-0.167,0.311-0.297,0.502-0.387c0.192-0.092,0.4-0.137,0.625-0.137    c0.071,0,0.145,0.008,0.222,0.023c0.077,0.015,0.153,0.036,0.229,0.063c0.077,0.027,0.152,0.057,0.226,0.092    c0.073,0.034,0.142,0.069,0.206,0.105v-0.934c0-0.268-0.006-0.503-0.018-0.704c-0.012-0.2-0.034-0.371-0.064-0.511h0.699V51.195z     M101.434,50.063c-0.127,0-0.248,0.028-0.363,0.087c-0.115,0.058-0.219,0.141-0.309,0.25c-0.09,0.108-0.161,0.241-0.215,0.397    c-0.053,0.157-0.08,0.333-0.08,0.531c0,0.389,0.066,0.683,0.199,0.882c0.132,0.201,0.344,0.301,0.635,0.301    c0.102,0,0.203-0.025,0.305-0.077c0.102-0.051,0.197-0.118,0.287-0.2s0.172-0.176,0.244-0.281c0.074-0.105,0.134-0.213,0.18-0.324    v-1.315c-0.082-0.044-0.158-0.082-0.229-0.113s-0.142-0.057-0.21-0.077c-0.068-0.02-0.139-0.035-0.21-0.045    S101.518,50.063,101.434,50.063z"/>
		<path class="st9" d="M103.784,51.279c0-0.287,0.043-0.54,0.13-0.762c0.086-0.221,0.203-0.406,0.35-0.559s0.318-0.268,0.514-0.345    c0.195-0.078,0.403-0.116,0.623-0.116c0.229,0,0.438,0.038,0.629,0.116c0.189,0.077,0.354,0.192,0.49,0.345    c0.136,0.152,0.242,0.338,0.318,0.559c0.074,0.222,0.113,0.475,0.113,0.762c0,0.286-0.044,0.539-0.131,0.76    c-0.086,0.219-0.203,0.403-0.35,0.553c-0.146,0.148-0.318,0.261-0.514,0.338c-0.195,0.076-0.403,0.115-0.623,0.115    c-0.229,0-0.438-0.039-0.629-0.115c-0.189-0.077-0.354-0.189-0.489-0.338c-0.137-0.149-0.243-0.334-0.318-0.553    C103.822,51.818,103.784,51.565,103.784,51.279z M104.4,51.279c0,0.193,0.023,0.366,0.07,0.52    c0.047,0.152,0.113,0.282,0.198,0.388s0.187,0.187,0.306,0.241c0.117,0.056,0.248,0.084,0.393,0.084    c0.133,0,0.259-0.028,0.377-0.084c0.117-0.055,0.221-0.136,0.309-0.241s0.156-0.235,0.206-0.388    c0.05-0.153,0.075-0.326,0.075-0.52c0-0.195-0.023-0.37-0.07-0.524s-0.113-0.286-0.198-0.394s-0.188-0.189-0.307-0.246    c-0.118-0.057-0.249-0.085-0.392-0.085c-0.136,0-0.262,0.028-0.38,0.085s-0.22,0.139-0.307,0.246s-0.155,0.239-0.205,0.394    S104.4,51.084,104.4,51.279z"/>
	</g>
	<g class="st3">
		<path class="st10" d="M33.785,44.389c0.417,0,0.776,0.049,1.078,0.146c0.302,0.099,0.568,0.227,0.797,0.385l-0.219,1.125    c-0.284-0.209-0.565-0.365-0.844-0.469c-0.279-0.104-0.581-0.156-0.906-0.156c-0.279,0-0.539,0.053-0.778,0.159    s-0.448,0.259-0.625,0.459c-0.177,0.2-0.316,0.445-0.416,0.737c-0.1,0.291-0.15,0.62-0.15,0.986c0,0.338,0.046,0.644,0.138,0.918    c0.091,0.275,0.223,0.512,0.394,0.709c0.171,0.198,0.377,0.352,0.619,0.459c0.242,0.108,0.515,0.162,0.819,0.162    c0.379,0,0.723-0.064,1.031-0.193c0.309-0.129,0.6-0.314,0.875-0.556l0.125,1.093c-0.159,0.121-0.316,0.225-0.472,0.31    s-0.32,0.156-0.491,0.212c-0.171,0.057-0.354,0.098-0.55,0.125c-0.196,0.027-0.41,0.041-0.644,0.041    c-0.421,0-0.815-0.074-1.182-0.222s-0.688-0.361-0.963-0.64c-0.275-0.279-0.492-0.617-0.65-1.013    c-0.159-0.396-0.238-0.843-0.238-1.343c0-0.471,0.076-0.914,0.229-1.33c0.152-0.416,0.369-0.781,0.65-1.094    s0.623-0.559,1.025-0.74C32.839,44.479,33.289,44.389,33.785,44.389z"/>
	</g>
	<g class="st3">
		<path class="st10" d="M40.484,44.389c0.667,0,1.177,0.219,1.532,0.653c0.354,0.435,0.531,1.081,0.531,1.938v3.904h-1.156v-3.436    c0-0.391-0.026-0.714-0.078-0.968c-0.052-0.254-0.13-0.455-0.235-0.603c-0.104-0.148-0.234-0.251-0.391-0.31    c-0.156-0.058-0.338-0.087-0.547-0.087c-0.225,0-0.445,0.053-0.66,0.159c-0.214,0.106-0.412,0.243-0.591,0.412    s-0.337,0.358-0.475,0.571c-0.137,0.213-0.24,0.425-0.306,0.637v3.623h-1.157v-7.058c0-0.675-0.004-1.265-0.012-1.771    s-0.036-0.895-0.082-1.165h1.25v4.81c0.309-0.438,0.671-0.766,1.088-0.984C39.613,44.498,40.042,44.389,40.484,44.389z"/>
	</g>
	<g class="st3">
		<path class="st9" d="M48.252,48.237c0,0.63,0.035,1.158,0.105,1.586c0.07,0.428,0.16,0.782,0.27,1.062h-0.875    c-0.017-0.043-0.04-0.104-0.07-0.18c-0.03-0.076-0.061-0.164-0.092-0.262c-0.032-0.099-0.062-0.205-0.09-0.318    c-0.029-0.113-0.053-0.227-0.073-0.34c-0.13,0.167-0.268,0.324-0.413,0.471s-0.297,0.275-0.458,0.389    c-0.16,0.113-0.327,0.203-0.5,0.268s-0.35,0.098-0.53,0.098c-0.21,0-0.419-0.045-0.627-0.135c-0.208-0.09-0.396-0.225-0.563-0.404    s-0.302-0.406-0.405-0.678c-0.104-0.271-0.155-0.59-0.155-0.956c0-0.384,0.042-0.73,0.127-1.042    c0.085-0.311,0.201-0.588,0.348-0.832c0.13-0.213,0.268-0.398,0.415-0.559c0.146-0.16,0.308-0.293,0.482-0.397    s0.368-0.185,0.578-0.237s0.443-0.08,0.7-0.08c0.127,0,0.268,0.01,0.422,0.027c0.155,0.019,0.313,0.045,0.475,0.078    s0.323,0.072,0.482,0.119c0.16,0.047,0.309,0.098,0.445,0.15V48.237z M46.227,46.539c-0.107,0-0.214,0.012-0.323,0.037    s-0.215,0.067-0.32,0.127c-0.105,0.061-0.207,0.14-0.305,0.238c-0.098,0.098-0.191,0.222-0.277,0.371    c-0.09,0.154-0.163,0.345-0.218,0.572c-0.055,0.229-0.083,0.463-0.083,0.702c0,0.276,0.026,0.514,0.078,0.712    s0.12,0.361,0.205,0.489s0.182,0.223,0.29,0.282c0.108,0.061,0.217,0.09,0.328,0.09c0.14,0,0.292-0.043,0.458-0.129    c0.165-0.088,0.326-0.202,0.482-0.346c0.156-0.143,0.304-0.308,0.442-0.494s0.252-0.38,0.342-0.58v-1.873    c-0.05-0.023-0.114-0.047-0.192-0.069c-0.078-0.023-0.165-0.046-0.26-0.065c-0.095-0.02-0.199-0.035-0.31-0.047    C46.453,46.545,46.34,46.539,46.227,46.539z"/>
	</g>
	<g class="st12">
		<path class="st13" d="M49.107,45.914h1v-1.623h0.925v1.623h1.625v0.725h-1.625v2.298c0,0.257,0.013,0.466,0.038,0.63    c0.025,0.162,0.063,0.29,0.115,0.382c0.052,0.091,0.117,0.153,0.197,0.187c0.08,0.034,0.177,0.051,0.29,0.051    c0.144,0,0.305-0.031,0.485-0.096c0.18-0.063,0.38-0.156,0.6-0.279v0.799c-0.23,0.15-0.45,0.254-0.66,0.313    c-0.21,0.059-0.403,0.088-0.58,0.088c-0.197,0-0.38-0.022-0.55-0.067s-0.319-0.124-0.447-0.237s-0.229-0.264-0.303-0.452    s-0.11-0.427-0.11-0.717v-2.897h-1V45.914z"/>
	</g>
	<path class="st10" d="M88.7,54.5c0,0.6-0.5,1.1-1.1,1.1s-1.1-0.5-1.1-1.1s0.5-1.1,1.1-1.1S88.7,53.9,88.7,54.5z"/>
	<g>
		<path class="st14" d="M16.7,46.1c0.1-0.5,0.1-1.1,0.1-1.5c0,0,0.8-1.8,0-3.4c0,0-0.1-4-1.3-6.1c0,0-1.7-4-6.3-4.5    c0,0,0-1.2-0.7-1.7c0,0,0.4-2.6-0.7-2.7c0,0-0.2-0.7-0.4-0.7c0,0,0.1-2-0.2-2.7c0,0-0.1-0.6-0.4,0c0,0-0.6,1.4-1.9,2    c0,0-1.2-0.1-1.5-0.2c0,0-1.5-1.3-1.7-1.5C1.5,23,0.8,23,0.8,24.2c0,0,0,1.2,0.3,1.7c0,0-0.4,1.6,0.3,2.8c0,0-0.5,3.1-0.6,4.9    c0,0-0.2,2.5,2.4,5.6c0,0,0.3,4.5,0.6,5.5c0,0-0.5,0.7-0.5,0.9H2.8c0,0-0.8,0.4-0.8,0.9c0,0-0.2,0.5,1,0.6c0,0,0.2,0.1,1.1-0.3    c0,0,0.1,0.2,0.4,0.3c0,0,0,0.1,0.4,0.1c0,0,0.3,0.2,0.7,0.1c0,0,0.2,0.1,0.6-0.1l0.6-0.4l0.6-0.2c0,0-0.1,0.2,0.4,0.3    c0,0-0.1,0.2,0.6,0.1c0,0,0.3,0.2,1.3,0c0,0,2.7-0.3,3.9,0.2c0.5,0.2,2.1,0.3,2.5,0c0.1-0.1,0.2-0.3,0.3-0.6"/>
		<path class="st15" d="M16.6,46.1c0,0,2.3-2.1,2.4-6.2c0,0,0.3-3.1,2.5-5.1c0,0,0.9-1,0.6,0.3l-0.8,6.6c0,0,0,1.9-1.5,3    c0,0-2.3,1.7-3.2,2.1V46.1z"/>
		<path class="st16" d="M3.2,39.1c1.5,1.2,1.5,1.3,2.2,1.7"/>
		<path class="st16" d="M6.9,37.6c0,0-1.3,2.9-1.1,4.1"/>
		<path class="st16" d="M6,41c0,0-0.6,2.2-0.7,2.6c0,0-0.3,0.8-0.2,2c0,0-1,0.4-0.9,1.3"/>
		<path class="st16" d="M6.6,47c0,0,0.1-1-0.5-0.7c0,0-0.1-0.6-1-0.7"/>
		<path class="st16" d="M5.7,45.9c0,0-0.8,0.2-0.8,1.3"/>
		<path class="st16" d="M5.4,45.7c0,0-0.9,0.2-0.9,1.5"/>
		<path class="st16" d="M3.2,46.1c0,0-0.5-0.6-0.7,0.5c0,0-0.1,0.4,0.3,0.5"/>
		<path class="st16" d="M3.7,45.7c-0.1,0-0.4,0-0.4,0"/>
		<path class="st16" d="M7.6,46.7c0,0,0-1.1,0.8-1.2c0,0,0.5-0.1,0.7,0.2c0,0,0,0.1,0.7,0.1"/>
		<path class="st16" d="M8.3,46.1c0,0-0.5,0.2-0.4,1"/>
		<path class="st16" d="M9.1,46.3c0,0-0.8,0.2-0.7,0.9"/>
		<path class="st16" d="M13.6,38.9c0,0-2-2.4-3.9,0.4c0,0-1,1.8-0.9,2.9c0,0-1.1,2.2-1.8,2.7"/>
		<path class="st16" d="M7.7,44.1c0,0-0.7,2.4-0.7,2.8"/>
		<path class="st16" d="M9.1,30.5c0,0,0,0.6-0.2,1.2"/>
		<path class="st16" d="M5,24.7c0,0,1.6-0.1,2.2,0.7"/>
		<path class="st16" d="M6.6,25c0,0-0.8-0.3-0.2-1.1c0,0,0.3-0.5,0.3-1"/>
		<path class="st16" d="M1.3,23.1c0,0,1.5,1.3,1.6,1.8c0,0,0,0.3-0.2,0.5c0,0-0.9,0.2-1,0.6c0,0-0.3,0.5-0.6-0.3"/>
		<path class="st16" d="M1.7,26c0,0-0.8-0.5-0.6-1.9"/>
		<path class="st16" d="M5.6,27.3c0,0-0.7-0.1-0.8,1.1"/>
		<path class="st16" d="M7.1,27.2c0,0,1,0.6,0.2,1.7"/>
		<path class="st16" d="M4.9,29c0,0,1.4,0.2,1.7-0.5c0,0,1,0,0.4,1.2"/>
		<path class="st17" d="M5.7,27.5c0,0,0.7-0.6,1.4-0.3c0,0-0.3,0.6-0.4,0.8C6.7,28,6.1,27.5,5.7,27.5z"/>
		<path class="st16" d="M6.7,28.5c0,0,0.1-0.2,0-0.5"/>
		<path class="st16" d="M8.4,28.8c0,0,0,1-3.1,1.3"/>
		<path class="st16" d="M5.8,25.8c0,0,0.8,1,1.3,1.3"/>
		<path class="st16" d="M16.7,45.8c0,0-0.1,0.9-0.2,1.1"/>
		<path class="st10" d="M4.6,26.7c0,0.1-0.1,0.3-0.3,0.3C4.2,27,4,26.9,4,26.7c0-0.1,0.1-0.3,0.3-0.3C4.5,26.4,4.6,26.5,4.6,26.7z"/>
		<path class="st10" d="M7.3,26.2c0,0.1-0.1,0.3-0.3,0.3c-0.1,0-0.3-0.1-0.3-0.3C6.7,26.1,6.9,26,7,26S7.3,26.1,7.3,26.2z"/>
		<path class="st18" d="M16.6,46.1c0.1-0.5,0.2-1.1,0.2-1.5c0,0,0.8-1.8,0-3.4c0,0-0.1-4-1.3-6.1c0,0-1.7-4-6.3-4.5    c0,0,0-1.2-0.7-1.7c0,0,0.4-2.6-0.7-2.7c0,0-0.2-0.7-0.4-0.7c0,0,0.1-2-0.2-2.7c0,0-0.1-0.6-0.4,0c0,0-0.6,1.4-1.9,2    c0,0-1.2-0.1-1.5-0.2c0,0-1.5-1.3-1.7-1.5C1.5,23,0.8,23,0.8,24.2c0,0,0,1.2,0.3,1.7c0,0-0.4,1.6,0.3,2.8c0,0-0.5,3.1-0.6,4.9    c0,0-0.2,2.5,2.4,5.6c0,0,0.3,4.5,0.6,5.5c0,0-0.5,0.7-0.5,0.9H2.8c0,0-0.8,0.4-0.8,0.9c0,0-0.2,0.5,1,0.6c0,0,0.2,0.1,1.1-0.3    c0,0,0.1,0.2,0.4,0.3c0,0,0,0.1,0.4,0.1c0,0,0.3,0.2,0.7,0.1c0,0,0.2,0.1,0.6-0.1l0.6-0.4l0.6-0.2c0,0-0.1,0.2,0.4,0.3    c0,0-0.1,0.2,0.6,0.1c0,0,0.3,0.2,1.3,0c0,0,2.7-0.3,3.9,0.2c0.5,0.2,2.1,0.3,2.5,0c0.1-0.1,0.2-0.3,0.3-0.6"/>
	</g>
</g>
</svg>