<?xml version="1.0" encoding="UTF-8"?>
<!-- Generator: Adobe Illustrator 24.0.2, SVG Export Plug-In . SVG Version: 6.00 Build 0)  -->
<svg version="1.1" id="Calque_1" xmlns="http://www.w3.org/2000/svg" xmlns:xlink="http://www.w3.org/1999/xlink" x="0px" y="0px" viewBox="0 0 97 72" style="enable-background:new 0 0 97 72;" xml:space="preserve">
<style type="text/css">
	.st0{fill:#FFFFFF;stroke:#DADADA;stroke-width:0.7267;stroke-miterlimit:10;}
	.st1{fill:#FFFFFF;stroke:#000000;stroke-width:0.9689;stroke-miterlimit:10;}
	.st2{fill:none;stroke:#B2B2B2;stroke-width:0.3633;stroke-miterlimit:10;}
	.st3{fill:#B2B2B2;}
	.st4{fill:#E11683;}
	.st5{fill:#9D9D9C;}
	.st6{fill:#7DB728;}
	.st7{fill:#575756;}
	.st8{fill:#878787;}
	.st9{opacity:0.6;fill:#E11683;}
	.st10{fill:none;}
	.st11{fill:#FFFFFF;}
	.st12{fill:#E11683;stroke:#575756;stroke-width:0.1743;stroke-linecap:round;stroke-linejoin:round;stroke-miterlimit:10;}
	.st13{fill:#FFFFFF;stroke:#575756;stroke-width:0.8545;stroke-miterlimit:10;}
	.st14{fill:none;stroke:#575756;stroke-width:0.1743;stroke-linecap:round;stroke-linejoin:round;stroke-miterlimit:10;}
	.st15{fill:#FFFFFF;stroke:#575756;stroke-width:0.1743;stroke-linecap:round;stroke-linejoin:round;stroke-miterlimit:10;}
	.st16{fill:none;stroke:#575756;stroke-width:0.523;stroke-linecap:round;stroke-linejoin:round;stroke-miterlimit:10;}
	.st17{fill:#FFFFFF;stroke:#575756;stroke-width:0.523;stroke-linecap:round;stroke-linejoin:round;stroke-miterlimit:10;}
</style>
<rect x="58.61" y="0.345" class="st0" width="37.812" height="12.13"/>
<path class="st1" d="M34.944,58.892H0.72V0.77h57.943v58.122H42.058c0,0-5.351,9.682-14.169,11.55  C27.889,70.443,33.179,66.901,34.944,58.892z"/>
<path class="st2" d="M27.091,55.301c0,0,6.767,3.146,15.68,0"/>
<path class="st2" d="M44.155,55.301c0,0,4.205,3.146,9.744,0"/>
<path class="st2" d="M7.431,55.201c0,0,8.681,3.212,18.021,0"/>
<g>
	<path class="st3" d="M66.551,7.725c0,0.421,0.023,0.775,0.069,1.062c0.047,0.287,0.107,0.523,0.181,0.71h-0.584   c-0.011-0.029-0.026-0.069-0.046-0.12c-0.021-0.051-0.041-0.11-0.062-0.176c-0.021-0.066-0.042-0.136-0.061-0.212   c-0.019-0.076-0.035-0.151-0.048-0.227c-0.087,0.111-0.179,0.216-0.275,0.314c-0.097,0.098-0.198,0.185-0.305,0.261   c-0.106,0.076-0.218,0.136-0.333,0.179c-0.116,0.043-0.233,0.065-0.354,0.065c-0.141,0-0.279-0.03-0.418-0.09   c-0.14-0.06-0.265-0.15-0.375-0.271c-0.111-0.121-0.201-0.271-0.271-0.453c-0.068-0.182-0.104-0.395-0.104-0.64   c0-0.256,0.028-0.489,0.085-0.697c0.057-0.208,0.134-0.394,0.232-0.557c0.086-0.143,0.179-0.267,0.276-0.374   c0.098-0.107,0.205-0.196,0.321-0.266c0.117-0.07,0.245-0.123,0.385-0.159c0.141-0.036,0.296-0.054,0.467-0.054   c0.085,0,0.179,0.006,0.281,0.019c0.104,0.012,0.209,0.03,0.317,0.052c0.107,0.022,0.215,0.049,0.321,0.081s0.205,0.064,0.297,0.1   V7.725z M65.201,6.588c-0.071,0-0.144,0.009-0.216,0.025c-0.071,0.017-0.143,0.045-0.213,0.085   c-0.07,0.041-0.138,0.093-0.203,0.159c-0.065,0.065-0.127,0.148-0.186,0.249c-0.06,0.103-0.107,0.23-0.145,0.383   c-0.037,0.152-0.055,0.309-0.055,0.47c0,0.185,0.017,0.344,0.052,0.476c0.034,0.133,0.08,0.242,0.137,0.328   c0.057,0.086,0.12,0.149,0.192,0.189s0.146,0.06,0.219,0.06c0.094,0,0.195-0.029,0.305-0.087c0.11-0.058,0.218-0.135,0.322-0.23   s0.202-0.206,0.295-0.331c0.092-0.125,0.168-0.254,0.228-0.388V6.722C65.9,6.706,65.857,6.69,65.806,6.675   c-0.052-0.015-0.11-0.03-0.173-0.043C65.569,6.618,65.5,6.607,65.426,6.6S65.276,6.588,65.201,6.588z"/>
	<path class="st4" d="M71.342,7.282c0,0.526,0.029,0.969,0.09,1.327c0.06,0.358,0.134,0.654,0.223,0.888h-0.75   c-0.03-0.072-0.067-0.18-0.11-0.324s-0.083-0.293-0.119-0.449c-0.199,0.284-0.426,0.501-0.679,0.652s-0.533,0.226-0.842,0.226   c-0.255,0-0.485-0.048-0.689-0.144s-0.379-0.233-0.524-0.41c-0.146-0.177-0.258-0.39-0.336-0.639   c-0.077-0.25-0.116-0.527-0.116-0.834c0-0.371,0.051-0.705,0.152-1.003c0.101-0.298,0.24-0.552,0.418-0.763   c0.178-0.21,0.387-0.373,0.627-0.487s0.501-0.171,0.781-0.171c0.089,0,0.182,0.01,0.277,0.029s0.191,0.046,0.287,0.08   c0.096,0.033,0.189,0.072,0.281,0.115c0.092,0.043,0.178,0.087,0.259,0.132v-1.17c0-0.337-0.008-0.631-0.023-0.884   c-0.015-0.252-0.042-0.466-0.081-0.641h0.875V7.282z M69.467,5.861c-0.158,0-0.31,0.036-0.454,0.109   c-0.145,0.072-0.272,0.177-0.385,0.313c-0.113,0.136-0.202,0.303-0.269,0.499c-0.067,0.197-0.101,0.419-0.101,0.667   c0,0.488,0.083,0.857,0.248,1.107c0.165,0.251,0.43,0.376,0.794,0.376c0.127,0,0.254-0.032,0.381-0.096   c0.126-0.064,0.246-0.148,0.358-0.251s0.215-0.221,0.306-0.353c0.092-0.132,0.167-0.268,0.226-0.407V6.174   c-0.104-0.056-0.199-0.103-0.288-0.142s-0.176-0.071-0.262-0.096c-0.087-0.025-0.174-0.044-0.263-0.056   C69.67,5.867,69.572,5.861,69.467,5.861z"/>
	<path class="st5" d="M76.299,7.282c0,0.526,0.029,0.969,0.09,1.327c0.06,0.358,0.134,0.654,0.223,0.888h-0.75   c-0.03-0.072-0.067-0.18-0.11-0.324s-0.083-0.293-0.119-0.449c-0.199,0.284-0.426,0.501-0.679,0.652s-0.533,0.226-0.842,0.226   c-0.255,0-0.485-0.048-0.689-0.144s-0.379-0.233-0.524-0.41c-0.146-0.177-0.258-0.39-0.336-0.639   c-0.077-0.25-0.116-0.527-0.116-0.834c0-0.371,0.051-0.705,0.152-1.003c0.101-0.298,0.24-0.552,0.418-0.763   c0.178-0.21,0.387-0.373,0.627-0.487s0.501-0.171,0.781-0.171c0.089,0,0.182,0.01,0.277,0.029s0.191,0.046,0.287,0.08   c0.096,0.033,0.189,0.072,0.281,0.115c0.092,0.043,0.178,0.087,0.259,0.132v-1.17c0-0.337-0.008-0.631-0.023-0.884   C75.49,3.2,75.463,2.986,75.424,2.811h0.875V7.282z M74.424,5.861c-0.158,0-0.31,0.036-0.454,0.109   c-0.145,0.072-0.272,0.177-0.385,0.313c-0.113,0.136-0.202,0.303-0.269,0.499c-0.067,0.197-0.101,0.419-0.101,0.667   c0,0.488,0.083,0.857,0.248,1.107c0.165,0.251,0.43,0.376,0.794,0.376c0.127,0,0.254-0.032,0.381-0.096   c0.126-0.064,0.246-0.148,0.358-0.251s0.215-0.221,0.306-0.353c0.092-0.132,0.167-0.268,0.226-0.407V6.174   c-0.104-0.056-0.199-0.103-0.288-0.142s-0.176-0.071-0.262-0.096c-0.087-0.025-0.174-0.044-0.263-0.056   C74.627,5.867,74.529,5.861,74.424,5.861z"/>
	<path class="st3" d="M77.481,5c0-0.062,0.01-0.121,0.03-0.175c0.02-0.055,0.048-0.103,0.085-0.144   c0.036-0.041,0.08-0.073,0.132-0.097c0.051-0.023,0.107-0.035,0.17-0.035c0.062,0,0.119,0.012,0.173,0.035s0.099,0.056,0.137,0.097   c0.038,0.042,0.067,0.089,0.09,0.144S78.331,4.938,78.331,5c0,0.063-0.011,0.121-0.033,0.176s-0.052,0.103-0.09,0.144   c-0.038,0.042-0.083,0.074-0.137,0.097s-0.111,0.035-0.173,0.035c-0.063,0-0.119-0.012-0.17-0.035   c-0.052-0.023-0.096-0.056-0.132-0.097c-0.037-0.041-0.065-0.089-0.085-0.144C77.491,5.121,77.481,5.063,77.481,5z M78.215,7.909   c0,0.107,0.001,0.233,0.005,0.379c0.003,0.146,0.008,0.293,0.014,0.443c0.005,0.149,0.012,0.292,0.02,0.428   c0.008,0.136,0.018,0.249,0.028,0.338h-0.684V7.725c0-0.163,0-0.323-0.001-0.481c-0.001-0.158-0.004-0.308-0.007-0.45   c-0.004-0.141-0.009-0.273-0.015-0.394c-0.007-0.122-0.016-0.226-0.027-0.313h0.667V7.909z"/>
	<path class="st6" d="M78.947,6.17h0.667V5.083h0.616V6.17h1.083v0.484H80.23v1.538c0,0.171,0.009,0.312,0.025,0.421   c0.017,0.109,0.042,0.195,0.076,0.256c0.035,0.062,0.079,0.103,0.132,0.125c0.054,0.022,0.118,0.033,0.193,0.033   c0.096,0,0.203-0.021,0.323-0.063c0.12-0.042,0.254-0.104,0.4-0.187v0.535c-0.153,0.101-0.3,0.17-0.44,0.209   c-0.14,0.039-0.269,0.059-0.387,0.059c-0.131,0-0.253-0.015-0.366-0.045c-0.113-0.03-0.213-0.083-0.299-0.159   C79.804,9.3,79.736,9.2,79.688,9.074s-0.073-0.286-0.073-0.48V6.655h-0.667V6.17z"/>
	<path class="st3" d="M82.147,5c0-0.062,0.01-0.121,0.03-0.175c0.02-0.055,0.048-0.103,0.085-0.144   c0.036-0.041,0.08-0.073,0.132-0.097c0.051-0.023,0.107-0.035,0.17-0.035c0.062,0,0.119,0.012,0.173,0.035s0.099,0.056,0.137,0.097   c0.038,0.042,0.067,0.089,0.09,0.144S82.997,4.938,82.997,5c0,0.063-0.011,0.121-0.033,0.176s-0.052,0.103-0.09,0.144   c-0.038,0.042-0.083,0.074-0.137,0.097s-0.111,0.035-0.173,0.035c-0.063,0-0.119-0.012-0.17-0.035   c-0.052-0.023-0.096-0.056-0.132-0.097c-0.037-0.041-0.065-0.089-0.085-0.144C82.157,5.121,82.147,5.063,82.147,5z M82.881,7.909   c0,0.107,0.001,0.233,0.005,0.379c0.003,0.146,0.008,0.293,0.014,0.443c0.005,0.149,0.012,0.292,0.02,0.428   c0.008,0.136,0.018,0.249,0.028,0.338h-0.684V7.725c0-0.163,0-0.323-0.001-0.481c-0.001-0.158-0.004-0.308-0.007-0.45   c-0.004-0.141-0.009-0.273-0.015-0.394c-0.007-0.122-0.016-0.226-0.027-0.313h0.667V7.909z"/>
	<path class="st3" d="M83.83,7.808c0-0.287,0.044-0.542,0.13-0.764c0.087-0.222,0.203-0.409,0.351-0.562   c0.146-0.153,0.317-0.268,0.513-0.346s0.403-0.117,0.623-0.117c0.229,0,0.438,0.039,0.629,0.117   c0.189,0.078,0.353,0.193,0.489,0.346c0.137,0.152,0.243,0.34,0.318,0.562c0.076,0.222,0.113,0.477,0.113,0.764   c0,0.288-0.043,0.542-0.13,0.762c-0.087,0.221-0.203,0.406-0.35,0.555s-0.317,0.262-0.514,0.339C85.808,9.542,85.6,9.58,85.38,9.58   c-0.229,0-0.438-0.039-0.628-0.115c-0.19-0.077-0.354-0.19-0.49-0.339S84.02,8.791,83.943,8.57   C83.868,8.35,83.83,8.096,83.83,7.808z M84.447,7.808c0,0.194,0.022,0.368,0.069,0.522c0.047,0.153,0.113,0.283,0.198,0.389   c0.086,0.106,0.188,0.187,0.306,0.243c0.117,0.056,0.248,0.083,0.393,0.083c0.134,0,0.259-0.028,0.377-0.083   c0.117-0.056,0.221-0.137,0.309-0.243c0.087-0.106,0.156-0.236,0.206-0.389c0.05-0.154,0.075-0.328,0.075-0.522   c0-0.196-0.023-0.372-0.07-0.526c-0.046-0.155-0.112-0.286-0.198-0.395c-0.085-0.108-0.188-0.19-0.307-0.247   c-0.118-0.057-0.249-0.085-0.392-0.085c-0.136,0-0.262,0.028-0.38,0.085c-0.117,0.057-0.22,0.139-0.307,0.247   c-0.086,0.108-0.154,0.24-0.205,0.395C84.472,7.437,84.447,7.612,84.447,7.808z"/>
	<path class="st3" d="M89.71,6.02c0.355,0,0.627,0.117,0.816,0.35c0.188,0.233,0.283,0.579,0.283,1.038v2.089h-0.616V7.658   c0-0.209-0.015-0.382-0.042-0.518c-0.028-0.136-0.069-0.244-0.123-0.323c-0.055-0.079-0.124-0.134-0.207-0.165   c-0.083-0.031-0.182-0.047-0.295-0.047c-0.12,0-0.237,0.028-0.352,0.085c-0.114,0.057-0.22,0.13-0.314,0.221   c-0.096,0.09-0.181,0.192-0.254,0.306c-0.073,0.113-0.128,0.227-0.163,0.341v1.939h-0.616V7.44c0-0.33-0.019-0.609-0.056-0.837   c-0.036-0.229-0.073-0.4-0.111-0.517h0.6c0.014,0.036,0.027,0.082,0.04,0.139c0.014,0.057,0.025,0.116,0.037,0.179   c0.011,0.063,0.021,0.124,0.029,0.184l0.027,0.151c0.211-0.254,0.424-0.438,0.64-0.55C89.249,6.076,89.475,6.02,89.71,6.02z"/>
</g>
<g>
	<path class="st7" d="M47.996,10.341V7.466c0-0.195-0.002-0.377-0.006-0.545c-0.004-0.168-0.01-0.32-0.019-0.454   c-0.008-0.133-0.021-0.242-0.038-0.326c0.059-0.003,0.133-0.006,0.223-0.011c0.09-0.004,0.19-0.007,0.3-0.01   c0.109-0.003,0.225-0.005,0.346-0.008s0.241-0.005,0.362-0.006s0.238-0.002,0.353-0.004C49.63,6.101,49.734,6.1,49.829,6.1   c0.11,0,0.237,0.006,0.381,0.019c0.143,0.012,0.293,0.037,0.45,0.073c0.156,0.036,0.317,0.087,0.482,0.152   c0.166,0.065,0.325,0.151,0.479,0.257c0.154,0.106,0.299,0.234,0.436,0.385c0.136,0.15,0.255,0.329,0.356,0.535   c0.101,0.206,0.182,0.444,0.241,0.712c0.06,0.269,0.09,0.575,0.09,0.917c0,0.415-0.046,0.781-0.138,1.097   c-0.092,0.316-0.215,0.59-0.369,0.821c-0.153,0.231-0.332,0.425-0.535,0.581c-0.202,0.156-0.415,0.281-0.637,0.376   c-0.223,0.095-0.447,0.162-0.676,0.201c-0.228,0.039-0.442,0.059-0.646,0.059c-0.066,0-0.144-0.001-0.231-0.002   c-0.087-0.001-0.18-0.002-0.276-0.004c-0.098-0.001-0.197-0.003-0.3-0.006c-0.103-0.003-0.203-0.006-0.3-0.008   c-0.228-0.006-0.462-0.013-0.704-0.021c0.017-0.083,0.028-0.191,0.036-0.322c0.007-0.131,0.012-0.278,0.017-0.443   c0.004-0.165,0.007-0.343,0.008-0.537C47.995,10.748,47.996,10.547,47.996,10.341z M48.787,11.553   c0.097,0.008,0.225,0.018,0.381,0.027c0.157,0.01,0.336,0.014,0.536,0.014c0.186,0,0.37-0.018,0.552-0.054s0.355-0.094,0.521-0.173   s0.318-0.182,0.46-0.307s0.265-0.275,0.367-0.449s0.184-0.375,0.241-0.604c0.059-0.228,0.088-0.486,0.088-0.773   c0-0.468-0.06-0.859-0.177-1.174c-0.118-0.315-0.277-0.567-0.478-0.758s-0.434-0.328-0.702-0.41   c-0.268-0.082-0.552-0.123-0.852-0.123c-0.069,0-0.147,0-0.233,0.002s-0.173,0.003-0.261,0.006   c-0.087,0.002-0.17,0.005-0.248,0.006s-0.143,0.003-0.196,0.006V11.553z"/>
</g>
<g>
	<path class="st7" d="M6.786,13.883c-0.513,0-0.88-0.218-1.1-0.653c-0.196-0.337-0.288-0.775-0.275-1.314   c0-0.681,0.159-1.241,0.477-1.683c0.354-0.466,0.88-0.699,1.576-0.699c0.434,0,0.773,0.125,1.018,0.377V5.204h0.861v7.226v0.294   c0,0.301,0.018,0.497,0.055,0.588C9.459,13.484,9.6,13.57,9.82,13.57c0.159,0,0.33-0.168,0.513-0.506   c0.006-0.019,0.015-0.043,0.027-0.074c0.012-0.03,0.028-0.064,0.046-0.101c0.012-0.03,0.026-0.065,0.042-0.105   c0.015-0.04,0.032-0.081,0.05-0.124c0.024-0.08,0.061-0.172,0.11-0.276c0.019-0.055,0.038-0.11,0.06-0.166s0.044-0.113,0.069-0.175   l0.146,0.294c-0.256,0.735-0.458,1.17-0.605,1.305c-0.152,0.153-0.363,0.23-0.632,0.23c-0.519,0-0.834-0.061-0.944-0.184   c-0.146-0.128-0.22-0.398-0.22-0.809c-0.238,0.306-0.486,0.545-0.743,0.717c-0.299,0.184-0.62,0.276-0.962,0.276L6.786,13.883z    M8.482,10.527c-0.123-0.502-0.41-0.753-0.862-0.753s-0.794,0.217-1.026,0.652c-0.184,0.331-0.275,0.754-0.275,1.269   c0,0.355,0.079,0.687,0.238,0.993c0.183,0.355,0.455,0.533,0.815,0.533c0.226,0,0.437-0.073,0.632-0.221   c0.171-0.128,0.33-0.309,0.477-0.542V10.527z"/>
</g>
<g>
	<path class="st7" d="M35.311,30.918c0,2.211,0.125,4.069,0.376,5.573c0.251,1.504,0.563,2.747,0.936,3.729h-3.149   c-0.128-0.304-0.283-0.758-0.463-1.36c-0.181-0.603-0.347-1.231-0.499-1.887c-0.84,1.193-1.791,2.106-2.852,2.738   c-1.062,0.632-2.24,0.947-3.535,0.947c-1.073,0-2.039-0.201-2.896-0.605c-0.857-0.403-1.592-0.977-2.205-1.72   c-0.613-0.743-1.083-1.638-1.409-2.686c-0.327-1.047-0.49-2.214-0.49-3.501c0-1.556,0.212-2.96,0.638-4.212s1.012-2.32,1.759-3.203   c0.746-0.883,1.624-1.565,2.633-2.045c1.009-0.479,2.102-0.72,3.281-0.72c0.373,0,0.761,0.042,1.164,0.123   c0.402,0.082,0.805,0.193,1.207,0.333c0.402,0.14,0.796,0.301,1.181,0.482c0.385,0.182,0.746,0.366,1.085,0.553v-4.915   c0-1.416-0.032-2.653-0.096-3.712c-0.064-1.059-0.178-1.957-0.341-2.694h3.674V30.918z M27.437,24.951   c-0.665,0-1.301,0.152-1.907,0.456c-0.607,0.305-1.146,0.744-1.619,1.316c-0.472,0.574-0.849,1.272-1.128,2.098   c-0.28,0.825-0.42,1.758-0.42,2.799c0,2.048,0.347,3.598,1.041,4.651c0.694,1.054,1.805,1.58,3.333,1.58   c0.537,0,1.07-0.135,1.601-0.404c0.531-0.269,1.032-0.62,1.505-1.053c0.472-0.433,0.901-0.927,1.286-1.483   c0.385-0.556,0.7-1.126,0.945-1.711v-6.933c-0.432-0.234-0.834-0.433-1.208-0.597c-0.374-0.164-0.741-0.298-1.102-0.404   c-0.362-0.105-0.729-0.185-1.103-0.237C28.288,24.978,27.88,24.951,27.437,24.951z"/>
</g>
<g>
	<path class="st8" d="M3.354,62.87H4.79v0.164H4.184c-0.132,0-0.222,0.043-0.27,0.127c-0.026,0.047-0.04,0.108-0.04,0.185v4.603   c0,0.102,0.015,0.178,0.043,0.228c0.05,0.087,0.146,0.131,0.29,0.131H4.79v0.174H3.354V62.87z"/>
	<path class="st8" d="M8.856,66.818c0,0.124,0.029,0.211,0.085,0.261c0.05,0.045,0.138,0.072,0.265,0.082   c0.102,0.009,0.154,0.031,0.155,0.067c-0.015,0.033-0.179,0.072-0.492,0.117c-0.037,0.005-0.104,0.024-0.204,0.058   c-0.086,0.03-0.155,0.046-0.205,0.046c-0.037,0-0.058-0.012-0.062-0.035v-0.608c-0.073,0.135-0.166,0.253-0.278,0.354   c-0.09,0.082-0.214,0.154-0.373,0.215c-0.17,0.067-0.36,0.099-0.57,0.094c-0.262-0.006-0.504-0.081-0.725-0.226   c-0.454-0.298-0.679-0.759-0.675-1.384c0.002-0.455,0.158-0.849,0.467-1.181c0.31-0.332,0.688-0.497,1.138-0.496   c0.297,0,0.586,0.107,0.866,0.321l0.164,0.123v-1.78c0-0.294-0.133-0.453-0.4-0.478c-0.111-0.01-0.167-0.03-0.167-0.062   c0-0.012,0.173-0.062,0.519-0.15c0.031-0.008,0.117-0.041,0.258-0.098c0.126-0.05,0.2-0.075,0.22-0.075   c0.023,0.012,0.035,0.029,0.035,0.056c0,0.017-0.004,0.041-0.011,0.075c-0.007,0.033-0.011,0.059-0.011,0.075V66.818z M6.7,66.783   c0.277,0.279,0.563,0.418,0.86,0.418c0.307,0,0.551-0.124,0.733-0.372c0.076-0.103,0.113-0.197,0.113-0.284v-1.369   c0-0.099-0.058-0.226-0.175-0.383c-0.099-0.134-0.197-0.238-0.293-0.313C7.781,64.359,7.587,64.3,7.355,64.3   c-0.119,0-0.237,0.016-0.355,0.047c-0.254,0.066-0.449,0.225-0.583,0.473c-0.115,0.215-0.173,0.466-0.173,0.752   C6.243,66.073,6.396,66.478,6.7,66.783z"/>
	<path class="st8" d="M11.779,68.48h-1.439v-0.167h0.61c0.204,0,0.307-0.103,0.307-0.308v-4.607c0-0.236-0.11-0.354-0.33-0.354   h-0.586V62.87h1.439V68.48z"/>
</g>
<g>
	<path class="st8" d="M45.378,63.595v0.401h-1.45v0.602c0,0.249,0.002,0.469,0.005,0.658s0.014,0.334,0.032,0.433h-0.55   c0.019-0.101,0.029-0.245,0.033-0.435c0.003-0.19,0.005-0.409,0.005-0.656V62.78c0-0.112-0.001-0.216-0.004-0.31   c-0.002-0.095-0.006-0.18-0.011-0.255s-0.012-0.138-0.022-0.188h2.175v0.414h-1.663v1.153H45.378z"/>
	<path class="st8" d="M46.128,64.422c0-0.215,0.033-0.406,0.098-0.572c0.065-0.167,0.152-0.307,0.262-0.422   c0.11-0.114,0.238-0.2,0.385-0.259c0.146-0.059,0.302-0.088,0.467-0.088c0.172,0,0.329,0.029,0.471,0.088s0.265,0.145,0.368,0.259   c0.102,0.115,0.182,0.255,0.238,0.422c0.057,0.166,0.085,0.357,0.085,0.572c0,0.216-0.032,0.406-0.097,0.572   c-0.065,0.165-0.152,0.304-0.263,0.416c-0.11,0.112-0.238,0.197-0.385,0.255s-0.302,0.086-0.467,0.086   c-0.172,0-0.329-0.028-0.471-0.086s-0.265-0.143-0.368-0.255s-0.182-0.251-0.239-0.416C46.156,64.828,46.128,64.638,46.128,64.422z    M46.59,64.422c0,0.146,0.018,0.276,0.053,0.392s0.084,0.213,0.148,0.292c0.064,0.079,0.141,0.14,0.229,0.182   s0.187,0.063,0.295,0.063c0.1,0,0.194-0.021,0.282-0.063s0.166-0.103,0.231-0.182s0.117-0.177,0.155-0.292s0.056-0.246,0.056-0.392   c0-0.146-0.017-0.278-0.052-0.395s-0.084-0.215-0.149-0.296c-0.064-0.081-0.141-0.143-0.23-0.186   c-0.089-0.043-0.187-0.063-0.293-0.063c-0.102,0-0.197,0.021-0.285,0.063s-0.165,0.104-0.23,0.186s-0.116,0.18-0.153,0.296   C46.609,64.144,46.59,64.275,46.59,64.422z"/>
	<path class="st8" d="M49.127,65.688v-1.542c0-0.247-0.014-0.457-0.041-0.628c-0.027-0.172-0.055-0.301-0.083-0.388h0.45   c0.02,0.047,0.037,0.105,0.053,0.177s0.029,0.15,0.041,0.237c0.01,0.087,0.018,0.18,0.023,0.278   c0.005,0.099,0.008,0.198,0.008,0.298v0.163c0.084-0.235,0.168-0.431,0.249-0.585c0.082-0.155,0.163-0.278,0.244-0.37   s0.162-0.156,0.244-0.193c0.081-0.036,0.164-0.055,0.249-0.055c0.063,0,0.122,0.006,0.176,0.018   c0.053,0.012,0.107,0.03,0.162,0.058l-0.075,0.464c-0.048-0.021-0.091-0.033-0.127-0.04c-0.037-0.007-0.082-0.011-0.136-0.011   c-0.068,0-0.14,0.029-0.215,0.087c-0.074,0.058-0.148,0.134-0.221,0.229s-0.142,0.203-0.206,0.323   c-0.065,0.12-0.122,0.244-0.172,0.37c-0.049,0.126-0.088,0.249-0.117,0.37c-0.029,0.12-0.044,0.227-0.044,0.32   c0,0.042,0,0.08,0.002,0.115c0,0.035,0.003,0.069,0.007,0.102c0.005,0.033,0.01,0.065,0.017,0.098   c0.006,0.033,0.015,0.067,0.025,0.104H49.127z"/>
	<path class="st8" d="M52.502,63.081c0.167,0,0.311,0.02,0.432,0.059c0.12,0.039,0.227,0.091,0.318,0.154l-0.088,0.451   c-0.113-0.083-0.226-0.146-0.337-0.188c-0.111-0.042-0.232-0.063-0.362-0.063c-0.112,0-0.216,0.021-0.312,0.064   s-0.179,0.104-0.25,0.185c-0.07,0.08-0.126,0.179-0.166,0.296c-0.04,0.116-0.061,0.249-0.061,0.396   c0,0.136,0.019,0.259,0.056,0.369c0.036,0.11,0.089,0.205,0.157,0.284s0.15,0.141,0.247,0.185c0.097,0.043,0.206,0.065,0.328,0.065   c0.151,0,0.289-0.026,0.412-0.078s0.24-0.126,0.35-0.224l0.051,0.439c-0.063,0.048-0.127,0.09-0.189,0.124   s-0.128,0.063-0.196,0.085s-0.142,0.039-0.22,0.05c-0.078,0.012-0.164,0.017-0.257,0.017c-0.169,0-0.326-0.029-0.473-0.089   s-0.275-0.145-0.385-0.257c-0.11-0.112-0.197-0.247-0.261-0.406c-0.063-0.159-0.095-0.339-0.095-0.539   c0-0.188,0.03-0.367,0.092-0.534c0.061-0.167,0.147-0.313,0.26-0.438c0.112-0.126,0.249-0.225,0.41-0.298   C52.124,63.117,52.304,63.081,52.502,63.081z"/>
	<path class="st8" d="M54.952,63.081c0.137,0,0.257,0.016,0.362,0.049c0.104,0.032,0.195,0.077,0.272,0.136   c0.076,0.058,0.141,0.124,0.192,0.201s0.093,0.16,0.124,0.248c0.03,0.089,0.053,0.182,0.065,0.277   c0.014,0.097,0.021,0.191,0.021,0.285v0.098c0,0.041-0.001,0.074-0.003,0.098h-1.771c0.005,0.146,0.027,0.274,0.068,0.384   c0.041,0.108,0.097,0.198,0.168,0.27c0.07,0.07,0.153,0.124,0.25,0.159c0.096,0.035,0.2,0.053,0.313,0.053   c0.161,0,0.319-0.019,0.475-0.056s0.31-0.102,0.463-0.195l0.05,0.413c-0.089,0.046-0.175,0.084-0.26,0.116   c-0.085,0.031-0.17,0.058-0.256,0.077c-0.085,0.021-0.171,0.035-0.258,0.044c-0.088,0.009-0.18,0.014-0.276,0.014   c-0.16,0-0.313-0.027-0.458-0.084c-0.145-0.056-0.272-0.139-0.382-0.248c-0.11-0.109-0.197-0.245-0.263-0.407   s-0.098-0.351-0.098-0.564c0-0.207,0.028-0.395,0.084-0.563s0.136-0.313,0.238-0.432c0.104-0.119,0.229-0.211,0.378-0.275   S54.767,63.081,54.952,63.081z M54.914,63.457c-0.183,0-0.333,0.054-0.449,0.162c-0.117,0.107-0.193,0.275-0.23,0.502h1.305   c0-0.106-0.016-0.201-0.046-0.284c-0.031-0.083-0.074-0.152-0.13-0.209c-0.056-0.058-0.122-0.1-0.199-0.128   C55.088,63.471,55.004,63.457,54.914,63.457z"/>
</g>
<g>
	<path class="st8" d="M46.001,70.617l-0.308-0.363c0.258-0.164,0.484-0.362,0.677-0.596s0.323-0.473,0.388-0.719   c-0.159,0.099-0.344,0.148-0.558,0.148c-0.267,0-0.495-0.1-0.686-0.299c-0.191-0.198-0.286-0.438-0.286-0.717   c0-0.291,0.102-0.537,0.305-0.739c0.204-0.202,0.452-0.304,0.745-0.304c0.33,0,0.6,0.119,0.81,0.358s0.315,0.546,0.315,0.92   c0,0.425-0.131,0.854-0.395,1.288C46.745,70.029,46.409,70.37,46.001,70.617z M46.855,68.44c0.02-0.133,0.03-0.22,0.03-0.261   c0-0.202-0.056-0.367-0.169-0.496c-0.112-0.129-0.257-0.193-0.434-0.193c-0.162,0-0.295,0.055-0.401,0.165   c-0.105,0.109-0.159,0.246-0.159,0.412c0,0.152,0.058,0.283,0.173,0.394c0.115,0.11,0.252,0.165,0.412,0.165   C46.495,68.626,46.677,68.564,46.855,68.44z"/>
	<path class="st8" d="M48.561,70.617l-0.308-0.363c0.258-0.164,0.484-0.362,0.677-0.596c0.193-0.233,0.323-0.473,0.388-0.719   c-0.159,0.099-0.345,0.148-0.558,0.148c-0.267,0-0.495-0.1-0.686-0.299c-0.191-0.198-0.286-0.438-0.286-0.717   c0-0.291,0.102-0.537,0.305-0.739c0.204-0.202,0.452-0.304,0.745-0.304c0.33,0,0.6,0.119,0.811,0.358   c0.209,0.239,0.314,0.546,0.314,0.92c0,0.425-0.133,0.854-0.395,1.288C49.305,70.029,48.969,70.37,48.561,70.617z M49.415,68.44   c0.021-0.133,0.03-0.22,0.03-0.261c0-0.202-0.057-0.367-0.169-0.496s-0.257-0.193-0.434-0.193c-0.162,0-0.295,0.055-0.401,0.165   c-0.105,0.109-0.159,0.246-0.159,0.412c0,0.152,0.058,0.283,0.173,0.394c0.115,0.11,0.252,0.165,0.412,0.165   C49.055,68.626,49.236,68.564,49.415,68.44z"/>
	<path class="st8" d="M52.489,67.034c0.215,0,0.397,0.077,0.55,0.23c0.151,0.154,0.228,0.339,0.228,0.555   c0,0.214-0.076,0.397-0.229,0.552c-0.152,0.153-0.335,0.23-0.548,0.23c-0.214,0-0.396-0.077-0.549-0.23   c-0.152-0.154-0.229-0.338-0.229-0.552c0-0.216,0.075-0.4,0.227-0.555C52.091,67.111,52.273,67.034,52.489,67.034z M54.257,67.024   h0.387l-2.296,3.593h-0.387L54.257,67.024z M52.482,67.415c-0.111,0-0.206,0.04-0.285,0.119s-0.118,0.175-0.118,0.286   c0,0.11,0.04,0.204,0.119,0.282c0.08,0.078,0.175,0.118,0.284,0.118c0.111,0,0.207-0.04,0.285-0.118   c0.079-0.078,0.119-0.172,0.119-0.282c0-0.113-0.039-0.209-0.117-0.287S52.596,67.415,52.482,67.415z M54.138,69.053   c0.213,0,0.396,0.076,0.549,0.229s0.229,0.336,0.229,0.55c0,0.215-0.076,0.396-0.229,0.546s-0.336,0.225-0.55,0.225   c-0.217,0-0.401-0.075-0.553-0.225c-0.152-0.149-0.229-0.331-0.229-0.546s0.076-0.399,0.229-0.551   C53.739,69.129,53.923,69.053,54.138,69.053z M54.132,69.434c-0.109,0-0.202,0.039-0.28,0.118   c-0.077,0.078-0.115,0.172-0.115,0.282c0,0.111,0.038,0.207,0.115,0.286c0.078,0.079,0.171,0.118,0.28,0.118   c0.113,0,0.209-0.039,0.287-0.117s0.117-0.174,0.117-0.287c0-0.112-0.039-0.206-0.117-0.284   C54.341,69.473,54.245,69.434,54.132,69.434z"/>
</g>
<g>
	<path class="st7" d="M13.219,50.01c0,0.79,0.045,1.454,0.134,1.991c0.09,0.537,0.201,0.98,0.334,1.332h-1.125   c-0.046-0.108-0.101-0.271-0.166-0.486c-0.065-0.215-0.124-0.439-0.178-0.674c-0.3,0.427-0.64,0.753-1.019,0.979   c-0.379,0.226-0.8,0.339-1.262,0.339c-0.384,0-0.729-0.072-1.035-0.217s-0.569-0.349-0.788-0.614s-0.387-0.585-0.503-0.96   c-0.117-0.374-0.175-0.791-0.175-1.25c0-0.557,0.076-1.058,0.228-1.505c0.152-0.447,0.362-0.829,0.628-1.145s0.58-0.559,0.94-0.73   c0.361-0.171,0.751-0.257,1.172-0.257c0.133,0,0.272,0.015,0.416,0.044s0.288,0.068,0.431,0.119   c0.144,0.05,0.285,0.107,0.422,0.172c0.138,0.065,0.267,0.131,0.388,0.197V45.59c0-0.506-0.012-0.948-0.034-1.326   c-0.023-0.379-0.064-0.699-0.122-0.963h1.313V50.01z M10.406,47.878c-0.238,0-0.465,0.055-0.682,0.163   c-0.216,0.108-0.409,0.266-0.578,0.471c-0.168,0.204-0.303,0.454-0.403,0.749c-0.1,0.295-0.15,0.628-0.15,1   c0,0.731,0.124,1.285,0.372,1.661c0.248,0.377,0.645,0.564,1.191,0.564c0.191,0,0.382-0.048,0.572-0.144   c0.189-0.097,0.369-0.222,0.538-0.377c0.169-0.154,0.322-0.331,0.459-0.529c0.137-0.198,0.25-0.402,0.337-0.611v-2.477   c-0.154-0.084-0.298-0.155-0.431-0.214c-0.133-0.058-0.265-0.106-0.394-0.144c-0.129-0.038-0.26-0.066-0.394-0.085   S10.564,47.878,10.406,47.878z"/>
	<path class="st3" d="M19.09,50.675c0,0.632,0.035,1.163,0.105,1.593c0.07,0.43,0.16,0.784,0.27,1.065H18.59   c-0.017-0.043-0.04-0.104-0.07-0.181c-0.03-0.077-0.061-0.164-0.092-0.263c-0.032-0.099-0.062-0.205-0.09-0.319   c-0.028-0.113-0.052-0.227-0.072-0.341c-0.13,0.168-0.268,0.324-0.413,0.472s-0.297,0.277-0.458,0.392   c-0.16,0.113-0.327,0.202-0.5,0.268c-0.173,0.065-0.35,0.098-0.53,0.098c-0.21,0-0.419-0.045-0.627-0.135   c-0.208-0.091-0.396-0.226-0.563-0.406c-0.167-0.181-0.302-0.407-0.405-0.68c-0.103-0.272-0.155-0.593-0.155-0.96   c0-0.385,0.042-0.733,0.127-1.046s0.201-0.591,0.348-0.835c0.13-0.214,0.268-0.401,0.415-0.562c0.147-0.16,0.308-0.293,0.482-0.398   c0.175-0.105,0.368-0.185,0.578-0.238s0.443-0.08,0.7-0.08c0.127,0,0.268,0.009,0.422,0.027c0.155,0.019,0.313,0.044,0.475,0.077   c0.162,0.034,0.322,0.074,0.482,0.121s0.308,0.097,0.445,0.15V50.675z M17.065,48.971c-0.107,0-0.214,0.012-0.323,0.037   c-0.108,0.025-0.215,0.067-0.32,0.128s-0.207,0.14-0.305,0.238c-0.099,0.099-0.191,0.223-0.278,0.373   c-0.09,0.154-0.162,0.346-0.217,0.574c-0.055,0.229-0.083,0.464-0.083,0.705c0,0.277,0.026,0.516,0.078,0.715   c0.052,0.198,0.12,0.362,0.205,0.491s0.181,0.223,0.29,0.283s0.218,0.09,0.328,0.09c0.14,0,0.292-0.043,0.458-0.13   s0.326-0.202,0.482-0.346c0.157-0.145,0.304-0.31,0.442-0.497c0.138-0.187,0.252-0.381,0.342-0.581v-1.881   c-0.05-0.023-0.114-0.047-0.192-0.07s-0.165-0.045-0.26-0.065c-0.095-0.02-0.199-0.035-0.31-0.047   C17.291,48.977,17.179,48.971,17.065,48.971z"/>
	<path class="st3" d="M23.332,48.118c0.533,0,0.941,0.175,1.225,0.523c0.283,0.35,0.425,0.868,0.425,1.558v3.134h-0.925v-2.758   c0-0.314-0.021-0.573-0.063-0.777c-0.042-0.204-0.104-0.365-0.185-0.484c-0.082-0.118-0.185-0.201-0.31-0.248   s-0.272-0.07-0.442-0.07c-0.18,0-0.355,0.043-0.527,0.128s-0.329,0.195-0.472,0.331c-0.144,0.136-0.27,0.288-0.38,0.459   c-0.11,0.171-0.191,0.341-0.245,0.512v2.908h-0.925v-3.084c0-0.495-0.028-0.913-0.083-1.256c-0.055-0.343-0.111-0.602-0.167-0.775   h0.9c0.02,0.054,0.04,0.123,0.06,0.208c0.02,0.086,0.038,0.175,0.055,0.269s0.032,0.186,0.045,0.276l0.04,0.226   c0.317-0.382,0.637-0.656,0.96-0.825S22.979,48.118,23.332,48.118z"/>
	<path class="st3" d="M29.157,48.118c0.18,0,0.349,0.012,0.507,0.035s0.303,0.054,0.435,0.093c0.131,0.038,0.252,0.081,0.362,0.13   s0.208,0.097,0.295,0.143l-0.175,0.878c-0.083-0.05-0.179-0.103-0.285-0.158c-0.107-0.055-0.223-0.105-0.348-0.152   c-0.125-0.047-0.258-0.086-0.4-0.118s-0.289-0.048-0.442-0.048c-0.183,0-0.337,0.021-0.462,0.061s-0.225,0.091-0.3,0.152   c-0.075,0.063-0.129,0.133-0.163,0.211c-0.033,0.079-0.05,0.154-0.05,0.229c0,0.087,0.013,0.164,0.04,0.23   c0.026,0.066,0.083,0.129,0.167,0.186s0.206,0.112,0.362,0.165c0.157,0.054,0.367,0.11,0.63,0.171   c0.227,0.05,0.44,0.114,0.64,0.193c0.2,0.078,0.375,0.178,0.525,0.298c0.15,0.12,0.268,0.266,0.354,0.434   c0.087,0.169,0.13,0.371,0.13,0.604c0,0.228-0.05,0.438-0.15,0.632c-0.1,0.194-0.237,0.363-0.41,0.509s-0.376,0.26-0.61,0.342   c-0.233,0.081-0.485,0.122-0.755,0.122c-0.203,0-0.399-0.015-0.587-0.045c-0.188-0.03-0.365-0.071-0.53-0.125   s-0.316-0.115-0.453-0.186s-0.255-0.144-0.355-0.221l0.25-0.902c0.113,0.1,0.241,0.191,0.382,0.275s0.288,0.155,0.438,0.216   c0.15,0.06,0.301,0.105,0.453,0.138c0.151,0.032,0.294,0.048,0.427,0.048c0.146,0,0.281-0.02,0.402-0.058   c0.122-0.039,0.227-0.089,0.315-0.15c0.088-0.063,0.158-0.134,0.208-0.216c0.05-0.082,0.075-0.166,0.075-0.253   c0-0.094-0.02-0.182-0.058-0.264c-0.039-0.082-0.108-0.16-0.21-0.235s-0.242-0.148-0.42-0.219s-0.407-0.141-0.688-0.21   c-0.303-0.074-0.551-0.161-0.742-0.261c-0.192-0.101-0.342-0.211-0.45-0.331c-0.108-0.121-0.182-0.251-0.222-0.392   s-0.06-0.289-0.06-0.446c0-0.077,0.013-0.167,0.038-0.271s0.066-0.212,0.125-0.323c0.058-0.112,0.135-0.223,0.23-0.331   c0.095-0.109,0.214-0.206,0.357-0.291c0.143-0.085,0.312-0.154,0.505-0.208S28.904,48.118,29.157,48.118z"/>
	<path class="st3" d="M34.179,48.118c0.273,0,0.515,0.032,0.725,0.098c0.21,0.064,0.391,0.155,0.545,0.271   c0.153,0.115,0.281,0.25,0.385,0.403c0.103,0.154,0.186,0.319,0.248,0.497c0.062,0.177,0.105,0.361,0.132,0.554   s0.04,0.382,0.04,0.569v0.195c0,0.084-0.002,0.149-0.005,0.196h-3.544c0.01,0.294,0.056,0.55,0.137,0.767   c0.082,0.218,0.193,0.397,0.335,0.539c0.142,0.143,0.308,0.248,0.5,0.318c0.191,0.07,0.401,0.105,0.627,0.105   c0.323,0,0.64-0.037,0.95-0.11s0.618-0.204,0.925-0.391l0.1,0.827c-0.177,0.09-0.35,0.167-0.52,0.23s-0.34,0.115-0.51,0.155   s-0.342,0.069-0.518,0.088c-0.175,0.019-0.359,0.027-0.552,0.027c-0.32,0-0.625-0.056-0.915-0.168   c-0.29-0.111-0.545-0.277-0.765-0.496c-0.22-0.219-0.395-0.49-0.525-0.814s-0.195-0.701-0.195-1.129   c0-0.414,0.056-0.79,0.167-1.126c0.111-0.336,0.271-0.623,0.477-0.862s0.458-0.423,0.755-0.552   C33.476,48.183,33.809,48.118,34.179,48.118z M34.104,48.87c-0.366,0-0.667,0.107-0.899,0.323c-0.233,0.216-0.387,0.551-0.46,1.006   h2.609c0-0.214-0.031-0.404-0.092-0.569c-0.062-0.166-0.148-0.306-0.26-0.419s-0.244-0.199-0.397-0.256S34.284,48.87,34.104,48.87z   "/>
	<path class="st3" d="M39.051,53.458c-1.066,0-1.6-0.719-1.6-2.156v-1.479c0-0.161-0.001-0.307-0.002-0.437   c-0.002-0.131-0.006-0.257-0.013-0.379s-0.017-0.246-0.03-0.373c-0.014-0.128-0.032-0.267-0.055-0.417h1.025v2.783   c0,0.284,0.014,0.529,0.042,0.735c0.028,0.205,0.076,0.374,0.143,0.506c0.066,0.132,0.154,0.23,0.262,0.294   s0.243,0.095,0.403,0.095c0.146,0,0.303-0.044,0.47-0.133s0.326-0.201,0.478-0.339c0.151-0.137,0.29-0.288,0.415-0.453   c0.125-0.166,0.221-0.325,0.288-0.479v-1.403c0-0.164-0.001-0.313-0.002-0.444c-0.002-0.132-0.006-0.258-0.013-0.379   c-0.006-0.12-0.017-0.242-0.03-0.365c-0.013-0.124-0.032-0.263-0.055-0.417H41.8v2.858c0,0.488,0.028,0.915,0.083,1.281   c0.055,0.366,0.136,0.691,0.243,0.976h-0.85c-0.023-0.057-0.048-0.124-0.075-0.2c-0.027-0.077-0.053-0.159-0.078-0.246   s-0.048-0.178-0.07-0.273c-0.022-0.095-0.04-0.189-0.053-0.283c-0.303,0.371-0.616,0.652-0.938,0.843   C39.742,53.363,39.404,53.458,39.051,53.458z"/>
	<path class="st9" d="M46.096,48.118c0.18,0,0.349,0.012,0.507,0.035s0.303,0.054,0.435,0.093c0.131,0.038,0.252,0.081,0.362,0.13   s0.208,0.097,0.295,0.143l-0.175,0.878c-0.083-0.05-0.179-0.103-0.285-0.158c-0.107-0.055-0.223-0.105-0.348-0.152   c-0.125-0.047-0.258-0.086-0.4-0.118s-0.289-0.048-0.442-0.048c-0.183,0-0.337,0.021-0.462,0.061s-0.225,0.091-0.3,0.152   c-0.075,0.063-0.129,0.133-0.163,0.211c-0.033,0.079-0.05,0.154-0.05,0.229c0,0.087,0.013,0.164,0.04,0.23   c0.026,0.066,0.083,0.129,0.167,0.186s0.206,0.112,0.362,0.165c0.157,0.054,0.367,0.11,0.63,0.171   c0.227,0.05,0.44,0.114,0.64,0.193c0.2,0.078,0.375,0.178,0.525,0.298c0.15,0.12,0.268,0.266,0.354,0.434   c0.087,0.169,0.13,0.371,0.13,0.604c0,0.228-0.05,0.438-0.15,0.632c-0.1,0.194-0.237,0.363-0.41,0.509s-0.376,0.26-0.61,0.342   c-0.233,0.081-0.485,0.122-0.755,0.122c-0.203,0-0.399-0.015-0.587-0.045c-0.188-0.03-0.365-0.071-0.53-0.125   s-0.316-0.115-0.453-0.186s-0.255-0.144-0.355-0.221l0.25-0.902c0.113,0.1,0.241,0.191,0.382,0.275s0.288,0.155,0.438,0.216   c0.15,0.06,0.301,0.105,0.453,0.138c0.151,0.032,0.294,0.048,0.427,0.048c0.146,0,0.281-0.02,0.402-0.058   c0.122-0.039,0.227-0.089,0.315-0.15c0.088-0.063,0.158-0.134,0.208-0.216c0.05-0.082,0.075-0.166,0.075-0.253   c0-0.094-0.02-0.182-0.058-0.264c-0.039-0.082-0.108-0.16-0.21-0.235s-0.242-0.148-0.42-0.219s-0.407-0.141-0.688-0.21   c-0.303-0.074-0.551-0.161-0.742-0.261c-0.192-0.101-0.342-0.211-0.45-0.331c-0.108-0.121-0.182-0.251-0.222-0.392   s-0.06-0.289-0.06-0.446c0-0.077,0.013-0.167,0.038-0.271s0.066-0.212,0.125-0.323c0.058-0.112,0.135-0.223,0.23-0.331   c0.095-0.109,0.214-0.206,0.357-0.291c0.143-0.085,0.312-0.154,0.505-0.208S45.843,48.118,46.096,48.118z"/>
	<path class="st3" d="M51.117,48.118c0.273,0,0.516,0.032,0.727,0.098c0.209,0.064,0.391,0.155,0.545,0.271   c0.152,0.115,0.281,0.25,0.385,0.403c0.104,0.154,0.186,0.319,0.246,0.497c0.063,0.177,0.107,0.361,0.133,0.554   c0.027,0.192,0.041,0.382,0.041,0.569v0.195c0,0.084-0.002,0.149-0.006,0.196h-3.545c0.012,0.294,0.057,0.55,0.139,0.767   c0.082,0.218,0.193,0.397,0.334,0.539c0.143,0.143,0.309,0.248,0.5,0.318s0.4,0.105,0.627,0.105c0.324,0,0.641-0.037,0.951-0.11   c0.309-0.073,0.617-0.204,0.924-0.391l0.102,0.827c-0.178,0.09-0.352,0.167-0.521,0.23s-0.34,0.115-0.51,0.155   s-0.342,0.069-0.518,0.088c-0.174,0.019-0.359,0.027-0.553,0.027c-0.318,0-0.623-0.056-0.914-0.168   c-0.289-0.111-0.545-0.277-0.766-0.496c-0.219-0.219-0.395-0.49-0.524-0.814c-0.13-0.324-0.195-0.701-0.195-1.129   c0-0.414,0.056-0.79,0.167-1.126c0.111-0.336,0.27-0.623,0.477-0.862s0.459-0.423,0.756-0.552   C50.414,48.183,50.748,48.118,51.117,48.118z M51.043,48.87c-0.367,0-0.666,0.107-0.9,0.323c-0.232,0.216-0.387,0.551-0.459,1.006   h2.609c0-0.214-0.031-0.404-0.092-0.569c-0.063-0.166-0.148-0.306-0.26-0.419c-0.113-0.113-0.244-0.199-0.398-0.256   C51.391,48.898,51.223,48.87,51.043,48.87z"/>
</g>
<g>
	<path class="st10" d="M62.075,38.24c0,0-4.053,3.573-5.472,7.382"/>
	<path class="st10" d="M57.615,38.592c0,0,3.868,7.077,3.868,9.71"/>
	<polyline class="st10" points="67.27,20.593 65.747,24.132 59.939,26.859  "/>
	<path class="st11" d="M50.559,34.085c0.633-0.249,1.467-0.947,1.056-2.047c0,0-0.993-0.228-1.557,1.568   C49.962,33.913,50.26,34.202,50.559,34.085z"/>
	<path class="st11" d="M66.346,18.492c-0.199,0.652-0.381,1.766,0.733,2.127c0.197-0.031,1.304-0.709-0.048-2.222   C66.817,18.158,66.44,18.184,66.346,18.492z"/>
	<path class="st11" d="M56.603,49.187c0.438,0,0.793-0.798,0.793-1.783c0-0.984-0.355-1.782-0.793-1.782   c-0.438,0-0.801,0.798-0.801,1.782C55.802,48.389,56.165,49.187,56.603,49.187z"/>
	<path class="st11" d="M58.024,49.118c0.1,0.428,0.956,0.592,1.911,0.366c0.955-0.225,1.649-0.755,1.548-1.182   c-0.1-0.428-0.956-0.592-1.911-0.366C58.617,48.162,57.923,48.691,58.024,49.118z"/>
	<line class="st10" x1="57.615" y1="27.255" x2="51.615" y2="32.038"/>
	<path class="st11" d="M55.241,23.193c0,0,2.935,1.885,5.748-0.383c0,0,1.839-1.47,1.215-4.231c0,0,0.926-0.072,0.63-1.015   c-0.341-1.088-0.911,0.077-0.911,0.077s-0.678-2.974-3.826-2.916c-1.463,0.027-2.866,0.645-3.856,1.704   c-0.908,0.971-1.703,2.517-1.001,4.71c0,0-0.332,1.128,0.492,0.894c0,0-0.399,0.652,0.416,1.083   C54.721,23.418,54.842,22.93,55.241,23.193z"/>
	<path class="st11" d="M54.134,21.068c0.19,0.345,0.059,0.776-0.292,0.963c-0.351,0.187-0.79,0.058-0.98-0.287   c-0.19-0.345-0.059-0.777,0.292-0.963C53.506,20.594,53.945,20.723,54.134,21.068z"/>
	<path class="st10" d="M47.99,20.44c0,0,4.248-0.028,4.88,0.614"/>
	<path class="st10" d="M47.811,23.223c0.072-0.038,3.582-1.48,5.051-1.479"/>
	<path class="st10" d="M50.108,24.293c0,0,1.561-1.609,3.366-2.177"/>
	<path class="st10" d="M64.136,12.169c0,0-2.06,1.736-2.391,3.958"/>
	<path class="st10" d="M65.755,13.08c-0.096,0.051-2.712,1.43-3.726,3.389"/>
	<path class="st10" d="M66.224,15.234c0,0-3.257,0.95-3.9,1.656"/>
	<path class="st11" d="M55.541,33.088c-0.472,0.138-1.135,0.245-2.026,0.536c-0.706,0.231-1.285,0.6-1.745,0.985   c-0.703,0.588-0.841,1.576-0.269,2.27c0.032,0.039,0.065,0.077,0.102,0.114c0.634,0.658,1.443,0.579,1.55,0.567   c0.053,0.119,0.179,0.355,0.454,0.538c0.209,0.139,0.408,0.183,0.53,0.209c0.579,0.124,1.097-0.043,1.334-0.136l0,0   c0.259,0.16,0.861,0.482,1.688,0.497c0.25,0.004,1.235-0.006,1.958-0.6l0,0c0.352,0.187,0.959,0.439,1.719,0.42   c0.199-0.005,1.33-0.034,1.9-0.721l0,0c0.272,0.145,0.914,0.446,1.635,0.386c0.341-0.028,0.54-0.124,0.599-0.155   c0.324-0.166,0.487-0.416,0.556-0.541c0.071,0.034,0.651,0.304,1.269,0.052c0.431-0.176,0.625-0.503,0.681-0.606   c0.169-0.077,0.769-0.371,0.887-0.914c0.121-0.557-0.34-1.033-0.612-1.314c-1.392-1.435-4.491-1.597-5.309-1.625l-2.856-6.492   l-0.816-2.571h-0.387l-0.523,2.496C56.196,31.388,55.541,33.088,55.541,33.088z"/>
	<path class="st11" d="M62.469,33.034c-0.257,0.254-1.421,1.348-3.258,1.401c-2.016,0.059-3.316-1.18-3.54-1.401"/>
	<path class="st12" d="M62.442,33.05c0,0,1.543,2.731,0.233,4.632c0,0,1.753,1.172,2.751-0.2c0,0,0.624-2.705-0.616-4.161   C64.81,33.32,63.889,33.101,62.442,33.05z"/>
	<path class="st13" d="M57.443,48.143"/>
	<path class="st13" d="M61.124,47.878"/>
	<path class="st13" d="M61.124,38.646"/>
	<path class="st13" d="M58.17,26.027"/>
	<path class="st14" d="M58.306,20.431c0,0,0.236-0.939,1.128-0.82"/>
	<path class="st15" d="M61.669,16.221c1.121,0.647,0.255,1.419,0.255,1.419c-0.22,0.024-0.098-0.428-0.289-0.761   c-0.127-0.221-0.248-0.283-0.091-0.621C61.565,16.212,61.625,16.196,61.669,16.221z"/>
	<path class="st14" d="M53.962,20.755c0,0-1.001-4.038,3.335-5.125c0,0,1.764-0.766,4.07,0.788"/>
	<path class="st14" d="M53.538,20.697c0,0-0.845-3.065,2.156-4.852c3.002-1.786,5.345,0.13,5.345,0.13"/>
	<line class="st14" x1="55.227" y1="15.487" x2="56.227" y2="15.974"/>
	<path class="st15" d="M55.686,20.36c0,0,1.302,0.162,1.26-1.022"/>
	<path class="st15" d="M58.639,18.184c0,0,1.302,0.162,1.26-1.023"/>
	<path class="st14" d="M56.911,21.941c0,0,1.149,0.96,2.462-0.012"/>
	<path class="st14" d="M55.252,18.833c0,0-0.729,0.492-0.377,1.093"/>
	<path class="st14" d="M57.868,16.888c0,0,0.592-0.645,1.151-0.223"/>
	<line class="st14" x1="57.615" y1="27.255" x2="59.892" y2="27.255"/>
	<line class="st14" x1="56.771" y1="29.444" x2="60.817" y2="29.444"/>
	<line class="st14" x1="56.081" y1="32.062" x2="61.829" y2="32.062"/>
	<path class="st16" d="M62.075,38.24c0,0-4.053,3.573-5.472,7.382"/>
	<path class="st16" d="M57.615,38.592c0,0,3.868,7.077,3.868,9.71"/>
	<polyline class="st16" points="67.27,20.593 65.747,24.132 59.939,26.859  "/>
	<path class="st17" d="M50.559,34.085c0.633-0.249,1.467-0.947,1.056-2.047c0,0-0.993-0.228-1.557,1.568   C49.962,33.913,50.26,34.202,50.559,34.085z"/>
	<path class="st17" d="M66.346,18.492c-0.199,0.652-0.381,1.766,0.733,2.127c0.197-0.031,1.304-0.709-0.048-2.222   C66.817,18.158,66.44,18.184,66.346,18.492z"/>
	<path class="st16" d="M56.603,49.187c0.438,0,0.793-0.798,0.793-1.783c0-0.984-0.355-1.782-0.793-1.782   c-0.438,0-0.801,0.798-0.801,1.782C55.802,48.389,56.165,49.187,56.603,49.187z"/>
	<path class="st16" d="M58.024,49.118c0.1,0.428,0.956,0.592,1.911,0.366c0.955-0.225,1.649-0.755,1.548-1.182   c-0.1-0.428-0.956-0.592-1.911-0.366C58.617,48.162,57.923,48.691,58.024,49.118z"/>
	<line class="st16" x1="57.615" y1="27.255" x2="51.615" y2="32.038"/>
	<path class="st16" d="M55.241,23.193c0,0,2.935,1.885,5.748-0.383c0,0,1.839-1.47,1.215-4.231c0,0,0.926-0.072,0.63-1.015   c-0.341-1.088-0.911,0.077-0.911,0.077s-0.678-2.974-3.826-2.916c-1.463,0.027-2.866,0.645-3.856,1.704   c-0.908,0.971-1.703,2.517-1.001,4.71c0,0-0.332,1.128,0.492,0.894c0,0-0.399,0.652,0.416,1.083   C54.721,23.418,54.842,22.93,55.241,23.193z"/>
	<path class="st17" d="M54.134,21.068c0.19,0.345,0.059,0.776-0.292,0.963c-0.351,0.187-0.79,0.058-0.98-0.287   c-0.19-0.345-0.059-0.777,0.292-0.963C53.506,20.594,53.945,20.723,54.134,21.068z"/>
	<path class="st16" d="M47.99,20.44c0,0,4.248-0.028,4.88,0.614"/>
	<path class="st16" d="M47.811,23.223c0.072-0.038,3.582-1.48,5.051-1.479"/>
	<path class="st16" d="M50.108,24.293c0,0,1.561-1.609,3.366-2.177"/>
	<path class="st16" d="M64.136,12.169c0,0-2.06,1.736-2.391,3.958"/>
	<path class="st16" d="M65.755,13.08c-0.096,0.051-2.712,1.43-3.726,3.389"/>
	<path class="st16" d="M66.224,15.234c0,0-3.257,0.95-3.9,1.656"/>
	<path class="st16" d="M55.541,33.088c-0.472,0.138-1.135,0.245-2.026,0.536c-0.706,0.231-1.285,0.6-1.745,0.985   c-0.703,0.588-0.841,1.576-0.269,2.27c0.032,0.039,0.065,0.077,0.102,0.114c0.634,0.658,1.443,0.579,1.55,0.567   c0.053,0.119,0.179,0.355,0.454,0.538c0.209,0.139,0.408,0.183,0.53,0.209c0.579,0.124,1.097-0.043,1.334-0.136l0,0   c0.259,0.16,0.861,0.482,1.688,0.497c0.25,0.004,1.235-0.006,1.958-0.6l0,0c0.352,0.187,0.959,0.439,1.719,0.42   c0.199-0.005,1.33-0.034,1.9-0.721l0,0c0.272,0.145,0.914,0.446,1.635,0.386c0.341-0.028,0.54-0.124,0.599-0.155   c0.324-0.166,0.487-0.416,0.556-0.541c0.071,0.034,0.651,0.304,1.269,0.052c0.431-0.176,0.625-0.503,0.681-0.606   c0.169-0.077,0.769-0.371,0.887-0.914c0.121-0.557-0.34-1.033-0.612-1.314c-1.392-1.435-4.491-1.597-5.309-1.625l-2.856-6.492   l-0.816-2.571h-0.387l-0.523,2.496C56.196,31.388,55.541,33.088,55.541,33.088z"/>
	<path class="st16" d="M62.469,33.034c-0.257,0.254-1.421,1.348-3.258,1.401c-2.016,0.059-3.316-1.18-3.54-1.401"/>
</g>
</svg>