<?xml version="1.0" encoding="UTF-8"?>
<!-- Generator: Adobe Illustrator 24.0.2, SVG Export Plug-In . SVG Version: 6.00 Build 0)  -->
<svg version="1.1" id="Calque_1" xmlns="http://www.w3.org/2000/svg" xmlns:xlink="http://www.w3.org/1999/xlink" x="0px" y="0px" viewBox="0 0 114 97" style="enable-background:new 0 0 114 97;" xml:space="preserve">
<style type="text/css">
	.st0{fill:#FFFFFF;stroke:#DADADA;stroke-width:0.6756;stroke-miterlimit:10;}
	.st1{fill:#FFFFFF;stroke:#9D9D9C;stroke-width:0.6756;stroke-miterlimit:10;}
	.st2{fill:#FFFFFF;stroke:#000000;stroke-width:0.937;stroke-miterlimit:10;}
	.st3{enable-background:new    ;}
	.st4{fill:#706F6F;}
	.st5{fill:#7FC7EB;}
	.st6{fill:none;stroke:#B2B2B2;stroke-width:0.3378;stroke-miterlimit:10;}
	.st7{fill:#B2B2B2;}
	.st8{fill:#9D9D9C;}
	.st9{fill:#7DB728;}
	.st10{fill:#E11683;}
	.st11{opacity:0.6;enable-background:new    ;}
	.st12{fill:#878787;}
	.st13{fill:#575756;}
	.st14{fill:#FFFFFF;}
	.st15{fill:none;stroke:#575756;stroke-width:0.1621;stroke-linecap:round;stroke-linejoin:round;stroke-miterlimit:10;}
	.st16{fill:none;stroke:#575756;stroke-width:0.4862;stroke-linecap:round;stroke-linejoin:round;stroke-miterlimit:10;}
	.st17{fill:none;stroke:#575756;stroke-width:0.1621;stroke-miterlimit:10;}
	.st18{fill:#FFFFFF;stroke:#575756;stroke-width:0.1621;stroke-linecap:round;stroke-linejoin:round;stroke-miterlimit:10;}
</style>
<g>
	<rect x="78.378" y="28.822" class="st0" width="35.113" height="11.291"/>
	<rect x="78.377" y="39.676" class="st0" width="35.113" height="11.29"/>
	<rect x="78.377" y="50.992" class="st0" width="35.113" height="11.29"/>
	<rect x="78.379" y="62.228" class="st0" width="35.113" height="11.291"/>
	<rect x="78.378" y="73.082" class="st0" width="35.113" height="11.29"/>
	<rect x="78.378" y="84.398" class="st0" width="35.113" height="11.29"/>
	<polygon class="st1" points="89.929,28.899 78.09,28.899 78.09,2.37 104.057,2.37 104.057,28.899 92.386,28.899  "/>
	<path class="st2" d="M55.226,58.767h-33.06V2.49h55.971v56.277H62.096c0,0-5.168,9.371-13.684,11.182   C48.412,69.95,53.521,66.52,55.226,58.767z"/>
	<g class="st3">
		<path class="st4" d="M97.795,6.2v0.374h-1.324v1.214h0.613c0.23,0,0.424-0.001,0.581-0.005c0.156-0.003,0.28-0.013,0.373-0.03    v0.42h-2.043c0.017-0.093,0.026-0.229,0.029-0.405c0.004-0.177,0.005-0.38,0.005-0.61V5.78c0-0.23-0.001-0.434-0.005-0.611    c-0.003-0.177-0.013-0.312-0.029-0.405h1.974v0.385h-1.498V6.2H97.795z"/>
	</g>
	<g class="st3">
		<path class="st5" d="M101.232,4.764c-0.016,0.093-0.025,0.225-0.029,0.396s-0.006,0.377-0.006,0.62v1.191    c0,0.19-0.024,0.362-0.074,0.517c-0.05,0.155-0.125,0.288-0.227,0.398c-0.102,0.11-0.229,0.196-0.384,0.255    c-0.155,0.06-0.337,0.09-0.546,0.09c-0.213,0-0.396-0.03-0.552-0.09c-0.156-0.06-0.285-0.145-0.387-0.255    C98.926,7.775,98.85,7.643,98.8,7.488c-0.051-0.155-0.076-0.327-0.076-0.517V5.78c0-0.23-0.002-0.434-0.006-0.611    s-0.014-0.312-0.028-0.405h0.476v2.102c0,0.152,0.014,0.29,0.04,0.412c0.025,0.122,0.07,0.227,0.132,0.313    s0.145,0.152,0.246,0.198c0.103,0.046,0.23,0.069,0.384,0.069c0.149,0,0.275-0.023,0.376-0.069s0.182-0.112,0.242-0.198    c0.062-0.086,0.105-0.191,0.132-0.313s0.039-0.26,0.039-0.412V4.764H101.232z"/>
	</g>
	<g class="st3">
		<path class="st4" d="M80.86,7.122c0.036,0.222,0.103,0.389,0.2,0.501c0.123,0.174,0.306,0.262,0.548,0.262    c0.317,0,0.581-0.085,0.791-0.256c0.145-0.12,0.264-0.301,0.357-0.545l0.087,0.174c-0.112,0.327-0.289,0.563-0.531,0.708    c-0.238,0.142-0.559,0.212-0.959,0.212c-0.419,0-0.71-0.129-0.873-0.387c-0.134-0.186-0.2-0.449-0.2-0.79    c0-0.418,0.089-0.747,0.266-0.986c0.206-0.272,0.519-0.409,0.938-0.409c0.314,0,0.546,0.075,0.693,0.224    c0.145,0.13,0.217,0.316,0.217,0.556c0,0.003,0,0.006,0,0.008c0,0.001,0,0.003,0,0.005s0,0.003,0,0.005s0,0.003,0,0.005    s0,0.003,0,0.005s0,0.004,0,0.005c0,0.002,0,0.004,0,0.005c0,0.002,0,0.004,0,0.006c0,0.001,0,0.003,0,0.005s0,0.003,0,0.005    s0,0.003,0,0.005s0,0.004,0,0.005c0,0.002,0,0.005,0,0.008c0,0.004,0,0.008,0,0.014s-0.001,0.015-0.002,0.027    c-0.002,0.013-0.003,0.024-0.003,0.035c-0.033,0.229-0.304,0.393-0.813,0.491c-0.159,0.04-0.399,0.071-0.721,0.092H80.86z     M82.155,6.473c0-0.011,0.001-0.023,0.003-0.038c0.002-0.014,0.003-0.033,0.003-0.054c0-0.164-0.06-0.305-0.179-0.425    c-0.123-0.112-0.271-0.169-0.445-0.169c-0.249,0-0.433,0.136-0.553,0.409c-0.097,0.218-0.146,0.463-0.146,0.736    c0.028-0.004,0.075-0.009,0.141-0.017c0.021,0,0.046-0.001,0.073-0.005c0.027-0.003,0.053-0.007,0.078-0.011    c0.021,0,0.046-0.002,0.073-0.005c0.027-0.004,0.054-0.007,0.079-0.011c0.032-0.003,0.085-0.009,0.157-0.016    C81.881,6.808,82.119,6.677,82.155,6.473z"/>
	</g>
	<g class="st3">
		<path class="st5" d="M84.583,7.754c-0.278,0.283-0.56,0.425-0.846,0.425c-0.336,0-0.57-0.053-0.704-0.158    c-0.185-0.131-0.276-0.358-0.276-0.681V5.623h0.504v1.526c0,0.225,0.025,0.411,0.076,0.556c0.075,0.218,0.215,0.327,0.417,0.327    c0.123,0,0.257-0.042,0.401-0.125c0.13-0.076,0.264-0.189,0.4-0.338v-0.13V5.623h0.516v1.689c0,0.225,0.009,0.392,0.026,0.501    c0.022,0.117,0.083,0.175,0.185,0.175c0.062,0,0.123-0.063,0.185-0.191c0.003-0.007,0.098-0.252,0.281-0.735l0.082,0.18    c-0.123,0.359-0.203,0.579-0.239,0.659c-0.101,0.182-0.234,0.274-0.4,0.278C84.832,8.179,84.63,8.037,84.583,7.754z"/>
	</g>
	<path class="st6" d="M34.404,44.821c0,0,6.742,2.798,14.953,0"/>
	<path class="st6" d="M50.15,44.821c0,0,5.684,3.267,14.61,0"/>
	<g class="st3">
		<path class="st7" d="M89.973,44.994c0.111,0,0.217,0.007,0.314,0.022s0.188,0.034,0.27,0.058c0.081,0.024,0.156,0.051,0.225,0.081    c0.068,0.03,0.129,0.06,0.183,0.088l-0.108,0.545c-0.052-0.031-0.11-0.063-0.177-0.098c-0.066-0.034-0.138-0.065-0.215-0.095    c-0.078-0.029-0.16-0.053-0.248-0.073c-0.088-0.02-0.179-0.029-0.274-0.029c-0.113,0-0.209,0.012-0.286,0.037    s-0.14,0.057-0.186,0.095c-0.047,0.038-0.08,0.082-0.101,0.13c-0.021,0.049-0.031,0.096-0.031,0.142    c0,0.054,0.008,0.102,0.024,0.144s0.052,0.08,0.104,0.115s0.127,0.069,0.225,0.103c0.097,0.033,0.227,0.068,0.39,0.106    c0.141,0.031,0.272,0.071,0.396,0.12c0.124,0.049,0.232,0.111,0.325,0.186s0.166,0.165,0.22,0.269    c0.054,0.105,0.081,0.23,0.081,0.375c0,0.141-0.031,0.272-0.094,0.392c-0.062,0.121-0.146,0.226-0.254,0.316    c-0.107,0.09-0.232,0.161-0.377,0.211s-0.301,0.076-0.468,0.076c-0.126,0-0.247-0.009-0.364-0.028    c-0.116-0.019-0.226-0.044-0.328-0.078s-0.195-0.072-0.28-0.115c-0.085-0.044-0.158-0.089-0.22-0.137l0.154-0.561    c0.07,0.063,0.149,0.12,0.237,0.171s0.178,0.097,0.271,0.134c0.094,0.038,0.187,0.066,0.28,0.086    c0.095,0.02,0.183,0.029,0.266,0.029c0.091,0,0.174-0.012,0.249-0.036s0.141-0.055,0.195-0.093    c0.055-0.039,0.098-0.083,0.128-0.134c0.031-0.051,0.047-0.103,0.047-0.157c0-0.058-0.012-0.112-0.036-0.163    c-0.023-0.051-0.066-0.1-0.13-0.146c-0.063-0.047-0.149-0.092-0.26-0.136c-0.11-0.043-0.253-0.087-0.426-0.13    c-0.188-0.046-0.342-0.1-0.46-0.162c-0.119-0.063-0.212-0.131-0.279-0.206c-0.066-0.075-0.112-0.156-0.138-0.243    c-0.024-0.087-0.037-0.18-0.037-0.277c0-0.048,0.008-0.104,0.023-0.168s0.041-0.131,0.077-0.201    c0.036-0.07,0.084-0.138,0.143-0.206s0.133-0.128,0.222-0.181c0.089-0.053,0.193-0.096,0.313-0.129    C89.678,45.011,89.815,44.994,89.973,44.994z"/>
	</g>
	<g class="st3">
		<path class="st5" d="M93.205,48.33c-0.826,0-1.239-0.558-1.239-1.673v-1.148c0-0.125,0-0.237-0.002-0.338    c-0.001-0.101-0.004-0.199-0.009-0.294c-0.006-0.095-0.014-0.191-0.023-0.29c-0.011-0.099-0.024-0.206-0.043-0.323h0.794v2.16    c0,0.22,0.011,0.41,0.032,0.57c0.022,0.16,0.06,0.291,0.11,0.393c0.052,0.103,0.12,0.179,0.204,0.228    c0.083,0.049,0.188,0.074,0.312,0.074c0.113,0,0.234-0.034,0.363-0.103s0.252-0.156,0.37-0.263    c0.117-0.106,0.225-0.224,0.321-0.353s0.171-0.252,0.223-0.372v-1.09c0-0.127-0.001-0.242-0.002-0.344    c-0.002-0.103-0.005-0.201-0.01-0.294c-0.006-0.093-0.013-0.188-0.023-0.284c-0.011-0.096-0.024-0.204-0.043-0.323h0.794v2.218    c0,0.379,0.021,0.71,0.063,0.995c0.043,0.284,0.105,0.536,0.188,0.757h-0.658c-0.019-0.044-0.038-0.096-0.059-0.156    s-0.04-0.123-0.06-0.19c-0.02-0.068-0.037-0.138-0.055-0.212c-0.017-0.074-0.03-0.147-0.04-0.22    c-0.235,0.288-0.477,0.506-0.726,0.654S93.479,48.33,93.205,48.33z"/>
	</g>
	<g class="st3">
		<path class="st7" d="M96.434,48.232v-1.915c0-0.307-0.018-0.567-0.052-0.78s-0.068-0.373-0.104-0.481h0.558    c0.024,0.058,0.047,0.131,0.066,0.219c0.02,0.088,0.036,0.187,0.05,0.294c0.013,0.108,0.022,0.223,0.029,0.346    c0.006,0.123,0.009,0.246,0.009,0.371v0.202c0.105-0.292,0.209-0.535,0.31-0.727c0.102-0.192,0.202-0.345,0.303-0.459    c0.1-0.114,0.2-0.194,0.302-0.24c0.101-0.046,0.204-0.069,0.31-0.069c0.078,0,0.15,0.007,0.217,0.022s0.133,0.039,0.201,0.072    l-0.093,0.576c-0.06-0.025-0.112-0.042-0.158-0.05c-0.045-0.008-0.101-0.012-0.167-0.012c-0.085,0-0.174,0.036-0.267,0.107    c-0.093,0.071-0.184,0.167-0.273,0.285s-0.176,0.252-0.256,0.402c-0.081,0.149-0.151,0.302-0.212,0.459    c-0.062,0.157-0.109,0.31-0.146,0.459s-0.055,0.282-0.055,0.398c0,0.052,0.001,0.1,0.002,0.143    c0.001,0.044,0.004,0.086,0.009,0.126c0.006,0.041,0.012,0.081,0.021,0.121c0.008,0.041,0.019,0.084,0.031,0.129H96.434z"/>
	</g>
	<g>
		<path class="st7" d="M98.833,45.134h0.619v-0.545c0-0.467,0.095-0.817,0.283-1.051c0.189-0.233,0.451-0.35,0.785-0.35    c0.122,0,0.241,0.019,0.359,0.058c0.117,0.038,0.225,0.092,0.322,0.16l-0.143,0.467c-0.078-0.058-0.165-0.104-0.26-0.137    c-0.096-0.033-0.188-0.05-0.279-0.05c-0.08,0-0.151,0.014-0.214,0.042c-0.062,0.028-0.113,0.073-0.154,0.135    c-0.042,0.063-0.073,0.143-0.095,0.242s-0.032,0.218-0.032,0.359v0.669h0.836v0.452h-0.836v1.108c0,0.151,0.001,0.301,0.004,0.45    c0.004,0.148,0.009,0.29,0.016,0.424c0.008,0.134,0.018,0.258,0.029,0.372c0.013,0.114,0.027,0.211,0.044,0.292h-0.666v-2.646    h-0.619V45.134z"/>
		<path class="st7" d="M98.709,48.7v-0.25h2.322v0.25H98.709z"/>
	</g>
	<g class="st3">
		<path class="st5" d="M89.413,34.982c0-0.335,0.05-0.631,0.15-0.89c0.101-0.258,0.236-0.476,0.406-0.654    c0.171-0.178,0.369-0.312,0.597-0.403c0.227-0.091,0.468-0.136,0.724-0.136c0.266,0,0.509,0.045,0.729,0.136    s0.41,0.225,0.569,0.403c0.158,0.178,0.282,0.396,0.37,0.654c0.087,0.258,0.131,0.555,0.131,0.89c0,0.334-0.05,0.63-0.15,0.887    s-0.236,0.472-0.407,0.646c-0.17,0.174-0.368,0.306-0.596,0.395c-0.228,0.09-0.469,0.134-0.724,0.134    c-0.266,0-0.509-0.044-0.729-0.134c-0.221-0.089-0.411-0.221-0.569-0.395c-0.159-0.174-0.282-0.389-0.37-0.646    S89.413,35.317,89.413,34.982z M90.129,34.982c0,0.226,0.027,0.428,0.081,0.607c0.055,0.179,0.131,0.33,0.23,0.454    c0.1,0.123,0.218,0.217,0.354,0.282s0.289,0.097,0.456,0.097c0.155,0,0.301-0.032,0.438-0.097s0.257-0.159,0.358-0.282    c0.102-0.124,0.182-0.274,0.24-0.454c0.058-0.179,0.087-0.381,0.087-0.607c0-0.229-0.027-0.433-0.081-0.613    c-0.055-0.18-0.131-0.333-0.23-0.459s-0.218-0.222-0.356-0.288c-0.138-0.066-0.289-0.099-0.455-0.099    c-0.157,0-0.304,0.033-0.44,0.099c-0.138,0.066-0.256,0.162-0.356,0.288s-0.18,0.279-0.238,0.459    C90.158,34.55,90.129,34.754,90.129,34.982z"/>
	</g>
	<g class="st3">
		<path class="st8" d="M94.969,32.9c0.212,0,0.399,0.025,0.562,0.076c0.163,0.05,0.304,0.121,0.422,0.21    c0.119,0.089,0.218,0.194,0.298,0.313c0.08,0.119,0.145,0.248,0.192,0.385c0.047,0.138,0.081,0.281,0.103,0.43    c0.021,0.149,0.03,0.296,0.03,0.441v0.152c0,0.065-0.001,0.116-0.004,0.152h-2.744c0.008,0.229,0.043,0.427,0.106,0.596    c0.063,0.168,0.149,0.308,0.259,0.418c0.11,0.11,0.239,0.192,0.388,0.247c0.148,0.054,0.311,0.082,0.485,0.082    c0.251,0,0.496-0.028,0.736-0.085c0.239-0.057,0.479-0.158,0.716-0.304l0.077,0.642c-0.137,0.07-0.271,0.13-0.402,0.179    s-0.264,0.089-0.395,0.121c-0.132,0.031-0.266,0.054-0.401,0.068c-0.135,0.015-0.278,0.021-0.428,0.021    c-0.247,0-0.483-0.043-0.708-0.13s-0.422-0.215-0.593-0.385c-0.17-0.17-0.306-0.381-0.406-0.632    c-0.101-0.252-0.15-0.543-0.15-0.876c0-0.321,0.043-0.613,0.129-0.874c0.087-0.261,0.21-0.484,0.37-0.669s0.354-0.328,0.584-0.428    C94.425,32.95,94.683,32.9,94.969,32.9z M94.911,33.484c-0.284,0-0.517,0.083-0.697,0.251s-0.299,0.428-0.355,0.78h2.021    c0-0.166-0.024-0.313-0.072-0.442c-0.047-0.128-0.114-0.236-0.201-0.325c-0.086-0.088-0.188-0.154-0.308-0.199    C95.18,33.506,95.051,33.484,94.911,33.484z"/>
	</g>
	<g class="st3">
		<path class="st5" d="M98.822,37.045c-0.826,0-1.239-0.558-1.239-1.673v-1.148c0-0.125,0-0.237-0.002-0.338    c-0.001-0.101-0.004-0.199-0.009-0.294c-0.006-0.095-0.014-0.191-0.023-0.29c-0.011-0.099-0.024-0.206-0.043-0.323H98.3v2.16    c0,0.22,0.011,0.41,0.032,0.57c0.022,0.16,0.06,0.291,0.11,0.393c0.052,0.103,0.12,0.179,0.204,0.228    c0.083,0.049,0.188,0.074,0.312,0.074c0.113,0,0.234-0.034,0.363-0.103s0.252-0.156,0.37-0.263    c0.117-0.106,0.225-0.224,0.321-0.353s0.171-0.252,0.223-0.372v-1.09c0-0.127-0.001-0.242-0.002-0.344    c-0.002-0.103-0.005-0.201-0.01-0.294c-0.006-0.093-0.013-0.188-0.023-0.284c-0.011-0.096-0.024-0.204-0.043-0.323h0.794v2.218    c0,0.379,0.021,0.71,0.063,0.995c0.043,0.284,0.105,0.536,0.188,0.757h-0.658c-0.019-0.044-0.038-0.096-0.059-0.156    s-0.04-0.123-0.06-0.19c-0.02-0.068-0.037-0.138-0.055-0.212c-0.017-0.074-0.03-0.147-0.04-0.22    c-0.235,0.288-0.477,0.506-0.726,0.654S99.096,37.045,98.822,37.045z"/>
	</g>
	<g>
		<path class="st7" d="M101.694,33.85h0.619v-0.545c0-0.467,0.095-0.817,0.283-1.051c0.189-0.233,0.451-0.35,0.785-0.35    c0.122,0,0.241,0.019,0.359,0.058c0.117,0.038,0.225,0.092,0.322,0.16l-0.143,0.467c-0.078-0.058-0.165-0.104-0.26-0.137    c-0.096-0.033-0.188-0.05-0.279-0.05c-0.08,0-0.151,0.014-0.214,0.042c-0.062,0.028-0.113,0.073-0.154,0.135    c-0.042,0.063-0.073,0.143-0.095,0.242s-0.032,0.218-0.032,0.359v0.669h0.836v0.452h-0.836v1.108c0,0.151,0.001,0.301,0.004,0.45    c0.004,0.148,0.009,0.29,0.016,0.424c0.008,0.134,0.018,0.258,0.029,0.372c0.013,0.114,0.027,0.211,0.044,0.292h-0.666v-2.646    h-0.619V33.85z"/>
		<path class="st7" d="M101.57,37.415v-0.25h2.322v0.25H101.57z"/>
	</g>
	<g class="st3">
		<path class="st7" d="M86.525,67.245h0.619V66.7c0-0.468,0.095-0.817,0.283-1.051c0.189-0.234,0.451-0.351,0.785-0.351    c0.122,0,0.241,0.02,0.359,0.058c0.117,0.038,0.225,0.092,0.322,0.16l-0.143,0.467c-0.078-0.058-0.165-0.104-0.26-0.137    c-0.096-0.033-0.188-0.05-0.279-0.05c-0.08,0-0.151,0.014-0.214,0.042c-0.062,0.028-0.113,0.073-0.154,0.136    c-0.042,0.063-0.073,0.143-0.095,0.241s-0.032,0.219-0.032,0.359v0.67h0.836v0.451h-0.836v1.108c0,0.151,0.001,0.302,0.004,0.45    c0.004,0.148,0.009,0.289,0.016,0.423c0.008,0.134,0.018,0.258,0.029,0.372c0.013,0.114,0.027,0.212,0.044,0.293h-0.666v-2.646    h-0.619V67.245z"/>
	</g>
	<g class="st3">
		<path class="st9" d="M92.595,68.28c0,0.49,0.027,0.902,0.081,1.235c0.055,0.334,0.124,0.609,0.209,0.827h-0.677    c-0.014-0.033-0.031-0.08-0.055-0.14c-0.023-0.061-0.047-0.128-0.071-0.205c-0.024-0.076-0.048-0.158-0.07-0.247    c-0.021-0.088-0.04-0.176-0.056-0.265c-0.101,0.13-0.207,0.252-0.319,0.366s-0.23,0.215-0.354,0.304    c-0.124,0.088-0.253,0.157-0.387,0.208c-0.135,0.051-0.271,0.076-0.41,0.076c-0.163,0-0.325-0.035-0.486-0.105    s-0.307-0.175-0.436-0.315c-0.129-0.14-0.233-0.315-0.313-0.527c-0.08-0.211-0.12-0.46-0.12-0.745    c0-0.299,0.033-0.569,0.099-0.812c0.066-0.242,0.155-0.459,0.27-0.648c0.101-0.166,0.207-0.311,0.321-0.436    c0.113-0.124,0.238-0.228,0.373-0.31c0.136-0.081,0.285-0.144,0.447-0.185c0.163-0.042,0.344-0.063,0.542-0.063    c0.098,0,0.207,0.007,0.327,0.021s0.242,0.034,0.368,0.061c0.125,0.025,0.249,0.057,0.373,0.093    c0.124,0.037,0.239,0.076,0.345,0.117V68.28z M91.027,66.957c-0.083,0-0.166,0.01-0.25,0.029    c-0.084,0.019-0.167,0.052-0.248,0.099s-0.16,0.108-0.236,0.185c-0.076,0.077-0.147,0.174-0.215,0.29    c-0.069,0.12-0.125,0.269-0.168,0.446s-0.063,0.359-0.063,0.547c0,0.215,0.02,0.4,0.06,0.555s0.093,0.281,0.159,0.381    c0.065,0.101,0.141,0.174,0.224,0.22c0.084,0.047,0.169,0.07,0.254,0.07c0.108,0,0.227-0.033,0.354-0.102    c0.128-0.067,0.252-0.156,0.373-0.269c0.121-0.111,0.235-0.239,0.343-0.385s0.195-0.296,0.266-0.451v-1.46    c-0.039-0.018-0.089-0.036-0.149-0.055c-0.061-0.018-0.128-0.035-0.201-0.051c-0.073-0.015-0.153-0.027-0.24-0.036    C91.202,66.961,91.114,66.957,91.027,66.957z"/>
	</g>
	<g class="st3">
		<path class="st10" d="M93.775,65.108c0-0.073,0.012-0.142,0.035-0.205s0.057-0.119,0.099-0.167    c0.043-0.048,0.094-0.086,0.153-0.113c0.059-0.027,0.125-0.04,0.197-0.04s0.14,0.013,0.201,0.04s0.115,0.065,0.159,0.113    c0.043,0.048,0.078,0.104,0.104,0.167c0.025,0.063,0.038,0.132,0.038,0.205c0,0.072-0.013,0.141-0.038,0.204    c-0.026,0.063-0.062,0.119-0.104,0.167c-0.044,0.048-0.098,0.086-0.159,0.113s-0.129,0.041-0.201,0.041s-0.139-0.014-0.197-0.041    c-0.06-0.027-0.11-0.065-0.153-0.113c-0.042-0.048-0.075-0.104-0.099-0.167S93.775,65.181,93.775,65.108z M94.627,68.494    c0,0.124,0.002,0.271,0.006,0.441s0.01,0.342,0.016,0.516c0.007,0.174,0.015,0.34,0.023,0.498c0.009,0.159,0.02,0.29,0.033,0.394    h-0.794V68.28c0-0.189-0.001-0.377-0.002-0.561c-0.001-0.185-0.004-0.358-0.008-0.523s-0.01-0.318-0.018-0.46    c-0.008-0.141-0.018-0.263-0.03-0.363h0.773V68.494z"/>
	</g>
	<g class="st11">
		<path class="st10" d="M96.957,67.104c0.111,0,0.217,0.008,0.314,0.021c0.098,0.015,0.188,0.034,0.27,0.058    c0.081,0.024,0.156,0.052,0.225,0.081c0.068,0.03,0.129,0.06,0.183,0.089l-0.108,0.545c-0.052-0.031-0.11-0.063-0.177-0.098    s-0.138-0.066-0.215-0.096c-0.078-0.028-0.16-0.053-0.248-0.072c-0.088-0.021-0.179-0.03-0.274-0.03    c-0.113,0-0.209,0.013-0.286,0.038c-0.077,0.024-0.14,0.056-0.186,0.095c-0.047,0.038-0.08,0.082-0.101,0.131    s-0.031,0.096-0.031,0.142c0,0.054,0.008,0.102,0.024,0.143c0.017,0.042,0.052,0.08,0.104,0.115    c0.053,0.036,0.127,0.07,0.225,0.104c0.097,0.033,0.227,0.068,0.39,0.105c0.141,0.031,0.272,0.071,0.396,0.12    s0.232,0.11,0.325,0.185c0.093,0.075,0.166,0.165,0.22,0.27c0.054,0.105,0.081,0.23,0.081,0.375c0,0.142-0.031,0.272-0.094,0.393    c-0.062,0.12-0.146,0.226-0.254,0.316c-0.107,0.09-0.232,0.161-0.377,0.212s-0.301,0.076-0.468,0.076    c-0.126,0-0.247-0.01-0.364-0.028c-0.116-0.019-0.226-0.045-0.328-0.078s-0.195-0.071-0.28-0.115    c-0.085-0.043-0.158-0.089-0.22-0.137l0.154-0.561c0.07,0.063,0.149,0.119,0.237,0.172c0.088,0.052,0.178,0.096,0.271,0.134    c0.094,0.037,0.187,0.065,0.28,0.085c0.095,0.021,0.183,0.03,0.266,0.03c0.091,0,0.174-0.013,0.249-0.036    c0.075-0.024,0.141-0.055,0.195-0.094c0.055-0.038,0.098-0.083,0.128-0.134c0.031-0.051,0.047-0.104,0.047-0.157    c0-0.058-0.012-0.112-0.036-0.163c-0.023-0.051-0.066-0.1-0.13-0.146c-0.063-0.047-0.149-0.092-0.26-0.136    c-0.11-0.043-0.253-0.087-0.426-0.131c-0.188-0.045-0.342-0.1-0.46-0.161c-0.119-0.063-0.212-0.131-0.279-0.206    c-0.066-0.074-0.112-0.155-0.138-0.243c-0.024-0.087-0.037-0.179-0.037-0.276c0-0.048,0.008-0.104,0.023-0.169    c0.016-0.063,0.041-0.131,0.077-0.2s0.084-0.139,0.143-0.206s0.133-0.127,0.222-0.181c0.089-0.053,0.193-0.096,0.313-0.129    C96.662,67.121,96.8,67.104,96.957,67.104z"/>
	</g>
	<g class="st3">
		<path class="st7" d="M101.447,68.692c0,0.393,0.021,0.722,0.065,0.988c0.043,0.268,0.099,0.487,0.167,0.662h-0.542    c-0.011-0.027-0.024-0.064-0.043-0.112s-0.038-0.102-0.058-0.163s-0.038-0.127-0.056-0.198c-0.018-0.07-0.032-0.141-0.045-0.211    c-0.081,0.104-0.166,0.201-0.256,0.292c-0.09,0.092-0.184,0.173-0.283,0.243c-0.099,0.07-0.202,0.126-0.31,0.167    c-0.107,0.04-0.217,0.061-0.328,0.061c-0.13,0-0.26-0.028-0.389-0.084c-0.129-0.057-0.245-0.141-0.349-0.253    c-0.104-0.111-0.187-0.252-0.251-0.422c-0.063-0.169-0.096-0.367-0.096-0.596c0-0.239,0.026-0.455,0.079-0.649    s0.124-0.367,0.215-0.519c0.081-0.133,0.166-0.249,0.257-0.349s0.19-0.182,0.299-0.247s0.229-0.115,0.358-0.148    s0.274-0.05,0.434-0.05c0.078,0,0.165,0.006,0.262,0.018c0.096,0.011,0.193,0.027,0.294,0.048c0.1,0.021,0.199,0.046,0.299,0.075    c0.099,0.028,0.19,0.06,0.275,0.093V68.692z M100.193,67.634c-0.066,0-0.133,0.008-0.2,0.023    c-0.066,0.016-0.133,0.042-0.198,0.079c-0.064,0.038-0.128,0.087-0.188,0.148s-0.118,0.139-0.172,0.231    c-0.056,0.096-0.101,0.215-0.135,0.356c-0.034,0.143-0.051,0.288-0.051,0.438c0,0.173,0.016,0.32,0.048,0.444    c0.032,0.123,0.074,0.225,0.127,0.305s0.112,0.139,0.18,0.176c0.066,0.038,0.135,0.057,0.202,0.057    c0.087,0,0.182-0.027,0.284-0.081c0.102-0.054,0.201-0.126,0.299-0.215c0.097-0.09,0.188-0.192,0.273-0.309    s0.156-0.236,0.212-0.361v-1.167c-0.03-0.015-0.07-0.029-0.119-0.044c-0.048-0.015-0.102-0.028-0.161-0.04    c-0.059-0.013-0.122-0.022-0.191-0.03C100.333,67.638,100.264,67.634,100.193,67.634z"/>
		<path class="st7" d="M104.139,67.104c0.33,0,0.583,0.108,0.759,0.325s0.264,0.539,0.264,0.967v1.946h-0.573V68.63    c0-0.194-0.013-0.355-0.039-0.482c-0.025-0.126-0.063-0.227-0.114-0.3c-0.051-0.074-0.114-0.125-0.192-0.154    c-0.077-0.029-0.169-0.044-0.273-0.044c-0.112,0-0.221,0.026-0.327,0.079c-0.106,0.054-0.204,0.122-0.293,0.206    s-0.167,0.179-0.235,0.285c-0.067,0.105-0.118,0.211-0.151,0.317v1.806h-0.573v-1.915c0-0.307-0.017-0.567-0.051-0.78    c-0.034-0.212-0.068-0.373-0.104-0.48h0.558c0.012,0.033,0.024,0.076,0.037,0.129c0.012,0.053,0.023,0.108,0.034,0.167    c0.01,0.058,0.02,0.115,0.027,0.171l0.024,0.141c0.196-0.237,0.395-0.408,0.595-0.513S103.92,67.104,104.139,67.104z"/>
	</g>
	<g class="st3">
		<path class="st7" d="M82.676,56.411h0.619v-1.013h0.573v1.013h1.007v0.451h-1.007v1.433c0,0.159,0.008,0.29,0.023,0.392    s0.039,0.182,0.071,0.238c0.031,0.058,0.072,0.097,0.122,0.117s0.109,0.031,0.18,0.031c0.089,0,0.188-0.021,0.301-0.06    c0.111-0.039,0.235-0.098,0.371-0.174v0.498c-0.143,0.093-0.278,0.158-0.409,0.194c-0.13,0.036-0.249,0.055-0.358,0.055    c-0.122,0-0.235-0.015-0.341-0.042c-0.105-0.028-0.198-0.077-0.277-0.148c-0.079-0.07-0.142-0.164-0.188-0.281    c-0.045-0.117-0.068-0.267-0.068-0.447v-1.806h-0.619V56.411z"/>
	</g>
	<g class="st11">
		<path class="st10" d="M86.949,56.271c0.17,0,0.319,0.021,0.449,0.061c0.13,0.041,0.243,0.097,0.338,0.168    c0.095,0.072,0.174,0.155,0.238,0.251s0.115,0.198,0.153,0.309c0.038,0.109,0.065,0.225,0.082,0.344s0.024,0.237,0.024,0.354    v0.121c0,0.052-0.001,0.093-0.003,0.122h-2.195c0.006,0.183,0.034,0.341,0.085,0.476c0.051,0.136,0.12,0.247,0.208,0.335    c0.087,0.089,0.19,0.154,0.31,0.198c0.118,0.043,0.248,0.065,0.389,0.065c0.2,0,0.396-0.023,0.588-0.069    c0.192-0.045,0.383-0.126,0.573-0.242l0.062,0.514c-0.109,0.056-0.217,0.104-0.322,0.144c-0.104,0.039-0.21,0.071-0.315,0.096    c-0.105,0.025-0.212,0.043-0.32,0.055s-0.223,0.018-0.343,0.018c-0.198,0-0.387-0.035-0.566-0.104s-0.338-0.173-0.474-0.309    c-0.137-0.136-0.245-0.305-0.325-0.506c-0.081-0.201-0.121-0.435-0.121-0.7c0-0.258,0.035-0.49,0.104-0.699    c0.069-0.209,0.168-0.387,0.296-0.535s0.284-0.263,0.468-0.343S86.721,56.271,86.949,56.271z M86.903,56.737    c-0.228,0-0.413,0.067-0.558,0.201s-0.239,0.342-0.285,0.624h1.617c0-0.133-0.02-0.25-0.058-0.354    c-0.038-0.103-0.092-0.189-0.161-0.26s-0.151-0.123-0.246-0.158C87.118,56.755,87.015,56.737,86.903,56.737z"/>
		<path class="st10" d="M90.34,56.271c0.17,0,0.319,0.021,0.449,0.061c0.13,0.041,0.243,0.097,0.338,0.168    c0.095,0.072,0.174,0.155,0.238,0.251s0.115,0.198,0.153,0.309c0.038,0.109,0.065,0.225,0.082,0.344s0.024,0.237,0.024,0.354    v0.121c0,0.052-0.001,0.093-0.003,0.122h-2.195c0.006,0.183,0.034,0.341,0.085,0.476c0.051,0.136,0.12,0.247,0.208,0.335    c0.087,0.089,0.19,0.154,0.31,0.198c0.118,0.043,0.248,0.065,0.389,0.065c0.2,0,0.396-0.023,0.588-0.069    c0.192-0.045,0.383-0.126,0.573-0.242l0.062,0.514c-0.109,0.056-0.217,0.104-0.322,0.144c-0.104,0.039-0.21,0.071-0.315,0.096    c-0.105,0.025-0.212,0.043-0.32,0.055s-0.223,0.018-0.343,0.018c-0.198,0-0.387-0.035-0.566-0.104s-0.338-0.173-0.474-0.309    c-0.137-0.136-0.245-0.305-0.325-0.506c-0.081-0.201-0.121-0.435-0.121-0.7c0-0.258,0.035-0.49,0.104-0.699    c0.069-0.209,0.168-0.387,0.296-0.535s0.284-0.263,0.468-0.343S90.111,56.271,90.34,56.271z M90.294,56.737    c-0.228,0-0.413,0.067-0.558,0.201s-0.239,0.342-0.285,0.624h1.617c0-0.133-0.02-0.25-0.058-0.354    c-0.038-0.103-0.092-0.189-0.161-0.26s-0.151-0.123-0.246-0.158C90.509,56.755,90.405,56.737,90.294,56.737z"/>
	</g>
	<g class="st3">
		<path class="st7" d="M92.198,57.313h2.167v0.467h-2.167V57.313z"/>
	</g>
	<g class="st11">
		<path class="st10" d="M96.209,56.271c0.111,0,0.217,0.008,0.314,0.021c0.098,0.015,0.188,0.034,0.27,0.058    c0.081,0.024,0.156,0.052,0.225,0.081c0.068,0.03,0.129,0.06,0.183,0.089l-0.108,0.545c-0.052-0.031-0.11-0.063-0.177-0.098    S96.777,56.9,96.7,56.871c-0.078-0.028-0.16-0.053-0.248-0.072c-0.088-0.021-0.179-0.03-0.274-0.03    c-0.113,0-0.209,0.013-0.286,0.038c-0.077,0.024-0.14,0.056-0.186,0.095c-0.047,0.038-0.08,0.082-0.101,0.131    s-0.031,0.096-0.031,0.142c0,0.054,0.008,0.102,0.024,0.143c0.017,0.042,0.052,0.08,0.104,0.115    c0.053,0.036,0.127,0.07,0.225,0.104c0.097,0.033,0.227,0.068,0.39,0.105c0.141,0.031,0.272,0.071,0.396,0.12    s0.232,0.11,0.325,0.185c0.093,0.075,0.166,0.165,0.22,0.27c0.054,0.105,0.081,0.23,0.081,0.375c0,0.142-0.031,0.272-0.094,0.393    c-0.062,0.12-0.146,0.226-0.254,0.316c-0.107,0.09-0.232,0.161-0.377,0.212s-0.301,0.076-0.468,0.076    c-0.126,0-0.247-0.01-0.364-0.028c-0.116-0.019-0.226-0.045-0.328-0.078s-0.195-0.071-0.28-0.115    c-0.085-0.043-0.158-0.089-0.22-0.137l0.154-0.561c0.07,0.063,0.149,0.119,0.237,0.172c0.088,0.052,0.178,0.096,0.271,0.134    c0.094,0.037,0.187,0.065,0.28,0.085c0.095,0.021,0.183,0.03,0.266,0.03c0.091,0,0.174-0.013,0.249-0.036    c0.075-0.024,0.141-0.055,0.195-0.094c0.055-0.038,0.098-0.083,0.128-0.134c0.031-0.051,0.047-0.104,0.047-0.157    c0-0.058-0.012-0.112-0.036-0.163c-0.023-0.051-0.066-0.1-0.13-0.146c-0.063-0.047-0.149-0.092-0.26-0.136    c-0.11-0.043-0.253-0.087-0.426-0.131c-0.188-0.045-0.342-0.1-0.46-0.161c-0.119-0.063-0.212-0.131-0.279-0.206    c-0.066-0.074-0.112-0.155-0.138-0.243c-0.024-0.087-0.037-0.179-0.037-0.276c0-0.048,0.008-0.104,0.023-0.169    c0.016-0.063,0.041-0.131,0.077-0.2s0.084-0.139,0.143-0.206s0.133-0.127,0.222-0.181c0.089-0.053,0.193-0.096,0.313-0.129    C95.914,56.287,96.052,56.271,96.209,56.271z"/>
	</g>
	<g class="st3">
		<path class="st7" d="M99.802,56.271c0.33,0,0.583,0.108,0.758,0.325c0.176,0.217,0.264,0.539,0.264,0.967v1.946h-0.573v-1.713    c0-0.194-0.013-0.355-0.038-0.482c-0.026-0.126-0.064-0.227-0.116-0.3c-0.052-0.074-0.116-0.125-0.193-0.154    c-0.078-0.029-0.168-0.044-0.271-0.044c-0.111,0-0.221,0.026-0.326,0.079c-0.106,0.054-0.204,0.122-0.293,0.206    s-0.167,0.179-0.235,0.285c-0.068,0.105-0.119,0.211-0.152,0.317v1.806h-0.572V55.99c0-0.336-0.002-0.63-0.007-0.883    c-0.004-0.252-0.018-0.445-0.04-0.58h0.619v2.397c0.153-0.219,0.333-0.382,0.539-0.49C99.37,56.325,99.582,56.271,99.802,56.271z"/>
	</g>
	<g class="st3">
		<path class="st10" d="M101.841,54.274c0-0.073,0.012-0.142,0.035-0.205s0.057-0.119,0.099-0.167    c0.043-0.048,0.094-0.086,0.153-0.113c0.059-0.027,0.125-0.04,0.197-0.04s0.14,0.013,0.201,0.04s0.115,0.065,0.159,0.113    c0.043,0.048,0.078,0.104,0.104,0.167c0.025,0.063,0.038,0.132,0.038,0.205c0,0.072-0.013,0.141-0.038,0.204    c-0.026,0.063-0.062,0.119-0.104,0.167c-0.044,0.048-0.098,0.086-0.159,0.113s-0.129,0.041-0.201,0.041s-0.139-0.014-0.197-0.041    c-0.06-0.027-0.11-0.065-0.153-0.113c-0.042-0.048-0.075-0.104-0.099-0.167S101.841,54.347,101.841,54.274z M102.692,57.66    c0,0.124,0.002,0.271,0.006,0.441s0.01,0.342,0.016,0.516c0.007,0.174,0.015,0.34,0.023,0.498c0.009,0.159,0.02,0.29,0.033,0.394    h-0.794v-2.063c0-0.189-0.001-0.377-0.002-0.561c-0.001-0.185-0.004-0.358-0.008-0.523s-0.01-0.318-0.018-0.46    c-0.008-0.141-0.018-0.263-0.03-0.363h0.773V57.66z"/>
	</g>
	<g class="st3">
		<path class="st7" d="M103.908,59.509v-1.915c0-0.307-0.018-0.567-0.052-0.78c-0.034-0.212-0.068-0.373-0.104-0.48h0.558    c0.024,0.058,0.047,0.131,0.066,0.22c0.02,0.088,0.036,0.186,0.05,0.294c0.013,0.108,0.022,0.223,0.029,0.346    c0.006,0.122,0.009,0.246,0.009,0.37v0.203c0.105-0.293,0.209-0.535,0.31-0.728c0.102-0.192,0.202-0.345,0.303-0.459    c0.1-0.114,0.2-0.194,0.302-0.24c0.101-0.045,0.204-0.068,0.31-0.068c0.078,0,0.15,0.008,0.217,0.021    c0.066,0.015,0.133,0.039,0.201,0.072l-0.093,0.576c-0.06-0.025-0.112-0.042-0.158-0.05c-0.045-0.009-0.101-0.013-0.167-0.013    c-0.085,0-0.174,0.036-0.267,0.107s-0.184,0.166-0.273,0.285c-0.09,0.118-0.176,0.252-0.256,0.401    c-0.081,0.149-0.151,0.303-0.212,0.459c-0.062,0.157-0.109,0.31-0.146,0.459s-0.055,0.283-0.055,0.399    c0,0.052,0.001,0.1,0.002,0.143c0.001,0.044,0.004,0.086,0.009,0.126c0.006,0.041,0.012,0.081,0.021,0.122    c0.008,0.04,0.019,0.083,0.031,0.129H103.908z"/>
	</g>
	<g>
		<path class="st7" d="M106.276,56.411h0.619v-1.013h0.573v1.013h1.007v0.451h-1.007v1.433c0,0.159,0.008,0.29,0.023,0.392    s0.039,0.182,0.071,0.238c0.031,0.058,0.072,0.097,0.122,0.117s0.109,0.031,0.18,0.031c0.089,0,0.188-0.021,0.301-0.06    c0.111-0.039,0.235-0.098,0.371-0.174v0.498c-0.143,0.093-0.278,0.158-0.409,0.194c-0.13,0.036-0.249,0.055-0.358,0.055    c-0.122,0-0.235-0.015-0.341-0.042c-0.105-0.028-0.198-0.077-0.277-0.148c-0.079-0.07-0.142-0.164-0.188-0.281    c-0.045-0.117-0.068-0.267-0.068-0.447v-1.806h-0.619V56.411z"/>
		<path class="st7" d="M106.184,59.976v-0.249h2.586v0.249H106.184z"/>
	</g>
	<g class="st3">
		<path class="st7" d="M84.264,81.672H83.69v-1.774c0-0.193-0.007-0.35-0.021-0.469s-0.039-0.213-0.073-0.28    s-0.08-0.112-0.138-0.136c-0.058-0.022-0.13-0.034-0.217-0.034c-0.076,0-0.152,0.016-0.229,0.047    c-0.077,0.031-0.149,0.075-0.219,0.132c-0.069,0.058-0.133,0.125-0.192,0.203c-0.059,0.077-0.108,0.163-0.149,0.257v2.055h-0.573    v-1.915c0-0.307-0.018-0.567-0.053-0.78c-0.035-0.212-0.069-0.373-0.103-0.48h0.558c0.022,0.066,0.043,0.145,0.059,0.235    c0.017,0.09,0.03,0.173,0.041,0.247c0.095-0.11,0.186-0.2,0.272-0.271c0.087-0.071,0.173-0.126,0.259-0.167    c0.085-0.04,0.17-0.068,0.255-0.084s0.172-0.023,0.261-0.023c0.101,0,0.192,0.015,0.275,0.044    c0.082,0.029,0.155,0.067,0.218,0.115c0.063,0.048,0.117,0.103,0.163,0.166c0.045,0.063,0.08,0.13,0.105,0.198    c0.097-0.106,0.19-0.192,0.281-0.26c0.091-0.068,0.18-0.121,0.267-0.159s0.172-0.065,0.256-0.081    c0.083-0.016,0.165-0.023,0.246-0.023c0.156,0,0.289,0.025,0.396,0.076c0.106,0.051,0.193,0.126,0.258,0.226    c0.065,0.1,0.111,0.224,0.14,0.371s0.042,0.317,0.042,0.511v2.055h-0.573v-1.713c0-0.201-0.007-0.365-0.021-0.491    c-0.015-0.127-0.039-0.227-0.073-0.299c-0.033-0.073-0.08-0.123-0.138-0.149c-0.058-0.027-0.13-0.041-0.217-0.041    c-0.076,0-0.151,0.016-0.226,0.045c-0.074,0.03-0.146,0.073-0.216,0.128c-0.068,0.055-0.133,0.122-0.191,0.201    c-0.059,0.078-0.111,0.167-0.156,0.265V81.672z"/>
	</g>
	<g class="st3">
		<path class="st5" d="M86.923,79.706c0-0.334,0.05-0.631,0.15-0.889c0.101-0.259,0.236-0.477,0.406-0.654    c0.171-0.178,0.369-0.312,0.597-0.402c0.227-0.091,0.468-0.137,0.724-0.137c0.266,0,0.509,0.046,0.729,0.137    s0.41,0.225,0.569,0.402c0.158,0.178,0.282,0.396,0.37,0.654c0.087,0.258,0.131,0.555,0.131,0.889c0,0.335-0.05,0.631-0.15,0.888    s-0.236,0.473-0.407,0.646c-0.17,0.174-0.368,0.305-0.596,0.395s-0.469,0.135-0.724,0.135c-0.266,0-0.509-0.045-0.729-0.135    s-0.411-0.221-0.569-0.395c-0.159-0.174-0.282-0.39-0.37-0.646S86.923,80.041,86.923,79.706z M87.639,79.706    c0,0.227,0.027,0.429,0.081,0.607c0.055,0.179,0.131,0.33,0.23,0.453c0.1,0.124,0.218,0.218,0.354,0.282    c0.137,0.065,0.289,0.098,0.456,0.098c0.155,0,0.301-0.032,0.438-0.098c0.137-0.064,0.257-0.158,0.358-0.282    c0.102-0.123,0.182-0.274,0.24-0.453c0.058-0.179,0.087-0.381,0.087-0.607c0-0.228-0.027-0.433-0.081-0.612    c-0.055-0.181-0.131-0.334-0.23-0.46c-0.1-0.125-0.218-0.222-0.356-0.288c-0.138-0.065-0.289-0.099-0.455-0.099    c-0.157,0-0.304,0.033-0.44,0.099c-0.138,0.066-0.256,0.163-0.356,0.288c-0.101,0.126-0.18,0.279-0.238,0.46    C87.668,79.273,87.639,79.479,87.639,79.706z"/>
	</g>
	<g class="st3">
		<path class="st9" d="M93.751,77.624c0.413,0,0.729,0.136,0.948,0.407c0.22,0.271,0.329,0.674,0.329,1.208v2.433h-0.716v-2.141    c0-0.244-0.017-0.445-0.049-0.604s-0.08-0.283-0.143-0.375c-0.063-0.093-0.144-0.156-0.24-0.193    c-0.097-0.036-0.211-0.054-0.343-0.054c-0.14,0-0.275,0.032-0.408,0.099s-0.255,0.152-0.366,0.257    c-0.11,0.105-0.209,0.224-0.294,0.356c-0.085,0.132-0.148,0.265-0.189,0.396v2.258h-0.717v-2.394c0-0.384-0.021-0.709-0.063-0.975    c-0.043-0.267-0.086-0.467-0.13-0.602h0.697c0.016,0.041,0.03,0.095,0.046,0.161s0.03,0.136,0.043,0.208    c0.013,0.073,0.024,0.145,0.035,0.215l0.03,0.175c0.245-0.296,0.493-0.509,0.743-0.641C93.216,77.689,93.478,77.624,93.751,77.624    z"/>
	</g>
	<g class="st3">
		<path class="st7" d="M97.149,78.434c0.111,0,0.217,0.008,0.314,0.021c0.098,0.015,0.188,0.034,0.27,0.058    c0.081,0.024,0.156,0.052,0.225,0.081c0.068,0.03,0.129,0.06,0.183,0.089l-0.108,0.545c-0.052-0.031-0.11-0.063-0.177-0.098    s-0.138-0.066-0.215-0.096c-0.078-0.028-0.16-0.053-0.248-0.072c-0.088-0.021-0.179-0.03-0.274-0.03    c-0.113,0-0.209,0.013-0.286,0.038c-0.077,0.024-0.14,0.056-0.186,0.095c-0.047,0.038-0.08,0.082-0.101,0.131    s-0.031,0.096-0.031,0.142c0,0.054,0.008,0.102,0.024,0.143c0.017,0.042,0.052,0.08,0.104,0.115    c0.053,0.036,0.127,0.07,0.225,0.104c0.097,0.033,0.227,0.068,0.39,0.105c0.141,0.031,0.272,0.071,0.396,0.12    s0.232,0.11,0.325,0.185c0.093,0.075,0.166,0.165,0.22,0.27c0.054,0.105,0.081,0.23,0.081,0.375c0,0.142-0.031,0.272-0.094,0.393    c-0.062,0.12-0.146,0.226-0.254,0.316c-0.107,0.09-0.232,0.161-0.377,0.212s-0.301,0.076-0.468,0.076    c-0.126,0-0.247-0.01-0.364-0.028c-0.116-0.019-0.226-0.045-0.328-0.078s-0.195-0.071-0.28-0.115    c-0.085-0.043-0.158-0.089-0.22-0.137l0.154-0.561c0.07,0.063,0.149,0.119,0.237,0.172c0.088,0.052,0.178,0.096,0.271,0.134    c0.094,0.037,0.187,0.065,0.28,0.085c0.095,0.021,0.183,0.03,0.266,0.03c0.091,0,0.174-0.013,0.249-0.036    c0.075-0.024,0.141-0.055,0.195-0.094c0.055-0.038,0.098-0.083,0.128-0.134c0.031-0.051,0.047-0.104,0.047-0.157    c0-0.058-0.012-0.112-0.036-0.163c-0.023-0.051-0.066-0.1-0.13-0.146c-0.063-0.047-0.149-0.092-0.26-0.136    c-0.11-0.043-0.253-0.087-0.426-0.131c-0.188-0.045-0.342-0.1-0.46-0.161c-0.119-0.063-0.212-0.131-0.279-0.206    c-0.066-0.074-0.112-0.155-0.138-0.243c-0.024-0.087-0.037-0.179-0.037-0.276c0-0.048,0.008-0.104,0.023-0.169    c0.016-0.063,0.041-0.131,0.077-0.2s0.084-0.139,0.143-0.206s0.133-0.127,0.222-0.181c0.089-0.053,0.193-0.096,0.313-0.129    C96.854,78.45,96.992,78.434,97.149,78.434z"/>
		<path class="st7" d="M99.023,77.484c0-0.059,0.009-0.113,0.027-0.164s0.045-0.095,0.079-0.134c0.034-0.038,0.075-0.068,0.122-0.09    c0.048-0.022,0.101-0.033,0.158-0.033s0.111,0.011,0.161,0.033c0.05,0.021,0.092,0.052,0.127,0.09    c0.035,0.039,0.063,0.083,0.083,0.134c0.021,0.051,0.031,0.105,0.031,0.164c0,0.058-0.01,0.112-0.031,0.163    c-0.021,0.051-0.048,0.096-0.083,0.134c-0.035,0.039-0.077,0.068-0.127,0.091c-0.05,0.021-0.104,0.032-0.161,0.032    s-0.11-0.011-0.158-0.032c-0.047-0.022-0.088-0.052-0.122-0.091c-0.034-0.038-0.061-0.083-0.079-0.134    S99.023,77.542,99.023,77.484z M99.704,80.193c0,0.1,0.002,0.217,0.005,0.353c0.003,0.137,0.007,0.273,0.013,0.413    c0.005,0.139,0.011,0.271,0.019,0.398c0.007,0.127,0.016,0.231,0.026,0.314h-0.635v-1.65c0-0.151-0.001-0.301-0.002-0.448    s-0.003-0.287-0.006-0.419c-0.004-0.132-0.008-0.254-0.015-0.367c-0.006-0.113-0.014-0.21-0.024-0.291h0.619V80.193z"/>
		<path class="st7" d="M102.073,78.434c0.17,0,0.319,0.021,0.449,0.061c0.13,0.041,0.243,0.097,0.338,0.168    c0.095,0.072,0.174,0.155,0.238,0.251s0.115,0.198,0.153,0.309c0.038,0.109,0.065,0.225,0.082,0.344s0.024,0.237,0.024,0.354    v0.121c0,0.052-0.001,0.093-0.003,0.122h-2.195c0.006,0.183,0.034,0.341,0.085,0.476c0.051,0.136,0.12,0.247,0.208,0.335    c0.087,0.089,0.19,0.154,0.31,0.198c0.118,0.043,0.248,0.065,0.389,0.065c0.2,0,0.396-0.023,0.588-0.069    c0.192-0.045,0.383-0.126,0.573-0.242l0.062,0.514c-0.109,0.056-0.217,0.104-0.322,0.144c-0.104,0.039-0.21,0.071-0.315,0.096    c-0.105,0.025-0.212,0.043-0.32,0.055s-0.223,0.018-0.343,0.018c-0.198,0-0.387-0.035-0.566-0.104s-0.338-0.173-0.474-0.309    c-0.137-0.136-0.245-0.305-0.325-0.506c-0.081-0.201-0.121-0.435-0.121-0.7c0-0.258,0.035-0.49,0.104-0.699    c0.069-0.209,0.168-0.387,0.296-0.535s0.284-0.263,0.468-0.343S101.845,78.434,102.073,78.434z M102.027,78.9    c-0.228,0-0.413,0.067-0.558,0.201s-0.239,0.342-0.285,0.624h1.617c0-0.133-0.02-0.25-0.058-0.354    c-0.038-0.103-0.092-0.189-0.161-0.26s-0.151-0.123-0.246-0.158C102.242,78.918,102.139,78.9,102.027,78.9z"/>
		<path class="st7" d="M105.154,81.75c-0.66,0-0.99-0.446-0.99-1.339v-0.919c0-0.1-0.001-0.189-0.002-0.271    s-0.004-0.159-0.008-0.235s-0.011-0.153-0.019-0.231c-0.008-0.079-0.02-0.165-0.034-0.259h0.635v1.728    c0,0.177,0.009,0.329,0.026,0.457c0.018,0.127,0.047,0.232,0.089,0.314c0.041,0.082,0.095,0.143,0.162,0.182s0.15,0.06,0.249,0.06    c0.091,0,0.188-0.028,0.291-0.083c0.104-0.055,0.202-0.125,0.296-0.21s0.18-0.179,0.257-0.282    c0.078-0.103,0.137-0.201,0.179-0.297v-0.872c0-0.102-0.001-0.193-0.002-0.275s-0.004-0.16-0.008-0.235    c-0.004-0.074-0.01-0.15-0.019-0.227c-0.008-0.077-0.02-0.163-0.034-0.259h0.635v1.774c0,0.304,0.018,0.568,0.052,0.796    s0.084,0.429,0.15,0.605h-0.527c-0.014-0.035-0.029-0.077-0.046-0.125c-0.017-0.047-0.032-0.098-0.048-0.152    c-0.016-0.054-0.03-0.11-0.044-0.17c-0.013-0.059-0.024-0.117-0.032-0.176c-0.188,0.23-0.382,0.405-0.581,0.523    S105.373,81.75,105.154,81.75z"/>
	</g>
	<g class="st11">
		<path class="st10" d="M107.835,81.672v-1.915c0-0.307-0.018-0.567-0.052-0.78c-0.034-0.212-0.068-0.373-0.104-0.48h0.558    c0.024,0.058,0.047,0.131,0.066,0.22c0.02,0.088,0.036,0.186,0.05,0.294c0.013,0.108,0.022,0.223,0.029,0.346    c0.006,0.122,0.009,0.246,0.009,0.37v0.203c0.105-0.293,0.209-0.535,0.31-0.728c0.102-0.192,0.202-0.345,0.303-0.459    c0.1-0.114,0.2-0.194,0.302-0.24c0.101-0.045,0.204-0.068,0.31-0.068c0.078,0,0.15,0.008,0.217,0.021    c0.066,0.015,0.133,0.039,0.201,0.072l-0.093,0.576c-0.06-0.025-0.112-0.042-0.158-0.05c-0.045-0.009-0.101-0.013-0.167-0.013    c-0.085,0-0.174,0.036-0.267,0.107s-0.184,0.166-0.273,0.285c-0.09,0.118-0.176,0.252-0.256,0.401    c-0.081,0.149-0.151,0.303-0.212,0.459c-0.062,0.157-0.109,0.31-0.146,0.459s-0.055,0.283-0.055,0.399    c0,0.052,0.001,0.1,0.002,0.143c0.001,0.044,0.004,0.086,0.009,0.126c0.006,0.041,0.012,0.081,0.021,0.122    c0.008,0.04,0.019,0.083,0.031,0.129H107.835z"/>
	</g>
	<g class="st3">
		<path class="st5" d="M90.435,90.528c0-0.334,0.05-0.631,0.15-0.889c0.101-0.259,0.236-0.477,0.406-0.654    c0.171-0.178,0.369-0.312,0.597-0.402c0.227-0.091,0.468-0.137,0.724-0.137c0.266,0,0.509,0.046,0.729,0.137    s0.41,0.225,0.569,0.402c0.158,0.178,0.282,0.396,0.37,0.654c0.087,0.258,0.131,0.555,0.131,0.889c0,0.335-0.05,0.631-0.15,0.888    s-0.236,0.473-0.407,0.646c-0.17,0.174-0.368,0.305-0.596,0.395s-0.469,0.135-0.724,0.135c-0.266,0-0.509-0.045-0.729-0.135    s-0.411-0.221-0.569-0.395c-0.159-0.174-0.282-0.39-0.37-0.646S90.435,90.863,90.435,90.528z M91.15,90.528    c0,0.227,0.027,0.429,0.081,0.607c0.055,0.179,0.131,0.33,0.23,0.453c0.1,0.124,0.218,0.218,0.354,0.282    c0.137,0.065,0.289,0.098,0.456,0.098c0.155,0,0.301-0.032,0.438-0.098c0.137-0.064,0.257-0.158,0.358-0.282    c0.102-0.123,0.182-0.274,0.24-0.453c0.058-0.179,0.087-0.381,0.087-0.607c0-0.228-0.027-0.433-0.081-0.612    c-0.055-0.181-0.131-0.334-0.23-0.46c-0.1-0.125-0.218-0.222-0.356-0.288c-0.138-0.065-0.289-0.099-0.455-0.099    c-0.157,0-0.304,0.033-0.44,0.099c-0.138,0.066-0.256,0.163-0.356,0.288c-0.101,0.126-0.18,0.279-0.238,0.46    C91.18,90.096,91.15,90.301,91.15,90.528z"/>
	</g>
	<g class="st3">
		<path class="st8" d="M96.07,88.446c0.212,0,0.399,0.025,0.562,0.076c0.163,0.051,0.304,0.12,0.422,0.21    c0.119,0.09,0.218,0.194,0.298,0.313s0.145,0.248,0.192,0.385c0.047,0.138,0.081,0.281,0.103,0.431    c0.021,0.149,0.03,0.296,0.03,0.441v0.152c0,0.064-0.001,0.115-0.004,0.151h-2.744c0.008,0.229,0.043,0.427,0.106,0.596    s0.149,0.308,0.259,0.418c0.11,0.11,0.239,0.193,0.388,0.247c0.148,0.055,0.311,0.082,0.485,0.082    c0.251,0,0.496-0.028,0.736-0.086c0.239-0.057,0.479-0.158,0.716-0.304l0.077,0.643c-0.137,0.07-0.271,0.13-0.402,0.179    c-0.132,0.05-0.264,0.09-0.395,0.121c-0.132,0.031-0.266,0.054-0.401,0.068c-0.135,0.014-0.278,0.021-0.428,0.021    c-0.247,0-0.483-0.044-0.708-0.131s-0.422-0.215-0.593-0.385c-0.17-0.17-0.306-0.381-0.406-0.633s-0.15-0.544-0.15-0.876    c0-0.321,0.043-0.613,0.129-0.874c0.087-0.261,0.21-0.483,0.37-0.669s0.354-0.328,0.584-0.428    C95.526,88.496,95.784,88.446,96.07,88.446z M96.013,89.03c-0.284,0-0.517,0.084-0.697,0.251s-0.299,0.428-0.355,0.78h2.021    c0-0.166-0.024-0.313-0.072-0.441c-0.047-0.129-0.114-0.237-0.201-0.325c-0.086-0.088-0.188-0.154-0.308-0.198    C96.281,89.053,96.152,89.03,96.013,89.03z"/>
	</g>
	<g>
		<path class="st7" d="M98.564,88.307c0-0.059,0.009-0.113,0.027-0.164s0.045-0.095,0.079-0.134c0.034-0.038,0.075-0.068,0.122-0.09    c0.048-0.022,0.101-0.033,0.158-0.033s0.111,0.011,0.161,0.033c0.05,0.021,0.092,0.052,0.127,0.09    c0.035,0.039,0.063,0.083,0.083,0.134c0.021,0.051,0.031,0.105,0.031,0.164c0,0.058-0.01,0.112-0.031,0.163    c-0.021,0.051-0.048,0.096-0.083,0.134c-0.035,0.039-0.077,0.068-0.127,0.091c-0.05,0.021-0.104,0.032-0.161,0.032    s-0.11-0.011-0.158-0.032c-0.047-0.022-0.088-0.052-0.122-0.091c-0.034-0.038-0.061-0.083-0.079-0.134    S98.564,88.364,98.564,88.307z M99.245,91.016c0,0.1,0.002,0.217,0.005,0.353c0.003,0.137,0.007,0.273,0.013,0.413    c0.005,0.139,0.011,0.271,0.019,0.398c0.007,0.127,0.016,0.231,0.026,0.314h-0.635v-1.65c0-0.151-0.001-0.301-0.002-0.448    s-0.003-0.287-0.006-0.419c-0.004-0.132-0.008-0.254-0.015-0.367c-0.006-0.113-0.014-0.21-0.024-0.291h0.619V91.016z"/>
		<path class="st7" d="M100.995,91.016c0,0.1,0.002,0.217,0.005,0.352s0.007,0.271,0.013,0.411c0.005,0.139,0.011,0.271,0.019,0.398    c0.007,0.126,0.016,0.232,0.026,0.317h-0.635v-3.519c0-0.303-0.006-0.577-0.016-0.823c-0.011-0.246-0.026-0.459-0.047-0.64h0.635    V91.016z"/>
		<path class="st7" d="M98.084,92.961v-0.249h3.499v0.249H98.084z"/>
	</g>
	<g>
		<g class="st3">
			<path class="st8" d="M88.279,10.544c0.27,0,0.508,0.032,0.715,0.097s0.386,0.154,0.537,0.268c0.151,0.114,0.277,0.247,0.38,0.399     c0.102,0.152,0.183,0.315,0.243,0.491c0.062,0.175,0.104,0.357,0.131,0.547s0.04,0.377,0.04,0.563v0.193     c0,0.083-0.002,0.147-0.005,0.193h-3.495c0.01,0.291,0.055,0.543,0.136,0.758c0.08,0.214,0.19,0.392,0.33,0.533     c0.14,0.14,0.304,0.245,0.493,0.314c0.188,0.069,0.395,0.104,0.618,0.104c0.319,0,0.631-0.036,0.937-0.109     s0.609-0.202,0.912-0.387l0.099,0.818c-0.175,0.089-0.345,0.165-0.513,0.228c-0.168,0.063-0.335,0.114-0.503,0.153     c-0.167,0.04-0.338,0.069-0.51,0.087c-0.173,0.018-0.354,0.027-0.545,0.027c-0.315,0-0.616-0.056-0.902-0.166     c-0.285-0.111-0.537-0.274-0.754-0.491s-0.389-0.485-0.518-0.805c-0.128-0.32-0.192-0.692-0.192-1.115     c0-0.41,0.056-0.78,0.166-1.112c0.109-0.332,0.267-0.616,0.471-0.853c0.203-0.236,0.451-0.418,0.744-0.545     C87.586,10.608,87.915,10.544,88.279,10.544z M88.205,11.288c-0.361,0-0.657,0.107-0.887,0.32     c-0.23,0.213-0.381,0.544-0.453,0.994h2.572c0-0.211-0.03-0.399-0.091-0.563c-0.062-0.164-0.146-0.301-0.257-0.414     c-0.109-0.112-0.24-0.197-0.392-0.253S88.383,11.288,88.205,11.288z"/>
		</g>
		<g class="st3">
			<path class="st5" d="M92.981,15.822c-1.051,0-1.577-0.71-1.577-2.131v-1.462c0-0.159-0.001-0.302-0.002-0.431     c-0.002-0.129-0.006-0.253-0.013-0.374s-0.017-0.244-0.029-0.37c-0.014-0.125-0.031-0.262-0.055-0.411h1.011v2.75     c0,0.281,0.014,0.522,0.042,0.726c0.027,0.203,0.074,0.37,0.141,0.5c0.065,0.13,0.151,0.227,0.259,0.29     c0.106,0.063,0.238,0.094,0.396,0.094c0.145,0,0.299-0.043,0.463-0.131c0.165-0.087,0.321-0.199,0.471-0.334     c0.149-0.135,0.286-0.285,0.409-0.448s0.218-0.321,0.284-0.474v-1.387c0-0.162-0.001-0.308-0.003-0.438     c-0.002-0.131-0.006-0.255-0.013-0.375c-0.006-0.119-0.016-0.239-0.029-0.362c-0.013-0.122-0.031-0.259-0.054-0.411h1.01v2.825     c0,0.482,0.027,0.904,0.082,1.266c0.054,0.362,0.134,0.683,0.238,0.964h-0.838c-0.022-0.056-0.048-0.122-0.073-0.198     c-0.026-0.076-0.052-0.157-0.077-0.243c-0.024-0.086-0.047-0.176-0.068-0.27c-0.021-0.094-0.039-0.188-0.052-0.28     c-0.3,0.367-0.607,0.645-0.925,0.833C93.663,15.728,93.33,15.822,92.981,15.822z"/>
		</g>
		<g class="st3">
			<path class="st7" d="M83.073,18.529h0.619v-0.545c0-0.467,0.095-0.817,0.283-1.051c0.189-0.233,0.451-0.35,0.785-0.35     c0.122,0,0.241,0.019,0.359,0.058c0.117,0.038,0.225,0.092,0.322,0.16L85.3,17.269c-0.078-0.058-0.165-0.104-0.26-0.137     c-0.096-0.033-0.188-0.05-0.279-0.05c-0.08,0-0.151,0.014-0.214,0.042c-0.062,0.028-0.113,0.073-0.154,0.135     c-0.042,0.063-0.073,0.143-0.095,0.242s-0.032,0.218-0.032,0.359v0.669h0.836v0.452h-0.836v1.108c0,0.151,0.001,0.301,0.004,0.45     c0.004,0.148,0.009,0.29,0.016,0.424c0.008,0.134,0.018,0.258,0.029,0.372c0.013,0.114,0.027,0.211,0.044,0.292h-0.666v-2.646     h-0.619V18.529z"/>
			<path class="st7" d="M86.433,20.148c0,0.1,0.002,0.217,0.005,0.352c0.003,0.135,0.007,0.272,0.013,0.411     c0.005,0.139,0.011,0.272,0.019,0.399c0.007,0.126,0.016,0.232,0.026,0.317H85.86v-3.519c0-0.303-0.006-0.578-0.016-0.823     c-0.011-0.246-0.026-0.459-0.047-0.64h0.635V20.148z"/>
		</g>
		<g class="st3">
			<path class="st8" d="M89.246,17.58c0.212,0,0.399,0.025,0.562,0.076c0.163,0.05,0.304,0.121,0.422,0.21     c0.119,0.089,0.218,0.194,0.298,0.313c0.08,0.119,0.145,0.248,0.192,0.385c0.047,0.138,0.081,0.281,0.103,0.43     c0.021,0.149,0.03,0.296,0.03,0.441v0.152c0,0.065-0.001,0.116-0.004,0.152h-2.744c0.008,0.229,0.043,0.427,0.106,0.596     c0.063,0.168,0.149,0.308,0.259,0.418c0.11,0.11,0.239,0.192,0.388,0.247c0.148,0.054,0.311,0.082,0.485,0.082     c0.251,0,0.496-0.028,0.736-0.085c0.239-0.057,0.479-0.158,0.716-0.304l0.077,0.642c-0.137,0.07-0.271,0.13-0.402,0.179     s-0.264,0.089-0.395,0.121c-0.132,0.031-0.266,0.054-0.401,0.068c-0.135,0.015-0.278,0.021-0.428,0.021     c-0.247,0-0.483-0.043-0.708-0.13s-0.422-0.215-0.593-0.385c-0.17-0.17-0.306-0.381-0.406-0.632     c-0.101-0.252-0.15-0.543-0.15-0.876c0-0.321,0.043-0.613,0.129-0.874c0.087-0.261,0.21-0.484,0.37-0.669     s0.354-0.328,0.584-0.428C88.702,17.63,88.96,17.58,89.246,17.58z M89.188,18.164c-0.284,0-0.517,0.083-0.697,0.251     s-0.299,0.428-0.355,0.78h2.021c0-0.166-0.024-0.313-0.072-0.442c-0.047-0.128-0.114-0.236-0.201-0.325     c-0.086-0.088-0.188-0.154-0.308-0.199C89.457,18.186,89.328,18.164,89.188,18.164z"/>
		</g>
		<g class="st3">
			<path class="st5" d="M93.099,21.725c-0.826,0-1.239-0.558-1.239-1.673v-1.148c0-0.125,0-0.237-0.002-0.338     c-0.001-0.101-0.004-0.199-0.009-0.294c-0.006-0.095-0.014-0.191-0.023-0.29c-0.011-0.099-0.024-0.206-0.043-0.323h0.794v2.16     c0,0.22,0.011,0.41,0.032,0.57c0.022,0.16,0.06,0.291,0.11,0.393c0.052,0.103,0.12,0.179,0.204,0.228     c0.083,0.049,0.188,0.074,0.312,0.074c0.113,0,0.234-0.034,0.363-0.103s0.252-0.156,0.37-0.263     c0.117-0.106,0.225-0.224,0.321-0.353s0.171-0.252,0.223-0.372v-1.09c0-0.127-0.001-0.242-0.002-0.344     c-0.002-0.103-0.005-0.201-0.01-0.294c-0.006-0.093-0.013-0.188-0.023-0.284c-0.011-0.096-0.024-0.204-0.043-0.323h0.794v2.218     c0,0.379,0.021,0.71,0.063,0.995c0.043,0.284,0.105,0.536,0.188,0.757h-0.658c-0.019-0.044-0.038-0.096-0.059-0.156     s-0.04-0.123-0.06-0.19c-0.02-0.068-0.037-0.138-0.055-0.212c-0.017-0.074-0.03-0.147-0.04-0.22     c-0.235,0.288-0.477,0.506-0.726,0.654S93.372,21.725,93.099,21.725z"/>
		</g>
		<g>
			<path class="st7" d="M96.327,21.627v-1.915c0-0.307-0.018-0.567-0.052-0.78s-0.068-0.373-0.104-0.481h0.558     c0.024,0.058,0.047,0.131,0.066,0.219c0.02,0.088,0.036,0.187,0.05,0.294c0.013,0.108,0.022,0.223,0.029,0.346     c0.006,0.123,0.009,0.246,0.009,0.371v0.202c0.105-0.292,0.209-0.535,0.31-0.727c0.102-0.192,0.202-0.345,0.303-0.459     c0.1-0.114,0.2-0.194,0.302-0.24c0.101-0.046,0.204-0.069,0.31-0.069c0.078,0,0.15,0.007,0.217,0.022s0.133,0.039,0.201,0.072     l-0.093,0.576c-0.06-0.025-0.112-0.042-0.158-0.05c-0.045-0.008-0.101-0.012-0.167-0.012c-0.085,0-0.174,0.036-0.267,0.107     c-0.093,0.071-0.184,0.167-0.273,0.285s-0.176,0.252-0.256,0.402C97.23,19.94,97.16,20.093,97.1,20.25     c-0.062,0.157-0.109,0.31-0.146,0.459s-0.055,0.282-0.055,0.398c0,0.052,0.001,0.1,0.002,0.143     c0.001,0.044,0.004,0.086,0.009,0.126c0.006,0.041,0.012,0.081,0.021,0.121c0.008,0.041,0.019,0.084,0.031,0.129H96.327z"/>
			<path class="st7" d="M95.847,22.095v-0.25h2.756v0.25H95.847z"/>
		</g>
		<g class="st3">
			<path class="st12" d="M96.668,26.973l-0.262-0.115l1.059-2.354H96.14v-0.283h1.758L96.668,26.973z"/>
			<path class="st12" d="M100.307,24.806c0,0.343-0.277,0.622-0.619,0.622c-0.341,0-0.618-0.279-0.618-0.622     c0-0.342,0.277-0.621,0.618-0.621C100.029,24.185,100.307,24.464,100.307,24.806z M99.478,26.937h-0.25l1.979-2.716h0.25     L99.478,26.937z M100.077,24.806c0-0.215-0.175-0.39-0.39-0.39c-0.214,0-0.389,0.175-0.389,0.39c0,0.215,0.175,0.391,0.389,0.391     C99.902,25.197,100.077,25.021,100.077,24.806z M101.616,26.352c0,0.342-0.278,0.621-0.619,0.621s-0.619-0.279-0.619-0.621     s0.278-0.621,0.619-0.621S101.616,26.009,101.616,26.352z M101.386,26.352c0-0.215-0.175-0.39-0.389-0.39     s-0.389,0.175-0.389,0.39s0.175,0.39,0.389,0.39S101.386,26.566,101.386,26.352z"/>
		</g>
		<g class="st3">
			<path class="st12" d="M80.193,24.3h0.834v0.095h-0.353c-0.076,0-0.129,0.025-0.156,0.074c-0.016,0.027-0.023,0.063-0.023,0.107     v2.68c0,0.059,0.009,0.103,0.025,0.132c0.028,0.05,0.085,0.076,0.168,0.076h0.339v0.101h-0.834V24.3z"/>
			<path class="st12" d="M82.444,25.06c0.189-0.003,0.364,0.032,0.525,0.106c0.153,0.071,0.274,0.174,0.362,0.309     c0.102-0.171,0.242-0.293,0.42-0.366c0.087-0.035,0.177-0.053,0.27-0.053c0.025,0,0.057,0.002,0.095,0.008     c0.289,0.04,0.487,0.187,0.594,0.439c0.041,0.096,0.061,0.17,0.061,0.223c0,0.006-0.001,0.017-0.004,0.03     c-0.002,0.013-0.004,0.023-0.004,0.03c-0.009,0.016-0.03,0.024-0.063,0.024c-0.011,0-0.027,0-0.048-0.002     c-0.021-0.001-0.037-0.002-0.047-0.002h-1.11c-0.005,0.004-0.008,0.018-0.008,0.04c0,0.11,0.02,0.228,0.059,0.354     c0.042,0.141,0.097,0.245,0.163,0.312c0.169,0.173,0.353,0.259,0.552,0.259c0.124,0,0.262-0.04,0.414-0.121     c0.065-0.034,0.104-0.05,0.116-0.05c0.014,0.006,0.021,0.016,0.021,0.028c0,0.021-0.01,0.031-0.028,0.031     c-0.183,0.215-0.4,0.323-0.653,0.323c-0.351,0-0.611-0.145-0.78-0.434c-0.16,0.253-0.409,0.397-0.745,0.43     c-0.027,0.002-0.059,0.004-0.097,0.004c-0.348,0-0.607-0.143-0.776-0.427c-0.088-0.146-0.134-0.304-0.139-0.474     c-0.005-0.172,0.031-0.34,0.109-0.504c0.073-0.153,0.175-0.275,0.305-0.368C82.142,25.112,82.288,25.063,82.444,25.06z      M81.869,26.061c0.054,0.354,0.176,0.598,0.365,0.733c0.096,0.069,0.205,0.103,0.329,0.103c0.035,0,0.074-0.004,0.119-0.012     c0.338-0.06,0.507-0.313,0.507-0.762c0-0.075-0.004-0.146-0.012-0.215c-0.036-0.319-0.159-0.544-0.368-0.675     c-0.101-0.063-0.213-0.094-0.337-0.094c-0.023,0-0.057,0.003-0.1,0.008c-0.169,0.021-0.301,0.111-0.396,0.272     c-0.08,0.139-0.12,0.3-0.12,0.485C81.857,25.953,81.861,26.005,81.869,26.061z M83.958,25.132c-0.199,0-0.336,0.118-0.41,0.353     c-0.028,0.089-0.042,0.16-0.042,0.212h0.908c0.037,0,0.056-0.025,0.056-0.076c0-0.149-0.082-0.284-0.248-0.404     C84.144,25.161,84.056,25.132,83.958,25.132z"/>
			<path class="st12" d="M86.205,27.565h-0.836v-0.097h0.354c0.119,0,0.179-0.06,0.179-0.179v-2.682     c0-0.137-0.064-0.206-0.191-0.206h-0.341V24.3h0.836V27.565z"/>
		</g>
	</g>
	<g class="st3">
		<path class="st12" d="M24.833,62.037h1.334v0.152h-0.563c-0.123,0-0.207,0.039-0.251,0.118c-0.025,0.044-0.037,0.101-0.037,0.172    v4.287c0,0.095,0.013,0.165,0.04,0.212c0.047,0.081,0.137,0.121,0.27,0.121h0.542v0.162h-1.334V62.037z"/>
		<path class="st12" d="M27.201,63.807c0.197-0.199,0.395-0.35,0.593-0.453c0.167-0.086,0.339-0.128,0.518-0.126    c0.177,0.002,0.35,0.038,0.519,0.107c0.35,0.145,0.595,0.422,0.735,0.832c0.077,0.224,0.113,0.476,0.11,0.756    c-0.003,0.234-0.066,0.46-0.189,0.679c-0.119,0.211-0.273,0.379-0.464,0.505c-0.202,0.134-0.418,0.201-0.647,0.201    c-0.044,0-0.097-0.005-0.158-0.013c-0.354-0.05-0.625-0.207-0.814-0.472c-0.155-0.215-0.232-0.41-0.232-0.587    c0-0.05,0.004-0.082,0.013-0.095c0.014-0.026,0.048-0.039,0.102-0.039c0.017,0,0.042,0.001,0.075,0.003s0.059,0.003,0.077,0.003    h1.776c0.008-0.006,0.013-0.027,0.013-0.063c0-0.228-0.051-0.474-0.153-0.738c-0.052-0.135-0.119-0.244-0.202-0.327    c-0.262-0.264-0.537-0.396-0.825-0.396c-0.208,0-0.435,0.076-0.683,0.228c-0.1,0.062-0.158,0.092-0.174,0.092    c-0.021-0.011-0.031-0.024-0.031-0.039C27.157,63.846,27.172,63.827,27.201,63.807z M28.47,66.186    c0.318,0,0.536-0.189,0.655-0.568c0.045-0.142,0.068-0.254,0.068-0.336h-1.452c-0.06,0-0.09,0.04-0.09,0.12    c0,0.239,0.132,0.455,0.396,0.647C28.173,66.141,28.314,66.186,28.47,66.186z"/>
		<path class="st12" d="M31.993,67.262h-1.338v-0.156h0.567c0.19,0,0.285-0.095,0.285-0.286v-4.29c0-0.221-0.103-0.33-0.307-0.33    h-0.545v-0.162h1.338V67.262z"/>
	</g>
	<g class="st3">
		<path class="st12" d="M66.232,62.711v0.374h-1.348v0.561c0,0.231,0.002,0.437,0.005,0.613c0.003,0.176,0.013,0.311,0.03,0.402    h-0.511c0.017-0.094,0.026-0.229,0.029-0.405c0.004-0.177,0.005-0.38,0.005-0.61v-1.693c0-0.104-0.001-0.2-0.003-0.288    c-0.003-0.088-0.006-0.167-0.011-0.237s-0.012-0.128-0.021-0.175h2.021v0.385h-1.545v1.074H66.232z"/>
		<path class="st12" d="M66.929,63.481c0-0.2,0.03-0.378,0.091-0.533s0.142-0.285,0.243-0.393c0.103-0.106,0.222-0.187,0.358-0.241    c0.136-0.055,0.28-0.082,0.434-0.082c0.16,0,0.306,0.027,0.438,0.082c0.132,0.055,0.246,0.135,0.341,0.241    c0.096,0.107,0.17,0.237,0.222,0.393c0.053,0.155,0.079,0.333,0.079,0.533c0,0.201-0.03,0.379-0.09,0.533    c-0.061,0.153-0.142,0.283-0.244,0.388c-0.103,0.104-0.222,0.183-0.357,0.236c-0.137,0.054-0.281,0.081-0.435,0.081    c-0.159,0-0.306-0.027-0.438-0.081c-0.133-0.054-0.247-0.133-0.342-0.236c-0.096-0.104-0.169-0.234-0.222-0.388    C66.955,63.86,66.929,63.683,66.929,63.481z M67.358,63.481c0,0.136,0.017,0.257,0.049,0.364s0.078,0.198,0.138,0.272    s0.131,0.131,0.213,0.169c0.082,0.039,0.174,0.059,0.274,0.059c0.093,0,0.18-0.02,0.262-0.059    c0.082-0.038,0.154-0.095,0.215-0.169c0.062-0.074,0.109-0.165,0.145-0.272s0.052-0.229,0.052-0.364    c0-0.137-0.016-0.259-0.049-0.367c-0.032-0.108-0.078-0.2-0.138-0.275c-0.06-0.076-0.131-0.134-0.214-0.173    c-0.083-0.04-0.174-0.06-0.272-0.06c-0.095,0-0.183,0.02-0.265,0.06c-0.083,0.039-0.153,0.097-0.214,0.173    c-0.061,0.075-0.108,0.167-0.144,0.275C67.376,63.223,67.358,63.345,67.358,63.481z"/>
		<path class="st12" d="M69.716,64.661v-1.437c0-0.23-0.013-0.425-0.039-0.585c-0.025-0.159-0.051-0.279-0.077-0.36h0.418    c0.019,0.044,0.035,0.099,0.05,0.165c0.015,0.065,0.027,0.14,0.037,0.22c0.01,0.081,0.018,0.168,0.022,0.26    c0.004,0.092,0.007,0.185,0.007,0.277v0.152c0.079-0.22,0.156-0.401,0.232-0.545c0.075-0.145,0.151-0.259,0.226-0.345    c0.075-0.086,0.151-0.146,0.227-0.18c0.076-0.034,0.153-0.052,0.232-0.052c0.059,0,0.113,0.006,0.163,0.017    c0.049,0.011,0.1,0.028,0.15,0.054l-0.069,0.432c-0.045-0.019-0.085-0.031-0.118-0.037c-0.034-0.006-0.076-0.01-0.126-0.01    c-0.063,0-0.13,0.027-0.199,0.081c-0.07,0.054-0.139,0.125-0.206,0.214s-0.131,0.188-0.191,0.301s-0.113,0.228-0.159,0.345    s-0.082,0.232-0.109,0.345c-0.027,0.111-0.04,0.211-0.04,0.299c0,0.039,0,0.074,0.001,0.107c0.001,0.032,0.003,0.063,0.007,0.095    c0.004,0.03,0.009,0.061,0.015,0.091c0.007,0.03,0.015,0.063,0.023,0.097H69.716z"/>
		<path class="st12" d="M72.852,62.232c0.154,0,0.288,0.019,0.4,0.055c0.112,0.037,0.211,0.085,0.296,0.144l-0.081,0.421    c-0.105-0.078-0.21-0.137-0.313-0.176c-0.104-0.038-0.216-0.058-0.337-0.058c-0.104,0-0.2,0.02-0.289,0.06    c-0.089,0.039-0.167,0.097-0.232,0.171c-0.065,0.075-0.117,0.167-0.154,0.276c-0.037,0.108-0.056,0.231-0.056,0.368    c0,0.127,0.017,0.241,0.051,0.344s0.083,0.191,0.146,0.265c0.063,0.074,0.14,0.132,0.229,0.172    c0.09,0.041,0.191,0.061,0.305,0.061c0.141,0,0.269-0.023,0.383-0.072c0.115-0.048,0.224-0.117,0.325-0.208l0.047,0.409    c-0.059,0.045-0.117,0.083-0.176,0.115c-0.058,0.032-0.118,0.059-0.182,0.079c-0.063,0.021-0.132,0.037-0.205,0.047    c-0.072,0.011-0.152,0.016-0.239,0.016c-0.156,0-0.303-0.028-0.438-0.083c-0.137-0.056-0.256-0.135-0.357-0.239    c-0.103-0.104-0.183-0.23-0.242-0.379c-0.059-0.147-0.088-0.314-0.088-0.502c0-0.176,0.028-0.342,0.085-0.497    s0.137-0.292,0.241-0.409c0.104-0.116,0.231-0.209,0.381-0.276S72.667,62.232,72.852,62.232z"/>
		<path class="st12" d="M75.128,62.232c0.127,0,0.239,0.016,0.336,0.046c0.098,0.03,0.183,0.072,0.254,0.126    s0.131,0.116,0.179,0.188c0.048,0.072,0.086,0.149,0.115,0.231c0.028,0.083,0.049,0.169,0.062,0.258    c0.012,0.09,0.019,0.178,0.019,0.266v0.091c0,0.039-0.001,0.069-0.003,0.091h-1.646c0.005,0.138,0.025,0.256,0.063,0.357    s0.09,0.185,0.156,0.251c0.065,0.066,0.143,0.116,0.232,0.148c0.089,0.032,0.186,0.049,0.291,0.049    c0.15,0,0.297-0.017,0.441-0.051c0.144-0.034,0.287-0.096,0.43-0.183l0.046,0.386c-0.082,0.042-0.162,0.077-0.241,0.107    c-0.079,0.029-0.158,0.054-0.236,0.072c-0.079,0.019-0.159,0.032-0.241,0.041c-0.081,0.008-0.167,0.013-0.256,0.013    c-0.149,0-0.291-0.026-0.426-0.078c-0.135-0.053-0.253-0.13-0.355-0.231c-0.102-0.102-0.183-0.229-0.243-0.38    c-0.061-0.15-0.091-0.326-0.091-0.525c0-0.192,0.025-0.367,0.078-0.524c0.052-0.156,0.125-0.29,0.222-0.401    c0.096-0.111,0.213-0.196,0.351-0.257C74.801,62.263,74.956,62.232,75.128,62.232z M75.093,62.583c-0.171,0-0.31,0.05-0.418,0.15    s-0.18,0.257-0.214,0.468h1.212c0-0.1-0.014-0.188-0.043-0.265c-0.028-0.077-0.068-0.142-0.12-0.195    c-0.052-0.053-0.113-0.092-0.185-0.119C75.254,62.596,75.176,62.583,75.093,62.583z"/>
	</g>
	<g class="st3">
		<path class="st12" d="M66.529,68.989c0.477-0.382,0.919-0.697,1.1-1.404c-0.152,0.101-0.361,0.196-0.613,0.196    c-0.548,0-0.91-0.444-0.91-0.917c0-0.583,0.453-0.95,0.953-0.95c0.628,0,1.009,0.486,1.009,1.146c0,1.189-0.914,1.896-1.328,2.197    L66.529,68.989z M67.71,67.003c0-0.378-0.214-0.76-0.647-0.76c-0.318,0-0.6,0.225-0.6,0.597c0,0.292,0.167,0.606,0.629,0.606    c0.224,0,0.433-0.081,0.609-0.243C67.705,67.15,67.71,67.079,67.71,67.003z"/>
		<path class="st12" d="M70.541,68.875v0.339h-2.062v-0.02c0.295-0.31,0.575-0.645,0.833-0.988c0.428-0.573,0.6-0.927,0.6-1.294    c0-0.482-0.386-0.659-0.647-0.659c-0.366,0-0.652,0.311-0.729,0.401V66.22c0.267-0.229,0.533-0.306,0.767-0.306    c0.533,0,0.967,0.405,0.967,0.96c0,0.654-0.548,1.332-1.1,2.001H70.541z"/>
		<path class="st12" d="M73.5,66.659c0,0.41-0.334,0.744-0.743,0.744s-0.743-0.334-0.743-0.744c0-0.411,0.334-0.745,0.743-0.745    S73.5,66.248,73.5,66.659z M72.505,69.214h-0.3l2.375-3.257h0.3L72.505,69.214z M73.224,66.659c0-0.259-0.21-0.469-0.467-0.469    s-0.467,0.21-0.467,0.469c0,0.258,0.21,0.468,0.467,0.468S73.224,66.917,73.224,66.659z M75.07,68.512    c0,0.411-0.333,0.745-0.742,0.745c-0.41,0-0.743-0.334-0.743-0.745s0.333-0.745,0.743-0.745    C74.737,67.767,75.07,68.101,75.07,68.512z M74.795,68.512c0-0.258-0.21-0.468-0.467-0.468c-0.258,0-0.467,0.21-0.467,0.468    s0.209,0.468,0.467,0.468C74.585,68.979,74.795,68.77,74.795,68.512z"/>
	</g>
	<g class="st3">
		<path class="st13" d="M72.385,9.804v0.747h-2.646v2.427h1.226c0.461,0,0.849-0.003,1.161-0.009    c0.313-0.006,0.562-0.026,0.747-0.061v0.84h-4.085c0.033-0.187,0.054-0.457,0.06-0.81c0.007-0.353,0.01-0.76,0.01-1.22V8.964    c0-0.46-0.003-0.868-0.01-1.221c-0.006-0.353-0.026-0.623-0.06-0.81h3.945v0.771h-2.994v2.1H72.385z"/>
	</g>
	<g class="st3">
		<path class="st13" d="M27.778,10.411c0.067,0.411,0.191,0.721,0.372,0.93c0.228,0.324,0.567,0.485,1.016,0.485    c0.59,0,1.08-0.158,1.469-0.475c0.268-0.223,0.489-0.56,0.664-1.011l0.161,0.323c-0.208,0.607-0.537,1.045-0.986,1.315    c-0.442,0.263-1.036,0.395-1.78,0.395c-0.778,0-1.318-0.239-1.62-0.718c-0.248-0.344-0.372-0.833-0.372-1.466    c0-0.775,0.164-1.386,0.493-1.831c0.382-0.506,0.962-0.758,1.74-0.758c0.583,0,1.013,0.138,1.288,0.415    c0.268,0.243,0.402,0.586,0.402,1.031c0,0.007,0,0.012,0,0.016s0,0.006,0,0.01s0,0.007,0,0.01s0,0.007,0,0.01s0,0.007,0,0.01    c0,0.004,0,0.007,0,0.01s0,0.007,0,0.01s0,0.007,0,0.01s0,0.006,0,0.01s0,0.007,0,0.01s0,0.007,0,0.01s0,0.007,0,0.01    c0,0.003,0,0.009,0,0.015c0,0.007,0,0.016,0,0.025c0,0.01-0.001,0.027-0.005,0.051s-0.005,0.045-0.005,0.065    c-0.06,0.425-0.563,0.729-1.509,0.91c-0.295,0.075-0.741,0.132-1.337,0.172H27.778z M30.182,9.207    c0-0.021,0.001-0.044,0.005-0.071s0.005-0.061,0.005-0.101c0-0.304-0.11-0.566-0.332-0.789c-0.228-0.209-0.503-0.313-0.825-0.313    c-0.462,0-0.805,0.253-1.026,0.759c-0.181,0.404-0.271,0.859-0.271,1.365c0.054-0.007,0.141-0.017,0.261-0.03    c0.041,0,0.086-0.003,0.136-0.01s0.099-0.014,0.146-0.021c0.041,0,0.085-0.003,0.136-0.01s0.099-0.014,0.146-0.021    c0.061-0.006,0.158-0.017,0.292-0.03C29.672,9.827,30.115,9.584,30.182,9.207z"/>
	</g>
	<g class="st3">
		<path class="st13" d="M50.308,12.387c0.931,0,1.753,0.111,2.468,0.333c0.715,0.223,1.333,0.531,1.855,0.924    s0.959,0.853,1.311,1.378c0.352,0.525,0.632,1.09,0.842,1.694c0.21,0.605,0.36,1.235,0.452,1.891    c0.09,0.656,0.136,1.304,0.136,1.942v0.667c0,0.286-0.006,0.508-0.017,0.667H45.286c0.034,1.004,0.19,1.877,0.468,2.619    c0.278,0.742,0.658,1.355,1.141,1.84c0.482,0.485,1.049,0.847,1.702,1.087c0.652,0.24,1.364,0.359,2.136,0.359    c1.101,0,2.179-0.125,3.234-0.376c1.055-0.251,2.105-0.696,3.149-1.335l0.34,2.824c-0.602,0.308-1.191,0.571-1.77,0.788    c-0.579,0.217-1.158,0.394-1.736,0.53c-0.579,0.137-1.166,0.237-1.762,0.299c-0.596,0.063-1.223,0.094-1.881,0.094    c-1.089,0-2.127-0.191-3.115-0.573s-1.855-0.947-2.604-1.694c-0.749-0.747-1.345-1.674-1.788-2.781    c-0.442-1.106-0.664-2.39-0.664-3.851c0-1.415,0.19-2.696,0.57-3.842c0.38-1.147,0.922-2.128,1.625-2.944    c0.704-0.815,1.56-1.443,2.57-1.883C47.913,12.607,49.048,12.387,50.308,12.387z M50.053,14.955c-1.249,0-2.27,0.368-3.064,1.104    c-0.794,0.736-1.316,1.88-1.566,3.432h8.886c0-0.73-0.105-1.377-0.315-1.942s-0.505-1.041-0.885-1.429    c-0.38-0.388-0.832-0.679-1.353-0.873C51.232,15.051,50.666,14.955,50.053,14.955z"/>
	</g>
	<g class="st3">
		<path class="st7" d="M37.087,38.332c0.31,0,0.577,0.037,0.801,0.11c0.225,0.073,0.422,0.169,0.592,0.287l-0.163,0.84    c-0.21-0.155-0.419-0.272-0.627-0.35c-0.207-0.078-0.432-0.117-0.673-0.117c-0.208,0-0.4,0.04-0.578,0.119    c-0.178,0.08-0.333,0.194-0.464,0.343c-0.131,0.149-0.234,0.333-0.309,0.551s-0.111,0.464-0.111,0.737    c0,0.252,0.034,0.481,0.102,0.687c0.068,0.205,0.166,0.382,0.292,0.53c0.127,0.147,0.28,0.262,0.459,0.343    s0.382,0.122,0.608,0.122c0.281,0,0.537-0.048,0.766-0.145c0.229-0.096,0.446-0.235,0.65-0.415l0.093,0.816    c-0.118,0.09-0.234,0.167-0.351,0.231c-0.116,0.063-0.238,0.117-0.365,0.159c-0.126,0.042-0.263,0.073-0.408,0.093    c-0.146,0.02-0.305,0.03-0.478,0.03c-0.313,0-0.605-0.055-0.877-0.166c-0.272-0.111-0.511-0.27-0.715-0.479    c-0.204-0.208-0.365-0.46-0.482-0.756c-0.118-0.295-0.177-0.63-0.177-1.003c0-0.352,0.057-0.683,0.169-0.994    c0.113-0.311,0.274-0.583,0.483-0.817s0.463-0.418,0.761-0.553C36.385,38.4,36.719,38.332,37.087,38.332z"/>
		<path class="st7" d="M42.264,38.332c0.495,0,0.874,0.163,1.137,0.488s0.395,0.809,0.395,1.449v2.917h-0.859v-2.567    c0-0.292-0.02-0.534-0.058-0.723c-0.039-0.19-0.097-0.34-0.174-0.451c-0.078-0.11-0.174-0.188-0.29-0.231    c-0.116-0.043-0.252-0.065-0.406-0.065c-0.167,0-0.331,0.04-0.49,0.119c-0.16,0.079-0.306,0.182-0.439,0.308    c-0.133,0.126-0.25,0.268-0.353,0.427c-0.102,0.159-0.178,0.318-0.227,0.477v2.707h-0.859v-5.274c0-0.504-0.003-0.945-0.009-1.323    c-0.006-0.378-0.026-0.668-0.061-0.871H40.5v3.594c0.229-0.327,0.498-0.572,0.808-0.735    C41.617,38.414,41.936,38.332,42.264,38.332z"/>
		<path class="st7" d="M47.092,38.332c0.254,0,0.478,0.03,0.673,0.091c0.195,0.061,0.363,0.145,0.506,0.252    c0.142,0.107,0.262,0.232,0.357,0.375c0.096,0.144,0.172,0.297,0.23,0.462c0.057,0.165,0.098,0.337,0.123,0.516    c0.024,0.179,0.037,0.355,0.037,0.53v0.182c0,0.078-0.002,0.139-0.005,0.182h-3.292c0.009,0.274,0.052,0.512,0.128,0.714    c0.076,0.203,0.179,0.37,0.311,0.502c0.131,0.132,0.286,0.231,0.464,0.296c0.178,0.065,0.373,0.098,0.583,0.098    c0.3,0,0.594-0.034,0.882-0.103c0.288-0.068,0.574-0.189,0.859-0.364l0.093,0.77c-0.164,0.084-0.325,0.156-0.483,0.215    c-0.158,0.059-0.315,0.107-0.473,0.145c-0.158,0.038-0.318,0.064-0.48,0.082c-0.163,0.017-0.333,0.026-0.513,0.026    c-0.297,0-0.58-0.052-0.85-0.156c-0.269-0.104-0.506-0.258-0.71-0.462c-0.204-0.204-0.367-0.457-0.487-0.758    s-0.181-0.652-0.181-1.05c0-0.386,0.052-0.735,0.156-1.048c0.104-0.313,0.251-0.58,0.443-0.803s0.425-0.394,0.701-0.514    C46.438,38.392,46.748,38.332,47.092,38.332z M46.321,35.718l1.625,2.007h-0.743l-1.95-2.007H46.321z M47.022,39.032    c-0.34,0-0.619,0.101-0.835,0.301s-0.359,0.513-0.427,0.936h2.423c0-0.199-0.028-0.375-0.086-0.53    c-0.057-0.154-0.138-0.284-0.241-0.39c-0.104-0.105-0.227-0.185-0.369-0.238C47.344,39.059,47.189,39.032,47.022,39.032z"/>
		<path class="st7" d="M54.38,38.425c-0.065,0.134-0.132,0.279-0.202,0.434c-0.07,0.156-0.136,0.308-0.2,0.458    s-0.123,0.291-0.179,0.425s-0.102,0.248-0.14,0.341c-0.031,0.075-0.072,0.177-0.123,0.306c-0.051,0.129-0.108,0.274-0.172,0.434    s-0.131,0.33-0.202,0.509c-0.071,0.179-0.141,0.355-0.209,0.53c-0.164,0.411-0.339,0.853-0.524,1.326h-0.882    c-0.179-0.451-0.348-0.877-0.506-1.279c-0.068-0.171-0.138-0.346-0.209-0.523s-0.139-0.348-0.202-0.511    c-0.063-0.163-0.123-0.313-0.177-0.45c-0.054-0.137-0.1-0.25-0.137-0.341c-0.037-0.093-0.083-0.208-0.139-0.343    c-0.056-0.135-0.116-0.277-0.181-0.427s-0.132-0.301-0.2-0.455c-0.068-0.154-0.135-0.298-0.2-0.432h0.975l1.416,3.828l1.416-3.828    H54.38z"/>
		<path class="st7" d="M55.193,43.187v-2.871c0-0.46-0.026-0.85-0.077-1.169c-0.051-0.319-0.103-0.559-0.156-0.721h0.836    c0.037,0.087,0.07,0.197,0.1,0.329c0.029,0.132,0.054,0.279,0.074,0.441c0.02,0.162,0.035,0.334,0.044,0.518    s0.014,0.369,0.014,0.555v0.304c0.158-0.439,0.313-0.802,0.464-1.09c0.151-0.288,0.302-0.518,0.453-0.688    c0.15-0.171,0.301-0.291,0.453-0.359c0.15-0.069,0.307-0.103,0.463-0.103c0.119,0,0.227,0.011,0.326,0.033    c0.1,0.022,0.199,0.058,0.301,0.107l-0.139,0.863c-0.09-0.037-0.168-0.062-0.236-0.074c-0.068-0.013-0.152-0.019-0.252-0.019    c-0.127,0-0.26,0.054-0.398,0.161s-0.276,0.25-0.41,0.427c-0.135,0.177-0.263,0.378-0.384,0.602s-0.227,0.454-0.318,0.688    s-0.164,0.464-0.218,0.688s-0.081,0.423-0.081,0.598c0,0.078,0,0.149,0.002,0.214c0.002,0.065,0.006,0.128,0.014,0.189    c0.008,0.061,0.018,0.122,0.03,0.182c0.012,0.061,0.028,0.125,0.046,0.194H55.193z"/>
	</g>
	<g class="st3">
		<path class="st13" d="M61.467,37.117c0.317,0,0.598,0.038,0.842,0.114c0.243,0.076,0.454,0.181,0.633,0.315    c0.178,0.134,0.326,0.291,0.446,0.47c0.12,0.179,0.216,0.372,0.287,0.578c0.072,0.207,0.123,0.421,0.154,0.645    c0.031,0.224,0.046,0.445,0.046,0.663v0.228c0,0.097-0.002,0.173-0.005,0.228h-4.116c0.012,0.342,0.065,0.64,0.16,0.893    s0.225,0.462,0.389,0.627c0.164,0.165,0.357,0.289,0.58,0.371c0.223,0.082,0.466,0.123,0.729,0.123    c0.376,0,0.743-0.043,1.104-0.128c0.359-0.085,0.718-0.237,1.073-0.456l0.116,0.963c-0.205,0.105-0.406,0.194-0.604,0.268    c-0.197,0.074-0.395,0.134-0.592,0.181s-0.397,0.081-0.601,0.102s-0.417,0.032-0.642,0.032c-0.372,0-0.726-0.065-1.063-0.196    c-0.337-0.13-0.633-0.323-0.888-0.578c-0.256-0.255-0.459-0.571-0.61-0.948c-0.15-0.377-0.226-0.815-0.226-1.313    c0-0.482,0.064-0.919,0.194-1.311s0.314-0.726,0.554-1.004c0.24-0.278,0.532-0.492,0.877-0.642S61.037,37.117,61.467,37.117z     M61.38,37.992c-0.426,0-0.774,0.125-1.045,0.376c-0.271,0.251-0.449,0.641-0.534,1.17h3.03c0-0.249-0.036-0.47-0.107-0.663    c-0.072-0.192-0.173-0.355-0.302-0.487c-0.13-0.132-0.284-0.231-0.462-0.297C61.782,38.025,61.589,37.992,61.38,37.992z"/>
	</g>
	<path class="st6" d="M35.672,55.833c0,0,6.171,1.894,13.686,0"/>
	<path class="st6" d="M51.291,55.833c0,0,4.612,2.459,11.853,0"/>
	<g class="st3">
		<path class="st7" d="M39.675,54.197h-0.859v-2.66c0-0.29-0.011-0.524-0.033-0.703c-0.021-0.179-0.058-0.318-0.109-0.42    c-0.051-0.101-0.12-0.169-0.207-0.203c-0.087-0.034-0.195-0.051-0.325-0.051c-0.114,0-0.229,0.022-0.343,0.069    c-0.115,0.047-0.224,0.113-0.328,0.198c-0.104,0.086-0.199,0.188-0.288,0.304c-0.088,0.117-0.163,0.245-0.225,0.385v3.081H36.1    v-2.871c0-0.46-0.026-0.85-0.079-1.169c-0.053-0.318-0.104-0.56-0.153-0.721h0.836c0.034,0.1,0.063,0.217,0.088,0.353    c0.024,0.135,0.044,0.259,0.06,0.371c0.143-0.165,0.279-0.301,0.409-0.406c0.13-0.106,0.259-0.189,0.388-0.25    s0.256-0.103,0.383-0.126s0.257-0.035,0.39-0.035c0.151,0,0.289,0.021,0.413,0.065c0.124,0.044,0.233,0.102,0.327,0.173    c0.095,0.071,0.176,0.154,0.244,0.25c0.068,0.095,0.121,0.193,0.158,0.296c0.146-0.158,0.286-0.288,0.422-0.39    s0.269-0.181,0.399-0.238c0.13-0.058,0.257-0.098,0.383-0.121s0.249-0.035,0.369-0.035c0.235,0,0.433,0.038,0.594,0.114    c0.161,0.076,0.29,0.189,0.388,0.339c0.097,0.149,0.167,0.334,0.209,0.556c0.042,0.221,0.063,0.476,0.063,0.765v3.081h-0.859    V51.63c0-0.302-0.011-0.548-0.033-0.737c-0.021-0.189-0.058-0.339-0.109-0.448c-0.051-0.108-0.12-0.184-0.207-0.224    c-0.087-0.041-0.195-0.061-0.325-0.061c-0.114,0-0.228,0.022-0.339,0.067s-0.219,0.108-0.323,0.191    c-0.104,0.082-0.199,0.183-0.288,0.301s-0.167,0.251-0.234,0.396V54.197z"/>
	</g>
	<g class="st3">
		<path class="st13" d="M46.353,48.128c0.317,0,0.598,0.038,0.841,0.114c0.244,0.076,0.455,0.181,0.633,0.315    c0.178,0.134,0.327,0.291,0.447,0.47c0.12,0.179,0.216,0.372,0.288,0.578c0.071,0.206,0.123,0.421,0.154,0.645    c0.031,0.224,0.046,0.444,0.046,0.662v0.228c0,0.098-0.002,0.174-0.006,0.229H44.64c0.011,0.342,0.064,0.64,0.16,0.893    c0.095,0.253,0.224,0.462,0.389,0.627c0.165,0.166,0.358,0.289,0.581,0.371c0.222,0.081,0.465,0.122,0.729,0.122    c0.375,0,0.743-0.042,1.103-0.128s0.718-0.237,1.074-0.455l0.116,0.963c-0.205,0.104-0.406,0.194-0.604,0.269    c-0.197,0.073-0.395,0.134-0.592,0.181c-0.198,0.047-0.398,0.081-0.601,0.103c-0.203,0.021-0.417,0.031-0.641,0.031    c-0.372,0-0.726-0.064-1.063-0.195c-0.336-0.13-0.633-0.322-0.888-0.577s-0.458-0.571-0.609-0.949    c-0.151-0.377-0.227-0.814-0.227-1.313c0-0.482,0.065-0.919,0.195-1.311c0.129-0.391,0.314-0.726,0.554-1.004    c0.24-0.278,0.532-0.492,0.876-0.642C45.536,48.203,45.923,48.128,46.353,48.128z M46.265,49.003    c-0.426,0-0.774,0.126-1.045,0.377c-0.271,0.251-0.449,0.641-0.534,1.17h3.03c0-0.249-0.036-0.47-0.107-0.662    c-0.072-0.193-0.172-0.355-0.302-0.487c-0.13-0.133-0.284-0.232-0.461-0.298C46.667,49.036,46.474,49.003,46.265,49.003z"/>
	</g>
	<g class="st3">
		<path class="st7" d="M51.943,51.98c0,0.149,0.002,0.325,0.007,0.527c0.004,0.202,0.011,0.407,0.019,0.616    c0.007,0.208,0.017,0.407,0.028,0.597c0.011,0.19,0.024,0.349,0.04,0.477h-0.952v-5.274c0-0.455-0.007-0.866-0.023-1.235    c-0.016-0.369-0.039-0.688-0.07-0.959h0.952V51.98z"/>
		<path class="st7" d="M53.267,51.84c0-0.401,0.061-0.757,0.181-1.066s0.283-0.571,0.487-0.784c0.205-0.213,0.443-0.374,0.715-0.483    c0.272-0.108,0.562-0.163,0.868-0.163c0.318,0,0.61,0.055,0.875,0.163c0.265,0.109,0.492,0.271,0.683,0.483    c0.189,0.213,0.338,0.475,0.443,0.784s0.158,0.665,0.158,1.066s-0.061,0.757-0.182,1.064s-0.283,0.566-0.487,0.774    c-0.205,0.209-0.443,0.367-0.715,0.475s-0.562,0.16-0.868,0.16c-0.319,0-0.61-0.053-0.875-0.16s-0.492-0.266-0.683-0.475    c-0.19-0.208-0.338-0.467-0.443-0.774C53.319,52.597,53.267,52.241,53.267,51.84z M54.125,51.84c0,0.271,0.033,0.514,0.098,0.729    s0.157,0.396,0.276,0.544c0.119,0.147,0.26,0.261,0.425,0.338c0.164,0.078,0.346,0.117,0.547,0.117    c0.186,0,0.361-0.039,0.525-0.117c0.164-0.077,0.307-0.19,0.429-0.338c0.123-0.148,0.218-0.329,0.288-0.544    c0.069-0.215,0.104-0.458,0.104-0.729c0-0.273-0.033-0.519-0.098-0.735c-0.065-0.216-0.157-0.399-0.276-0.551    c-0.119-0.15-0.261-0.266-0.427-0.345c-0.166-0.08-0.348-0.119-0.546-0.119c-0.188,0-0.365,0.039-0.529,0.119    c-0.164,0.079-0.307,0.194-0.427,0.345c-0.121,0.151-0.216,0.335-0.286,0.551C54.16,51.321,54.125,51.566,54.125,51.84z"/>
		<path class="st7" d="M61.456,49.343c0.495,0,0.874,0.163,1.138,0.488c0.263,0.325,0.395,0.808,0.395,1.449v2.917h-0.859V51.63    c0-0.292-0.019-0.533-0.058-0.724c-0.039-0.189-0.096-0.34-0.172-0.45s-0.172-0.188-0.288-0.231    c-0.116-0.043-0.253-0.064-0.41-0.064c-0.168,0-0.331,0.039-0.49,0.118c-0.159,0.08-0.306,0.183-0.438,0.309    s-0.251,0.269-0.353,0.427c-0.103,0.159-0.179,0.317-0.228,0.477v2.707h-0.859v-2.871c0-0.46-0.025-0.85-0.076-1.169    c-0.052-0.318-0.104-0.56-0.156-0.721h0.836c0.019,0.05,0.037,0.114,0.056,0.193s0.036,0.163,0.051,0.25    c0.016,0.087,0.03,0.173,0.042,0.257l0.037,0.21c0.294-0.355,0.592-0.611,0.892-0.769C60.813,49.422,61.128,49.343,61.456,49.343z    "/>
	</g>
	<g>
		<path class="st14" d="M18.413,24.336c-2.376,0.039-9.764-1.487-9.764-1.487c-2.451-0.038-3.817,2.249-3.817,2.249    c-2.853-0.114-1.567-2.935-1.567-2.935c-3.054,1.296-0.562,3.469-0.562,3.469c-0.924-0.267-1.206-1.296-1.206-1.296    c-0.683,1.296-0.281,1.639-0.281,1.639c0.241,1.296,1.647,1.563,1.647,1.563c1.607,0.038,1.889-0.686,1.889-0.686    c0.482,1.906,1.487,3.392,1.487,3.392c1.647,2.325,0,4.383,0,4.383C6.399,34.36,6.8,34.551,6.8,34.551    c-0.603,0.572-0.321,1.639-0.321,1.639c0.121-0.419,0.362-0.419,0.362-0.419c0.161,0.076,0.201,0.953,0.201,0.953    c0.603-0.648,0.964-0.305,0.964-0.305L7.604,36.99c0.161,0.267,0.241,1.791,0.241,1.791c1.286,0.991,2.232,0.076,2.232,0.076    v-0.534c0.584,0,0.902-0.267,0.902-0.267c0.161-1.334-0.161-1.525-0.161-1.525c-0.924-1.067-0.723-2.058-0.723-2.058l0.402,0.229    c0.723,0.114,0.643-0.61,0.643-0.61l0.442,0.191c0.924,0.038,0.361-1.41,0.361-1.41c0.04-0.343,0-0.61,0-0.61    c3.295,0.839,4.581,0.038,4.581,0.038c0.12,0.61-0.728,1.868-0.728,1.868c-0.045,0.838,0,1.448,0,1.448    c0.317-0.19,0.487,0.153,0.487,0.153c-0.322,0-0.522,0.381-0.482,0.572c0.04,0.191,0.241,0.762,0.241,0.762    c0.241-0.572,0.924-0.381,0.924-0.381v1.639v0.229l0.322,0.762c2.25,0.305,2.09-0.229,2.09-0.229l0.04-0.839    c1.125,0.038,1.286-0.267,1.286-0.267l-0.241-0.991c-0.643-0.991-1.205-3.202-1.205-3.202c-0.04-1.296,1.045-2.744,1.045-2.744    c-0.131-0.958,0.598-1.936,0.598-1.936c1.777-1.379,1.532-3.514,1.532-3.514l0.482-0.648c0.562,0.61,1.567,0.877,1.567,0.877    l-0.121,1.191c0.763,1.42,1.567-0.162,1.567-0.162c0.281-0.419,0.04-1.448,0.04-1.448l0.643-1.105    c0.844-1.182,0.281-2.287,0.281-2.287c-0.362-0.61-0.683-2.897-0.683-2.897c2.17,0.343,2.17-0.991,2.17-0.991    c-0.08-1.334-1.045-0.839-1.045-0.839c-0.08,0.8-1.828,0.648-1.828,0.648l-0.101-0.343c0.683-3.583-2.331-4.307-2.331-4.307    c-0.964,0.114-0.362,0.717-0.362,0.717c1.969,0.412,1.728,3.132,1.728,3.132c-0.763-0.191-1.607,0.038-1.607,0.038    c-1.205-3.468-2.86-3.164-2.86-3.164c-1.575,0.114-0.395,0.839-0.395,0.839c1.889,0.381,1.969,3.259,1.969,3.259    c-0.241,0.324-0.402,0.744-0.402,0.744c-2.974-1.41-2.732-0.381-2.732-0.381c-0.241,2.134,2.532,1.41,2.532,1.41    c-0.201,0.724,0.201,1.982,0.201,1.982l-1.487,2.02C19.659,23.916,19.424,24.319,18.413,24.336z"/>
		<ellipse class="st13" cx="25.325" cy="21.05" rx="0.286" ry="0.271"/>
		<path class="st13" d="M22.946,21.564c0,0.15,0.128,0.271,0.286,0.271c0.158,0,0.286-0.121,0.286-0.271s-0.128-0.271-0.286-0.271    S22.946,21.415,22.946,21.564z"/>
		<path class="st15" d="M19.659,23.916"/>
		<path class="st15" d="M26.133,19.203c0,0-0.224-0.966-0.706-1.233"/>
		<path class="st15" d="M25.313,17.618c0,0-0.229-0.321-0.873-0.396"/>
		<path class="st15" d="M22.742,17.17c0,0,0.392,0.933-1.195,0.972"/>
		<path class="st15" d="M21.145,18.885c0,0-0.145,0.592-0.201,1.029"/>
		<path class="st15" d="M21.145,21.896c0,0,1.005,2.344,1.768,3.087"/>
		<path class="st15" d="M25.894,25.441c0,0,0.133,0.565-1.393,0.353"/>
		<path class="st15" d="M23.496,23.916c0,0-0.301,0.819,0.181,1.524"/>
		<polyline class="st15" points="25.726,23.916 25.163,24.774 24.219,24.164   "/>
		<path class="st15" d="M4.831,25.098c0,0-0.31,0.911-0.135,1.846"/>
		<path class="st15" d="M2.682,26.718c0,0-1.588-0.354-1.492-1.239"/>
		<path class="st15" d="M18.996,31.292c0,0-0.864,1.963-0.884,3.145c0,0,0.522,2.554,1.306,3.85"/>
		<path class="st15" d="M20.484,37.371c0,0-0.461,0.192-1.396,0.267"/>
		<path class="st15" d="M19.402,38.611c0,0-0.627,0.342-2.435-0.02"/>
		<path class="st15" d="M16.454,32.339c0,0,0.11,0.23,0-0.799"/>
		<path class="st15" d="M9.553,31.292c0,0-0.864,1.258-0.703,3.011c0,0-0.077,1.603,0.864,2.764c0,0,0.345,0.324,0.363,1.258"/>
		<path class="st15" d="M11.024,37.371c0,0-0.176,0.192-1.035,0.267"/>
		<path class="st15" d="M10.068,38.131c0,0-0.06,0.727-2.257,0.155"/>
		<path class="st15" d="M11.943,32.264c0,0-1.74-0.595-2.598-0.603"/>
		<path class="st15" d="M11.943,32.874c0,0-2.381,1.699-2.878-0.513"/>
		<line class="st15" x1="10.942" y1="33.377" x2="11.14" y2="34.093"/>
		<path class="st15" d="M9.99,33.468c0,0-0.095,0.644,0.106,1.006"/>
		<path class="st15" d="M9.853,33.429c0,0,0.114,1.484-1.017,0.664"/>
		<path class="st16" d="M18.413,24.336c-2.376,0.039-9.764-1.487-9.764-1.487c-2.451-0.038-3.817,2.249-3.817,2.249    c-2.853-0.114-1.567-2.935-1.567-2.935c-3.054,1.296-0.562,3.469-0.562,3.469c-0.924-0.267-1.206-1.296-1.206-1.296    c-0.683,1.296-0.281,1.639-0.281,1.639c0.241,1.296,1.647,1.563,1.647,1.563c1.607,0.038,1.889-0.686,1.889-0.686    c0.482,1.906,1.487,3.392,1.487,3.392c1.647,2.325,0,4.383,0,4.383C6.399,34.36,6.8,34.551,6.8,34.551    c-0.603,0.572-0.321,1.639-0.321,1.639c0.121-0.419,0.362-0.419,0.362-0.419c0.161,0.076,0.201,0.953,0.201,0.953    c0.603-0.648,0.964-0.305,0.964-0.305L7.604,36.99c0.161,0.267,0.241,1.791,0.241,1.791c1.286,0.991,2.232,0.076,2.232,0.076    v-0.534c0.584,0,0.902-0.267,0.902-0.267c0.161-1.334-0.161-1.525-0.161-1.525c-0.924-1.067-0.723-2.058-0.723-2.058l0.402,0.229    c0.723,0.114,0.643-0.61,0.643-0.61l0.442,0.191c0.924,0.038,0.361-1.41,0.361-1.41c0.04-0.343,0-0.61,0-0.61    c3.295,0.839,4.581,0.038,4.581,0.038c0.12,0.61-0.728,1.868-0.728,1.868c-0.045,0.838,0,1.448,0,1.448    c0.317-0.19,0.487,0.153,0.487,0.153c-0.322,0-0.522,0.381-0.482,0.572c0.04,0.191,0.241,0.762,0.241,0.762    c0.241-0.572,0.924-0.381,0.924-0.381v1.639v0.229l0.322,0.762c2.25,0.305,2.09-0.229,2.09-0.229l0.04-0.839    c1.125,0.038,1.286-0.267,1.286-0.267l-0.241-0.991c-0.643-0.991-1.205-3.202-1.205-3.202c-0.04-1.296,1.045-2.744,1.045-2.744    c-0.131-0.958,0.598-1.936,0.598-1.936c1.777-1.379,1.532-3.514,1.532-3.514l0.482-0.648c0.562,0.61,1.567,0.877,1.567,0.877    l-0.121,1.191c0.763,1.42,1.567-0.162,1.567-0.162c0.281-0.419,0.04-1.448,0.04-1.448l0.643-1.105    c0.844-1.182,0.281-2.287,0.281-2.287c-0.362-0.61-0.683-2.897-0.683-2.897c2.17,0.343,2.17-0.991,2.17-0.991    c-0.08-1.334-1.045-0.839-1.045-0.839c-0.08,0.8-1.828,0.648-1.828,0.648l-0.101-0.343c0.683-3.583-2.331-4.307-2.331-4.307    c-0.964,0.114-0.362,0.717-0.362,0.717c1.969,0.412,1.728,3.132,1.728,3.132c-0.763-0.191-1.607,0.038-1.607,0.038    c-1.205-3.468-2.86-3.164-2.86-3.164c-1.575,0.114-0.395,0.839-0.395,0.839c1.889,0.381,1.969,3.259,1.969,3.259    c-0.241,0.324-0.402,0.744-0.402,0.744c-2.974-1.41-2.732-0.381-2.732-0.381c-0.241,2.134,2.532,1.41,2.532,1.41    c-0.201,0.724,0.201,1.982,0.201,1.982l-1.487,2.02C19.659,23.916,19.424,24.319,18.413,24.336z"/>
	</g>
	<g class="st3">
		<path class="st12" d="M80.841,35.225h0.834v0.095h-0.353c-0.076,0-0.129,0.025-0.156,0.074c-0.016,0.027-0.023,0.063-0.023,0.107    v2.68c0,0.059,0.009,0.103,0.025,0.132c0.028,0.05,0.085,0.076,0.168,0.076h0.339v0.101h-0.834V35.225z"/>
		<path class="st12" d="M83.092,35.984c0.189-0.003,0.364,0.032,0.525,0.106c0.153,0.071,0.274,0.174,0.362,0.309    c0.102-0.171,0.242-0.293,0.42-0.366c0.087-0.035,0.177-0.053,0.27-0.053c0.025,0,0.057,0.002,0.095,0.008    c0.289,0.04,0.487,0.187,0.594,0.439c0.041,0.096,0.061,0.17,0.061,0.223c0,0.006-0.001,0.017-0.004,0.03    c-0.002,0.013-0.004,0.023-0.004,0.03c-0.009,0.016-0.03,0.024-0.063,0.024c-0.011,0-0.027,0-0.048-0.002    c-0.021-0.001-0.037-0.002-0.047-0.002h-1.11c-0.005,0.004-0.008,0.018-0.008,0.04c0,0.11,0.02,0.228,0.059,0.354    c0.042,0.141,0.097,0.245,0.163,0.312c0.169,0.173,0.353,0.259,0.552,0.259c0.124,0,0.262-0.04,0.414-0.121    c0.065-0.034,0.104-0.05,0.116-0.05c0.014,0.006,0.021,0.016,0.021,0.028c0,0.021-0.01,0.031-0.028,0.031    c-0.183,0.215-0.4,0.323-0.653,0.323c-0.351,0-0.611-0.145-0.78-0.434c-0.16,0.253-0.409,0.397-0.745,0.43    c-0.027,0.002-0.059,0.004-0.097,0.004c-0.348,0-0.607-0.143-0.776-0.427c-0.088-0.146-0.134-0.304-0.139-0.474    c-0.005-0.172,0.031-0.34,0.109-0.504c0.073-0.153,0.175-0.275,0.305-0.368C82.789,36.036,82.936,35.987,83.092,35.984z     M82.517,36.985c0.054,0.354,0.176,0.598,0.365,0.733c0.096,0.069,0.205,0.103,0.329,0.103c0.035,0,0.074-0.004,0.119-0.012    c0.338-0.06,0.507-0.313,0.507-0.762c0-0.075-0.004-0.146-0.012-0.215c-0.036-0.319-0.159-0.544-0.368-0.675    c-0.101-0.063-0.213-0.094-0.337-0.094c-0.023,0-0.057,0.003-0.1,0.008c-0.169,0.021-0.301,0.111-0.396,0.272    c-0.08,0.139-0.12,0.3-0.12,0.485C82.505,36.877,82.509,36.93,82.517,36.985z M84.605,36.057c-0.199,0-0.336,0.118-0.41,0.353    c-0.028,0.089-0.042,0.16-0.042,0.212h0.908c0.037,0,0.056-0.025,0.056-0.076c0-0.149-0.082-0.284-0.248-0.404    C84.791,36.085,84.703,36.057,84.605,36.057z"/>
		<path class="st12" d="M86.853,38.49h-0.836v-0.097h0.354c0.119,0,0.179-0.06,0.179-0.179v-2.682c0-0.137-0.064-0.206-0.191-0.206    h-0.341v-0.101h0.836V38.49z"/>
	</g>
	<g>
		<g>
			<path class="st14" d="M17.287,43.879c0,0-0.857-0.308-1.27-0.523c-0.061-0.032-0.528-0.402,0.357-0.817     c0.094-0.044-0.17-0.254-0.399-0.115c0,0-0.341,0.172-0.485,0.531c0,0-0.109,0.176,0.114,0.545     c0.155,0.256,0.429,0.279,0.87,0.344c0.219,0.033,0.63,0.284,0.794,0.082c0,0-2.519,3.058-1.415,6.28     c1.38,4.025,4.062,5.388,7.218,5.389c3.337,0.001,5.018-1.919,5.702-2.631c0,0,2.027-2.027,1.032-5.681s-3.854-4.98-5.154-5.415     c-1.3-0.434-4.117-1.181-6.594,1.207C18.056,43.073,17.554,43.456,17.287,43.879z"/>
		</g>
		<g>
			<path class="st16" d="M17.287,43.879c0,0-0.857-0.308-1.27-0.523c-0.061-0.032-0.528-0.402,0.357-0.817     c0.094-0.044-0.17-0.254-0.399-0.115c0,0-0.341,0.172-0.485,0.531c0,0-0.109,0.176,0.114,0.545     c0.155,0.256,0.429,0.279,0.87,0.344c0.219,0.033,0.63,0.284,0.794,0.082c0,0-2.519,3.058-1.415,6.28     c1.38,4.025,4.062,5.388,7.218,5.389c3.337,0.001,5.018-1.919,5.702-2.631c0,0,2.027-2.027,1.032-5.681s-3.854-4.98-5.154-5.415     c-1.3-0.434-4.117-1.181-6.594,1.207C18.056,43.073,17.554,43.456,17.287,43.879z"/>
		</g>
		<g>
			<path class="st17" d="M24.274,42.595c7.356,3.854,4.125,10.026,4.125,10.026c-2.285,1.177-5.481,0.227-7.02-0.563     c-5.405-2.771-4.071-8.088-4.071-8.088s0.018-0.122,0.537-0.687c0,0,1.762-2.136,5.48-0.999     C23.527,42.347,24.088,42.498,24.274,42.595z"/>
			<path class="st17" d="M19.886,45.737c0,0-0.405,0.787,1.221,2.496c1.626,1.709,4.298,3.103,4.849,3.008     c0,0,0.418,0.027,0.674-0.189c0,0,0.652-2.771-1.551-4.631C22.874,44.56,20.322,45.262,19.886,45.737z"/>
			<path class="st17" d="M17.327,43.849c0,0,2.333,1.226,11.1,8.75"/>
			<path class="st17" d="M21.55,47.456c0,0.141-0.055,0.256-0.123,0.256c-0.068,0-0.123-0.115-0.123-0.256     c0-0.142,0.055-0.257,0.123-0.257C21.496,47.2,21.55,47.314,21.55,47.456"/>
			<path class="st17" d="M21.85,47.93c0,0.141-0.055,0.256-0.123,0.256c-0.068,0-0.123,0.026-0.123-0.115     c0-0.142,0.055-0.398,0.123-0.398S21.85,47.787,21.85,47.93z"/>
			<path class="st17" d="M24.189,46.786c-0.01-0.041-0.101-0.054-0.204-0.029s-0.179,0.079-0.169,0.12s0.101,0.054,0.205,0.029     C24.124,46.881,24.199,46.828,24.189,46.786"/>
			<path class="st17" d="M22.731,46.523c0-0.045-0.142-0.082-0.316-0.082c-0.175,0-0.317,0.037-0.317,0.082     c0,0.046,0.142,0.082,0.317,0.082S22.731,46.568,22.731,46.523z"/>
			<path class="st17" d="M23.084,47.439c-0.051,0.045-0.105,0.067-0.121,0.048c-0.017-0.019,0.011-0.071,0.062-0.116     c0.051-0.045,0.105-0.067,0.122-0.047C23.162,47.342,23.134,47.394,23.084,47.439"/>
			<path class="st17" d="M23.219,47.614c-0.063,0.028-0.121,0.031-0.13,0.009c-0.01-0.023,0.032-0.064,0.094-0.091     s0.121-0.031,0.131-0.008C23.323,47.546,23.281,47.587,23.219,47.614z"/>
			<path class="st17" d="M24.103,47.502c-0.145,0.021-0.267,0.012-0.271-0.022c-0.005-0.033,0.109-0.078,0.254-0.099     s0.266-0.011,0.271,0.023C24.361,47.438,24.247,47.481,24.103,47.502"/>
			<path class="st17" d="M23.907,47.198c-0.144,0.031-0.265,0.03-0.272-0.004c-0.007-0.033,0.104-0.085,0.247-0.115     c0.143-0.031,0.265-0.029,0.272,0.005C24.161,47.117,24.05,47.167,23.907,47.198z"/>
			<path class="st17" d="M24.516,48.176c-0.087,0.024-0.164,0.017-0.174-0.016c-0.009-0.031,0.053-0.079,0.14-0.104     c0.087-0.024,0.166-0.016,0.174,0.015C24.666,48.104,24.603,48.151,24.516,48.176"/>
			<path class="st17" d="M25.553,49.499c-0.086,0.027-0.164,0.022-0.174-0.011c-0.01-0.031,0.051-0.081,0.138-0.108     c0.086-0.027,0.165-0.021,0.175,0.011C25.701,49.423,25.639,49.472,25.553,49.499z"/>
			<path class="st17" d="M24.952,48.636c-0.067-0.004-0.12-0.035-0.118-0.07c0.002-0.033,0.059-0.057,0.126-0.053     c0.067,0.004,0.12,0.035,0.118,0.068C25.076,48.616,25.02,48.64,24.952,48.636"/>
			<path class="st17" d="M24.602,48.876c-0.067-0.006-0.119-0.038-0.116-0.074c0.003-0.033,0.061-0.055,0.127-0.049     c0.067,0.006,0.119,0.039,0.116,0.072C24.727,48.86,24.67,48.882,24.602,48.876z"/>
			<path class="st17" d="M23.955,47.897c0-0.045-0.073-0.082-0.162-0.082c-0.091,0-0.164,0.037-0.164,0.082s0.073,0.082,0.164,0.082     C23.882,47.98,23.955,47.942,23.955,47.897"/>
			<path class="st17" d="M23.955,47.897c0-0.045-0.073-0.082-0.162-0.082c-0.091,0-0.164,0.037-0.164,0.082s0.073,0.082,0.164,0.082     C23.882,47.98,23.955,47.942,23.955,47.897z"/>
			<path class="st17" d="M23.446,46.81c0-0.035-0.059-0.061-0.132-0.061s-0.132,0.027-0.132,0.061s0.059,0.061,0.132,0.061     S23.446,46.844,23.446,46.81"/>
			<path class="st17" d="M23.446,46.81c0-0.035-0.059-0.061-0.132-0.061s-0.132,0.027-0.132,0.061s0.059,0.061,0.132,0.061     S23.446,46.844,23.446,46.81z"/>
			<path class="st17" d="M23.068,46.102c0.043-0.013,0.075-0.03,0.072-0.041s-0.04-0.009-0.083,0.004s-0.076,0.031-0.073,0.042     C22.988,46.117,23.025,46.115,23.068,46.102"/>
			<path class="st17" d="M22.378,45.981c0.041-0.011,0.071-0.028,0.068-0.041c-0.003-0.013-0.038-0.013-0.079-0.002     s-0.072,0.028-0.068,0.041C22.302,45.992,22.338,45.992,22.378,45.981z"/>
			<path class="st17" d="M26.18,49.754c0-0.063-0.1-0.113-0.225-0.113c-0.123,0-0.224,0.05-0.224,0.113     c0,0.062,0.1,0.112,0.224,0.112C26.08,49.867,26.18,49.816,26.18,49.754"/>
			<path class="st17" d="M26.18,49.754c0-0.063-0.1-0.113-0.225-0.113c-0.123,0-0.224,0.05-0.224,0.113     c0,0.062,0.1,0.112,0.224,0.112C26.08,49.867,26.18,49.816,26.18,49.754z"/>
			<path class="st17" d="M25.955,49.197c0-0.038-0.1-0.069-0.223-0.069c-0.125,0-0.225,0.031-0.225,0.069     c0,0.037,0.1,0.068,0.225,0.068C25.855,49.265,25.955,49.234,25.955,49.197"/>
			<path class="st17" d="M25.917,48.967c0-0.038-0.1-0.069-0.223-0.069c-0.125,0-0.225,0.031-0.225,0.069     c0,0.037,0.1,0.068,0.225,0.068C25.817,49.035,25.917,49.004,25.917,48.967z"/>
			<path class="st17" d="M25.472,48.403c-0.108,0.029-0.186,0.093-0.172,0.143c0.013,0.048,0.112,0.064,0.22,0.035     c0.11-0.03,0.187-0.093,0.174-0.142C25.68,48.39,25.581,48.373,25.472,48.403"/>
			<path class="st17" d="M25.14,48.941c-0.111,0.014-0.196,0.068-0.19,0.119c0.006,0.05,0.103,0.079,0.213,0.064     c0.113-0.015,0.198-0.067,0.191-0.117C25.348,48.956,25.252,48.927,25.14,48.941z"/>
			<path class="st17" d="M25.092,47.764c-0.073,0.006-0.129,0.047-0.126,0.092c0.004,0.046,0.066,0.077,0.138,0.072     c0.074-0.006,0.13-0.047,0.126-0.092C25.228,47.79,25.166,47.758,25.092,47.764"/>
			<path class="st17" d="M25.162,48.05c-0.072,0.01-0.126,0.055-0.12,0.1c0.006,0.045,0.071,0.073,0.143,0.063     c0.073-0.01,0.127-0.055,0.12-0.1C25.299,48.067,25.235,48.04,25.162,48.05z"/>
			<path class="st17" d="M24.894,47.559c0-0.086-0.11-0.154-0.245-0.154c-0.134,0-0.246,0.069-0.246,0.154s0.111,0.154,0.246,0.154     C24.784,47.713,24.894,47.644,24.894,47.559"/>
			<path class="st17" d="M24.894,47.559c0-0.086-0.11-0.154-0.245-0.154c-0.134,0-0.246,0.069-0.246,0.154s0.111,0.154,0.246,0.154     C24.784,47.713,24.894,47.644,24.894,47.559z"/>
			<path class="st17" d="M23.271,46.59c-0.118,0.028-0.229-0.012-0.247-0.09s0.064-0.162,0.182-0.19s0.228,0.012,0.246,0.09     C23.469,46.477,23.388,46.562,23.271,46.59"/>
			<path class="st17" d="M22.688,47.19c-0.12,0.019-0.228-0.028-0.24-0.107c-0.013-0.079,0.075-0.158,0.195-0.177     c0.119-0.019,0.226,0.028,0.239,0.107C22.894,47.092,22.807,47.171,22.688,47.19z"/>
			<path class="st17" d="M24.29,48.615c-0.111,0.008-0.207-0.039-0.212-0.107c-0.005-0.067,0.082-0.131,0.194-0.139     c0.113-0.008,0.208,0.041,0.213,0.109C24.49,48.545,24.403,48.607,24.29,48.615"/>
			<path class="st17" d="M24.29,48.615c-0.111,0.008-0.207-0.039-0.212-0.107c-0.005-0.067,0.082-0.131,0.194-0.139     c0.113-0.008,0.208,0.041,0.213,0.109C24.49,48.545,24.403,48.607,24.29,48.615z"/>
			<path class="st17" d="M21.344,45.656c0,0.073-0.134,0.133-0.299,0.133c-0.165,0-0.3-0.06-0.3-0.133     c0-0.074,0.135-0.134,0.3-0.134S21.344,45.582,21.344,45.656"/>
			<path class="st17" d="M21.344,45.656c0,0.073-0.134,0.133-0.299,0.133c-0.165,0-0.3-0.06-0.3-0.133     c0-0.074,0.135-0.134,0.3-0.134S21.344,45.582,21.344,45.656z"/>
			<path class="st17" d="M24.087,46.503c0.011,0.063-0.068,0.13-0.177,0.15c-0.11,0.02-0.207-0.014-0.218-0.077     c-0.012-0.063,0.067-0.131,0.177-0.151C23.977,46.405,24.076,46.44,24.087,46.503"/>
			<path class="st17" d="M22.128,46.201c0,0.057-0.167,0.102-0.37,0.102c-0.206,0-0.371-0.046-0.371-0.102     c0-0.057,0.165-0.103,0.371-0.103C21.961,46.097,22.128,46.144,22.128,46.201z"/>
			<path class="st17" d="M23.21,48.639c0.072,0.011,0.113,0.142,0.091,0.292c-0.022,0.152-0.099,0.266-0.171,0.256     c-0.073-0.011-0.113-0.142-0.091-0.295C23.061,48.743,23.138,48.629,23.21,48.639"/>
			<path class="st17" d="M23.528,48.925c0.073,0.003,0.128,0.129,0.122,0.28c-0.006,0.154-0.07,0.276-0.143,0.273     c-0.073-0.003-0.128-0.129-0.122-0.283C23.391,49.044,23.454,48.922,23.528,48.925z"/>
			<path class="st17" d="M24.159,49.645c0,0.124-0.058,0.222-0.132,0.222c-0.073,0-0.132-0.098-0.132-0.222     c0-0.122,0.06-0.221,0.132-0.221C24.1,49.423,24.159,49.522,24.159,49.645"/>
			<path class="st17" d="M24.159,49.645c0,0.124-0.058,0.222-0.132,0.222c-0.073,0-0.132-0.098-0.132-0.222     c0-0.122,0.06-0.221,0.132-0.221C24.1,49.423,24.159,49.522,24.159,49.645z"/>
			<path class="st17" d="M22.895,48.682c0,0.127-0.073,0.231-0.164,0.231c-0.09,0-0.163-0.104-0.163-0.231s0.073-0.23,0.163-0.23     C22.822,48.452,22.895,48.555,22.895,48.682"/>
			<path class="st17" d="M22.447,48.197c0,0.127-0.073,0.231-0.164,0.231c-0.09,0-0.163-0.104-0.163-0.231s0.073-0.23,0.163-0.23     C22.374,47.966,22.447,48.069,22.447,48.197z"/>
			<path class="st17" d="M25.181,50.452c0,0.119-0.065,0.215-0.144,0.215c-0.079,0-0.142-0.097-0.142-0.215     c0-0.119,0.064-0.215,0.142-0.215C25.116,50.236,25.181,50.333,25.181,50.452"/>
			<path class="st17" d="M25.181,50.452c0,0.119-0.065,0.215-0.144,0.215c-0.079,0-0.142-0.097-0.142-0.215     c0-0.119,0.064-0.215,0.142-0.215C25.116,50.236,25.181,50.333,25.181,50.452z"/>
			<path class="st17" d="M24.423,49.672c-0.049-0.007-0.106,0.096-0.126,0.23c-0.02,0.136,0.004,0.25,0.054,0.258     c0.051,0.008,0.108-0.095,0.128-0.23C24.499,49.795,24.474,49.68,24.423,49.672"/>
			<path class="st17" d="M24.567,49.963c-0.049-0.008-0.108,0.094-0.13,0.228c-0.023,0.135,0,0.25,0.049,0.259     c0.051,0.009,0.11-0.093,0.132-0.228C24.64,50.087,24.617,49.971,24.567,49.963z"/>
			<path class="st17" d="M25.861,50.609c-0.049-0.028-0.129,0.022-0.178,0.11c-0.05,0.089-0.05,0.183-0.001,0.211     s0.129-0.022,0.179-0.111C25.91,50.731,25.911,50.637,25.861,50.609"/>
			<path class="st18" d="M25.601,50.343c-0.049-0.028-0.129,0.022-0.178,0.111s-0.049,0.184,0,0.211     c0.049,0.028,0.129-0.023,0.178-0.112C25.65,50.465,25.65,50.371,25.601,50.343z"/>
			<path class="st17" d="M22.004,45.747c0.006,0.063,0.123,0.104,0.265,0.091c0.139-0.013,0.247-0.074,0.241-0.137     s-0.123-0.104-0.262-0.091C22.107,45.623,21.999,45.685,22.004,45.747"/>
			<path class="st17" d="M21.566,45.72c-0.1,0.019-0.17,0.089-0.158,0.156c0.013,0.066,0.104,0.104,0.203,0.085     c0.099-0.019,0.17-0.088,0.158-0.155C21.757,45.739,21.666,45.701,21.566,45.72z"/>
			<path class="st17" d="M20.147,46.381c0,0.153,0.047,0.277,0.103,0.277s0.103-0.124,0.103-0.277s-0.047-0.276-0.103-0.276     C20.193,46.105,20.147,46.228,20.147,46.381"/>
			<path class="st17" d="M20.78,46.983c0,0.153,0.047,0.277,0.103,0.277s0.103-0.124,0.103-0.277s-0.047-0.276-0.103-0.276     C20.827,46.707,20.78,46.83,20.78,46.983z"/>
			<path class="st15" d="M28.8,52.54c0.08,0.091,0.052,0.211-0.078,0.394c-0.118,0.165-0.319,0.259-0.399,0.168     c-0.08-0.09-0.091-0.331,0.077-0.481C28.567,52.471,28.719,52.449,28.8,52.54z"/>
			<path class="st17" d="M28.57,53.174c0,0-5.231,3.049-9.231,0.279c-3.559-2.465-3.266-6.687-2.425-9.022"/>
		</g>
	</g>
</g>
</svg>