<?xml version="1.0" encoding="UTF-8"?>
<!-- Generator: Adobe Illustrator 24.0.2, SVG Export Plug-In . SVG Version: 6.00 Build 0)  -->
<svg version="1.1" id="Calque_1" xmlns="http://www.w3.org/2000/svg" xmlns:xlink="http://www.w3.org/1999/xlink" x="0px" y="0px" viewBox="0 0 154 80" style="enable-background:new 0 0 154 80;" xml:space="preserve">
<style type="text/css">
	.st0{fill:#FFFFFF;stroke:#DADADA;stroke-width:0.7739;stroke-miterlimit:10;}
	.st1{fill:#FFFFFF;stroke:#DADADA;stroke-width:0.7427;stroke-miterlimit:10;}
	.st2{fill:#FFFFFF;stroke:#9D9D9C;stroke-width:0.7248;stroke-miterlimit:10;}
	.st3{fill:#FFFFFF;stroke:#000000;stroke-width:0.9665;stroke-miterlimit:10;}
	.st4{enable-background:new    ;}
	.st5{fill:#E11683;}
	.st6{fill:none;stroke:#B2B2B2;stroke-width:0.3624;stroke-miterlimit:10;}
	.st7{fill:#575756;}
	.st8{fill:#B2B2B2;}
	.st9{fill:#3C3C3B;}
	.st10{fill:#878787;}
	.st11{opacity:0.6;enable-background:new    ;}
	.st12{fill:#7DB728;}
	.st13{fill:#7FC7EB;}
	.st14{fill:none;stroke:#9D9D9C;stroke-width:0.9139;stroke-miterlimit:10;stroke-dasharray:8.8665,3.2242,8.8665,3.2242;}
	.st15{fill:#FFFFFF;stroke:#575756;stroke-width:0.5216;stroke-linecap:round;stroke-linejoin:round;stroke-miterlimit:10;}
	.st16{fill:none;stroke:#575756;stroke-width:0.5216;stroke-linecap:round;stroke-linejoin:round;stroke-miterlimit:10;}
</style>
<g id="_x3C_Groupe_x3E__étoile">
	<rect x="115.5" y="36" class="st0" width="37.8" height="11.8"/>
	<rect x="88.1" y="48" class="st1" width="24.2" height="12.7"/>
	<rect x="112.2" y="48" class="st1" width="21.6" height="12.7"/>
	<rect x="88.1" y="60.7" class="st1" width="29.5" height="12.6"/>
	<polygon class="st2" points="100.6,47.9 88.2,47.9 88.2,24.1 115.5,24.1 115.5,47.9 103.2,47.9  "/>
	<polygon class="st2" points="66.2,73.3 48.3,73.4 48.3,19 88,18.9 88,73.3 70,73.3  "/>
	<path class="st3" d="M28.9,66H1.2V19.1h46.9V66H34.7c0,0-4.3,7.8-11.5,9.3C23.2,75.3,27.5,72.5,28.9,66z"/>
	<g class="st4">
		<path class="st5" d="M80.014,24.418v0.399H78.59v1.298h0.66c0.248,0,0.455-0.001,0.624-0.005c0.168-0.003,0.302-0.014,0.401-0.032    v0.449h-2.197c0.018-0.1,0.029-0.244,0.032-0.433s0.005-0.407,0.005-0.653v-1.473c0-0.246-0.002-0.464-0.005-0.652    c-0.003-0.189-0.015-0.333-0.032-0.434h2.123v0.412H78.59v1.124H80.014z"/>
		<path class="st5" d="M81.487,25.441c0,0.123,0.001,0.24,0.001,0.35c0.001,0.11,0.003,0.211,0.006,0.305    c0.002,0.093,0.006,0.176,0.011,0.25s0.012,0.134,0.021,0.182h-0.55c0.019-0.1,0.028-0.244,0.032-0.433s0.005-0.407,0.005-0.653    v-1.768c0-0.116-0.001-0.225-0.003-0.326c-0.004-0.101-0.007-0.191-0.012-0.271c-0.006-0.08-0.013-0.145-0.022-0.195    c0.087-0.003,0.183-0.007,0.287-0.012c0.09-0.003,0.196-0.006,0.319-0.009s0.258-0.004,0.404-0.004    c0.195,0,0.373,0.02,0.534,0.059c0.161,0.04,0.298,0.1,0.413,0.183c0.115,0.082,0.205,0.188,0.269,0.318    c0.063,0.129,0.097,0.284,0.097,0.464c0,0.151-0.023,0.285-0.072,0.402c-0.047,0.116-0.109,0.217-0.187,0.301    s-0.165,0.153-0.264,0.208c-0.099,0.055-0.198,0.096-0.3,0.125c0.05,0.068,0.111,0.152,0.184,0.251s0.15,0.204,0.232,0.314    c0.082,0.111,0.166,0.223,0.25,0.337c0.084,0.114,0.162,0.219,0.236,0.315c0.072,0.097,0.137,0.18,0.191,0.25    c0.055,0.07,0.094,0.117,0.115,0.142h-0.637l-1.055-1.56h-0.507V25.441z M81.487,24.58h0.475c0.283,0,0.497-0.058,0.644-0.175    c0.146-0.116,0.219-0.279,0.219-0.487c0-0.106-0.017-0.201-0.049-0.283c-0.033-0.083-0.084-0.151-0.152-0.207    c-0.069-0.056-0.158-0.098-0.268-0.127s-0.24-0.044-0.394-0.044c-0.089,0-0.173,0.001-0.253,0.004    c-0.081,0.002-0.154,0.005-0.222,0.009V24.58z"/>
	</g>
	<g class="st4">
		<path class="st5" d="M52.533,25.323c0.042,0.254,0.119,0.445,0.231,0.574c0.141,0.2,0.352,0.3,0.63,0.3    c0.367,0,0.67-0.098,0.912-0.293c0.167-0.137,0.304-0.345,0.412-0.624l0.1,0.2c-0.129,0.375-0.333,0.645-0.612,0.811    c-0.275,0.163-0.643,0.244-1.105,0.244c-0.483,0-0.818-0.148-1.005-0.443c-0.154-0.212-0.231-0.514-0.231-0.905    c0-0.479,0.102-0.855,0.306-1.13c0.237-0.312,0.597-0.468,1.08-0.468c0.362,0,0.629,0.085,0.799,0.256    c0.167,0.15,0.25,0.362,0.25,0.637c0,0.004,0,0.007,0,0.009s0,0.004,0,0.006c0,0.002,0,0.004,0,0.006c0,0.002,0,0.004,0,0.006    s0,0.004,0,0.006s0,0.004,0,0.006c0,0.002,0,0.004,0,0.006c0,0.002,0,0.004,0,0.006c0,0.002,0,0.004,0,0.006s0,0.004,0,0.006    s0,0.004,0,0.006c0,0.002,0,0.004,0,0.006c0,0.002,0,0.005,0,0.01c0,0.004,0,0.009,0,0.015c0,0.006-0.001,0.017-0.003,0.031    c-0.002,0.015-0.003,0.028-0.003,0.041c-0.038,0.262-0.35,0.45-0.937,0.562c-0.184,0.046-0.46,0.081-0.831,0.106H52.533z     M54.025,24.58c0-0.012,0.001-0.027,0.003-0.043c0.002-0.017,0.003-0.038,0.003-0.063c0-0.188-0.069-0.35-0.206-0.487    c-0.142-0.129-0.313-0.193-0.512-0.193c-0.287,0-0.5,0.156-0.637,0.468c-0.113,0.25-0.169,0.531-0.169,0.843    c0.033-0.004,0.087-0.01,0.163-0.019c0.025,0,0.053-0.002,0.084-0.006c0.031-0.004,0.062-0.008,0.091-0.013    c0.025,0,0.053-0.002,0.084-0.006c0.031-0.004,0.061-0.008,0.09-0.012c0.038-0.004,0.098-0.01,0.181-0.019    C53.709,24.963,53.984,24.813,54.025,24.58z"/>
		<path class="st5" d="M54.819,25.454l-0.087-0.188c0.025-0.083,0.043-0.144,0.056-0.181c0.012-0.029,0.022-0.06,0.031-0.093    c0.008-0.033,0.019-0.064,0.031-0.094c0.033-0.083,0.056-0.146,0.068-0.188c0.017-0.058,0.04-0.123,0.069-0.193    c0.05-0.154,0.094-0.285,0.131-0.393c0.037-0.108,0.062-0.193,0.075-0.256c-0.308,0-0.462-0.119-0.462-0.356    c0-0.112,0.027-0.206,0.081-0.281c0.05-0.071,0.129-0.106,0.237-0.106c0.087,0,0.156,0.012,0.206,0.038    c0.05,0.045,0.087,0.135,0.112,0.268v0.256c0.008,0,0.115-0.01,0.318-0.031c0.175-0.025,0.285-0.045,0.331-0.062    c0.25,0,0.422,0.064,0.519,0.193c0.087,0.121,0.131,0.32,0.131,0.599v1.286c0,0.012,0,0.024,0,0.034c0,0.011,0,0.018,0,0.022    c0,0.012,0,0.023,0,0.031s0,0.017,0,0.025s0,0.017,0,0.025s0,0.015,0,0.019c0,0.009,0,0.016,0,0.022s0,0.039,0,0.097    c0,0.059,0.015,0.127,0.044,0.206c0.046,0.092,0.137,0.137,0.275,0.137c0.083,0,0.181-0.112,0.293-0.337    c0.1-0.212,0.191-0.443,0.274-0.693l0.1,0.194c-0.121,0.337-0.219,0.583-0.293,0.736c-0.129,0.225-0.273,0.337-0.431,0.337    c-0.362,0-0.589-0.056-0.681-0.168c-0.108-0.112-0.162-0.341-0.162-0.687v-1.055v-0.144c0-0.183-0.013-0.337-0.038-0.462    c-0.033-0.108-0.094-0.162-0.181-0.162c-0.012,0-0.025,0-0.037,0c-0.013,0-0.025,0-0.038,0c-0.013,0-0.025,0-0.038,0    s-0.025,0-0.038,0c-0.012,0-0.026,0-0.041,0s-0.028,0-0.041,0c-0.017,0-0.031,0-0.043,0c-0.013,0-0.025,0-0.038,0    c-0.108,0-0.181,0.006-0.219,0.019c-0.05,0.212-0.137,0.499-0.262,0.861c-0.013,0.033-0.024,0.065-0.034,0.097    c-0.011,0.031-0.02,0.062-0.028,0.09c-0.012,0.034-0.024,0.065-0.034,0.094c-0.011,0.029-0.022,0.058-0.035,0.087    c-0.012,0.033-0.024,0.064-0.034,0.094c-0.01,0.029-0.02,0.058-0.028,0.087c-0.013,0.033-0.024,0.064-0.035,0.093    c-0.01,0.029-0.022,0.056-0.034,0.082H54.819z M55.243,23.432c0-0.112-0.043-0.168-0.131-0.168    c-0.063,0.013-0.094,0.073-0.094,0.181c0,0.162,0.071,0.243,0.212,0.243L55.243,23.432z"/>
	</g>
	<g class="st4">
		<path class="st5" d="M112.117,28.407v0.399h-1.424v1.298h0.66c0.248,0,0.456-0.001,0.625-0.005    c0.168-0.003,0.302-0.014,0.401-0.032v0.449h-2.198c0.019-0.1,0.029-0.244,0.033-0.433c0.003-0.189,0.004-0.407,0.004-0.653    v-1.473c0-0.246-0.001-0.464-0.004-0.652c-0.004-0.189-0.015-0.333-0.033-0.434h2.123v0.412h-1.611v1.124H112.117z"/>
	</g>
	<g class="st4">
		<path class="st5" d="M92.274,29.016c0.042,0.254,0.118,0.445,0.231,0.574c0.141,0.2,0.352,0.3,0.631,0.3    c0.366,0,0.67-0.098,0.912-0.293c0.166-0.137,0.303-0.345,0.412-0.624l0.1,0.2c-0.129,0.375-0.334,0.645-0.612,0.811    c-0.274,0.163-0.644,0.244-1.105,0.244c-0.483,0-0.817-0.148-1.005-0.443c-0.154-0.212-0.231-0.514-0.231-0.905    c0-0.479,0.103-0.855,0.306-1.13c0.238-0.312,0.598-0.468,1.08-0.468c0.363,0,0.629,0.085,0.8,0.256    c0.167,0.15,0.25,0.362,0.25,0.637c0,0.004,0,0.007,0,0.009s0,0.004,0,0.006c0,0.002,0,0.004,0,0.006c0,0.002,0,0.004,0,0.006    s0,0.004,0,0.006s0,0.004,0,0.006c0,0.002,0,0.004,0,0.006c0,0.002,0,0.004,0,0.006c0,0.002,0,0.004,0,0.006s0,0.004,0,0.006    s0,0.004,0,0.006c0,0.002,0,0.004,0,0.006c0,0.002,0,0.005,0,0.01c0,0.004,0,0.009,0,0.015c0,0.006-0.001,0.017-0.003,0.031    c-0.002,0.015-0.004,0.028-0.004,0.041c-0.037,0.262-0.35,0.45-0.936,0.562c-0.184,0.046-0.461,0.081-0.831,0.106H92.274z     M93.768,28.273c0-0.012,0-0.027,0.003-0.043c0.002-0.017,0.003-0.038,0.003-0.063c0-0.188-0.068-0.35-0.206-0.487    c-0.142-0.129-0.313-0.193-0.513-0.193c-0.287,0-0.499,0.156-0.637,0.468c-0.112,0.25-0.168,0.531-0.168,0.843    c0.033-0.004,0.087-0.01,0.162-0.019c0.025,0,0.053-0.002,0.084-0.006c0.031-0.004,0.062-0.008,0.091-0.013    c0.024,0,0.054-0.002,0.085-0.006c0.031-0.004,0.061-0.008,0.09-0.012c0.037-0.004,0.098-0.01,0.182-0.019    C93.451,28.656,93.726,28.506,93.768,28.273z"/>
	</g>
	<path class="st6" d="M18.1,62.3c0.3,0.1,4.8,2.5,12.1,0"/>
	<path class="st6" d="M31.6,62.3c0,0,3.2,1.7,7.8,0"/>
	<path class="st6" d="M11,62.3c0,0,2.6,2,6.1,0"/>
	<g class="st4">
		<path class="st7" d="M24.605,32.894c0.888,0,1.672,0.105,2.354,0.316s1.272,0.503,1.77,0.876c0.498,0.374,0.915,0.809,1.25,1.307    s0.604,1.033,0.804,1.606s0.343,1.171,0.43,1.793c0.086,0.622,0.13,1.236,0.13,1.842v0.633c0,0.271-0.005,0.481-0.016,0.633    H19.815c0.032,0.952,0.181,1.78,0.446,2.483s0.628,1.284,1.088,1.744c0.46,0.459,1.001,0.803,1.624,1.03s1.302,0.341,2.038,0.341    c1.05,0,2.078-0.119,3.085-0.357c1.006-0.238,2.008-0.66,3.003-1.266l0.325,2.678c-0.574,0.292-1.136,0.541-1.688,0.746    c-0.552,0.205-1.104,0.373-1.656,0.503c-0.552,0.13-1.112,0.225-1.68,0.284s-1.167,0.09-1.794,0.09    c-1.039,0-2.029-0.182-2.971-0.544s-1.77-0.897-2.484-1.606c-0.714-0.709-1.283-1.588-1.705-2.637    c-0.422-1.05-0.633-2.267-0.633-3.651c0-1.341,0.181-2.556,0.544-3.643c0.362-1.087,0.879-2.018,1.551-2.791    c0.671-0.773,1.488-1.369,2.452-1.785C22.321,33.102,23.404,32.894,24.605,32.894z M24.362,35.328    c-1.191,0-2.166,0.349-2.923,1.046c-0.758,0.698-1.256,1.783-1.494,3.254h8.476c0-0.692-0.101-1.307-0.3-1.842    c-0.201-0.536-0.482-0.987-0.845-1.355s-0.793-0.644-1.291-0.828C25.487,35.419,24.946,35.328,24.362,35.328z M31.002,23.807    l-6.819,6.978h-2.598l5.683-6.978H31.002z"/>
	</g>
	<g class="st4">
		<path class="st7" d="M14.25,53.486c0.341,0,0.643,0.04,0.905,0.121c0.263,0.081,0.489,0.193,0.681,0.337    c0.192,0.144,0.352,0.312,0.481,0.503s0.232,0.396,0.309,0.617s0.132,0.451,0.166,0.689c0.033,0.24,0.05,0.477,0.05,0.709v0.243    c0,0.104-0.002,0.186-0.006,0.243h-4.428c0.013,0.367,0.07,0.686,0.172,0.955c0.102,0.271,0.241,0.494,0.418,0.671    c0.177,0.177,0.385,0.31,0.625,0.396c0.239,0.087,0.5,0.132,0.784,0.132c0.404,0,0.799-0.047,1.187-0.139    c0.387-0.091,0.772-0.253,1.155-0.486l0.125,1.029c-0.221,0.113-0.438,0.209-0.65,0.287c-0.212,0.08-0.424,0.145-0.637,0.194    s-0.428,0.086-0.646,0.108c-0.218,0.023-0.449,0.035-0.69,0.035c-0.4,0-0.781-0.07-1.143-0.209    c-0.362-0.14-0.681-0.346-0.955-0.618c-0.275-0.272-0.494-0.61-0.656-1.015c-0.163-0.403-0.244-0.871-0.244-1.404    c0-0.516,0.07-0.982,0.209-1.4c0.14-0.418,0.338-0.776,0.597-1.074c0.258-0.297,0.572-0.525,0.943-0.686    S13.788,53.486,14.25,53.486z M14.156,54.422c-0.458,0-0.833,0.135-1.124,0.402c-0.292,0.269-0.483,0.686-0.575,1.252h3.26    c0-0.267-0.038-0.503-0.115-0.709c-0.077-0.205-0.186-0.379-0.325-0.521c-0.14-0.141-0.305-0.247-0.497-0.318    C14.589,54.457,14.381,54.422,14.156,54.422z M16.71,49.99l-2.623,2.684h-0.999l2.186-2.684H16.71z"/>
	</g>
	<g class="st4">
		<path class="st8" d="M18.313,55.009h0.999v-1.623h0.924v1.623h1.624v0.724h-1.624v2.297c0,0.256,0.013,0.467,0.038,0.629    c0.025,0.164,0.063,0.291,0.115,0.383c0.052,0.091,0.118,0.153,0.197,0.187c0.08,0.033,0.177,0.05,0.29,0.05    c0.143,0,0.305-0.031,0.484-0.095c0.18-0.063,0.38-0.156,0.6-0.279v0.799c-0.23,0.149-0.45,0.254-0.66,0.312    c-0.209,0.059-0.403,0.088-0.579,0.088c-0.197,0-0.38-0.022-0.55-0.067s-0.319-0.124-0.447-0.237    c-0.128-0.113-0.229-0.264-0.302-0.452s-0.11-0.427-0.11-0.716v-2.896h-0.999V55.009z"/>
		<path class="st8" d="M22.81,57.455c0-0.43,0.065-0.81,0.195-1.141c0.13-0.332,0.305-0.611,0.524-0.839    c0.22-0.228,0.477-0.4,0.77-0.517c0.293-0.117,0.604-0.176,0.934-0.176c0.343,0,0.657,0.059,0.942,0.176    c0.285,0.116,0.53,0.289,0.734,0.517c0.205,0.228,0.364,0.507,0.477,0.839c0.113,0.331,0.17,0.711,0.17,1.141    s-0.065,0.809-0.195,1.139c-0.13,0.329-0.305,0.605-0.524,0.828c-0.22,0.224-0.477,0.393-0.77,0.508    c-0.293,0.114-0.604,0.172-0.934,0.172c-0.343,0-0.657-0.058-0.942-0.172c-0.285-0.115-0.53-0.284-0.734-0.508    c-0.205-0.223-0.364-0.499-0.477-0.828C22.866,58.264,22.81,57.885,22.81,57.455z M23.734,57.455c0,0.289,0.035,0.549,0.105,0.779    c0.07,0.229,0.169,0.424,0.297,0.582c0.128,0.157,0.28,0.278,0.457,0.361c0.176,0.083,0.373,0.125,0.589,0.125    c0.2,0,0.388-0.042,0.564-0.125c0.177-0.083,0.331-0.204,0.462-0.361c0.131-0.158,0.235-0.353,0.31-0.582    c0.075-0.23,0.112-0.49,0.112-0.779c0-0.293-0.035-0.555-0.105-0.786c-0.07-0.231-0.169-0.428-0.297-0.589    c-0.128-0.162-0.282-0.285-0.46-0.37s-0.374-0.127-0.587-0.127c-0.203,0-0.393,0.042-0.569,0.127    c-0.177,0.085-0.33,0.208-0.46,0.37c-0.13,0.161-0.232,0.357-0.307,0.589C23.771,56.9,23.734,57.162,23.734,57.455z"/>
	</g>
	<g class="st4">
		<path class="st8" d="M28.544,53.262c0-0.094,0.015-0.182,0.045-0.263s0.072-0.153,0.127-0.215c0.055-0.062,0.121-0.11,0.197-0.145    c0.077-0.035,0.162-0.053,0.255-0.053s0.18,0.018,0.26,0.053c0.08,0.034,0.148,0.083,0.205,0.145s0.102,0.134,0.135,0.215    c0.033,0.081,0.05,0.169,0.05,0.263c0,0.093-0.017,0.18-0.05,0.262c-0.034,0.082-0.079,0.152-0.135,0.215    c-0.057,0.061-0.125,0.109-0.205,0.145s-0.167,0.053-0.26,0.053s-0.178-0.018-0.255-0.053s-0.143-0.084-0.197-0.145    c-0.055-0.063-0.098-0.133-0.127-0.215S28.544,53.354,28.544,53.262z M29.643,57.605c0,0.159,0.002,0.348,0.007,0.566    c0.005,0.218,0.012,0.438,0.02,0.661c0.008,0.224,0.019,0.437,0.03,0.64c0.011,0.203,0.025,0.371,0.042,0.504h-1.024V57.33    c0-0.242-0.001-0.482-0.002-0.719c-0.002-0.236-0.005-0.46-0.01-0.672c-0.005-0.211-0.012-0.407-0.022-0.589    c-0.01-0.181-0.023-0.337-0.04-0.467h0.999V57.605z"/>
	</g>
	<g class="st4">
		<path class="st8" d="M33.245,57.605c0,0.159,0.002,0.348,0.007,0.563c0.005,0.217,0.012,0.437,0.02,0.659s0.019,0.436,0.03,0.639    c0.011,0.203,0.025,0.373,0.042,0.51h-1.024v-5.643c0-0.485-0.008-0.926-0.025-1.32s-0.042-0.736-0.075-1.025h1.024V57.605z"/>
		<path class="st8" d="M37.067,54.783c0.273,0,0.515,0.033,0.725,0.098c0.21,0.065,0.391,0.155,0.544,0.27    c0.153,0.115,0.281,0.25,0.385,0.402c0.103,0.153,0.186,0.318,0.247,0.494c0.062,0.177,0.106,0.361,0.132,0.552    c0.027,0.192,0.04,0.38,0.04,0.567v0.194c0,0.083-0.001,0.147-0.005,0.194h-3.542c0.01,0.293,0.056,0.548,0.137,0.764    c0.082,0.217,0.193,0.396,0.335,0.537c0.142,0.142,0.308,0.248,0.5,0.317s0.4,0.104,0.627,0.104c0.323,0,0.64-0.037,0.949-0.109    c0.31-0.073,0.618-0.203,0.924-0.39l0.1,0.823c-0.176,0.09-0.35,0.167-0.52,0.23c-0.169,0.063-0.339,0.115-0.509,0.154    c-0.17,0.04-0.342,0.069-0.517,0.088c-0.175,0.018-0.359,0.027-0.552,0.027c-0.32,0-0.625-0.057-0.914-0.168    c-0.29-0.111-0.544-0.275-0.765-0.494c-0.22-0.218-0.395-0.488-0.524-0.811c-0.13-0.323-0.195-0.697-0.195-1.124    c0-0.413,0.056-0.786,0.167-1.12c0.111-0.335,0.271-0.621,0.477-0.859s0.458-0.421,0.754-0.549    C36.364,54.848,36.697,54.783,37.067,54.783z M36.992,55.533c-0.367,0-0.667,0.107-0.899,0.322c-0.233,0.215-0.386,0.548-0.459,1    h2.608c0-0.213-0.031-0.401-0.093-0.566c-0.062-0.164-0.148-0.304-0.26-0.416c-0.111-0.113-0.244-0.199-0.397-0.256    S37.172,55.533,36.992,55.533z"/>
	</g>
	<g class="st4">
		<path class="st7" d="M41.74,27.174v0.532h-1.898v1.731h0.879c0.331,0,0.608-0.002,0.833-0.006    c0.224-0.004,0.403-0.019,0.536-0.043v0.599h-2.931c0.024-0.133,0.039-0.326,0.043-0.578c0.004-0.251,0.007-0.542,0.007-0.87    v-1.964c0-0.329-0.002-0.619-0.007-0.871s-0.019-0.444-0.043-0.578h2.831v0.549h-2.148v1.498H41.74z M41.957,23.229l-1.399,1.432    h-0.533l1.166-1.432H41.957z"/>
	</g>
	<g class="st4">
		<path class="st7" d="M7.119,27.418c0.047,0.349,0.152,0.62,0.315,0.813c0.198,0.279,0.493,0.419,0.883,0.419    c0.519,0,0.95-0.134,1.294-0.402c0.227-0.198,0.417-0.492,0.568-0.883l0.14,0.28c-0.181,0.524-0.463,0.906-0.848,1.145    c-0.396,0.227-0.909,0.341-1.539,0.341c-0.682,0-1.16-0.204-1.434-0.612c-0.227-0.332-0.338-0.763-0.332-1.293    c0-0.658,0.151-1.18,0.455-1.564c0.32-0.443,0.822-0.664,1.504-0.664c0.495,0,0.871,0.12,1.127,0.358    c0.228,0.221,0.341,0.527,0.341,0.917v0.131c0,0.006,0,0.01,0,0.013s0,0.006,0,0.009s0,0.006,0,0.009s0,0.006,0,0.008    c0,0.003,0,0.006,0,0.009s0,0.006,0,0.009s0,0.006,0,0.009s0,0.006,0,0.009s0,0.006,0,0.009s-0.012,0.099-0.035,0.288    c-0.023,0.189-0.449,0.357-1.276,0.502c-0.303,0.07-0.691,0.12-1.163,0.149V27.418z M9.104,22.333    c0.228,0.262,0.341,0.556,0.341,0.882c-0.041,0.146-0.353,0.306-0.936,0.481c-0.577,0.192-1.104,0.314-1.582,0.367    c-0.012-0.082-0.032-0.181-0.062-0.297c0.659-0.198,1.154-0.417,1.486-0.655c0.303-0.222,0.551-0.481,0.743-0.778H9.104z     M9.218,26.387c0.006-0.012,0.009-0.052,0.009-0.122c0-0.28-0.099-0.516-0.297-0.708c-0.228-0.187-0.46-0.28-0.7-0.28    c-0.414,0-0.717,0.222-0.909,0.664c-0.163,0.367-0.245,0.763-0.245,1.188c0.035,0,0.095-0.004,0.179-0.013    s0.188-0.021,0.311-0.039c0.221-0.012,0.384-0.029,0.489-0.053c0.711-0.093,1.096-0.3,1.154-0.62L9.218,26.387z"/>
	</g>
	<g>
		<g class="st4">
			<path class="st5" d="M65.964,26.575c0.296,0,0.558,0.035,0.785,0.105c0.227,0.07,0.424,0.168,0.59,0.292     c0.166,0.124,0.305,0.27,0.417,0.435c0.112,0.166,0.201,0.345,0.268,0.536s0.114,0.39,0.144,0.598     c0.029,0.208,0.043,0.412,0.043,0.614v0.211c0,0.09-0.001,0.161-0.005,0.211h-3.837c0.011,0.317,0.06,0.593,0.148,0.828     s0.209,0.428,0.363,0.582s0.333,0.268,0.541,0.344c0.208,0.076,0.434,0.113,0.68,0.113c0.35,0,0.692-0.04,1.028-0.119     c0.335-0.079,0.669-0.22,1.001-0.422l0.108,0.893c-0.191,0.098-0.379,0.181-0.563,0.249s-0.368,0.125-0.552,0.167     c-0.184,0.043-0.371,0.075-0.56,0.095s-0.389,0.03-0.598,0.03c-0.346,0-0.676-0.061-0.99-0.181     c-0.314-0.121-0.59-0.299-0.828-0.536c-0.238-0.236-0.428-0.529-0.568-0.879s-0.211-0.755-0.211-1.217     c0-0.447,0.061-0.852,0.181-1.214c0.121-0.363,0.293-0.673,0.517-0.931s0.496-0.456,0.817-0.595     C65.203,26.645,65.564,26.575,65.964,26.575z M65.883,27.387c-0.397,0-0.722,0.116-0.974,0.349     c-0.252,0.233-0.418,0.594-0.498,1.085h2.825c0-0.231-0.033-0.436-0.1-0.614c-0.067-0.178-0.161-0.329-0.281-0.452     c-0.121-0.123-0.265-0.214-0.43-0.276C66.259,27.417,66.078,27.387,65.883,27.387z"/>
			<path class="st5" d="M69.618,32.201v-3.327c0-0.534-0.03-0.985-0.089-1.355s-0.12-0.648-0.181-0.835h0.974     c0.043,0.101,0.082,0.228,0.116,0.381s0.063,0.324,0.087,0.511s0.041,0.388,0.051,0.6c0.011,0.213,0.016,0.427,0.016,0.644v0.352     c0.184-0.509,0.365-0.93,0.542-1.263s0.353-0.6,0.527-0.798c0.175-0.198,0.351-0.337,0.528-0.417     c0.177-0.079,0.357-0.119,0.541-0.119c0.137,0,0.264,0.013,0.379,0.038c0.116,0.025,0.233,0.067,0.352,0.125l-0.163,1     c-0.104-0.043-0.196-0.072-0.276-0.086c-0.08-0.015-0.177-0.022-0.292-0.022c-0.148,0-0.303,0.063-0.465,0.187     c-0.162,0.124-0.322,0.289-0.479,0.495c-0.157,0.206-0.306,0.438-0.446,0.698s-0.265,0.526-0.371,0.798     c-0.106,0.272-0.191,0.538-0.254,0.798c-0.063,0.26-0.095,0.491-0.095,0.692c0,0.09,0,0.173,0.002,0.249s0.007,0.148,0.016,0.219     c0.009,0.07,0.021,0.141,0.035,0.211c0.015,0.07,0.033,0.146,0.054,0.225H69.618z"/>
		</g>
		<g class="st4">
			<path class="st9" d="M65.632,48.886c0.432,0,0.815,0.052,1.147,0.154s0.62,0.245,0.862,0.427     c0.242,0.182,0.445,0.395,0.609,0.637s0.294,0.503,0.392,0.782s0.167,0.571,0.209,0.874c0.042,0.303,0.063,0.602,0.063,0.896     v0.309c0,0.132-0.003,0.234-0.008,0.309h-5.608c0.016,0.464,0.088,0.867,0.218,1.209c0.129,0.344,0.306,0.627,0.53,0.85     c0.224,0.225,0.488,0.393,0.791,0.502C65.141,55.945,65.471,56,65.83,56c0.511,0,1.013-0.057,1.503-0.174     c0.49-0.115,0.978-0.32,1.463-0.616l0.158,1.305c-0.28,0.142-0.554,0.264-0.823,0.363c-0.269,0.101-0.538,0.183-0.807,0.245     c-0.269,0.063-0.542,0.109-0.819,0.139s-0.568,0.043-0.874,0.043c-0.506,0-0.989-0.088-1.448-0.265     c-0.458-0.177-0.862-0.437-1.21-0.782s-0.625-0.773-0.831-1.285c-0.206-0.511-0.309-1.104-0.309-1.778     c0-0.653,0.088-1.245,0.265-1.774c0.176-0.53,0.428-0.983,0.755-1.36c0.327-0.376,0.725-0.667,1.194-0.87     C64.52,48.987,65.047,48.886,65.632,48.886z M65.514,50.072c-0.58,0-1.055,0.17-1.424,0.51s-0.612,0.867-0.728,1.584h4.129     c0-0.337-0.049-0.636-0.146-0.896c-0.098-0.262-0.234-0.48-0.411-0.66s-0.386-0.313-0.629-0.403S65.798,50.072,65.514,50.072z"/>
			<path class="st9" d="M70.972,57.107v-4.861c0-0.78-0.043-1.44-0.13-1.98c-0.087-0.541-0.175-0.947-0.265-1.222H72     c0.063,0.147,0.12,0.333,0.17,0.558c0.05,0.224,0.092,0.473,0.127,0.746c0.034,0.275,0.059,0.567,0.075,0.878     c0.016,0.312,0.024,0.624,0.024,0.94v0.514c0.269-0.742,0.533-1.357,0.791-1.846c0.258-0.486,0.516-0.875,0.771-1.166     c0.255-0.289,0.513-0.492,0.771-0.608s0.522-0.174,0.791-0.174c0.2,0,0.385,0.019,0.554,0.056s0.34,0.098,0.514,0.182     l-0.237,1.463c-0.153-0.064-0.288-0.105-0.403-0.127c-0.116-0.021-0.258-0.031-0.427-0.031c-0.216,0-0.443,0.09-0.68,0.272     c-0.237,0.182-0.471,0.423-0.7,0.724c-0.229,0.3-0.447,0.641-0.652,1.02c-0.206,0.379-0.387,0.768-0.542,1.166     c-0.156,0.398-0.28,0.787-0.372,1.166c-0.093,0.379-0.139,0.717-0.139,1.012c0,0.132,0.001,0.253,0.004,0.363     c0.002,0.111,0.011,0.218,0.024,0.32c0.013,0.104,0.03,0.206,0.051,0.309c0.021,0.104,0.047,0.213,0.079,0.328H70.972z"/>
		</g>
		<g class="st4">
			<path class="st8" d="M57.606,38.509v-2.047c0-0.329-0.018-0.606-0.055-0.834s-0.074-0.399-0.112-0.514h0.6     c0.027,0.062,0.05,0.14,0.072,0.234c0.021,0.094,0.039,0.199,0.053,0.314c0.014,0.116,0.025,0.239,0.032,0.37     c0.006,0.131,0.01,0.263,0.01,0.396v0.216c0.113-0.313,0.224-0.572,0.333-0.777c0.109-0.206,0.217-0.369,0.325-0.491     c0.108-0.122,0.216-0.208,0.325-0.256s0.22-0.073,0.333-0.073c0.084,0,0.162,0.008,0.233,0.023     c0.071,0.016,0.143,0.041,0.216,0.077l-0.1,0.616c-0.064-0.027-0.121-0.044-0.17-0.053s-0.109-0.013-0.18-0.013     c-0.091,0-0.187,0.038-0.286,0.115c-0.1,0.077-0.198,0.178-0.295,0.305s-0.188,0.27-0.275,0.429     c-0.086,0.16-0.163,0.323-0.228,0.491c-0.065,0.168-0.118,0.332-0.156,0.491c-0.039,0.16-0.059,0.302-0.059,0.426     c0,0.055,0,0.106,0.002,0.153c0.001,0.047,0.004,0.092,0.01,0.135c0.005,0.043,0.013,0.086,0.021,0.13     c0.009,0.043,0.02,0.089,0.034,0.138H57.606z"/>
			<path class="st8" d="M60.371,36.828c0-0.286,0.043-0.54,0.13-0.76s0.203-0.407,0.35-0.56c0.146-0.152,0.317-0.267,0.513-0.344     c0.195-0.078,0.403-0.117,0.623-0.117c0.229,0,0.438,0.039,0.628,0.117s0.353,0.192,0.49,0.344     c0.136,0.152,0.242,0.339,0.318,0.56s0.113,0.474,0.113,0.76c0,0.287-0.043,0.54-0.13,0.759s-0.203,0.404-0.35,0.552     c-0.146,0.149-0.318,0.261-0.513,0.338s-0.403,0.115-0.623,0.115c-0.229,0-0.438-0.038-0.628-0.115s-0.353-0.189-0.49-0.338     c-0.136-0.148-0.243-0.333-0.318-0.552C60.409,37.368,60.371,37.115,60.371,36.828z M60.987,36.828     c0,0.193,0.023,0.366,0.07,0.52c0.047,0.153,0.113,0.282,0.198,0.388s0.187,0.186,0.305,0.241     c0.118,0.056,0.249,0.083,0.393,0.083c0.133,0,0.259-0.028,0.376-0.083c0.118-0.055,0.22-0.136,0.308-0.241     c0.087-0.105,0.156-0.235,0.207-0.388c0.05-0.153,0.075-0.326,0.075-0.52c0-0.195-0.023-0.37-0.07-0.524     c-0.047-0.154-0.113-0.285-0.198-0.393c-0.085-0.107-0.188-0.189-0.307-0.246c-0.119-0.057-0.249-0.085-0.391-0.085     c-0.135,0-0.262,0.028-0.38,0.085s-0.22,0.139-0.306,0.246c-0.086,0.108-0.155,0.239-0.205,0.393     C61.012,36.458,60.987,36.633,60.987,36.828z"/>
			<path class="st8" d="M65.9,35.047c0.222,0,0.414,0.026,0.575,0.079c0.161,0.052,0.302,0.12,0.424,0.205l-0.116,0.599     c-0.151-0.111-0.301-0.194-0.45-0.25c-0.149-0.056-0.31-0.083-0.483-0.083c-0.149,0-0.287,0.028-0.415,0.085     c-0.127,0.057-0.238,0.138-0.333,0.245c-0.094,0.106-0.168,0.237-0.221,0.393c-0.053,0.156-0.08,0.331-0.08,0.526     c0,0.18,0.024,0.343,0.073,0.489s0.119,0.272,0.21,0.377c0.091,0.105,0.201,0.187,0.33,0.245     c0.129,0.058,0.274,0.087,0.437,0.087c0.202,0,0.385-0.035,0.549-0.104c0.165-0.069,0.32-0.167,0.466-0.296l0.067,0.583     c-0.084,0.064-0.168,0.119-0.251,0.165c-0.083,0.045-0.171,0.083-0.262,0.113c-0.091,0.03-0.189,0.052-0.293,0.066     c-0.104,0.015-0.219,0.021-0.343,0.021c-0.224,0-0.434-0.039-0.629-0.118c-0.195-0.079-0.366-0.192-0.513-0.341     c-0.147-0.149-0.262-0.329-0.347-0.54c-0.084-0.21-0.126-0.449-0.126-0.715c0-0.251,0.041-0.487,0.122-0.709     c0.081-0.222,0.196-0.416,0.346-0.583s0.332-0.298,0.546-0.395S65.636,35.047,65.9,35.047z"/>
			<path class="st8" d="M69.613,35.047c0.355,0,0.627,0.116,0.816,0.348c0.189,0.232,0.283,0.576,0.283,1.033v2.081h-0.616v-1.831     c0-0.208-0.014-0.381-0.042-0.516s-0.069-0.242-0.125-0.321c-0.056-0.079-0.125-0.134-0.208-0.165     c-0.083-0.031-0.181-0.047-0.292-0.047c-0.12,0-0.237,0.028-0.352,0.085s-0.219,0.13-0.314,0.22     c-0.096,0.09-0.18,0.191-0.253,0.305s-0.127,0.226-0.163,0.339v1.931h-0.616v-3.761c0-0.359-0.002-0.674-0.007-0.944     s-0.019-0.477-0.043-0.621h0.666v2.563c0.164-0.233,0.357-0.408,0.58-0.524C69.149,35.106,69.378,35.047,69.613,35.047z"/>
		</g>
		<g class="st4">
			<path class="st5" d="M72.993,34.182c0.228,0,0.429,0.027,0.604,0.081s0.326,0.129,0.454,0.225     c0.128,0.096,0.235,0.208,0.321,0.335c0.086,0.128,0.155,0.265,0.206,0.412s0.088,0.3,0.11,0.459     c0.022,0.16,0.033,0.317,0.033,0.473v0.162c0,0.069-0.001,0.124-0.004,0.162h-2.952c0.008,0.244,0.046,0.457,0.115,0.637     c0.068,0.18,0.161,0.33,0.279,0.447c0.118,0.118,0.257,0.206,0.417,0.264s0.333,0.087,0.522,0.087     c0.269,0,0.533-0.03,0.791-0.091c0.258-0.061,0.515-0.169,0.77-0.325l0.083,0.687c-0.147,0.075-0.292,0.139-0.433,0.191     s-0.283,0.096-0.425,0.129s-0.285,0.058-0.431,0.073c-0.146,0.015-0.299,0.023-0.46,0.023c-0.267,0-0.521-0.046-0.762-0.139     c-0.241-0.093-0.454-0.23-0.637-0.412s-0.329-0.407-0.437-0.676c-0.108-0.269-0.163-0.581-0.163-0.936     c0-0.344,0.046-0.655,0.14-0.934c0.093-0.279,0.225-0.517,0.397-0.716c0.172-0.198,0.381-0.351,0.628-0.458     S72.685,34.182,72.993,34.182z M72.93,34.806c-0.306,0-0.555,0.089-0.75,0.269c-0.194,0.179-0.322,0.457-0.383,0.834h2.173     c0-0.177-0.025-0.335-0.077-0.472c-0.052-0.137-0.124-0.253-0.217-0.347c-0.093-0.094-0.203-0.165-0.331-0.212     C73.219,34.83,73.08,34.806,72.93,34.806z"/>
		</g>
		<g class="st4">
			<path class="st5" d="M75.646,38.509V35.95c0-0.41-0.023-0.758-0.069-1.042s-0.092-0.499-0.14-0.643h0.75     c0.033,0.078,0.063,0.176,0.089,0.293c0.026,0.118,0.049,0.249,0.067,0.393c0.018,0.145,0.031,0.298,0.04,0.462     s0.012,0.329,0.012,0.495v0.271c0.142-0.391,0.28-0.715,0.417-0.972c0.136-0.256,0.271-0.461,0.406-0.613     c0.135-0.153,0.27-0.26,0.406-0.321c0.136-0.061,0.274-0.091,0.416-0.091c0.105,0,0.202,0.01,0.292,0.029     c0.088,0.019,0.179,0.051,0.27,0.096l-0.125,0.77c-0.08-0.033-0.15-0.056-0.211-0.066c-0.062-0.011-0.137-0.017-0.226-0.017     c-0.114,0-0.233,0.048-0.358,0.144s-0.248,0.222-0.369,0.38c-0.121,0.158-0.235,0.337-0.343,0.537     c-0.108,0.2-0.204,0.405-0.285,0.614c-0.082,0.209-0.147,0.414-0.196,0.614c-0.048,0.2-0.073,0.377-0.073,0.533     c0,0.069,0,0.133,0.002,0.191s0.006,0.114,0.013,0.168s0.016,0.108,0.027,0.162c0.011,0.054,0.025,0.112,0.042,0.173H75.646z"/>
		</g>
		<g class="st4">
			<path class="st10" d="M78.213,40.727l0.041-0.029l0.252,0.316c-0.222,0.144-0.406,0.3-0.552,0.469     c-0.146,0.17-0.259,0.369-0.338,0.6c0.154-0.08,0.307-0.119,0.46-0.119c0.229,0,0.422,0.081,0.579,0.243     c0.156,0.163,0.234,0.361,0.234,0.597c0,0.243-0.085,0.449-0.256,0.618c-0.17,0.169-0.378,0.254-0.622,0.254     c-0.273,0-0.495-0.096-0.663-0.288c-0.168-0.191-0.253-0.443-0.253-0.754c0-0.233,0.043-0.465,0.13-0.696     c0.086-0.23,0.211-0.447,0.375-0.649C77.763,41.086,77.967,40.899,78.213,40.727z M77.526,42.512     c-0.011,0.065-0.017,0.139-0.017,0.219c0,0.164,0.047,0.299,0.143,0.403c0.095,0.105,0.217,0.158,0.366,0.158     c0.133,0,0.242-0.045,0.329-0.136c0.087-0.09,0.13-0.203,0.13-0.34c0-0.141-0.046-0.254-0.139-0.341     c-0.092-0.087-0.213-0.13-0.365-0.13c-0.078,0-0.148,0.012-0.211,0.035C77.699,42.404,77.62,42.448,77.526,42.512z"/>
			<path class="st10" d="M80.973,40.702c0.18,0,0.332,0.063,0.458,0.191s0.189,0.28,0.189,0.46c0,0.178-0.063,0.33-0.19,0.457     c-0.127,0.128-0.279,0.191-0.457,0.191s-0.33-0.063-0.457-0.191c-0.127-0.127-0.19-0.279-0.19-0.457     c0-0.18,0.063-0.332,0.189-0.46S80.794,40.702,80.973,40.702z M82.445,40.694h0.322l-1.912,2.981h-0.322L82.445,40.694z      M80.968,41.018c-0.093,0-0.173,0.033-0.237,0.1c-0.066,0.065-0.1,0.145-0.1,0.236s0.033,0.17,0.1,0.234     c0.066,0.066,0.146,0.098,0.237,0.098c0.093,0,0.172-0.031,0.237-0.098c0.066-0.064,0.099-0.143,0.099-0.234     c0-0.094-0.032-0.173-0.098-0.238C81.141,41.051,81.062,41.018,80.968,41.018z M82.346,42.377c0.178,0,0.33,0.063,0.457,0.189     c0.127,0.127,0.191,0.279,0.191,0.457s-0.063,0.328-0.19,0.453c-0.126,0.124-0.279,0.186-0.458,0.186     c-0.18,0-0.334-0.062-0.461-0.186c-0.127-0.125-0.189-0.275-0.189-0.453c0-0.179,0.063-0.331,0.191-0.457     C82.014,42.439,82.167,42.377,82.346,42.377z M82.342,42.693c-0.092,0-0.17,0.032-0.234,0.098     c-0.064,0.064-0.096,0.143-0.096,0.234s0.031,0.172,0.096,0.236c0.064,0.066,0.143,0.1,0.234,0.1     c0.094,0,0.174-0.033,0.238-0.098c0.064-0.065,0.098-0.145,0.098-0.238s-0.033-0.172-0.098-0.236S82.436,42.693,82.342,42.693z"/>
		</g>
		<g class="st4">
			<path class="st10" d="M63.854,68.053h0.171v1.631h0.325v0.354h-0.325v0.959H63.62v-0.959h-1.23v-0.18L63.854,68.053z      M63.62,69.684v-0.843l-0.673,0.843H63.62z"/>
			<path class="st10" d="M65.334,68.09h0.417v2.906h-0.417V68.09z"/>
			<path class="st10" d="M68.542,68.057c0.179,0,0.332,0.063,0.458,0.191c0.126,0.127,0.189,0.281,0.189,0.459     s-0.063,0.33-0.19,0.459c-0.127,0.127-0.279,0.191-0.457,0.191s-0.33-0.064-0.457-0.191c-0.127-0.129-0.19-0.281-0.19-0.459     s0.063-0.332,0.189-0.459C68.211,68.12,68.364,68.057,68.542,68.057z M70.015,68.049h0.322l-1.912,2.98h-0.321L70.015,68.049z      M68.538,68.373c-0.093,0-0.172,0.033-0.238,0.098c-0.066,0.066-0.099,0.146-0.099,0.238c0,0.091,0.033,0.169,0.1,0.234     c0.066,0.064,0.146,0.098,0.237,0.098c0.092,0,0.172-0.033,0.237-0.098c0.066-0.065,0.099-0.144,0.099-0.234     c0-0.094-0.033-0.174-0.098-0.238C68.711,68.405,68.631,68.373,68.538,68.373z M69.916,69.731c0.177,0,0.33,0.063,0.457,0.19     s0.191,0.279,0.191,0.457c0,0.177-0.063,0.328-0.19,0.451c-0.126,0.125-0.279,0.188-0.458,0.188c-0.18,0-0.333-0.063-0.46-0.188     c-0.127-0.123-0.19-0.274-0.19-0.451c0-0.18,0.063-0.332,0.191-0.459C69.583,69.795,69.737,69.731,69.916,69.731z M69.911,70.047     c-0.091,0-0.169,0.033-0.233,0.098c-0.064,0.065-0.096,0.144-0.096,0.234c0,0.093,0.032,0.172,0.096,0.238     c0.064,0.065,0.142,0.098,0.233,0.098c0.094,0,0.174-0.032,0.239-0.098c0.065-0.064,0.098-0.145,0.098-0.238     c0-0.092-0.033-0.171-0.098-0.234C70.085,70.08,70.005,70.047,69.911,70.047z"/>
		</g>
		<g class="st4">
			<path class="st10" d="M73.084,68.671h0.305v2.325h-0.648c-0.226,0-0.407-0.072-0.542-0.215c-0.135-0.143-0.202-0.335-0.202-0.576     c0-0.225,0.071-0.41,0.212-0.555c0.142-0.146,0.322-0.219,0.542-0.219c0.102,0,0.213,0.021,0.333,0.064V68.671z M73.084,70.736     v-0.971c-0.094-0.047-0.19-0.07-0.287-0.07c-0.151,0-0.271,0.049-0.36,0.147s-0.134,0.231-0.134,0.399     c0,0.158,0.039,0.279,0.117,0.364c0.047,0.052,0.096,0.085,0.148,0.104c0.052,0.018,0.146,0.026,0.281,0.026H73.084z"/>
			<path class="st10" d="M75.106,70.258h-1.078c0.008,0.146,0.057,0.262,0.147,0.349s0.208,0.13,0.351,0.13     c0.2,0,0.384-0.063,0.553-0.186v0.295c-0.093,0.063-0.186,0.107-0.277,0.134c-0.091,0.026-0.199,0.04-0.322,0.04     c-0.168,0-0.305-0.035-0.41-0.105c-0.104-0.069-0.188-0.164-0.25-0.281c-0.063-0.119-0.094-0.256-0.094-0.41     c0-0.233,0.066-0.423,0.198-0.568c0.132-0.146,0.304-0.219,0.515-0.219c0.203,0,0.365,0.07,0.486,0.213     c0.121,0.142,0.182,0.332,0.182,0.57V70.258z M74.036,70.076h0.771c-0.008-0.121-0.044-0.215-0.108-0.28s-0.151-0.099-0.26-0.099     s-0.198,0.033-0.267,0.099S74.057,69.955,74.036,70.076z"/>
			<path class="st10" d="M77.32,69.465h0.329l-0.676,1.559H76.87l-0.693-1.559h0.332l0.414,0.941L77.32,69.465z"/>
			<path class="st10" d="M79.113,70.258h-1.078c0.008,0.146,0.057,0.262,0.147,0.349s0.208,0.13,0.351,0.13     c0.199,0,0.385-0.063,0.553-0.186v0.295c-0.094,0.063-0.186,0.107-0.277,0.134s-0.199,0.04-0.322,0.04     c-0.168,0-0.305-0.035-0.41-0.105c-0.104-0.069-0.187-0.164-0.25-0.281c-0.063-0.119-0.094-0.256-0.094-0.41     c0-0.233,0.066-0.423,0.198-0.568c0.132-0.146,0.304-0.219,0.515-0.219c0.203,0,0.365,0.07,0.486,0.213     c0.121,0.142,0.182,0.332,0.182,0.57V70.258z M78.042,70.076h0.771c-0.008-0.121-0.043-0.215-0.107-0.28s-0.151-0.099-0.26-0.099     c-0.109,0-0.198,0.033-0.268,0.099S78.063,69.955,78.042,70.076z"/>
			<path class="st10" d="M79.766,69.465v0.352l0.017-0.027c0.146-0.236,0.293-0.354,0.44-0.354c0.113,0,0.232,0.057,0.357,0.172     l-0.16,0.268c-0.105-0.101-0.203-0.15-0.293-0.15c-0.098,0-0.182,0.047-0.254,0.14s-0.107,0.204-0.107,0.331v0.801h-0.305v-1.531     H79.766z"/>
			<path class="st10" d="M80.778,68.671h0.303v0.903c0.132-0.095,0.271-0.143,0.42-0.143c0.194,0,0.353,0.073,0.476,0.22     c0.124,0.146,0.186,0.335,0.186,0.563c0,0.247-0.074,0.443-0.221,0.589s-0.344,0.22-0.59,0.22c-0.1,0-0.203-0.012-0.313-0.032     s-0.196-0.048-0.261-0.08V68.671z M81.081,69.864v0.829c0.104,0.031,0.21,0.047,0.318,0.047c0.134,0,0.243-0.049,0.329-0.144     c0.084-0.095,0.127-0.218,0.127-0.368c0-0.152-0.039-0.275-0.119-0.371c-0.079-0.096-0.183-0.143-0.311-0.143     C81.313,69.715,81.197,69.765,81.081,69.864z"/>
			<path class="st10" d="M83.803,70.258h-1.078c0.008,0.146,0.057,0.262,0.147,0.349s0.208,0.13,0.351,0.13     c0.199,0,0.385-0.063,0.553-0.186v0.295c-0.094,0.063-0.186,0.107-0.277,0.134s-0.199,0.04-0.322,0.04     c-0.168,0-0.305-0.035-0.41-0.105c-0.104-0.069-0.188-0.164-0.25-0.281c-0.063-0.119-0.094-0.256-0.094-0.41     c0-0.233,0.066-0.423,0.197-0.568c0.133-0.146,0.305-0.219,0.516-0.219c0.203,0,0.365,0.07,0.486,0.213     c0.121,0.142,0.182,0.332,0.182,0.57V70.258z M82.731,70.076h0.771c-0.008-0.121-0.043-0.215-0.107-0.28s-0.151-0.099-0.26-0.099     c-0.109,0-0.198,0.033-0.268,0.099S82.752,69.955,82.731,70.076z"/>
			<path class="st10" d="M84.055,70.887v-0.326c0.086,0.06,0.174,0.107,0.264,0.145c0.089,0.037,0.164,0.057,0.225,0.057     c0.063,0,0.118-0.016,0.164-0.047c0.045-0.031,0.068-0.068,0.068-0.111c0-0.045-0.016-0.082-0.045-0.111s-0.093-0.071-0.19-0.127     c-0.195-0.108-0.323-0.201-0.384-0.279c-0.061-0.076-0.091-0.16-0.091-0.252c0-0.117,0.046-0.213,0.138-0.287     s0.209-0.111,0.354-0.111c0.15,0,0.304,0.041,0.461,0.126v0.3c-0.18-0.109-0.326-0.164-0.441-0.164     c-0.059,0-0.105,0.014-0.143,0.038c-0.035,0.024-0.053,0.058-0.053,0.099c0,0.036,0.016,0.07,0.049,0.102     c0.032,0.033,0.09,0.072,0.172,0.117l0.108,0.062c0.255,0.144,0.383,0.304,0.383,0.479c0,0.125-0.049,0.229-0.147,0.309     c-0.098,0.08-0.225,0.121-0.379,0.121c-0.091,0-0.172-0.01-0.242-0.029C84.252,70.975,84.163,70.938,84.055,70.887z"/>
		</g>
		<g class="st4">
			<path class="st8" d="M57.404,64.199h-0.693v-2.135c0-0.232-0.009-0.42-0.026-0.563s-0.047-0.256-0.088-0.337     s-0.097-0.135-0.167-0.162c-0.07-0.028-0.157-0.042-0.262-0.042c-0.092,0-0.185,0.019-0.277,0.056     c-0.092,0.038-0.18,0.092-0.264,0.16c-0.083,0.068-0.161,0.149-0.232,0.243c-0.071,0.093-0.132,0.196-0.182,0.309v2.472h-0.693     v-2.303c0-0.369-0.021-0.682-0.064-0.938c-0.042-0.256-0.083-0.448-0.124-0.578h0.674c0.028,0.079,0.051,0.174,0.071,0.282     c0.02,0.109,0.036,0.208,0.049,0.298c0.115-0.132,0.225-0.241,0.33-0.325c0.105-0.086,0.209-0.152,0.313-0.201     s0.207-0.082,0.309-0.101s0.208-0.028,0.315-0.028c0.122,0,0.233,0.018,0.333,0.053c0.1,0.035,0.188,0.081,0.264,0.139     c0.076,0.057,0.142,0.124,0.197,0.2c0.055,0.076,0.097,0.155,0.127,0.237c0.118-0.127,0.231-0.231,0.341-0.313     s0.217-0.145,0.322-0.191c0.105-0.045,0.208-0.078,0.309-0.097s0.2-0.028,0.298-0.028c0.19,0,0.35,0.031,0.479,0.092     s0.234,0.152,0.313,0.271s0.135,0.269,0.168,0.445c0.034,0.178,0.051,0.383,0.051,0.614v2.472h-0.693v-2.06     c0-0.242-0.009-0.439-0.026-0.592c-0.017-0.152-0.047-0.272-0.088-0.359s-0.097-0.147-0.167-0.18     c-0.07-0.032-0.158-0.049-0.263-0.049c-0.092,0-0.184,0.019-0.273,0.054c-0.09,0.037-0.177,0.088-0.26,0.154     c-0.084,0.066-0.161,0.146-0.232,0.242c-0.071,0.094-0.134,0.2-0.189,0.317V64.199z"/>
			<path class="st8" d="M63.924,62.215c0,0.472,0.026,0.867,0.079,1.188c0.052,0.321,0.12,0.587,0.202,0.796h-0.656     c-0.012-0.032-0.03-0.077-0.052-0.135s-0.046-0.123-0.069-0.197c-0.024-0.072-0.046-0.152-0.067-0.237     c-0.021-0.085-0.04-0.169-0.054-0.255c-0.098,0.125-0.201,0.242-0.31,0.353c-0.108,0.11-0.223,0.207-0.343,0.292     c-0.12,0.085-0.245,0.151-0.375,0.2s-0.262,0.073-0.397,0.073c-0.158,0-0.314-0.033-0.471-0.102     c-0.156-0.066-0.296-0.168-0.421-0.303s-0.226-0.305-0.303-0.508c-0.078-0.203-0.116-0.442-0.116-0.717     c0-0.287,0.032-0.547,0.095-0.781c0.064-0.232,0.151-0.441,0.261-0.623c0.097-0.16,0.201-0.3,0.311-0.42     c0.11-0.119,0.23-0.219,0.361-0.297c0.131-0.079,0.275-0.139,0.433-0.178c0.158-0.041,0.333-0.061,0.525-0.061     c0.095,0,0.2,0.007,0.316,0.021s0.235,0.033,0.356,0.058c0.121,0.025,0.242,0.056,0.362,0.09c0.12,0.035,0.231,0.073,0.333,0.113     V62.215z M62.406,60.941c-0.08,0-0.161,0.01-0.242,0.027c-0.081,0.02-0.161,0.051-0.24,0.096s-0.155,0.104-0.229,0.178     c-0.074,0.074-0.143,0.168-0.208,0.279c-0.067,0.115-0.122,0.258-0.163,0.43c-0.041,0.17-0.062,0.346-0.062,0.525     c0,0.207,0.02,0.385,0.058,0.533c0.039,0.148,0.09,0.271,0.154,0.367c0.063,0.097,0.136,0.167,0.217,0.212     s0.163,0.067,0.246,0.067c0.105,0,0.219-0.032,0.343-0.098c0.124-0.064,0.244-0.15,0.361-0.258     c0.118-0.107,0.228-0.23,0.332-0.371c0.104-0.14,0.189-0.285,0.257-0.434v-1.404c-0.038-0.018-0.085-0.035-0.144-0.053     c-0.059-0.018-0.124-0.034-0.195-0.049c-0.071-0.016-0.149-0.027-0.232-0.035C62.575,60.945,62.491,60.941,62.406,60.941z"/>
			<path class="st8" d="M65.066,64.199v-2.303c0-0.369-0.021-0.682-0.062-0.938c-0.042-0.256-0.083-0.448-0.125-0.578h0.674     c0.03,0.069,0.057,0.157,0.081,0.264s0.043,0.224,0.06,0.354c0.016,0.129,0.028,0.268,0.036,0.415     c0.007,0.147,0.011,0.296,0.011,0.446v0.242c0.127-0.352,0.252-0.643,0.375-0.873c0.123-0.231,0.244-0.416,0.365-0.553     c0.121-0.138,0.243-0.234,0.365-0.289c0.123-0.055,0.248-0.082,0.375-0.082c0.095,0,0.182,0.009,0.262,0.026     s0.161,0.046,0.244,0.086l-0.112,0.692c-0.073-0.029-0.136-0.049-0.191-0.06c-0.055-0.01-0.123-0.015-0.202-0.015     c-0.103,0-0.21,0.043-0.322,0.129s-0.223,0.2-0.332,0.343c-0.109,0.142-0.212,0.304-0.309,0.483     c-0.098,0.18-0.183,0.363-0.257,0.552s-0.132,0.372-0.176,0.553c-0.043,0.18-0.065,0.339-0.065,0.479     c0,0.063,0,0.119,0.002,0.172c0.001,0.053,0.005,0.104,0.011,0.152c0.006,0.048,0.014,0.097,0.024,0.146     c0.01,0.048,0.022,0.101,0.038,0.155H65.066z"/>
			<path class="st8" d="M70.125,60.305c0.25,0,0.465,0.029,0.646,0.088s0.34,0.136,0.478,0.23l-0.131,0.674     c-0.17-0.125-0.338-0.219-0.506-0.281c-0.167-0.062-0.349-0.093-0.543-0.093c-0.167,0-0.323,0.032-0.466,0.095     c-0.144,0.064-0.269,0.156-0.375,0.275c-0.106,0.12-0.189,0.268-0.249,0.442s-0.09,0.372-0.09,0.591     c0,0.203,0.027,0.387,0.083,0.551c0.055,0.165,0.133,0.307,0.236,0.426c0.103,0.118,0.226,0.21,0.371,0.275     c0.145,0.064,0.309,0.097,0.491,0.097c0.228,0,0.434-0.038,0.618-0.116c0.185-0.077,0.36-0.188,0.525-0.333l0.075,0.655     c-0.095,0.072-0.189,0.135-0.283,0.186s-0.192,0.094-0.294,0.127c-0.102,0.034-0.212,0.059-0.33,0.075     c-0.117,0.017-0.246,0.024-0.386,0.024c-0.252,0-0.488-0.045-0.708-0.133c-0.22-0.089-0.412-0.217-0.577-0.385     c-0.165-0.166-0.295-0.369-0.39-0.605c-0.095-0.238-0.143-0.506-0.143-0.806c0-0.282,0.045-0.548,0.137-0.798     s0.221-0.468,0.39-0.654c0.168-0.188,0.374-0.336,0.615-0.444C69.559,60.359,69.828,60.305,70.125,60.305z"/>
			<path class="st8" d="M74.303,60.305c0.4,0,0.706,0.131,0.918,0.392c0.212,0.261,0.319,0.648,0.319,1.163v2.34h-0.693v-2.06     c0-0.235-0.016-0.429-0.047-0.581s-0.078-0.271-0.141-0.361c-0.063-0.088-0.14-0.15-0.234-0.185     c-0.094-0.035-0.203-0.053-0.328-0.053c-0.135,0-0.267,0.032-0.395,0.096c-0.129,0.063-0.247,0.146-0.354,0.247     c-0.107,0.102-0.203,0.215-0.285,0.343c-0.082,0.127-0.144,0.255-0.184,0.382v2.172h-0.693v-4.231     c0-0.404-0.002-0.759-0.008-1.062c-0.005-0.303-0.021-0.536-0.048-0.699h0.749v2.885c0.185-0.263,0.402-0.459,0.652-0.59     C73.781,60.37,74.038,60.305,74.303,60.305z"/>
		</g>
		<g class="st4">
			<path class="st9" d="M78.438,59.872c0.228,0,0.429,0.026,0.604,0.081s0.326,0.129,0.454,0.225     c0.127,0.096,0.234,0.207,0.32,0.335s0.154,0.265,0.206,0.412s0.088,0.3,0.11,0.46c0.021,0.159,0.033,0.316,0.033,0.473v0.162     c0,0.068-0.002,0.123-0.004,0.162H77.21c0.008,0.244,0.046,0.456,0.115,0.637c0.068,0.18,0.161,0.329,0.279,0.447     c0.118,0.117,0.257,0.205,0.416,0.264c0.16,0.059,0.334,0.088,0.523,0.088c0.269,0,0.532-0.031,0.791-0.092     c0.258-0.061,0.514-0.17,0.77-0.324l0.084,0.686c-0.148,0.075-0.292,0.139-0.434,0.191s-0.283,0.096-0.425,0.129     s-0.285,0.059-0.431,0.073c-0.146,0.015-0.299,0.022-0.46,0.022c-0.267,0-0.521-0.046-0.762-0.139     c-0.241-0.094-0.454-0.23-0.637-0.412s-0.329-0.407-0.437-0.676c-0.108-0.27-0.163-0.582-0.163-0.937     c0-0.344,0.046-0.655,0.14-0.935c0.093-0.278,0.225-0.517,0.397-0.715c0.172-0.199,0.381-0.352,0.628-0.458     S78.131,59.872,78.438,59.872z M78.376,60.496c-0.306,0-0.555,0.09-0.75,0.269s-0.322,0.457-0.383,0.834h2.172     c0-0.177-0.025-0.335-0.076-0.472c-0.052-0.138-0.123-0.254-0.217-0.348c-0.093-0.094-0.203-0.165-0.331-0.213     C78.664,60.52,78.525,60.496,78.376,60.496z"/>
			<path class="st9" d="M81.248,64.199v-2.559c0-0.41-0.022-0.758-0.068-1.043c-0.046-0.283-0.092-0.498-0.14-0.643h0.749     c0.033,0.078,0.063,0.176,0.09,0.293c0.026,0.119,0.049,0.25,0.066,0.394c0.019,0.145,0.031,0.298,0.04,0.462     s0.013,0.328,0.013,0.495v0.271c0.141-0.391,0.279-0.715,0.416-0.972c0.136-0.257,0.271-0.461,0.406-0.613     c0.135-0.153,0.27-0.26,0.406-0.321c0.135-0.061,0.273-0.091,0.416-0.091c0.105,0,0.202,0.01,0.291,0.029     c0.089,0.019,0.18,0.052,0.271,0.096l-0.125,0.77c-0.08-0.033-0.151-0.056-0.212-0.066s-0.137-0.017-0.225-0.017     c-0.114,0-0.233,0.048-0.358,0.144s-0.247,0.222-0.368,0.38s-0.235,0.338-0.344,0.537c-0.108,0.2-0.203,0.404-0.285,0.613     c-0.082,0.21-0.146,0.414-0.195,0.614s-0.073,0.378-0.073,0.532c0,0.07,0.001,0.134,0.002,0.191     c0.001,0.059,0.006,0.115,0.013,0.169s0.016,0.108,0.027,0.162c0.011,0.054,0.024,0.112,0.041,0.173H81.248z"/>
		</g>
	</g>
	<g class="st4">
		<path class="st10" d="M3.209,69.363h1.436v0.164H4.039c-0.132,0-0.222,0.041-0.27,0.126c-0.027,0.046-0.04,0.107-0.04,0.183v4.584    c0,0.102,0.014,0.176,0.043,0.227c0.05,0.086,0.146,0.129,0.29,0.129h0.583v0.174H3.209V69.363z"/>
		<path class="st10" d="M8.293,73.328c-0.214,0.215-0.427,0.375-0.638,0.484c-0.18,0.094-0.365,0.139-0.556,0.137    c-0.189-0.002-0.374-0.041-0.556-0.117c-0.376-0.152-0.64-0.449-0.791-0.889c-0.083-0.239-0.124-0.508-0.12-0.807    c0.003-0.25,0.071-0.492,0.203-0.728c0.126-0.224,0.292-0.403,0.498-0.538c0.219-0.143,0.451-0.215,0.698-0.215    c0.049,0,0.105,0.005,0.17,0.014c0.491,0.068,0.829,0.311,1.016,0.729c0.073,0.164,0.11,0.298,0.11,0.402    c0,0.054-0.004,0.087-0.013,0.102c-0.017,0.028-0.053,0.042-0.11,0.042c-0.018,0-0.045-0.002-0.082-0.004    s-0.064-0.003-0.082-0.003H6.13c-0.009,0.007-0.013,0.029-0.013,0.068c0,0.187,0.033,0.388,0.1,0.604    c0.075,0.241,0.168,0.42,0.282,0.533c0.281,0.282,0.577,0.424,0.887,0.424c0.223,0,0.468-0.082,0.735-0.244    c0.107-0.064,0.169-0.098,0.186-0.098c0.022,0.012,0.034,0.024,0.034,0.04C8.34,73.287,8.325,73.307,8.293,73.328z M6.928,70.787    c-0.342,0-0.577,0.201-0.705,0.605c-0.049,0.153-0.073,0.273-0.073,0.361h1.562c0.064,0,0.097-0.043,0.097-0.13    c0-0.255-0.142-0.485-0.426-0.69C7.247,70.836,7.096,70.787,6.928,70.787z"/>
		<path class="st10" d="M10.758,74.949H9.319v-0.166h0.61c0.204,0,0.306-0.103,0.306-0.307V69.89c0-0.235-0.11-0.353-0.33-0.353    H9.319v-0.174h1.439V74.949z"/>
	</g>
	<g>
		<g class="st4">
			<path class="st5" d="M101.314,28.473c0.297,0,0.559,0.035,0.785,0.105c0.228,0.07,0.424,0.168,0.59,0.292     c0.166,0.124,0.305,0.27,0.417,0.435c0.112,0.166,0.201,0.345,0.269,0.536c0.066,0.191,0.113,0.39,0.143,0.598     s0.043,0.412,0.043,0.614v0.211c0,0.09-0.001,0.161-0.005,0.211h-3.837c0.011,0.317,0.061,0.593,0.148,0.828     s0.209,0.428,0.363,0.582c0.152,0.153,0.333,0.268,0.541,0.344c0.207,0.076,0.434,0.113,0.68,0.113     c0.35,0,0.691-0.04,1.027-0.119c0.336-0.079,0.67-0.22,1.002-0.422l0.107,0.893c-0.191,0.098-0.379,0.181-0.563,0.249     s-0.368,0.125-0.553,0.167c-0.184,0.043-0.37,0.075-0.56,0.095s-0.389,0.03-0.599,0.03c-0.346,0-0.676-0.061-0.99-0.181     c-0.313-0.121-0.59-0.299-0.828-0.536c-0.238-0.236-0.428-0.529-0.568-0.879s-0.211-0.755-0.211-1.217     c0-0.447,0.061-0.852,0.182-1.214c0.121-0.363,0.293-0.673,0.518-0.931c0.223-0.258,0.496-0.456,0.816-0.595     C100.554,28.542,100.914,28.473,101.314,28.473z M101.234,29.284c-0.397,0-0.723,0.116-0.975,0.349     c-0.252,0.233-0.418,0.594-0.498,1.085h2.825c0-0.231-0.033-0.436-0.101-0.614c-0.066-0.178-0.16-0.329-0.281-0.452     s-0.264-0.214-0.43-0.276C101.609,29.315,101.429,29.284,101.234,29.284z"/>
		</g>
		<g class="st4">
			<path class="st5" d="M97.754,36.441c0.227,0,0.428,0.027,0.604,0.081c0.174,0.054,0.326,0.129,0.453,0.225     c0.128,0.096,0.234,0.208,0.32,0.335c0.086,0.128,0.155,0.265,0.207,0.412c0.051,0.147,0.088,0.3,0.109,0.459     c0.022,0.16,0.033,0.317,0.033,0.473v0.162c0,0.069-0.001,0.124-0.004,0.162h-2.951c0.008,0.244,0.046,0.457,0.114,0.637     c0.067,0.18,0.161,0.33,0.278,0.447c0.119,0.118,0.258,0.206,0.417,0.264s0.333,0.087,0.522,0.087c0.27,0,0.533-0.03,0.791-0.091     s0.515-0.169,0.77-0.325l0.084,0.687c-0.147,0.075-0.291,0.139-0.434,0.191c-0.141,0.053-0.283,0.096-0.424,0.129     c-0.143,0.033-0.285,0.058-0.432,0.073c-0.146,0.015-0.299,0.023-0.459,0.023c-0.268,0-0.521-0.046-0.763-0.139     c-0.241-0.093-0.454-0.23-0.637-0.412s-0.329-0.407-0.437-0.676c-0.109-0.269-0.163-0.581-0.163-0.936     c0-0.344,0.046-0.655,0.14-0.934c0.093-0.279,0.225-0.517,0.397-0.716c0.172-0.198,0.382-0.351,0.628-0.458     C97.168,36.494,97.445,36.441,97.754,36.441z M97.691,37.065c-0.307,0-0.556,0.089-0.75,0.269     c-0.194,0.179-0.322,0.457-0.383,0.834h2.173c0-0.177-0.025-0.335-0.077-0.472c-0.051-0.137-0.123-0.253-0.217-0.347     c-0.092-0.094-0.203-0.165-0.33-0.212C97.979,37.088,97.841,37.065,97.691,37.065z"/>
		</g>
		<g class="st4">
			<path class="st8" d="M102.859,40.685c0,0.292-0.043,0.543-0.129,0.752c-0.085,0.208-0.197,0.379-0.336,0.511     s-0.297,0.229-0.475,0.291s-0.358,0.093-0.543,0.093c-0.213,0-0.424-0.036-0.635-0.109c-0.209-0.073-0.402-0.17-0.58-0.289     l0.216-0.517c0.157,0.113,0.316,0.206,0.477,0.276c0.159,0.071,0.323,0.106,0.489,0.106c0.087,0,0.182-0.016,0.287-0.046     c0.104-0.031,0.201-0.086,0.293-0.162c0.091-0.076,0.166-0.18,0.228-0.308c0.062-0.129,0.092-0.29,0.092-0.483v-0.616     c-0.087,0.109-0.179,0.201-0.274,0.278c-0.098,0.077-0.195,0.139-0.293,0.187c-0.1,0.048-0.198,0.082-0.297,0.103     s-0.193,0.032-0.285,0.032c-0.152,0-0.301-0.026-0.443-0.08c-0.142-0.053-0.268-0.138-0.377-0.254     c-0.11-0.117-0.197-0.268-0.264-0.455c-0.065-0.186-0.098-0.412-0.098-0.675c0-0.255,0.033-0.504,0.1-0.746     c0.066-0.242,0.17-0.457,0.31-0.644s0.319-0.338,0.538-0.453c0.219-0.114,0.48-0.171,0.784-0.171     c0.101,0,0.202,0.007,0.308,0.022c0.105,0.014,0.211,0.034,0.315,0.058s0.206,0.052,0.306,0.082     c0.101,0.03,0.195,0.06,0.287,0.088V40.685z M101.544,37.872c-0.183,0-0.338,0.037-0.466,0.112     c-0.129,0.074-0.234,0.172-0.315,0.292c-0.081,0.121-0.141,0.258-0.179,0.411c-0.037,0.153-0.057,0.309-0.057,0.466     c0,0.206,0.017,0.377,0.049,0.514c0.032,0.136,0.076,0.245,0.133,0.326s0.123,0.139,0.2,0.173     c0.077,0.034,0.161,0.051,0.251,0.051c0.085,0,0.175-0.017,0.271-0.051c0.095-0.035,0.191-0.084,0.288-0.148     c0.096-0.064,0.189-0.144,0.279-0.24c0.09-0.095,0.172-0.204,0.245-0.326v-1.448c-0.054-0.02-0.11-0.039-0.17-0.055     s-0.121-0.03-0.183-0.042c-0.063-0.011-0.123-0.02-0.182-0.026C101.65,37.875,101.595,37.872,101.544,37.872z"/>
			<path class="st8" d="M103.625,39.087c0-0.286,0.044-0.54,0.131-0.76c0.086-0.221,0.203-0.407,0.35-0.56     c0.146-0.152,0.316-0.267,0.513-0.344c0.195-0.078,0.403-0.117,0.622-0.117c0.229,0,0.438,0.039,0.629,0.117     c0.189,0.078,0.353,0.192,0.489,0.344c0.136,0.152,0.242,0.339,0.317,0.56c0.076,0.221,0.113,0.474,0.113,0.76     c0,0.287-0.043,0.54-0.129,0.759c-0.087,0.22-0.203,0.404-0.35,0.552c-0.146,0.149-0.318,0.261-0.514,0.338     s-0.402,0.115-0.623,0.115c-0.229,0-0.438-0.038-0.627-0.115c-0.19-0.077-0.354-0.189-0.49-0.338     c-0.137-0.148-0.242-0.333-0.318-0.552C103.663,39.626,103.625,39.374,103.625,39.087z M104.242,39.087     c0,0.193,0.023,0.366,0.069,0.52c0.047,0.153,0.112,0.282,0.198,0.388s0.188,0.186,0.305,0.241     c0.117,0.056,0.248,0.083,0.393,0.083c0.134,0,0.26-0.028,0.377-0.083c0.117-0.055,0.221-0.136,0.309-0.241     c0.087-0.105,0.156-0.235,0.206-0.388c0.05-0.153,0.075-0.326,0.075-0.52c0-0.195-0.023-0.37-0.07-0.524     s-0.113-0.285-0.198-0.393c-0.085-0.107-0.188-0.189-0.307-0.246c-0.118-0.057-0.249-0.085-0.392-0.085     c-0.135,0-0.262,0.028-0.379,0.085c-0.118,0.057-0.221,0.139-0.307,0.246c-0.086,0.108-0.154,0.239-0.205,0.393     C104.267,38.717,104.242,38.892,104.242,39.087z"/>
		</g>
		<g class="st4">
			<path class="st10" d="M108.053,43.299h0.417v2.906h-0.417V43.299z"/>
			<path class="st10" d="M111.261,43.266c0.179,0,0.332,0.063,0.458,0.191c0.127,0.127,0.189,0.281,0.189,0.459     s-0.063,0.33-0.19,0.459c-0.127,0.127-0.279,0.191-0.457,0.191s-0.329-0.064-0.457-0.191c-0.127-0.129-0.19-0.281-0.19-0.459     s0.063-0.332,0.189-0.459C110.93,43.329,111.082,43.266,111.261,43.266z M112.733,43.258h0.321l-1.912,2.98h-0.32L112.733,43.258     z M111.256,43.582c-0.093,0-0.172,0.033-0.238,0.098c-0.065,0.066-0.098,0.146-0.098,0.238c0,0.091,0.033,0.169,0.1,0.234     c0.066,0.064,0.145,0.098,0.236,0.098s0.172-0.033,0.237-0.098c0.065-0.065,0.099-0.144,0.099-0.234     c0-0.094-0.033-0.174-0.098-0.238C111.43,43.614,111.35,43.582,111.256,43.582z M112.634,44.94c0.177,0,0.329,0.063,0.457,0.19     s0.191,0.279,0.191,0.457c0,0.177-0.063,0.328-0.19,0.451c-0.127,0.125-0.279,0.188-0.458,0.188c-0.181,0-0.333-0.063-0.46-0.188     c-0.127-0.123-0.19-0.274-0.19-0.451c0-0.18,0.063-0.332,0.19-0.459C112.302,45.004,112.455,44.94,112.634,44.94z      M112.629,45.256c-0.091,0-0.168,0.033-0.232,0.098c-0.064,0.065-0.097,0.144-0.097,0.234c0,0.093,0.032,0.172,0.097,0.238     c0.064,0.065,0.142,0.098,0.232,0.098c0.095,0,0.174-0.032,0.239-0.098c0.065-0.064,0.098-0.145,0.098-0.238     c0-0.092-0.032-0.171-0.098-0.234C112.803,45.289,112.724,45.256,112.629,45.256z"/>
		</g>
	</g>
	<g class="st4">
		<path class="st8" d="M122.902,44.09v-2.047c0-0.328-0.018-0.606-0.055-0.834c-0.036-0.228-0.074-0.399-0.111-0.514h0.6    c0.027,0.062,0.051,0.14,0.072,0.234c0.021,0.094,0.038,0.2,0.053,0.315c0.014,0.115,0.025,0.238,0.031,0.369    c0.007,0.131,0.01,0.264,0.01,0.396v0.216c0.113-0.313,0.225-0.571,0.334-0.776c0.108-0.206,0.217-0.369,0.324-0.492    c0.107-0.122,0.216-0.208,0.324-0.256c0.109-0.049,0.221-0.073,0.334-0.073c0.084,0,0.162,0.008,0.232,0.023    c0.071,0.016,0.144,0.041,0.217,0.077l-0.1,0.616c-0.064-0.027-0.121-0.045-0.17-0.053c-0.049-0.01-0.109-0.014-0.18-0.014    c-0.092,0-0.188,0.038-0.287,0.115c-0.1,0.076-0.197,0.178-0.295,0.305c-0.096,0.126-0.188,0.27-0.274,0.429    s-0.163,0.323-0.228,0.491c-0.066,0.168-0.118,0.331-0.156,0.49c-0.039,0.16-0.059,0.303-0.059,0.427c0,0.056,0,0.106,0.002,0.153    c0,0.047,0.004,0.092,0.01,0.135c0.005,0.043,0.012,0.086,0.021,0.129c0.009,0.044,0.02,0.09,0.033,0.139H122.902z"/>
	</g>
	<g class="st11">
		<path class="st5" d="M127.304,40.628c0.183,0,0.343,0.022,0.483,0.065c0.14,0.043,0.26,0.104,0.363,0.18    c0.102,0.077,0.188,0.167,0.256,0.268s0.123,0.212,0.165,0.33c0.041,0.117,0.07,0.24,0.088,0.367    c0.019,0.128,0.026,0.254,0.026,0.378v0.13c0,0.056,0,0.099-0.003,0.13h-2.361c0.007,0.195,0.037,0.364,0.091,0.509    c0.055,0.145,0.129,0.264,0.224,0.358s0.206,0.165,0.333,0.211c0.128,0.047,0.268,0.07,0.418,0.07    c0.216,0,0.427-0.024,0.633-0.073c0.207-0.049,0.412-0.136,0.617-0.26l0.066,0.549c-0.118,0.061-0.233,0.111-0.347,0.153    s-0.227,0.077-0.34,0.104s-0.228,0.046-0.345,0.058c-0.117,0.013-0.239,0.019-0.368,0.019c-0.213,0-0.417-0.037-0.609-0.111    c-0.193-0.074-0.363-0.185-0.51-0.329c-0.146-0.146-0.263-0.326-0.35-0.541s-0.13-0.465-0.13-0.749    c0-0.275,0.037-0.524,0.111-0.747c0.074-0.224,0.181-0.414,0.318-0.572c0.138-0.159,0.305-0.281,0.503-0.367    S127.057,40.628,127.304,40.628z M127.254,41.127c-0.244,0-0.444,0.072-0.6,0.215c-0.155,0.144-0.258,0.365-0.307,0.668h1.738    c0-0.143-0.02-0.268-0.061-0.378s-0.1-0.202-0.174-0.278c-0.074-0.075-0.162-0.132-0.265-0.17    C127.484,41.146,127.373,41.127,127.254,41.127z"/>
		<path class="st5" d="M132.333,44.007c0,0.292-0.043,0.544-0.128,0.752c-0.086,0.208-0.198,0.379-0.337,0.511    c-0.139,0.133-0.297,0.229-0.475,0.291c-0.178,0.063-0.358,0.094-0.543,0.094c-0.213,0-0.425-0.037-0.634-0.109    c-0.211-0.074-0.404-0.17-0.582-0.29l0.217-0.517c0.158,0.113,0.316,0.206,0.477,0.277c0.16,0.07,0.322,0.105,0.489,0.105    c0.087,0,0.183-0.016,0.286-0.046c0.105-0.031,0.203-0.085,0.293-0.161c0.092-0.077,0.168-0.18,0.229-0.309    s0.092-0.289,0.092-0.482v-0.615c-0.086,0.108-0.178,0.201-0.275,0.277c-0.096,0.076-0.193,0.139-0.293,0.187    c-0.098,0.048-0.197,0.082-0.296,0.103c-0.099,0.021-0.194,0.032-0.284,0.032c-0.154,0-0.302-0.026-0.443-0.08    c-0.143-0.054-0.269-0.138-0.379-0.255c-0.109-0.116-0.197-0.268-0.263-0.454s-0.099-0.411-0.099-0.675    c0-0.256,0.033-0.504,0.101-0.746c0.066-0.242,0.17-0.457,0.31-0.645c0.141-0.188,0.319-0.338,0.538-0.453    c0.219-0.114,0.479-0.171,0.784-0.171c0.1,0,0.203,0.007,0.309,0.022c0.105,0.014,0.21,0.034,0.314,0.058    c0.104,0.024,0.207,0.052,0.307,0.082s0.195,0.06,0.286,0.088V44.007z M131.018,41.193c-0.182,0-0.338,0.037-0.467,0.112    c-0.129,0.074-0.233,0.172-0.314,0.292c-0.081,0.121-0.141,0.259-0.178,0.412c-0.038,0.152-0.057,0.309-0.057,0.466    c0,0.206,0.016,0.378,0.048,0.515c0.032,0.136,0.077,0.244,0.134,0.326c0.057,0.08,0.123,0.139,0.199,0.173    s0.16,0.052,0.252,0.052c0.084,0,0.174-0.018,0.27-0.052s0.191-0.084,0.288-0.148s0.189-0.144,0.28-0.239    c0.09-0.096,0.171-0.205,0.244-0.326v-1.448c-0.053-0.021-0.109-0.038-0.17-0.056c-0.061-0.016-0.121-0.029-0.184-0.041    c-0.062-0.011-0.122-0.02-0.182-0.026C131.123,41.197,131.068,41.193,131.018,41.193z"/>
	</g>
	<g class="st4">
		<path class="st8" d="M136.09,44.007c0,0.292-0.043,0.544-0.128,0.752s-0.198,0.379-0.337,0.511    c-0.139,0.133-0.297,0.229-0.475,0.291c-0.178,0.063-0.357,0.094-0.543,0.094c-0.213,0-0.424-0.037-0.634-0.109    c-0.21-0.074-0.403-0.17-0.581-0.29l0.217-0.517c0.157,0.113,0.316,0.206,0.477,0.277c0.159,0.07,0.322,0.105,0.488,0.105    c0.088,0,0.183-0.016,0.287-0.046c0.104-0.031,0.202-0.085,0.293-0.161c0.092-0.077,0.167-0.18,0.229-0.309    c0.061-0.129,0.092-0.289,0.092-0.482v-0.615c-0.087,0.108-0.179,0.201-0.275,0.277s-0.194,0.139-0.293,0.187    s-0.197,0.082-0.297,0.103c-0.098,0.021-0.193,0.032-0.284,0.032c-0.153,0-0.302-0.026-0.443-0.08s-0.269-0.138-0.378-0.255    c-0.109-0.116-0.197-0.268-0.264-0.454c-0.064-0.187-0.098-0.411-0.098-0.675c0-0.256,0.033-0.504,0.1-0.746    s0.17-0.457,0.311-0.645c0.14-0.188,0.318-0.338,0.537-0.453c0.219-0.114,0.48-0.171,0.785-0.171c0.1,0,0.202,0.007,0.308,0.022    c0.105,0.014,0.21,0.034,0.315,0.058c0.104,0.024,0.206,0.052,0.306,0.082c0.101,0.03,0.195,0.06,0.286,0.088V44.007z     M134.775,41.193c-0.183,0-0.338,0.037-0.467,0.112c-0.129,0.074-0.234,0.172-0.314,0.292c-0.082,0.121-0.141,0.259-0.179,0.412    c-0.038,0.152-0.057,0.309-0.057,0.466c0,0.206,0.017,0.378,0.048,0.515c0.033,0.136,0.077,0.244,0.134,0.326    c0.057,0.08,0.123,0.139,0.2,0.173c0.076,0.034,0.16,0.052,0.251,0.052c0.085,0,0.175-0.018,0.271-0.052    c0.095-0.034,0.191-0.084,0.287-0.148c0.097-0.064,0.189-0.144,0.28-0.239c0.09-0.096,0.171-0.205,0.245-0.326v-1.448    c-0.054-0.021-0.11-0.038-0.17-0.056c-0.061-0.016-0.121-0.029-0.184-0.041c-0.063-0.011-0.123-0.02-0.182-0.026    S134.826,41.193,134.775,41.193z"/>
	</g>
	<g class="st4">
		<path class="st12" d="M140.658,41.885c0,0.523,0.029,0.965,0.088,1.32c0.059,0.357,0.133,0.652,0.225,0.885h-0.729    c-0.014-0.036-0.033-0.086-0.059-0.15c-0.025-0.063-0.051-0.136-0.076-0.218c-0.027-0.082-0.053-0.17-0.076-0.265    c-0.023-0.094-0.043-0.188-0.061-0.283c-0.107,0.139-0.223,0.27-0.343,0.392s-0.247,0.23-0.381,0.325    c-0.134,0.094-0.272,0.168-0.417,0.223c-0.144,0.054-0.291,0.08-0.441,0.08c-0.174,0-0.348-0.037-0.521-0.111    c-0.174-0.075-0.33-0.188-0.469-0.338c-0.139-0.149-0.251-0.338-0.337-0.563c-0.087-0.226-0.13-0.491-0.13-0.797    c0-0.319,0.036-0.608,0.107-0.867c0.07-0.259,0.166-0.49,0.289-0.693c0.107-0.178,0.223-0.333,0.346-0.466    c0.121-0.133,0.256-0.243,0.401-0.331s0.306-0.153,0.481-0.198c0.174-0.044,0.368-0.066,0.582-0.066    c0.105,0,0.223,0.008,0.352,0.023s0.262,0.037,0.396,0.064c0.134,0.028,0.268,0.061,0.4,0.1c0.134,0.039,0.258,0.081,0.371,0.125    V41.885z M138.973,40.47c-0.09,0-0.179,0.01-0.27,0.031c-0.09,0.021-0.178,0.057-0.266,0.106s-0.172,0.116-0.254,0.198    c-0.082,0.082-0.159,0.185-0.231,0.31c-0.075,0.127-0.136,0.286-0.181,0.477c-0.046,0.189-0.068,0.385-0.068,0.584    c0,0.23,0.021,0.428,0.064,0.594c0.043,0.164,0.1,0.301,0.17,0.407s0.151,0.185,0.242,0.235c0.09,0.049,0.181,0.074,0.271,0.074    c0.117,0,0.244-0.035,0.382-0.107s0.271-0.168,0.401-0.287s0.254-0.257,0.369-0.412c0.115-0.156,0.209-0.316,0.285-0.482v-1.561    c-0.042-0.019-0.096-0.039-0.16-0.058c-0.066-0.02-0.139-0.038-0.217-0.054c-0.08-0.017-0.166-0.03-0.258-0.04    C139.16,40.475,139.066,40.47,138.973,40.47z"/>
	</g>
	<g class="st4">
		<path class="st5" d="M143.692,39.763c0.228,0,0.429,0.027,0.604,0.081s0.326,0.129,0.454,0.225    c0.127,0.096,0.234,0.208,0.32,0.335c0.086,0.128,0.154,0.265,0.206,0.412s0.088,0.3,0.11,0.46    c0.021,0.159,0.033,0.316,0.033,0.473v0.162c0,0.068-0.002,0.123-0.004,0.162h-2.952c0.009,0.244,0.046,0.456,0.114,0.637    c0.068,0.18,0.161,0.329,0.279,0.447c0.118,0.117,0.257,0.205,0.416,0.264c0.16,0.059,0.334,0.088,0.523,0.088    c0.269,0,0.532-0.031,0.791-0.092c0.258-0.061,0.514-0.17,0.77-0.324l0.084,0.686c-0.148,0.075-0.292,0.139-0.434,0.191    s-0.283,0.096-0.425,0.129s-0.285,0.059-0.431,0.073c-0.146,0.015-0.299,0.022-0.46,0.022c-0.267,0-0.521-0.046-0.763-0.139    c-0.24-0.094-0.453-0.23-0.637-0.412c-0.183-0.182-0.328-0.407-0.437-0.676c-0.108-0.27-0.163-0.582-0.163-0.937    c0-0.344,0.047-0.655,0.141-0.935c0.092-0.278,0.225-0.517,0.396-0.715c0.172-0.198,0.382-0.351,0.629-0.458    S143.385,39.763,143.692,39.763z M143.63,40.387c-0.306,0-0.556,0.089-0.749,0.269c-0.195,0.179-0.322,0.457-0.383,0.834h2.172    c0-0.177-0.025-0.335-0.076-0.472c-0.052-0.138-0.123-0.253-0.217-0.348c-0.093-0.094-0.203-0.165-0.331-0.212    S143.779,40.387,143.63,40.387z"/>
	</g>
	<g class="st4">
		<path class="st8" d="M92.137,66.494h0.666v-0.583c0-0.499,0.102-0.874,0.305-1.124c0.203-0.249,0.484-0.374,0.844-0.374    c0.131,0,0.26,0.021,0.387,0.062s0.242,0.099,0.346,0.172l-0.152,0.499c-0.085-0.062-0.178-0.11-0.28-0.146    c-0.103-0.035-0.202-0.054-0.3-0.054c-0.086,0-0.163,0.016-0.229,0.045c-0.067,0.031-0.122,0.078-0.167,0.146    c-0.044,0.066-0.078,0.152-0.102,0.258s-0.035,0.233-0.035,0.384v0.717h0.9v0.482h-0.9v1.185c0,0.162,0.002,0.323,0.006,0.481    c0.003,0.158,0.008,0.309,0.016,0.453c0.008,0.143,0.02,0.275,0.032,0.396c0.013,0.123,0.028,0.227,0.047,0.313h-0.716v-2.829    h-0.666V66.494z"/>
	</g>
	<g class="st4">
		<path class="st13" d="M94.9,67.705c0-0.358,0.054-0.676,0.162-0.951c0.107-0.275,0.254-0.51,0.438-0.699    c0.183-0.189,0.396-0.334,0.641-0.431s0.504-0.146,0.778-0.146c0.286,0,0.548,0.049,0.784,0.146    c0.238,0.097,0.441,0.241,0.613,0.431c0.17,0.189,0.303,0.424,0.396,0.699c0.095,0.275,0.143,0.593,0.143,0.951    c0,0.357-0.055,0.674-0.163,0.948s-0.254,0.505-0.437,0.69c-0.184,0.186-0.397,0.326-0.642,0.422s-0.504,0.145-0.778,0.145    c-0.286,0-0.547-0.049-0.785-0.145c-0.236-0.096-0.441-0.236-0.611-0.422c-0.171-0.186-0.304-0.416-0.398-0.69    C94.947,68.379,94.9,68.063,94.9,67.705z M95.67,67.705c0,0.24,0.029,0.457,0.088,0.648s0.141,0.354,0.248,0.484    c0.105,0.133,0.233,0.232,0.381,0.303c0.146,0.068,0.311,0.104,0.49,0.104c0.167,0,0.324-0.035,0.471-0.104    c0.147-0.07,0.275-0.17,0.385-0.303c0.11-0.131,0.196-0.293,0.259-0.484s0.094-0.408,0.094-0.648c0-0.244-0.029-0.463-0.087-0.656    c-0.059-0.192-0.142-0.355-0.248-0.49c-0.107-0.135-0.234-0.238-0.383-0.309s-0.313-0.105-0.49-0.105    c-0.169,0-0.327,0.035-0.475,0.105c-0.146,0.07-0.274,0.174-0.383,0.309c-0.107,0.135-0.193,0.298-0.256,0.49    C95.701,67.242,95.67,67.461,95.67,67.705z"/>
	</g>
	<g class="st4">
		<path class="st5" d="M101.602,65.479c0.228,0,0.429,0.027,0.604,0.081s0.326,0.129,0.453,0.225    c0.129,0.096,0.235,0.208,0.321,0.335c0.086,0.128,0.155,0.266,0.206,0.412s0.088,0.301,0.11,0.459    c0.022,0.16,0.033,0.317,0.033,0.473v0.162c0,0.07-0.001,0.124-0.004,0.162h-2.952c0.008,0.244,0.047,0.457,0.115,0.637    c0.067,0.181,0.16,0.33,0.278,0.447c0.118,0.119,0.257,0.207,0.417,0.265c0.159,0.058,0.333,0.087,0.521,0.087    c0.27,0,0.533-0.029,0.791-0.091s0.516-0.169,0.771-0.325l0.083,0.688c-0.146,0.074-0.291,0.139-0.433,0.191    s-0.283,0.096-0.425,0.129s-0.285,0.057-0.431,0.072s-0.3,0.023-0.46,0.023c-0.267,0-0.521-0.047-0.762-0.14    c-0.242-0.093-0.454-0.23-0.637-0.412c-0.184-0.182-0.33-0.407-0.438-0.677c-0.108-0.269-0.162-0.58-0.162-0.936    c0-0.344,0.046-0.655,0.139-0.934c0.094-0.279,0.226-0.518,0.398-0.717c0.172-0.197,0.381-0.35,0.628-0.457    S101.293,65.479,101.602,65.479z M101.539,66.103c-0.306,0-0.555,0.089-0.75,0.269c-0.193,0.179-0.321,0.457-0.383,0.834h2.174    c0-0.178-0.025-0.335-0.077-0.473c-0.052-0.137-0.124-0.252-0.217-0.347s-0.203-0.165-0.331-0.212    C101.828,66.126,101.689,66.103,101.539,66.103z"/>
	</g>
	<g class="st4">
		<path class="st8" d="M103.91,66.494h0.666v-1.082h0.616v1.082h1.083v0.482h-1.083v1.531c0,0.17,0.009,0.311,0.024,0.419    c0.018,0.108,0.043,0.194,0.077,0.255s0.078,0.103,0.132,0.125c0.053,0.021,0.117,0.033,0.193,0.033    c0.095,0,0.203-0.021,0.322-0.063c0.12-0.042,0.254-0.104,0.4-0.187v0.533c-0.154,0.1-0.301,0.169-0.439,0.207    c-0.141,0.039-0.27,0.059-0.387,0.059c-0.131,0-0.254-0.015-0.367-0.045c-0.113-0.029-0.212-0.082-0.297-0.158    c-0.086-0.075-0.153-0.176-0.202-0.301s-0.073-0.285-0.073-0.479v-1.93h-0.666V66.494z"/>
		<path class="st8" d="M108.174,69.889c-0.711,0-1.066-0.477-1.066-1.432v-0.981c0-0.106,0-0.203-0.002-0.29    c0-0.086-0.004-0.17-0.008-0.251s-0.012-0.163-0.02-0.248c-0.01-0.084-0.021-0.177-0.037-0.276h0.683v1.848    c0,0.188,0.009,0.352,0.028,0.488c0.02,0.136,0.051,0.248,0.096,0.336c0.043,0.088,0.102,0.152,0.174,0.194    s0.162,0.063,0.269,0.063c0.098,0,0.202-0.029,0.313-0.088c0.11-0.059,0.217-0.135,0.317-0.225    c0.101-0.092,0.193-0.191,0.276-0.302c0.084-0.11,0.147-0.216,0.191-0.317v-0.933c0-0.108,0-0.207-0.002-0.294    c0-0.088-0.004-0.172-0.008-0.252s-0.012-0.16-0.02-0.243c-0.01-0.082-0.021-0.174-0.037-0.276h0.684v1.897    c0,0.324,0.018,0.607,0.055,0.851c0.036,0.243,0.09,0.459,0.161,0.647h-0.566c-0.015-0.038-0.032-0.082-0.05-0.134    c-0.018-0.051-0.035-0.104-0.052-0.162c-0.017-0.059-0.032-0.119-0.046-0.182c-0.016-0.063-0.027-0.126-0.035-0.188    c-0.203,0.246-0.41,0.432-0.625,0.559S108.408,69.889,108.174,69.889z"/>
	</g>
	<g>
		<path class="st8" d="M112.229,66.344c0.12,0,0.232,0.008,0.338,0.023s0.202,0.036,0.29,0.062s0.168,0.055,0.241,0.087    c0.073,0.031,0.139,0.063,0.196,0.095l-0.116,0.583c-0.056-0.034-0.118-0.068-0.19-0.105c-0.07-0.037-0.147-0.07-0.23-0.102    c-0.084-0.031-0.172-0.057-0.268-0.078c-0.094-0.021-0.191-0.031-0.294-0.031c-0.122,0-0.226,0.013-0.308,0.039    c-0.084,0.027-0.15,0.061-0.201,0.102c-0.049,0.041-0.086,0.088-0.107,0.141c-0.022,0.052-0.033,0.102-0.033,0.15    c0,0.059,0.009,0.109,0.026,0.154c0.018,0.044,0.056,0.085,0.112,0.123c0.057,0.037,0.137,0.074,0.24,0.109    c0.105,0.035,0.244,0.073,0.42,0.113c0.151,0.033,0.293,0.076,0.427,0.128s0.249,0.118,0.35,0.198s0.179,0.176,0.236,0.288    s0.087,0.245,0.087,0.401c0,0.15-0.033,0.29-0.1,0.419s-0.158,0.241-0.273,0.338s-0.251,0.172-0.406,0.226    c-0.156,0.055-0.323,0.082-0.504,0.082c-0.135,0-0.266-0.01-0.391-0.029c-0.125-0.021-0.243-0.049-0.354-0.084    c-0.109-0.035-0.21-0.076-0.301-0.123c-0.092-0.047-0.17-0.096-0.236-0.146l0.166-0.6c0.076,0.067,0.16,0.129,0.255,0.184    c0.095,0.056,0.191,0.104,0.292,0.143c0.1,0.041,0.199,0.071,0.301,0.092c0.102,0.021,0.196,0.032,0.285,0.032    c0.098,0,0.188-0.013,0.268-0.038c0.082-0.025,0.151-0.059,0.21-0.1c0.06-0.041,0.104-0.09,0.138-0.144    c0.034-0.055,0.051-0.11,0.051-0.169c0-0.062-0.013-0.119-0.039-0.174c-0.025-0.055-0.072-0.107-0.139-0.156    c-0.068-0.051-0.162-0.099-0.28-0.145c-0.118-0.047-0.271-0.094-0.458-0.141c-0.202-0.049-0.367-0.106-0.494-0.173    c-0.129-0.067-0.229-0.14-0.301-0.22s-0.121-0.166-0.147-0.26s-0.04-0.191-0.04-0.297c0-0.051,0.008-0.11,0.025-0.18    c0.016-0.068,0.044-0.14,0.082-0.214c0.039-0.075,0.091-0.147,0.154-0.22c0.063-0.072,0.143-0.137,0.238-0.193    c0.095-0.057,0.207-0.103,0.336-0.139C111.912,66.361,112.061,66.344,112.229,66.344z"/>
		<path class="st8" d="M110.514,70.305v-0.266h3.215v0.266H110.514z"/>
	</g>
	<g class="st4">
		<path class="st5" d="M121.393,51.912c0.227,0,0.428,0.027,0.604,0.081c0.174,0.054,0.326,0.129,0.453,0.225    c0.128,0.096,0.234,0.208,0.32,0.335c0.086,0.128,0.155,0.266,0.207,0.412c0.051,0.146,0.088,0.301,0.109,0.459    c0.022,0.16,0.033,0.317,0.033,0.473v0.162c0,0.07-0.001,0.124-0.004,0.162h-2.951c0.008,0.244,0.046,0.457,0.114,0.637    c0.067,0.181,0.161,0.33,0.278,0.447c0.119,0.119,0.258,0.207,0.417,0.265s0.333,0.087,0.522,0.087    c0.27,0,0.533-0.029,0.791-0.091s0.515-0.169,0.77-0.325l0.084,0.688c-0.147,0.074-0.291,0.139-0.434,0.191    c-0.141,0.053-0.283,0.096-0.424,0.129c-0.143,0.033-0.285,0.057-0.432,0.072c-0.146,0.016-0.299,0.023-0.459,0.023    c-0.268,0-0.521-0.047-0.763-0.14s-0.454-0.23-0.637-0.412s-0.329-0.407-0.437-0.677c-0.109-0.269-0.163-0.58-0.163-0.936    c0-0.344,0.046-0.655,0.14-0.934c0.093-0.279,0.225-0.518,0.397-0.717c0.172-0.197,0.382-0.35,0.628-0.457    C120.807,51.965,121.084,51.912,121.393,51.912z M121.33,52.536c-0.307,0-0.556,0.089-0.75,0.269    c-0.194,0.179-0.322,0.457-0.383,0.834h2.173c0-0.178-0.025-0.335-0.077-0.473c-0.051-0.137-0.123-0.252-0.217-0.347    c-0.092-0.095-0.203-0.165-0.33-0.212C121.618,52.56,121.479,52.536,121.33,52.536z"/>
	</g>
	<g class="st4">
		<path class="st12" d="M123.726,52.1h0.833v-1.353h0.77V52.1h1.354v0.604h-1.354v1.914c0,0.213,0.011,0.388,0.031,0.523    c0.021,0.137,0.053,0.242,0.096,0.318s0.098,0.129,0.164,0.156c0.067,0.027,0.147,0.041,0.242,0.041    c0.119,0,0.254-0.025,0.404-0.078c0.149-0.053,0.316-0.131,0.499-0.233v0.665c-0.191,0.125-0.374,0.213-0.55,0.261    c-0.175,0.048-0.336,0.073-0.482,0.073c-0.164,0-0.316-0.02-0.458-0.057s-0.267-0.104-0.373-0.197    c-0.106-0.095-0.19-0.221-0.251-0.377c-0.062-0.156-0.092-0.355-0.092-0.598v-2.412h-0.833V52.1z"/>
	</g>
	<g class="st4">
		<path class="st8" d="M94.264,52.777c0.222,0,0.413,0.026,0.574,0.078c0.16,0.053,0.303,0.121,0.424,0.205l-0.115,0.6    c-0.152-0.111-0.302-0.195-0.45-0.25c-0.149-0.056-0.31-0.084-0.483-0.084c-0.148,0-0.287,0.029-0.414,0.086    c-0.128,0.057-0.238,0.138-0.334,0.244c-0.094,0.106-0.168,0.237-0.221,0.393c-0.053,0.156-0.08,0.331-0.08,0.526    c0,0.18,0.024,0.343,0.073,0.489s0.118,0.272,0.21,0.377c0.091,0.105,0.201,0.188,0.33,0.245s0.273,0.087,0.436,0.087    c0.202,0,0.386-0.035,0.55-0.104c0.165-0.068,0.319-0.168,0.466-0.296l0.067,0.583c-0.085,0.063-0.169,0.119-0.251,0.164    c-0.084,0.045-0.172,0.083-0.262,0.113c-0.092,0.029-0.189,0.053-0.293,0.066c-0.105,0.015-0.219,0.021-0.344,0.021    c-0.225,0-0.434-0.039-0.629-0.118s-0.367-0.192-0.514-0.341s-0.262-0.328-0.346-0.539c-0.085-0.211-0.127-0.449-0.127-0.716    c0-0.251,0.041-0.487,0.121-0.709c0.082-0.222,0.197-0.416,0.347-0.583c0.149-0.166,0.332-0.297,0.546-0.395    C93.76,52.826,93.999,52.777,94.264,52.777z"/>
		<path class="st8" d="M97.977,52.777c0.355,0,0.628,0.116,0.816,0.348c0.189,0.232,0.283,0.576,0.283,1.033v2.081H98.46v-1.831    c0-0.208-0.014-0.381-0.042-0.516c-0.027-0.135-0.068-0.242-0.125-0.321c-0.055-0.079-0.125-0.134-0.207-0.165    c-0.084-0.031-0.182-0.047-0.292-0.047c-0.12,0-0.237,0.029-0.352,0.086s-0.22,0.129-0.314,0.219    c-0.096,0.09-0.181,0.191-0.253,0.305c-0.074,0.113-0.128,0.227-0.164,0.34v1.931h-0.615v-3.761c0-0.359-0.003-0.675-0.008-0.944    c-0.004-0.27-0.018-0.477-0.043-0.62h0.666v2.563c0.164-0.232,0.357-0.408,0.58-0.524C97.513,52.836,97.742,52.777,97.977,52.777z    "/>
	</g>
	<g class="st4">
		<path class="st5" d="M101.913,51.912c0.228,0,0.429,0.027,0.604,0.081s0.326,0.129,0.454,0.225    c0.127,0.096,0.234,0.208,0.32,0.335c0.086,0.128,0.154,0.266,0.206,0.412s0.088,0.301,0.11,0.459    c0.021,0.16,0.033,0.317,0.033,0.473v0.162c0,0.07-0.002,0.124-0.004,0.162h-2.952c0.009,0.244,0.046,0.457,0.114,0.637    c0.068,0.181,0.161,0.33,0.279,0.447c0.118,0.119,0.257,0.207,0.416,0.265c0.16,0.058,0.334,0.087,0.523,0.087    c0.269,0,0.532-0.029,0.791-0.091c0.258-0.062,0.514-0.169,0.77-0.325l0.084,0.688c-0.148,0.074-0.292,0.139-0.434,0.191    s-0.283,0.096-0.425,0.129s-0.285,0.057-0.431,0.072c-0.146,0.016-0.299,0.023-0.46,0.023c-0.267,0-0.521-0.047-0.763-0.14    c-0.24-0.093-0.453-0.23-0.637-0.412c-0.183-0.182-0.328-0.407-0.437-0.677c-0.108-0.269-0.163-0.58-0.163-0.936    c0-0.344,0.047-0.655,0.141-0.934c0.092-0.279,0.225-0.518,0.396-0.717c0.172-0.197,0.382-0.35,0.629-0.457    S101.605,51.912,101.913,51.912z M101.851,52.536c-0.306,0-0.556,0.089-0.749,0.269c-0.195,0.179-0.322,0.457-0.383,0.834h2.172    c0-0.178-0.025-0.335-0.076-0.473c-0.052-0.137-0.123-0.252-0.217-0.347c-0.093-0.095-0.203-0.165-0.331-0.212    C102.139,52.56,102,52.536,101.851,52.536z"/>
	</g>
	<g class="st4">
		<path class="st12" d="M107.994,51.995v0.396l-2.478,3.225h1.79c0.123,0,0.246-0.003,0.373-0.008    c0.126-0.006,0.252-0.023,0.377-0.055v0.687h-3.498v-0.458l2.395-3.162h-1.623c-0.125,0-0.245,0.003-0.359,0.009    c-0.113,0.005-0.209,0.023-0.287,0.054v-0.687H107.994z"/>
	</g>
	<g class="st4">
		<path class="st10" d="M35.896,71.33v0.398h-1.449v0.6c0,0.248,0.002,0.467,0.005,0.655c0.003,0.188,0.014,0.333,0.033,0.431    h-0.549c0.018-0.1,0.029-0.244,0.032-0.434c0.003-0.188,0.005-0.406,0.005-0.652v-1.811c0-0.111-0.001-0.214-0.003-0.308    c-0.003-0.095-0.006-0.179-0.011-0.253c-0.005-0.075-0.013-0.138-0.022-0.188h2.173v0.412h-1.661v1.148H35.896z"/>
		<path class="st10" d="M36.645,72.153c0-0.215,0.033-0.405,0.098-0.57s0.152-0.306,0.262-0.419c0.11-0.115,0.238-0.201,0.384-0.259    c0.147-0.059,0.303-0.087,0.467-0.087c0.171,0,0.329,0.028,0.471,0.087c0.143,0.058,0.265,0.144,0.367,0.259    c0.103,0.113,0.182,0.254,0.239,0.419s0.085,0.355,0.085,0.57s-0.033,0.404-0.098,0.569c-0.065,0.164-0.152,0.303-0.262,0.414    s-0.238,0.196-0.385,0.254c-0.146,0.057-0.302,0.086-0.467,0.086c-0.171,0-0.329-0.029-0.471-0.086    c-0.143-0.058-0.265-0.143-0.368-0.254c-0.102-0.111-0.182-0.25-0.238-0.414C36.673,72.558,36.645,72.368,36.645,72.153z     M37.107,72.153c0,0.146,0.018,0.274,0.053,0.39c0.035,0.115,0.084,0.211,0.148,0.291c0.064,0.078,0.141,0.139,0.229,0.181    c0.088,0.042,0.187,0.063,0.295,0.063c0.1,0,0.194-0.021,0.282-0.063s0.166-0.103,0.231-0.181c0.066-0.08,0.118-0.176,0.155-0.291    c0.038-0.115,0.057-0.244,0.057-0.39c0-0.146-0.018-0.277-0.053-0.394c-0.035-0.115-0.084-0.213-0.148-0.294    c-0.064-0.081-0.141-0.143-0.23-0.185c-0.089-0.043-0.187-0.064-0.293-0.064c-0.102,0-0.196,0.021-0.285,0.064    c-0.088,0.042-0.165,0.104-0.23,0.185s-0.116,0.179-0.153,0.294C37.126,71.876,37.107,72.007,37.107,72.153z"/>
		<path class="st10" d="M39.643,73.414v-1.535c0-0.246-0.014-0.455-0.041-0.625c-0.028-0.171-0.056-0.3-0.084-0.387h0.45    c0.02,0.047,0.038,0.105,0.054,0.176c0.016,0.071,0.029,0.15,0.04,0.236c0.011,0.087,0.019,0.18,0.023,0.277    c0.005,0.098,0.008,0.197,0.008,0.297v0.162c0.085-0.234,0.168-0.429,0.25-0.582c0.082-0.154,0.163-0.277,0.244-0.369    c0.081-0.091,0.162-0.155,0.244-0.191c0.082-0.037,0.165-0.055,0.25-0.055c0.063,0,0.121,0.006,0.175,0.018    c0.053,0.011,0.107,0.03,0.162,0.057l-0.075,0.462c-0.048-0.021-0.091-0.033-0.127-0.04c-0.037-0.006-0.082-0.01-0.135-0.01    c-0.068,0-0.14,0.029-0.215,0.086c-0.075,0.058-0.149,0.134-0.221,0.229c-0.073,0.095-0.141,0.202-0.206,0.322    c-0.065,0.119-0.122,0.242-0.171,0.368c-0.049,0.126-0.088,0.248-0.117,0.368c-0.029,0.119-0.044,0.227-0.044,0.319    c0,0.042,0,0.08,0.001,0.114c0.001,0.035,0.003,0.069,0.007,0.102c0.004,0.033,0.01,0.064,0.017,0.098    c0.006,0.032,0.015,0.066,0.025,0.104H39.643z"/>
		<path class="st10" d="M43.015,70.818c0.167,0,0.31,0.02,0.431,0.059c0.121,0.039,0.227,0.09,0.318,0.152l-0.087,0.45    c-0.113-0.083-0.226-0.146-0.337-0.188c-0.111-0.042-0.232-0.063-0.362-0.063c-0.111,0-0.215,0.021-0.311,0.063    c-0.096,0.043-0.179,0.104-0.25,0.184s-0.126,0.178-0.166,0.295c-0.04,0.116-0.06,0.248-0.06,0.395    c0,0.135,0.018,0.257,0.055,0.367c0.037,0.109,0.089,0.204,0.157,0.283c0.068,0.078,0.15,0.141,0.247,0.184    s0.206,0.064,0.327,0.064c0.152,0,0.289-0.025,0.413-0.077c0.123-0.052,0.24-0.126,0.35-0.222l0.05,0.436    c-0.063,0.049-0.126,0.09-0.188,0.124s-0.128,0.063-0.196,0.085s-0.142,0.039-0.22,0.051c-0.078,0.01-0.164,0.016-0.257,0.016    c-0.168,0-0.326-0.029-0.472-0.089s-0.274-0.144-0.385-0.256c-0.11-0.111-0.196-0.246-0.26-0.404    c-0.063-0.158-0.095-0.337-0.095-0.536c0-0.188,0.03-0.365,0.091-0.532c0.061-0.167,0.147-0.312,0.26-0.437    s0.249-0.225,0.41-0.297S42.816,70.818,43.015,70.818z"/>
		<path class="st10" d="M45.463,70.818c0.136,0,0.257,0.016,0.362,0.048s0.196,0.077,0.272,0.136c0.077,0.057,0.141,0.123,0.192,0.2    s0.093,0.159,0.124,0.247s0.053,0.18,0.066,0.275c0.013,0.096,0.02,0.191,0.02,0.284v0.097c0,0.042-0.001,0.074-0.003,0.098    h-1.771c0.005,0.146,0.028,0.273,0.069,0.383c0.041,0.107,0.097,0.197,0.167,0.268s0.154,0.123,0.25,0.158    c0.096,0.035,0.2,0.053,0.313,0.053c0.162,0,0.32-0.018,0.475-0.055c0.155-0.037,0.309-0.102,0.462-0.195l0.05,0.412    c-0.088,0.045-0.175,0.084-0.26,0.115s-0.17,0.057-0.255,0.077s-0.171,0.034-0.258,0.044c-0.087,0.009-0.18,0.014-0.276,0.014    c-0.16,0-0.313-0.027-0.458-0.084c-0.145-0.056-0.272-0.138-0.382-0.247c-0.11-0.108-0.197-0.244-0.262-0.405    c-0.065-0.162-0.098-0.349-0.098-0.563c0-0.205,0.028-0.393,0.083-0.561c0.056-0.166,0.135-0.31,0.239-0.429    c0.103-0.119,0.229-0.21,0.377-0.274C45.111,70.85,45.278,70.818,45.463,70.818z M45.425,71.192c-0.183,0-0.333,0.054-0.45,0.161    s-0.193,0.273-0.23,0.5h1.304c0-0.106-0.016-0.201-0.046-0.283s-0.074-0.152-0.13-0.209c-0.056-0.056-0.122-0.098-0.199-0.127    C45.598,71.207,45.515,71.192,45.425,71.192z"/>
	</g>
	<g class="st4">
		<path class="st10" d="M36.078,74.796h1.549v0.444h-1.094v0.881c0.035-0.003,0.071-0.005,0.107-0.005    c0.338,0,0.616,0.103,0.834,0.309c0.218,0.206,0.327,0.468,0.327,0.785c0,0.327-0.108,0.595-0.324,0.8    c-0.215,0.205-0.495,0.309-0.838,0.309c-0.283,0-0.558-0.068-0.824-0.205V77.6c0.251,0.162,0.497,0.244,0.737,0.244    c0.21,0,0.386-0.061,0.528-0.184c0.143-0.122,0.213-0.272,0.213-0.45c0-0.185-0.077-0.339-0.232-0.464    c-0.155-0.123-0.348-0.186-0.58-0.186c-0.198,0-0.333,0.017-0.405,0.05V74.796z"/>
		<path class="st10" d="M39.153,74.796h0.5v3.487h-0.5V74.796z"/>
		<path class="st10" d="M43.002,74.756c0.215,0,0.398,0.076,0.549,0.229c0.152,0.153,0.228,0.337,0.228,0.552    c0,0.213-0.076,0.396-0.229,0.549c-0.152,0.153-0.335,0.23-0.548,0.23c-0.213,0-0.396-0.077-0.548-0.23    c-0.152-0.152-0.229-0.336-0.229-0.549c0-0.215,0.076-0.398,0.227-0.552C42.604,74.832,42.787,74.756,43.002,74.756z     M44.769,74.746h0.386l-2.294,3.577h-0.386L44.769,74.746z M42.996,75.135c-0.111,0-0.206,0.04-0.285,0.119    c-0.079,0.078-0.118,0.174-0.118,0.285c0,0.109,0.04,0.203,0.12,0.281c0.08,0.077,0.174,0.116,0.284,0.116    c0.111,0,0.207-0.039,0.285-0.116c0.079-0.078,0.118-0.172,0.118-0.281c0-0.113-0.039-0.209-0.117-0.287    C43.204,75.174,43.108,75.135,42.996,75.135z M44.649,76.766c0.213,0,0.396,0.076,0.548,0.229    c0.153,0.152,0.229,0.334,0.229,0.548c0,0.213-0.076,0.394-0.228,0.543s-0.335,0.224-0.55,0.224c-0.216,0-0.4-0.074-0.553-0.224    c-0.152-0.149-0.228-0.33-0.228-0.543c0-0.215,0.077-0.397,0.229-0.55C44.251,76.842,44.435,76.766,44.649,76.766z M44.645,77.145    c-0.11,0-0.203,0.039-0.28,0.117s-0.116,0.172-0.116,0.281c0,0.111,0.039,0.206,0.116,0.285c0.077,0.078,0.17,0.118,0.28,0.118    c0.113,0,0.208-0.039,0.286-0.117c0.078-0.077,0.117-0.173,0.117-0.286c0-0.111-0.039-0.205-0.117-0.282    S44.757,77.145,44.645,77.145z"/>
	</g>
	<circle class="st7" cx="123.5" cy="58.3" r="1.1"/>
	<line class="st14" x1="48.6" y1="45.5" x2="87.7" y2="45.5"/>
	<g>
		<polygon class="st15" points="27.8,1 25.6,7.3 18.9,7.3 24.3,11.3 22.3,17.6 27.8,13.8 33.4,17.6 31.4,11.3 37,7.4 30.1,7.3   "/>
		<line class="st16" x1="20.9" y1="19.1" x2="15.9" y2="24.6"/>
		<line class="st16" x1="23.1" y1="18.8" x2="18.7" y2="23.6"/>
		<line class="st16" x1="20.9" y1="17.1" x2="16.5" y2="21.9"/>
	</g>
</g>
</svg>