<?xml version="1.0" encoding="UTF-8"?>
<!-- Generator: Adobe Illustrator 24.0.2, SVG Export Plug-In . SVG Version: 6.00 Build 0)  -->
<svg version="1.1" id="Calque_1" xmlns="http://www.w3.org/2000/svg" xmlns:xlink="http://www.w3.org/1999/xlink" x="0px" y="0px" viewBox="0 0 103 72" style="enable-background:new 0 0 103 72;" xml:space="preserve">
<style type="text/css">
	.st0{fill:#FFFFFF;stroke:#DADADA;stroke-width:0.7268;stroke-miterlimit:10;}
	.st1{fill:#FFFFFF;stroke:#9D9D9C;stroke-width:0.7268;stroke-miterlimit:10;}
	.st2{fill:#FFFFFF;stroke:#000000;stroke-width:0.9691;stroke-miterlimit:10;}
	.st3{enable-background:new    ;}
	.st4{fill:#7FC7EB;}
	.st5{fill:#706F6F;}
	.st6{fill:none;stroke:#B2B2B2;stroke-width:0.3634;stroke-miterlimit:10;}
	.st7{fill:#878787;}
	.st8{fill:#575756;}
	.st9{fill:#B2B2B2;}
	.st10{fill:#9D9D9C;}
	.st11{opacity:0.6;enable-background:new    ;}
	.st12{fill:#E11683;}
	.st13{fill:#FFFFFF;}
	.st14{fill:none;stroke:#575756;stroke-width:0.5231;stroke-linecap:round;stroke-linejoin:round;stroke-miterlimit:10;}
	.st15{fill:none;stroke:#575756;stroke-width:0.1744;stroke-linecap:round;stroke-linejoin:round;stroke-miterlimit:10;}
</style>
<g id="_x3C_Groupe_x3E__feu">
	<rect x="64.6" y="31.4" class="st0" width="37.7" height="12.2"/>
	<polygon class="st1" points="77,31.1 64.6,31.1 64.6,1.9 98.7,1.9 98.7,31.1 79.6,31.1  "/>
	<path class="st2" d="M41.9,58H9.2V2h55.4v56H48.7c0,0-5.1,9.3-13.6,11.1C35.2,69.2,40.2,65.7,41.9,58z"/>
	<g class="st3">
		<path class="st4" d="M89.102,7.317c0,0.302-0.045,0.572-0.134,0.81s-0.207,0.44-0.354,0.605c-0.146,0.166-0.314,0.292-0.502,0.379    c-0.188,0.087-0.381,0.131-0.58,0.131c-0.201,0-0.395-0.041-0.578-0.124c-0.185-0.082-0.348-0.203-0.488-0.362    c-0.142-0.159-0.254-0.355-0.34-0.587c-0.084-0.232-0.127-0.5-0.127-0.801c0-0.201,0.021-0.388,0.062-0.561    c0.04-0.173,0.097-0.331,0.169-0.473s0.158-0.269,0.258-0.38c0.1-0.11,0.209-0.204,0.326-0.279    c0.117-0.075,0.24-0.133,0.371-0.172c0.131-0.039,0.263-0.059,0.397-0.059c0.198,0,0.388,0.041,0.571,0.124    c0.184,0.082,0.346,0.203,0.486,0.362c0.141,0.159,0.252,0.355,0.336,0.587S89.102,7.016,89.102,7.317z M88.615,7.38    c0-0.231-0.025-0.44-0.076-0.625c-0.051-0.185-0.123-0.342-0.215-0.472c-0.094-0.129-0.205-0.228-0.336-0.297    s-0.274-0.103-0.432-0.103c-0.158,0-0.303,0.033-0.434,0.099c-0.132,0.066-0.245,0.161-0.34,0.285    c-0.094,0.123-0.168,0.272-0.221,0.448c-0.052,0.175-0.078,0.372-0.078,0.59c0,0.23,0.025,0.437,0.076,0.622    s0.123,0.342,0.217,0.472s0.207,0.23,0.338,0.299c0.131,0.07,0.277,0.104,0.441,0.104c0.152,0,0.293-0.032,0.423-0.097    s0.241-0.158,0.335-0.279s0.168-0.271,0.221-0.447S88.615,7.604,88.615,7.38z"/>
	</g>
	<g class="st3">
		<path class="st5" d="M91.36,7.053v0.402h-1.421v1.309h0.658c0.248,0,0.455-0.002,0.623-0.005c0.168-0.003,0.302-0.014,0.401-0.032    v0.453H89.43c0.018-0.101,0.028-0.246,0.031-0.437c0.004-0.19,0.006-0.41,0.006-0.658V6.6c0-0.248-0.002-0.467-0.006-0.658    c-0.003-0.19-0.014-0.336-0.031-0.437h2.117v0.415h-1.607v1.132H91.36z"/>
		<path class="st5" d="M95.049,5.506c-0.018,0.101-0.027,0.243-0.031,0.426c-0.004,0.184-0.006,0.407-0.006,0.668v1.283    c0,0.205-0.027,0.391-0.08,0.558c-0.054,0.167-0.135,0.31-0.243,0.429s-0.247,0.211-0.413,0.275    c-0.166,0.065-0.361,0.097-0.585,0.097c-0.228,0-0.425-0.032-0.592-0.097c-0.167-0.064-0.306-0.156-0.415-0.275    s-0.191-0.262-0.246-0.429c-0.054-0.167-0.08-0.353-0.08-0.558V6.6c0-0.248-0.002-0.467-0.007-0.658    c-0.004-0.19-0.015-0.336-0.03-0.437h0.51V7.77c0,0.165,0.015,0.313,0.043,0.444c0.027,0.132,0.075,0.244,0.143,0.337    c0.066,0.093,0.154,0.165,0.264,0.214c0.109,0.05,0.246,0.074,0.411,0.074c0.161,0,0.296-0.024,0.403-0.074    c0.108-0.049,0.195-0.121,0.261-0.214c0.065-0.093,0.112-0.205,0.141-0.337s0.042-0.28,0.042-0.444V5.506H95.049z"/>
	</g>
	<g class="st3">
		<path class="st4" d="M69.309,5.71c0.166,0.055,0.284,0.141,0.354,0.258c0.05,0.147,0.081,0.254,0.094,0.321    c0.024,0.147,0.037,0.273,0.037,0.377c0,0.101-0.009,0.201-0.024,0.302c0.045,0.046,0.102,0.086,0.168,0.12    c0.059,0.034,0.112,0.05,0.162,0.05c0.063,0,0.107-0.033,0.137-0.101l0.094,0.201c-0.063,0.08-0.135,0.12-0.219,0.12    c-0.062,0-0.131-0.021-0.205-0.063c-0.07-0.021-0.129-0.067-0.174-0.138c-0.088,0.44-0.267,0.755-0.537,0.943    c-0.215,0.147-0.479,0.22-0.791,0.22c-0.365,0-0.656-0.149-0.871-0.447c-0.213-0.268-0.318-0.581-0.318-0.937    c0-0.436,0.116-0.813,0.35-1.132c0.228-0.306,0.537-0.459,0.928-0.459C68.874,5.345,69.146,5.467,69.309,5.71z M68.704,8.081    c0.187,0,0.361-0.083,0.522-0.251c0.171-0.185,0.285-0.434,0.344-0.749c-0.195-0.13-0.346-0.25-0.449-0.358    c-0.149-0.143-0.238-0.285-0.268-0.428c-0.013-0.029-0.02-0.08-0.02-0.151c0-0.08,0.021-0.167,0.063-0.264    c0.047-0.08,0.121-0.132,0.225-0.157c-0.1-0.109-0.247-0.164-0.442-0.164c-0.232,0-0.428,0.141-0.585,0.421    c-0.15,0.302-0.225,0.606-0.225,0.912s0.068,0.568,0.205,0.786C68.22,7.947,68.43,8.081,68.704,8.081z M69.613,6.861    c0.013-0.088,0.02-0.178,0.02-0.27c0-0.164-0.029-0.319-0.088-0.466c-0.07-0.155-0.141-0.232-0.212-0.232    c-0.021,0-0.044,0.008-0.068,0.025c-0.058,0.034-0.087,0.109-0.087,0.227c0,0.126,0.045,0.256,0.137,0.39    C69.397,6.685,69.497,6.794,69.613,6.861z"/>
	</g>
	<g class="st3">
		<path class="st5" d="M70.357,7.106c0.041,0.256,0.119,0.449,0.23,0.579c0.141,0.201,0.352,0.302,0.629,0.302    c0.365,0,0.67-0.098,0.91-0.295c0.166-0.139,0.303-0.348,0.411-0.629l0.1,0.201c-0.129,0.377-0.332,0.65-0.61,0.817    c-0.274,0.164-0.642,0.246-1.104,0.246c-0.48,0-0.815-0.149-1.002-0.447c-0.154-0.214-0.23-0.518-0.23-0.912    c0-0.482,0.102-0.861,0.305-1.138c0.236-0.314,0.596-0.472,1.078-0.472c0.361,0,0.627,0.086,0.797,0.258    c0.166,0.151,0.25,0.365,0.25,0.642c0,0.004,0,0.007,0,0.009c0,0.002,0,0.004,0,0.006s0,0.004,0,0.006s0,0.004,0,0.006    s0,0.004,0,0.006c0,0.002,0,0.004,0,0.006c0,0.002,0,0.004,0,0.006c0,0.002,0,0.004,0,0.006c0,0.002,0,0.004,0,0.006    c0,0.002,0,0.004,0,0.006s0,0.004,0,0.006s0,0.004,0,0.006s0,0.005,0,0.009c0,0.004,0,0.009,0,0.016s-0.002,0.017-0.004,0.032    s-0.003,0.028-0.003,0.041C72.077,6.697,71.766,6.886,71.18,7c-0.183,0.046-0.459,0.082-0.828,0.107H70.357z M71.847,6.358    c0-0.013,0.001-0.027,0.003-0.044c0.002-0.017,0.004-0.038,0.004-0.063c0-0.189-0.069-0.352-0.207-0.491    c-0.141-0.13-0.311-0.195-0.51-0.195c-0.287,0-0.499,0.157-0.636,0.472c-0.112,0.251-0.169,0.535-0.169,0.849    c0.033-0.004,0.088-0.01,0.162-0.019c0.025,0,0.053-0.002,0.084-0.006c0.031-0.004,0.063-0.008,0.091-0.012    c0.024,0,0.054-0.002,0.084-0.006c0.031-0.004,0.062-0.008,0.091-0.013c0.037-0.004,0.098-0.01,0.181-0.019    C71.531,6.744,71.805,6.593,71.847,6.358z"/>
		<path class="st5" d="M74.638,7.836c-0.319,0.327-0.644,0.491-0.972,0.491c-0.387,0-0.656-0.061-0.811-0.183    c-0.211-0.151-0.317-0.413-0.317-0.786V5.376h0.579v1.761c0,0.26,0.029,0.474,0.088,0.642c0.087,0.251,0.246,0.377,0.479,0.377    c0.142,0,0.295-0.048,0.461-0.145c0.149-0.088,0.304-0.218,0.461-0.39V7.471V5.376h0.592v1.95c0,0.26,0.011,0.453,0.031,0.579    c0.024,0.134,0.096,0.201,0.212,0.201c0.07,0,0.141-0.073,0.212-0.22c0.004-0.008,0.112-0.292,0.323-0.849l0.094,0.208    c-0.141,0.415-0.232,0.669-0.273,0.761c-0.117,0.209-0.271,0.316-0.461,0.321C74.924,8.327,74.691,8.163,74.638,7.836z"/>
	</g>
	<path class="st6" d="M28.2,54.4c0,0,6.3,3.4,16.2,0"/>
	<g class="st3">
		<path class="st7" d="M51.89,62.787v0.402h-1.445v0.604c0,0.25,0.001,0.471,0.005,0.66c0.003,0.191,0.014,0.336,0.032,0.435h-0.548    c0.018-0.101,0.029-0.246,0.032-0.437s0.005-0.41,0.005-0.658v-1.824c0-0.111-0.001-0.215-0.003-0.311    c-0.003-0.095-0.006-0.18-0.011-0.255c-0.005-0.075-0.013-0.139-0.022-0.188h2.168v0.414h-1.657v1.158H51.89z"/>
		<path class="st7" d="M52.637,63.617c0-0.217,0.033-0.408,0.098-0.575s0.152-0.308,0.262-0.423c0.109-0.114,0.237-0.201,0.384-0.26    c0.146-0.059,0.302-0.088,0.466-0.088c0.172,0,0.328,0.029,0.47,0.088s0.265,0.146,0.366,0.26    c0.103,0.115,0.182,0.256,0.238,0.423s0.084,0.358,0.084,0.575s-0.031,0.408-0.097,0.574c-0.064,0.166-0.151,0.305-0.262,0.417    c-0.109,0.112-0.237,0.198-0.384,0.255c-0.146,0.059-0.301,0.088-0.466,0.088c-0.171,0-0.327-0.029-0.47-0.088    c-0.143-0.057-0.264-0.143-0.366-0.255s-0.182-0.251-0.238-0.417C52.666,64.025,52.637,63.834,52.637,63.617z M53.098,63.617    c0,0.146,0.018,0.277,0.053,0.393s0.084,0.213,0.148,0.293s0.141,0.141,0.229,0.183s0.186,0.063,0.293,0.063    c0.1,0,0.193-0.021,0.282-0.063c0.088-0.042,0.165-0.103,0.23-0.183s0.117-0.178,0.154-0.293c0.038-0.115,0.056-0.246,0.056-0.393    c0-0.147-0.018-0.279-0.052-0.396c-0.034-0.116-0.085-0.215-0.148-0.297c-0.063-0.081-0.14-0.143-0.229-0.186    c-0.088-0.043-0.186-0.064-0.293-0.064c-0.101,0-0.195,0.021-0.283,0.064s-0.165,0.104-0.229,0.186    c-0.065,0.082-0.116,0.181-0.153,0.297C53.117,63.338,53.098,63.47,53.098,63.617z"/>
		<path class="st7" d="M55.628,64.888V63.34c0-0.248-0.014-0.458-0.041-0.63s-0.056-0.302-0.083-0.389h0.448    c0.02,0.047,0.038,0.106,0.054,0.178s0.029,0.15,0.039,0.237c0.012,0.088,0.02,0.181,0.023,0.279c0.006,0.1,0.008,0.199,0.008,0.3    v0.163c0.085-0.236,0.168-0.432,0.25-0.588c0.081-0.154,0.162-0.278,0.242-0.371c0.081-0.092,0.162-0.156,0.243-0.193    s0.165-0.055,0.249-0.055c0.063,0,0.121,0.006,0.175,0.018s0.106,0.031,0.162,0.058l-0.075,0.466    c-0.048-0.021-0.09-0.034-0.127-0.041c-0.037-0.006-0.081-0.01-0.135-0.01c-0.068,0-0.139,0.029-0.214,0.087    s-0.148,0.134-0.221,0.229s-0.141,0.205-0.206,0.325c-0.064,0.12-0.121,0.245-0.17,0.371s-0.088,0.251-0.117,0.371    s-0.044,0.228-0.044,0.321c0,0.043,0.001,0.081,0.001,0.117c0.002,0.035,0.004,0.068,0.008,0.102    c0.004,0.032,0.01,0.064,0.016,0.098c0.008,0.033,0.016,0.067,0.025,0.104H55.628z"/>
		<path class="st7" d="M58.992,62.271c0.166,0,0.309,0.02,0.43,0.059s0.227,0.092,0.318,0.154l-0.088,0.453    c-0.113-0.084-0.225-0.146-0.336-0.188s-0.232-0.063-0.361-0.063c-0.111,0-0.215,0.021-0.311,0.064s-0.179,0.105-0.25,0.186    c-0.07,0.08-0.125,0.18-0.165,0.297s-0.06,0.25-0.06,0.397c0,0.136,0.018,0.259,0.055,0.37c0.037,0.11,0.089,0.205,0.156,0.285    c0.068,0.08,0.15,0.141,0.248,0.186c0.096,0.043,0.205,0.064,0.326,0.064c0.15,0,0.288-0.025,0.41-0.078    c0.123-0.052,0.24-0.126,0.35-0.224l0.05,0.44c-0.063,0.049-0.126,0.09-0.188,0.125c-0.063,0.034-0.127,0.063-0.195,0.085    s-0.141,0.04-0.219,0.05c-0.078,0.012-0.164,0.018-0.258,0.018c-0.168,0-0.324-0.03-0.471-0.09s-0.273-0.146-0.383-0.258    c-0.11-0.112-0.197-0.248-0.26-0.408c-0.063-0.158-0.095-0.34-0.095-0.541c0-0.189,0.03-0.367,0.091-0.535s0.146-0.314,0.26-0.44    c0.111-0.126,0.248-0.226,0.408-0.298C58.615,62.308,58.795,62.271,58.992,62.271z"/>
		<path class="st7" d="M61.435,62.271c0.136,0,0.257,0.016,0.361,0.049s0.194,0.078,0.271,0.136c0.076,0.058,0.14,0.126,0.192,0.202    c0.051,0.078,0.092,0.16,0.123,0.25c0.031,0.088,0.053,0.182,0.066,0.277c0.013,0.097,0.02,0.191,0.02,0.285v0.099    c0,0.042-0.001,0.075-0.002,0.099h-1.768c0.005,0.146,0.027,0.275,0.068,0.385s0.097,0.199,0.167,0.27    c0.071,0.072,0.153,0.125,0.249,0.16s0.2,0.053,0.313,0.053c0.162,0,0.32-0.018,0.475-0.055s0.308-0.103,0.461-0.197l0.049,0.416    c-0.088,0.045-0.174,0.084-0.259,0.115c-0.085,0.032-0.169,0.059-0.254,0.078c-0.085,0.021-0.171,0.035-0.258,0.044    s-0.179,0.015-0.275,0.015c-0.159,0-0.312-0.029-0.456-0.085s-0.271-0.14-0.381-0.249c-0.11-0.109-0.197-0.246-0.262-0.408    c-0.065-0.163-0.098-0.352-0.098-0.566c0-0.208,0.027-0.396,0.084-0.564c0.055-0.17,0.135-0.313,0.237-0.434    c0.103-0.119,0.229-0.212,0.376-0.276C61.084,62.303,61.25,62.271,61.435,62.271z M61.396,62.648    c-0.182,0-0.332,0.055-0.448,0.162c-0.116,0.108-0.192,0.276-0.229,0.505h1.301c0-0.107-0.015-0.202-0.045-0.286    c-0.031-0.082-0.074-0.152-0.131-0.21c-0.055-0.057-0.121-0.1-0.197-0.128C61.57,62.662,61.486,62.648,61.396,62.648z"/>
	</g>
	<g class="st3">
		<path class="st7" d="M12.607,61.107h1.432v0.164h-0.605c-0.132,0-0.221,0.043-0.269,0.128c-0.026,0.048-0.04,0.108-0.04,0.185    v4.619c0,0.102,0.015,0.178,0.043,0.229c0.05,0.088,0.146,0.131,0.289,0.131h0.582v0.174h-1.432V61.107z"/>
		<path class="st7" d="M18.171,62.424l-0.178,0.197c-0.06,0.068-0.118,0.135-0.176,0.202c0.274,0.238,0.442,0.533,0.506,0.886    c0.022,0.124,0.033,0.248,0.033,0.371c0,0.607-0.236,1.067-0.708,1.377c-0.228,0.15-0.498,0.238-0.811,0.266    c-0.052,0.004-0.106,0.006-0.163,0.006c-0.415,0-0.766-0.128-1.055-0.384l-0.286,0.321l-0.225,0.008    c0.064-0.076,0.13-0.152,0.196-0.229l0.198-0.225c-0.267-0.303-0.4-0.65-0.4-1.045c0-0.664,0.237-1.166,0.711-1.503    c0.232-0.165,0.483-0.251,0.752-0.255c0.435-0.007,0.804,0.094,1.108,0.302l0.259-0.296H18.171z M15.581,64.143    c0.042,0.288,0.115,0.535,0.218,0.74c0.123-0.141,0.292-0.336,0.508-0.586l1.158-1.338c-0.225-0.27-0.508-0.404-0.851-0.404    c-0.04,0-0.097,0.005-0.169,0.014c-0.292,0.036-0.519,0.193-0.68,0.471c-0.137,0.236-0.206,0.515-0.206,0.834    C15.559,63.954,15.566,64.043,15.581,64.143z M17.825,63.881c-0.033-0.298-0.117-0.555-0.251-0.769l-1.694,1.929    c0.223,0.362,0.52,0.543,0.891,0.543c0.06,0,0.128-0.006,0.204-0.02c0.582-0.104,0.872-0.541,0.872-1.313    C17.847,64.137,17.84,64.014,17.825,63.881z"/>
		<path class="st7" d="M20.847,66.736h-1.436v-0.167h0.608c0.204,0,0.306-0.103,0.306-0.309v-4.623c0-0.237-0.11-0.355-0.329-0.355    h-0.585v-0.175h1.436V66.736z"/>
	</g>
	<g class="st3">
		<path class="st7" d="M52.51,70.694l-0.307-0.364c0.257-0.164,0.482-0.363,0.675-0.598s0.321-0.475,0.386-0.721    c-0.157,0.099-0.342,0.148-0.555,0.148c-0.266,0-0.494-0.1-0.685-0.3s-0.285-0.439-0.285-0.72c0-0.291,0.101-0.539,0.304-0.742    c0.203-0.203,0.45-0.305,0.742-0.305c0.33,0,0.599,0.121,0.809,0.36c0.209,0.239,0.313,0.548,0.313,0.923    c0,0.426-0.132,0.857-0.394,1.293C53.251,70.104,52.916,70.446,52.51,70.694z M53.361,68.511c0.02-0.134,0.029-0.222,0.029-0.262    c0-0.203-0.055-0.369-0.168-0.498c-0.111-0.13-0.256-0.194-0.432-0.194c-0.162,0-0.295,0.056-0.4,0.166    c-0.105,0.109-0.158,0.247-0.158,0.413c0,0.153,0.058,0.284,0.172,0.396c0.115,0.11,0.252,0.166,0.411,0.166    C53.002,68.697,53.184,68.635,53.361,68.511z"/>
		<path class="st7" d="M55.674,67.129l0.05-0.035l0.302,0.383c-0.266,0.174-0.486,0.362-0.662,0.567    c-0.175,0.205-0.311,0.446-0.404,0.724c0.184-0.096,0.367-0.144,0.551-0.144c0.273,0,0.505,0.099,0.692,0.294    c0.188,0.197,0.282,0.438,0.282,0.723c0,0.293-0.103,0.543-0.307,0.747c-0.205,0.204-0.453,0.307-0.746,0.307    c-0.326,0-0.592-0.116-0.793-0.349c-0.202-0.232-0.303-0.536-0.303-0.912c0-0.281,0.052-0.563,0.156-0.842    c0.104-0.279,0.252-0.54,0.447-0.784S55.38,67.338,55.674,67.129z M54.852,69.288c-0.014,0.079-0.02,0.167-0.02,0.265    c0,0.197,0.057,0.36,0.17,0.488c0.114,0.127,0.26,0.19,0.438,0.19c0.16,0,0.291-0.054,0.395-0.163    c0.104-0.109,0.156-0.247,0.156-0.413c0-0.169-0.055-0.306-0.166-0.411c-0.109-0.105-0.256-0.157-0.438-0.157    c-0.092,0-0.177,0.015-0.252,0.042C55.059,69.158,54.965,69.211,54.852,69.288z"/>
		<path class="st7" d="M58.979,67.1c0.214,0,0.396,0.076,0.548,0.23s0.228,0.34,0.228,0.557c0,0.215-0.076,0.399-0.229,0.554    s-0.334,0.231-0.547,0.231s-0.395-0.077-0.547-0.231s-0.229-0.339-0.229-0.554c0-0.217,0.076-0.402,0.227-0.557    C58.581,67.176,58.764,67.1,58.979,67.1z M60.741,67.09h0.386l-2.289,3.604h-0.385L60.741,67.09z M58.973,67.481    c-0.111,0-0.207,0.04-0.285,0.119s-0.117,0.175-0.117,0.288c0,0.109,0.039,0.204,0.119,0.283c0.079,0.078,0.174,0.117,0.283,0.117    c0.11,0,0.205-0.039,0.283-0.117c0.079-0.079,0.119-0.174,0.119-0.283c0-0.114-0.039-0.211-0.117-0.289    S59.084,67.481,58.973,67.481z M60.621,69.125c0.213,0,0.396,0.076,0.548,0.23c0.153,0.152,0.229,0.337,0.229,0.552    c0,0.214-0.076,0.397-0.229,0.547c-0.151,0.15-0.334,0.226-0.549,0.226s-0.398-0.075-0.551-0.226    c-0.151-0.149-0.227-0.333-0.227-0.547c0-0.216,0.076-0.401,0.229-0.554S60.408,69.125,60.621,69.125z M60.617,69.507    c-0.109,0-0.203,0.04-0.279,0.118c-0.078,0.078-0.116,0.173-0.116,0.283c0,0.112,0.038,0.208,0.116,0.287    c0.076,0.08,0.17,0.119,0.279,0.119c0.112,0,0.207-0.039,0.285-0.117c0.078-0.079,0.117-0.176,0.117-0.289    c0-0.111-0.039-0.207-0.117-0.285C60.824,69.546,60.729,69.507,60.617,69.507z"/>
	</g>
	<g class="st3">
		<path class="st8" d="M54.123,9.063v0.671h-2.367v2.181h1.096c0.413,0,0.759-0.003,1.038-0.008c0.28-0.006,0.503-0.024,0.669-0.055    v0.755h-3.655c0.03-0.168,0.048-0.41,0.054-0.728c0.005-0.317,0.008-0.683,0.008-1.097V8.309c0-0.414-0.003-0.779-0.008-1.097    c-0.006-0.317-0.024-0.56-0.054-0.728h3.531v0.692h-2.679v1.887H54.123z"/>
		<path class="st8" d="M60.271,6.485c-0.027,0.167-0.045,0.405-0.052,0.71c-0.007,0.306-0.01,0.677-0.01,1.114v2.138    c0,0.341-0.045,0.651-0.133,0.929c-0.09,0.278-0.225,0.517-0.406,0.715c-0.181,0.198-0.41,0.352-0.688,0.459    c-0.276,0.107-0.602,0.162-0.976,0.162c-0.38,0-0.708-0.054-0.986-0.162s-0.509-0.261-0.691-0.459    c-0.183-0.199-0.319-0.437-0.409-0.715c-0.09-0.278-0.135-0.587-0.135-0.929V8.309c0-0.414-0.004-0.779-0.011-1.097    s-0.024-0.56-0.052-0.728h0.852v3.774c0,0.274,0.023,0.521,0.07,0.74c0.047,0.219,0.126,0.407,0.236,0.562    c0.111,0.155,0.258,0.274,0.441,0.356c0.182,0.083,0.41,0.124,0.685,0.124c0.269,0,0.493-0.042,0.673-0.124    c0.18-0.082,0.324-0.201,0.434-0.356c0.109-0.155,0.188-0.342,0.235-0.562c0.047-0.22,0.071-0.466,0.071-0.74V6.485H60.271z"/>
	</g>
	<g class="st3">
		<path class="st8" d="M26.511,20.665c0.953,0,1.796,0.115,2.529,0.344c0.732,0.229,1.366,0.546,1.901,0.951    c0.535,0.405,0.982,0.878,1.343,1.418c0.36,0.54,0.648,1.122,0.863,1.744c0.215,0.623,0.369,1.271,0.462,1.946    c0.093,0.675,0.14,1.342,0.14,1.999v0.687c0,0.293-0.006,0.522-0.018,0.687H21.365c0.035,1.033,0.195,1.931,0.48,2.694    c0.285,0.763,0.674,1.395,1.168,1.894c0.495,0.499,1.076,0.872,1.745,1.118c0.668,0.247,1.398,0.37,2.189,0.37    c1.128,0,2.233-0.129,3.314-0.387s2.157-0.716,3.227-1.374l0.349,2.906c-0.617,0.317-1.221,0.588-1.814,0.811    s-1.186,0.405-1.779,0.546c-0.593,0.142-1.195,0.243-1.806,0.308c-0.61,0.064-1.253,0.098-1.927,0.098    c-1.117,0-2.181-0.197-3.192-0.59c-1.012-0.394-1.901-0.975-2.669-1.744c-0.768-0.769-1.378-1.723-1.832-2.862    c-0.454-1.139-0.68-2.459-0.68-3.962c0-1.456,0.195-2.774,0.584-3.954c0.39-1.18,0.945-2.189,1.666-3.029    c0.721-0.839,1.599-1.485,2.634-1.938C24.057,20.892,25.22,20.665,26.511,20.665z M26.25,23.307c-1.28,0-2.326,0.378-3.14,1.136    s-1.349,1.935-1.605,3.531h9.106c0-0.751-0.107-1.418-0.323-1.999s-0.518-1.071-0.907-1.471c-0.39-0.399-0.852-0.698-1.387-0.898    C27.459,23.407,26.877,23.307,26.25,23.307z"/>
		<path class="st8" d="M43.868,39.422c-3.722,0-5.582-2.524-5.582-7.573v-5.195c0-0.563-0.003-1.074-0.009-1.532    c-0.006-0.458-0.021-0.901-0.044-1.33s-0.058-0.866-0.104-1.313c-0.046-0.446-0.111-0.933-0.192-1.461h3.576v9.774    c0,0.998,0.049,1.858,0.148,2.58c0.099,0.722,0.264,1.315,0.497,1.779c0.232,0.464,0.538,0.808,0.916,1.03    c0.378,0.223,0.846,0.334,1.404,0.334c0.512,0,1.058-0.155,1.64-0.466c0.581-0.311,1.136-0.708,1.666-1.189    c0.529-0.481,1.012-1.013,1.448-1.594c0.436-0.582,0.77-1.142,1.003-1.682v-4.931c0-0.575-0.003-1.095-0.009-1.559    s-0.021-0.907-0.043-1.33c-0.023-0.422-0.059-0.851-0.104-1.286c-0.047-0.434-0.111-0.921-0.192-1.461h3.576v10.039    c0,1.714,0.096,3.214,0.287,4.5c0.192,1.286,0.475,2.427,0.847,3.425h-2.966c-0.082-0.2-0.168-0.435-0.262-0.704    c-0.093-0.271-0.183-0.559-0.271-0.863c-0.087-0.305-0.168-0.625-0.244-0.96s-0.137-0.666-0.183-0.995    c-1.058,1.303-2.148,2.289-3.271,2.959C46.278,39.087,45.101,39.422,43.868,39.422z"/>
	</g>
	<g class="st3">
		<path class="st9" d="M27.525,46.568h1.039V45.65c0-0.786,0.158-1.376,0.475-1.77c0.316-0.393,0.755-0.589,1.316-0.589    c0.204,0,0.405,0.032,0.603,0.097s0.377,0.154,0.54,0.27l-0.239,0.787c-0.131-0.098-0.277-0.175-0.436-0.23    c-0.159-0.057-0.315-0.084-0.467-0.084c-0.135,0-0.254,0.023-0.358,0.07c-0.104,0.047-0.19,0.123-0.26,0.229    c-0.069,0.104-0.122,0.24-0.158,0.406c-0.037,0.166-0.055,0.367-0.055,0.605v1.127h1.402v0.76h-1.402v1.865    c0,0.256,0.002,0.508,0.008,0.758s0.014,0.488,0.026,0.713c0.012,0.226,0.029,0.434,0.049,0.627    c0.021,0.191,0.045,0.355,0.073,0.492h-1.116v-4.455h-1.039V46.568z"/>
	</g>
	<g class="st3">
		<path class="st8" d="M34.665,45.24c0.34,0,0.642,0.041,0.903,0.123c0.262,0.081,0.488,0.194,0.679,0.339    c0.191,0.146,0.351,0.313,0.48,0.507s0.231,0.4,0.309,0.623c0.077,0.223,0.132,0.453,0.165,0.695    c0.033,0.24,0.05,0.479,0.05,0.714v0.245c0,0.105-0.002,0.187-0.006,0.246h-4.418c0.012,0.369,0.069,0.689,0.171,0.962    c0.102,0.272,0.241,0.498,0.417,0.677c0.176,0.178,0.384,0.311,0.623,0.398c0.239,0.089,0.5,0.133,0.782,0.133    c0.403,0,0.797-0.046,1.184-0.139c0.386-0.092,0.771-0.256,1.153-0.49l0.125,1.038c-0.22,0.113-0.436,0.21-0.648,0.289    c-0.212,0.08-0.424,0.146-0.636,0.195s-0.427,0.087-0.645,0.11c-0.218,0.022-0.448,0.034-0.688,0.034    c-0.399,0-0.779-0.07-1.141-0.211c-0.361-0.14-0.679-0.348-0.954-0.622c-0.274-0.275-0.492-0.616-0.654-1.023    c-0.162-0.406-0.243-0.879-0.243-1.415c0-0.521,0.07-0.991,0.209-1.413c0.139-0.421,0.337-0.781,0.595-1.082    c0.257-0.299,0.571-0.53,0.941-0.691C33.788,45.32,34.203,45.24,34.665,45.24z M34.571,46.184c-0.457,0-0.831,0.135-1.122,0.406    c-0.291,0.27-0.482,0.691-0.573,1.262h3.253c0-0.27-0.039-0.508-0.115-0.715c-0.077-0.207-0.185-0.383-0.324-0.525    s-0.304-0.25-0.496-0.32C35.003,46.219,34.795,46.184,34.571,46.184z"/>
		<path class="st8" d="M40.865,51.94c-1.33,0-1.994-0.901-1.994-2.706v-1.855c0-0.201-0.001-0.384-0.003-0.547    c-0.002-0.164-0.007-0.322-0.016-0.475c-0.008-0.154-0.021-0.311-0.038-0.469c-0.017-0.16-0.04-0.334-0.068-0.523h1.277v3.492    c0,0.357,0.018,0.664,0.053,0.922c0.035,0.258,0.094,0.47,0.178,0.635c0.083,0.166,0.192,0.289,0.327,0.369    c0.135,0.08,0.302,0.119,0.501,0.119c0.183,0,0.378-0.056,0.586-0.166c0.208-0.111,0.406-0.254,0.595-0.426    c0.189-0.172,0.361-0.361,0.517-0.568c0.156-0.208,0.275-0.408,0.358-0.602v-1.762c0-0.205-0.001-0.391-0.003-0.557    c-0.002-0.166-0.007-0.324-0.016-0.475c-0.008-0.151-0.021-0.305-0.037-0.459c-0.017-0.156-0.04-0.33-0.069-0.523h1.278v3.587    c0,0.612,0.034,1.147,0.103,1.607c0.069,0.459,0.169,0.867,0.302,1.224h-1.059c-0.029-0.071-0.061-0.155-0.094-0.252    c-0.033-0.096-0.065-0.199-0.096-0.309c-0.031-0.108-0.061-0.223-0.087-0.342c-0.027-0.12-0.049-0.238-0.065-0.355    c-0.378,0.465-0.768,0.817-1.168,1.057C41.726,51.82,41.305,51.94,40.865,51.94z"/>
	</g>
	<g class="st3">
		<path class="st8" d="M14.479,10.185c0.056,0.341,0.158,0.598,0.308,0.771c0.188,0.269,0.468,0.403,0.839,0.403    c0.487,0,0.892-0.131,1.213-0.395c0.221-0.184,0.404-0.464,0.548-0.838l0.133,0.268c-0.172,0.503-0.443,0.867-0.814,1.09    c-0.366,0.218-0.856,0.327-1.471,0.327c-0.642,0-1.088-0.198-1.337-0.595c-0.205-0.285-0.307-0.69-0.307-1.216    c0-0.643,0.136-1.149,0.407-1.518c0.315-0.419,0.794-0.629,1.437-0.629c0.481,0,0.836,0.115,1.063,0.344    c0.222,0.202,0.333,0.487,0.333,0.855c0,0.006,0,0.01,0,0.013c0,0.003,0,0.006,0,0.008c0,0.003,0,0.006,0,0.009    c0,0.002,0,0.005,0,0.008s0,0.005,0,0.008s0,0.005,0,0.008s0,0.006,0,0.008c0,0.003,0,0.006,0,0.008c0,0.003,0,0.006,0,0.009    c0,0.002,0,0.005,0,0.008s0,0.005,0,0.008s0,0.005,0,0.008s0,0.007,0,0.013s0,0.013,0,0.021s-0.001,0.022-0.004,0.042    s-0.004,0.038-0.004,0.054c-0.05,0.353-0.465,0.604-1.246,0.755c-0.244,0.062-0.612,0.109-1.105,0.143H14.479z M16.464,9.187    c0-0.017,0.001-0.036,0.004-0.059c0.002-0.022,0.004-0.05,0.004-0.084c0-0.251-0.091-0.47-0.274-0.654    c-0.188-0.173-0.416-0.26-0.681-0.26c-0.382,0-0.665,0.209-0.847,0.629c-0.15,0.335-0.225,0.713-0.225,1.132    c0.044-0.005,0.116-0.014,0.216-0.025c0.033,0,0.07-0.002,0.112-0.008c0.042-0.005,0.082-0.011,0.121-0.017    c0.033,0,0.071-0.003,0.112-0.008c0.042-0.006,0.082-0.011,0.12-0.017c0.05-0.005,0.13-0.014,0.241-0.025    C16.043,9.701,16.409,9.5,16.464,9.187z"/>
		<path class="st8" d="M20.186,11.157c-0.426,0.437-0.858,0.654-1.296,0.654c-0.515,0-0.875-0.081-1.08-0.243    c-0.283-0.201-0.424-0.551-0.424-1.048V7.878h0.772v2.348c0,0.347,0.039,0.632,0.116,0.855c0.117,0.335,0.33,0.503,0.64,0.503    c0.188,0,0.393-0.064,0.615-0.193c0.2-0.117,0.404-0.291,0.615-0.52v-0.202V7.878h0.789v2.6c0,0.347,0.014,0.604,0.042,0.771    c0.033,0.179,0.127,0.269,0.283,0.269c0.094,0,0.188-0.098,0.282-0.293c0.005-0.011,0.149-0.389,0.432-1.132l0.125,0.277    c-0.188,0.554-0.31,0.892-0.365,1.015c-0.155,0.28-0.36,0.422-0.615,0.428C20.568,11.812,20.257,11.594,20.186,11.157z"/>
	</g>
	<g>
		<g class="st3">
			<path class="st4" d="M73.594,15.224c0-0.469,0.069-0.884,0.21-1.246c0.14-0.361,0.329-0.667,0.567-0.916     c0.236-0.249,0.514-0.437,0.831-0.564c0.316-0.127,0.653-0.191,1.01-0.191c0.37,0,0.71,0.064,1.018,0.191     c0.308,0.127,0.572,0.315,0.794,0.564c0.221,0.249,0.393,0.555,0.516,0.916c0.122,0.362,0.184,0.777,0.184,1.246     s-0.07,0.883-0.211,1.243c-0.141,0.359-0.329,0.661-0.566,0.905c-0.238,0.243-0.516,0.428-0.832,0.553s-0.653,0.188-1.01,0.188     c-0.371,0-0.71-0.063-1.018-0.188s-0.572-0.31-0.793-0.553c-0.223-0.244-0.395-0.545-0.517-0.905     C73.654,16.107,73.594,15.692,73.594,15.224z M74.592,15.224c0,0.316,0.038,0.6,0.113,0.851c0.076,0.25,0.184,0.462,0.321,0.635     c0.139,0.173,0.304,0.305,0.494,0.396s0.403,0.136,0.638,0.136c0.215,0,0.419-0.045,0.609-0.136     c0.191-0.091,0.357-0.223,0.5-0.396c0.143-0.172,0.254-0.384,0.334-0.635c0.082-0.251,0.122-0.534,0.122-0.851     c0-0.32-0.038-0.606-0.113-0.858s-0.183-0.467-0.321-0.644s-0.305-0.311-0.497-0.403s-0.403-0.139-0.634-0.139     c-0.221,0-0.426,0.046-0.615,0.139c-0.191,0.093-0.357,0.227-0.498,0.403c-0.14,0.176-0.25,0.391-0.332,0.644     C74.633,14.618,74.592,14.904,74.592,15.224z"/>
		</g>
		<g class="st3">
			<path class="st10" d="M81.335,12.307c0.296,0,0.556,0.036,0.783,0.106c0.227,0.071,0.423,0.169,0.589,0.294     c0.165,0.125,0.304,0.271,0.416,0.439c0.111,0.167,0.2,0.347,0.267,0.54c0.066,0.192,0.114,0.394,0.144,0.602     c0.028,0.209,0.043,0.416,0.043,0.619v0.212c0,0.091-0.002,0.162-0.006,0.212h-3.828c0.011,0.32,0.061,0.598,0.148,0.834     c0.088,0.236,0.209,0.432,0.361,0.586c0.154,0.154,0.334,0.27,0.541,0.346c0.207,0.076,0.432,0.114,0.678,0.114     c0.349,0,0.69-0.04,1.025-0.12c0.335-0.08,0.668-0.221,0.999-0.425l0.108,0.899c-0.191,0.098-0.379,0.182-0.563,0.25     c-0.184,0.069-0.367,0.125-0.551,0.169c-0.184,0.044-0.369,0.076-0.559,0.096s-0.388,0.03-0.597,0.03     c-0.345,0-0.675-0.061-0.987-0.183c-0.314-0.122-0.59-0.302-0.826-0.54c-0.238-0.238-0.428-0.533-0.567-0.886     c-0.141-0.353-0.21-0.761-0.21-1.227c0-0.451,0.06-0.859,0.18-1.224c0.121-0.365,0.293-0.678,0.516-0.938     c0.224-0.26,0.496-0.459,0.816-0.6C80.576,12.377,80.936,12.307,81.335,12.307z M81.254,13.125c-0.396,0-0.72,0.117-0.972,0.352     s-0.417,0.599-0.497,1.093h2.818c0-0.232-0.033-0.438-0.1-0.619c-0.066-0.18-0.16-0.332-0.281-0.455     c-0.12-0.124-0.264-0.216-0.429-0.278C81.629,13.156,81.449,13.125,81.254,13.125z"/>
			<path class="st10" d="M86.708,18.113c-1.152,0-1.728-0.781-1.728-2.344v-1.608c0-0.174-0.002-0.333-0.004-0.474     c-0.001-0.142-0.006-0.279-0.013-0.412s-0.019-0.268-0.032-0.406c-0.015-0.138-0.035-0.289-0.06-0.452h1.106v3.025     c0,0.309,0.016,0.575,0.047,0.798c0.029,0.224,0.081,0.407,0.153,0.551c0.071,0.144,0.167,0.25,0.283,0.319     c0.117,0.069,0.263,0.104,0.435,0.104c0.158,0,0.328-0.048,0.508-0.145s0.352-0.219,0.516-0.368     c0.164-0.149,0.313-0.313,0.448-0.494c0.135-0.18,0.238-0.354,0.311-0.521v-1.526c0-0.178-0.001-0.339-0.003-0.482     s-0.006-0.281-0.014-0.412c-0.007-0.131-0.018-0.263-0.032-0.398c-0.015-0.134-0.034-0.285-0.06-0.452h1.107v3.107     c0,0.531,0.029,0.995,0.089,1.393s0.146,0.751,0.262,1.06H89.11c-0.024-0.062-0.052-0.134-0.081-0.218     c-0.028-0.083-0.057-0.172-0.084-0.267c-0.026-0.094-0.052-0.193-0.075-0.297s-0.042-0.206-0.057-0.308     c-0.327,0.403-0.665,0.709-1.013,0.916S87.09,18.113,86.708,18.113z"/>
		</g>
		<g class="st3">
			<path class="st9" d="M73.24,21.537c0.355,0,0.626,0.117,0.814,0.351s0.282,0.581,0.282,1.042v2.097h-0.614V23.18     c0-0.21-0.014-0.383-0.042-0.52c-0.027-0.136-0.068-0.244-0.122-0.324c-0.055-0.079-0.123-0.134-0.207-0.166     c-0.082-0.031-0.181-0.047-0.293-0.047c-0.12,0-0.237,0.029-0.352,0.085c-0.113,0.057-0.219,0.131-0.313,0.222     c-0.096,0.09-0.18,0.193-0.253,0.307c-0.072,0.114-0.127,0.229-0.162,0.342v1.946h-0.615v-2.063c0-0.331-0.018-0.611-0.055-0.84     c-0.037-0.229-0.074-0.402-0.111-0.519h0.598c0.014,0.036,0.027,0.083,0.04,0.139c0.014,0.057,0.025,0.117,0.036,0.18     c0.012,0.063,0.021,0.124,0.03,0.185l0.026,0.151c0.211-0.255,0.424-0.439,0.639-0.552S73.006,21.537,73.24,21.537z"/>
		</g>
		<g class="st3">
			<path class="st4" d="M75.208,22.908c0-0.36,0.054-0.68,0.162-0.958s0.253-0.513,0.437-0.705c0.182-0.191,0.396-0.336,0.639-0.434     c0.244-0.098,0.503-0.146,0.777-0.146c0.285,0,0.546,0.049,0.783,0.146c0.236,0.098,0.439,0.243,0.609,0.434     c0.171,0.191,0.303,0.426,0.397,0.705s0.142,0.598,0.142,0.958c0,0.361-0.055,0.679-0.162,0.956     c-0.108,0.277-0.254,0.509-0.437,0.696c-0.183,0.187-0.396,0.329-0.64,0.425c-0.244,0.097-0.502,0.145-0.777,0.145     c-0.285,0-0.545-0.048-0.782-0.145c-0.237-0.096-0.44-0.238-0.61-0.425c-0.17-0.188-0.303-0.419-0.396-0.696     C75.255,23.587,75.208,23.269,75.208,22.908z M75.977,22.908c0,0.243,0.029,0.461,0.087,0.654s0.141,0.355,0.247,0.488     c0.107,0.133,0.233,0.234,0.381,0.304c0.146,0.07,0.31,0.105,0.49,0.105c0.166,0,0.322-0.035,0.469-0.105     s0.274-0.171,0.385-0.304c0.109-0.133,0.194-0.295,0.257-0.488s0.093-0.411,0.093-0.654c0-0.246-0.028-0.466-0.086-0.66     c-0.059-0.194-0.141-0.359-0.248-0.495c-0.106-0.135-0.234-0.239-0.382-0.31s-0.312-0.107-0.487-0.107     c-0.17,0-0.328,0.036-0.475,0.107s-0.273,0.175-0.382,0.31c-0.108,0.136-0.192,0.301-0.255,0.495S75.977,22.662,75.977,22.908z"/>
		</g>
		<g class="st3">
			<path class="st10" d="M81.263,20.665c0.228,0,0.428,0.027,0.603,0.082c0.174,0.055,0.325,0.13,0.453,0.227     c0.127,0.096,0.233,0.209,0.319,0.337c0.085,0.129,0.154,0.267,0.206,0.415c0.051,0.148,0.088,0.303,0.109,0.463     c0.021,0.161,0.033,0.32,0.033,0.476v0.164c0,0.07-0.002,0.125-0.004,0.164h-2.945c0.009,0.246,0.047,0.46,0.115,0.642     c0.067,0.182,0.16,0.332,0.277,0.451c0.118,0.119,0.256,0.208,0.416,0.266c0.158,0.059,0.332,0.088,0.521,0.088     c0.268,0,0.531-0.031,0.789-0.092c0.257-0.062,0.514-0.17,0.768-0.327l0.084,0.692c-0.147,0.075-0.291,0.14-0.433,0.193     s-0.282,0.096-0.424,0.13s-0.284,0.058-0.43,0.073c-0.146,0.016-0.298,0.023-0.459,0.023c-0.266,0-0.519-0.047-0.761-0.141     c-0.24-0.094-0.452-0.232-0.635-0.415s-0.328-0.41-0.436-0.682c-0.108-0.271-0.162-0.585-0.162-0.943     c0-0.347,0.046-0.661,0.139-0.941s0.225-0.521,0.396-0.721s0.381-0.354,0.627-0.461C80.678,20.718,80.955,20.665,81.263,20.665z      M81.2,21.293c-0.304,0-0.554,0.09-0.747,0.271c-0.194,0.18-0.322,0.46-0.383,0.841h2.168c0-0.179-0.025-0.338-0.076-0.476     s-0.123-0.255-0.217-0.35c-0.092-0.095-0.202-0.167-0.33-0.214C81.488,21.317,81.35,21.293,81.2,21.293z"/>
			<path class="st10" d="M85.395,25.13c-0.885,0-1.328-0.601-1.328-1.803V22.09c0-0.134-0.001-0.256-0.002-0.365     c-0.002-0.109-0.006-0.214-0.011-0.316s-0.014-0.206-0.024-0.313c-0.012-0.106-0.027-0.222-0.047-0.348h0.852v2.328     c0,0.237,0.012,0.442,0.035,0.614c0.024,0.172,0.063,0.313,0.119,0.423c0.055,0.11,0.128,0.192,0.218,0.246     c0.091,0.053,0.202,0.08,0.335,0.08c0.121,0,0.252-0.037,0.391-0.111c0.138-0.074,0.27-0.168,0.396-0.283     c0.125-0.114,0.24-0.241,0.344-0.379c0.104-0.138,0.184-0.271,0.239-0.4V22.09c0-0.137-0.001-0.261-0.002-0.371     c-0.001-0.111-0.005-0.216-0.011-0.317s-0.014-0.203-0.024-0.306s-0.026-0.219-0.046-0.348h0.852v2.39     c0,0.408,0.023,0.766,0.068,1.072c0.046,0.306,0.113,0.578,0.201,0.815h-0.705c-0.02-0.047-0.041-0.104-0.063-0.168     c-0.022-0.064-0.044-0.132-0.064-0.205c-0.021-0.073-0.041-0.149-0.059-0.229c-0.018-0.08-0.033-0.159-0.043-0.237     c-0.252,0.311-0.512,0.545-0.779,0.705C85.969,25.051,85.688,25.13,85.395,25.13z"/>
		</g>
		<g class="st11">
			<path class="st12" d="M91.707,23.248c0,0.422,0.023,0.778,0.07,1.065c0.049,0.288,0.107,0.525,0.179,0.713h-0.599     c-0.023-0.058-0.053-0.145-0.088-0.26c-0.034-0.115-0.066-0.235-0.095-0.361c-0.159,0.228-0.34,0.402-0.542,0.523     c-0.201,0.121-0.425,0.181-0.67,0.181c-0.205,0-0.388-0.039-0.551-0.116c-0.162-0.077-0.303-0.187-0.418-0.329     c-0.117-0.142-0.206-0.313-0.268-0.513c-0.063-0.2-0.094-0.423-0.094-0.669c0-0.297,0.041-0.566,0.121-0.805     c0.081-0.239,0.192-0.443,0.334-0.612c0.143-0.169,0.309-0.299,0.5-0.391c0.191-0.092,0.4-0.138,0.623-0.138     c0.071,0,0.145,0.008,0.221,0.023c0.077,0.016,0.153,0.037,0.23,0.064c0.076,0.026,0.15,0.057,0.224,0.092     c0.073,0.035,0.142,0.07,0.206,0.106v-0.939c0-0.271-0.006-0.507-0.018-0.709c-0.013-0.202-0.034-0.374-0.065-0.515h0.698V23.248     z M90.211,22.107c-0.126,0-0.246,0.029-0.361,0.087c-0.115,0.059-0.219,0.142-0.308,0.252c-0.09,0.109-0.161,0.243-0.214,0.401     c-0.054,0.158-0.08,0.336-0.08,0.535c0,0.391,0.065,0.688,0.197,0.889s0.343,0.302,0.633,0.302c0.102,0,0.203-0.026,0.305-0.078     c0.101-0.051,0.195-0.118,0.285-0.201c0.09-0.083,0.172-0.177,0.244-0.283c0.073-0.106,0.133-0.215,0.18-0.327v-1.325     c-0.082-0.044-0.158-0.083-0.229-0.114c-0.072-0.032-0.141-0.057-0.21-0.077c-0.069-0.021-0.139-0.036-0.21-0.045     C90.373,22.112,90.295,22.107,90.211,22.107z"/>
		</g>
		<g class="st3">
			<path class="st7" d="M90.289,27.686h0.025c0.182,0,0.32-0.038,0.414-0.113c0.096-0.075,0.143-0.185,0.143-0.329     c0-0.13-0.046-0.235-0.139-0.316c-0.092-0.081-0.213-0.122-0.361-0.122c-0.151,0-0.318,0.047-0.503,0.143v-0.401     c0.169-0.085,0.353-0.127,0.552-0.127c0.268,0,0.479,0.07,0.633,0.211s0.232,0.334,0.232,0.578c0,0.148-0.03,0.273-0.09,0.374     s-0.154,0.188-0.285,0.261c0.114,0.045,0.197,0.1,0.25,0.165c0.053,0.065,0.094,0.144,0.122,0.236     c0.029,0.092,0.044,0.19,0.044,0.293c0,0.256-0.084,0.468-0.254,0.635c-0.168,0.167-0.382,0.251-0.639,0.251     c-0.221,0-0.434-0.054-0.639-0.162v-0.457c0.219,0.138,0.432,0.208,0.639,0.208c0.139,0,0.252-0.042,0.337-0.126     c0.085-0.083,0.128-0.195,0.128-0.333c0-0.116-0.035-0.217-0.105-0.304c-0.042-0.049-0.088-0.085-0.139-0.108     s-0.16-0.045-0.327-0.066l-0.038-0.004V27.686z"/>
			<path class="st7" d="M93.584,26.428c0.178,0,0.33,0.064,0.456,0.193c0.126,0.128,0.188,0.283,0.188,0.463     c0,0.179-0.063,0.333-0.189,0.461c-0.127,0.129-0.278,0.193-0.455,0.193c-0.178,0-0.33-0.064-0.457-0.193     c-0.126-0.128-0.189-0.282-0.189-0.461c0-0.181,0.063-0.335,0.189-0.463C93.252,26.492,93.404,26.428,93.584,26.428z      M95.053,26.42h0.32l-1.907,3.004h-0.321L95.053,26.42z M93.578,26.747c-0.092,0-0.172,0.033-0.237,0.1     c-0.065,0.066-0.099,0.146-0.099,0.239c0,0.092,0.033,0.17,0.1,0.236c0.066,0.065,0.145,0.098,0.236,0.098     s0.172-0.033,0.236-0.098c0.066-0.066,0.1-0.145,0.1-0.236c0-0.095-0.033-0.175-0.098-0.24     C93.752,26.779,93.672,26.747,93.578,26.747z M94.953,28.116c0.177,0,0.328,0.064,0.456,0.192c0.127,0.128,0.19,0.281,0.19,0.46     c0,0.179-0.063,0.331-0.189,0.456c-0.127,0.125-0.279,0.188-0.457,0.188c-0.18,0-0.333-0.063-0.459-0.188     c-0.127-0.125-0.19-0.277-0.19-0.456c0-0.181,0.063-0.334,0.19-0.461C94.622,28.18,94.774,28.116,94.953,28.116z M94.949,28.435     c-0.092,0-0.17,0.033-0.233,0.098s-0.097,0.145-0.097,0.236c0,0.093,0.033,0.173,0.097,0.239     c0.063,0.066,0.142,0.099,0.233,0.099c0.094,0,0.173-0.033,0.238-0.098c0.064-0.065,0.097-0.146,0.097-0.24     c0-0.093-0.032-0.172-0.097-0.237C95.122,28.467,95.043,28.435,94.949,28.435z"/>
		</g>
	</g>
	<g class="st3">
		<path class="st9" d="M75.864,40.498c0,0.313-0.029,0.576-0.088,0.789c-0.06,0.212-0.143,0.383-0.251,0.511    c-0.108,0.129-0.24,0.222-0.394,0.276c-0.154,0.057-0.325,0.084-0.514,0.084c-0.046,0-0.101-0.004-0.165-0.015    c-0.063-0.01-0.128-0.024-0.195-0.042c-0.068-0.018-0.135-0.041-0.199-0.068c-0.065-0.028-0.123-0.059-0.172-0.093l0.117-0.554    c0.035,0.027,0.08,0.053,0.136,0.078c0.056,0.023,0.113,0.046,0.173,0.064c0.061,0.02,0.119,0.034,0.18,0.044    c0.06,0.011,0.113,0.015,0.159,0.015c0.089,0,0.169-0.017,0.243-0.051c0.072-0.035,0.136-0.09,0.189-0.164    c0.053-0.073,0.094-0.168,0.123-0.285c0.028-0.115,0.043-0.256,0.043-0.422v-1.861c0-0.164-0.001-0.324-0.002-0.484    c-0.002-0.158-0.004-0.309-0.007-0.451c-0.003-0.141-0.009-0.273-0.015-0.395c-0.007-0.123-0.016-0.227-0.027-0.314h0.665V40.498z     M75.133,36.07c0-0.063,0.01-0.121,0.03-0.176s0.048-0.103,0.085-0.145c0.037-0.041,0.08-0.074,0.131-0.097    s0.107-0.035,0.17-0.035s0.119,0.012,0.172,0.035c0.054,0.023,0.1,0.056,0.137,0.097c0.038,0.042,0.068,0.09,0.09,0.145    s0.033,0.113,0.033,0.176c0,0.063-0.012,0.122-0.033,0.176s-0.052,0.103-0.09,0.145c-0.037,0.041-0.083,0.074-0.137,0.097    c-0.053,0.023-0.109,0.035-0.172,0.035s-0.119-0.012-0.17-0.035s-0.094-0.056-0.131-0.097c-0.037-0.042-0.064-0.09-0.085-0.145    S75.133,36.133,75.133,36.07z"/>
	</g>
	<g class="st3">
		<path class="st10" d="M78.888,36.221c0.228,0,0.428,0.027,0.603,0.082c0.174,0.055,0.325,0.13,0.453,0.227    c0.127,0.096,0.233,0.209,0.319,0.337c0.085,0.129,0.154,0.267,0.206,0.415c0.051,0.148,0.088,0.303,0.109,0.464    s0.033,0.319,0.033,0.476v0.164c0,0.07-0.002,0.125-0.004,0.164h-2.945c0.009,0.246,0.047,0.459,0.115,0.641    c0.067,0.182,0.16,0.332,0.277,0.451c0.118,0.119,0.256,0.207,0.416,0.266c0.158,0.06,0.332,0.089,0.521,0.089    c0.268,0,0.531-0.03,0.789-0.093c0.257-0.061,0.514-0.17,0.768-0.326l0.084,0.691c-0.147,0.075-0.291,0.14-0.433,0.193    c-0.142,0.053-0.282,0.096-0.424,0.129c-0.142,0.034-0.284,0.059-0.43,0.074s-0.298,0.023-0.459,0.023    c-0.266,0-0.519-0.047-0.761-0.141c-0.24-0.094-0.452-0.232-0.635-0.416c-0.183-0.183-0.328-0.41-0.436-0.682    c-0.108-0.271-0.162-0.585-0.162-0.943c0-0.346,0.046-0.66,0.139-0.941c0.093-0.28,0.225-0.521,0.396-0.721    c0.172-0.2,0.381-0.354,0.627-0.461C78.303,36.275,78.58,36.221,78.888,36.221z M78.825,36.85c-0.304,0-0.554,0.09-0.747,0.271    c-0.194,0.18-0.322,0.46-0.383,0.84h2.168c0-0.179-0.025-0.338-0.076-0.476s-0.123-0.255-0.217-0.351    c-0.092-0.095-0.202-0.166-0.33-0.213C79.113,36.874,78.975,36.85,78.825,36.85z"/>
	</g>
	<g class="st3">
		<path class="st4" d="M83.028,40.688c-0.886,0-1.329-0.602-1.329-1.804v-1.237c0-0.134,0-0.256-0.002-0.365    c-0.002-0.108-0.005-0.214-0.01-0.316c-0.006-0.102-0.014-0.206-0.025-0.313c-0.012-0.106-0.026-0.222-0.046-0.348h0.852v2.328    c0,0.236,0.012,0.441,0.035,0.613c0.024,0.172,0.063,0.313,0.118,0.424c0.056,0.11,0.129,0.192,0.219,0.246    c0.09,0.053,0.201,0.079,0.334,0.079c0.122,0,0.252-0.037,0.391-0.111c0.139-0.073,0.271-0.169,0.396-0.283s0.24-0.241,0.345-0.38    c0.104-0.138,0.184-0.271,0.239-0.4v-1.174c0-0.137-0.001-0.26-0.002-0.371c-0.002-0.11-0.006-0.216-0.011-0.316    c-0.006-0.101-0.015-0.203-0.024-0.306c-0.012-0.104-0.027-0.219-0.047-0.348h0.852v2.391c0,0.408,0.023,0.766,0.068,1.071    c0.047,0.306,0.113,0.577,0.202,0.815h-0.706c-0.02-0.047-0.041-0.104-0.063-0.168s-0.043-0.133-0.064-0.205    c-0.021-0.072-0.04-0.148-0.059-0.229c-0.018-0.08-0.032-0.158-0.043-0.237c-0.252,0.311-0.512,0.546-0.779,0.704    C83.603,40.607,83.322,40.688,83.028,40.688z M81.736,35.676l1.412-1.803h0.707l1.412,1.803h-0.623l-1.143-1.174l-1.143,1.174    H81.736z"/>
	</g>
	<g class="st3">
		<path class="st9" d="M88.397,37.094c0.354,0,0.626,0.116,0.813,0.35c0.189,0.234,0.283,0.582,0.283,1.042v2.097h-0.615v-1.846    c0-0.209-0.014-0.383-0.041-0.52s-0.068-0.244-0.123-0.324c-0.055-0.078-0.123-0.134-0.206-0.166    c-0.083-0.031-0.181-0.047-0.294-0.047c-0.119,0-0.236,0.029-0.351,0.086s-0.219,0.131-0.313,0.222    c-0.096,0.091-0.18,0.192-0.254,0.307c-0.072,0.114-0.127,0.229-0.162,0.343v1.945H86.52V38.52c0-0.332-0.018-0.611-0.055-0.841    c-0.036-0.229-0.073-0.401-0.111-0.519h0.599c0.013,0.036,0.026,0.082,0.04,0.139c0.014,0.058,0.025,0.117,0.036,0.18    s0.021,0.125,0.03,0.186l0.026,0.15c0.21-0.255,0.423-0.439,0.638-0.552S88.162,37.094,88.397,37.094z"/>
		<path class="st9" d="M91.856,37.094c0.182,0,0.343,0.021,0.481,0.064c0.14,0.044,0.261,0.104,0.362,0.182    c0.103,0.077,0.188,0.167,0.256,0.27c0.069,0.104,0.124,0.214,0.165,0.332c0.041,0.119,0.07,0.242,0.088,0.371    s0.026,0.256,0.026,0.381v0.131c0,0.057-0.001,0.1-0.003,0.131h-2.356c0.007,0.197,0.037,0.367,0.092,0.514    c0.054,0.145,0.128,0.266,0.222,0.36c0.095,0.095,0.205,0.166,0.333,0.213s0.267,0.07,0.417,0.07c0.215,0,0.426-0.024,0.631-0.073    c0.207-0.05,0.411-0.137,0.615-0.262l0.066,0.553c-0.117,0.061-0.232,0.112-0.346,0.154c-0.113,0.043-0.226,0.078-0.339,0.104    c-0.112,0.026-0.228,0.046-0.344,0.059s-0.239,0.019-0.367,0.019c-0.213,0-0.415-0.037-0.608-0.112    c-0.192-0.075-0.361-0.187-0.508-0.333c-0.146-0.146-0.263-0.328-0.35-0.545c-0.086-0.217-0.129-0.468-0.129-0.754    c0-0.277,0.037-0.529,0.111-0.754s0.18-0.416,0.316-0.576c0.139-0.16,0.305-0.283,0.502-0.369S91.61,37.094,91.856,37.094z     M91.807,37.596c-0.244,0-0.443,0.072-0.598,0.217c-0.156,0.145-0.258,0.369-0.307,0.673h1.734c0-0.144-0.02-0.271-0.061-0.381    s-0.1-0.204-0.174-0.28s-0.162-0.133-0.264-0.171S91.926,37.596,91.807,37.596z"/>
	</g>
	<g>
		<path class="st13" d="M9.4,30.3c0,0-3.9,2.5-4,7.2c0,0-1,0.7-0.4-2.4c0,0-2.2,2.6-1.2,6.2c0,0-0.8,0.2-1-2.6c0,0-0.8,1.9-0.4,3.5    c0,0-0.8-0.6-0.9-1.2c0,0-1.5,4,0.3,7.2c0,0-1.3,0.4-1.3,1.6c0,0-0.1,1.1,1.1,1.1l3.2,0.4l-3.1,1c0,0-0.7,0.2-0.8,1.7    c0,0-0.1,1.6,1.2,1.6l4.7-2.2c0,0,0.2,0.8,0.4,0.9c0,0,0.2,1.5,1.8,1.5c0,0,1.6-0.1,1.6-1.5l0.3-0.8l4.1,1.9c0,0,1.2,1.2,1.8-1.6    c0,0,0.2-1.1-0.7-1.5l-2.2-0.7l2.1-0.2c0,0,0.9-0.1,0.9-1.3c0,0-0.2-1.3-1.2-1.1l-0.8,0.1c0,0,1.1-1.5,1.3-2.1c0,0,0.3,0-1.3,0.5    c0,0,2.5-1.5,1.7-5c0,0-0.2,0.9-0.8,1.4c0,0,2-4.4-2.4-6.8c0,0,0.6,0.7,0.2,1.5c0,0-0.5,1.4-1.3,0.3c0,0-2-4.7,0.3-6.9    c0,0-2.3,0.8-3,4.8c0,0,0.4-3-0.4-4.3c0,0,0.3,1.1-0.3,1.5C8.9,34.2,7.7,34.7,9.4,30.3z"/>
		<path class="st14" d="M9.4,30.3c0,0-3.9,2.5-4,7.2c0,0-1,0.7-0.4-2.4c0,0-2.2,2.6-1.2,6.2c0,0-0.8,0.2-1-2.6c0,0-0.8,1.9-0.4,3.5    c0,0-0.8-0.6-0.9-1.2c0,0-1.5,4,0.3,7.2c0,0-1.3,0.4-1.3,1.6c0,0-0.1,1.1,1.1,1.1l3.2,0.4l-3.1,1c0,0-0.7,0.2-0.8,1.7    c0,0-0.1,1.6,1.2,1.6l4.7-2.2c0,0,0.2,0.8,0.4,0.9c0,0,0.2,1.5,1.8,1.5c0,0,1.6-0.1,1.6-1.5l0.3-0.8l4.1,1.9c0,0,1.2,1.2,1.8-1.6    c0,0,0.2-1.1-0.7-1.5l-2.2-0.7l2.1-0.2c0,0,0.9-0.1,0.9-1.3c0,0-0.2-1.3-1.2-1.1l-0.8,0.1c0,0,1.1-1.5,1.3-2.1c0,0,0.3,0-1.3,0.5    c0,0,2.5-1.5,1.7-5c0,0-0.2,0.9-0.8,1.4c0,0,2-4.4-2.4-6.8c0,0,0.6,0.7,0.2,1.5c0,0-0.5,1.4-1.3,0.3c0,0-2-4.7,0.3-6.9    c0,0-2.3,0.8-3,4.8c0,0,0.4-3-0.4-4.3c0,0,0.3,1.1-0.3,1.5C8.9,34.2,7.7,34.7,9.4,30.3z"/>
		<path class="st15" d="M11,40.7c0,0-1.3,1.5-0.3,3.6c0,0,0.2,0.8,0.7,0.2c0,0,0.5-0.6,0-1.1c0,0,1.9,0.7,1.3,3.8    c0,0,0.4-0.2,0.5-0.7c0,0,0.4,1.7-0.9,2.7c0,0,0.4,0,0.6-0.2c0,0-0.7,2.3-4.2,2.4c0,0-5.5,0.2-4-5.9c0,0,0.1,0.5,0.5,0.8    c0,0-0.2-1.3,0.2-2c0,0-0.2,1.1,0.6,1.6c0,0-0.4-2.1,0.6-3.5c0,0-0.2,0.9-0.1,1.2c0,0,0.2,0.3,0.3,0c0,0,0.7-3.4,2.2-3.8    c0,0-0.5,1.2-0.5,1.7c0,0,0.4,0.9,0.4-0.4c0,0,0.6,1.4,0.2,2.4C9.3,43.5,10.1,41.2,11,40.7z"/>
		<path class="st15" d="M6.8,45L7,45.8c0,0,1.2-1,1.3-1.6c0,0,0.4,1,0.5,1.4c0,0,0.4-1.6,0.8-2.1c0,0-0.5,1.8,0.7,2.8    c0,0,0.2-0.4,0.2-0.6c0,0,2.4,5.1-2.1,5.7C8.6,51.5,4.7,51.7,6.8,45z"/>
		<path class="st15" d="M2.7,49.4c0,0,0.2,0.8-1.1,1.6"/>
		<path class="st15" d="M1.8,48.2c0,0,1.4,3.2,6.6,3.3c0,0,3.6,0.6,6.5-2.3"/>
		<line class="st15" x1="4.7" y1="51.4" x2="5.7" y2="51.1"/>
		<path class="st15" d="M1.8,52.3c0,0,1.1,0.3,1.1,1.8c0,0,0.2,1.1-0.7,1.5"/>
		<path class="st15" d="M7.1,51.4c0,0-0.4,1.5-0.4,2.1"/>
		<path class="st15" d="M10.5,51.4c0,0,0.3,1,0.2,2.2"/>
		<path class="st15" d="M7.1,54.4c0,0-0.1-1.6,1.6-1.6c0,0,1.7,0.1,1.7,1.6"/>
		<path class="st15" d="M16,52.4c0,0-1.4,0-1.5,1.9c0,0,0,0.7,0.3,1.1"/>
		<line class="st15" x1="13.8" y1="51.8" x2="11.7" y2="51.1"/>
		<path class="st15" d="M16,49.1c0,0-0.7-0.1-0.7,1.3c0,0,0,1,0.7,1.2"/>
	</g>
</g>
</svg>