<?xml version="1.0" encoding="UTF-8"?>
<!-- Generator: Adobe Illustrator 24.0.2, SVG Export Plug-In . SVG Version: 6.00 Build 0)  -->
<svg version="1.1" id="Calque_1" xmlns="http://www.w3.org/2000/svg" xmlns:xlink="http://www.w3.org/1999/xlink" x="0px" y="0px" viewBox="0 0 138 63" style="enable-background:new 0 0 138 63;" xml:space="preserve">
<style type="text/css">
	.st0{fill:#FFFFFF;stroke:#9D9D9C;stroke-width:0.7212;stroke-miterlimit:10;}
	.st1{fill:#FFFFFF;stroke:#000000;stroke-width:0.9616;stroke-miterlimit:10;}
	.st2{enable-background:new    ;}
	.st3{fill:#E11683;}
	.st4{fill:#706F6F;}
	.st5{fill:#7DB728;}
	.st6{fill:#575756;}
	.st7{fill:none;stroke:#B2B2B2;stroke-width:0.3606;stroke-miterlimit:10;}
	.st8{fill:#878787;}
	.st9{fill:#9D9D9C;}
	.st10{fill:#B2B2B2;}
	.st11{opacity:0.6;enable-background:new    ;}
	.st12{fill:#FFFFFF;}
	.st13{fill:none;}
	.st14{fill:none;stroke:#575756;stroke-width:0.173;stroke-linecap:round;stroke-linejoin:round;stroke-miterlimit:10;}
	.st15{fill:none;stroke:#575756;stroke-width:0.519;stroke-linecap:round;stroke-linejoin:round;stroke-miterlimit:10;}
	.st16{fill:#E11683;stroke:#575756;stroke-width:0.519;stroke-linecap:round;stroke-linejoin:round;stroke-miterlimit:10;}
	.st17{fill:#FFFFFF;stroke:#575756;stroke-width:0.519;stroke-linecap:round;stroke-linejoin:round;stroke-miterlimit:10;}
	.st18{fill:none;stroke:#575756;stroke-width:0.3421;stroke-linecap:round;stroke-linejoin:round;stroke-miterlimit:10;}
</style>
<g id="_x3C_Groupe_x3E__fée">
	<rect x="66" y="0.5" class="st0" width="34.9" height="34.7"/>
	<rect x="100.9" y="0.5" class="st0" width="36.2" height="30.5"/>
	<path class="st1" d="M45.9,49.4H17V0.6h49v48.7H52c0,0-4.5,8.1-12,9.7C39.9,59.1,44.4,56.1,45.9,49.4z"/>
	<g class="st2">
		<path class="st3" d="M94.401,5.576v0.396h-1.444v0.595c0,0.246,0.002,0.463,0.005,0.65c0.003,0.188,0.015,0.33,0.032,0.428h-0.548    c0.019-0.099,0.029-0.243,0.032-0.43c0.004-0.188,0.006-0.403,0.006-0.648V4.771c0-0.11-0.002-0.212-0.004-0.306    c-0.003-0.093-0.007-0.177-0.012-0.251s-0.013-0.136-0.022-0.186h2.167v0.409h-1.656v1.14H94.401z"/>
	</g>
	<g class="st2">
		<path class="st4" d="M97.315,5.576v0.396h-1.444v0.595c0,0.246,0.002,0.463,0.005,0.65c0.003,0.188,0.015,0.33,0.032,0.428H95.36    c0.019-0.099,0.029-0.243,0.032-0.43c0.004-0.188,0.006-0.403,0.006-0.648V4.771c0-0.11-0.002-0.212-0.004-0.306    c-0.003-0.093-0.007-0.177-0.012-0.251S95.37,4.077,95.36,4.027h2.167v0.409h-1.656v1.14H97.315z"/>
	</g>
	<g class="st2">
		<path class="st3" d="M69.282,8.798v0.798c0.011,0.015,0.038,0.053,0.078,0.113c0.041,0.06,0.098,0.142,0.171,0.246    c0.004,0.012,0.009,0.023,0.015,0.035c0.006,0.012,0.013,0.023,0.021,0.035c0.012,0.016,0.025,0.039,0.041,0.069    c0.039,0.066,0.068,0.112,0.087,0.139c0.077,0.008,0.137,0.011,0.18,0.011c0.174,0,0.369-0.037,0.587-0.11    c0.205-0.073,0.323-0.162,0.354-0.266l0.087,0.18c-0.05,0.135-0.194,0.235-0.431,0.3c-0.197,0.066-0.385,0.099-0.563,0.099    c-0.012,0-0.021,0-0.026,0s-0.011,0-0.014,0c-0.004,0-0.009,0-0.015,0s-0.011,0-0.015,0s-0.009,0-0.015,0s-0.01,0-0.011,0    c-0.002,0-0.004,0-0.006,0s0.015,0.038,0.052,0.113c0.037,0.075,0.1,0.25,0.188,0.523c0.035,0.131,0.07,0.271,0.107,0.419    s0.073,0.308,0.107,0.477c0.031,0.15,0.061,0.31,0.088,0.477c0.027,0.168,0.054,0.338,0.081,0.512    c0.046,0.324,0.077,0.651,0.093,0.983c0.008,0.382,0.002,0.721-0.018,1.018c-0.02,0.251-0.046,0.49-0.081,0.717    c-0.097,0.528-0.265,0.792-0.505,0.792c-0.38,0-0.682-0.36-0.907-1.081c-0.182-0.605-0.273-1.207-0.273-1.804v-3.476    c-0.151-0.097-0.229-0.258-0.232-0.486c0-0.212,0.079-0.318,0.238-0.318l-0.006-4.216c0-0.563,0.07-1.045,0.209-1.446    c0.178-0.536,0.469-0.804,0.872-0.804c0.244,0,0.422,0.1,0.535,0.3c0.111,0.208,0.168,0.528,0.168,0.96    c0,0.382-0.029,0.74-0.087,1.076c-0.008,0.023-0.014,0.049-0.018,0.078s-0.008,0.055-0.012,0.078    c-0.008,0.039-0.019,0.101-0.034,0.185c-0.023,0.124-0.063,0.268-0.117,0.434L69.282,8.798z M68.742,9.828    c0.027,0.019,0.052,0.013,0.075-0.018c0.02-0.031,0.029-0.067,0.029-0.11c0-0.046-0.01-0.087-0.029-0.122    c-0.015-0.031-0.039-0.046-0.069-0.046c-0.074,0-0.11,0.04-0.11,0.121S68.672,9.793,68.742,9.828z M69.573,10.406    c-0.062-0.008-0.102-0.015-0.119-0.021c-0.018-0.005-0.034-0.008-0.049-0.008c-0.027-0.008-0.072-0.025-0.134-0.052l-0.006,3.325    c0,0.413,0.033,0.873,0.099,1.382c0.108,0.759,0.285,1.139,0.529,1.139c0.151,0,0.26-0.135,0.326-0.405    c0.073-0.289,0.11-0.656,0.11-1.099c0-0.231-0.002-0.377-0.006-0.439c-0.008-0.062-0.014-0.139-0.018-0.231    c-0.004-0.046-0.009-0.099-0.015-0.156c-0.005-0.058-0.011-0.12-0.015-0.185c-0.012-0.15-0.027-0.304-0.049-0.46    c-0.021-0.156-0.044-0.315-0.066-0.477c-0.051-0.312-0.107-0.626-0.169-0.942c-0.07-0.324-0.138-0.6-0.204-0.827    C69.71,10.707,69.638,10.525,69.573,10.406z M69.282,8.33c0.027-0.092,0.056-0.181,0.087-0.266    c0.031-0.084,0.06-0.167,0.087-0.249c0.027-0.081,0.054-0.158,0.081-0.231c0.027-0.073,0.052-0.145,0.076-0.214    c0.023-0.065,0.044-0.129,0.064-0.191C69.696,7.117,69.718,7.058,69.741,7c0.015-0.058,0.032-0.112,0.049-0.162    c0.018-0.05,0.034-0.099,0.049-0.145c0.189-0.555,0.297-0.885,0.32-0.989c0.038-0.169,0.072-0.339,0.104-0.509    c0.008-0.062,0.018-0.13,0.026-0.205c0.01-0.075,0.021-0.155,0.032-0.24c0.023-0.173,0.041-0.337,0.053-0.492    c0-0.046,0-0.083,0.002-0.11c0.002-0.027,0.004-0.05,0.004-0.069c0-0.019,0-0.038,0.002-0.055c0.002-0.018,0.004-0.171,0.004-0.46    S70.2,3.131,69.828,3.131c-0.194,0-0.331,0.15-0.413,0.451c-0.089,0.328-0.133,0.817-0.133,1.469V8.33z M69.282,9.897v0.196    c0.011,0.023,0.044,0.042,0.099,0.058c0.039,0.015,0.066,0.023,0.082,0.023L69.282,9.897z"/>
	</g>
	<g class="st2">
		<path class="st4" d="M71.594,8.798v0.798c0.012,0.015,0.037,0.053,0.078,0.113c0.041,0.06,0.098,0.142,0.172,0.246    c0.004,0.012,0.008,0.023,0.014,0.035c0.006,0.012,0.014,0.023,0.021,0.035c0.012,0.016,0.024,0.039,0.04,0.069    c0.038,0.066,0.067,0.112,0.087,0.139c0.078,0.008,0.138,0.011,0.181,0.011c0.175,0,0.37-0.037,0.587-0.11    c0.205-0.073,0.323-0.162,0.354-0.266l0.087,0.18c-0.051,0.135-0.193,0.235-0.43,0.3c-0.197,0.066-0.386,0.099-0.564,0.099    c-0.012,0-0.02,0-0.025,0s-0.012,0-0.015,0c-0.004,0-0.009,0-0.015,0s-0.011,0-0.015,0s-0.009,0-0.015,0s-0.01,0-0.012,0    s-0.004,0-0.006,0s0.016,0.038,0.053,0.113s0.1,0.25,0.189,0.523c0.034,0.131,0.07,0.271,0.107,0.419    c0.036,0.148,0.072,0.308,0.107,0.477c0.03,0.15,0.06,0.31,0.086,0.477c0.027,0.168,0.055,0.338,0.082,0.512    c0.047,0.324,0.078,0.651,0.093,0.983c0.008,0.382,0.002,0.721-0.017,1.018c-0.02,0.251-0.047,0.49-0.082,0.717    c-0.097,0.528-0.266,0.792-0.506,0.792c-0.379,0-0.682-0.36-0.906-1.081c-0.182-0.605-0.273-1.207-0.273-1.804v-3.476    c-0.15-0.097-0.229-0.258-0.232-0.486c0-0.212,0.08-0.318,0.238-0.318l-0.006-4.216c0-0.563,0.07-1.045,0.209-1.446    c0.179-0.536,0.469-0.804,0.872-0.804c0.244,0,0.423,0.1,0.534,0.3c0.113,0.208,0.169,0.528,0.169,0.96    c0,0.382-0.028,0.74-0.087,1.076c-0.008,0.023-0.014,0.049-0.018,0.078s-0.008,0.055-0.012,0.078    c-0.008,0.039-0.02,0.101-0.035,0.185c-0.023,0.124-0.062,0.268-0.115,0.434L71.594,8.798z M71.053,9.828    c0.027,0.019,0.053,0.013,0.076-0.018c0.02-0.031,0.029-0.067,0.029-0.11c0-0.046-0.01-0.087-0.029-0.122    c-0.016-0.031-0.039-0.046-0.07-0.046c-0.073,0-0.109,0.04-0.109,0.121S70.983,9.793,71.053,9.828z M71.885,10.406    c-0.063-0.008-0.103-0.015-0.119-0.021c-0.018-0.005-0.035-0.008-0.05-0.008c-0.027-0.008-0.071-0.025-0.134-0.052l-0.006,3.325    c0,0.413,0.033,0.873,0.099,1.382c0.108,0.759,0.284,1.139,0.528,1.139c0.152,0,0.26-0.135,0.326-0.405    c0.073-0.289,0.11-0.656,0.11-1.099c0-0.231-0.002-0.377-0.006-0.439c-0.008-0.062-0.014-0.139-0.018-0.231    c-0.004-0.046-0.009-0.099-0.015-0.156c-0.006-0.058-0.01-0.12-0.014-0.185c-0.012-0.15-0.029-0.304-0.05-0.46    c-0.021-0.156-0.044-0.315-0.067-0.477c-0.051-0.312-0.106-0.626-0.168-0.942c-0.07-0.324-0.138-0.6-0.203-0.827    C72.021,10.707,71.949,10.525,71.885,10.406z M71.594,8.33c0.027-0.092,0.057-0.181,0.087-0.266    c0.031-0.084,0.06-0.167,0.087-0.249s0.055-0.158,0.082-0.231s0.052-0.145,0.075-0.214c0.023-0.065,0.044-0.129,0.063-0.191    c0.02-0.062,0.041-0.121,0.064-0.179c0.016-0.058,0.031-0.112,0.049-0.162c0.018-0.05,0.034-0.099,0.05-0.145    c0.19-0.555,0.296-0.885,0.319-0.989c0.039-0.169,0.074-0.339,0.105-0.509c0.008-0.062,0.016-0.13,0.025-0.205    s0.021-0.155,0.032-0.24c0.023-0.173,0.04-0.337,0.052-0.492c0-0.046,0.002-0.083,0.004-0.11c0.002-0.027,0.002-0.05,0.002-0.069    c0-0.019,0.002-0.038,0.004-0.055c0.002-0.018,0.002-0.171,0.002-0.46s-0.186-0.434-0.558-0.434c-0.194,0-0.331,0.15-0.413,0.451    c-0.088,0.328-0.133,0.817-0.133,1.469V8.33z M71.594,9.897v0.196c0.012,0.023,0.045,0.042,0.099,0.058    c0.038,0.015,0.065,0.023,0.081,0.023L71.594,9.897z"/>
	</g>
	<g class="st2">
		<path class="st5" d="M128.789,7.024c0,0.246,0.002,0.463,0.005,0.65c0.003,0.188,0.015,0.33,0.032,0.428h-0.548    c0.019-0.099,0.029-0.243,0.032-0.43c0.004-0.188,0.006-0.403,0.006-0.648V5.27c0-0.115-0.002-0.223-0.004-0.323    c-0.003-0.1-0.007-0.189-0.012-0.269c-0.005-0.079-0.013-0.144-0.022-0.193c0.104-0.003,0.215-0.007,0.331-0.012    c0.1-0.003,0.213-0.006,0.338-0.009s0.255-0.003,0.39-0.003c0.2,0,0.383,0.022,0.546,0.068c0.162,0.045,0.301,0.114,0.416,0.206    c0.113,0.091,0.202,0.206,0.265,0.342c0.062,0.136,0.093,0.294,0.093,0.475c0,0.182-0.029,0.345-0.09,0.491    s-0.148,0.269-0.262,0.371c-0.114,0.102-0.253,0.18-0.416,0.234c-0.164,0.055-0.348,0.082-0.552,0.082    c-0.091,0-0.185-0.002-0.282-0.006c-0.096-0.004-0.185-0.01-0.266-0.019V7.024z M128.789,6.318c0.08,0.01,0.16,0.017,0.244,0.02    c0.083,0.003,0.172,0.005,0.266,0.005c0.175,0,0.318-0.02,0.433-0.06c0.114-0.04,0.204-0.094,0.271-0.162s0.114-0.148,0.141-0.238    c0.026-0.09,0.04-0.185,0.04-0.284s-0.015-0.194-0.043-0.284c-0.029-0.09-0.078-0.169-0.145-0.236    c-0.068-0.068-0.157-0.122-0.268-0.163c-0.111-0.041-0.25-0.061-0.416-0.061c-0.059,0-0.111,0-0.158,0.001    c-0.046,0.001-0.089,0.002-0.129,0.002c-0.039,0.001-0.078,0.002-0.117,0.004c-0.038,0.001-0.078,0.003-0.119,0.005V6.318z"/>
		<path class="st5" d="M133.559,8.103V6.43h-1.793v1.673h-0.512c0.019-0.099,0.029-0.243,0.033-0.43    c0.003-0.188,0.005-0.403,0.005-0.648V5.562c0-0.244-0.002-0.46-0.005-0.648c-0.004-0.188-0.015-0.331-0.033-0.43h0.512v1.549    h1.793V4.484h0.51c-0.018,0.1-0.029,0.243-0.032,0.43s-0.005,0.404-0.005,0.648v1.462c0,0.245,0.002,0.46,0.005,0.648    s0.015,0.331,0.032,0.43H133.559z"/>
	</g>
	<g class="st2">
		<path class="st5" d="M104.826,8.299v7.373h-0.547V8.64l-0.215,0.602l-0.081-0.191c0.012-0.039,0.028-0.093,0.052-0.162    c0.023-0.062,0.039-0.106,0.047-0.133c0.004-0.012,0.018-0.05,0.041-0.116c0.02-0.058,0.043-0.129,0.072-0.214    c0.029-0.085,0.057-0.218,0.084-0.399V7.512h0.547v0.515c0.127-0.162,0.275-0.29,0.441-0.382c0.158-0.089,0.339-0.133,0.541-0.133    c0.209,0,0.381,0.044,0.517,0.133c0.167,0.116,0.25,0.279,0.25,0.492v1.44c0,0.096,0.01,0.188,0.028,0.277    c0.023,0.112,0.084,0.167,0.181,0.167c0.093,0,0.202-0.154,0.325-0.462c0.008-0.031,0.018-0.062,0.026-0.092    c0.01-0.031,0.021-0.06,0.032-0.087c0.008-0.023,0.015-0.047,0.021-0.072c0.005-0.025,0.015-0.049,0.026-0.072    c0.031-0.1,0.05-0.162,0.058-0.185l0.093,0.179c-0.062,0.205-0.114,0.364-0.156,0.48c-0.043,0.116-0.072,0.191-0.088,0.226    c-0.127,0.193-0.347,0.289-0.656,0.289c-0.128,0-0.221-0.029-0.279-0.087c-0.115-0.081-0.174-0.196-0.174-0.347V8.207    c0-0.127-0.02-0.228-0.059-0.301c-0.055-0.108-0.148-0.162-0.285-0.162c-0.135,0-0.284,0.054-0.447,0.162    c-0.182,0.112-0.313,0.245-0.395,0.399V8.299z"/>
		<path class="st5" d="M107.824,10.225h-0.546V4.343c0-0.613,0.067-1.12,0.204-1.521c0.178-0.52,0.474-0.78,0.889-0.78    c0.24,0,0.422,0.15,0.546,0.451c0.104,0.254,0.157,0.598,0.157,1.029c0,0.313-0.023,0.627-0.07,0.943    c-0.046,0.309-0.103,0.569-0.168,0.781c-0.027,0.069-0.047,0.127-0.059,0.173c-0.012,0.039-0.025,0.077-0.041,0.116    s-0.028,0.081-0.04,0.127c-0.031,0.088-0.065,0.187-0.102,0.295c-0.037,0.108-0.075,0.225-0.113,0.353    c-0.077,0.235-0.177,0.515-0.296,0.838c-0.098,0.258-0.218,0.538-0.361,0.839v0.162c0.102-0.169,0.256-0.322,0.465-0.457    c0.205-0.131,0.405-0.197,0.6-0.197c0.205,0,0.377,0.044,0.517,0.133c0.167,0.112,0.25,0.276,0.25,0.492v1.446    c0,0.096,0.009,0.183,0.028,0.26c0.016,0.069,0.064,0.104,0.146,0.104c0.05,0,0.113-0.083,0.191-0.249    c0.031-0.077,0.053-0.135,0.063-0.174c0.012-0.027,0.022-0.055,0.032-0.083c0.01-0.029,0.021-0.057,0.031-0.084    c0.031-0.089,0.068-0.185,0.111-0.289l0.093,0.179c-0.175,0.49-0.286,0.765-0.337,0.827c-0.113,0.112-0.277,0.167-0.494,0.167    c-0.283,0-0.424-0.137-0.424-0.411V8.183c0-0.127-0.02-0.229-0.059-0.306c-0.059-0.101-0.152-0.15-0.285-0.15    c-0.162,0-0.338,0.075-0.528,0.226c-0.187,0.146-0.319,0.322-0.401,0.526V10.225z M107.807,7.628    c0.023-0.058,0.048-0.118,0.073-0.182c0.024-0.063,0.05-0.13,0.073-0.199c0.022-0.066,0.047-0.133,0.072-0.203    s0.051-0.139,0.078-0.208c0.023-0.069,0.049-0.14,0.076-0.211c0.026-0.071,0.052-0.144,0.074-0.217    c0.023-0.069,0.049-0.14,0.076-0.211s0.055-0.144,0.082-0.217c0.019-0.065,0.039-0.128,0.061-0.188    c0.021-0.06,0.041-0.117,0.061-0.17c0.023-0.077,0.057-0.174,0.1-0.29c0.026-0.088,0.049-0.163,0.066-0.222    c0.018-0.06,0.031-0.105,0.043-0.136c0.027-0.127,0.064-0.341,0.111-0.642c0.043-0.32,0.063-0.598,0.063-0.833    c0-0.343-0.036-0.611-0.11-0.804c-0.093-0.239-0.238-0.358-0.436-0.358c-0.244,0-0.407,0.254-0.488,0.763    c-0.051,0.297-0.076,0.692-0.076,1.186V7.628z"/>
	</g>
	<g class="st2">
		<path class="st6" d="M23.663,11.676v1.049c0.015,0.02,0.05,0.069,0.103,0.148c0.054,0.079,0.128,0.187,0.225,0.323    c0.005,0.015,0.012,0.03,0.02,0.045c0.007,0.015,0.016,0.03,0.026,0.046c0.016,0.02,0.033,0.05,0.054,0.091    c0.051,0.086,0.089,0.147,0.114,0.183c0.102,0.01,0.181,0.015,0.237,0.015c0.229,0,0.486-0.048,0.771-0.145    c0.27-0.096,0.425-0.213,0.466-0.35l0.115,0.236c-0.066,0.177-0.255,0.309-0.565,0.395c-0.259,0.086-0.506,0.129-0.741,0.129    c-0.015,0-0.027,0-0.034,0c-0.008,0-0.014,0-0.019,0c-0.005,0-0.012,0-0.019,0c-0.008,0-0.014,0-0.02,0c-0.005,0-0.011,0-0.019,0    c-0.007,0-0.013,0-0.015,0s-0.005,0-0.008,0c-0.002,0,0.021,0.049,0.069,0.148c0.048,0.099,0.131,0.328,0.249,0.688    c0.045,0.172,0.093,0.356,0.141,0.551c0.048,0.195,0.096,0.404,0.141,0.627c0.041,0.197,0.079,0.407,0.115,0.627    s0.071,0.445,0.107,0.672c0.061,0.426,0.102,0.856,0.122,1.292c0.01,0.501,0.002,0.947-0.023,1.337    c-0.025,0.33-0.061,0.644-0.107,0.942c-0.127,0.694-0.349,1.042-0.665,1.042c-0.499,0-0.896-0.474-1.191-1.421    c-0.239-0.795-0.359-1.586-0.359-2.371v-4.568c-0.199-0.127-0.3-0.339-0.305-0.639c0-0.278,0.104-0.418,0.313-0.418l-0.008-5.541    c0-0.74,0.092-1.373,0.275-1.9c0.234-0.704,0.616-1.056,1.146-1.056c0.321,0,0.555,0.132,0.703,0.395    c0.147,0.273,0.221,0.694,0.221,1.262c0,0.501-0.038,0.973-0.114,1.414c-0.01,0.03-0.018,0.064-0.023,0.103    c-0.005,0.038-0.01,0.072-0.016,0.103c-0.01,0.051-0.025,0.132-0.045,0.244c-0.031,0.162-0.082,0.352-0.153,0.57L23.663,11.676z     M22.953,13.029c0.036,0.025,0.069,0.018,0.1-0.022c0.025-0.041,0.038-0.089,0.038-0.145c0-0.061-0.013-0.114-0.038-0.16    c-0.021-0.041-0.051-0.061-0.092-0.061c-0.097,0-0.145,0.053-0.145,0.159S22.861,12.983,22.953,13.029z M24.045,13.789    c-0.082-0.01-0.134-0.019-0.157-0.027c-0.023-0.007-0.044-0.011-0.065-0.011c-0.036-0.01-0.094-0.033-0.175-0.068l-0.008,4.37    c0,0.542,0.043,1.148,0.13,1.816c0.143,0.999,0.374,1.498,0.695,1.498c0.199,0,0.341-0.178,0.428-0.532    c0.097-0.38,0.145-0.861,0.145-1.444c0-0.304-0.002-0.497-0.007-0.578c-0.01-0.081-0.018-0.183-0.023-0.304    c-0.005-0.061-0.012-0.129-0.019-0.205c-0.008-0.076-0.014-0.157-0.019-0.243c-0.016-0.198-0.037-0.399-0.065-0.604    c-0.028-0.205-0.058-0.414-0.088-0.627c-0.066-0.41-0.14-0.823-0.222-1.239c-0.092-0.426-0.181-0.788-0.267-1.087    C24.226,14.184,24.131,13.946,24.045,13.789z M23.663,11.061c0.036-0.122,0.074-0.238,0.115-0.35    c0.041-0.111,0.079-0.221,0.114-0.327c0.036-0.106,0.071-0.208,0.107-0.304s0.069-0.19,0.099-0.281    c0.031-0.086,0.059-0.17,0.084-0.251c0.025-0.081,0.053-0.16,0.084-0.235c0.02-0.076,0.042-0.147,0.065-0.213    c0.022-0.066,0.044-0.129,0.064-0.19c0.25-0.729,0.39-1.163,0.42-1.3c0.051-0.223,0.097-0.446,0.137-0.669    c0.01-0.081,0.022-0.171,0.035-0.27c0.013-0.099,0.026-0.204,0.042-0.315c0.03-0.228,0.053-0.443,0.069-0.646    c0-0.061,0.001-0.109,0.003-0.145c0.003-0.036,0.004-0.066,0.004-0.091s0.001-0.049,0.004-0.072    c0.002-0.022,0.004-0.224,0.004-0.604s-0.245-0.57-0.733-0.57c-0.254,0-0.435,0.198-0.542,0.593    c-0.117,0.431-0.176,1.074-0.176,1.93V11.061z M23.663,13.12v0.258c0.015,0.031,0.059,0.056,0.13,0.076    c0.051,0.021,0.086,0.03,0.107,0.03L23.663,13.12z"/>
	</g>
	<path class="st7" d="M33.7,45.1c0,0,6.6,3.7,15.5,0"/>
	<g class="st2">
		<path class="st8" d="M54.052,54.497v0.396h-1.444v0.595c0,0.246,0.001,0.463,0.005,0.65s0.014,0.33,0.032,0.428h-0.548    c0.018-0.1,0.029-0.242,0.032-0.43c0.003-0.188,0.005-0.404,0.005-0.648v-1.797c0-0.11-0.001-0.213-0.004-0.307    c-0.002-0.093-0.006-0.177-0.011-0.251s-0.013-0.136-0.022-0.187h2.167v0.41h-1.656v1.14H54.052z"/>
		<path class="st8" d="M54.799,55.314c0-0.213,0.032-0.401,0.097-0.566c0.065-0.164,0.152-0.303,0.262-0.416    s0.237-0.199,0.384-0.256c0.146-0.059,0.301-0.088,0.465-0.088c0.171,0,0.328,0.029,0.47,0.088    c0.142,0.057,0.264,0.143,0.366,0.256c0.102,0.113,0.181,0.252,0.238,0.416c0.056,0.165,0.084,0.354,0.084,0.566    s-0.032,0.402-0.097,0.565c-0.064,0.163-0.152,0.301-0.261,0.411c-0.11,0.111-0.238,0.195-0.384,0.252s-0.301,0.086-0.466,0.086    c-0.171,0-0.327-0.029-0.469-0.086s-0.264-0.141-0.366-0.252c-0.102-0.11-0.181-0.248-0.238-0.411S54.799,55.527,54.799,55.314z     M55.26,55.314c0,0.145,0.018,0.273,0.052,0.387c0.035,0.114,0.084,0.211,0.148,0.289s0.14,0.139,0.228,0.18    c0.088,0.041,0.186,0.063,0.294,0.063c0.1,0,0.193-0.021,0.282-0.063c0.088-0.041,0.165-0.102,0.23-0.18    c0.066-0.078,0.117-0.175,0.155-0.289c0.037-0.113,0.056-0.242,0.056-0.387s-0.017-0.275-0.052-0.391    c-0.035-0.114-0.084-0.211-0.148-0.292c-0.064-0.08-0.14-0.142-0.229-0.183c-0.089-0.043-0.187-0.064-0.293-0.064    c-0.101,0-0.196,0.021-0.284,0.064c-0.088,0.041-0.165,0.103-0.229,0.183c-0.065,0.081-0.116,0.178-0.153,0.292    C55.278,55.039,55.26,55.17,55.26,55.314z"/>
		<path class="st8" d="M57.788,56.566v-1.524c0-0.244-0.014-0.451-0.042-0.62c-0.027-0.17-0.055-0.297-0.083-0.383h0.448    c0.02,0.046,0.038,0.104,0.053,0.174c0.016,0.07,0.029,0.148,0.04,0.234s0.019,0.178,0.023,0.275    c0.005,0.098,0.008,0.195,0.008,0.295v0.161c0.084-0.233,0.167-0.427,0.249-0.579c0.081-0.152,0.162-0.274,0.243-0.365    s0.162-0.154,0.243-0.191c0.082-0.035,0.165-0.055,0.249-0.055c0.063,0,0.122,0.006,0.174,0.018    c0.053,0.012,0.107,0.031,0.162,0.058l-0.075,0.458c-0.048-0.02-0.09-0.033-0.127-0.039c-0.037-0.007-0.082-0.01-0.135-0.01    c-0.068,0-0.139,0.027-0.214,0.085s-0.148,0.133-0.221,0.228c-0.072,0.094-0.141,0.2-0.205,0.318    c-0.065,0.119-0.122,0.242-0.171,0.366c-0.049,0.125-0.088,0.247-0.117,0.366c-0.029,0.118-0.043,0.225-0.043,0.316    c0,0.041,0,0.08,0.001,0.114c0,0.034,0.003,0.067,0.007,0.101c0.004,0.031,0.01,0.064,0.016,0.096    c0.007,0.033,0.015,0.067,0.025,0.104H57.788z"/>
		<path class="st8" d="M61.15,53.988c0.166,0,0.309,0.02,0.43,0.059c0.12,0.039,0.226,0.09,0.317,0.152l-0.087,0.446    c-0.113-0.083-0.225-0.145-0.336-0.186c-0.111-0.042-0.231-0.062-0.361-0.062c-0.111,0-0.214,0.021-0.31,0.063    c-0.095,0.042-0.178,0.104-0.249,0.182c-0.07,0.08-0.125,0.178-0.166,0.293s-0.06,0.246-0.06,0.392    c0,0.134,0.018,0.255,0.055,0.364s0.089,0.203,0.157,0.281c0.068,0.078,0.15,0.139,0.247,0.182s0.205,0.064,0.326,0.064    c0.151,0,0.288-0.025,0.411-0.076s0.239-0.125,0.349-0.221l0.05,0.434c-0.063,0.049-0.126,0.089-0.188,0.123    c-0.063,0.033-0.127,0.063-0.195,0.084c-0.068,0.022-0.142,0.039-0.219,0.05c-0.078,0.011-0.164,0.017-0.257,0.017    c-0.167,0-0.324-0.029-0.471-0.088c-0.146-0.059-0.274-0.145-0.383-0.255c-0.11-0.11-0.196-0.244-0.259-0.401    c-0.063-0.156-0.094-0.334-0.094-0.533c0-0.186,0.03-0.362,0.091-0.527c0.061-0.166,0.147-0.311,0.259-0.434    c0.112-0.124,0.248-0.223,0.409-0.294C60.773,54.025,60.952,53.988,61.15,53.988z"/>
		<path class="st8" d="M63.59,53.988c0.136,0,0.256,0.017,0.361,0.049c0.105,0.032,0.195,0.077,0.271,0.134    c0.077,0.058,0.141,0.124,0.192,0.2s0.093,0.157,0.124,0.244c0.03,0.088,0.053,0.18,0.066,0.274s0.02,0.188,0.02,0.281v0.097    c0,0.041-0.001,0.074-0.003,0.097h-1.766c0.005,0.146,0.028,0.272,0.068,0.38c0.041,0.107,0.097,0.195,0.167,0.266    c0.071,0.07,0.154,0.123,0.249,0.158c0.096,0.034,0.2,0.051,0.313,0.051c0.161,0,0.319-0.018,0.473-0.054    c0.155-0.036,0.308-0.101,0.461-0.193l0.05,0.409c-0.088,0.045-0.174,0.082-0.259,0.113c-0.085,0.031-0.169,0.058-0.254,0.077    c-0.084,0.021-0.17,0.034-0.258,0.044c-0.087,0.009-0.179,0.014-0.275,0.014c-0.16,0-0.312-0.028-0.456-0.084    c-0.144-0.055-0.271-0.137-0.381-0.245s-0.197-0.242-0.262-0.402c-0.064-0.161-0.097-0.347-0.097-0.558    c0-0.205,0.027-0.391,0.083-0.557s0.135-0.309,0.238-0.426c0.103-0.119,0.228-0.209,0.376-0.273    C63.24,54.021,63.406,53.988,63.59,53.988z M63.553,54.361c-0.183,0-0.332,0.053-0.448,0.159s-0.192,0.272-0.229,0.497h1.3    c0-0.105-0.015-0.199-0.046-0.281s-0.074-0.15-0.129-0.207s-0.122-0.099-0.198-0.127C63.726,54.375,63.643,54.361,63.553,54.361z"/>
	</g>
	<g class="st2">
		<path class="st8" d="M19.548,52.844h1.431v0.162h-0.604c-0.132,0-0.222,0.041-0.269,0.125c-0.027,0.047-0.04,0.107-0.04,0.182    v4.551c0,0.1,0.015,0.176,0.043,0.225c0.05,0.086,0.146,0.129,0.289,0.129h0.581v0.172h-1.431V52.844z"/>
		<path class="st8" d="M24.043,54.222c-0.052,0.181-0.082,0.275-0.088,0.284h-0.729v2.173c0,0.269,0.142,0.425,0.425,0.468    c0.12,0.019,0.18,0.043,0.181,0.074c-0.037,0.066-0.184,0.101-0.441,0.101h-0.681c-0.24,0-0.36-0.034-0.36-0.101    c0-0.032,0.028-0.055,0.085-0.066c0.042-0.006,0.084-0.013,0.128-0.018c0.148-0.029,0.222-0.186,0.222-0.471v-2.16h-0.578    l0.04-0.133l0.042-0.131h0.49l0.03-0.637c0.01-0.246,0.087-0.5,0.23-0.764c0.132-0.244,0.298-0.455,0.497-0.631    c0.206-0.184,0.382-0.277,0.529-0.283c0.179-0.006,0.318,0.014,0.417,0.061c0.083,0.039,0.125,0.082,0.126,0.13    c-0.008,0.04-0.043,0.124-0.108,0.251c-0.066,0.135-0.109,0.201-0.129,0.201c-0.081-0.256-0.21-0.385-0.389-0.385    c-0.111,0-0.235,0.043-0.374,0.128c-0.259,0.158-0.389,0.585-0.389,1.278c0,0.053,0.002,0.107,0.007,0.166v0.086v0.378H24.043z"/>
		<path class="st8" d="M27.259,58.389h-1.435v-0.165h0.607c0.204,0,0.306-0.102,0.306-0.304v-4.555c0-0.232-0.109-0.35-0.329-0.35    h-0.584v-0.172h1.435V58.389z"/>
	</g>
	<g class="st2">
		<path class="st8" d="M53.961,58.867c0-0.271,0.102-0.501,0.306-0.689c0.204-0.189,0.454-0.284,0.75-0.284    c0.291,0,0.536,0.094,0.736,0.281c0.2,0.187,0.3,0.418,0.3,0.692c0,0.309-0.144,0.563-0.433,0.765    c0.322,0.186,0.483,0.458,0.483,0.819c0,0.285-0.104,0.521-0.313,0.709c-0.209,0.187-0.473,0.279-0.792,0.279    c-0.315,0-0.581-0.095-0.794-0.285c-0.214-0.191-0.321-0.428-0.321-0.709c0-0.352,0.164-0.623,0.493-0.813    c-0.148-0.118-0.254-0.237-0.318-0.354C53.993,59.158,53.961,59.021,53.961,58.867z M55.6,60.471v-0.049    c0-0.159-0.057-0.288-0.17-0.389c-0.114-0.1-0.261-0.149-0.442-0.149c-0.178,0-0.322,0.05-0.435,0.151    c-0.112,0.101-0.168,0.23-0.168,0.391c0,0.161,0.057,0.291,0.172,0.393c0.115,0.101,0.263,0.15,0.446,0.15    c0.174,0,0.317-0.046,0.43-0.139C55.544,60.738,55.6,60.618,55.6,60.471z M55.558,58.883c0-0.15-0.052-0.275-0.155-0.372    c-0.104-0.098-0.235-0.146-0.395-0.146c-0.161,0-0.293,0.048-0.396,0.144s-0.154,0.219-0.154,0.369    c0,0.145,0.054,0.268,0.163,0.369c0.109,0.104,0.239,0.154,0.392,0.154c0.151,0,0.28-0.051,0.386-0.152    C55.504,59.146,55.558,59.024,55.558,58.883z"/>
		<path class="st8" d="M57.563,57.894c0.319,0,0.583,0.167,0.791,0.499c0.208,0.334,0.313,0.756,0.313,1.268    c0,0.525-0.104,0.953-0.313,1.281c-0.208,0.329-0.479,0.494-0.811,0.494c-0.337,0-0.607-0.162-0.812-0.484    c-0.205-0.322-0.307-0.748-0.307-1.281c0-0.525,0.105-0.952,0.316-1.282C56.952,58.059,57.226,57.894,57.563,57.894z     M57.567,58.364h-0.025c-0.191,0-0.342,0.117-0.454,0.351c-0.112,0.234-0.168,0.551-0.168,0.951c0,0.409,0.055,0.73,0.165,0.963    c0.109,0.234,0.261,0.35,0.453,0.35c0.193,0,0.345-0.115,0.456-0.35c0.111-0.232,0.167-0.549,0.167-0.949S58.107,58.959,58,58.721    C57.893,58.483,57.749,58.364,57.567,58.364z"/>
		<path class="st8" d="M61.136,57.898c0.214,0,0.397,0.076,0.548,0.229c0.151,0.151,0.227,0.334,0.227,0.547    c0,0.212-0.076,0.394-0.228,0.545c-0.152,0.152-0.334,0.229-0.547,0.229c-0.212,0-0.395-0.076-0.546-0.229    c-0.152-0.151-0.228-0.333-0.228-0.545c0-0.213,0.076-0.396,0.227-0.547C60.74,57.975,60.922,57.898,61.136,57.898z     M62.898,57.889h0.385l-2.288,3.551h-0.385L62.898,57.889z M61.13,58.275c-0.111,0-0.206,0.039-0.285,0.117    s-0.118,0.172-0.118,0.283c0,0.108,0.04,0.201,0.119,0.279c0.08,0.077,0.174,0.115,0.283,0.115c0.111,0,0.206-0.038,0.284-0.115    c0.079-0.078,0.118-0.171,0.118-0.279c0-0.112-0.039-0.207-0.117-0.285C61.338,58.314,61.243,58.275,61.13,58.275z M62.779,59.894    c0.212,0,0.395,0.075,0.547,0.227c0.152,0.151,0.229,0.333,0.229,0.544c0,0.212-0.076,0.392-0.228,0.539    c-0.152,0.148-0.334,0.223-0.548,0.223c-0.215,0-0.399-0.074-0.551-0.223C62.077,61.056,62,60.876,62,60.664    c0-0.213,0.076-0.395,0.229-0.545C62.382,59.969,62.565,59.894,62.779,59.894z M62.774,60.27c-0.109,0-0.202,0.039-0.279,0.117    c-0.077,0.077-0.115,0.17-0.115,0.279s0.038,0.204,0.115,0.282c0.077,0.079,0.17,0.118,0.279,0.118    c0.113,0,0.208-0.039,0.286-0.117c0.078-0.077,0.117-0.172,0.117-0.283s-0.039-0.204-0.117-0.281    C62.981,60.309,62.887,60.27,62.774,60.27z"/>
	</g>
	<g>
		<g class="st2">
			<path class="st3" d="M78.768,12.222h1.453v-1.265c0-1.084,0.222-1.897,0.665-2.439c0.442-0.542,1.057-0.813,1.841-0.813     c0.286,0,0.566,0.045,0.844,0.134c0.275,0.089,0.527,0.213,0.755,0.372L83.99,9.294c-0.184-0.135-0.387-0.241-0.609-0.318     S82.939,8.86,82.727,8.86c-0.188,0-0.355,0.032-0.501,0.098c-0.146,0.065-0.267,0.17-0.362,0.314     c-0.098,0.145-0.172,0.331-0.223,0.56s-0.076,0.507-0.076,0.835v1.554h1.961v1.048h-1.961v2.574c0,0.352,0.004,0.7,0.012,1.044     c0.007,0.345,0.019,0.672,0.035,0.983c0.018,0.311,0.041,0.599,0.07,0.864c0.028,0.265,0.063,0.492,0.102,0.68h-1.563V13.27     h-1.453V12.222z"/>
		</g>
		<g class="st2">
			<path class="st9" d="M83.893,12.222h1.453v-1.265c0-1.084,0.222-1.897,0.665-2.439c0.442-0.542,1.057-0.813,1.841-0.813     c0.286,0,0.566,0.045,0.844,0.134c0.275,0.089,0.527,0.213,0.755,0.372l-0.335,1.084c-0.184-0.135-0.387-0.241-0.609-0.318     S88.064,8.86,87.852,8.86c-0.188,0-0.355,0.032-0.501,0.098c-0.146,0.065-0.267,0.17-0.362,0.314     c-0.098,0.145-0.172,0.331-0.223,0.56s-0.076,0.507-0.076,0.835v1.554h1.961v1.048h-1.961v2.574c0,0.352,0.004,0.7,0.012,1.044     c0.007,0.345,0.019,0.672,0.035,0.983c0.018,0.311,0.041,0.599,0.07,0.864c0.028,0.265,0.063,0.492,0.102,0.68h-1.563V13.27     h-1.453V12.222z"/>
		</g>
		<g class="st2">
			<path class="st10" d="M73.977,23.957c0.222,0,0.412,0.026,0.573,0.078c0.16,0.052,0.302,0.119,0.423,0.203l-0.115,0.595     c-0.151-0.11-0.301-0.193-0.449-0.248c-0.148-0.055-0.309-0.083-0.48-0.083c-0.148,0-0.287,0.028-0.414,0.084     s-0.238,0.137-0.332,0.243c-0.094,0.106-0.168,0.236-0.221,0.39s-0.08,0.328-0.08,0.522c0,0.179,0.024,0.34,0.073,0.486     s0.118,0.271,0.209,0.375s0.2,0.186,0.329,0.243c0.128,0.057,0.273,0.086,0.436,0.086c0.201,0,0.383-0.034,0.547-0.103     s0.319-0.167,0.465-0.294l0.066,0.579c-0.084,0.064-0.168,0.118-0.25,0.164c-0.084,0.045-0.17,0.083-0.262,0.112     c-0.09,0.03-0.188,0.052-0.291,0.066c-0.104,0.014-0.219,0.021-0.343,0.021c-0.224,0-0.433-0.039-0.628-0.117     c-0.194-0.078-0.365-0.191-0.511-0.339c-0.146-0.147-0.261-0.326-0.345-0.535c-0.085-0.209-0.127-0.446-0.127-0.71     c0-0.249,0.041-0.483,0.121-0.704c0.081-0.22,0.196-0.413,0.346-0.578s0.33-0.296,0.545-0.392     C73.475,24.004,73.713,23.957,73.977,23.957z"/>
			<path class="st10" d="M77.68,23.957c0.354,0,0.625,0.115,0.813,0.345c0.188,0.23,0.282,0.572,0.282,1.026v2.065h-0.614v-1.817     c0-0.207-0.015-0.378-0.042-0.512s-0.068-0.241-0.124-0.319s-0.124-0.133-0.208-0.164c-0.082-0.031-0.18-0.046-0.29-0.046     c-0.12,0-0.236,0.028-0.351,0.084c-0.113,0.056-0.219,0.128-0.314,0.218c-0.095,0.089-0.179,0.19-0.252,0.302     c-0.072,0.113-0.127,0.225-0.162,0.337v1.917h-0.615v-3.734c0-0.356-0.002-0.669-0.006-0.937     c-0.005-0.268-0.02-0.473-0.043-0.616h0.664v2.544c0.164-0.231,0.355-0.405,0.578-0.521     C77.217,24.014,77.445,23.957,77.68,23.957z"/>
			<path class="st10" d="M79.738,22.948c0-0.062,0.01-0.119,0.029-0.173c0.021-0.054,0.049-0.101,0.086-0.142     c0.036-0.041,0.08-0.073,0.131-0.096c0.051-0.023,0.107-0.035,0.169-0.035s0.12,0.011,0.173,0.035     c0.053,0.023,0.099,0.055,0.137,0.096c0.037,0.041,0.066,0.088,0.089,0.142c0.022,0.054,0.033,0.112,0.033,0.173     c0,0.062-0.011,0.12-0.033,0.174c-0.022,0.054-0.052,0.101-0.089,0.142c-0.038,0.041-0.084,0.073-0.137,0.096     s-0.111,0.035-0.173,0.035s-0.118-0.012-0.169-0.035s-0.095-0.055-0.131-0.096c-0.037-0.041-0.065-0.088-0.086-0.142     C79.748,23.068,79.738,23.01,79.738,22.948z M80.469,25.823c0,0.106,0.002,0.231,0.006,0.375     c0.002,0.145,0.007,0.291,0.013,0.438c0.005,0.148,0.013,0.289,0.021,0.423c0.007,0.135,0.017,0.246,0.027,0.334h-0.681v-1.751     c0-0.161-0.001-0.319-0.001-0.476c-0.002-0.157-0.004-0.305-0.008-0.445c-0.003-0.14-0.008-0.27-0.014-0.39     c-0.008-0.12-0.016-0.223-0.027-0.309h0.664V25.823z"/>
		</g>
		<g class="st2">
			<path class="st3" d="M81.245,23.283h0.83V22.56c0-0.62,0.127-1.084,0.38-1.394c0.254-0.31,0.604-0.465,1.053-0.465     c0.162,0,0.323,0.026,0.48,0.077c0.158,0.051,0.303,0.122,0.432,0.213l-0.19,0.62c-0.104-0.077-0.222-0.138-0.349-0.182     c-0.127-0.044-0.252-0.066-0.373-0.066c-0.108,0-0.203,0.019-0.287,0.056c-0.082,0.037-0.152,0.097-0.207,0.18     c-0.056,0.083-0.098,0.189-0.127,0.32s-0.043,0.29-0.043,0.477v0.888h1.12v0.599h-1.12v1.471c0,0.201,0.002,0.4,0.006,0.597     c0.004,0.197,0.011,0.384,0.021,0.562s0.022,0.342,0.04,0.494c0.016,0.151,0.035,0.281,0.058,0.388h-0.893v-3.511h-0.83V23.283z"/>
		</g>
		<g class="st2">
			<path class="st9" d="M84.36,23.283h0.83V22.56c0-0.62,0.127-1.084,0.38-1.394c0.254-0.31,0.604-0.465,1.053-0.465     c0.162,0,0.323,0.026,0.48,0.077c0.158,0.051,0.303,0.122,0.432,0.213l-0.19,0.62c-0.104-0.077-0.222-0.138-0.349-0.182     c-0.127-0.044-0.252-0.066-0.373-0.066c-0.108,0-0.203,0.019-0.287,0.056c-0.082,0.037-0.152,0.097-0.207,0.18     c-0.056,0.083-0.098,0.189-0.127,0.32s-0.043,0.29-0.043,0.477v0.888h1.12v0.599h-1.12v1.471c0,0.201,0.002,0.4,0.006,0.597     c0.004,0.197,0.011,0.384,0.021,0.562s0.022,0.342,0.04,0.494c0.016,0.151,0.035,0.281,0.058,0.388H85.19v-3.511h-0.83V23.283z"/>
		</g>
		<g class="st2">
			<path class="st10" d="M87.824,27.393v-2.032c0-0.326-0.018-0.602-0.055-0.828c-0.037-0.226-0.074-0.396-0.111-0.511h0.598     c0.027,0.062,0.051,0.139,0.071,0.233c0.021,0.094,0.039,0.198,0.054,0.313c0.014,0.114,0.024,0.237,0.031,0.367     c0.006,0.13,0.01,0.261,0.01,0.393v0.215c0.113-0.311,0.224-0.568,0.332-0.771s0.217-0.366,0.324-0.487s0.215-0.206,0.324-0.255     c0.107-0.048,0.219-0.072,0.332-0.072c0.084,0,0.161,0.007,0.232,0.023c0.07,0.016,0.143,0.041,0.215,0.076l-0.1,0.611     c-0.064-0.026-0.12-0.044-0.169-0.053s-0.108-0.013-0.179-0.013c-0.092,0-0.187,0.038-0.286,0.114     c-0.1,0.076-0.198,0.177-0.294,0.302s-0.188,0.268-0.273,0.426c-0.087,0.159-0.162,0.321-0.229,0.487     c-0.064,0.167-0.117,0.329-0.156,0.488c-0.038,0.158-0.058,0.299-0.058,0.423c0,0.055,0.001,0.105,0.002,0.152     s0.005,0.091,0.01,0.134s0.013,0.086,0.021,0.129s0.021,0.089,0.033,0.137H87.824z"/>
			<path class="st10" d="M92.174,23.957c0.182,0,0.343,0.021,0.482,0.064c0.139,0.043,0.26,0.102,0.361,0.178     s0.188,0.165,0.256,0.266c0.068,0.101,0.123,0.21,0.164,0.327s0.07,0.238,0.088,0.365c0.019,0.126,0.027,0.251,0.027,0.375v0.129     c0,0.055-0.001,0.098-0.004,0.129h-2.354c0.006,0.194,0.037,0.362,0.091,0.505s0.128,0.262,0.223,0.355     c0.095,0.093,0.204,0.164,0.332,0.209c0.128,0.046,0.267,0.07,0.417,0.07c0.215,0,0.425-0.024,0.631-0.073     c0.205-0.049,0.41-0.135,0.614-0.258l0.066,0.545c-0.118,0.06-0.232,0.11-0.345,0.152c-0.113,0.042-0.227,0.076-0.34,0.103     c-0.112,0.026-0.227,0.045-0.344,0.058c-0.115,0.012-0.238,0.018-0.367,0.018c-0.212,0-0.414-0.037-0.607-0.111     c-0.192-0.074-0.361-0.183-0.508-0.327c-0.146-0.144-0.262-0.323-0.349-0.537c-0.087-0.214-0.13-0.461-0.13-0.744     c0-0.273,0.037-0.521,0.111-0.742c0.074-0.222,0.18-0.411,0.317-0.568c0.138-0.158,0.305-0.279,0.501-0.364     C91.707,23.999,91.929,23.957,92.174,23.957z M92.125,24.452c-0.244,0-0.443,0.071-0.598,0.213     c-0.155,0.142-0.258,0.363-0.306,0.663h1.733c0-0.141-0.021-0.266-0.062-0.375s-0.099-0.201-0.173-0.276     s-0.162-0.131-0.264-0.168S92.244,24.452,92.125,24.452z"/>
		</g>
		<g class="st2">
			<path class="st8" d="M90.076,30.5h0.415v2.885h-0.415V30.5z"/>
			<path class="st8" d="M91.771,30.5h1.287v0.368h-0.909v0.729c0.029-0.003,0.06-0.004,0.089-0.004c0.281,0,0.513,0.085,0.693,0.255     c0.182,0.169,0.272,0.386,0.272,0.65c0,0.271-0.09,0.492-0.269,0.662c-0.18,0.17-0.412,0.254-0.697,0.254     c-0.234,0-0.463-0.056-0.684-0.169V32.82c0.208,0.135,0.412,0.202,0.611,0.202c0.175,0,0.32-0.051,0.439-0.151     c0.118-0.102,0.178-0.227,0.178-0.373c0-0.153-0.064-0.281-0.193-0.383c-0.129-0.104-0.289-0.155-0.482-0.155     c-0.164,0-0.275,0.014-0.336,0.042V30.5z"/>
			<path class="st8" d="M95.4,30.467c0.178,0,0.33,0.063,0.456,0.19c0.126,0.127,0.188,0.279,0.188,0.457     c0,0.176-0.063,0.328-0.189,0.455c-0.127,0.126-0.279,0.19-0.455,0.19c-0.178,0-0.33-0.063-0.456-0.19     c-0.127-0.127-0.19-0.278-0.19-0.455c0-0.178,0.063-0.33,0.189-0.457C95.068,30.531,95.221,30.467,95.4,30.467z M96.868,30.459     h0.321l-1.907,2.96h-0.32L96.868,30.459z M95.395,30.781c-0.092,0-0.172,0.033-0.236,0.098c-0.066,0.065-0.099,0.144-0.099,0.235     c0,0.091,0.032,0.168,0.099,0.233s0.146,0.097,0.236,0.097c0.092,0,0.172-0.032,0.236-0.097c0.066-0.064,0.1-0.142,0.1-0.233     c0-0.093-0.033-0.172-0.098-0.237C95.568,30.813,95.488,30.781,95.395,30.781z M96.769,32.13c0.177,0,0.329,0.063,0.456,0.188     c0.127,0.127,0.19,0.277,0.19,0.454s-0.063,0.325-0.189,0.449c-0.126,0.123-0.278,0.185-0.457,0.185     c-0.18,0-0.333-0.062-0.459-0.185c-0.126-0.124-0.189-0.272-0.189-0.449c0-0.178,0.063-0.329,0.19-0.454     S96.59,32.13,96.769,32.13z M96.764,32.443c-0.09,0-0.168,0.033-0.232,0.098s-0.096,0.142-0.096,0.232     c0,0.092,0.031,0.17,0.096,0.236c0.064,0.064,0.143,0.098,0.232,0.098c0.094,0,0.174-0.033,0.238-0.098s0.098-0.143,0.098-0.236     c0-0.092-0.033-0.17-0.098-0.234C96.938,32.477,96.857,32.443,96.764,32.443z"/>
		</g>
	</g>
	<g>
		<g class="st2">
			<path class="st5" d="M114.602,11.57c0-0.308-0.003-0.593-0.008-0.855s-0.016-0.504-0.032-0.724s-0.042-0.419-0.075-0.597     s-0.078-0.337-0.135-0.476h0.896c0.037,0.086,0.074,0.208,0.11,0.365c0.036,0.157,0.066,0.349,0.089,0.577     c0.117-0.152,0.244-0.292,0.382-0.421s0.284-0.238,0.438-0.33c0.154-0.091,0.316-0.162,0.488-0.213     c0.17-0.051,0.35-0.077,0.535-0.077c0.282,0,0.541,0.062,0.774,0.186c0.234,0.124,0.434,0.297,0.598,0.521     c0.165,0.223,0.292,0.487,0.384,0.793s0.137,0.641,0.137,1.004c0,0.423-0.06,0.806-0.18,1.147     c-0.119,0.342-0.281,0.634-0.485,0.875s-0.444,0.427-0.72,0.558s-0.569,0.196-0.881,0.196c-0.133,0-0.259-0.013-0.377-0.04     c-0.117-0.027-0.232-0.063-0.344-0.109c-0.111-0.046-0.221-0.103-0.331-0.171c-0.109-0.068-0.224-0.143-0.344-0.226v1.165     c0,0.198,0.003,0.377,0.008,0.538s0.013,0.308,0.022,0.444c0.01,0.135,0.023,0.26,0.039,0.374     c0.018,0.114,0.035,0.224,0.055,0.33h-1.045V11.57z M116.918,13.28c0.176,0,0.344-0.042,0.505-0.124s0.304-0.202,0.429-0.359     c0.125-0.157,0.225-0.347,0.299-0.57c0.074-0.223,0.111-0.475,0.111-0.756c0-0.274-0.025-0.522-0.076-0.746     c-0.053-0.223-0.127-0.413-0.227-0.57c-0.1-0.157-0.221-0.278-0.361-0.364c-0.142-0.086-0.302-0.129-0.48-0.129     c-0.144,0-0.289,0.032-0.439,0.094c-0.148,0.063-0.295,0.155-0.436,0.278c-0.141,0.122-0.273,0.275-0.396,0.458     c-0.123,0.183-0.231,0.394-0.324,0.632v1.562c0.169,0.119,0.316,0.217,0.44,0.295c0.125,0.078,0.238,0.139,0.342,0.183     c0.104,0.045,0.201,0.075,0.297,0.092C116.695,13.272,116.801,13.28,116.918,13.28z"/>
			<path class="st5" d="M123.193,8.819c0.531,0,0.938,0.173,1.221,0.518c0.281,0.346,0.423,0.858,0.423,1.539v3.098h-0.921v-2.726     c0-0.311-0.021-0.567-0.063-0.769c-0.042-0.202-0.104-0.361-0.188-0.478c-0.082-0.118-0.187-0.199-0.311-0.246     c-0.125-0.046-0.27-0.069-0.436-0.069c-0.18,0-0.355,0.042-0.525,0.126c-0.172,0.084-0.328,0.193-0.471,0.327     c-0.144,0.134-0.27,0.285-0.379,0.454s-0.191,0.337-0.244,0.505v2.875h-0.922V8.373c0-0.536-0.004-1.004-0.01-1.405     c-0.007-0.401-0.028-0.709-0.064-0.924h0.996V9.86c0.246-0.347,0.534-0.607,0.866-0.781     C122.499,8.906,122.842,8.819,123.193,8.819z"/>
		</g>
		<g class="st2">
			<path class="st10" d="M102.605,19.899h0.664v-1.074h0.614v1.074h1.079v0.479h-1.079v1.521c0,0.169,0.009,0.308,0.024,0.416     c0.018,0.108,0.043,0.192,0.077,0.253s0.078,0.102,0.131,0.124c0.054,0.022,0.118,0.033,0.192,0.033     c0.096,0,0.203-0.021,0.322-0.063s0.252-0.104,0.398-0.185v0.529c-0.152,0.099-0.299,0.168-0.438,0.207     c-0.141,0.039-0.269,0.058-0.386,0.058c-0.131,0-0.253-0.015-0.365-0.044s-0.212-0.082-0.298-0.157     c-0.084-0.075-0.152-0.174-0.2-0.299c-0.049-0.125-0.073-0.283-0.073-0.474v-1.917h-0.664V19.899z"/>
			<path class="st10" d="M107.188,19.75c0.182,0,0.343,0.021,0.482,0.064c0.139,0.043,0.26,0.102,0.361,0.178     s0.188,0.165,0.256,0.266c0.068,0.101,0.123,0.21,0.164,0.327s0.07,0.238,0.088,0.365c0.019,0.126,0.027,0.251,0.027,0.375v0.129     c0,0.055-0.001,0.098-0.004,0.129h-2.354c0.006,0.194,0.037,0.362,0.091,0.505s0.128,0.262,0.223,0.355     c0.095,0.093,0.204,0.164,0.332,0.209c0.128,0.046,0.267,0.07,0.417,0.07c0.215,0,0.425-0.024,0.631-0.073     c0.205-0.049,0.41-0.135,0.614-0.258l0.066,0.545c-0.118,0.06-0.232,0.11-0.345,0.152c-0.113,0.042-0.227,0.076-0.34,0.103     c-0.112,0.026-0.227,0.045-0.344,0.058c-0.115,0.012-0.238,0.018-0.367,0.018c-0.212,0-0.414-0.037-0.607-0.111     c-0.192-0.074-0.361-0.183-0.508-0.327c-0.146-0.144-0.262-0.323-0.349-0.537c-0.087-0.214-0.13-0.461-0.13-0.744     c0-0.273,0.037-0.521,0.111-0.742c0.074-0.222,0.18-0.411,0.317-0.568c0.138-0.158,0.305-0.279,0.501-0.364     C106.721,19.793,106.942,19.75,107.188,19.75z M107.139,20.246c-0.244,0-0.443,0.071-0.598,0.213     c-0.155,0.142-0.258,0.363-0.306,0.663h1.733c0-0.141-0.021-0.266-0.062-0.375s-0.099-0.201-0.173-0.276     s-0.162-0.131-0.264-0.168S107.258,20.246,107.139,20.246z M108.496,17.9l-1.395,1.421h-0.531l1.162-1.421H108.496z"/>
			<path class="st10" d="M110.16,21.617c0,0.106,0.002,0.23,0.006,0.374c0.002,0.143,0.007,0.289,0.013,0.436     c0.005,0.148,0.013,0.289,0.021,0.423c0.007,0.134,0.017,0.247,0.027,0.337h-0.681v-3.734c0-0.321-0.005-0.613-0.017-0.874     c-0.012-0.261-0.027-0.487-0.05-0.679h0.681V21.617z"/>
			<path class="st10" d="M112.7,19.75c0.182,0,0.343,0.021,0.481,0.064c0.14,0.043,0.26,0.102,0.362,0.178     c0.102,0.076,0.187,0.165,0.256,0.266c0.068,0.101,0.123,0.21,0.164,0.327s0.07,0.238,0.088,0.365     c0.019,0.126,0.026,0.251,0.026,0.375v0.129c0,0.055,0,0.098-0.003,0.129h-2.354c0.007,0.194,0.037,0.362,0.092,0.505     c0.054,0.143,0.128,0.262,0.223,0.355c0.094,0.093,0.204,0.164,0.332,0.209c0.127,0.046,0.266,0.07,0.416,0.07     c0.215,0,0.426-0.024,0.631-0.073c0.206-0.049,0.411-0.135,0.615-0.258l0.066,0.545c-0.118,0.06-0.232,0.11-0.346,0.152     c-0.113,0.042-0.227,0.076-0.339,0.103c-0.112,0.026-0.228,0.045-0.344,0.058s-0.239,0.018-0.367,0.018     c-0.212,0-0.415-0.037-0.607-0.111c-0.192-0.074-0.362-0.183-0.509-0.327c-0.146-0.144-0.262-0.323-0.348-0.537     c-0.087-0.214-0.13-0.461-0.13-0.744c0-0.273,0.037-0.521,0.111-0.742c0.074-0.222,0.18-0.411,0.317-0.568     c0.137-0.158,0.305-0.279,0.501-0.364C112.233,19.793,112.455,19.75,112.7,19.75z M112.65,20.246     c-0.243,0-0.442,0.071-0.598,0.213c-0.154,0.142-0.257,0.363-0.305,0.663h1.732c0-0.141-0.02-0.266-0.061-0.375     s-0.1-0.201-0.174-0.276s-0.162-0.131-0.264-0.168S112.77,20.246,112.65,20.246z M114.009,17.9l-1.395,1.421h-0.531l1.162-1.421     H114.009z"/>
		</g>
		<g class="st2">
			<path class="st5" d="M115.107,21.184c0-0.256-0.002-0.494-0.006-0.712c-0.004-0.219-0.014-0.42-0.027-0.603     s-0.034-0.349-0.063-0.498c-0.027-0.148-0.064-0.281-0.111-0.396h0.747c0.03,0.072,0.061,0.173,0.091,0.304     c0.031,0.131,0.056,0.291,0.075,0.481c0.097-0.127,0.202-0.244,0.317-0.352c0.115-0.107,0.236-0.199,0.365-0.274     s0.264-0.135,0.406-0.178c0.143-0.042,0.292-0.064,0.447-0.064c0.234,0,0.45,0.052,0.645,0.155     c0.195,0.104,0.361,0.248,0.498,0.434c0.138,0.186,0.244,0.406,0.32,0.661s0.114,0.534,0.114,0.836     c0,0.353-0.05,0.671-0.149,0.957c-0.1,0.285-0.234,0.528-0.404,0.729c-0.171,0.201-0.371,0.356-0.601,0.464     c-0.229,0.109-0.475,0.163-0.734,0.163c-0.11,0-0.216-0.011-0.313-0.033s-0.193-0.052-0.287-0.091     c-0.092-0.039-0.184-0.086-0.275-0.143s-0.188-0.119-0.287-0.188v0.971c0,0.165,0.003,0.314,0.007,0.448     c0.005,0.133,0.011,0.257,0.019,0.37s0.02,0.217,0.033,0.312c0.014,0.095,0.029,0.187,0.046,0.274h-0.872V21.184z      M117.038,22.609c0.146,0,0.287-0.035,0.421-0.104c0.135-0.069,0.254-0.168,0.357-0.299s0.187-0.289,0.249-0.475     c0.062-0.186,0.093-0.396,0.093-0.63c0-0.229-0.021-0.436-0.064-0.622c-0.043-0.186-0.105-0.344-0.188-0.475     s-0.183-0.232-0.301-0.304c-0.118-0.071-0.251-0.107-0.4-0.107c-0.119,0-0.241,0.026-0.365,0.079s-0.245,0.129-0.363,0.231     c-0.118,0.102-0.228,0.229-0.33,0.382s-0.192,0.329-0.271,0.527v1.301c0.142,0.099,0.264,0.181,0.368,0.246     c0.104,0.064,0.198,0.116,0.284,0.153s0.168,0.063,0.247,0.076C116.854,22.602,116.941,22.609,117.038,22.609z"/>
			<path class="st5" d="M122.268,18.891c0.443,0,0.782,0.144,1.018,0.432c0.234,0.288,0.353,0.715,0.353,1.283v2.582h-0.769v-2.272     c0-0.259-0.017-0.472-0.051-0.64c-0.035-0.168-0.087-0.301-0.156-0.398c-0.068-0.098-0.155-0.166-0.26-0.205     c-0.104-0.039-0.225-0.058-0.363-0.058c-0.148,0-0.295,0.035-0.438,0.105s-0.273,0.161-0.393,0.272     c-0.119,0.112-0.224,0.238-0.314,0.378c-0.092,0.14-0.16,0.281-0.204,0.421v2.396h-0.768V18.52c0-0.446-0.003-0.836-0.009-1.171     c-0.006-0.334-0.023-0.591-0.054-0.77h0.83v3.181c0.205-0.29,0.446-0.506,0.723-0.651S121.975,18.891,122.268,18.891z"/>
		</g>
		<g class="st2">
			<path class="st10" d="M124.427,21.518c0-0.284,0.043-0.536,0.13-0.755c0.086-0.219,0.202-0.404,0.348-0.555     c0.146-0.151,0.317-0.265,0.512-0.342c0.195-0.077,0.402-0.115,0.621-0.115c0.229,0,0.438,0.039,0.626,0.115     c0.189,0.077,0.353,0.191,0.488,0.342s0.241,0.336,0.317,0.555c0.075,0.219,0.113,0.471,0.113,0.755s-0.044,0.536-0.13,0.753     c-0.087,0.218-0.202,0.401-0.349,0.549s-0.316,0.259-0.512,0.335c-0.195,0.076-0.402,0.114-0.621,0.114     c-0.229,0-0.437-0.038-0.625-0.114c-0.189-0.076-0.353-0.188-0.488-0.335c-0.137-0.147-0.242-0.331-0.318-0.549     C124.465,22.054,124.427,21.802,124.427,21.518z M125.041,21.518c0,0.192,0.023,0.364,0.07,0.516     c0.046,0.152,0.111,0.28,0.197,0.385c0.085,0.104,0.187,0.184,0.304,0.239s0.248,0.083,0.392,0.083     c0.133,0,0.258-0.027,0.375-0.083s0.221-0.135,0.308-0.239c0.087-0.105,0.156-0.233,0.206-0.385s0.074-0.324,0.074-0.516     c0-0.194-0.023-0.367-0.069-0.521c-0.046-0.153-0.112-0.283-0.198-0.39c-0.084-0.107-0.187-0.188-0.305-0.245     c-0.119-0.056-0.248-0.084-0.391-0.084c-0.135,0-0.262,0.028-0.379,0.084s-0.219,0.138-0.305,0.245s-0.154,0.237-0.205,0.39     C125.066,21.151,125.041,21.324,125.041,21.518z"/>
			<path class="st10" d="M130.285,19.75c0.354,0,0.625,0.115,0.813,0.345c0.188,0.23,0.283,0.572,0.283,1.026v2.065h-0.615V21.37     c0-0.207-0.014-0.378-0.041-0.512s-0.068-0.241-0.123-0.319s-0.123-0.133-0.205-0.164c-0.084-0.031-0.182-0.046-0.295-0.046     c-0.119,0-0.236,0.028-0.35,0.084c-0.114,0.056-0.219,0.128-0.314,0.218c-0.095,0.089-0.18,0.19-0.252,0.302     c-0.073,0.113-0.127,0.225-0.163,0.337v1.917h-0.614v-2.032c0-0.326-0.018-0.602-0.055-0.828     c-0.037-0.226-0.074-0.396-0.111-0.511h0.598c0.014,0.035,0.027,0.081,0.04,0.137s0.025,0.115,0.036,0.177     c0.012,0.062,0.021,0.122,0.03,0.182l0.026,0.149c0.211-0.251,0.423-0.433,0.638-0.544     C129.825,19.806,130.05,19.75,130.285,19.75z"/>
			<path class="st10" d="M133.741,19.75c0.182,0,0.343,0.021,0.481,0.064c0.14,0.043,0.26,0.102,0.362,0.178     c0.102,0.076,0.187,0.165,0.256,0.266c0.068,0.101,0.123,0.21,0.164,0.327s0.07,0.238,0.088,0.365     c0.019,0.126,0.026,0.251,0.026,0.375v0.129c0,0.055,0,0.098-0.003,0.129h-2.354c0.007,0.194,0.037,0.362,0.092,0.505     c0.054,0.143,0.128,0.262,0.223,0.355c0.094,0.093,0.204,0.164,0.332,0.209c0.127,0.046,0.266,0.07,0.416,0.07     c0.215,0,0.426-0.024,0.631-0.073c0.206-0.049,0.411-0.135,0.615-0.258l0.066,0.545c-0.118,0.06-0.232,0.11-0.346,0.152     c-0.113,0.042-0.227,0.076-0.339,0.103c-0.112,0.026-0.228,0.045-0.344,0.058s-0.239,0.018-0.367,0.018     c-0.212,0-0.415-0.037-0.607-0.111c-0.192-0.074-0.362-0.183-0.509-0.327c-0.146-0.144-0.262-0.323-0.348-0.537     c-0.087-0.214-0.13-0.461-0.13-0.744c0-0.273,0.037-0.521,0.111-0.742c0.074-0.222,0.18-0.411,0.317-0.568     c0.137-0.158,0.305-0.279,0.501-0.364C133.274,19.793,133.496,19.75,133.741,19.75z M133.691,20.246     c-0.243,0-0.442,0.071-0.598,0.213c-0.154,0.142-0.257,0.363-0.305,0.663h1.732c0-0.141-0.02-0.266-0.061-0.375     s-0.1-0.201-0.174-0.276s-0.162-0.131-0.264-0.168S133.811,20.246,133.691,20.246z"/>
		</g>
		<g class="st2">
			<path class="st8" d="M127.958,26.268h1.286v0.368h-0.908v0.729c0.029-0.003,0.059-0.004,0.089-0.004     c0.28,0,0.513,0.085,0.693,0.255s0.272,0.387,0.272,0.649c0,0.271-0.09,0.492-0.27,0.662s-0.411,0.255-0.696,0.255     c-0.235,0-0.464-0.056-0.685-0.169v-0.425c0.209,0.135,0.412,0.203,0.611,0.203c0.176,0,0.321-0.051,0.439-0.152     c0.119-0.102,0.178-0.226,0.178-0.373c0-0.153-0.064-0.28-0.193-0.383s-0.289-0.154-0.481-0.154     c-0.165,0-0.276,0.014-0.336,0.042V26.268z"/>
			<path class="st8" d="M131.586,26.234c0.178,0,0.33,0.063,0.457,0.19c0.125,0.127,0.188,0.279,0.188,0.457     c0,0.176-0.063,0.328-0.19,0.455c-0.127,0.126-0.278,0.19-0.455,0.19c-0.178,0-0.329-0.063-0.455-0.19     c-0.127-0.127-0.19-0.278-0.19-0.455c0-0.178,0.063-0.33,0.188-0.457C131.255,26.298,131.407,26.234,131.586,26.234z      M133.055,26.226h0.32l-1.906,2.96h-0.32L133.055,26.226z M131.58,26.548c-0.092,0-0.171,0.033-0.236,0.098     c-0.065,0.065-0.098,0.144-0.098,0.235c0,0.091,0.032,0.168,0.099,0.233s0.146,0.097,0.235,0.097     c0.093,0,0.172-0.032,0.237-0.097s0.099-0.142,0.099-0.233c0-0.093-0.033-0.172-0.098-0.237     C131.754,26.581,131.674,26.548,131.58,26.548z M132.955,27.897c0.176,0,0.328,0.063,0.455,0.189s0.191,0.277,0.191,0.454     s-0.063,0.326-0.189,0.449c-0.127,0.123-0.279,0.185-0.457,0.185c-0.18,0-0.333-0.062-0.459-0.185     c-0.127-0.124-0.189-0.273-0.189-0.449c0-0.178,0.063-0.329,0.189-0.455C132.623,27.96,132.776,27.897,132.955,27.897z      M132.95,28.211c-0.091,0-0.169,0.032-0.232,0.097c-0.064,0.065-0.097,0.142-0.097,0.233c0,0.092,0.032,0.17,0.097,0.236     c0.063,0.065,0.142,0.098,0.232,0.098c0.094,0,0.173-0.032,0.238-0.097c0.064-0.064,0.097-0.144,0.097-0.237     c0-0.092-0.032-0.17-0.097-0.234C133.123,28.243,133.044,28.211,132.95,28.211z"/>
		</g>
	</g>
	<g class="st2">
		<path class="st6" d="M36.076,16.839h3.496v-3.044c0-2.609,0.533-4.566,1.599-5.871c1.066-1.304,2.543-1.957,4.431-1.957    c0.688,0,1.363,0.107,2.027,0.322c0.664,0.215,1.27,0.513,1.818,0.896l-0.804,2.609C48.2,9.47,47.71,9.215,47.174,9.029    c-0.536-0.185-1.06-0.278-1.573-0.278c-0.455,0-0.856,0.079-1.206,0.235c-0.35,0.157-0.641,0.409-0.874,0.757    c-0.233,0.348-0.411,0.797-0.533,1.348c-0.122,0.551-0.184,1.22-0.184,2.009v3.74h4.719v2.522h-4.719v6.192    c0,0.847,0.009,1.685,0.026,2.513c0.018,0.829,0.046,1.618,0.087,2.366c0.041,0.748,0.096,1.441,0.166,2.079    s0.151,1.183,0.245,1.635h-3.758V19.361h-3.496V16.839z"/>
	</g>
	<g class="st2">
		<path class="st6" d="M61.038,7.592v0.64h-2.33v0.96c0,0.397,0.002,0.747,0.008,1.049c0.005,0.303,0.023,0.533,0.052,0.69h-0.884    c0.029-0.16,0.047-0.391,0.052-0.694c0.005-0.302,0.008-0.651,0.008-1.045V6.293c0-0.179-0.002-0.343-0.006-0.494    c-0.004-0.151-0.01-0.286-0.018-0.406c-0.008-0.12-0.02-0.22-0.036-0.3h3.496v0.66h-2.672v1.839H61.038z"/>
	</g>
	<g class="st2">
		<path class="st6" d="M34,37.701h1.246v-1.085c0-0.93,0.19-1.627,0.57-2.092s0.906-0.697,1.579-0.697    c0.245,0,0.485,0.038,0.722,0.114s0.453,0.184,0.648,0.319l-0.287,0.93c-0.158-0.116-0.332-0.206-0.523-0.272    c-0.191-0.066-0.378-0.1-0.561-0.1c-0.162,0-0.305,0.028-0.43,0.084c-0.125,0.056-0.229,0.146-0.312,0.27s-0.146,0.284-0.19,0.48    c-0.044,0.196-0.065,0.435-0.065,0.716v1.333h1.682V38.6h-1.682v2.206c0,0.302,0.003,0.601,0.009,0.896s0.017,0.576,0.031,0.843    c0.014,0.267,0.034,0.514,0.059,0.741c0.025,0.227,0.054,0.421,0.087,0.582h-1.339V38.6H34V37.701z"/>
	</g>
	<g class="st2">
		<path class="st10" d="M41.161,38.669c0.274,0,0.517,0.032,0.728,0.098s0.394,0.155,0.547,0.271    c0.154,0.114,0.283,0.248,0.387,0.402c0.104,0.152,0.187,0.318,0.249,0.494c0.062,0.177,0.106,0.361,0.133,0.553    s0.04,0.381,0.04,0.566v0.195c0,0.084-0.001,0.148-0.005,0.195h-3.561c0.01,0.293,0.056,0.548,0.138,0.765    c0.082,0.216,0.194,0.396,0.336,0.537c0.143,0.142,0.31,0.247,0.502,0.317c0.192,0.07,0.402,0.105,0.63,0.105    c0.325,0,0.643-0.037,0.954-0.11s0.621-0.203,0.929-0.39l0.101,0.824c-0.178,0.09-0.352,0.167-0.522,0.23    c-0.171,0.063-0.341,0.115-0.512,0.154c-0.171,0.04-0.344,0.069-0.52,0.088c-0.176,0.018-0.361,0.027-0.555,0.027    c-0.322,0-0.628-0.056-0.919-0.168c-0.291-0.111-0.547-0.275-0.769-0.494c-0.221-0.219-0.396-0.489-0.527-0.813    c-0.13-0.323-0.196-0.697-0.196-1.125c0-0.412,0.056-0.787,0.168-1.121c0.112-0.336,0.272-0.622,0.479-0.859    c0.208-0.238,0.46-0.422,0.758-0.551C40.454,38.733,40.789,38.669,41.161,38.669z M41.085,39.419    c-0.368,0-0.669,0.107-0.904,0.322s-0.389,0.549-0.462,1.002h2.622c0-0.213-0.031-0.402-0.093-0.567    c-0.062-0.164-0.149-0.304-0.261-0.417c-0.112-0.113-0.246-0.198-0.399-0.255C41.433,39.447,41.266,39.419,41.085,39.419z     M43.139,35.87L41.03,38.02h-0.804l1.758-2.149H43.139z"/>
	</g>
	<g class="st11">
		<path class="st3" d="M46.688,38.669c0.274,0,0.517,0.032,0.728,0.098s0.394,0.155,0.547,0.271    c0.154,0.114,0.283,0.248,0.387,0.402c0.104,0.152,0.187,0.318,0.249,0.494c0.062,0.177,0.106,0.361,0.133,0.553    s0.04,0.381,0.04,0.566v0.195c0,0.084-0.001,0.148-0.005,0.195h-3.561c0.01,0.293,0.056,0.548,0.138,0.765    c0.082,0.216,0.194,0.396,0.336,0.537c0.143,0.142,0.31,0.247,0.502,0.317c0.192,0.07,0.402,0.105,0.63,0.105    c0.325,0,0.643-0.037,0.954-0.11s0.621-0.203,0.929-0.39l0.101,0.824c-0.178,0.09-0.352,0.167-0.522,0.23    c-0.171,0.063-0.341,0.115-0.512,0.154c-0.171,0.04-0.344,0.069-0.52,0.088c-0.176,0.018-0.361,0.027-0.555,0.027    c-0.322,0-0.628-0.056-0.919-0.168c-0.291-0.111-0.547-0.275-0.769-0.494c-0.221-0.219-0.396-0.489-0.527-0.813    c-0.13-0.323-0.196-0.697-0.196-1.125c0-0.412,0.056-0.787,0.168-1.121c0.112-0.336,0.272-0.622,0.479-0.859    c0.208-0.238,0.46-0.422,0.758-0.551C45.981,38.733,46.315,38.669,46.688,38.669z M46.612,39.419    c-0.368,0-0.669,0.107-0.904,0.322s-0.389,0.549-0.462,1.002h2.622c0-0.213-0.031-0.402-0.093-0.567    c-0.062-0.164-0.149-0.304-0.261-0.417c-0.112-0.113-0.246-0.198-0.399-0.255C46.96,39.447,46.793,39.419,46.612,39.419z"/>
	</g>
	<path class="st12" d="M17.4,58.7c-0.1,0.3-0.7,0.4-1.3,0.2c-0.6-0.2-1-0.7-0.9-1s0.7-0.4,1.3-0.2C17.1,58,17.6,58.4,17.4,58.7z"/>
	<path class="st12" d="M7.6,45.1c0,0.3-0.5,0.7-1.1,0.8c-0.7,0.1-1.2-0.1-1.3-0.5c0-0.3,0.5-0.7,1.1-0.8C7,44.6,7.6,44.8,7.6,45.1z"/>
	<polyline class="st13" points="13.9,45.5 10.7,48.5 7.6,45.3  "/>
	<path class="st12" d="M11.6,33c-0.2,0-13.8-1.5-10.7,3.6c0,0,1.5,2.3,7.3,0.9c0,0-3.8,3.8,0.3,3.3c0,0,2,0.1,5.5-4.4   c0,0-0.7,5-2,7.5c0,0,0.4,2.5,6.5,1.8c0,0,0.7-6.4-2.2-11.7c0,0,3.1,1,4.3-0.6c0,0,0.4-0.7-0.8-1.2c0,0,5.6-4.6,2.2-5.2   c0,0-2.4-0.2-4.3,2.2c0,0,0.5-5.3-5.2-4.4c-1,0.2-1.9,0.6-2.6,1.3c-0.8,0.9-1.5,2.4-0.4,4.8c0,0-0.5,1.4,1.1,1.4L11.6,33z"/>
	<line class="st13" x1="17.8" y1="21.8" x2="16" y2="25.3"/>
	<line class="st13" x1="18.8" y1="22.4" x2="16.2" y2="25.4"/>
	<line class="st13" x1="19.5" y1="23.7" x2="16.3" y2="25.3"/>
	<line class="st13" x1="5.7" y1="25.8" x2="9" y2="28.1"/>
	<path class="st12" d="M4.6,27.1c0.1,0,4.4,1.1,4.4,1.1"/>
	<path class="st12" d="M4.2,28.7c0.2-0.1,4.5-0.4,4.5-0.4"/>
	<line class="st13" x1="21.2" y1="38.1" x2="26.9" y2="28.8"/>
	<polygon class="st12" points="27.8,29.7 26.9,28.5 25.4,28.5 26.3,27.3 25.8,25.9 27.2,26.4 28.4,25.5 28.4,27 29.6,27.9    28.2,28.3  "/>
	<path class="st13" d="M15.8,33c0,0,0.5,3.2,6.9,1.8"/>
	<path class="st13" d="M14.2,33.3c0,0,1,5,7.4,2.2"/>
	<path class="st12" d="M23.5,35c0.1,0.2-0.4,0.5-1.1,0.7s-1.2,0.1-1.3-0.1c-0.1-0.2,0.4-0.5,1.1-0.7C22.9,34.7,23.5,34.7,23.5,35z"/>
	<g>
		<path class="st12" d="M13,28.8"/>
	</g>
	<g>
		<path class="st12" d="M15.6,28.3"/>
	</g>
	<path class="st12" d="M14,33.5c0,0,0.7,1.7,0,2.9"/>
	<path class="st12" d="M11.6,33c0,0,6,2.1,6.1-3.7"/>
	<path class="st12" d="M9.8,28.1c0,0.4-0.3,0.8-0.8,0.8c-0.4,0-0.8-0.3-0.8-0.8c0-0.4,0.3-0.8,0.8-0.8C9.4,27.3,9.8,27.6,9.8,28.1z"/>
	<path class="st12" d="M16.9,25.2c0,0.4-0.2,0.6-0.2,0.6c-0.3-0.3-0.9-0.7-1.1-0.8c-0.4-0.2,0.2-0.6,0.6-0.6   C16.6,24.4,16.9,24.8,16.9,25.2z"/>
	<path class="st14" d="M8.2,37.5c0,0,4.4-1.3,6.1-2.7"/>
	<path class="st14" d="M16.3,34c0,0,2.5-0.9,3.5-2"/>
	<path class="st14" d="M14.6,30.1c0,0,0.5-0.6,1.1,0"/>
	<path class="st14" d="M12.7,31.3c0,0,1.2,1.6,2.8,0.5"/>
	<path class="st14" d="M12.2,27.6c0,0,0.4-0.7,1.1-0.4"/>
	<path class="st14" d="M15,26.9c0,0,0.4-0.7,1,0"/>
	<path class="st14" d="M12.3,43.2c0,0,2.9,2,6.3,1.2"/>
	<path class="st14" d="M12.9,41.5c0,0,2.7,1.6,5.6,0.8"/>
	<path class="st14" d="M13.3,39.9c0,0,2.3,1.2,5,0.5"/>
	<path class="st14" d="M13.7,38.4c0,0,1.8,1.4,4.4,0.3"/>
	<path class="st14" d="M13.9,37.2c0-0.1,1.8,0.7,3.8,0"/>
	<path class="st14" d="M14.3,35.3c0,0,1.2,0.8,2.6-0.2"/>
	<path class="st14" d="M14.3,34.2c0,0,1.2,0.3,1.8-0.6"/>
	<path class="st14" d="M16,25.4c0,0-1.2,0.6-2.3,0.3c0,0,0.7,0.7-4.3,2.2"/>
	<path class="st14" d="M9.6,31c0,0,0.3-1.1,0.1-1.6c-0.1-0.2-0.2-0.4-0.3-0.7"/>
	<path class="st15" d="M17.2,46.1c0,0.1-2.1,12.1-2,11.9"/>
	<path class="st15" d="M17.4,58.7c-0.1,0.3-0.7,0.4-1.3,0.2c-0.6-0.2-1-0.7-0.9-1s0.7-0.4,1.3-0.2C17.1,58,17.6,58.4,17.4,58.7z"/>
	<path class="st15" d="M7.6,45.1c0,0.3-0.5,0.7-1.1,0.8c-0.7,0.1-1.2-0.1-1.3-0.5c0-0.3,0.5-0.7,1.1-0.8C7,44.6,7.6,44.8,7.6,45.1z"/>
	<polyline class="st15" points="13.9,45.5 10.7,48.5 7.6,45.3  "/>
	<path class="st15" d="M11.6,33c-0.2,0-13.8-1.5-10.7,3.6c0,0,1.5,2.3,7.3,0.9c0,0-3.8,3.8,0.3,3.3c0,0,2,0.1,5.5-4.4   c0,0-0.7,5-2,7.5c0,0,0.4,2.5,6.5,1.8c0,0,0.7-6.4-2.2-11.7c0,0,3.1,1,4.3-0.6c0,0,0.4-0.7-0.8-1.2c0,0,5.6-4.6,2.2-5.2   c0,0-2.4-0.2-4.3,2.2c0,0,0.5-5.3-5.2-4.4c-1,0.2-1.9,0.6-2.6,1.3c-0.8,0.9-1.5,2.4-0.4,4.8c0,0-0.5,1.4,1.1,1.4L11.6,33z"/>
	<line class="st15" x1="17.8" y1="21.8" x2="16" y2="25.3"/>
	<line class="st15" x1="18.8" y1="22.4" x2="16.2" y2="25.4"/>
	<line class="st15" x1="19.5" y1="23.7" x2="16.3" y2="25.3"/>
	<line class="st15" x1="5.7" y1="25.8" x2="9" y2="28.1"/>
	<path class="st15" d="M4.6,27.1c0.1,0,4.4,1.1,4.4,1.1"/>
	<path class="st15" d="M4.2,28.7c0.2-0.1,4.5-0.4,4.5-0.4"/>
	<line class="st15" x1="21.2" y1="38.1" x2="26.9" y2="28.8"/>
	<polygon class="st16" points="27.8,29.7 26.9,28.5 25.4,28.5 26.3,27.3 25.8,25.9 27.2,26.4 28.4,25.5 28.4,27 29.6,27.9    28.2,28.3  "/>
	<path class="st15" d="M21.6,35.5"/>
	<path class="st15" d="M14.2,33.3"/>
	<path class="st17" d="M23.5,35c0.1,0.2-0.4,0.5-1.1,0.7s-1.2,0.1-1.3-0.1c-0.1-0.2,0.4-0.5,1.1-0.7C22.9,34.7,23.5,34.7,23.5,35z"/>
	<g>
		<g>
			<path class="st6" d="M13,29c0.3,0,0.3-0.5,0-0.5S12.7,29,13,29L13,29z"/>
		</g>
	</g>
	<g>
		<g>
			<path class="st6" d="M15.6,28.6c0.3,0,0.3-0.5,0-0.5C15.3,28,15.3,28.6,15.6,28.6L15.6,28.6z"/>
		</g>
	</g>
	<path class="st15" d="M14,33.5c0,0,0.7,1.7,0,2.9"/>
	<path class="st15" d="M11.6,33c0,0,6,2.1,6.1-3.7"/>
	<path class="st17" d="M9.8,28.1c0,0.4-0.3,0.8-0.8,0.8c-0.4,0-0.8-0.3-0.8-0.8c0-0.4,0.3-0.8,0.8-0.8C9.4,27.3,9.8,27.6,9.8,28.1z"/>
	<path class="st17" d="M16.9,25.2c0,0.4-0.2,0.6-0.2,0.6c-0.3-0.3-0.9-0.7-1.1-0.8c-0.4-0.2,0.2-0.6,0.6-0.6   C16.6,24.4,16.9,24.8,16.9,25.2z"/>
	<path class="st18" d="M14.7,44.5"/>
</g>
</svg>