<?xml version="1.0" encoding="UTF-8"?>
<!-- Generator: Adobe Illustrator 24.0.2, SVG Export Plug-In . SVG Version: 6.00 Build 0)  -->
<svg version="1.1" id="Calque_1" xmlns="http://www.w3.org/2000/svg" xmlns:xlink="http://www.w3.org/1999/xlink" x="0px" y="0px" viewBox="0 0 81 72" style="enable-background:new 0 0 81 72;" xml:space="preserve">
<style type="text/css">
	.st0{fill:#FFFFFF;stroke:#000000;stroke-width:0.9701;stroke-miterlimit:10;}
	.st1{fill:none;stroke:#B2B2B2;stroke-width:0.3638;stroke-miterlimit:10;}
	.st2{enable-background:new    ;}
	.st3{fill:#575756;}
	.st4{fill:#B2B2B2;}
	.st5{fill:#878787;}
	.st6{fill:#FFFFFF;}
	.st7{fill:none;stroke:#575756;stroke-width:0.1745;stroke-linecap:round;stroke-linejoin:round;stroke-miterlimit:10;}
	.st8{fill:none;stroke:#575756;stroke-width:0.5236;stroke-linecap:round;stroke-linejoin:round;stroke-miterlimit:10;}
	.st9{fill:none;stroke:#575756;stroke-width:0.2567;stroke-linecap:round;stroke-linejoin:round;stroke-miterlimit:10;}
</style>
<g id="_x3C_Groupe_x3E__montagne">
	<path class="st0" d="M56.6,59.2H22.4V0.9h57.9v58.3H63.7c0,0-5.3,9.7-14.2,11.6C49.5,70.8,54.8,67.3,56.6,59.2z"/>
	<path class="st1" d="M58.1,55.9c0,0,10.5,2.2,19-0.2"/>
	<path class="st1" d="M25.8,55.9c0,0,8.1,2.2,20.1-0.2"/>
	<path class="st1" d="M47.2,55.8c0,0,4.5,1.5,9.6,0.1"/>
	<g class="st2">
		<path class="st3" d="M69.435,10.938c-0.214,0.151-0.415,0.275-0.604,0.373c-0.188,0.098-0.372,0.175-0.55,0.231    c-0.177,0.056-0.352,0.095-0.523,0.117s-0.348,0.034-0.529,0.034c-0.394,0-0.756-0.069-1.086-0.206    c-0.33-0.137-0.615-0.338-0.854-0.604c-0.24-0.266-0.427-0.592-0.562-0.979s-0.202-0.833-0.202-1.335    c0-0.503,0.074-0.953,0.223-1.35c0.147-0.397,0.352-0.733,0.609-1.009c0.259-0.275,0.562-0.486,0.909-0.631    c0.348-0.146,0.723-0.218,1.121-0.218c0.17,0,0.334,0.008,0.494,0.023c0.159,0.016,0.318,0.044,0.479,0.086    c0.159,0.042,0.322,0.102,0.488,0.178c0.166,0.077,0.342,0.177,0.524,0.3l-0.271,0.755c-0.155-0.125-0.306-0.23-0.451-0.313    c-0.146-0.082-0.289-0.146-0.431-0.193c-0.142-0.046-0.281-0.078-0.419-0.096c-0.137-0.018-0.275-0.027-0.414-0.027    c-0.316,0-0.601,0.056-0.854,0.168s-0.47,0.271-0.647,0.478c-0.178,0.207-0.313,0.458-0.408,0.752    c-0.094,0.295-0.141,0.625-0.141,0.992c0,0.386,0.045,0.732,0.135,1.04s0.221,0.569,0.389,0.786    c0.17,0.217,0.375,0.382,0.614,0.497c0.24,0.115,0.509,0.172,0.806,0.172c0.125,0,0.242-0.006,0.352-0.019    s0.219-0.034,0.326-0.065c0.108-0.031,0.219-0.071,0.329-0.122s0.23-0.115,0.358-0.193V9.155h-1.457V8.463h2.247V10.938z"/>
		<path class="st3" d="M71.453,6.757v4.831h-0.749c0.03-0.168,0.048-0.41,0.054-0.728s0.008-0.683,0.008-1.097V7.29    c0-0.414-0.002-0.779-0.008-1.097s-0.023-0.56-0.054-0.728h0.749l3.309,4.852V5.465h0.748c-0.014,0.084-0.024,0.187-0.033,0.31    c-0.008,0.123-0.014,0.262-0.018,0.417c-0.005,0.155-0.008,0.325-0.009,0.509s-0.003,0.38-0.003,0.587v4.298h-0.686L71.453,6.757z    "/>
	</g>
	<g class="st2">
		<path class="st3" d="M47.826,36.673c0,1.55-0.225,2.876-0.674,3.98c-0.448,1.104-1.037,2.005-1.766,2.703    c-0.728,0.698-1.558,1.212-2.49,1.541c-0.932,0.329-1.881,0.493-2.849,0.493c-1.119,0-2.229-0.193-3.33-0.581    s-2.118-0.897-3.05-1.532l1.136-2.73c0.827,0.6,1.66,1.086,2.499,1.463c0.839,0.375,1.695,0.563,2.569,0.563    c0.455,0,0.956-0.082,1.504-0.246c0.547-0.164,1.06-0.449,1.537-0.854c0.479-0.406,0.877-0.949,1.197-1.629    c0.32-0.682,0.48-1.533,0.48-2.555v-3.258c-0.454,0.575-0.935,1.065-1.441,1.471c-0.507,0.405-1.02,0.734-1.538,0.986    s-1.037,0.434-1.556,0.546c-0.519,0.111-1.017,0.167-1.494,0.167c-0.804,0-1.579-0.141-2.325-0.422    c-0.746-0.282-1.407-0.731-1.984-1.348c-0.577-0.616-1.037-1.417-1.381-2.404s-0.516-2.178-0.516-3.575    c0-1.35,0.175-2.665,0.524-3.945s0.892-2.416,1.625-3.408c0.734-0.992,1.675-1.79,2.823-2.395c1.147-0.604,2.52-0.907,4.116-0.907    c0.524,0,1.063,0.039,1.616,0.115c0.554,0.076,1.104,0.179,1.652,0.308c0.547,0.129,1.084,0.273,1.607,0.432    c0.524,0.158,1.025,0.314,1.504,0.467V36.673z M40.922,21.791c-0.956,0-1.771,0.197-2.447,0.59    c-0.676,0.394-1.227,0.91-1.652,1.55c-0.425,0.64-0.737,1.365-0.935,2.175c-0.198,0.81-0.297,1.632-0.297,2.466    c0,1.092,0.084,1.999,0.254,2.721c0.168,0.722,0.402,1.297,0.699,1.726c0.297,0.429,0.647,0.734,1.049,0.916    s0.842,0.273,1.319,0.273c0.443,0,0.915-0.091,1.416-0.273s1.004-0.443,1.512-0.784c0.506-0.34,0.996-0.763,1.468-1.268    s0.899-1.081,1.284-1.726v-7.661c-0.279-0.106-0.576-0.203-0.891-0.291c-0.314-0.088-0.636-0.162-0.961-0.22    c-0.327-0.059-0.645-0.106-0.953-0.141S41.189,21.791,40.922,21.791z"/>
		<path class="st3" d="M62.752,18.797c1.863,0,3.291,0.614,4.281,1.841s1.486,3.05,1.486,5.468v11.007h-3.233v-9.687    c0-1.104-0.073-2.014-0.219-2.73c-0.146-0.716-0.361-1.282-0.646-1.699c-0.286-0.417-0.647-0.708-1.083-0.872    c-0.438-0.164-0.953-0.247-1.547-0.247c-0.63,0-1.244,0.15-1.845,0.449s-1.15,0.687-1.651,1.163    c-0.502,0.476-0.943,1.013-1.328,1.611s-0.67,1.198-0.857,1.796v10.215h-3.232V26.282c0-1.738-0.096-3.208-0.289-4.412    c-0.191-1.203-0.387-2.11-0.585-2.721h3.146c0.07,0.188,0.141,0.431,0.21,0.731c0.069,0.299,0.134,0.613,0.192,0.942    c0.059,0.329,0.111,0.652,0.157,0.969l0.14,0.792c1.107-1.338,2.226-2.304,3.355-2.897C60.334,19.094,61.517,18.797,62.752,18.797    z"/>
	</g>
	<g class="st2">
		<path class="st4" d="M30.326,54.301h-0.924v-2.868c0-0.312-0.012-0.564-0.035-0.757c-0.023-0.193-0.063-0.344-0.117-0.453    c-0.055-0.109-0.129-0.182-0.222-0.219c-0.093-0.037-0.21-0.056-0.35-0.056c-0.124,0-0.247,0.024-0.37,0.075    s-0.241,0.122-0.352,0.214c-0.112,0.093-0.215,0.202-0.31,0.327c-0.095,0.126-0.176,0.264-0.242,0.415v3.321H26.48v-3.095    c0-0.497-0.028-0.917-0.085-1.261s-0.112-0.603-0.165-0.777h0.899c0.037,0.107,0.068,0.234,0.095,0.381    c0.026,0.145,0.048,0.278,0.065,0.399c0.153-0.178,0.299-0.323,0.439-0.438c0.14-0.113,0.278-0.203,0.417-0.269    s0.276-0.11,0.412-0.136c0.137-0.025,0.276-0.038,0.419-0.038c0.163,0,0.312,0.024,0.444,0.071    c0.133,0.047,0.25,0.108,0.352,0.186s0.189,0.167,0.262,0.27c0.073,0.102,0.13,0.209,0.17,0.319    c0.157-0.171,0.308-0.312,0.455-0.421c0.146-0.108,0.29-0.193,0.429-0.256c0.14-0.063,0.277-0.105,0.412-0.131    s0.267-0.038,0.397-0.038c0.253,0,0.466,0.042,0.639,0.124c0.173,0.082,0.312,0.203,0.417,0.364s0.18,0.36,0.225,0.599    s0.067,0.514,0.067,0.825v3.321h-0.924v-2.768c0-0.325-0.012-0.59-0.035-0.795c-0.023-0.205-0.063-0.365-0.118-0.483    c-0.055-0.117-0.129-0.198-0.222-0.241s-0.209-0.065-0.35-0.065c-0.123,0-0.245,0.024-0.364,0.073    c-0.12,0.049-0.236,0.117-0.347,0.206s-0.215,0.196-0.31,0.324s-0.179,0.271-0.252,0.428V54.301z"/>
		<path class="st4" d="M34.496,51.76c0-0.433,0.065-0.816,0.194-1.15c0.13-0.334,0.305-0.615,0.524-0.845s0.476-0.403,0.769-0.521    s0.604-0.177,0.934-0.177c0.343,0,0.657,0.06,0.941,0.177c0.284,0.117,0.529,0.291,0.734,0.521s0.364,0.511,0.477,0.845    c0.113,0.334,0.169,0.718,0.169,1.15s-0.065,0.814-0.195,1.146c-0.129,0.333-0.304,0.611-0.524,0.836s-0.476,0.395-0.769,0.511    s-0.604,0.174-0.934,0.174c-0.343,0-0.657-0.058-0.941-0.174s-0.529-0.286-0.734-0.511s-0.364-0.503-0.477-0.836    C34.552,52.574,34.496,52.192,34.496,51.76z M35.419,51.76c0,0.291,0.035,0.553,0.104,0.785c0.07,0.23,0.169,0.427,0.297,0.586    c0.128,0.159,0.28,0.281,0.457,0.365c0.176,0.084,0.373,0.125,0.589,0.125c0.2,0,0.388-0.041,0.564-0.125s0.331-0.206,0.462-0.365    s0.235-0.355,0.31-0.586c0.075-0.232,0.112-0.494,0.112-0.785c0-0.295-0.035-0.56-0.104-0.793    c-0.07-0.232-0.169-0.431-0.297-0.594c-0.128-0.162-0.281-0.287-0.459-0.372s-0.374-0.128-0.587-0.128    c-0.203,0-0.393,0.043-0.569,0.128c-0.177,0.085-0.33,0.21-0.459,0.372c-0.13,0.163-0.232,0.361-0.307,0.594    C35.457,51.2,35.419,51.465,35.419,51.76z"/>
	</g>
	<g class="st2">
		<path class="st4" d="M43.289,49.067c0.533,0,0.94,0.175,1.224,0.526c0.282,0.35,0.425,0.871,0.425,1.563v3.145h-0.924v-2.768    c0-0.315-0.021-0.575-0.063-0.779c-0.042-0.205-0.104-0.367-0.186-0.486c-0.081-0.119-0.184-0.202-0.309-0.249    s-0.272-0.07-0.442-0.07c-0.18,0-0.355,0.042-0.526,0.128c-0.172,0.086-0.33,0.197-0.473,0.332    c-0.143,0.137-0.27,0.289-0.379,0.461c-0.11,0.171-0.191,0.342-0.245,0.514v2.918h-0.924v-3.095c0-0.497-0.027-0.917-0.083-1.261    c-0.055-0.344-0.111-0.603-0.167-0.777h0.899c0.02,0.054,0.039,0.123,0.06,0.209s0.038,0.176,0.056,0.27    c0.016,0.094,0.031,0.186,0.045,0.276l0.039,0.227c0.316-0.382,0.637-0.658,0.959-0.827    C42.598,49.152,42.937,49.067,43.289,49.067z"/>
	</g>
	<g class="st2">
		<path class="st4" d="M46.695,49.294h0.999v-1.636h0.924v1.636h1.623v0.729h-1.623v2.314c0,0.259,0.013,0.471,0.038,0.635    c0.024,0.164,0.063,0.293,0.114,0.385s0.117,0.155,0.197,0.188c0.08,0.034,0.177,0.05,0.29,0.05c0.143,0,0.305-0.031,0.484-0.096    c0.18-0.063,0.379-0.156,0.6-0.281v0.805c-0.23,0.151-0.45,0.256-0.66,0.314c-0.209,0.059-0.402,0.089-0.579,0.089    c-0.196,0-0.38-0.022-0.55-0.067c-0.169-0.046-0.318-0.125-0.446-0.24c-0.128-0.113-0.229-0.266-0.302-0.455    c-0.074-0.189-0.11-0.43-0.11-0.722v-2.919h-0.999V49.294z"/>
	</g>
	<g class="st2">
		<path class="st4" d="M55.708,51.634c0,0.634,0.035,1.167,0.104,1.598c0.07,0.431,0.16,0.788,0.27,1.069h-0.873    c-0.018-0.043-0.04-0.104-0.07-0.182c-0.029-0.076-0.061-0.164-0.092-0.264c-0.032-0.1-0.063-0.205-0.09-0.319    c-0.029-0.114-0.053-0.229-0.072-0.343c-0.131,0.168-0.268,0.326-0.412,0.474c-0.146,0.147-0.298,0.278-0.457,0.392    c-0.16,0.115-0.326,0.205-0.5,0.27c-0.173,0.066-0.35,0.099-0.529,0.099c-0.209,0-0.418-0.046-0.627-0.136    c-0.207-0.091-0.395-0.227-0.562-0.408c-0.167-0.181-0.302-0.408-0.404-0.682c-0.104-0.273-0.155-0.594-0.155-0.963    c0-0.387,0.043-0.736,0.128-1.05s0.2-0.593,0.347-0.838c0.13-0.214,0.268-0.402,0.414-0.563s0.308-0.295,0.482-0.4    s0.367-0.186,0.576-0.238c0.211-0.055,0.443-0.081,0.699-0.081c0.127,0,0.268,0.009,0.422,0.028    c0.155,0.018,0.313,0.044,0.475,0.078c0.162,0.033,0.322,0.073,0.482,0.12s0.308,0.097,0.444,0.151V51.634z M53.686,49.923    c-0.106,0-0.214,0.013-0.322,0.038c-0.107,0.025-0.215,0.068-0.319,0.128c-0.104,0.061-0.206,0.14-0.305,0.239    s-0.19,0.224-0.277,0.375c-0.09,0.154-0.162,0.346-0.217,0.576c-0.056,0.229-0.083,0.465-0.083,0.707    c0,0.278,0.026,0.518,0.078,0.717c0.051,0.199,0.119,0.364,0.205,0.493c0.084,0.13,0.181,0.224,0.289,0.284    c0.107,0.061,0.217,0.091,0.327,0.091c0.14,0,0.292-0.044,0.457-0.131s0.325-0.203,0.481-0.347    c0.156-0.145,0.305-0.311,0.442-0.499c0.138-0.188,0.252-0.382,0.342-0.583v-1.887c-0.05-0.023-0.114-0.048-0.192-0.071    s-0.164-0.046-0.26-0.065c-0.095-0.02-0.197-0.035-0.31-0.048C53.911,49.929,53.799,49.923,53.686,49.923z"/>
	</g>
	<g class="st2">
		<path class="st3" d="M63.545,54.144c0,0.554-0.08,1.027-0.24,1.422c-0.16,0.394-0.371,0.716-0.631,0.966s-0.557,0.434-0.891,0.551    c-0.332,0.117-0.672,0.176-1.018,0.176c-0.398,0-0.795-0.069-1.189-0.207c-0.393-0.139-0.756-0.321-1.089-0.548l0.405-0.976    c0.296,0.215,0.594,0.389,0.893,0.522c0.301,0.134,0.606,0.201,0.918,0.201c0.163,0,0.342-0.029,0.537-0.088    s0.379-0.161,0.55-0.306s0.313-0.338,0.428-0.582c0.114-0.242,0.172-0.547,0.172-0.912v-1.164    c-0.163,0.206-0.334,0.381-0.515,0.525c-0.182,0.145-0.365,0.263-0.55,0.354c-0.186,0.09-0.37,0.154-0.556,0.194    s-0.363,0.06-0.534,0.06c-0.287,0-0.563-0.051-0.831-0.15c-0.266-0.102-0.502-0.262-0.708-0.482    c-0.206-0.22-0.37-0.506-0.493-0.857c-0.123-0.354-0.184-0.779-0.184-1.277c0-0.482,0.063-0.953,0.187-1.41    c0.125-0.457,0.318-0.863,0.581-1.217c0.262-0.354,0.598-0.64,1.008-0.855c0.41-0.217,0.9-0.324,1.471-0.324    c0.188,0,0.38,0.014,0.578,0.041c0.197,0.027,0.394,0.063,0.59,0.109c0.195,0.047,0.387,0.098,0.574,0.154    s0.366,0.112,0.537,0.167V54.144z M61.078,48.827c-0.342,0-0.633,0.07-0.874,0.211c-0.241,0.14-0.438,0.325-0.59,0.554    s-0.263,0.487-0.334,0.777c-0.071,0.289-0.106,0.582-0.106,0.881c0,0.39,0.03,0.713,0.091,0.971    c0.06,0.259,0.144,0.465,0.249,0.617c0.107,0.153,0.231,0.262,0.375,0.327c0.145,0.065,0.301,0.098,0.472,0.098    c0.158,0,0.327-0.032,0.506-0.098s0.358-0.158,0.54-0.28c0.182-0.121,0.355-0.271,0.524-0.453c0.169-0.18,0.321-0.385,0.459-0.616    v-2.737c-0.101-0.037-0.206-0.072-0.318-0.104s-0.228-0.057-0.344-0.078s-0.229-0.038-0.341-0.051    C61.277,48.834,61.174,48.827,61.078,48.827z"/>
		<path class="st3" d="M68.877,47.758c0.666,0,1.176,0.219,1.529,0.657s0.531,1.089,0.531,1.954v3.932h-1.155V50.84    c0-0.394-0.026-0.719-0.078-0.975s-0.129-0.458-0.231-0.607c-0.102-0.148-0.23-0.252-0.387-0.311    c-0.156-0.06-0.34-0.089-0.553-0.089c-0.225,0-0.443,0.054-0.658,0.161c-0.215,0.106-0.411,0.244-0.59,0.414    c-0.18,0.17-0.338,0.362-0.475,0.576c-0.138,0.214-0.24,0.428-0.307,0.643v3.648H65.35v-3.869c0-0.621-0.035-1.146-0.104-1.576    s-0.139-0.754-0.209-0.973h1.124c0.024,0.068,0.05,0.154,0.075,0.262c0.024,0.107,0.047,0.219,0.068,0.336    c0.021,0.118,0.039,0.233,0.057,0.347l0.049,0.283c0.396-0.479,0.795-0.823,1.199-1.035S68.436,47.758,68.877,47.758z"/>
	</g>
	<g class="st2">
		<path class="st4" d="M74.426,49.067c0.273,0,0.515,0.032,0.725,0.099c0.209,0.064,0.391,0.156,0.544,0.271s0.281,0.25,0.385,0.404    c0.103,0.155,0.186,0.321,0.247,0.499s0.105,0.362,0.133,0.556c0.025,0.193,0.039,0.383,0.039,0.571v0.196    c0,0.084-0.002,0.149-0.004,0.196h-3.541c0.01,0.296,0.056,0.552,0.137,0.771c0.082,0.217,0.193,0.398,0.335,0.54    c0.142,0.144,0.308,0.249,0.499,0.319s0.4,0.105,0.627,0.105c0.322,0,0.639-0.036,0.949-0.109    c0.309-0.074,0.617-0.205,0.924-0.393l0.1,0.83c-0.177,0.09-0.35,0.168-0.52,0.23c-0.17,0.064-0.34,0.116-0.51,0.156    c-0.17,0.041-0.342,0.07-0.516,0.088c-0.176,0.02-0.359,0.028-0.553,0.028c-0.319,0-0.624-0.056-0.914-0.169    c-0.289-0.112-0.544-0.278-0.764-0.498s-0.395-0.492-0.524-0.817s-0.194-0.703-0.194-1.132c0-0.416,0.056-0.793,0.167-1.131    c0.112-0.336,0.271-0.625,0.478-0.865c0.206-0.239,0.457-0.424,0.754-0.553C73.724,49.133,74.057,49.067,74.426,49.067z     M74.352,49.822c-0.367,0-0.666,0.108-0.899,0.324c-0.233,0.217-0.386,0.553-0.46,1.01H75.6c0-0.215-0.031-0.405-0.092-0.572    c-0.063-0.166-0.148-0.305-0.26-0.42c-0.112-0.113-0.244-0.199-0.397-0.256S74.531,49.822,74.352,49.822z"/>
	</g>
	<g class="st2">
		<path class="st3" d="M29.083,9.52c-0.111,0.269-0.311,0.498-0.599,0.688c-0.289,0.173-0.602,0.26-0.94,0.26    c-0.444,0-0.771-0.185-0.982-0.554c-0.2-0.318-0.3-0.71-0.3-1.174c0-0.643,0.142-1.149,0.424-1.518    c0.316-0.419,0.813-0.629,1.49-0.629c0.438,0,0.741,0.126,0.907,0.377V6.593h0.816v3.623c0.222-0.308,0.352-0.495,0.391-0.562    c0.238-0.358,0.396-0.663,0.474-0.914l0.133,0.251c-0.083,0.257-0.247,0.573-0.491,0.948c-0.094,0.134-0.183,0.264-0.266,0.39    c-0.083,0.125-0.164,0.247-0.241,0.365v4.235c0,1.006-0.133,1.809-0.399,2.407c-0.316,0.688-0.788,1.031-1.415,1.031    c-0.289,0-0.502-0.165-0.641-0.495s-0.208-0.769-0.208-1.317c0-0.402,0.056-0.883,0.167-1.442c0.1-0.47,0.233-0.934,0.399-1.392    c0.15-0.464,0.341-0.931,0.574-1.4c0.117-0.229,0.234-0.458,0.354-0.688c0.119-0.229,0.237-0.456,0.354-0.679V9.52z M28.31,6.777    c-0.394,0-0.685,0.167-0.874,0.503c-0.194,0.341-0.291,0.755-0.291,1.241c0,0.353,0.063,0.651,0.191,0.897    c0.155,0.319,0.405,0.478,0.749,0.478c0.272,0,0.5-0.086,0.683-0.26c0.139-0.134,0.244-0.311,0.316-0.528V7.893    C29.083,7.149,28.826,6.777,28.31,6.777z M28.027,14.09c-0.139,0.425-0.242,0.833-0.308,1.224    c-0.017,0.084-0.033,0.165-0.05,0.244c-0.017,0.078-0.031,0.151-0.042,0.218c-0.022,0.212-0.033,0.321-0.033,0.327    c-0.011,0.089-0.017,0.172-0.017,0.248c0,0.075,0,0.141,0,0.197c0,0.397,0.053,0.716,0.158,0.956    c0.105,0.241,0.264,0.361,0.475,0.361c0.366,0,0.616-0.352,0.749-1.057c0.083-0.431,0.125-1.026,0.125-1.787v-3.363    c-0.078,0.151-0.149,0.296-0.216,0.436c-0.066,0.14-0.13,0.274-0.191,0.402c-0.122,0.229-0.191,0.375-0.208,0.437    c-0.216,0.453-0.363,0.835-0.441,1.149V14.09z"/>
		<path class="st3" d="M32.779,7.473c0.133-0.24,0.358-0.464,0.674-0.671c0.294-0.19,0.585-0.285,0.874-0.285    c0.311,0,0.558,0.067,0.741,0.202c0.233,0.162,0.35,0.397,0.35,0.704v2.088c0,0.207,0.011,0.347,0.033,0.419    c0.034,0.167,0.117,0.251,0.25,0.251c0.149,0,0.319-0.238,0.507-0.713c0.028-0.106,0.061-0.209,0.1-0.31    c0.017-0.056,0.038-0.116,0.063-0.181c0.025-0.064,0.051-0.133,0.079-0.205l0.125,0.251c-0.044,0.106-0.082,0.201-0.112,0.285    c-0.03,0.084-0.057,0.159-0.079,0.227c-0.011,0.022-0.02,0.046-0.025,0.071c-0.005,0.025-0.011,0.046-0.017,0.063    c-0.011,0.022-0.021,0.045-0.029,0.067c-0.008,0.022-0.015,0.042-0.021,0.059c-0.017,0.05-0.032,0.098-0.046,0.143    s-0.023,0.081-0.029,0.109c-0.166,0.28-0.463,0.419-0.89,0.419c-0.194,0-0.339-0.042-0.433-0.126    c-0.183-0.117-0.274-0.293-0.274-0.528v-2.29c0-0.173-0.028-0.321-0.083-0.444c-0.083-0.146-0.219-0.218-0.408-0.218    c-0.261,0-0.533,0.121-0.815,0.361c-0.339,0.274-0.519,0.567-0.541,0.88v2.365h-0.774V7.859v-0.36    c0-0.251-0.006-0.403-0.017-0.453c-0.028-0.072-0.07-0.123-0.125-0.151c-0.133,0-0.316,0.341-0.549,1.023    c-0.061,0.167-0.115,0.313-0.162,0.436c-0.047,0.123-0.082,0.221-0.104,0.293c-0.066,0.185-0.108,0.31-0.125,0.377l-0.133-0.251    c0.022-0.079,0.042-0.137,0.058-0.176c0.006-0.034,0.014-0.066,0.025-0.097c0.011-0.03,0.022-0.063,0.034-0.096    c0.011-0.028,0.021-0.057,0.029-0.088c0.008-0.03,0.021-0.063,0.038-0.096c0.005-0.028,0.014-0.057,0.025-0.088    s0.022-0.063,0.033-0.097c0.011-0.028,0.021-0.056,0.029-0.084c0.008-0.028,0.021-0.059,0.038-0.092    c0.011-0.056,0.033-0.12,0.066-0.193c0.011-0.039,0.028-0.091,0.05-0.155c0.022-0.064,0.05-0.139,0.083-0.223    c0.211-0.514,0.48-0.771,0.807-0.771c0.322,0,0.521,0.084,0.599,0.252c0.05,0.095,0.075,0.33,0.075,0.704H32.779z"/>
	</g>
	<g class="st2">
		<path class="st5" d="M67.384,64.057v0.403h-1.448v0.604c0,0.249,0.002,0.469,0.006,0.66c0.002,0.189,0.014,0.334,0.031,0.434    h-0.549c0.019-0.101,0.029-0.246,0.033-0.437c0.002-0.19,0.004-0.409,0.004-0.657V63.24c0-0.113-0.001-0.217-0.004-0.311    c-0.002-0.096-0.006-0.181-0.011-0.256c-0.005-0.076-0.013-0.139-0.022-0.189h2.172V62.9h-1.66v1.156H67.384z"/>
		<path class="st5" d="M68.133,64.888c0-0.216,0.033-0.408,0.098-0.575c0.064-0.166,0.152-0.308,0.262-0.422    c0.11-0.115,0.238-0.202,0.385-0.261c0.146-0.06,0.303-0.089,0.467-0.089c0.172,0,0.328,0.029,0.471,0.089    c0.143,0.059,0.266,0.146,0.367,0.261c0.103,0.114,0.182,0.256,0.238,0.422c0.057,0.167,0.086,0.359,0.086,0.575    s-0.033,0.407-0.098,0.573c-0.065,0.166-0.152,0.306-0.263,0.418s-0.237,0.197-0.384,0.256c-0.146,0.058-0.303,0.086-0.467,0.086    c-0.172,0-0.329-0.028-0.471-0.086c-0.143-0.059-0.266-0.144-0.367-0.256c-0.104-0.112-0.182-0.252-0.238-0.418    S68.133,65.104,68.133,64.888z M68.596,64.888c0,0.146,0.018,0.276,0.052,0.393c0.035,0.116,0.085,0.214,0.148,0.293    c0.064,0.079,0.141,0.141,0.229,0.183c0.089,0.041,0.187,0.063,0.295,0.063c0.1,0,0.194-0.021,0.282-0.063    c0.088-0.042,0.165-0.104,0.23-0.183c0.066-0.079,0.117-0.177,0.155-0.293c0.037-0.116,0.056-0.247,0.056-0.393    c0-0.147-0.018-0.28-0.053-0.396c-0.034-0.116-0.084-0.216-0.148-0.297c-0.063-0.081-0.141-0.144-0.229-0.187    c-0.09-0.043-0.188-0.063-0.294-0.063c-0.102,0-0.196,0.021-0.284,0.063c-0.089,0.043-0.166,0.105-0.23,0.187    s-0.115,0.181-0.153,0.297S68.596,64.74,68.596,64.888z"/>
		<path class="st5" d="M71.129,66.158v-1.547c0-0.248-0.014-0.459-0.041-0.631s-0.055-0.301-0.084-0.389h0.449    c0.021,0.047,0.039,0.106,0.055,0.178s0.029,0.15,0.039,0.237c0.012,0.087,0.02,0.181,0.024,0.279s0.007,0.198,0.007,0.3v0.163    c0.086-0.236,0.168-0.433,0.25-0.587c0.082-0.155,0.163-0.279,0.244-0.371c0.08-0.093,0.161-0.157,0.243-0.193    c0.081-0.037,0.165-0.057,0.249-0.057c0.063,0,0.122,0.006,0.176,0.018c0.053,0.012,0.107,0.031,0.162,0.059l-0.075,0.465    c-0.048-0.02-0.091-0.033-0.128-0.039c-0.036-0.008-0.081-0.011-0.135-0.011c-0.068,0-0.139,0.028-0.215,0.087    c-0.074,0.058-0.148,0.135-0.221,0.23s-0.141,0.203-0.205,0.324c-0.065,0.121-0.123,0.244-0.172,0.371s-0.088,0.25-0.117,0.371    s-0.043,0.229-0.043,0.322c0,0.041,0,0.08,0,0.115c0.002,0.035,0.004,0.069,0.008,0.102c0.004,0.033,0.01,0.066,0.017,0.099    s0.015,0.067,0.024,0.104H71.129z"/>
		<path class="st5" d="M74.5,63.541c0.166,0,0.311,0.021,0.431,0.06c0.12,0.04,0.227,0.091,0.318,0.155l-0.087,0.453    c-0.113-0.084-0.227-0.147-0.338-0.189s-0.232-0.063-0.361-0.063c-0.111,0-0.216,0.021-0.312,0.064    c-0.096,0.042-0.179,0.104-0.249,0.185c-0.071,0.08-0.127,0.179-0.166,0.297c-0.041,0.117-0.061,0.249-0.061,0.397    c0,0.136,0.019,0.259,0.055,0.369c0.037,0.111,0.09,0.207,0.158,0.286s0.15,0.142,0.246,0.185    c0.098,0.044,0.206,0.066,0.328,0.066c0.15,0,0.289-0.027,0.412-0.078c0.123-0.053,0.239-0.127,0.35-0.225l0.049,0.44    c-0.063,0.049-0.125,0.091-0.188,0.124c-0.063,0.035-0.129,0.063-0.196,0.086c-0.068,0.023-0.142,0.039-0.22,0.051    c-0.078,0.011-0.164,0.016-0.258,0.016c-0.168,0-0.325-0.029-0.472-0.089s-0.274-0.146-0.384-0.258    c-0.11-0.112-0.197-0.249-0.26-0.407c-0.063-0.16-0.096-0.34-0.096-0.541c0-0.189,0.031-0.369,0.092-0.536    c0.061-0.168,0.146-0.314,0.26-0.44c0.111-0.126,0.248-0.225,0.409-0.299C74.123,63.578,74.302,63.541,74.5,63.541z"/>
		<path class="st5" d="M76.947,63.541c0.137,0,0.257,0.018,0.361,0.05c0.105,0.032,0.195,0.077,0.272,0.136    c0.077,0.058,0.141,0.125,0.192,0.203c0.051,0.076,0.093,0.16,0.123,0.248c0.031,0.09,0.053,0.182,0.066,0.278    s0.02,0.192,0.02,0.286v0.098c0,0.042,0,0.074-0.002,0.098h-1.77c0.004,0.148,0.027,0.276,0.068,0.385    c0.041,0.109,0.096,0.199,0.167,0.271c0.071,0.07,0.153,0.124,0.249,0.159c0.096,0.036,0.201,0.054,0.314,0.054    c0.161,0,0.319-0.02,0.475-0.057c0.154-0.036,0.309-0.102,0.461-0.195l0.051,0.415c-0.089,0.045-0.176,0.083-0.26,0.116    c-0.086,0.031-0.17,0.057-0.255,0.077s-0.171,0.035-0.259,0.044c-0.088,0.01-0.18,0.014-0.275,0.014    c-0.16,0-0.313-0.027-0.457-0.084s-0.272-0.139-0.383-0.249c-0.109-0.11-0.197-0.246-0.262-0.409    c-0.064-0.162-0.098-0.352-0.098-0.566c0-0.207,0.028-0.396,0.084-0.564c0.056-0.168,0.135-0.313,0.238-0.433    s0.229-0.212,0.377-0.276S76.762,63.541,76.947,63.541z M76.91,63.919c-0.184,0-0.334,0.054-0.45,0.162s-0.192,0.276-0.229,0.505    h1.303c0-0.107-0.016-0.203-0.046-0.285c-0.03-0.084-0.073-0.154-0.13-0.211c-0.056-0.057-0.121-0.1-0.198-0.128    S77,63.919,76.91,63.919z"/>
	</g>
	<g class="st2">
		<path class="st5" d="M25.833,62.379h1.435v0.164h-0.606c-0.132,0-0.222,0.042-0.27,0.127c-0.027,0.047-0.04,0.109-0.04,0.185v4.62    c0,0.102,0.014,0.178,0.043,0.228c0.05,0.087,0.146,0.131,0.29,0.131h0.583v0.175h-1.435V62.379z"/>
		<path class="st5" d="M30.077,64.678v1.883c0,0.801-0.277,1.202-0.833,1.202c-0.066,0-0.155-0.011-0.266-0.034    c-0.062-0.012-0.149-0.039-0.26-0.082c-0.141-0.053-0.211-0.098-0.211-0.133c-0.018-0.07-0.026-0.268-0.026-0.59    c0.085,0.094,0.218,0.231,0.399,0.412c0.153,0.139,0.279,0.207,0.378,0.207c0.232,0,0.348-0.355,0.348-1.065v-2.041    c0-0.316-0.133-0.484-0.399-0.503c-0.111-0.008-0.167-0.027-0.167-0.059c0-0.018,0.109-0.052,0.326-0.104l0.191-0.047    c0.016-0.005,0.1-0.034,0.251-0.091c0.126-0.046,0.202-0.068,0.227-0.068c0.028,0.011,0.042,0.107,0.042,0.288    c0,0.036-0.001,0.09-0.003,0.162c-0.002,0.071-0.003,0.126-0.003,0.161c0,0.051,0.004,0.09,0.012,0.116    c0.13-0.146,0.241-0.259,0.333-0.339c0.231-0.199,0.459-0.299,0.684-0.299c0.477,0,0.806,0.211,0.985,0.633    c0.07,0.166,0.105,0.301,0.105,0.404v1.613c0,0.306,0.123,0.479,0.37,0.521c0.099,0.018,0.148,0.032,0.148,0.043    c-0.01,0.059-0.148,0.088-0.416,0.088h-0.613c-0.254,0-0.386-0.031-0.396-0.096c0-0.006,0.033-0.02,0.098-0.041    c0.077-0.026,0.122-0.043,0.137-0.051c0.13-0.072,0.195-0.23,0.195-0.479v-1.153c0-0.544-0.144-0.896-0.43-1.058    c-0.124-0.068-0.258-0.104-0.401-0.104c-0.207,0-0.37,0.049-0.491,0.145C30.181,64.285,30.077,64.471,30.077,64.678z"/>
		<path class="st5" d="M35.346,68.008h-1.438V67.84h0.609c0.204,0,0.306-0.104,0.306-0.309v-4.623c0-0.236-0.11-0.355-0.33-0.355    h-0.586v-0.174h1.438V68.008z"/>
	</g>
	<g class="st2">
		<path class="st5" d="M66.805,67.55h0.499v3.515h-0.499V67.55z"/>
		<path class="st5" d="M69.625,67.504c0.32,0,0.584,0.17,0.793,0.508s0.313,0.767,0.313,1.287c0,0.533-0.104,0.967-0.313,1.301    c-0.209,0.333-0.479,0.5-0.813,0.5c-0.338,0-0.609-0.164-0.814-0.49c-0.204-0.327-0.307-0.761-0.307-1.301    c0-0.533,0.105-0.968,0.317-1.303C69.013,67.672,69.287,67.504,69.625,67.504z M69.631,67.982h-0.025    c-0.191,0-0.344,0.119-0.455,0.355c-0.113,0.238-0.169,0.56-0.169,0.965c0,0.416,0.055,0.742,0.165,0.979    c0.109,0.236,0.261,0.354,0.454,0.354c0.192,0,0.345-0.118,0.457-0.354c0.111-0.237,0.167-0.558,0.167-0.964    c0-0.408-0.054-0.732-0.161-0.974C69.957,68.104,69.813,67.982,69.631,67.982z"/>
		<path class="st5" d="M72.182,67.504c0.32,0,0.584,0.17,0.793,0.508s0.313,0.767,0.313,1.287c0,0.533-0.104,0.967-0.313,1.301    c-0.209,0.333-0.479,0.5-0.813,0.5c-0.338,0-0.609-0.164-0.814-0.49c-0.204-0.327-0.307-0.761-0.307-1.301    c0-0.533,0.105-0.968,0.317-1.303C71.569,67.672,71.844,67.504,72.182,67.504z M72.188,67.982h-0.025    c-0.191,0-0.344,0.119-0.455,0.355c-0.113,0.238-0.169,0.56-0.169,0.965c0,0.416,0.055,0.742,0.165,0.979    c0.109,0.236,0.261,0.354,0.454,0.354c0.192,0,0.345-0.118,0.457-0.354c0.111-0.237,0.167-0.558,0.167-0.964    c0-0.408-0.054-0.732-0.161-0.974C72.514,68.104,72.369,67.982,72.188,67.982z"/>
		<path class="st5" d="M75.766,67.51c0.215,0,0.397,0.076,0.549,0.23s0.227,0.34,0.227,0.557c0,0.215-0.076,0.399-0.228,0.554    c-0.152,0.154-0.335,0.231-0.548,0.231s-0.396-0.077-0.549-0.231s-0.229-0.339-0.229-0.554c0-0.217,0.076-0.402,0.228-0.557    S75.551,67.51,75.766,67.51z M77.531,67.5h0.387l-2.294,3.604h-0.386L77.531,67.5z M75.759,67.892c-0.11,0-0.206,0.04-0.284,0.119    c-0.08,0.079-0.119,0.175-0.119,0.288c0,0.109,0.04,0.204,0.119,0.283c0.08,0.078,0.175,0.117,0.284,0.117    c0.111,0,0.206-0.039,0.285-0.117c0.079-0.079,0.118-0.174,0.118-0.283c0-0.114-0.039-0.211-0.117-0.289    S75.871,67.892,75.759,67.892z M77.412,69.535c0.213,0,0.395,0.076,0.549,0.23c0.152,0.152,0.229,0.337,0.229,0.552    c0,0.214-0.076,0.397-0.229,0.547c-0.151,0.15-0.334,0.226-0.549,0.226c-0.217,0-0.4-0.075-0.553-0.226    c-0.152-0.149-0.229-0.333-0.229-0.547c0-0.216,0.077-0.401,0.23-0.554C77.014,69.611,77.197,69.535,77.412,69.535z     M77.406,69.917c-0.109,0-0.202,0.04-0.279,0.118s-0.115,0.173-0.115,0.283c0,0.112,0.038,0.208,0.115,0.287    c0.077,0.08,0.17,0.119,0.279,0.119c0.113,0,0.209-0.039,0.287-0.117c0.078-0.079,0.117-0.176,0.117-0.289    c0-0.111-0.039-0.207-0.117-0.285C77.615,69.956,77.52,69.917,77.406,69.917z"/>
	</g>
	<polygon class="st6" points="11,35.6 11.4,35 11,35.6 7.2,27.7 0.4,43 28.5,43 16.9,24.6 11.4,35  "/>
	<polyline class="st7" points="5,32.7 6.2,32.4 7.4,33.4 8.9,31.2  "/>
	<polyline class="st7" points="14.9,28.5 15.8,28.1 16.5,29.1 17.3,28.4 19.3,30.3 19.3,28.4  "/>
	<polygon class="st8" points="0.4,43 7.2,27.7 11,35.6 16.9,24.6 28.5,43  "/>
	<path class="st9" d="M11,35.6"/>
</g>
</svg>