<?xml version="1.0" encoding="UTF-8"?>
<!-- Generator: Adobe Illustrator 24.0.2, SVG Export Plug-In . SVG Version: 6.00 Build 0)  -->
<svg version="1.1" id="Calque_1" xmlns="http://www.w3.org/2000/svg" xmlns:xlink="http://www.w3.org/1999/xlink" x="0px" y="0px" viewBox="0 0 116 71" style="enable-background:new 0 0 116 71;" xml:space="preserve">
<style type="text/css">
	.st0{fill:#FFFFFF;stroke:#DADADA;stroke-width:0.7214;stroke-miterlimit:10;}
	.st1{fill:#FFFFFF;stroke:#9D9D9C;stroke-width:0.7214;stroke-miterlimit:10;}
	.st2{fill:#FFFFFF;stroke:#000000;stroke-width:0.9618;stroke-miterlimit:10;}
	.st3{enable-background:new    ;}
	.st4{fill:#7DB728;}
	.st5{fill:none;stroke:#B2B2B2;stroke-width:0.3607;stroke-miterlimit:10;}
	.st6{fill:#878787;}
	.st7{fill:#575756;}
	.st8{fill:#B2B2B2;}
	.st9{opacity:0.6;enable-background:new    ;}
	.st10{fill:#7FC7EB;}
	.st11{fill:#E11683;}
	.st12{opacity:0.8;enable-background:new    ;}
	.st13{fill:#FFFFFF;}
	.st14{fill:#7FC7EB;stroke:#575756;stroke-width:0.173;stroke-linecap:round;stroke-linejoin:round;stroke-miterlimit:10;}
	.st15{fill:none;stroke:#575756;stroke-width:0.173;stroke-linecap:round;stroke-linejoin:round;stroke-miterlimit:10;}
	.st16{fill:none;stroke:#575756;stroke-width:0.5191;stroke-linecap:round;stroke-linejoin:round;stroke-miterlimit:10;}
</style>
<g id="_x3C_Groupe_x3E__igloo">
	<rect x="77.4" y="12.9" class="st0" width="37.8" height="12"/>
	<polygon class="st0" points="77.4,13 77.4,1 115.2,1 115.2,13 103.2,13  "/>
	<rect x="77.6" y="24.7" class="st0" width="37.8" height="11.9"/>
	<polygon class="st1" points="90.9,66.2 77.3,66.2 77.3,36.7 107,36.7 107,66.2 93.7,66.2  "/>
	<path class="st2" d="M53.9,58.5H20V1.7h57.3v56.8H60.9c0,0-5.3,9.5-14,11.3C46.9,69.8,52.1,66.3,53.9,58.5z"/>
	<g class="st3">
		<path class="st4" d="M101.297,40.284l0.986,1.635l0.936-1.635h0.574c-0.073,0.104-0.139,0.198-0.195,0.283    s-0.107,0.165-0.155,0.241s-0.093,0.15-0.138,0.223c-0.044,0.072-0.09,0.148-0.136,0.23l-0.675,1.143v0.415    c0,0.244,0.002,0.46,0.006,0.647c0.003,0.187,0.014,0.33,0.032,0.429h-0.55c0.02-0.099,0.029-0.242,0.033-0.429    c0.003-0.188,0.005-0.403,0.005-0.647v-0.435l-0.661-1.123c-0.049-0.082-0.096-0.16-0.142-0.238    c-0.046-0.077-0.094-0.156-0.144-0.234c-0.05-0.08-0.104-0.16-0.161-0.242c-0.058-0.083-0.121-0.17-0.19-0.263H101.297z"/>
	</g>
	<g class="st3">
		<path class="st4" d="M81.467,43.057c-0.346,0-0.572-0.051-0.676-0.154c-0.109-0.101-0.162-0.307-0.162-0.617v-1.313    c0-0.129-0.031-0.193-0.093-0.193c-0.075,0-0.181,0.181-0.313,0.541c-0.012,0.036-0.023,0.072-0.035,0.107    c-0.013,0.035-0.024,0.07-0.035,0.102c-0.015,0.036-0.028,0.072-0.041,0.107c-0.012,0.035-0.023,0.07-0.035,0.102    c-0.035,0.094-0.061,0.163-0.076,0.209c-0.014,0.036-0.027,0.07-0.04,0.105c-0.013,0.033-0.024,0.066-0.035,0.099l-0.081-0.161    c0.098-0.332,0.177-0.58,0.238-0.744c0.086-0.229,0.173-0.398,0.26-0.51c0.101-0.136,0.22-0.203,0.357-0.203    c0.201,0,0.328,0.053,0.378,0.16c0.036,0.072,0.054,0.24,0.054,0.504v1.088c0,0.172,0.02,0.297,0.061,0.375    c0.064,0.111,0.18,0.166,0.346,0.166c0.137,0,0.254-0.048,0.352-0.145c0.072-0.067,0.153-0.184,0.243-0.348v-1.758h0.536v2.314    c0.144-0.196,0.229-0.316,0.254-0.359c0.151-0.214,0.254-0.408,0.309-0.584l0.086,0.161c-0.061,0.179-0.17,0.38-0.324,0.605    c-0.036,0.058-0.063,0.099-0.081,0.124c-0.04,0.05-0.067,0.091-0.081,0.123c-0.068,0.082-0.123,0.16-0.162,0.235v2.696    c0,0.639-0.087,1.152-0.26,1.538c-0.199,0.446-0.506,0.67-0.92,0.67c-0.191,0-0.33-0.105-0.416-0.316    c-0.091-0.218-0.136-0.5-0.136-0.847c0-0.289,0.036-0.599,0.108-0.928c0.054-0.242,0.139-0.531,0.254-0.867    c0.09-0.293,0.215-0.596,0.373-0.906c0-0.004,0.013-0.025,0.038-0.064c0.007-0.029,0.036-0.086,0.087-0.172    c0.018-0.039,0.039-0.081,0.063-0.125c0.023-0.045,0.049-0.093,0.078-0.143c0.029-0.054,0.059-0.111,0.092-0.174    c0.032-0.063,0.066-0.127,0.103-0.19V42.58c-0.169,0.314-0.392,0.472-0.665,0.472V43.057z M82.132,43.808    c-0.23,0.454-0.36,0.724-0.39,0.81c-0.129,0.264-0.229,0.512-0.297,0.744c-0.008,0.033-0.021,0.08-0.043,0.145    c-0.022,0.058-0.037,0.109-0.044,0.156c-0.011,0.021-0.019,0.045-0.024,0.072s-0.012,0.053-0.019,0.078    c-0.007,0.024-0.015,0.051-0.022,0.08c-0.007,0.028-0.012,0.057-0.016,0.086c-0.068,0.332-0.104,0.543-0.108,0.632    c-0.003,0.079-0.007,0.146-0.008,0.198c-0.002,0.054-0.003,0.095-0.003,0.123c0,0.243,0.034,0.447,0.104,0.611    c0.068,0.157,0.17,0.236,0.308,0.236c0.234,0,0.396-0.23,0.481-0.691c0.055-0.297,0.081-0.672,0.081-1.126V43.808z"/>
	</g>
	<path class="st5" d="M38.4,54.3c0,0,1.8,2.4,4.1,0"/>
	<path class="st5" d="M43.9,54.3c0,0,7.2,3.3,18.8,0"/>
	<g class="st3">
		<path class="st6" d="M22.549,62.189h1.435v0.162h-0.606c-0.132,0-0.222,0.042-0.27,0.125c-0.026,0.047-0.04,0.107-0.04,0.182V67.2    c0,0.101,0.014,0.175,0.043,0.224c0.05,0.086,0.146,0.129,0.29,0.129h0.583v0.172h-1.435V62.189z"/>
		<path class="st6" d="M25.907,66.018c0,0.266,0.141,0.437,0.421,0.512c0.119,0.031,0.178,0.064,0.178,0.097    c-0.029,0.054-0.176,0.081-0.443,0.081h-0.839c-0.135,0-0.203-0.027-0.203-0.081c0-0.024,0.071-0.062,0.214-0.114    c0.148-0.053,0.222-0.221,0.222-0.508v-1.643c0-0.258-0.072-0.403-0.215-0.437c-0.059-0.007-0.118-0.016-0.176-0.024    c-0.09-0.016-0.135-0.035-0.135-0.059s0.159-0.077,0.478-0.16c0.03-0.008,0.116-0.041,0.258-0.096    c0.128-0.051,0.201-0.074,0.22-0.074c0.027,0.014,0.04,0.034,0.04,0.061c0,0.014-0.003,0.037-0.01,0.068    c-0.007,0.033-0.01,0.057-0.01,0.073V66.018z M25.233,62.621c0.001-0.083,0.036-0.154,0.105-0.216s0.15-0.091,0.242-0.089    c0.084,0.002,0.157,0.037,0.218,0.105c0.061,0.068,0.09,0.148,0.088,0.24c-0.001,0.083-0.036,0.154-0.104,0.213    c-0.068,0.058-0.147,0.086-0.237,0.084c-0.083-0.002-0.157-0.036-0.22-0.104C25.261,62.787,25.23,62.709,25.233,62.621z"/>
		<path class="st6" d="M28.882,67.725h-1.438V67.56h0.609c0.204,0,0.306-0.101,0.306-0.304v-4.545c0-0.232-0.11-0.35-0.33-0.35    h-0.586v-0.172h1.438V67.725z"/>
	</g>
	<g class="st3">
		<path class="st6" d="M64.524,62.904V63.3h-1.448v0.594c0,0.246,0.002,0.462,0.006,0.649c0.002,0.188,0.014,0.33,0.031,0.427    h-0.549c0.019-0.099,0.029-0.242,0.033-0.429c0.002-0.188,0.004-0.403,0.004-0.647V62.1c0-0.109-0.001-0.211-0.004-0.305    c-0.002-0.094-0.006-0.177-0.011-0.251s-0.013-0.136-0.022-0.186h2.172v0.408h-1.66v1.138H64.524z"/>
		<path class="st6" d="M65.273,63.721c0-0.213,0.032-0.401,0.098-0.565c0.064-0.164,0.152-0.303,0.262-0.415    c0.109-0.113,0.238-0.199,0.385-0.256c0.146-0.059,0.302-0.088,0.467-0.088c0.172,0,0.328,0.029,0.471,0.088    c0.143,0.057,0.264,0.143,0.367,0.256c0.102,0.112,0.182,0.251,0.238,0.415s0.084,0.353,0.084,0.565s-0.031,0.4-0.097,0.564    c-0.065,0.162-0.152,0.299-0.263,0.41c-0.109,0.11-0.238,0.193-0.385,0.251c-0.146,0.057-0.301,0.085-0.467,0.085    c-0.171,0-0.328-0.028-0.47-0.085c-0.143-0.058-0.265-0.141-0.367-0.251c-0.103-0.111-0.183-0.248-0.238-0.41    C65.302,64.121,65.273,63.934,65.273,63.721z M65.735,63.721c0,0.143,0.017,0.271,0.052,0.386s0.085,0.21,0.148,0.288    c0.064,0.078,0.141,0.139,0.229,0.18c0.089,0.041,0.188,0.062,0.295,0.062c0.1,0,0.194-0.021,0.282-0.062    c0.089-0.041,0.165-0.102,0.231-0.18c0.065-0.078,0.117-0.174,0.154-0.288s0.057-0.243,0.057-0.386    c0-0.145-0.018-0.275-0.053-0.39s-0.084-0.212-0.148-0.292s-0.141-0.141-0.23-0.184c-0.088-0.041-0.186-0.063-0.293-0.063    c-0.102,0-0.196,0.021-0.284,0.063c-0.089,0.043-0.165,0.104-0.229,0.184c-0.065,0.08-0.117,0.178-0.154,0.292    S65.735,63.576,65.735,63.721z"/>
		<path class="st6" d="M68.27,64.97v-1.521c0-0.243-0.014-0.45-0.041-0.62c-0.027-0.168-0.056-0.296-0.084-0.381h0.449    c0.02,0.045,0.038,0.104,0.054,0.174c0.017,0.07,0.029,0.148,0.04,0.234c0.011,0.085,0.019,0.177,0.023,0.273    c0.006,0.098,0.008,0.195,0.008,0.295v0.16c0.085-0.232,0.168-0.424,0.25-0.577c0.081-0.152,0.162-0.274,0.243-0.364    c0.081-0.092,0.161-0.154,0.243-0.191c0.082-0.035,0.165-0.055,0.25-0.055c0.063,0,0.121,0.006,0.174,0.018    c0.055,0.012,0.107,0.031,0.163,0.057l-0.075,0.459c-0.048-0.021-0.09-0.033-0.127-0.041c-0.037-0.006-0.082-0.01-0.135-0.01    c-0.068,0-0.141,0.029-0.215,0.086c-0.075,0.057-0.148,0.133-0.221,0.227s-0.142,0.2-0.206,0.318    c-0.065,0.119-0.122,0.24-0.171,0.365s-0.088,0.246-0.117,0.365s-0.045,0.225-0.045,0.316c0,0.041,0.001,0.079,0.002,0.113    c0.001,0.035,0.004,0.068,0.008,0.101s0.01,0.064,0.016,0.097c0.007,0.032,0.016,0.066,0.025,0.103H68.27z"/>
		<path class="st6" d="M71.641,62.396c0.166,0,0.309,0.02,0.43,0.059s0.227,0.09,0.318,0.152l-0.087,0.445    c-0.113-0.082-0.226-0.145-0.337-0.186s-0.232-0.063-0.362-0.063c-0.112,0-0.216,0.021-0.312,0.063s-0.178,0.103-0.249,0.183    c-0.071,0.078-0.126,0.176-0.166,0.291s-0.06,0.246-0.06,0.391c0,0.135,0.018,0.256,0.055,0.364s0.089,0.202,0.157,0.28    s0.15,0.139,0.247,0.182s0.205,0.064,0.327,0.064c0.151,0,0.288-0.025,0.412-0.076c0.123-0.051,0.239-0.125,0.349-0.221    l0.051,0.434c-0.063,0.047-0.127,0.088-0.188,0.122c-0.063,0.034-0.128,0.062-0.196,0.084s-0.142,0.039-0.22,0.05    s-0.164,0.016-0.257,0.016c-0.168,0-0.326-0.029-0.473-0.088s-0.273-0.143-0.384-0.253s-0.196-0.244-0.26-0.401    c-0.063-0.156-0.095-0.334-0.095-0.531c0-0.187,0.03-0.362,0.091-0.527c0.062-0.164,0.147-0.309,0.26-0.433    s0.249-0.222,0.409-0.293C71.263,62.434,71.441,62.396,71.641,62.396z"/>
		<path class="st6" d="M74.086,62.396c0.137,0,0.258,0.017,0.362,0.049s0.196,0.076,0.272,0.134    c0.076,0.057,0.141,0.123,0.191,0.199c0.053,0.075,0.094,0.157,0.125,0.245c0.03,0.087,0.053,0.178,0.065,0.273    c0.013,0.094,0.021,0.188,0.021,0.28v0.097c0,0.041-0.002,0.073-0.003,0.096H73.35c0.006,0.146,0.028,0.271,0.068,0.379    c0.041,0.107,0.098,0.195,0.168,0.266s0.154,0.123,0.25,0.157s0.199,0.052,0.313,0.052c0.162,0,0.32-0.018,0.475-0.055    c0.154-0.035,0.309-0.1,0.462-0.192l0.05,0.408c-0.088,0.044-0.174,0.083-0.26,0.114c-0.084,0.031-0.17,0.057-0.254,0.076    c-0.086,0.02-0.172,0.034-0.259,0.043c-0.087,0.01-0.179,0.014-0.276,0.014c-0.159,0-0.312-0.027-0.457-0.082    c-0.145-0.056-0.271-0.137-0.381-0.246c-0.11-0.107-0.197-0.241-0.263-0.401c-0.065-0.159-0.097-0.345-0.097-0.557    c0-0.204,0.027-0.39,0.083-0.556c0.056-0.165,0.136-0.307,0.238-0.425c0.104-0.118,0.229-0.209,0.377-0.272    C73.735,62.429,73.902,62.396,74.086,62.396z M74.049,62.768c-0.184,0-0.332,0.054-0.449,0.16s-0.193,0.271-0.229,0.496h1.304    c0-0.105-0.016-0.199-0.047-0.281c-0.031-0.081-0.074-0.15-0.13-0.206s-0.122-0.099-0.198-0.126    C74.223,62.782,74.139,62.768,74.049,62.768z"/>
	</g>
	<g class="st3">
		<path class="st6" d="M65.147,69.834l-0.308-0.359c0.259-0.161,0.484-0.357,0.678-0.588c0.192-0.229,0.322-0.466,0.387-0.708    c-0.158,0.097-0.344,0.146-0.557,0.146c-0.267,0-0.495-0.098-0.686-0.294c-0.191-0.196-0.286-0.433-0.286-0.708    c0-0.287,0.102-0.529,0.305-0.729c0.203-0.2,0.451-0.3,0.744-0.3c0.329,0,0.599,0.118,0.81,0.354    c0.209,0.235,0.314,0.538,0.314,0.907c0,0.42-0.133,0.843-0.395,1.271C65.891,69.254,65.555,69.59,65.147,69.834z M66.002,67.687    c0.02-0.132,0.029-0.218,0.029-0.257c0-0.2-0.057-0.363-0.168-0.49c-0.113-0.127-0.258-0.19-0.434-0.19    c-0.162,0-0.295,0.054-0.4,0.162s-0.158,0.243-0.158,0.407c0,0.149,0.057,0.279,0.172,0.388s0.252,0.163,0.412,0.163    C65.641,67.869,65.823,67.809,66.002,67.687z"/>
		<path class="st6" d="M66.998,66.338h2.257l-1.579,3.496l-0.445-0.186l1.275-2.838h-1.508V66.338z"/>
		<path class="st6" d="M71.629,66.299c0.215,0,0.398,0.076,0.549,0.228c0.152,0.151,0.228,0.334,0.228,0.546    s-0.076,0.393-0.229,0.545s-0.335,0.228-0.548,0.228s-0.396-0.075-0.548-0.228s-0.229-0.333-0.229-0.545s0.075-0.395,0.228-0.546    C71.23,66.375,71.414,66.299,71.629,66.299z M73.395,66.289h0.387l-2.293,3.545h-0.387L73.395,66.289z M71.623,66.675    c-0.111,0-0.207,0.039-0.285,0.117c-0.079,0.078-0.119,0.172-0.119,0.282c0,0.108,0.041,0.201,0.12,0.279    c0.079,0.076,0.175,0.115,0.284,0.115c0.111,0,0.205-0.039,0.285-0.115c0.078-0.078,0.117-0.171,0.117-0.279    c0-0.111-0.039-0.207-0.117-0.283C71.831,66.713,71.735,66.675,71.623,66.675z M73.275,68.29c0.213,0,0.396,0.075,0.549,0.226    c0.152,0.151,0.229,0.332,0.229,0.543c0,0.212-0.076,0.391-0.228,0.539c-0.152,0.147-0.335,0.221-0.55,0.221    c-0.216,0-0.4-0.073-0.553-0.221c-0.151-0.148-0.228-0.327-0.228-0.539s0.077-0.394,0.229-0.543    C72.877,68.365,73.061,68.29,73.275,68.29z M73.271,68.666c-0.11,0-0.203,0.039-0.28,0.115c-0.077,0.078-0.115,0.171-0.115,0.279    c0,0.11,0.038,0.204,0.115,0.282s0.17,0.117,0.28,0.117c0.112,0,0.208-0.038,0.286-0.116c0.078-0.076,0.117-0.172,0.117-0.283    c0-0.11-0.039-0.203-0.117-0.279C73.479,68.704,73.383,68.666,73.271,68.666z"/>
	</g>
	<g class="st3">
		<path class="st7" d="M46.314,16.589c0-0.323,0.052-0.626,0.157-0.909s0.253-0.531,0.446-0.745c0.192-0.213,0.422-0.381,0.69-0.502    c0.268-0.121,0.565-0.182,0.892-0.182c0.326,0,0.629,0.061,0.909,0.182c0.28,0.122,0.518,0.289,0.716,0.502    s0.355,0.462,0.472,0.745c0.116,0.283,0.175,0.586,0.175,0.909c0,0.323-0.059,0.626-0.175,0.909    c-0.117,0.283-0.274,0.531-0.472,0.745c-0.198,0.214-0.437,0.381-0.716,0.502c-0.28,0.122-0.583,0.182-0.909,0.182    c-0.327,0-0.624-0.061-0.892-0.182c-0.268-0.121-0.498-0.288-0.69-0.502c-0.192-0.213-0.341-0.461-0.446-0.745    C46.366,17.216,46.314,16.913,46.314,16.589z M50.159,31.654c0,0.554,0.009,1.209,0.026,1.965c0.017,0.756,0.041,1.521,0.07,2.294    c0.029,0.774,0.064,1.512,0.105,2.216c0.041,0.704,0.09,1.288,0.148,1.749h-3.583v-9.177c0-0.842-0.003-1.674-0.008-2.494    c-0.006-0.819-0.018-1.596-0.035-2.329s-0.043-1.414-0.079-2.043c-0.035-0.629-0.082-1.168-0.14-1.619h3.495V31.654z"/>
	</g>
	<g class="st3">
		<path class="st7" d="M38.971,44.494c0-0.115,0.019-0.223,0.056-0.324s0.09-0.189,0.159-0.266s0.151-0.137,0.247-0.18    s0.202-0.064,0.318-0.064s0.225,0.021,0.325,0.064s0.185,0.104,0.256,0.18s0.127,0.164,0.168,0.266    c0.042,0.102,0.063,0.209,0.063,0.324c0,0.116-0.021,0.225-0.063,0.325c-0.042,0.101-0.098,0.19-0.168,0.267    s-0.156,0.136-0.256,0.179c-0.1,0.044-0.208,0.065-0.325,0.065s-0.223-0.021-0.318-0.065c-0.096-0.043-0.178-0.103-0.247-0.179    s-0.122-0.166-0.159-0.267S38.971,44.61,38.971,44.494z M40.344,49.877c0,0.197,0.003,0.432,0.009,0.701    c0.006,0.271,0.015,0.543,0.025,0.82c0.01,0.275,0.023,0.539,0.038,0.791s0.032,0.46,0.053,0.625h-1.28v-3.278    c0-0.302-0.001-0.599-0.003-0.892c-0.002-0.292-0.006-0.569-0.013-0.831c-0.006-0.263-0.016-0.505-0.028-0.729    c-0.013-0.225-0.029-0.418-0.05-0.579h1.249V49.877z"/>
	</g>
	<g class="st3">
		<path class="st8" d="M47.589,52.691c0,0.435-0.064,0.808-0.192,1.117c-0.128,0.311-0.296,0.563-0.504,0.76    s-0.445,0.34-0.711,0.433c-0.266,0.093-0.538,0.139-0.814,0.139c-0.319,0-0.637-0.054-0.951-0.163s-0.605-0.252-0.871-0.431    l0.324-0.767c0.236,0.168,0.475,0.305,0.714,0.41s0.484,0.158,0.734,0.158c0.13,0,0.273-0.022,0.43-0.068    c0.156-0.047,0.303-0.127,0.439-0.24c0.137-0.113,0.25-0.267,0.342-0.458c0.091-0.19,0.137-0.431,0.137-0.718v-0.914    c-0.13,0.161-0.267,0.299-0.412,0.412c-0.145,0.114-0.292,0.207-0.439,0.277c-0.148,0.071-0.296,0.122-0.445,0.153    c-0.148,0.032-0.29,0.048-0.427,0.048c-0.229,0-0.451-0.04-0.664-0.119c-0.213-0.08-0.402-0.205-0.567-0.379    c-0.165-0.173-0.296-0.398-0.395-0.676c-0.098-0.276-0.147-0.611-0.147-1.004c0-0.379,0.05-0.748,0.15-1.107    c0.1-0.359,0.254-0.68,0.464-0.958c0.209-0.278,0.479-0.503,0.806-0.673c0.328-0.17,0.72-0.254,1.176-0.254    c0.15,0,0.304,0.01,0.462,0.031c0.158,0.021,0.315,0.051,0.472,0.087c0.156,0.036,0.31,0.077,0.459,0.121    c0.149,0.044,0.292,0.089,0.429,0.132V52.691z M45.617,48.51c-0.273,0-0.506,0.056-0.699,0.166    c-0.193,0.111-0.351,0.256-0.472,0.436c-0.122,0.18-0.211,0.383-0.268,0.611c-0.057,0.228-0.084,0.458-0.084,0.692    c0,0.307,0.024,0.562,0.072,0.765s0.115,0.364,0.2,0.484c0.085,0.121,0.185,0.207,0.3,0.258c0.115,0.051,0.24,0.076,0.377,0.076    c0.126,0,0.261-0.025,0.404-0.076s0.287-0.125,0.432-0.221c0.145-0.096,0.284-0.215,0.419-0.355    c0.135-0.143,0.257-0.305,0.367-0.485v-2.152c-0.08-0.029-0.165-0.057-0.254-0.081c-0.09-0.025-0.182-0.046-0.275-0.063    c-0.093-0.016-0.184-0.029-0.272-0.039C45.775,48.516,45.693,48.51,45.617,48.51z"/>
		<path class="st8" d="M50.136,50.465c0,0.158,0.002,0.344,0.007,0.559s0.012,0.432,0.02,0.653c0.008,0.221,0.019,0.433,0.03,0.634    c0.012,0.201,0.026,0.369,0.042,0.504h-1.023v-5.59c0-0.482-0.008-0.918-0.025-1.309c-0.017-0.392-0.042-0.73-0.075-1.018h1.024    V50.465z"/>
		<path class="st8" d="M51.559,50.316c0-0.426,0.064-0.803,0.194-1.131s0.305-0.605,0.524-0.831s0.476-0.396,0.769-0.513    c0.293-0.115,0.604-0.172,0.934-0.172c0.343,0,0.657,0.057,0.941,0.172c0.285,0.116,0.529,0.287,0.734,0.513    s0.364,0.503,0.477,0.831s0.17,0.705,0.17,1.131s-0.065,0.801-0.195,1.127c-0.13,0.327-0.305,0.602-0.524,0.822    s-0.476,0.389-0.769,0.502s-0.604,0.17-0.934,0.17c-0.343,0-0.657-0.057-0.941-0.17s-0.529-0.281-0.734-0.502    s-0.364-0.495-0.477-0.822C51.615,51.117,51.559,50.742,51.559,50.316z M52.482,50.316c0,0.287,0.035,0.544,0.105,0.771    s0.169,0.42,0.297,0.576c0.128,0.156,0.28,0.276,0.457,0.359c0.177,0.082,0.373,0.123,0.589,0.123c0.2,0,0.388-0.041,0.564-0.123    c0.176-0.083,0.33-0.203,0.462-0.359c0.131-0.156,0.234-0.349,0.31-0.576c0.075-0.228,0.112-0.484,0.112-0.771    c0-0.291-0.035-0.551-0.105-0.779c-0.07-0.229-0.169-0.424-0.297-0.584c-0.128-0.16-0.281-0.282-0.459-0.366    c-0.178-0.084-0.374-0.126-0.587-0.126c-0.203,0-0.393,0.042-0.569,0.126s-0.33,0.206-0.459,0.366s-0.232,0.354-0.307,0.584    C52.52,49.766,52.482,50.025,52.482,50.316z"/>
	</g>
	<g class="st9">
		<path class="st10" d="M57.25,50.316c0-0.426,0.064-0.803,0.194-1.131s0.305-0.605,0.524-0.831s0.476-0.396,0.769-0.513    c0.293-0.115,0.604-0.172,0.934-0.172c0.343,0,0.656,0.057,0.941,0.172c0.285,0.116,0.529,0.287,0.734,0.513    c0.204,0.226,0.363,0.503,0.477,0.831s0.17,0.705,0.17,1.131s-0.064,0.801-0.195,1.127c-0.129,0.327-0.305,0.602-0.523,0.822    c-0.221,0.221-0.477,0.389-0.77,0.502s-0.604,0.17-0.934,0.17c-0.344,0-0.657-0.057-0.941-0.17s-0.529-0.281-0.734-0.502    s-0.364-0.495-0.477-0.822C57.307,51.117,57.25,50.742,57.25,50.316z M58.174,50.316c0,0.287,0.035,0.544,0.105,0.771    s0.169,0.42,0.297,0.576c0.128,0.156,0.28,0.276,0.457,0.359c0.176,0.082,0.373,0.123,0.589,0.123c0.2,0,0.388-0.041,0.564-0.123    c0.177-0.083,0.33-0.203,0.462-0.359c0.131-0.156,0.234-0.349,0.31-0.576s0.112-0.484,0.112-0.771    c0-0.291-0.035-0.551-0.105-0.779c-0.069-0.229-0.168-0.424-0.297-0.584c-0.128-0.16-0.281-0.282-0.459-0.366    s-0.374-0.126-0.587-0.126c-0.203,0-0.394,0.042-0.569,0.126c-0.176,0.084-0.33,0.206-0.459,0.366s-0.232,0.354-0.307,0.584    C58.211,49.766,58.174,50.025,58.174,50.316z"/>
	</g>
	<g class="st3">
		<path class="st7" d="M26.658,7.265c0.37,0,0.555,0.184,0.555,0.55c0,0.367-0.185,0.55-0.555,0.55c-0.337,0-0.506-0.184-0.506-0.55    C26.152,7.448,26.321,7.265,26.658,7.265z M27.125,12.021c0,0.405,0.023,0.675,0.068,0.81c0.059,0.251,0.179,0.376,0.36,0.376    c0.233,0,0.458-0.27,0.672-0.811c0.026-0.077,0.053-0.154,0.083-0.231s0.057-0.151,0.083-0.222    c0.032-0.084,0.058-0.155,0.078-0.212c0.02-0.058,0.036-0.1,0.049-0.125l0.166,0.309c-0.234,0.65-0.38,1.029-0.438,1.139    c-0.195,0.334-0.461,0.501-0.798,0.501c-0.825,0-1.237-0.438-1.237-1.312V9.021l0.915,0.01V12.021z"/>
	</g>
	<g class="st3">
		<path class="st7" d="M72.049,6.649v0.717h-1.223v5.789h1.223v0.717h-3.37v-0.717h1.198V7.367h-1.198V6.649H72.049z"/>
	</g>
	<g>
		<g class="st3">
			<path class="st4" d="M93.518,49.84c-0.217,0.594-0.43,1.078-0.637,1.453c-0.209,0.375-0.42,0.671-0.635,0.888     c-0.214,0.216-0.436,0.364-0.667,0.445c-0.231,0.08-0.479,0.12-0.746,0.12c-0.287,0-0.557-0.045-0.808-0.136     c-0.252-0.091-0.492-0.221-0.722-0.39l0.374-0.989c0.067,0.054,0.145,0.108,0.234,0.163c0.09,0.057,0.186,0.105,0.287,0.148     c0.102,0.044,0.207,0.08,0.315,0.109c0.108,0.028,0.214,0.043,0.318,0.043c0.125,0,0.247-0.021,0.368-0.064     c0.121-0.044,0.242-0.127,0.365-0.248s0.248-0.293,0.378-0.514c0.129-0.221,0.267-0.51,0.411-0.869l-1.74-4.272     c-0.117-0.28-0.252-0.596-0.406-0.946s-0.352-0.768-0.594-1.249h1.249l2.017,5.052c0.078-0.223,0.165-0.465,0.258-0.727     c0.094-0.262,0.191-0.531,0.291-0.81s0.199-0.559,0.299-0.841c0.101-0.283,0.196-0.554,0.287-0.813     c0.217-0.61,0.436-1.231,0.656-1.861h1.248c-0.108,0.239-0.206,0.46-0.293,0.665c-0.088,0.203-0.169,0.396-0.244,0.574     c-0.074,0.18-0.143,0.348-0.203,0.504c-0.06,0.157-0.115,0.308-0.164,0.452L93.518,49.84z"/>
		</g>
		<g class="st3">
			<path class="st8" d="M85.414,55.24c0.12,0,0.232,0.008,0.338,0.022c0.105,0.016,0.203,0.036,0.29,0.062     c0.088,0.025,0.168,0.054,0.241,0.086c0.073,0.031,0.139,0.063,0.197,0.094l-0.117,0.577c-0.056-0.033-0.119-0.067-0.189-0.104     c-0.071-0.036-0.148-0.069-0.231-0.1c-0.083-0.031-0.173-0.057-0.267-0.078s-0.192-0.031-0.295-0.031     c-0.121,0-0.225,0.014-0.308,0.039c-0.083,0.027-0.149,0.061-0.2,0.102c-0.049,0.04-0.086,0.086-0.107,0.139     c-0.022,0.051-0.033,0.102-0.033,0.149c0,0.058,0.009,0.108,0.026,0.151c0.018,0.045,0.055,0.085,0.111,0.123     c0.057,0.037,0.138,0.073,0.241,0.108c0.104,0.035,0.244,0.072,0.42,0.112c0.15,0.033,0.293,0.074,0.426,0.127     c0.133,0.051,0.25,0.117,0.35,0.195c0.1,0.08,0.179,0.175,0.236,0.285c0.058,0.111,0.086,0.244,0.086,0.398     c0,0.149-0.033,0.287-0.1,0.415s-0.157,0.239-0.272,0.335c-0.116,0.096-0.251,0.17-0.406,0.225     c-0.155,0.054-0.323,0.08-0.503,0.08c-0.135,0-0.266-0.01-0.391-0.029s-0.243-0.047-0.354-0.082     c-0.109-0.035-0.21-0.076-0.301-0.123c-0.091-0.045-0.17-0.094-0.236-0.145l0.166-0.594c0.076,0.066,0.16,0.127,0.255,0.182     s0.191,0.102,0.292,0.142c0.1,0.04,0.199,0.069,0.301,0.091s0.195,0.031,0.285,0.031c0.098,0,0.187-0.013,0.268-0.038     c0.08-0.024,0.15-0.058,0.209-0.099S85.947,58,85.98,57.945c0.033-0.053,0.05-0.109,0.05-0.166c0-0.062-0.013-0.119-0.038-0.173     s-0.072-0.106-0.14-0.155s-0.161-0.098-0.28-0.144c-0.118-0.046-0.271-0.093-0.457-0.138c-0.202-0.049-0.367-0.106-0.494-0.172     c-0.128-0.066-0.229-0.139-0.301-0.218c-0.071-0.079-0.121-0.165-0.147-0.257c-0.026-0.093-0.04-0.191-0.04-0.294     c0-0.051,0.008-0.11,0.025-0.179c0.016-0.068,0.044-0.139,0.083-0.213c0.038-0.073,0.09-0.146,0.153-0.217     c0.063-0.072,0.143-0.136,0.238-0.191c0.095-0.057,0.207-0.102,0.336-0.137S85.246,55.24,85.414,55.24z"/>
			<path class="st8" d="M87.013,55.389h0.665v-1.072h0.616v1.072h1.082v0.479h-1.082v1.517c0,0.169,0.009,0.308,0.024,0.415     c0.018,0.107,0.043,0.192,0.077,0.252c0.034,0.061,0.078,0.103,0.132,0.125c0.053,0.021,0.117,0.032,0.193,0.032     c0.095,0,0.203-0.021,0.322-0.063c0.12-0.042,0.253-0.104,0.399-0.185v0.527c-0.153,0.1-0.3,0.168-0.439,0.207     c-0.14,0.037-0.269,0.057-0.386,0.057c-0.131,0-0.254-0.015-0.366-0.044c-0.113-0.03-0.213-0.082-0.298-0.157     c-0.086-0.074-0.152-0.174-0.201-0.298s-0.074-0.282-0.074-0.474v-1.912h-0.665V55.389z"/>
		</g>
		<g class="st3">
			<path class="st4" d="M92.381,58.67c-0.145,0.396-0.286,0.719-0.425,0.969c-0.14,0.25-0.28,0.447-0.423,0.592     s-0.291,0.243-0.445,0.297s-0.319,0.08-0.497,0.08c-0.191,0-0.37-0.03-0.538-0.09c-0.168-0.061-0.328-0.148-0.48-0.26l0.249-0.66     c0.044,0.035,0.097,0.072,0.155,0.109c0.061,0.037,0.124,0.07,0.191,0.099c0.068,0.028,0.139,0.053,0.211,0.072     c0.072,0.019,0.143,0.028,0.212,0.028c0.083,0,0.165-0.014,0.245-0.043c0.081-0.029,0.162-0.084,0.244-0.164     c0.082-0.082,0.166-0.195,0.252-0.343s0.178-0.341,0.274-0.579l-1.161-2.85c-0.078-0.187-0.168-0.396-0.271-0.631     c-0.103-0.232-0.234-0.511-0.396-0.832h0.832l1.345,3.368c0.052-0.148,0.11-0.31,0.173-0.484s0.127-0.354,0.193-0.54     s0.133-0.373,0.199-0.561c0.066-0.188,0.131-0.369,0.191-0.543c0.145-0.406,0.29-0.82,0.438-1.24h0.832     c-0.072,0.159-0.137,0.307-0.195,0.443c-0.059,0.136-0.113,0.264-0.162,0.383c-0.051,0.119-0.096,0.232-0.136,0.336     c-0.04,0.105-0.077,0.205-0.11,0.301L92.381,58.67z"/>
		</g>
		<g class="st3">
			<path class="st8" d="M95.344,57.104c0,0.105,0.002,0.229,0.006,0.373c0.003,0.143,0.008,0.287,0.013,0.435     s0.013,0.288,0.021,0.423c0.008,0.134,0.017,0.246,0.027,0.336h-0.682v-3.727c0-0.321-0.006-0.612-0.018-0.873     c-0.011-0.26-0.027-0.486-0.049-0.678h0.682V57.104z"/>
			<path class="st8" d="M96.293,57.004c0-0.283,0.043-0.534,0.13-0.754c0.087-0.219,0.202-0.402,0.349-0.553     c0.146-0.151,0.318-0.266,0.514-0.342c0.195-0.077,0.402-0.115,0.622-0.115c0.229,0,0.438,0.038,0.628,0.115     c0.189,0.076,0.353,0.19,0.488,0.342c0.137,0.15,0.243,0.334,0.318,0.553c0.076,0.22,0.113,0.471,0.113,0.754     c0,0.284-0.043,0.535-0.13,0.752c-0.087,0.219-0.202,0.4-0.349,0.548s-0.318,0.259-0.514,0.335s-0.402,0.113-0.622,0.113     c-0.229,0-0.438-0.037-0.628-0.113s-0.353-0.188-0.488-0.335c-0.137-0.147-0.243-0.329-0.318-0.548     C96.33,57.539,96.293,57.288,96.293,57.004z M96.908,57.004c0,0.191,0.023,0.363,0.07,0.516c0.047,0.15,0.113,0.279,0.198,0.384     s0.187,0.185,0.305,0.239c0.117,0.055,0.248,0.082,0.393,0.082c0.134,0,0.259-0.027,0.376-0.082s0.221-0.135,0.309-0.239     c0.087-0.104,0.156-0.233,0.206-0.384c0.05-0.152,0.075-0.324,0.075-0.516c0-0.193-0.023-0.366-0.07-0.52     c-0.047-0.152-0.113-0.282-0.198-0.389s-0.188-0.188-0.306-0.244c-0.119-0.057-0.25-0.084-0.392-0.084     c-0.136,0-0.262,0.027-0.38,0.084c-0.117,0.057-0.219,0.138-0.306,0.244s-0.155,0.236-0.205,0.389     C96.934,56.638,96.908,56.811,96.908,57.004z"/>
		</g>
		<g class="st3">
			<path class="st6" d="M98.893,64.041H100v0.398h-1.84V64.41l0.175-0.203c0.273-0.336,0.491-0.62,0.652-0.854     c0.161-0.234,0.267-0.41,0.316-0.53c0.049-0.12,0.073-0.237,0.073-0.354c0-0.162-0.046-0.293-0.139-0.391     c-0.094-0.098-0.217-0.147-0.371-0.147c-0.116,0-0.23,0.034-0.344,0.103c-0.113,0.067-0.215,0.164-0.305,0.287v-0.523     c0.227-0.183,0.459-0.274,0.699-0.274c0.254,0,0.463,0.084,0.627,0.251c0.164,0.168,0.246,0.381,0.246,0.64     c0,0.116-0.02,0.239-0.061,0.37s-0.113,0.283-0.218,0.453c-0.104,0.172-0.28,0.404-0.53,0.7L98.893,64.041z"/>
			<path class="st6" d="M102.082,61.527c0.18,0,0.332,0.063,0.458,0.189c0.126,0.126,0.189,0.277,0.189,0.455     c0,0.176-0.063,0.327-0.19,0.453c-0.127,0.127-0.279,0.189-0.457,0.189s-0.33-0.063-0.457-0.189     c-0.127-0.126-0.189-0.277-0.189-0.453c0-0.178,0.063-0.329,0.189-0.455C101.751,61.59,101.903,61.527,102.082,61.527z      M103.555,61.519h0.32l-1.91,2.954h-0.322L103.555,61.519z M102.077,61.84c-0.093,0-0.172,0.033-0.237,0.098     c-0.066,0.065-0.099,0.144-0.099,0.235c0,0.091,0.033,0.168,0.1,0.232c0.065,0.064,0.146,0.097,0.236,0.097     c0.093,0,0.172-0.032,0.237-0.097c0.066-0.064,0.099-0.142,0.099-0.232c0-0.093-0.032-0.172-0.098-0.236     S102.171,61.84,102.077,61.84z M103.455,63.186c0.177,0,0.329,0.063,0.456,0.189c0.128,0.125,0.191,0.276,0.191,0.452     s-0.063,0.325-0.19,0.448s-0.279,0.185-0.457,0.185c-0.181,0-0.334-0.062-0.461-0.185s-0.189-0.272-0.189-0.448     c0-0.177,0.063-0.328,0.19-0.454C103.123,63.248,103.275,63.186,103.455,63.186z M103.45,63.5c-0.091,0-0.169,0.031-0.233,0.096     s-0.096,0.143-0.096,0.232c0,0.092,0.031,0.17,0.096,0.235s0.143,0.098,0.233,0.098c0.095,0,0.173-0.032,0.239-0.097     c0.064-0.064,0.097-0.143,0.097-0.236c0-0.092-0.032-0.17-0.097-0.232C103.623,63.531,103.545,63.5,103.45,63.5z"/>
		</g>
	</g>
	<g class="st3">
		<path class="st8" d="M86.442,6.594c0.183,0,0.343,0.021,0.483,0.064c0.139,0.043,0.26,0.102,0.362,0.178    C87.391,6.912,87.476,7,87.545,7.102c0.068,0.102,0.123,0.21,0.164,0.327s0.07,0.238,0.088,0.364    c0.018,0.126,0.027,0.251,0.027,0.375v0.129c0,0.055-0.002,0.098-0.004,0.128h-2.359c0.006,0.193,0.037,0.362,0.091,0.504    c0.055,0.143,0.129,0.261,0.224,0.355c0.094,0.093,0.205,0.163,0.332,0.209c0.128,0.046,0.268,0.069,0.418,0.069    c0.215,0,0.426-0.024,0.633-0.072s0.412-0.134,0.615-0.257l0.066,0.544c-0.117,0.06-0.232,0.11-0.346,0.152    c-0.113,0.042-0.227,0.076-0.34,0.103c-0.113,0.026-0.228,0.045-0.344,0.058c-0.117,0.012-0.239,0.018-0.368,0.018    c-0.213,0-0.416-0.037-0.609-0.11c-0.192-0.074-0.362-0.183-0.509-0.327s-0.264-0.323-0.35-0.536    c-0.087-0.213-0.13-0.46-0.13-0.742c0-0.272,0.037-0.519,0.111-0.74s0.181-0.41,0.317-0.567c0.139-0.157,0.306-0.278,0.504-0.363    C85.975,6.636,86.196,6.594,86.442,6.594z M86.393,7.088c-0.244,0-0.443,0.071-0.6,0.213c-0.155,0.142-0.258,0.362-0.307,0.661    h1.738c0-0.141-0.021-0.265-0.062-0.374s-0.099-0.201-0.173-0.275s-0.162-0.131-0.265-0.168    C86.623,7.107,86.512,7.088,86.393,7.088z M87.754,4.747l-1.398,1.418h-0.532l1.165-1.418H87.754z"/>
		<path class="st8" d="M91.469,9.941c0,0.291-0.043,0.539-0.128,0.746c-0.085,0.207-0.198,0.375-0.337,0.506    c-0.139,0.13-0.297,0.227-0.474,0.289c-0.178,0.062-0.358,0.092-0.542,0.092c-0.214,0-0.426-0.037-0.635-0.109    c-0.21-0.073-0.403-0.168-0.581-0.287l0.216-0.511c0.158,0.112,0.316,0.204,0.477,0.274s0.322,0.105,0.489,0.105    c0.087,0,0.183-0.016,0.286-0.046c0.104-0.031,0.202-0.084,0.293-0.16c0.092-0.076,0.168-0.178,0.229-0.305    s0.092-0.287,0.092-0.478v-0.61c-0.087,0.108-0.179,0.2-0.275,0.275c-0.096,0.076-0.193,0.137-0.293,0.185    c-0.099,0.047-0.197,0.082-0.296,0.103c-0.099,0.021-0.194,0.031-0.284,0.031c-0.154,0-0.301-0.026-0.443-0.079    s-0.268-0.137-0.377-0.252c-0.11-0.115-0.198-0.266-0.264-0.45s-0.098-0.408-0.098-0.669c0-0.253,0.033-0.499,0.1-0.739    s0.17-0.453,0.309-0.638c0.141-0.186,0.32-0.335,0.538-0.449c0.219-0.113,0.479-0.17,0.784-0.17c0.1,0,0.203,0.007,0.309,0.021    c0.104,0.014,0.209,0.034,0.314,0.058c0.104,0.024,0.206,0.051,0.306,0.081c0.101,0.03,0.195,0.059,0.286,0.087V9.941z     M90.154,7.154c-0.182,0-0.338,0.037-0.467,0.111s-0.232,0.17-0.314,0.29c-0.08,0.12-0.141,0.256-0.178,0.407    c-0.037,0.152-0.057,0.306-0.057,0.462c0,0.205,0.016,0.375,0.049,0.51c0.031,0.135,0.076,0.243,0.133,0.323    c0.057,0.08,0.123,0.137,0.199,0.171s0.16,0.051,0.252,0.051c0.084,0,0.174-0.017,0.27-0.051s0.191-0.083,0.287-0.147    c0.098-0.063,0.19-0.143,0.28-0.237s0.171-0.202,0.245-0.323V7.287c-0.054-0.02-0.11-0.038-0.17-0.055    c-0.061-0.017-0.121-0.03-0.184-0.041c-0.063-0.011-0.123-0.02-0.182-0.026C90.26,7.158,90.205,7.154,90.154,7.154z"/>
		<path class="st8" d="M92.234,8.358c0-0.284,0.043-0.535,0.131-0.754c0.086-0.219,0.202-0.403,0.349-0.554    c0.146-0.151,0.317-0.265,0.513-0.341c0.195-0.077,0.402-0.116,0.623-0.116c0.229,0,0.438,0.039,0.627,0.116    c0.189,0.077,0.354,0.19,0.489,0.341c0.137,0.15,0.243,0.335,0.318,0.554c0.075,0.219,0.112,0.47,0.112,0.754    s-0.043,0.534-0.129,0.752c-0.087,0.218-0.203,0.4-0.35,0.547c-0.146,0.147-0.317,0.259-0.513,0.335    c-0.195,0.076-0.403,0.114-0.622,0.114c-0.229,0-0.438-0.038-0.628-0.114c-0.19-0.076-0.353-0.188-0.489-0.335    c-0.137-0.147-0.242-0.33-0.318-0.547C92.272,8.893,92.234,8.642,92.234,8.358z M92.851,8.358c0,0.191,0.023,0.363,0.069,0.515    c0.047,0.151,0.113,0.28,0.199,0.384c0.085,0.104,0.187,0.184,0.305,0.239c0.117,0.055,0.248,0.083,0.393,0.083    c0.133,0,0.258-0.027,0.375-0.083c0.118-0.055,0.221-0.135,0.309-0.239c0.088-0.104,0.156-0.233,0.207-0.384    c0.049-0.152,0.074-0.323,0.074-0.515c0-0.193-0.023-0.367-0.07-0.52s-0.112-0.283-0.197-0.389    c-0.086-0.106-0.188-0.188-0.307-0.244s-0.249-0.084-0.391-0.084c-0.136,0-0.262,0.028-0.38,0.084s-0.22,0.138-0.306,0.244    c-0.088,0.106-0.155,0.236-0.205,0.389C92.875,7.992,92.851,8.165,92.851,8.358z"/>
	</g>
	<g class="st3">
		<path class="st11" d="M95.432,4.479c0-0.077,0.014-0.149,0.039-0.217c0.027-0.067,0.064-0.126,0.111-0.177    c0.047-0.051,0.102-0.09,0.166-0.12c0.064-0.029,0.135-0.043,0.213-0.043c0.077,0,0.148,0.014,0.214,0.043    c0.065,0.029,0.121,0.069,0.169,0.12c0.047,0.051,0.083,0.11,0.109,0.177s0.04,0.14,0.04,0.217c0,0.077-0.014,0.149-0.04,0.216    s-0.063,0.126-0.109,0.177c-0.048,0.051-0.104,0.091-0.169,0.12s-0.137,0.043-0.214,0.043c-0.078,0-0.148-0.014-0.213-0.043    s-0.119-0.069-0.166-0.12s-0.084-0.11-0.111-0.177C95.445,4.628,95.432,4.556,95.432,4.479z M97.209,8.065    c0,0.132,0.002,0.288,0.006,0.468c0.004,0.18,0.01,0.362,0.017,0.546c0.007,0.185,0.015,0.36,0.024,0.528    c0.01,0.168,0.021,0.307,0.036,0.417h-0.853V7.839c0-0.201-0.002-0.398-0.003-0.594c-0.001-0.195-0.004-0.38-0.009-0.554    c-0.004-0.175-0.01-0.337-0.018-0.487c-0.009-0.15-0.02-0.278-0.033-0.385h0.832V8.065z M97.18,4.479    c0-0.077,0.014-0.149,0.039-0.217c0.027-0.067,0.063-0.126,0.11-0.177c0.048-0.051,0.103-0.09,0.167-0.12    c0.063-0.029,0.135-0.043,0.212-0.043s0.149,0.014,0.214,0.043c0.065,0.029,0.121,0.069,0.169,0.12    c0.047,0.051,0.084,0.11,0.11,0.177s0.039,0.14,0.039,0.217c0,0.077-0.013,0.149-0.039,0.216s-0.063,0.126-0.11,0.177    c-0.048,0.051-0.104,0.091-0.169,0.12c-0.064,0.029-0.137,0.043-0.214,0.043s-0.148-0.014-0.212-0.043    c-0.064-0.029-0.119-0.069-0.167-0.12c-0.047-0.051-0.083-0.11-0.11-0.177C97.193,4.628,97.18,4.556,97.18,4.479z"/>
	</g>
	<g class="st3">
		<path class="st8" d="M99.666,6.594c0.119,0,0.232,0.008,0.338,0.023c0.105,0.016,0.202,0.036,0.289,0.061    c0.088,0.025,0.168,0.054,0.242,0.086c0.072,0.032,0.139,0.063,0.196,0.094l-0.116,0.578c-0.057-0.033-0.119-0.068-0.19-0.104    c-0.071-0.037-0.147-0.07-0.231-0.101c-0.083-0.031-0.172-0.057-0.266-0.078c-0.095-0.021-0.193-0.031-0.295-0.031    c-0.122,0-0.225,0.013-0.309,0.04c-0.082,0.026-0.149,0.06-0.199,0.101S99.039,7.349,99.018,7.4    c-0.023,0.051-0.034,0.102-0.034,0.15c0,0.057,0.009,0.108,0.026,0.152s0.055,0.084,0.111,0.122    c0.057,0.037,0.138,0.074,0.242,0.109c0.104,0.035,0.244,0.072,0.42,0.112c0.15,0.033,0.293,0.075,0.426,0.127    s0.25,0.117,0.35,0.196s0.178,0.174,0.236,0.285c0.057,0.111,0.086,0.244,0.086,0.397c0,0.15-0.033,0.288-0.1,0.416    c-0.066,0.128-0.158,0.239-0.273,0.335s-0.25,0.17-0.406,0.224c-0.154,0.054-0.322,0.081-0.502,0.081    c-0.136,0-0.266-0.01-0.391-0.03c-0.126-0.02-0.244-0.047-0.354-0.083s-0.211-0.076-0.301-0.122    c-0.092-0.046-0.17-0.094-0.236-0.145l0.166-0.594c0.075,0.066,0.16,0.126,0.254,0.182c0.095,0.055,0.191,0.102,0.292,0.142    c0.1,0.04,0.2,0.07,0.302,0.091c0.101,0.021,0.195,0.031,0.284,0.031c0.098,0,0.187-0.013,0.269-0.038    c0.08-0.025,0.15-0.058,0.209-0.099s0.105-0.088,0.139-0.142c0.033-0.054,0.049-0.109,0.049-0.167    c0-0.062-0.012-0.119-0.037-0.173c-0.025-0.054-0.072-0.106-0.141-0.155c-0.067-0.049-0.16-0.097-0.279-0.144    c-0.119-0.046-0.271-0.092-0.458-0.138C99.164,8.475,99,8.417,98.872,8.352s-0.228-0.138-0.3-0.217    c-0.072-0.08-0.121-0.165-0.148-0.257c-0.025-0.092-0.039-0.19-0.039-0.293c0-0.051,0.008-0.11,0.024-0.178    c0.017-0.068,0.044-0.139,0.083-0.213s0.09-0.146,0.153-0.218c0.063-0.071,0.143-0.135,0.238-0.191    c0.095-0.056,0.208-0.102,0.336-0.137C99.349,6.611,99.498,6.594,99.666,6.594z"/>
		<path class="st8" d="M101.264,6.742h0.666V5.67h0.615v1.072h1.082v0.479h-1.082v1.517c0,0.169,0.009,0.308,0.025,0.416    c0.017,0.107,0.043,0.192,0.076,0.252c0.035,0.061,0.078,0.102,0.132,0.124s0.118,0.033,0.193,0.033    c0.095,0,0.203-0.021,0.323-0.063c0.119-0.042,0.252-0.104,0.398-0.185v0.527c-0.152,0.099-0.299,0.168-0.439,0.207    c-0.139,0.038-0.268,0.058-0.385,0.058c-0.132,0-0.254-0.015-0.367-0.044c-0.113-0.03-0.213-0.082-0.298-0.157    s-0.152-0.174-0.201-0.298c-0.049-0.125-0.073-0.282-0.073-0.474V7.221h-0.666V6.742z"/>
		<path class="st8" d="M105.857,6.594c0.183,0,0.344,0.021,0.483,0.064s0.261,0.102,0.362,0.178    c0.103,0.076,0.188,0.164,0.257,0.265c0.068,0.102,0.124,0.21,0.165,0.327s0.07,0.238,0.088,0.364    c0.018,0.126,0.026,0.251,0.026,0.375v0.129c0,0.055-0.001,0.098-0.003,0.128h-2.36c0.007,0.193,0.037,0.362,0.091,0.504    c0.055,0.143,0.129,0.261,0.224,0.355c0.095,0.093,0.206,0.163,0.333,0.209c0.127,0.046,0.267,0.069,0.418,0.069    c0.215,0,0.426-0.024,0.633-0.072c0.206-0.048,0.411-0.134,0.615-0.257l0.066,0.544c-0.117,0.06-0.232,0.11-0.346,0.152    c-0.113,0.042-0.227,0.076-0.34,0.103c-0.113,0.026-0.229,0.045-0.345,0.058c-0.116,0.012-0.239,0.018-0.368,0.018    c-0.213,0-0.416-0.037-0.609-0.11c-0.192-0.074-0.362-0.183-0.509-0.327s-0.263-0.323-0.349-0.536    c-0.088-0.213-0.131-0.46-0.131-0.742c0-0.272,0.037-0.519,0.111-0.74s0.181-0.41,0.318-0.567s0.305-0.278,0.503-0.363    C105.39,6.636,105.611,6.594,105.857,6.594z M105.809,7.088c-0.244,0-0.444,0.071-0.6,0.213c-0.156,0.142-0.258,0.362-0.307,0.661    h1.738c0-0.141-0.021-0.265-0.063-0.374s-0.098-0.201-0.172-0.275c-0.075-0.075-0.163-0.131-0.266-0.168    C106.039,7.107,105.928,7.088,105.809,7.088z"/>
	</g>
	<g class="st3">
		<path class="st8" d="M87.858,31.133c0,0.416,0.022,0.765,0.069,1.047c0.047,0.282,0.107,0.516,0.18,0.701h-0.582    c-0.012-0.028-0.027-0.068-0.047-0.119c-0.02-0.051-0.041-0.108-0.062-0.173s-0.041-0.135-0.06-0.209    c-0.02-0.075-0.035-0.149-0.049-0.224c-0.086,0.11-0.178,0.213-0.274,0.31s-0.198,0.183-0.305,0.257s-0.218,0.133-0.333,0.176    s-0.232,0.064-0.353,0.064c-0.14,0-0.279-0.03-0.418-0.089c-0.139-0.059-0.263-0.148-0.374-0.267    c-0.111-0.119-0.201-0.268-0.27-0.447c-0.069-0.179-0.104-0.39-0.104-0.631c0-0.253,0.028-0.482,0.085-0.688    s0.134-0.389,0.231-0.549c0.086-0.141,0.178-0.264,0.275-0.37s0.205-0.193,0.322-0.262c0.116-0.069,0.244-0.122,0.385-0.157    c0.139-0.035,0.295-0.053,0.465-0.053c0.085,0,0.179,0.006,0.281,0.018c0.104,0.012,0.209,0.029,0.316,0.051    s0.215,0.048,0.322,0.079c0.105,0.031,0.205,0.064,0.296,0.099V31.133z M86.51,30.011c-0.07,0-0.143,0.008-0.215,0.025    s-0.143,0.044-0.213,0.084s-0.137,0.092-0.203,0.157c-0.065,0.065-0.127,0.147-0.185,0.246c-0.06,0.102-0.108,0.227-0.145,0.378    c-0.036,0.15-0.056,0.305-0.056,0.463c0,0.183,0.018,0.339,0.053,0.47c0.033,0.131,0.079,0.239,0.136,0.323    c0.057,0.085,0.121,0.147,0.193,0.187c0.071,0.04,0.145,0.06,0.218,0.06c0.094,0,0.195-0.029,0.305-0.086s0.217-0.133,0.321-0.228    s0.202-0.204,0.294-0.327c0.093-0.123,0.169-0.25,0.229-0.382v-1.237c-0.033-0.016-0.076-0.031-0.128-0.046    c-0.052-0.015-0.11-0.03-0.173-0.043c-0.063-0.013-0.133-0.023-0.207-0.031S86.586,30.011,86.51,30.011z"/>
	</g>
	<g class="st12">
		<path class="st10" d="M88.848,32.667v-3.902c0-0.141-0.002-0.282-0.006-0.424c-0.004-0.142-0.008-0.277-0.015-0.406    c-0.007-0.128-0.017-0.239-0.03-0.332h0.666v2.556c0.078-0.101,0.162-0.194,0.253-0.28c0.091-0.085,0.188-0.16,0.294-0.224    s0.22-0.114,0.342-0.15c0.122-0.037,0.253-0.055,0.393-0.055c0.169,0,0.323,0.041,0.463,0.122s0.261,0.195,0.363,0.341    c0.102,0.146,0.182,0.321,0.238,0.523s0.084,0.423,0.084,0.663c0,0.284-0.038,0.54-0.115,0.769    c-0.076,0.229-0.184,0.424-0.324,0.587c-0.14,0.163-0.309,0.288-0.508,0.376c-0.198,0.088-0.42,0.132-0.667,0.132    c-0.136,0-0.267-0.009-0.393-0.028c-0.126-0.019-0.249-0.042-0.368-0.072s-0.233-0.062-0.344-0.096    C89.063,32.733,88.953,32.699,88.848,32.667z M90.278,32.452c0.146,0,0.282-0.03,0.406-0.089c0.124-0.06,0.231-0.143,0.321-0.251    c0.09-0.107,0.16-0.238,0.211-0.391s0.076-0.322,0.076-0.506c0-0.183-0.016-0.348-0.049-0.495    c-0.033-0.147-0.082-0.272-0.145-0.375c-0.064-0.102-0.143-0.181-0.235-0.236c-0.093-0.055-0.2-0.083-0.319-0.083    c-0.104,0-0.209,0.022-0.313,0.068c-0.105,0.045-0.204,0.108-0.299,0.189c-0.094,0.082-0.182,0.179-0.265,0.292    c-0.082,0.113-0.151,0.238-0.206,0.375v1.319c0.082,0.033,0.156,0.061,0.225,0.084c0.068,0.023,0.134,0.042,0.198,0.056    c0.063,0.015,0.128,0.025,0.191,0.032C90.141,32.449,90.207,32.452,90.278,32.452z"/>
	</g>
	<g class="st3">
		<path class="st8" d="M92.683,32.667v-3.902c0-0.141-0.002-0.282-0.005-0.424c-0.004-0.142-0.009-0.277-0.016-0.406    c-0.006-0.128-0.016-0.239-0.029-0.332h0.666v2.556c0.077-0.101,0.161-0.194,0.252-0.28c0.092-0.085,0.189-0.16,0.295-0.224    s0.219-0.114,0.342-0.15c0.121-0.037,0.252-0.055,0.393-0.055c0.168,0,0.322,0.041,0.463,0.122    c0.139,0.082,0.26,0.195,0.362,0.341c0.103,0.146,0.182,0.321,0.238,0.523s0.085,0.423,0.085,0.663    c0,0.284-0.039,0.54-0.115,0.769c-0.076,0.229-0.185,0.424-0.324,0.587c-0.141,0.163-0.309,0.288-0.508,0.376    s-0.421,0.132-0.668,0.132c-0.135,0-0.266-0.009-0.393-0.028c-0.126-0.019-0.249-0.042-0.367-0.072    c-0.119-0.03-0.234-0.062-0.345-0.096C92.897,32.733,92.789,32.699,92.683,32.667z M94.113,32.452c0.146,0,0.282-0.03,0.406-0.089    c0.125-0.06,0.232-0.143,0.322-0.251c0.09-0.107,0.16-0.238,0.211-0.391s0.076-0.322,0.076-0.506c0-0.183-0.017-0.348-0.05-0.495    c-0.033-0.147-0.081-0.272-0.145-0.375s-0.142-0.181-0.235-0.236c-0.093-0.055-0.199-0.083-0.319-0.083    c-0.104,0-0.208,0.022-0.313,0.068c-0.104,0.045-0.204,0.108-0.298,0.189c-0.095,0.082-0.183,0.179-0.266,0.292    c-0.082,0.113-0.15,0.238-0.205,0.375v1.319c0.082,0.033,0.156,0.061,0.225,0.084c0.067,0.023,0.133,0.042,0.197,0.056    c0.064,0.015,0.129,0.025,0.191,0.032C93.976,32.449,94.043,32.452,94.113,32.452z"/>
	</g>
	<g class="st12">
		<path class="st4" d="M99.364,31.133c0,0.416,0.022,0.765,0.069,1.047c0.047,0.282,0.107,0.516,0.18,0.701h-0.582    c-0.012-0.028-0.027-0.068-0.047-0.119c-0.02-0.051-0.041-0.108-0.062-0.173s-0.041-0.135-0.06-0.209    c-0.02-0.075-0.035-0.149-0.049-0.224c-0.086,0.11-0.178,0.213-0.274,0.31s-0.198,0.183-0.305,0.257s-0.218,0.133-0.333,0.176    s-0.232,0.064-0.353,0.064c-0.14,0-0.279-0.03-0.418-0.089c-0.139-0.059-0.263-0.148-0.374-0.267    c-0.111-0.119-0.201-0.268-0.27-0.447c-0.069-0.179-0.104-0.39-0.104-0.631c0-0.253,0.028-0.482,0.085-0.688    s0.134-0.389,0.231-0.549c0.086-0.141,0.178-0.264,0.275-0.37s0.205-0.193,0.322-0.262c0.116-0.069,0.244-0.122,0.385-0.157    c0.139-0.035,0.295-0.053,0.465-0.053c0.085,0,0.179,0.006,0.281,0.018c0.104,0.012,0.209,0.029,0.316,0.051    s0.215,0.048,0.322,0.079c0.105,0.031,0.205,0.064,0.296,0.099V31.133z M98.016,30.011c-0.07,0-0.143,0.008-0.215,0.025    s-0.143,0.044-0.213,0.084s-0.137,0.092-0.203,0.157c-0.065,0.065-0.127,0.147-0.185,0.246c-0.06,0.102-0.108,0.227-0.145,0.378    C97.02,31.051,97,31.206,97,31.364c0,0.183,0.018,0.339,0.053,0.47c0.033,0.131,0.079,0.239,0.136,0.323    c0.057,0.085,0.121,0.147,0.193,0.187c0.071,0.04,0.145,0.06,0.218,0.06c0.094,0,0.195-0.029,0.305-0.086s0.217-0.133,0.321-0.228    s0.202-0.204,0.294-0.327c0.093-0.123,0.169-0.25,0.229-0.382v-1.237c-0.033-0.016-0.076-0.031-0.128-0.046    c-0.052-0.015-0.11-0.03-0.173-0.043c-0.063-0.013-0.133-0.023-0.207-0.031S98.092,30.011,98.016,30.011z"/>
		<path class="st4" d="M102.043,32.881c-0.115,0.316-0.229,0.575-0.339,0.775c-0.11,0.2-0.224,0.358-0.338,0.474    c-0.114,0.115-0.233,0.194-0.356,0.237s-0.256,0.064-0.397,0.064c-0.153,0-0.297-0.024-0.431-0.073    c-0.135-0.048-0.263-0.118-0.385-0.208l0.199-0.528c0.035,0.028,0.078,0.058,0.125,0.087c0.048,0.03,0.1,0.056,0.153,0.079    s0.11,0.042,0.168,0.058c0.058,0.016,0.114,0.023,0.17,0.023c0.066,0,0.132-0.011,0.196-0.035    c0.064-0.023,0.129-0.067,0.195-0.132c0.064-0.065,0.133-0.156,0.201-0.273s0.142-0.272,0.219-0.463l-0.928-2.279    c-0.063-0.149-0.135-0.318-0.217-0.504c-0.082-0.187-0.188-0.409-0.316-0.667h0.666l1.075,2.695    c0.042-0.119,0.089-0.248,0.138-0.388c0.051-0.14,0.102-0.284,0.155-0.432s0.106-0.298,0.159-0.448    c0.054-0.151,0.105-0.295,0.154-0.434c0.115-0.325,0.231-0.656,0.35-0.993h0.665c-0.058,0.127-0.11,0.246-0.156,0.354    c-0.047,0.109-0.09,0.211-0.13,0.307c-0.04,0.095-0.076,0.185-0.108,0.269s-0.062,0.164-0.088,0.241L102.043,32.881z"/>
	</g>
	<g class="st3">
		<path class="st11" d="M105.795,28.593c0.229,0,0.43,0.027,0.604,0.081c0.176,0.053,0.326,0.127,0.454,0.222    c0.128,0.095,0.234,0.206,0.32,0.332s0.155,0.263,0.206,0.408s0.088,0.297,0.11,0.456s0.033,0.314,0.033,0.468v0.161    c0,0.068-0.001,0.122-0.005,0.161h-2.949c0.008,0.242,0.046,0.452,0.113,0.631c0.068,0.179,0.162,0.326,0.279,0.443    c0.118,0.117,0.257,0.204,0.416,0.262c0.16,0.058,0.334,0.086,0.522,0.086c0.269,0,0.532-0.03,0.79-0.091    c0.259-0.061,0.516-0.167,0.771-0.321l0.083,0.68c-0.146,0.074-0.291,0.137-0.433,0.189s-0.282,0.095-0.425,0.128    c-0.141,0.033-0.285,0.057-0.43,0.072c-0.146,0.015-0.299,0.022-0.461,0.022c-0.266,0-0.52-0.046-0.761-0.138    c-0.241-0.092-0.454-0.228-0.637-0.408c-0.183-0.18-0.329-0.403-0.437-0.67c-0.109-0.267-0.162-0.576-0.162-0.927    c0-0.341,0.046-0.649,0.139-0.926s0.226-0.513,0.397-0.709c0.172-0.197,0.382-0.348,0.628-0.454    C105.21,28.646,105.487,28.593,105.795,28.593z M105.732,29.211c-0.305,0-0.555,0.089-0.748,0.266    c-0.194,0.177-0.322,0.453-0.383,0.827h2.172c0-0.176-0.025-0.332-0.077-0.468c-0.052-0.136-0.124-0.251-0.216-0.344    c-0.094-0.094-0.203-0.164-0.332-0.21C106.021,29.235,105.883,29.211,105.732,29.211z"/>
	</g>
	<g class="st3">
		<path class="st8" d="M91.186,20.958c0,0.291-0.042,0.539-0.127,0.746c-0.086,0.207-0.198,0.375-0.337,0.506    c-0.139,0.13-0.297,0.227-0.474,0.289c-0.178,0.062-0.359,0.092-0.543,0.092c-0.213,0-0.425-0.037-0.635-0.109    c-0.209-0.073-0.402-0.168-0.58-0.287l0.216-0.511c0.157,0.112,0.316,0.204,0.476,0.274c0.16,0.07,0.323,0.105,0.49,0.105    c0.086,0,0.182-0.016,0.286-0.046s0.202-0.084,0.293-0.16c0.091-0.076,0.167-0.178,0.228-0.305    c0.062-0.127,0.092-0.287,0.092-0.478v-0.61c-0.086,0.108-0.178,0.2-0.274,0.275s-0.194,0.137-0.293,0.185    s-0.198,0.082-0.296,0.103c-0.1,0.021-0.194,0.031-0.285,0.031c-0.153,0-0.301-0.026-0.443-0.079    c-0.142-0.053-0.268-0.137-0.377-0.252s-0.197-0.266-0.264-0.45c-0.064-0.185-0.098-0.408-0.098-0.669    c0-0.253,0.033-0.499,0.1-0.739s0.17-0.453,0.31-0.638c0.14-0.186,0.319-0.335,0.538-0.449s0.479-0.17,0.783-0.17    c0.1,0,0.203,0.007,0.309,0.021s0.21,0.034,0.314,0.058c0.104,0.024,0.207,0.051,0.307,0.081s0.195,0.059,0.285,0.087V20.958z     M89.871,18.171c-0.182,0-0.337,0.037-0.466,0.111s-0.233,0.17-0.314,0.29c-0.081,0.12-0.141,0.256-0.179,0.407    c-0.037,0.152-0.057,0.306-0.057,0.462c0,0.205,0.017,0.375,0.049,0.51s0.076,0.243,0.133,0.323c0.057,0.08,0.123,0.137,0.2,0.171    c0.076,0.034,0.16,0.051,0.251,0.051c0.084,0,0.174-0.017,0.27-0.051s0.191-0.083,0.288-0.147c0.097-0.063,0.19-0.143,0.28-0.237    s0.171-0.202,0.244-0.323v-1.435c-0.053-0.02-0.109-0.038-0.17-0.055c-0.06-0.017-0.121-0.03-0.184-0.041    c-0.062-0.011-0.122-0.02-0.181-0.026C89.977,18.174,89.922,18.171,89.871,18.171z"/>
	</g>
	<g class="st3">
		<path class="st11" d="M94.018,16.753c0.228,0,0.429,0.027,0.604,0.081c0.175,0.053,0.326,0.127,0.453,0.222    c0.128,0.095,0.234,0.206,0.32,0.332s0.155,0.263,0.207,0.408c0.051,0.146,0.088,0.297,0.109,0.456    c0.022,0.158,0.033,0.314,0.033,0.468v0.161c0,0.068-0.001,0.122-0.004,0.161h-2.95c0.009,0.242,0.046,0.452,0.114,0.631    s0.161,0.326,0.279,0.443c0.117,0.117,0.256,0.204,0.416,0.262c0.159,0.058,0.334,0.086,0.521,0.086    c0.27,0,0.533-0.03,0.791-0.091s0.515-0.167,0.77-0.321l0.084,0.68c-0.147,0.074-0.291,0.137-0.434,0.189    c-0.141,0.052-0.282,0.095-0.424,0.128c-0.142,0.033-0.285,0.057-0.431,0.072s-0.299,0.022-0.46,0.022    c-0.266,0-0.52-0.046-0.762-0.138c-0.241-0.092-0.453-0.228-0.637-0.408c-0.183-0.18-0.328-0.403-0.437-0.67    S92.021,19.352,92.021,19c0-0.341,0.046-0.649,0.14-0.926c0.092-0.276,0.225-0.513,0.396-0.709    c0.172-0.197,0.382-0.348,0.629-0.454C93.432,16.806,93.709,16.753,94.018,16.753z M93.955,17.371    c-0.305,0-0.555,0.089-0.749,0.266s-0.321,0.453-0.383,0.827h2.173c0-0.176-0.026-0.332-0.078-0.468    c-0.051-0.136-0.123-0.251-0.216-0.344c-0.093-0.094-0.203-0.164-0.331-0.21C94.244,17.395,94.105,17.371,93.955,17.371z"/>
		<path class="st11" d="M98.574,16.753c0.228,0,0.429,0.027,0.604,0.081c0.175,0.053,0.326,0.127,0.453,0.222    c0.128,0.095,0.234,0.206,0.32,0.332s0.155,0.263,0.207,0.408c0.051,0.146,0.088,0.297,0.109,0.456    c0.022,0.158,0.033,0.314,0.033,0.468v0.161c0,0.068-0.001,0.122-0.004,0.161h-2.95c0.009,0.242,0.046,0.452,0.114,0.631    s0.161,0.326,0.279,0.443c0.117,0.117,0.256,0.204,0.416,0.262c0.159,0.058,0.334,0.086,0.521,0.086    c0.27,0,0.533-0.03,0.791-0.091s0.515-0.167,0.77-0.321l0.084,0.68c-0.147,0.074-0.291,0.137-0.434,0.189    c-0.141,0.052-0.282,0.095-0.424,0.128c-0.142,0.033-0.285,0.057-0.431,0.072s-0.299,0.022-0.46,0.022    c-0.266,0-0.52-0.046-0.762-0.138c-0.241-0.092-0.453-0.228-0.637-0.408c-0.183-0.18-0.328-0.403-0.437-0.67    S96.577,19.352,96.577,19c0-0.341,0.046-0.649,0.14-0.926c0.092-0.276,0.225-0.513,0.396-0.709    c0.172-0.197,0.382-0.348,0.629-0.454C97.988,16.806,98.266,16.753,98.574,16.753z M98.512,17.371    c-0.305,0-0.555,0.089-0.749,0.266s-0.321,0.453-0.383,0.827h2.173c0-0.176-0.026-0.332-0.078-0.468    c-0.051-0.136-0.123-0.251-0.216-0.344c-0.093-0.094-0.203-0.164-0.331-0.21C98.801,17.395,98.662,17.371,98.512,17.371z"/>
	</g>
	<g>
		<path class="st11" d="M101.191,21.041v-3.727c0-0.356-0.002-0.668-0.007-0.935s-0.019-0.472-0.044-0.615h0.666v3.295l1.349-1.382    h0.832l-1.647,1.475l1.748,1.89h-0.816l-1.465-1.715v1.715H101.191z"/>
		<path class="st11" d="M100.709,21.535v-0.264h3.445v0.264H100.709z"/>
	</g>
	<path class="st7" d="M107.1,34.7c0,0.6-0.5,1.1-1.1,1.1s-1.1-0.5-1.1-1.1s0.5-1.1,1.1-1.1C106.6,33.6,107.1,34.1,107.1,34.7z"/>
	<g>
		<path class="st13" d="M0.6,44.6l5.2,1.2c0,0,0.8,0.1,1.1,0c0,0,5.2-0.9,5.6-1.2c0,0,17.3,1.6,21.3-1.3c0,0,0.4-16.9-14.3-16.9    c0,0-9.6-0.5-12.8,8.7L4.3,35C4.3,35-0.1,34.2,0.6,44.6z"/>
		<path class="st14" d="M27.4,33.5h-1.7l-1.1-2.9l-2.1-0.1l-0.7-2.2l2.2,0.1l-1.9-1.5h1.4c0,0,0,0,0.1,0"/>
		<path class="st14" d="M23.5,26.9c1,0.2,9.9,2.3,10.4,16.3c0,0-2.1,1.5-6.3,1.5l-0.1-3.9c0,0,2.6-0.2,2.7-0.2l-0.5-3.8l-1.3,0.1    l-0.9-3.4"/>
		<path class="st15" d="M3.8,35c0,0,3.3,1.2,2.6,10.8"/>
		<path class="st15" d="M6.8,35.1h3.9c0,0,1.4,0,1.6,2.9c0,0,0.4,3.3,0.3,6.6"/>
		<path class="st15" d="M4.9,45.5c0,0,0.8-6.1-1.4-7c0,0-2.2-1-1.7,6.3L5,44.6"/>
		<line class="st15" x1="1.7" y1="42.9" x2="0.6" y2="42.6"/>
		<polyline class="st15" points="5,43.3 6.5,43.5 12.6,42.6   "/>
		<polyline class="st15" points="4.8,40.9 6.4,40.9 12.5,40.4   "/>
		<path class="st15" d="M1.8,40.5l-1.2-0.1L1.8,40.5z"/>
		<path class="st15" d="M4.4,39.5c0.8-1.3,1.4-1.2,1.4-1.2l6.4-0.4"/>
		<path class="st15" d="M4.9,36c0,0-1-0.3-1.2,2.6"/>
		<path class="st15" d="M3.5,38.5"/>
		<path class="st15" d="M2.5,35.7c0,0-0.2,2,0.3,2.8"/>
		<path class="st15" d="M1.1,38c0.4,1.2,1.1,1.4,1,1.4l2.3,0.1"/>
		<line class="st15" x1="4.9" y1="36" x2="11.7" y2="35.9"/>
		<path class="st15" d="M7.1,35.1c0,0,0.6,0.6,0.6,0.8"/>
		<path class="st15" d="M9.7,35.1c0,0,0.6,0.6,0.6,0.8"/>
		<path class="st15" d="M6.5,35.9c0,0,1.1,1.8,1.1,2.2"/>
		<path class="st15" d="M9.7,35.9c0,0,0.8,0.9,0.9,2"/>
		<path class="st15" d="M9.2,38.1c0,0,0.3,1,0.4,2.6"/>
		<line class="st15" x1="8.2" y1="40.7" x2="8.2" y2="43.2"/>
		<line class="st15" x1="11.4" y1="40.5" x2="11.5" y2="42.7"/>
		<line class="st15" x1="9.7" y1="43" x2="9.8" y2="45.2"/>
		<path class="st15" d="M22.1,26.9c-1.7,0-4.5,0-6.3,0"/>
		<path class="st15" d="M22.2,26.9"/>
		<path class="st15" d="M22.2,26.9"/>
		<path class="st15" d="M22.4,26.9"/>
		<path class="st15" d="M23.5,26.9"/>
		<path class="st15" d="M21.8,28.4c-8-0.3-8.3-0.2-9.9,0.1"/>
		<path class="st15" d="M23.6,28.5"/>
		<path class="st15" d="M27.5,28.6c-1.3,0-2.4-0.1-3.5-0.1"/>
		<path class="st15" d="M22.5,30.6c-5.3-0.1-11.7-0.1-13.4,0.4"/>
		<path class="st15" d="M22.7,30.6"/>
		<path class="st15" d="M29.9,30.8c0,0-2.2-0.1-5.2-0.2"/>
		<path class="st15" d="M25.7,33.5c-6.6-0.2-16.6-0.4-18.3,0.1"/>
		<path class="st15" d="M26.4,33.5"/>
		<path class="st15" d="M27.1,33.5"/>
		<path class="st15" d="M31.7,33.7c0,0-1.7-0.1-4.3-0.1"/>
		<path class="st15" d="M28.3,36.9c-2.9,0.1-15,0.2-16.2,0.1"/>
		<path class="st15" d="M32.9,36.6c0,0-1.3,0.1-3.3,0.2"/>
		<path class="st15" d="M27.4,40.9c-2,0.1-4.1,0.2-7.4,0.2c0,0-7,0.1-7.5,0"/>
		<path class="st15" d="M33.6,40.1c0,0-0.8,0.3-3.5,0.5"/>
		<path class="st15" d="M23.9,28.5"/>
		<path class="st15" d="M22,26.9"/>
		<line class="st15" x1="19.1" y1="26.9" x2="19.1" y2="28.3"/>
		<line class="st15" x1="16.6" y1="26.9" x2="14.5" y2="28.2"/>
		<line class="st15" x1="25.9" y1="28.5" x2="27.2" y2="30.7"/>
		<path class="st15" d="M21.8,28.4"/>
		<line class="st15" x1="16.4" y1="28.3" x2="15.7" y2="30.5"/>
		<line class="st15" x1="28.6" y1="30.8" x2="30" y2="33.6"/>
		<path class="st15" d="M25.7,33.5"/>
		<path class="st15" d="M24.6,30.7"/>
		<line class="st15" x1="18.9" y1="30.5" x2="18.7" y2="33.4"/>
		<line class="st15" x1="13.2" y1="30.6" x2="12.1" y2="33.3"/>
		<line class="st15" x1="30.8" y1="33.6" x2="31.9" y2="36.7"/>
		<path class="st15" d="M28.3,36.9"/>
		<path class="st15" d="M27.4,33.5"/>
		<line class="st15" x1="21.8" y1="33.4" x2="22" y2="37"/>
		<line class="st15" x1="15.7" y1="33.4" x2="15.1" y2="37.1"/>
		<line class="st15" x1="10.7" y1="33.4" x2="10" y2="35.1"/>
		<line class="st15" x1="32.4" y1="36.7" x2="33.1" y2="40.3"/>
		<path class="st15" d="M30.1,40.7"/>
		<path class="st15" d="M29.6,36.9"/>
		<line class="st15" x1="24.1" y1="37" x2="24.6" y2="41"/>
		<path class="st15" d="M17.7,37.1c0,0,0.1,3.5,0,4"/>
		<line class="st15" x1="14.3" y1="41.1" x2="14.3" y2="44.7"/>
		<line class="st15" x1="21.1" y1="41.1" x2="21.1" y2="45"/>
		<path class="st15" d="M27.5,44.8"/>
		<path class="st15" d="M27.4,40.9"/>
		<line class="st15" x1="32.1" y1="40.4" x2="32.4" y2="44"/>
		<path class="st15" d="M1.6,42.9H5"/>
		<line class="st15" x1="1.8" y1="40.6" x2="4.8" y2="40.6"/>
		<polyline class="st15" points="3.5,44.7 3.6,42.9 2.7,42.9 2.7,40.6   "/>
		<line class="st15" x1="4.6" y1="42.9" x2="4.6" y2="40.6"/>
		<line class="st15" x1="3.8" y1="40.6" x2="3.8" y2="39.4"/>
		<line class="st15" x1="3.1" y1="39.4" x2="3.1" y2="38.4"/>
		<path class="st16" d="M0.6,44.6l5.2,1.2c0,0,0.8,0.1,1.1,0c0,0,5.2-0.9,5.6-1.2c0,0,17.3,1.6,21.3-1.3c0,0,0.4-16.9-14.3-16.9    c0,0-9.6-0.5-12.8,8.7L4.3,35C4.3,35-0.1,34.2,0.6,44.6z"/>
	</g>
</g>
</svg>