<?xml version="1.0" encoding="UTF-8"?>
<svg id="Calque_1" xmlns="http://www.w3.org/2000/svg" version="1.1" viewBox="0 0 150 96">
  <!-- Generator: Adobe Illustrator 29.2.1, SVG Export Plug-In . SVG Version: 2.1.0 Build 116)  -->
  <defs>
    <style>
      .st0, .st1, .st2, .st3 {
        fill: #b3b2b2;
      }

      .st4 {
        stroke: #b3b2b2;
        stroke-width: .417px;
      }

      .st4, .st5, .st6, .st7, .st8, .st9, .st10, .st11, .st12, .st13, .st14 {
        fill: none;
      }

      .st4, .st5, .st15, .st10, .st11, .st16, .st13, .st17 {
        stroke-miterlimit: 10;
      }

      .st5, .st10 {
        stroke: #000;
      }

      .st5, .st10, .st13 {
        stroke-width: 1.111px;
      }

      .st6 {
        stroke-width: .6px;
      }

      .st6, .st8, .st9, .st12, .st14 {
        stroke: #585857;
        stroke-linecap: round;
        stroke-linejoin: round;
      }

      .st18 {
        font-size: 10.486px;
      }

      .st18, .st1, .st2, .st19, .st20, .st21, .st22, .st23, .st24, .st25, .st26, .st27, .st28, .st3 {
        isolation: isolate;
      }

      .st18, .st1, .st2, .st19, .st20, .st21, .st24, .st27, .st3 {
        font-family: AndikaBasic, 'Andika Basic';
      }

      .st18, .st29, .st22, .st24 {
        fill: #575756;
      }

      .st1 {
        font-size: 8.732px;
      }

      .st15 {
        stroke: #e30b17;
      }

      .st15, .st30, .st16, .st17 {
        fill: #fff;
      }

      .st2, .st19 {
        font-size: 4.9px;
      }

      .st19 {
        fill: #3d3d3b;
      }

      .st20, .st3 {
        font-size: 8.389px;
      }

      .st20, .st31 {
        fill: #80c7eb;
      }

      .st8 {
        stroke-width: .209px;
      }

      .st32 {
        fill: #7db729;
      }

      .st9 {
        stroke-width: .204px;
      }

      .st10 {
        stroke-dasharray: 4.304 4.304;
      }

      .st21 {
        font-size: 10.719px;
      }

      .st21, .st33 {
        fill: #9e9d9c;
      }

      .st22 {
        font-family: Cursif, Cursif;
      }

      .st22, .st24 {
        font-size: 7.865px;
      }

      .st11 {
        stroke-width: .41px;
      }

      .st11, .st13 {
        stroke: #575756;
      }

      .st16 {
        stroke-width: .722px;
      }

      .st16, .st17 {
        stroke: #878787;
      }

      .st34 {
        fill: #e11a84;
      }

      .st35, .st25, .st26, .st27 {
        fill: #878787;
      }

      .st36 {
        fill: #585857;
      }

      .st37 {
        fill: #727070;
      }

      .st25 {
        font-family: GillSans, GillSans;
      }

      .st25, .st27 {
        font-size: 5.88px;
      }

      .st26 {
        font-family: Alphonetic, Alphonetic;
        font-size: 7.84px;
      }

      .st12 {
        stroke-width: .612px;
      }

      .st28 {
        opacity: .6;
      }

      .st17 {
        stroke-width: .715px;
      }

      .st38 {
        fill: #b9b8b8;
      }

      .st14 {
        stroke-width: .2px;
      }
    </style>
  </defs>
  <polygon class="st17" points="94.759 46.844 74.359 46.844 74.359 .544 119.159 .544 119.159 46.844 99.059 46.844 94.759 46.844"/>
  <rect class="st16" x="87.065" y="47.432" width="32.4" height="12.8"/>
  <polygon class="st16" points="132.559 31.344 119.259 31.344 119.259 .544 148.459 .544 148.459 31.344 135.359 31.344 132.559 31.344"/>
  <path class="st37" d="M108.701,5.131v.513h-.872v4.136h.872v.513h-2.404v-.514h.855v-4.136h-.855v-.512s2.404,0,2.404,0Z"/>
  <path class="st37" d="M111.371,9.708c.176,0,.342,0,.498-.001.157-.001.303-.003.436-.007.133-.003.252-.009.355-.016.105-.007.193-.017.264-.028v.636h-3.082c.026-.142.042-.346.047-.613.004-.268.007-.576.007-.924v-2.087c0-.349-.003-.657-.007-.924-.005-.267-.021-.472-.047-.613h.73v4.578h.799,0Z"/>
  <path class="st34" d="M115.255,9.708c.176,0,.343,0,.499-.001s.302-.003.435-.007c.134-.003.252-.009.356-.016.104-.007.192-.017.264-.028v.636h-3.082c.025-.142.041-.346.046-.613s.006-.576.006-.925v-2.086c0-.349-.002-.657-.007-.924-.005-.267-.021-.472-.046-.613h.73v4.578h.799Z"/>
  <path class="st37" d="M77.881,7.782c.254,0,.381.126.381.377s-.127.378-.381.378c-.231,0-.347-.126-.347-.378s.116-.377.347-.377ZM78.202,11.049c0,.278.016.464.047.557.04.172.123.258.247.258.161,0,.314-.186.461-.557.018-.053.037-.106.057-.159s.039-.104.057-.152c.022-.057.04-.106.053-.146.014-.04.024-.068.034-.086l.113.212c-.16.447-.26.707-.3.782-.134.23-.316.345-.548.345-.566,0-.849-.3-.849-.901v-2.214l.628.007s0,2.054,0,2.054Z"/>
  <path class="st37" d="M81.683,10.963c-.134.385-.318.669-.555.855-.24.19-.592.285-1.055.285-.379,0-.635-.117-.769-.351-.058-.084-.098-.206-.12-.365-.018-.128-.027-.285-.027-.471v-5.753c0-.654.074-1.178.221-1.571.205-.579.545-.868,1.022-.868.271,0,.474.148.608.444.116.274.174.632.174,1.074,0,.318-.027.656-.08,1.014-.049.296-.131.645-.248,1.047-.026.07-.051.139-.073.205-.04.12-.071.214-.094.285-.022.053-.044.108-.066.166s-.042.12-.061.186c-.026.066-.052.136-.077.209s-.05.147-.077.222c-.076.212-.146.414-.21.606-.065.192-.124.375-.177.547-.12.38-.211.771-.274,1.173v1.027c0,.314.038.537.114.669.084.168.263.252.534.252.499,0,.891-.362,1.176-1.087,0,0,.114.2.114.2ZM80.941,5.197c0-.071.009-.177.027-.318.027-.137.04-.234.04-.292.018-.216.027-.362.027-.438,0-.34-.042-.605-.127-.795-.116-.225-.29-.338-.521-.338-.223,0-.383.168-.481.503-.106.354-.16.882-.16,1.584v3.771c.022-.07.06-.18.113-.33.026-.08.071-.199.133-.358.027-.084.071-.21.134-.378.022-.062.045-.126.07-.192.024-.066.05-.132.077-.199.191-.517.332-.906.421-1.167.018-.062.044-.15.08-.265.014-.044.027-.089.04-.136.014-.046.027-.092.04-.136.058-.172.087-.342.087-.51v-.006Z"/>
  <path class="st34" d="M84.131,10.963c-.134.385-.318.669-.555.855-.24.19-.592.285-1.055.285-.379,0-.635-.117-.769-.351-.058-.084-.098-.206-.12-.365-.018-.128-.027-.285-.027-.471v-5.753c0-.654.074-1.178.221-1.571.205-.579.545-.868,1.022-.868.271,0,.474.148.608.444.116.274.174.632.174,1.074,0,.318-.027.656-.08,1.014-.049.296-.131.645-.248,1.047-.026.07-.051.139-.073.205-.04.12-.071.214-.094.285-.022.053-.044.108-.066.166s-.042.12-.061.186c-.026.066-.052.136-.077.209s-.05.147-.077.222c-.076.212-.146.414-.21.606-.065.192-.124.375-.177.547-.12.38-.211.771-.274,1.173v1.027c0,.314.038.537.114.669.084.168.263.252.534.252.499,0,.891-.362,1.176-1.087,0,0,.114.2.114.2ZM83.39,5.197c0-.071.009-.177.027-.318.027-.137.04-.234.04-.292.018-.216.027-.362.027-.438,0-.34-.042-.605-.127-.795-.116-.225-.29-.338-.521-.338-.223,0-.383.168-.481.503-.106.354-.16.882-.16,1.584v3.771c.022-.07.06-.181.114-.331.026-.08.071-.199.133-.358.027-.084.071-.21.134-.378.022-.062.045-.126.07-.192.024-.066.05-.132.077-.199.191-.517.332-.906.421-1.167.018-.062.044-.15.08-.265.014-.044.027-.089.04-.136.014-.046.027-.092.04-.136.058-.172.087-.342.087-.51v-.005h0Z"/>
  <path class="st32" d="M142.542,3.773l1.056,1.752,1.002-1.752h.615c-.078.111-.148.212-.209.303s-.115.177-.166.259c-.051.081-.101.161-.147.238-.048.078-.097.16-.146.247l-.723,1.225v.445c0,.262.002.493.006.693s.016.354.035.46h-.588c.02-.106.031-.259.035-.46.003-.201.005-.432.005-.693v-.467l-.708-1.204c-.053-.086-.103-.171-.151-.254s-.101-.167-.153-.252c-.054-.084-.111-.171-.173-.26s-.13-.182-.204-.281h.614,0Z"/>
  <path class="st32" d="M124.049,6.746c-.4,0-.66-.06-.78-.18-.124-.115-.187-.353-.187-.711v-1.516c0-.148-.035-.223-.106-.223-.087,0-.208.208-.362.625-.012.041-.025.083-.04.124-.015.042-.028.081-.04.118-.018.041-.033.083-.047.124-.015.042-.028.081-.041.118-.041.107-.07.188-.087.241-.017.042-.032.082-.047.121-.015.04-.028.078-.04.115l-.094-.188c.111-.383.203-.67.273-.86.101-.264.2-.459.3-.587.116-.157.254-.235.411-.235.233,0,.379.062.438.186.041.083.063.276.063.582v1.256c0,.198.022.342.068.433.074.128.207.192.398.192.158,0,.293-.056.406-.167.082-.079.176-.212.28-.402v-2.03h.617v2.672c.166-.227.264-.365.293-.415.175-.248.293-.472.355-.674l.1.186c-.071.207-.195.439-.374.699-.041.066-.072.113-.094.142-.045.058-.076.105-.094.143-.078.095-.141.186-.187.272v3.112c0,.738-.1,1.33-.3,1.775-.229.516-.582.773-1.06.773-.221,0-.38-.122-.479-.365-.104-.251-.156-.578-.156-.978,0-.334.041-.691.125-1.07.062-.281.159-.615.293-1.002.104-.338.246-.687.43-1.045,0-.004.015-.029.043-.074.009-.033.042-.099.101-.198.021-.045.044-.094.071-.145.027-.052.058-.106.091-.164.033-.062.068-.129.106-.201.037-.072.076-.145.118-.22v-.91c-.196.363-.451.544-.767.544v.007h.002,0ZM124.815,7.612c-.267.524-.416.835-.449.934-.149.305-.265.592-.343.86-.008.037-.025.093-.05.167-.025.066-.042.125-.05.179-.013.025-.021.053-.028.083s-.014.061-.022.09-.016.06-.024.093c-.009.033-.015.066-.019.099-.079.384-.121.627-.125.73-.004.091-.008.167-.01.229s-.002.109-.002.143c0,.28.039.515.117.705.08.182.198.272.355.272.271,0,.456-.266.556-.798.063-.342.094-.775.094-1.299,0,0,0-2.487,0-2.487Z"/>
  <path class="st0" d="M90.697,52.758h.713v-.619c0-.53.108-.928.326-1.193.217-.266.518-.397.902-.397.141,0,.278.022.414.065.135.043.259.104.371.182l-.164.531c-.091-.066-.19-.119-.3-.156s-.216-.057-.321-.057c-.092,0-.174.016-.245.048s-.131.083-.179.153c-.047.071-.084.162-.108.274s-.038.248-.038.408v.761h.963v.512h-.963v1.259c0,.172.002.343.006.511s.01.328.018.48c.009.152.02.293.034.422.015.131.03.241.05.333h-.766v-3.005h-.713v-.512h0Z"/>
  <path class="st0" d="M96.791,54.401c0,.445.024.82.074,1.123s.113.553.192.751h-.624c-.012-.03-.028-.073-.049-.128-.021-.054-.044-.115-.066-.186-.023-.068-.044-.144-.064-.224-.02-.08-.037-.161-.052-.241-.093.119-.19.229-.294.333s-.212.195-.326.275c-.113.081-.232.144-.355.189-.124.046-.25.069-.379.069-.148,0-.298-.032-.446-.096-.149-.064-.282-.159-.401-.287-.119-.127-.215-.286-.289-.479-.072-.191-.109-.418-.109-.677,0-.271.029-.517.09-.737s.144-.416.248-.588c.093-.151.191-.283.296-.396s.22-.207.344-.281c.125-.074.263-.13.411-.168.15-.037.316-.057.5-.057.09,0,.189.007.301.02.11.014.223.031.338.055s.23.053.344.086c.115.032.221.068.318.105v1.539s-.002,0-.002,0ZM95.348,53.199c-.076,0-.153.009-.23.026s-.152.048-.229.09c-.074.042-.146.099-.217.168s-.136.157-.197.264c-.064.108-.116.243-.155.405-.04.16-.06.326-.06.496,0,.195.02.363.056.504.037.141.086.256.146.346.061.092.13.158.206.2.078.042.155.063.234.063.1,0,.208-.03.326-.092.117-.061.231-.143.344-.244.111-.102.217-.218.314-.35.099-.132.18-.269.244-.41v-1.326c-.035-.016-.081-.032-.137-.049-.057-.017-.117-.031-.186-.046s-.141-.025-.221-.034c-.078-.007-.158-.011-.238-.011h0Z"/>
  <path class="st34" d="M96.987,50.331c0-.082.015-.159.042-.231.029-.072.068-.136.119-.19.05-.054.109-.097.178-.128s.144-.047.227-.047c.084,0,.16.016.229.047s.13.074.181.128c.051.055.09.118.118.19s.042.149.042.231c0,.083-.014.16-.042.232-.028.071-.067.136-.118.19-.051.054-.111.097-.181.127-.069.031-.146.047-.229.047s-.158-.016-.227-.047c-.068-.03-.128-.073-.178-.127-.051-.055-.09-.119-.119-.19-.027-.072-.042-.149-.042-.232ZM98.889,54.176c0,.141.003.309.008.502.004.192.01.388.018.585s.016.386.026.565.022.328.038.446h-.913v-2.342c0-.216,0-.427-.003-.636,0-.21-.004-.408-.008-.596-.005-.187-.012-.359-.021-.521s-.021-.298-.036-.413h.891s0,2.41,0,2.41ZM98.857,50.331c0-.082.015-.159.043-.231s.067-.136.118-.19c.05-.054.11-.097.179-.128s.144-.047.227-.047.16.016.229.047.13.074.181.128c.05.055.09.118.117.19.029.072.043.149.043.231,0,.083-.014.16-.043.232-.027.071-.067.136-.117.19-.051.054-.111.097-.181.127-.069.031-.146.047-.229.047s-.158-.016-.227-.047c-.068-.03-.129-.073-.179-.127-.051-.055-.09-.119-.118-.19-.028-.072-.043-.149-.043-.232Z"/>
  <path class="st34" d="M101.776,52.598c.194,0,.367.023.517.069s.279.109.389.19c.109.082.201.177.274.285s.132.225.177.35c.043.125.074.256.094.391.02.136.029.27.029.401v.138c0,.059-.002.105-.004.139h-2.527c.008.207.041.387.099.54s.138.28.239.38c.101.101.219.176.355.225.137.05.286.074.447.074.23,0,.457-.025.678-.078.221-.051.439-.143.658-.275l.072.584c-.127.063-.25.117-.371.162s-.242.082-.363.109c-.121.028-.244.049-.369.063-.125.013-.256.02-.394.02-.228,0-.445-.04-.651-.119-.207-.078-.389-.195-.546-.35s-.281-.346-.374-.574-.139-.494-.139-.796c0-.292.039-.557.119-.794.08-.236.193-.439.34-.607.147-.168.327-.299.539-.389.211-.092.449-.138.712-.138ZM101.723,53.129c-.262,0-.475.075-.641.228-.167.151-.275.388-.328.708h1.859c0-.15-.021-.284-.065-.4-.044-.117-.106-.215-.185-.295-.08-.08-.175-.141-.284-.181-.108-.04-.227-.06-.356-.06Z"/>
  <path class="st0" d="M106.119,52.598c.381,0,.672.123.873.369.202.247.303.613.303,1.098v2.21h-.658v-1.944c0-.221-.016-.404-.045-.548s-.074-.257-.132-.341-.132-.143-.222-.176c-.088-.032-.193-.049-.314-.049-.129,0-.254.029-.376.09s-.235.139-.337.233c-.102.096-.192.203-.271.323-.078.121-.136.24-.174.361v2.05h-.659v-2.174c0-.349-.02-.644-.06-.886-.039-.242-.078-.424-.119-.546h.642c.015.038.028.087.043.146s.027.123.039.188c.013.066.022.131.032.195l.028.158c.226-.268.454-.462.685-.581.23-.116.47-.176.722-.176Z"/>
  <path class="st0" d="M109.972,52.598c.237,0,.442.028.614.084.172.055.324.127.455.217l-.125.637c-.162-.118-.322-.207-.48-.266-.16-.059-.332-.088-.518-.088-.158,0-.307.029-.443.09s-.256.146-.356.26-.18.252-.237.417-.085.352-.085.559c0,.19.026.364.078.52s.128.29.225.401c.098.111.215.199.353.26.139.062.293.092.467.092.217,0,.412-.036.588-.109s.342-.178.499-.314l.071.619c-.09.068-.18.126-.27.174-.088.049-.182.089-.279.121-.098.031-.201.055-.313.07s-.233.023-.366.023c-.24,0-.465-.043-.674-.126s-.393-.204-.549-.362c-.157-.158-.281-.349-.371-.572-.09-.225-.135-.478-.135-.76,0-.268.043-.518.13-.754.087-.235.21-.441.37-.618s.355-.316.584-.419c.229-.104.484-.156.767-.156h0Z"/>
  <path class="st0" d="M113.463,52.598c.195,0,.367.023.518.069.149.046.279.109.389.19.108.082.2.177.273.285.074.108.133.225.177.35s.075.256.095.391c.019.136.028.27.028.401v.138c0,.059,0,.105-.004.139h-2.526c.008.207.04.387.098.54.059.153.139.28.239.38.101.101.22.176.356.225.137.05.285.074.447.074.23,0,.456-.025.677-.078.221-.051.44-.143.659-.275l.071.584c-.126.063-.249.117-.37.162s-.242.082-.363.109c-.121.028-.244.049-.369.063-.125.013-.256.02-.395.02-.228,0-.445-.04-.651-.119-.207-.078-.389-.195-.546-.35-.156-.154-.281-.346-.373-.574-.094-.229-.14-.494-.14-.796,0-.292.04-.557.12-.794.079-.236.192-.439.34-.607.146-.168.326-.299.538-.389.212-.092.448-.138.712-.138ZM113.41,53.129c-.262,0-.475.075-.642.228-.167.151-.275.388-.327.708h1.859c0-.15-.021-.284-.066-.4-.043-.117-.105-.215-.185-.295-.08-.08-.175-.141-.284-.181-.108-.04-.227-.06-.355-.06Z"/>
  <g class="st23">
    <path class="st33" d="M88.78,10.37c0-.231.038-.448.112-.65s.181-.379.318-.532.301-.272.492-.359.403-.13.637-.13c.232,0,.448.043.648.13.199.086.369.206.511.359s.253.33.337.532c.083.202.125.419.125.65s-.042.447-.125.649c-.084.202-.195.379-.337.532s-.312.272-.511.359c-.2.087-.416.13-.648.13s-.445-.043-.637-.13c-.191-.086-.355-.206-.492-.359-.138-.152-.244-.33-.318-.532s-.112-.418-.112-.649ZM91.523,21.134c0,.396.007.864.02,1.404.012.541.029,1.087.049,1.639.021.553.047,1.081.076,1.584.028.503.063.92.105,1.25h-2.557v-6.557c0-.602-.002-1.196-.006-1.782-.005-.585-.013-1.14-.025-1.664s-.031-1.01-.057-1.46c-.024-.45-.058-.835-.1-1.157h2.494v6.743h0Z"/>
    <path class="st33" d="M97.574,21.134c0,.396.006.862.019,1.398.013.537.029,1.081.05,1.633.021.553.046,1.081.075,1.583.028.503.063.924.106,1.262h-2.557v-13.98c0-1.204-.021-2.295-.063-3.272s-.104-1.825-.188-2.542h2.557v13.918h.001Z"/>
  </g>
  <g class="st23">
    <path class="st34" d="M103.016,21.134c0,.396.006.862.018,1.398.014.537.029,1.081.051,1.633.021.553.045,1.081.074,1.583.029.503.064.924.106,1.262h-2.557v-13.98c0-1.204-.021-2.295-.063-3.272s-.104-1.825-.187-2.542h2.557v13.918h0Z"/>
  </g>
  <g class="st23">
    <path class="st0" d="M81.825,33.61c.356,0,.664.041.922.125.258.083.485.191.682.326l-.187.954c-.243-.177-.483-.31-.722-.397s-.497-.133-.775-.133c-.239,0-.46.045-.666.135-.205.091-.383.221-.535.391s-.27.378-.355.625c-.085.248-.128.527-.128.838,0,.287.039.547.118.779.078.233.19.434.336.602s.322.299.529.391.44.138.7.138c.324,0,.618-.055.882-.165.264-.109.513-.266.748-.471l.107.928c-.135.102-.27.189-.403.262s-.273.133-.419.181-.303.083-.471.106c-.167.022-.351.033-.55.033-.36,0-.697-.063-1.01-.188s-.588-.307-.823-.543c-.235-.237-.42-.523-.556-.859-.136-.336-.203-.716-.203-1.141,0-.398.065-.775.195-1.129s.315-.663.556-.928c.24-.266.533-.475.876-.629.344-.154.727-.231,1.152-.231h0Z"/>
    <path class="st0" d="M89.334,36.315c0,.668.037,1.229.112,1.683s.171.83.288,1.127h-.935c-.019-.046-.043-.109-.075-.19-.031-.082-.064-.174-.099-.279-.034-.104-.065-.216-.097-.336-.029-.121-.056-.24-.077-.361-.139.178-.286.344-.44.499-.155.155-.318.294-.49.413-.17.121-.349.215-.533.284-.186.069-.375.103-.567.103-.225,0-.448-.047-.671-.143s-.423-.238-.602-.43c-.178-.19-.322-.43-.433-.719-.111-.287-.166-.626-.166-1.015,0-.407.045-.775.136-1.106.091-.33.215-.624.372-.883.139-.226.287-.424.444-.594.157-.169.329-.31.516-.421s.393-.195.617-.252c.225-.057.475-.085.748-.085.136,0,.287.01.452.029s.335.047.508.082.345.078.516.127c.171.05.329.104.476.16v2.307h0ZM87.17,34.511c-.115,0-.229.013-.345.04-.116.026-.23.071-.342.135s-.221.148-.326.252-.204.236-.297.396c-.096.163-.174.364-.232.606s-.088.49-.088.746c0,.293.028.545.083.755s.128.384.219.52.194.236.31.3.232.096.35.096c.149,0,.313-.047.489-.139.177-.092.349-.213.516-.365.168-.152.325-.327.473-.525.148-.197.271-.402.367-.615v-1.988c-.054-.024-.123-.049-.206-.074-.084-.024-.177-.047-.278-.068s-.212-.038-.331-.051c-.122-.014-.241-.021-.362-.021Z"/>
  </g>
  <g class="st23">
    <path class="st33" d="M90.963,30.21c0-.124.021-.24.061-.348s.097-.203.17-.285c.074-.082.162-.146.264-.192.104-.046.217-.07.342-.07.124,0,.24.023.348.07.106.046.197.11.273.192.076.082.136.177.18.285.045.108.067.224.067.348s-.022.24-.067.348c-.044.108-.104.204-.18.285s-.167.146-.273.193c-.107.046-.224.068-.348.068-.125,0-.238-.022-.342-.068-.102-.047-.189-.111-.264-.193-.073-.082-.13-.177-.17-.285-.041-.109-.061-.225-.061-.348ZM92.434,35.976c0,.212.003.463.01.753.006.289.016.582.026.878s.024.579.04.849.035.492.057.669h-1.369v-3.513c0-.322-.002-.641-.004-.955-.002-.313-.006-.61-.013-.891s-.017-.541-.03-.782-.031-.448-.054-.62h1.337v3.612Z"/>
    <path class="st33" d="M96.208,35.976c0,.212.003.462.011.749.006.287.015.579.025.875.012.296.025.579.041.848.016.271.034.496.057.677h-1.369v-7.489c0-.646-.012-1.23-.034-1.753-.022-.524-.056-.978-.101-1.362h1.37s0,7.455,0,7.455Z"/>
  </g>
  <g class="st23">
    <path class="st34" d="M99.691,35.976c0,.212.003.462.01.749.006.287.016.579.026.875s.024.579.04.848c.016.271.035.496.057.677h-1.369v-7.489c0-.646-.012-1.23-.033-1.753-.022-.524-.057-.978-.101-1.362h1.37s0,7.455,0,7.455Z"/>
  </g>
  <g class="st23">
    <path class="st0" d="M101.322,36.447c0-.456.069-.86.209-1.212.139-.352.326-.648.561-.891.235-.242.51-.425.823-.549.313-.123.646-.186.999-.186.367,0,.703.063,1.008.186.305.124.566.307.785.549.22.242.391.539.512.891s.182.756.182,1.212-.07.858-.209,1.209-.326.644-.561.88c-.236.237-.51.416-.824.539-.313.121-.646.182-.999.182-.367,0-.703-.061-1.007-.182-.305-.123-.567-.302-.787-.539-.219-.236-.389-.529-.51-.88s-.182-.753-.182-1.209ZM102.311,36.447c0,.308.038.583.113.827.074.244.18.449.317.617s.3.297.489.385c.188.089.398.133.631.133.213,0,.414-.044.604-.133.189-.088.354-.217.494-.385s.252-.373.332-.617.12-.52.12-.827c0-.312-.038-.589-.112-.835s-.182-.455-.318-.626-.301-.302-.491-.392c-.19-.091-.4-.136-.628-.136-.218,0-.421.045-.609.136-.189.09-.354.221-.492.392s-.248.38-.328.626-.122.523-.122.835Z"/>
    <path class="st0" d="M109.446,39.256c-1.14,0-1.71-.76-1.71-2.279v-1.564c0-.17,0-.323-.003-.461-.002-.139-.007-.271-.013-.4-.008-.129-.019-.261-.033-.395-.014-.135-.033-.281-.059-.441h1.096v2.943c0,.301.016.56.046.777s.081.396.152.535.165.243.28.311c.115.066.26.101.431.101.157,0,.324-.047.503-.141.178-.094.348-.213.51-.358s.311-.305.443-.479c.134-.175.236-.344.308-.507v-1.484c0-.173,0-.33-.003-.469-.002-.141-.006-.273-.014-.4-.007-.127-.018-.256-.031-.387-.015-.131-.034-.278-.059-.441h1.096v3.023c0,.516.029.967.088,1.354s.145.731.259,1.031h-.908c-.025-.06-.052-.131-.081-.212-.027-.082-.056-.168-.082-.26-.027-.092-.052-.188-.075-.289-.022-.102-.042-.201-.056-.3-.324.393-.658.689-1.002.891-.343.202-.705.301-1.083.301h0Z"/>
  </g>
  <g class="st23">
    <path class="st35" d="M104.968,42.229c0-.29.11-.536.329-.738s.486-.303.805-.303c.311,0,.574.1.789.301.215.199.322.447.322.74,0,.33-.155.604-.465.818.346.198.518.49.518.875,0,.307-.111.56-.336.76-.225.199-.508.299-.85.299-.339,0-.623-.102-.854-.307-.229-.203-.344-.456-.344-.757,0-.376.176-.667.529-.87-.159-.127-.272-.254-.342-.381-.067-.125-.101-.271-.101-.437ZM106.727,43.945v-.054c0-.169-.061-.307-.184-.414-.121-.107-.279-.16-.475-.16-.189,0-.346.053-.466.161s-.181.247-.181.419.063.311.185.419c.123.108.282.161.479.161.187,0,.341-.049.461-.148.12-.099.181-.227.181-.384ZM106.682,42.244c0-.16-.057-.293-.168-.396-.111-.105-.252-.156-.424-.156s-.314.051-.424.153c-.111.103-.166.233-.166.396,0,.152.059.285.175.395s.257.164.421.164c.162,0,.301-.055.414-.163.114-.109.172-.24.172-.393Z"/>
    <path class="st35" d="M108.429,42.783h.032c.232,0,.41-.048.533-.144.121-.095.183-.233.183-.416,0-.165-.06-.298-.178-.4s-.274-.153-.466-.153c-.195,0-.41.06-.646.18v-.506c.217-.107.453-.162.71-.162.345,0,.615.09.813.268.199.178.299.422.299.731,0,.187-.039.345-.115.473s-.199.238-.366.33c.146.056.253.126.321.208.066.082.119.182.157.299.037.116.056.24.056.371,0,.324-.108.592-.326.803-.217.211-.491.316-.822.316-.283,0-.557-.067-.82-.203v-.578c.281.174.555.262.82.262.18,0,.324-.053.434-.158.109-.106.164-.247.164-.422,0-.146-.045-.275-.136-.385-.054-.062-.112-.107-.178-.137s-.205-.057-.421-.083l-.048-.005v-.489Z"/>
    <path class="st35" d="M112.667,41.193c.229,0,.426.081.588.243.162.163.243.358.243.586s-.082.422-.244.584c-.163.162-.359.244-.587.244s-.423-.082-.587-.244c-.162-.162-.244-.357-.244-.584s.081-.423.243-.586c.162-.162.359-.243.588-.243h0ZM114.558,41.182h.413l-2.455,3.799h-.412l2.454-3.799ZM112.66,41.596c-.119,0-.221.041-.305.125s-.127.185-.127.303c0,.116.043.216.129.299.084.082.186.124.303.124.119,0,.221-.042.305-.124.085-.083.127-.183.127-.299,0-.119-.041-.221-.125-.304s-.186-.124-.307-.124ZM114.43,43.326c.228,0,.424.081.587.243.163.161.245.355.245.581s-.081.419-.244.577c-.162.158-.358.237-.588.237s-.428-.079-.592-.237c-.162-.158-.244-.351-.244-.577,0-.228.082-.422.246-.582.164-.161.36-.242.59-.242ZM114.424,43.73c-.117,0-.217.042-.299.124-.083.083-.125.183-.125.299,0,.118.042.219.125.303.082.084.182.125.299.125.121,0,.223-.041.307-.123.084-.084.125-.185.125-.305,0-.118-.041-.218-.125-.3s-.186-.123-.307-.123Z"/>
  </g>
  <g class="st23">
    <path class="st32" d="M134.577,14.584c-.294.806-.581,1.463-.863,1.973-.282.509-.568.911-.858,1.205-.291.294-.593.495-.906.604s-.65.164-1.011.164c-.39,0-.755-.062-1.097-.185-.341-.123-.666-.299-.977-.529l.508-1.343c.09.072.195.147.316.222.122.076.252.143.39.202s.28.108.428.147c.146.039.29.059.432.059.169,0,.335-.029.499-.088s.328-.171.495-.336.337-.397.513-.697c.174-.3.36-.693.558-1.18l-2.36-5.801c-.158-.38-.342-.809-.551-1.285s-.477-1.041-.804-1.696h1.692l2.733,6.859c.107-.302.225-.631.352-.987.127-.355.258-.722.394-1.1.135-.378.271-.758.406-1.142.135-.383.265-.751.389-1.104.293-.829.59-1.671.889-2.527h1.693c-.147.325-.279.625-.398.902-.118.277-.229.538-.33.781-.102.243-.193.471-.275.684s-.156.417-.224.613l-2.033,5.585h0Z"/>
  </g>
  <g class="st28">
    <path class="st34" d="M124.233,24.037v-3.995c0-.382-.003-.716-.007-1.002-.005-.287-.021-.506-.047-.659h.713v3.531l1.443-1.481h.891l-1.764,1.58,1.871,2.025h-.873l-1.568-1.838v1.838h-.659Z"/>
  </g>
  <g class="st23">
    <path class="st0" d="M131.01,22.164c0,.445.025.819.074,1.123.051.303.114.553.193.751h-.624c-.013-.031-.028-.073-.05-.127s-.043-.116-.066-.186c-.022-.069-.043-.144-.064-.224-.02-.08-.037-.161-.051-.241-.093.118-.191.229-.295.333-.103.104-.211.195-.325.275-.114.081-.233.144-.356.189s-.25.069-.378.069c-.149,0-.298-.032-.446-.095-.149-.064-.283-.159-.401-.287-.119-.127-.216-.287-.289-.479s-.11-.417-.11-.677c0-.271.03-.517.091-.737.061-.22.144-.417.248-.588.093-.151.19-.283.296-.396.104-.113.219-.207.344-.281.125-.075.262-.13.411-.168s.315-.057.499-.057c.09,0,.19.006.301.02.111.013.224.031.339.055s.229.052.344.085c.114.033.22.068.317.106v1.537h-.002ZM129.566,20.962c-.076,0-.152.009-.23.026-.076.018-.152.048-.228.09-.075.042-.147.099-.218.168-.069.07-.135.157-.197.264-.064.108-.115.243-.154.405-.04.161-.06.327-.06.497,0,.195.019.363.056.503.037.141.086.256.146.347s.129.157.206.2.155.063.233.063c.1,0,.209-.03.326-.092.117-.061.232-.143.344-.244.111-.101.217-.218.315-.35s.18-.269.243-.41v-1.326c-.035-.017-.08-.033-.137-.049-.056-.017-.117-.032-.186-.046-.067-.014-.141-.025-.221-.034-.076-.008-.157-.012-.238-.012h0Z"/>
  </g>
  <g class="st23">
    <path class="st32" d="M134.396,24.037c-.154.424-.306.771-.454,1.039s-.299.479-.452.634-.312.261-.478.318c-.164.057-.342.086-.531.086-.205,0-.397-.032-.577-.097s-.351-.158-.515-.278l.268-.707c.047.038.104.078.167.117s.132.075.205.106c.072.031.147.057.225.078.077.021.153.031.228.031.089,0,.176-.016.263-.046.086-.031.173-.09.261-.177s.178-.209.27-.367c.092-.158.189-.365.293-.621l-1.242-3.053c-.083-.2-.18-.426-.289-.676-.11-.25-.252-.548-.424-.893h.891l1.439,3.61c.057-.159.117-.332.185-.519s.136-.38.207-.579.143-.399.214-.601.14-.396.205-.581c.154-.436.311-.879.467-1.33h.892c-.077.17-.147.329-.21.475s-.119.283-.174.411c-.053.128-.102.248-.145.36-.043.112-.082.22-.117.323l-1.072,2.937h0Z"/>
  </g>
  <g class="st23">
    <path class="st0" d="M139.779,22.164c0,.445.025.819.074,1.123.051.303.114.553.193.751h-.624c-.013-.031-.028-.073-.05-.127s-.043-.116-.066-.186c-.022-.069-.043-.144-.064-.224-.02-.08-.037-.161-.051-.241-.093.118-.191.229-.295.333-.103.104-.211.195-.325.275-.114.081-.233.144-.356.189s-.25.069-.378.069c-.149,0-.298-.032-.446-.095-.149-.064-.283-.159-.401-.287-.119-.127-.216-.287-.289-.479s-.11-.417-.11-.677c0-.271.03-.517.091-.737s.144-.417.248-.588c.093-.151.19-.283.296-.396.104-.113.219-.207.344-.281.125-.075.262-.13.411-.168s.315-.057.499-.057c.09,0,.19.006.301.02.111.013.224.031.339.055s.229.052.344.085c.114.033.22.068.317.106v1.537h-.002ZM138.336,20.962c-.076,0-.152.009-.23.026-.076.018-.152.048-.228.09-.075.042-.147.099-.218.168-.069.07-.135.157-.197.264-.064.108-.115.243-.154.405-.04.161-.06.327-.06.497,0,.195.019.363.056.503.037.141.086.256.146.347s.129.157.206.2.155.063.233.063c.1,0,.209-.03.326-.092.117-.061.232-.143.344-.244.111-.101.217-.218.315-.35s.18-.269.243-.41v-1.326c-.035-.017-.08-.033-.137-.049-.056-.017-.117-.032-.186-.046-.067-.014-.141-.025-.221-.034-.077-.008-.158-.012-.238-.012h0Z"/>
  </g>
  <g>
    <path class="st34" d="M140.865,24.037v-3.995c0-.382-.002-.716-.007-1.002-.005-.287-.021-.506-.046-.659h.712v3.531l1.443-1.481h.891l-1.764,1.58,1.87,2.025h-.873l-1.567-1.838v1.838h-.659,0Z"/>
    <path class="st34" d="M140.349,24.568v-.283h3.688v.283h-3.688Z"/>
  </g>
  <g class="st23">
    <path class="st35" d="M139.495,26.442h1.381v.393h-.976v.78c.031-.003.063-.004.096-.004.302,0,.549.091.744.272.194.182.291.414.291.695,0,.291-.096.526-.288.708s-.44.272-.747.272c-.252,0-.497-.06-.734-.181v-.455c.224.145.443.217.656.217.188,0,.344-.054.471-.163s.191-.241.191-.399c0-.163-.069-.3-.207-.41-.139-.11-.311-.165-.518-.165-.176,0-.297.015-.36.044,0,0,0-1.604,0-1.604Z"/>
    <path class="st35" d="M143.388,26.407c.191,0,.354.067.489.203.136.135.203.298.203.488,0,.188-.068.351-.203.486-.137.136-.299.204-.489.204s-.353-.068-.489-.204c-.135-.135-.203-.297-.203-.486,0-.19.067-.353.203-.488.134-.136.297-.203.489-.203ZM144.963,26.398h.345l-2.046,3.166h-.344l2.045-3.166ZM143.383,26.742c-.1,0-.185.035-.255.105-.07.069-.105.154-.105.252,0,.097.036.18.106.249.071.069.156.104.254.104.099,0,.184-.035.254-.104s.105-.152.105-.249c0-.1-.035-.184-.104-.253-.07-.069-.156-.104-.255-.104h0ZM144.856,28.185c.189,0,.353.067.489.202s.205.296.205.485-.068.349-.204.48-.299.198-.49.198c-.192,0-.356-.066-.493-.198-.135-.132-.203-.292-.203-.48,0-.19.068-.352.205-.486.137-.134.3-.201.491-.201ZM144.852,28.521c-.098,0-.181.034-.25.104-.068.069-.103.152-.103.249,0,.099.034.183.103.252.069.07.152.104.25.104.102,0,.186-.034.256-.104.069-.069.104-.153.104-.253,0-.098-.034-.182-.104-.25-.071-.068-.155-.102-.256-.102Z"/>
  </g>
  <path class="st15" d="M57.862,78.31h-26.887V.517h43.284v77.793h-11.478s-3.698,7.411-9.793,8.843c0,0,3.655-2.712,4.874-8.843"/>
  <path class="st13" d="M57.862,78.31h-26.887V.517h43.284v77.793h-11.478s-3.698,7.411-9.793,8.843c0,0,3.655-2.712,4.874-8.843Z"/>
  <path class="st4" d="M46.174,35.937s3.242,2.673,7.112,0"/>
  <path class="st4" d="M54.266,35.937s2.721,2.673,5.969,0"/>
  <g class="st23">
    <g class="st23">
      <g class="st23">
        <text class="st27" transform="translate(58.308 93.171)"><tspan x="0" y="0">Force</tspan></text>
      </g>
    </g>
  </g>
  <g class="st23">
    <g class="st23">
      <g class="st23">
        <text class="st25" transform="translate(61.156 76.41)"><tspan x="0" y="0">79 %</tspan></text>
      </g>
    </g>
  </g>
  <g class="st23">
    <g class="st23">
      <g class="st23">
        <text class="st25" transform="translate(61.054 87.503)"><tspan x="0" y="0">81 %</tspan></text>
      </g>
    </g>
  </g>
  <g class="st23">
    <g class="st23">
      <g class="st23">
        <text class="st25" transform="translate(64.114 38.241)"><tspan x="0" y="0">2 %</tspan></text>
      </g>
    </g>
  </g>
  <path class="st33" d="M49.067,8.636c0-.229.038-.444.111-.645.074-.201.178-.377.313-.528.135-.152.297-.27.486-.356.188-.086.397-.13.626-.13s.443.044.64.13c.196.086.364.204.503.356.14.151.25.327.332.528s.123.416.123.645-.041.445-.123.645c-.082.201-.192.377-.332.528-.139.152-.307.271-.503.357-.197.086-.41.13-.64.13s-.438-.044-.626-.13c-.189-.086-.351-.205-.486-.357-.135-.151-.239-.327-.313-.528-.073-.2-.111-.415-.111-.645M51.771,19.327c0,.393.006.858.018,1.394.013.537.029,1.08.05,1.629.02.549.045,1.073.074,1.573.028.499.063.914.104,1.241h-2.519v-6.513c0-.598-.003-1.187-.007-1.769s-.012-1.132-.024-1.653c-.012-.521-.031-1.004-.055-1.45-.025-.447-.058-.83-.099-1.149h2.458s0,6.697,0,6.697Z"/>
  <path class="st29" d="M49.067,8.636c0-.229.038-.444.111-.645.074-.201.178-.377.313-.528.135-.152.297-.27.486-.356.188-.086.397-.13.626-.13s.443.044.64.13c.196.086.364.204.503.356.14.151.25.327.332.528s.123.416.123.645-.041.445-.123.645c-.082.201-.192.377-.332.528-.139.152-.307.271-.503.357-.197.086-.41.13-.64.13s-.438-.044-.626-.13c-.189-.086-.351-.205-.486-.357-.135-.151-.239-.327-.313-.528-.073-.2-.111-.415-.111-.645ZM51.771,19.327c0,.393.006.858.018,1.394.013.537.029,1.08.05,1.629.02.549.045,1.073.074,1.573.028.499.063.914.104,1.241h-2.519v-6.513c0-.598-.003-1.187-.007-1.769s-.012-1.132-.024-1.653c-.012-.521-.031-1.004-.055-1.45-.025-.447-.058-.83-.099-1.149h2.458s0,6.697,0,6.697Z"/>
  <path class="st33" d="M57.959,19.327c0,.393.006.857.018,1.389.013.532.029,1.072.05,1.622.02.548.045,1.073.074,1.572.028.501.063.918.104,1.254h-2.519v-13.886c0-1.196-.021-2.279-.062-3.25s-.103-1.812-.184-2.525h2.519s0,13.824,0,13.824Z"/>
  <path class="st29" d="M57.959,19.327c0,.393.006.857.018,1.389.013.532.029,1.072.05,1.622.02.548.045,1.073.074,1.572.028.501.063.918.104,1.254h-2.519v-13.886c0-1.196-.021-2.279-.062-3.25s-.103-1.812-.184-2.525h2.519s0,13.824,0,13.824Z"/>
  <g class="st23">
    <g class="st23">
      <g class="st23">
        <text class="st20" transform="translate(45.496 34.58)"><tspan x="0" y="0">o</tspan></text>
      </g>
    </g>
  </g>
  <g class="st23">
    <g class="st23">
      <g class="st23">
        <text class="st3" transform="translate(49.414 34.58)"><tspan x="0" y="0">e</tspan></text>
      </g>
    </g>
  </g>
  <g class="st23">
    <g class="st23">
      <g class="st23">
        <text class="st18" transform="translate(54.651 34.58)"><tspan x="0" y="0">i</tspan></text>
      </g>
    </g>
  </g>
  <g class="st23">
    <g class="st23">
      <g class="st23">
        <text class="st18" transform="translate(57.336 34.58)"><tspan x="0" y="0">l</tspan></text>
      </g>
    </g>
  </g>
  <polygon class="st11" points="54.651 35.143 54.651 35.143 57.334 35.143 54.651 35.143"/>
  <polygon class="st11" points="57.334 35.143 57.334 35.143 60.227 35.143 57.334 35.143"/>
  <g class="st23">
    <g class="st23">
      <g class="st23">
        <text class="st1" transform="translate(47.502 51.948)"><tspan x="0" y="0">l</tspan></text>
      </g>
    </g>
  </g>
  <g class="st23">
    <g class="st23">
      <g class="st23">
        <text class="st1" transform="translate(44.943 60.776)"><tspan x="0" y="0">p</tspan></text>
      </g>
    </g>
  </g>
  <g class="st23">
    <g class="st23">
      <g class="st23">
        <text class="st1" transform="translate(59.159 60.715)"><tspan x="0" y="0">no</tspan></text>
      </g>
    </g>
  </g>
  <g class="st23">
    <g class="st23">
      <g class="st23">
        <text class="st1" transform="translate(31.959 70.826)"><tspan x="0" y="0">amit</tspan></text>
      </g>
    </g>
  </g>
  <g class="st23">
    <g class="st23">
      <g class="st23">
        <text class="st2" transform="translate(50.369 76.41)"><tspan x="0" y="0">etc</tspan></text>
      </g>
    </g>
    <g class="st23">
      <g class="st23">
        <text class="st2" transform="translate(57.001 76.41)"><tspan x="0" y="0">.</tspan></text>
      </g>
    </g>
  </g>
  <g class="st23">
    <g class="st23">
      <g class="st23">
        <text class="st24" transform="translate(35.288 9.347)"><tspan x="0" y="0">I</tspan></text>
      </g>
    </g>
  </g>
  <g class="st23">
    <g class="st23">
      <g class="st23">
        <text class="st24" transform="translate(39.031 9.347)"><tspan x="0" y="0">L</tspan></text>
      </g>
    </g>
  </g>
  <g class="st23">
    <g class="st23">
      <g class="st23">
        <text class="st22" transform="translate(66.747 12.485)"><tspan x="0" y="0">il</tspan></text>
      </g>
    </g>
  </g>
  <line class="st7" x1="73.634" y1="41.559" x2="30.974" y2="41.559"/>
  <line class="st5" x1="73.634" y1="41.559" x2="71.674" y2="41.559"/>
  <line class="st10" x1="67.37" y1="41.559" x2="35.087" y2="41.559"/>
  <line class="st5" x1="32.934" y1="41.559" x2="30.974" y2="41.559"/>
  <path class="st30" d="M38.204,50.275c4.247-.736,5.668-1.971,5.671-3.376.006-2.284-5.966-4.149-15.024-4.171-9.059-.023-15.313,1.812-15.319,4.096-.006,2.284,6.24,4.149,15.298,4.172,1.835.004,5.241-.15,5.241-.15,1.806,1.505,5.577,2.656,7.272,2.986,0,0-3.174-2.368-3.139-3.557"/>
  <path class="st8" d="M38.204,50.275c4.247-.736,5.668-1.971,5.671-3.376.006-2.284-5.966-4.149-15.024-4.171-9.059-.023-15.313,1.812-15.319,4.096-.006,2.284,6.24,4.149,15.298,4.172,1.835.004,5.241-.15,5.241-.15,1.806,1.505,5.577,2.656,7.272,2.986,0,0-3.174-2.368-3.139-3.557"/>
  <g class="st23">
    <g class="st23">
      <g class="st23">
        <text class="st19" transform="translate(18.063 48.421)"><tspan x="0" y="0">i + voyelle</tspan></text>
      </g>
    </g>
  </g>
  <g class="st23">
    <g class="st23">
      <g class="st23">
        <text class="st21" transform="translate(49.657 60.655)"><tspan x="0" y="0">ia</tspan></text>
      </g>
    </g>
  </g>
  <g class="st23">
    <g class="st23">
      <g class="st23">
        <text class="st21" transform="translate(49.604 70.934)"><tspan x="0" y="0">i</tspan></text>
      </g>
    </g>
  </g>
  <g class="st23">
    <g class="st23">
      <g class="st23">
        <text class="st21" transform="translate(52.563 70.934)"><tspan x="0" y="0">é</tspan></text>
      </g>
    </g>
  </g>
  <g class="st23">
    <g class="st23">
      <g class="st23">
        <text class="st21" transform="translate(49.668 51.886)"><tspan x="0" y="0">i</tspan></text>
      </g>
    </g>
  </g>
  <g class="st23">
    <g class="st23">
      <g class="st23">
        <text class="st21" transform="translate(52.626 51.886)"><tspan x="0" y="0">o</tspan></text>
      </g>
    </g>
    <g class="st23">
      <g class="st23">
        <text class="st21" transform="translate(57.746 51.886)"><tspan x="0" y="0">n</tspan></text>
      </g>
    </g>
  </g>
  <g class="st23">
    <g class="st23">
      <g class="st23">
        <text class="st26" transform="translate(33.608 85.976)"><tspan x="0" y="0">[</tspan></text>
      </g>
    </g>
  </g>
  <g class="st23">
    <g class="st23">
      <g class="st23">
        <text class="st26" transform="translate(36.218 85.976)"><tspan x="0" y="0">J</tspan></text>
      </g>
    </g>
  </g>
  <g class="st23">
    <g class="st23">
      <g class="st23">
        <text class="st26" transform="translate(39.519 85.976)"><tspan x="0" y="0">]</tspan></text>
      </g>
    </g>
  </g>
  <path class="st30" d="M16.761,25.42c.703.769,5.387,5.717,12.939,5.588,7.214-.123,11.621-4.784,12.357-5.588-.673-.784-4.997-5.656-12.232-5.836-7.724-.193-12.448,5.119-13.064,5.836"/>
  <path class="st31" d="M19.791,22.718s-1.285,2.856,0,5.278c0,0-2.549-1.799-3.03-2.576,0,0,2.373-2.649,3.03-2.702"/>
  <path class="st38" d="M38.25,22.179s1.759,3.208,0,6.224c0,0,2.574-1.391,3.807-2.983,0,0-2.63-2.749-3.807-3.241"/>
  <path class="st14" d="M19.791,22.718s-1.332,2.809,0,5.278"/>
  <path class="st14" d="M38.25,22.179s1.712,2.457,0,6.326"/>
  <path class="st14" d="M40.007,23.444s.838,2.306,0,3.851"/>
  <path class="st6" d="M16.761,25.42c.703.769,5.387,5.717,12.939,5.588,7.214-.123,11.621-4.784,12.357-5.588-.673-.784-4.997-5.656-12.232-5.836-7.724-.193-12.448,5.119-13.064,5.836Z"/>
  <path class="st6" d="M18.682,23.418c-.35-.143-1.201-.547-1.847-1.484-.732-1.059-.745-2.137-.733-2.502"/>
  <path class="st6" d="M22.096,21.236c-.305-.223-1.034-.819-1.438-1.883-.457-1.203-.212-2.254-.113-2.605"/>
  <path class="st6" d="M25.932,19.934c-.243-.289-.808-1.043-.946-2.172-.155-1.278.335-2.239.515-2.557"/>
  <path class="st6" d="M29.97,19.589c-.167-.339-.535-1.206-.398-2.336.155-1.278.861-2.093,1.111-2.359"/>
  <path class="st6" d="M33.972,20.22c-.08-.369-.231-1.299.173-2.363.456-1.204,1.337-1.827,1.644-2.024"/>
  <path class="st6" d="M37.707,21.791c.01-.378.087-1.317.733-2.253.732-1.059,1.736-1.453,2.081-1.572"/>
  <path class="st6" d="M40.957,24.211c.1-.364.399-1.257,1.251-2.012.964-.853,2.033-.996,2.397-1.028"/>
  <ellipse class="st14" cx="29.409" cy="25.295" rx="5.197" ry="5.651"/>
  <path class="st36" d="M32.07,25.295c0,1.47-1.191,2.661-2.661,2.661s-2.661-1.191-2.661-2.661,1.191-2.661,2.661-2.661,2.661,1.191,2.661,2.661"/>
  <path class="st30" d="M28.339,23.99c0,.513-.416.929-.929.929s-.929-.416-.929-.929.416-.929.929-.929.929.416.929.929"/>
  <path class="st30" d="M26.263,61.461c.354-.478-.073-1.79-.073-1.79.23-1.276-.627-2.111-.627-2.111-.04-.539-.912-1.074-.912-1.074.117-.654-1.067-.584-1.067-.584-.015-.444-.265-.495-.265-.495-.303.136-.654-.159-.654-.159-.21-.538-1.214-.281-1.214-.281,0,0-1.822-.841-3.294.444-.955-.101-2.243,1.612-2.243,1.612-1.463.65-1.504,2.336-1.504,2.336-.547-.093-.388,1.448-.388,1.448-1.321.365-1.932,2.796-.985,4.78.05.106.071.224.05.339-.051.28-.21.821-.7,1.282,0,0-.613.766-3.935,1.673-.585.16-1.128.419-1.608.757l-.101.074s-3.031,1.052-4.527,3.524c-.857,1.416-.974,3.175-.336,4.702.101.243.223.461.369.622,0,0-.724,1.589-.35,2.313l.49-.771s-.467,2.243,1.145,2.64l-.537-1.542s.514,1.386,1.553,1.315c.135.37.291.631.402.789.081.115.212.185.353.185h2.818c.165,0,.313-.098.377-.25.177-.417.336-1.24-.948-1.549,0,0-1.081-.084-.962-1.95.012-.182.086-.357.209-.494l1.687-1.877-.225,1.098s-.709.654-.219,1.752c.491,1.098.468,2.639,1.916,2.873s2.009-.127,2.009-.127c0,0,.07,1.015,1.471.921,1.402-.093,2.897-.28,2.897-.28,0,0,1.261-1.004-.374-2.032,0,0-.677-.351-1.004.07,0,0-.244-.876.148-2.209.213-.724.374-1.462.441-2.214l.041-.459s1.168-1.192,2.944-.654c0,0,.327,5.793,1.425,7.148,1.098,1.354,3.924.513,3.924.513,0,0,1.682-.49.514-1.448,0,0-.584-.958-1.098-.607,0,0-.42-.351-.747-.257l.178-4.745c.005-.148.042-.292.11-.423.216-.423.716-1.466.88-2.354,0,0,1.818-1.091,2.353-5.196.123-.944.096-1.899-.016-2.844-.031-.26-.036-.604.032-1.032l-.015-.323-.013-.299s-.192-1.729.185-2.056c.377-.327.02-.724.02-.724M4.783,73.129c-.008.08-.126,3.788-.075,4.445.023.289-.293,1.086-.352,1.252,0,0-1.183.482-1.883-2.38-.701-2.861,2.546-4.38,2.546-4.38-.117.34-.197.695-.236,1.063M10.834,81.348c-1.032-1.785.877-3.199.877-3.199l.22,3.833c-.282-.515-1.097-.634-1.097-.634"/>
  <path class="st12" d="M26.263,61.461c.354-.478-.073-1.79-.073-1.79.23-1.276-.627-2.111-.627-2.111-.04-.539-.912-1.074-.912-1.074.117-.654-1.067-.584-1.067-.584-.015-.444-.265-.495-.265-.495-.303.136-.654-.159-.654-.159-.21-.538-1.214-.281-1.214-.281,0,0-1.822-.841-3.294.444-.955-.101-2.243,1.612-2.243,1.612-1.463.65-1.504,2.336-1.504,2.336-.547-.093-.388,1.448-.388,1.448-1.321.365-1.932,2.796-.985,4.78.05.106.071.224.05.339-.051.28-.21.821-.7,1.282,0,0-.613.766-3.935,1.673-.585.16-1.128.419-1.608.757l-.101.074s-3.031,1.052-4.527,3.524c-.857,1.416-.974,3.175-.336,4.702.101.243.223.461.369.622,0,0-.724,1.589-.35,2.313l.49-.771s-.467,2.243,1.145,2.64l-.537-1.542s.514,1.386,1.553,1.315c.135.37.291.631.402.789.081.115.212.185.353.185h2.818c.165,0,.313-.098.377-.25.177-.417.336-1.24-.948-1.549,0,0-1.081-.084-.962-1.95.012-.182.086-.357.209-.494l1.687-1.877-.225,1.098s-.709.654-.219,1.752c.491,1.098.468,2.639,1.916,2.873s2.009-.127,2.009-.127c0,0,.07,1.015,1.471.921,1.402-.093,2.897-.28,2.897-.28,0,0,1.261-1.004-.374-2.032,0,0-.677-.351-1.004.07,0,0-.244-.876.148-2.209.213-.724.374-1.462.441-2.214l.041-.459s1.168-1.192,2.944-.654c0,0,.327,5.793,1.425,7.148,1.098,1.354,3.924.513,3.924.513,0,0,1.682-.49.514-1.448,0,0-.584-.958-1.098-.607,0,0-.42-.351-.747-.257l.178-4.745c.005-.148.042-.292.11-.423.216-.423.716-1.466.88-2.354,0,0,1.818-1.091,2.353-5.196.123-.944.096-1.899-.016-2.844-.031-.26-.036-.604.032-1.032l-.015-.323-.013-.299s-.192-1.729.185-2.056c.377-.327.02-.724.02-.724ZM4.783,73.129c-.008.08-.126,3.788-.075,4.445.023.289-.293,1.086-.352,1.252,0,0-1.183.482-1.883-2.38-.701-2.861,2.546-4.38,2.546-4.38-.117.34-.197.695-.236,1.063ZM10.834,81.348c-1.032-1.785.877-3.199.877-3.199l.22,3.833c-.282-.515-1.097-.634-1.097-.634Z"/>
  <path class="st9" d="M8.572,72.183s-.405,1.082-.187,2.141c.218,1.059.412,2.36.101,3.045"/>
  <path class="st9" d="M12.589,72.518s-1.869.654-1.028,3.675c0,0,.475,3.255.467,6.736"/>
  <path class="st9" d="M8.621,75.431s.822-.079,1.383.513c.375.395,1.639.865,1.639.865"/>
  <path class="st9" d="M19.746,82.929c-.025.034,1.226.636,1.572-.525,0,0,.233-.392.701-.096,0,0,.132-.967.973-.688"/>
  <path class="st9" d="M12.589,83.733s.184-2.572,1.316-1.529c0,0,.163-.614,1.074-.502,0,0,.846,1.073.223,2.031"/>
  <path class="st9" d="M17.825,69.17c-.128,2.387-1.218,4.5-1.218,4.5,0,0-.451,1.402-1.705,2.087"/>
  <line class="st9" x1="15.494" y1="76.703" x2="15.587" y2="75.25"/>
  <path class="st9" d="M18.53,76.108s2.788-.452,5.186-2.289"/>
  <path class="st9" d="M15.853,81.527s.995,1.215.177,2.115"/>
  <path class="st9" d="M22.019,82.308s1.242.621.487,1.59"/>
  <path class="st9" d="M23.21,81.749s.841,1.519.374,2.061"/>
  <path class="st9" d="M24.192,82.049s.378,1.045.175,1.505"/>
  <path class="st9" d="M25.97,64.918s-.144,1.246-.611,1.433c0,0,.05,1.604-.207,2.059,0,0,0-.455-.408-1.133,0,0,.292,2.056.093,2.43,0,0-.374.455-.315.829l-.199-.327s-.257,1.425-.572,1.857c0,0-.491-1.518-.257-1.752l-.479.467s-.409.397-.385.841c0,0-.351-.42-.397-.806l-.129.608s-.21-.339-.362-.479c0,0,.093.35-.152.817,0,0,.078-1.156-.533-1.144,0,0-.179.315-.343.245,0,0,.012-.432-.187-.701-.198-.268-.327,1.098-.327,1.098,0,0-.376-.234-.095-.794,0,0-.232-.175-.454.514l-.175-.281s-.572.83-.362,1.227c0,0-.362.07-.163-.97,0,0-.281-.035-.316.094,0,0-.128-.257.094-.456l-.339.316s.362-.608.14-1.145c0,0-.152.607-.409.561,0,0,.166-1.063-.296-1.157,0,0-.615-.233-.848-1.121,0,0-.211.199-.152.631,0,0-.444-.444-.701-.362,0,0-.257.409.047.852,0,0-.818-.14-.502-1.284,0,0-.316-.514-.701-.327,0,0-.514-.911.058-1.39,0,0-.364.245-.468.362s-.182-.07-.149-1.121c0,0-.341.233-.364.467,0,0-.631-.444-.514-2.313l-.654,1.191"/>
  <path class="st9" d="M21.357,66.927c-.491.327-.584-.14-.584-.14l-.397.14v-.584c-.149,0-.27-.121-.27-.27v-.193c0-.176-.038-.351-.104-.514-.254-.623-.233-1.125-.233-1.125.116-.865-.37-.818-.37-.818-.113-.514-.355-.257-.355-.257-.303-.257-.116-1.191-.116-1.191-.047-.678-.654-.21-.654-.21,0-.351.77-.748.77-.748-.075-.135-.197-.239-.343-.29l-.004-.002c-.11-.038-.226-.058-.343-.058h-.517l.587-.336-.143-.071c-.082-.04-.172-.061-.263-.061h-.181l.18-.467-1.332.304c.397-.444,1.472-.705,1.472-.705-.537-.775-1.752-.276-1.752-.276.701-1.121,2.266-.514,2.266-.514,0,0,.015-.191-.834-.434-.848-.243.6-.057,1.044.107,0,0,.14-.117-.218-.288,0,0-.421-.265.483-.109,0,0,.732-.047.56-.467l-.307-.14s.307-.187.759,0c0,0,.623.311.872.046,0,0,.545.078.561-.031,0,0,.155-.202-.218-.483,0,0,.726-.151.866.581,0,0,.177-.051.691.237,0,0,.856-.008,1.012.428,0,0,.436.109.327.28,0,0,.078.514.436.514,0,0,.498.53.296,1.013l-.125.155.437.109s.404.452,0,1.122c0,0-.031-.032.179.311.116.189,0,.467,0,.467,0,0-.086,1.246-1.223,1.604-.852.269-.925.791-.909,1.035.008.112-.024.222-.084.316-.091.142-.237.337-.424.471l.265.343s-.063.218-.203.124l.094.312s-.281.125-.281.436c0,0-.109.234-.342.234,0,0-.016.451-.405.436-.262.223.099.049-.639.186,0,0-.28.125.25-.373,0,0-.234-.156-.234-.156Z"/>
  <path class="st9" d="M25.466,60.814s-.333-.824-1.094-.713c-.167.024-.336.039-.504.022l.222.427c.132.124.246.266.339.421l.238.397.252-.059.327-.035s.22-.46.22-.46Z"/>
  <path class="st9" d="M22.852,65.386l-.21.023-.029-.268-.123-.222c-.146,0-.289-.036-.418-.104l-.026-.013-.033-.028c-.086-.074-.159-.163-.215-.262l-.093-.163-.161.091h-.736v-.109c0-.284.043-.566.126-.838l.014-.046.117-.619.058-.677s-.151-.526.748-.783c.899-.257,1.997.234,1.997.234.269.179.549-.14.549-.14l.175.187s-.216.315.155.818c.07.095.09.218.047.328-.103.262-.254.712-.525.769"/>
  <path class="st9" d="M24.615,62.653s-.304-.339-.456.058c0,0-.619-.684-.969-.675,0,0,.117-.317-.222-.352s-.385.42-.385.42l-.292.899v.164l.268-.129.491-.7.257.151.146.141.13.023.168.07.117.187.058.012.14.07s-.351.513-.409.736c-.057.222.008.157.008.157,0,0,.822-.87.833-.987,0,0,.168-.07.117-.245Z"/>
  <path class="st9" d="M22.612,61.972s-.476.173-1.187-.408"/>
  <path class="st9" d="M21.016,64.44l.61-.818c-.059-.093-.588-.649-.588-.649"/>
  <path class="st9" d="M21.625,63.622s.409-.397.502-.28c0,0-.037.367-.211.551-.174.185.03.441.03.441l.072.117h.109l.07.094.094.046.07.07.189-.058s.318-.444.617-.561l-.059.398-.175.221-.065.187-.246.387"/>
  <path class="st36" d="M22.969,60.924c.09,0,.09-.14,0-.14s-.09.14,0,.14"/>
  <path class="st36" d="M22.642,60.597c.09,0,.09-.14,0-.14s-.09.14,0,.14"/>
  <path class="st36" d="M23.097,60.457c.09,0,.09-.14,0-.14s-.09.14,0,.14"/>
  <path class="st36" d="M23.459,60.644c.09,0,.09-.14,0-.14s-.09.14,0,.14"/>
  <path class="st36" d="M22.688,60.223c.09,0,.09-.14,0-.14s-.09.14,0,.14"/>
  <path class="st9" d="M21.891,59.006s.714-.022.8.518"/>
</svg>