<?xml version="1.0" encoding="UTF-8"?>
<!-- Generator: Adobe Illustrator 24.0.2, SVG Export Plug-In . SVG Version: 6.00 Build 0)  -->
<svg version="1.1" id="Calque_1" xmlns="http://www.w3.org/2000/svg" xmlns:xlink="http://www.w3.org/1999/xlink" x="0px" y="0px" viewBox="0 0 135 71" style="enable-background:new 0 0 135 71;" xml:space="preserve">
<style type="text/css">
	.st0{fill:#FFFFFF;stroke:#9D9D9C;stroke-width:0.7923;stroke-miterlimit:10;}
	.st1{fill:#FFFFFF;stroke:#9D9D9C;stroke-width:0.7275;stroke-miterlimit:10;}
	.st2{fill:#FFFFFF;stroke:#000000;stroke-width:1.067;stroke-miterlimit:10;}
	.st3{fill:#FFFFFF;stroke:#575756;stroke-width:0.2036;}
	.st4{enable-background:new    ;}
	.st5{fill:#575756;}
	.st6{fill:#E11683;}
	.st7{fill:none;stroke:#B2B2B2;stroke-width:0.4001;stroke-miterlimit:10;}
	.st8{fill:#B2B2B2;}
	.st9{fill:#878787;}
	.st10{fill:#575756;stroke:#575756;stroke-width:0.8555;stroke-miterlimit:10;}
	.st11{fill:#B9B8B8;}
	.st12{opacity:0.6;enable-background:new    ;}
	.st13{fill:#FFFFFF;}
	.st14{fill:none;stroke:#575756;stroke-width:0.192;stroke-linecap:round;stroke-linejoin:round;stroke-miterlimit:10;}
	.st15{fill:none;stroke:#575756;stroke-width:0.5759;stroke-linecap:round;stroke-linejoin:round;stroke-miterlimit:10;}
	.st16{fill:none;stroke:#575756;stroke-width:0.8555;stroke-miterlimit:10;}
</style>
<g id="_x3C_Groupe_x3E__jumelle">
	<polygon class="st0" points="78.9,55.2 57.8,55.2 57.8,9 104.1,9 104.1,55.2 83.3,55.2  "/>
	<rect x="104.1" y="25" class="st1" width="30.3" height="30.3"/>
	<path class="st2" d="M42.1,55.1H19.8V17.4h37.8v37.7H46.8c0,0-3.5,6.3-9.2,7.5C37.5,62.6,41,60.3,42.1,55.1z"/>
	<path class="st3" d="M79.6,5.3c0-2.7,5.2-4.8,12.8-4.8c7.6,0,12.6,2.2,12.6,4.8c0,1.6-1.2,3.1-4.7,4c-1.5,1.8-4.7,3.1-6.1,3.5   c0,0,2.5-1.8,2.6-2.9c-1.4,0.2-2.9,0.3-4.4,0.3C84.9,10.2,79.6,8,79.6,5.3z"/>
	<g class="st4">
		<path class="st5" d="M89.293,4.076c0.184,0,0.346,0.022,0.485,0.065c0.141,0.043,0.263,0.104,0.364,0.18    c0.104,0.077,0.189,0.167,0.258,0.269c0.069,0.102,0.125,0.212,0.166,0.33c0.041,0.118,0.07,0.241,0.088,0.369    c0.019,0.128,0.027,0.254,0.027,0.379v0.13c0,0.056-0.002,0.099-0.004,0.13h-2.371c0.007,0.196,0.037,0.366,0.092,0.511    s0.129,0.264,0.225,0.359c0.094,0.095,0.206,0.165,0.334,0.212c0.129,0.047,0.269,0.07,0.42,0.07c0.217,0,0.428-0.024,0.636-0.074    c0.207-0.049,0.413-0.136,0.618-0.26l0.067,0.551c-0.118,0.06-0.233,0.111-0.348,0.154c-0.114,0.042-0.228,0.077-0.341,0.104    c-0.114,0.026-0.229,0.046-0.347,0.058s-0.24,0.019-0.37,0.019c-0.213,0-0.418-0.037-0.611-0.112    c-0.194-0.075-0.365-0.185-0.512-0.331c-0.147-0.146-0.265-0.327-0.352-0.542s-0.131-0.466-0.131-0.751    c0-0.276,0.037-0.526,0.112-0.75s0.181-0.415,0.319-0.574s0.307-0.282,0.506-0.367C88.822,4.119,89.046,4.076,89.293,4.076z     M89.243,4.577c-0.245,0-0.446,0.072-0.603,0.215s-0.258,0.367-0.307,0.669h1.746c0-0.142-0.021-0.269-0.063-0.379    s-0.1-0.203-0.174-0.279s-0.164-0.132-0.266-0.17C89.475,4.596,89.363,4.577,89.243,4.577z"/>
		<path class="st5" d="M95.23,3.058c0-0.063,0.01-0.121,0.029-0.175c0.021-0.055,0.049-0.103,0.086-0.144s0.081-0.074,0.133-0.097    c0.051-0.023,0.107-0.035,0.17-0.035s0.121,0.012,0.174,0.035c0.054,0.023,0.1,0.056,0.137,0.097    c0.039,0.041,0.068,0.089,0.091,0.144s0.034,0.113,0.034,0.175s-0.012,0.121-0.034,0.175s-0.052,0.103-0.091,0.144    c-0.037,0.041-0.083,0.073-0.137,0.097c-0.053,0.023-0.111,0.035-0.174,0.035s-0.119-0.012-0.17-0.035    c-0.052-0.023-0.096-0.056-0.133-0.097s-0.064-0.089-0.086-0.144C95.24,3.178,95.23,3.12,95.23,3.058z M95.967,5.962    c0,0.107,0.001,0.233,0.004,0.379c0.004,0.146,0.008,0.293,0.014,0.442c0.006,0.149,0.013,0.292,0.021,0.427    s0.017,0.249,0.028,0.337h-0.686v-1.77c0-0.163-0.001-0.323-0.002-0.481c-0.001-0.158-0.004-0.308-0.007-0.449    c-0.003-0.141-0.009-0.272-0.015-0.394c-0.007-0.122-0.016-0.226-0.027-0.313h0.67V5.962z"/>
	</g>
	<g class="st4">
		<path class="st6" d="M99.437,18.758c-0.172,0.12-0.333,0.219-0.485,0.297c-0.151,0.078-0.299,0.139-0.441,0.184    s-0.283,0.076-0.422,0.093c-0.138,0.018-0.279,0.027-0.424,0.027c-0.316,0-0.607-0.055-0.873-0.164s-0.494-0.27-0.688-0.481    s-0.344-0.471-0.451-0.779c-0.109-0.309-0.162-0.663-0.162-1.063c0-0.401,0.059-0.759,0.178-1.075    c0.12-0.316,0.283-0.584,0.49-0.803c0.208-0.219,0.451-0.387,0.731-0.502s0.58-0.173,0.901-0.173c0.136,0,0.268,0.006,0.396,0.018    c0.128,0.012,0.256,0.035,0.385,0.068c0.128,0.034,0.259,0.081,0.393,0.142s0.274,0.141,0.422,0.239l-0.218,0.601    c-0.125-0.1-0.245-0.183-0.362-0.249c-0.117-0.065-0.232-0.117-0.347-0.153s-0.226-0.063-0.337-0.077    c-0.109-0.014-0.221-0.021-0.332-0.021c-0.254,0-0.483,0.044-0.688,0.134c-0.204,0.089-0.377,0.216-0.52,0.38    s-0.252,0.365-0.328,0.6s-0.113,0.498-0.113,0.79c0,0.307,0.035,0.583,0.107,0.828c0.073,0.245,0.178,0.453,0.313,0.626    c0.136,0.172,0.3,0.304,0.493,0.396s0.408,0.137,0.647,0.137c0.101,0,0.194-0.005,0.282-0.015c0.088-0.01,0.176-0.027,0.263-0.052    c0.087-0.025,0.175-0.057,0.265-0.097c0.089-0.04,0.185-0.091,0.287-0.153v-1.119h-1.17v-0.551h1.806V18.758z"/>
	</g>
	<g class="st4">
		<path class="st6" d="M65.002,16.812c-0.089,0.213-0.25,0.396-0.481,0.547c-0.232,0.138-0.484,0.207-0.756,0.207    c-0.357,0-0.62-0.147-0.79-0.441c-0.161-0.253-0.241-0.565-0.241-0.935c0-0.512,0.114-0.915,0.341-1.209    c0.254-0.333,0.653-0.5,1.198-0.5c0.352,0,0.595,0.1,0.729,0.3v-0.3h0.656v2.885c0.178-0.245,0.283-0.394,0.314-0.448    c0.191-0.285,0.319-0.527,0.381-0.728l0.107,0.2c-0.067,0.205-0.199,0.457-0.395,0.754c-0.076,0.107-0.147,0.21-0.214,0.311    s-0.131,0.197-0.194,0.291v3.373c0,0.801-0.107,1.44-0.321,1.917c-0.254,0.547-0.633,0.821-1.137,0.821    c-0.232,0-0.404-0.131-0.515-0.394s-0.167-0.612-0.167-1.048c0-0.321,0.044-0.704,0.134-1.148c0.08-0.374,0.187-0.744,0.321-1.109    c0.121-0.37,0.274-0.741,0.462-1.115c0.093-0.183,0.188-0.365,0.284-0.547c0.096-0.183,0.19-0.363,0.284-0.541V16.812z     M64.38,14.628c-0.317,0-0.551,0.133-0.703,0.4c-0.156,0.271-0.234,0.601-0.234,0.988c0,0.281,0.051,0.519,0.154,0.714    c0.125,0.254,0.326,0.381,0.602,0.381c0.219,0,0.401-0.069,0.549-0.207c0.111-0.107,0.196-0.247,0.254-0.421v-0.968    C65.002,14.924,64.794,14.628,64.38,14.628z M64.152,20.451c-0.111,0.338-0.194,0.663-0.248,0.975    c-0.013,0.066-0.026,0.131-0.04,0.193c-0.013,0.063-0.024,0.121-0.033,0.174c-0.018,0.169-0.027,0.256-0.027,0.26    c-0.009,0.071-0.014,0.137-0.014,0.197s0,0.112,0,0.157c0,0.316,0.042,0.57,0.127,0.761c0.084,0.191,0.211,0.287,0.381,0.287    c0.294,0,0.495-0.28,0.602-0.841c0.067-0.343,0.1-0.817,0.1-1.422v-2.678c-0.063,0.12-0.12,0.236-0.174,0.347    s-0.105,0.218-0.154,0.321c-0.098,0.182-0.154,0.298-0.167,0.347c-0.174,0.36-0.292,0.666-0.354,0.915V20.451z"/>
	</g>
	<g class="st4">
		<path class="st6" d="M129.311,31.039c-0.129,0.09-0.25,0.165-0.363,0.223c-0.113,0.058-0.225,0.104-0.332,0.138    c-0.106,0.033-0.212,0.057-0.315,0.07c-0.104,0.014-0.21,0.02-0.318,0.02c-0.237,0-0.456-0.041-0.655-0.123    c-0.199-0.082-0.371-0.202-0.516-0.361c-0.145-0.158-0.258-0.354-0.338-0.584c-0.082-0.231-0.122-0.497-0.122-0.798    c0-0.3,0.045-0.569,0.134-0.806c0.09-0.237,0.213-0.438,0.368-0.602c0.155-0.165,0.338-0.29,0.548-0.377s0.436-0.13,0.676-0.13    c0.103,0,0.201,0.005,0.298,0.014c0.097,0.009,0.192,0.026,0.288,0.052c0.096,0.025,0.195,0.06,0.295,0.106    c0.101,0.046,0.205,0.106,0.316,0.179l-0.163,0.451c-0.094-0.075-0.185-0.137-0.272-0.187s-0.174-0.087-0.26-0.115    c-0.085-0.027-0.169-0.046-0.252-0.058c-0.082-0.011-0.166-0.016-0.25-0.016c-0.19,0-0.362,0.033-0.516,0.1    c-0.152,0.067-0.283,0.162-0.39,0.286s-0.188,0.273-0.245,0.449c-0.058,0.176-0.086,0.374-0.086,0.592    c0,0.23,0.027,0.438,0.082,0.621c0.054,0.184,0.132,0.34,0.234,0.47c0.102,0.129,0.225,0.228,0.369,0.296    c0.145,0.069,0.307,0.103,0.486,0.103c0.074,0,0.146-0.004,0.211-0.011c0.066-0.008,0.133-0.021,0.197-0.039    c0.065-0.018,0.132-0.042,0.199-0.073c0.066-0.03,0.139-0.068,0.215-0.115v-0.839h-0.878v-0.413h1.354V31.039z"/>
		<path class="st6" d="M132.021,29.311v0.401h-1.431v1.302h0.663c0.249,0,0.458-0.002,0.627-0.005    c0.169-0.003,0.304-0.014,0.403-0.033v0.451h-2.207c0.019-0.1,0.029-0.245,0.033-0.435c0.003-0.189,0.004-0.408,0.004-0.655V28.86    c0-0.247-0.001-0.465-0.004-0.655c-0.004-0.189-0.015-0.334-0.033-0.435h2.133v0.414h-1.619v1.126H132.021z"/>
	</g>
	<g class="st4">
		<path class="st6" d="M108.49,29.958c-0.073,0.174-0.203,0.322-0.393,0.445c-0.188,0.112-0.393,0.168-0.613,0.168    c-0.29,0-0.504-0.119-0.642-0.358c-0.13-0.207-0.196-0.459-0.196-0.76c0-0.416,0.093-0.743,0.277-0.982    c0.207-0.271,0.531-0.407,0.973-0.407c0.287,0,0.484,0.082,0.594,0.244v-0.244h0.532v2.344c0.145-0.199,0.229-0.32,0.255-0.364    c0.156-0.231,0.26-0.429,0.311-0.591l0.086,0.163c-0.054,0.167-0.16,0.371-0.32,0.613c-0.062,0.087-0.119,0.171-0.174,0.252    c-0.055,0.081-0.107,0.16-0.157,0.236v2.74c0,0.651-0.087,1.17-0.261,1.557c-0.207,0.445-0.516,0.667-0.924,0.667    c-0.189,0-0.328-0.106-0.419-0.32c-0.091-0.214-0.136-0.498-0.136-0.852c0-0.26,0.036-0.572,0.108-0.933    c0.065-0.304,0.152-0.604,0.261-0.901c0.098-0.3,0.223-0.602,0.375-0.906c0.076-0.148,0.153-0.297,0.231-0.445    c0.077-0.148,0.155-0.295,0.231-0.44V29.958z M107.984,28.184c-0.258,0-0.447,0.108-0.57,0.326    c-0.127,0.221-0.191,0.488-0.191,0.803c0,0.228,0.042,0.421,0.125,0.581c0.102,0.206,0.266,0.309,0.49,0.309    c0.177,0,0.326-0.056,0.445-0.168c0.09-0.087,0.159-0.201,0.207-0.342v-0.787C108.49,28.425,108.321,28.184,107.984,28.184z     M107.799,32.915c-0.09,0.275-0.157,0.539-0.201,0.792c-0.01,0.054-0.021,0.106-0.032,0.157c-0.011,0.05-0.021,0.098-0.026,0.141    c-0.016,0.137-0.022,0.208-0.022,0.211c-0.007,0.058-0.011,0.111-0.011,0.16s0,0.091,0,0.127c0,0.257,0.034,0.463,0.104,0.619    c0.068,0.155,0.172,0.233,0.31,0.233c0.239,0,0.402-0.228,0.489-0.684c0.055-0.278,0.082-0.664,0.082-1.155v-2.176    c-0.051,0.098-0.099,0.191-0.143,0.282c-0.043,0.09-0.084,0.177-0.125,0.26c-0.079,0.148-0.125,0.242-0.135,0.282    c-0.142,0.293-0.238,0.541-0.289,0.743V32.915z"/>
		<path class="st6" d="M110.174,29.524c0.037,0.221,0.104,0.387,0.201,0.5c0.123,0.173,0.307,0.26,0.549,0.26    c0.319,0,0.584-0.085,0.794-0.255c0.146-0.12,0.265-0.3,0.358-0.542l0.088,0.173c-0.113,0.326-0.291,0.561-0.533,0.706    c-0.238,0.141-0.56,0.211-0.962,0.211c-0.421,0-0.712-0.128-0.875-0.385c-0.134-0.185-0.201-0.447-0.201-0.787    c0-0.416,0.089-0.743,0.267-0.982c0.206-0.271,0.52-0.407,0.939-0.407c0.316,0,0.548,0.074,0.696,0.223    c0.146,0.13,0.218,0.314,0.218,0.553c0,0.004,0,0.006,0,0.008s0,0.004,0,0.005c0,0.002,0,0.004,0,0.005c0,0.002,0,0.004,0,0.005    c0,0.002,0,0.004,0,0.006c0,0.001,0,0.003,0,0.005c0,0.001,0,0.003,0,0.005s0,0.003,0,0.005s0,0.003,0,0.005s0,0.003,0,0.005    s0,0.004,0,0.005c0,0.002,0,0.004,0,0.005c0,0.002,0,0.005,0,0.008s0,0.008,0,0.014s-0.002,0.014-0.003,0.027    c-0.002,0.013-0.003,0.024-0.003,0.036c-0.033,0.228-0.305,0.391-0.815,0.488c-0.159,0.04-0.4,0.07-0.723,0.092H110.174z     M111.474,28.878c0-0.011,0.001-0.023,0.003-0.038c0.002-0.014,0.002-0.032,0.002-0.054c0-0.163-0.06-0.304-0.18-0.423    c-0.123-0.112-0.271-0.168-0.445-0.168c-0.25,0-0.435,0.136-0.555,0.407c-0.098,0.217-0.146,0.461-0.146,0.733    c0.029-0.004,0.076-0.009,0.142-0.017c0.022,0,0.046-0.001,0.073-0.005c0.027-0.003,0.054-0.007,0.079-0.011    c0.021,0,0.046-0.002,0.073-0.005c0.027-0.004,0.053-0.007,0.078-0.011c0.033-0.004,0.086-0.009,0.158-0.017    C111.197,29.211,111.438,29.081,111.474,28.878z"/>
	</g>
	<path class="st7" d="M23.8,51.6c0,0,3.5,2.7,7.9,0"/>
	<path class="st7" d="M33.7,51.6c0,0,3.9,2.7,8.9,0"/>
	<path class="st7" d="M43.6,51.6c0,0,3.9,2.7,8.9,0"/>
	<g>
		<g class="st4">
			<path class="st6" d="M86.759,30.254c0,1.322-0.193,2.454-0.579,3.396c-0.387,0.941-0.894,1.71-1.521,2.306     c-0.628,0.596-1.343,1.035-2.146,1.315s-1.62,0.421-2.453,0.421c-0.963,0-1.919-0.166-2.867-0.496s-1.824-0.766-2.627-1.307     l0.979-2.329c0.713,0.511,1.43,0.927,2.152,1.247c0.723,0.321,1.461,0.481,2.213,0.481c0.391,0,0.822-0.07,1.295-0.21     c0.471-0.14,0.912-0.383,1.324-0.729c0.411-0.346,0.755-0.809,1.031-1.39c0.275-0.581,0.414-1.307,0.414-2.178V28     c-0.392,0.491-0.806,0.909-1.242,1.254c-0.437,0.346-0.879,0.626-1.324,0.842c-0.447,0.215-0.894,0.371-1.34,0.466     c-0.447,0.095-0.876,0.143-1.287,0.143c-0.692,0-1.359-0.12-2.002-0.361c-0.643-0.24-1.211-0.624-1.709-1.149     c-0.496-0.526-0.893-1.209-1.188-2.051s-0.444-1.858-0.444-3.05c0-1.152,0.15-2.274,0.452-3.366     c0.301-1.092,0.768-2.061,1.399-2.907c0.633-0.846,1.442-1.527,2.432-2.043c0.988-0.516,2.17-0.774,3.544-0.774     c0.452,0,0.915,0.033,1.393,0.098c0.477,0.065,0.95,0.153,1.423,0.263c0.471,0.11,0.933,0.233,1.385,0.368     c0.451,0.135,0.883,0.268,1.294,0.398V30.254z M80.813,17.558c-0.823,0-1.525,0.168-2.107,0.503     c-0.582,0.336-1.056,0.776-1.423,1.322c-0.366,0.546-0.635,1.165-0.805,1.855c-0.171,0.691-0.256,1.393-0.256,2.104     c0,0.932,0.072,1.706,0.219,2.321c0.145,0.616,0.346,1.107,0.602,1.473s0.557,0.626,0.902,0.781     c0.347,0.155,0.726,0.233,1.137,0.233c0.381,0,0.788-0.078,1.219-0.233c0.432-0.155,0.866-0.378,1.303-0.668     s0.857-0.651,1.264-1.082c0.407-0.431,0.775-0.921,1.107-1.472v-6.536c-0.241-0.09-0.497-0.173-0.768-0.248     c-0.271-0.075-0.547-0.138-0.828-0.188s-0.555-0.09-0.82-0.12C81.293,17.573,81.044,17.558,80.813,17.558z"/>
		</g>
		<g class="st4">
			<path class="st6" d="M71.666,46.684c0,0.551-0.081,1.022-0.242,1.414c-0.16,0.393-0.372,0.713-0.633,0.961     c-0.262,0.249-0.56,0.432-0.895,0.549c-0.334,0.116-0.675,0.175-1.021,0.175c-0.402,0-0.801-0.069-1.195-0.206     c-0.395-0.139-0.76-0.32-1.094-0.545l0.408-0.971c0.297,0.213,0.596,0.387,0.897,0.52c0.301,0.134,0.608,0.201,0.922,0.201     c0.162,0,0.342-0.029,0.539-0.088c0.196-0.059,0.38-0.16,0.552-0.305c0.171-0.144,0.314-0.336,0.429-0.578     c0.115-0.242,0.174-0.545,0.174-0.908v-1.158c-0.164,0.205-0.336,0.379-0.518,0.523c-0.182,0.144-0.366,0.26-0.553,0.35     c-0.186,0.09-0.372,0.154-0.558,0.194c-0.187,0.04-0.365,0.06-0.536,0.06c-0.289,0-0.567-0.05-0.834-0.15     c-0.268-0.1-0.505-0.26-0.712-0.479s-0.372-0.504-0.495-0.855c-0.124-0.35-0.185-0.773-0.185-1.27     c0-0.48,0.063-0.947,0.188-1.402s0.32-0.859,0.583-1.212c0.264-0.353,0.601-0.636,1.013-0.852     c0.411-0.215,0.903-0.322,1.478-0.322c0.188,0,0.381,0.014,0.58,0.04c0.197,0.027,0.396,0.064,0.592,0.11     c0.197,0.046,0.389,0.097,0.577,0.153s0.368,0.111,0.54,0.166V46.684z M69.188,41.394c-0.342,0-0.635,0.069-0.877,0.21     c-0.243,0.14-0.44,0.323-0.593,0.551c-0.152,0.227-0.264,0.484-0.335,0.773c-0.071,0.287-0.106,0.58-0.106,0.876     c0,0.388,0.03,0.71,0.091,0.968c0.061,0.256,0.145,0.461,0.251,0.613s0.232,0.26,0.376,0.325     c0.144,0.064,0.301,0.097,0.473,0.097c0.159,0,0.328-0.032,0.508-0.097c0.18-0.065,0.361-0.157,0.543-0.278     s0.357-0.271,0.527-0.451c0.168-0.18,0.322-0.384,0.461-0.613v-2.724c-0.102-0.038-0.207-0.071-0.32-0.103     s-0.229-0.059-0.346-0.078c-0.117-0.021-0.23-0.038-0.342-0.051C69.388,41.399,69.284,41.394,69.188,41.394z"/>
		</g>
		<g class="st4">
			<path class="st8" d="M75.154,41.631c0.273,0,0.517,0.033,0.727,0.098c0.211,0.065,0.394,0.156,0.547,0.271     c0.154,0.115,0.283,0.249,0.387,0.402c0.104,0.154,0.187,0.318,0.248,0.496c0.063,0.177,0.106,0.361,0.133,0.553     c0.027,0.192,0.041,0.382,0.041,0.568v0.195c0,0.084-0.002,0.149-0.006,0.195h-3.557c0.01,0.295,0.057,0.55,0.139,0.768     c0.081,0.217,0.193,0.396,0.336,0.537c0.142,0.143,0.309,0.248,0.502,0.318c0.191,0.07,0.401,0.105,0.629,0.105     c0.324,0,0.643-0.037,0.953-0.11c0.312-0.073,0.621-0.204,0.928-0.391l0.102,0.827c-0.178,0.09-0.352,0.166-0.522,0.23     c-0.171,0.063-0.341,0.114-0.512,0.154c-0.171,0.041-0.344,0.069-0.519,0.088c-0.176,0.019-0.361,0.027-0.555,0.027     c-0.321,0-0.627-0.056-0.918-0.168c-0.291-0.111-0.547-0.277-0.768-0.496c-0.221-0.218-0.396-0.489-0.527-0.813     c-0.131-0.324-0.195-0.7-0.195-1.127c0-0.414,0.056-0.789,0.168-1.125c0.111-0.336,0.271-0.623,0.479-0.861     s0.46-0.422,0.758-0.551S74.783,41.631,75.154,41.631z M75.078,42.383c-0.367,0-0.668,0.107-0.902,0.322     c-0.234,0.216-0.389,0.551-0.462,1.004h2.619c0-0.213-0.03-0.402-0.093-0.568c-0.063-0.164-0.148-0.305-0.261-0.418     s-0.245-0.198-0.399-0.255C75.427,42.411,75.26,42.383,75.078,42.383z"/>
			<path class="st8" d="M81.37,41.631c0.535,0,0.944,0.175,1.229,0.523c0.284,0.35,0.426,0.867,0.426,1.555v3.131h-0.928v-2.754     c0-0.314-0.021-0.573-0.063-0.777c-0.042-0.203-0.104-0.364-0.186-0.482c-0.082-0.119-0.186-0.201-0.312-0.248     s-0.273-0.07-0.444-0.07c-0.18,0-0.356,0.043-0.529,0.127c-0.172,0.086-0.33,0.195-0.474,0.331s-0.271,0.288-0.382,0.458     c-0.109,0.171-0.191,0.341-0.246,0.512v2.904h-0.928v-3.08c0-0.494-0.027-0.912-0.082-1.254     c-0.056-0.343-0.111-0.601-0.168-0.774h0.902c0.02,0.054,0.04,0.122,0.061,0.208c0.02,0.085,0.038,0.174,0.055,0.268     c0.018,0.094,0.032,0.186,0.045,0.275l0.041,0.226c0.317-0.38,0.639-0.655,0.963-0.823C80.676,41.716,81.016,41.631,81.37,41.631     z"/>
			<path class="st8" d="M84.186,44.311c0-0.431,0.064-0.813,0.195-1.145s0.307-0.612,0.527-0.842c0.221-0.229,0.478-0.4,0.771-0.518     c0.295-0.117,0.607-0.176,0.939-0.176c0.344,0,0.659,0.059,0.945,0.176c0.285,0.117,0.531,0.289,0.737,0.518     c0.206,0.229,0.365,0.51,0.479,0.842c0.113,0.332,0.17,0.714,0.17,1.145s-0.064,0.812-0.195,1.143     c-0.131,0.33-0.307,0.607-0.527,0.83c-0.221,0.225-0.479,0.395-0.771,0.51c-0.295,0.114-0.607,0.172-0.939,0.172     c-0.344,0-0.659-0.058-0.945-0.172c-0.285-0.115-0.531-0.285-0.737-0.51c-0.206-0.223-0.366-0.5-0.479-0.83     C84.242,45.122,84.186,44.741,84.186,44.311z M85.113,44.311c0,0.291,0.035,0.551,0.105,0.781s0.17,0.426,0.299,0.584     s0.281,0.279,0.459,0.363c0.177,0.083,0.375,0.125,0.592,0.125c0.201,0,0.39-0.042,0.566-0.125     c0.178-0.084,0.332-0.205,0.465-0.363c0.132-0.158,0.235-0.354,0.311-0.584c0.076-0.23,0.113-0.49,0.113-0.781     c0-0.293-0.035-0.557-0.105-0.789c-0.07-0.231-0.17-0.429-0.299-0.591c-0.129-0.161-0.282-0.285-0.461-0.37     c-0.18-0.086-0.376-0.128-0.59-0.128c-0.204,0-0.395,0.042-0.572,0.128c-0.178,0.085-0.331,0.209-0.461,0.37     c-0.131,0.162-0.234,0.359-0.309,0.591C85.15,43.754,85.113,44.018,85.113,44.311z"/>
			<path class="st8" d="M91.812,46.965c-1.07,0-1.605-0.718-1.605-2.153v-1.478c0-0.16-0.001-0.306-0.003-0.436     c-0.002-0.131-0.006-0.256-0.012-0.379c-0.008-0.121-0.018-0.246-0.031-0.373c-0.013-0.127-0.031-0.265-0.055-0.415h1.029v2.78     c0,0.283,0.014,0.527,0.042,0.732c0.028,0.206,0.076,0.375,0.144,0.506c0.066,0.133,0.154,0.23,0.263,0.293     c0.108,0.064,0.243,0.096,0.403,0.096c0.148,0,0.305-0.045,0.473-0.133c0.167-0.088,0.326-0.201,0.479-0.338     s0.291-0.288,0.416-0.453c0.126-0.166,0.223-0.324,0.289-0.479v-1.402c0-0.164,0-0.311-0.002-0.443     c-0.002-0.132-0.006-0.258-0.014-0.378c-0.006-0.12-0.016-0.242-0.029-0.366c-0.014-0.123-0.031-0.262-0.055-0.415h1.027v2.854     c0,0.488,0.028,0.914,0.084,1.279c0.055,0.366,0.136,0.691,0.242,0.975h-0.853c-0.023-0.057-0.048-0.123-0.075-0.2     s-0.053-0.159-0.078-0.245c-0.024-0.088-0.048-0.178-0.07-0.273c-0.021-0.096-0.039-0.189-0.053-0.283     c-0.304,0.371-0.617,0.651-0.939,0.842C92.504,46.87,92.166,46.965,91.812,46.965z"/>
		</g>
		<g class="st4">
			<path class="st9" d="M91.279,49.117h2.268l-1.586,3.539l-0.448-0.189l1.281-2.871h-1.515V49.117z"/>
			<path class="st9" d="M95.421,49.072h0.206v1.963h0.391v0.426h-0.391v1.154h-0.489v-1.154h-1.483v-0.215L95.421,49.072z      M95.138,51.035v-1.014l-0.812,1.014H95.138z"/>
			<path class="st9" d="M98.502,49.076c0.215,0,0.398,0.078,0.551,0.23c0.152,0.154,0.229,0.339,0.229,0.555     c0,0.213-0.076,0.396-0.229,0.551c-0.154,0.153-0.338,0.23-0.551,0.23c-0.215,0-0.398-0.077-0.551-0.23     c-0.153-0.154-0.23-0.338-0.23-0.551c0-0.216,0.076-0.4,0.229-0.555C98.102,49.154,98.285,49.076,98.502,49.076z M100.276,49.066     h0.388l-2.305,3.589h-0.387L100.276,49.066z M98.495,49.457c-0.112,0-0.207,0.04-0.286,0.119     c-0.08,0.079-0.119,0.174-0.119,0.285c0,0.11,0.04,0.205,0.12,0.283s0.175,0.117,0.285,0.117c0.112,0,0.207-0.039,0.286-0.117     c0.08-0.078,0.119-0.173,0.119-0.283c0-0.113-0.039-0.209-0.117-0.287S98.608,49.457,98.495,49.457z M100.156,51.093     c0.213,0,0.396,0.076,0.551,0.229c0.153,0.152,0.23,0.336,0.23,0.549c0,0.215-0.076,0.396-0.229,0.545s-0.337,0.225-0.552,0.225     c-0.217,0-0.402-0.075-0.555-0.225c-0.153-0.149-0.229-0.33-0.229-0.545s0.077-0.398,0.23-0.551S99.94,51.093,100.156,51.093z      M100.15,51.473c-0.109,0-0.203,0.04-0.281,0.118c-0.077,0.078-0.115,0.172-0.115,0.282c0,0.111,0.038,0.207,0.115,0.285     c0.078,0.08,0.172,0.119,0.281,0.119c0.113,0,0.209-0.039,0.288-0.117c0.078-0.078,0.118-0.174,0.118-0.287     c0-0.111-0.04-0.206-0.118-0.283C100.359,51.512,100.264,51.473,100.15,51.473z"/>
		</g>
	</g>
	<g>
		<g class="st4">
			<path class="st6" d="M118.217,39.455c0,0.478-0.07,0.887-0.209,1.227c-0.141,0.34-0.323,0.617-0.549,0.832     c-0.227,0.216-0.485,0.374-0.775,0.475c-0.29,0.102-0.585,0.152-0.886,0.152c-0.349,0-0.693-0.06-1.036-0.179     c-0.342-0.12-0.658-0.276-0.947-0.472l0.353-0.842c0.257,0.186,0.517,0.335,0.777,0.451c0.261,0.115,0.527,0.174,0.799,0.174     c0.142,0,0.298-0.025,0.468-0.076s0.33-0.139,0.479-0.264s0.272-0.292,0.372-0.502c0.1-0.209,0.149-0.472,0.149-0.787v-1.004     c-0.141,0.178-0.291,0.329-0.448,0.453c-0.157,0.125-0.317,0.227-0.479,0.305s-0.323,0.134-0.483,0.168     c-0.162,0.034-0.316,0.052-0.465,0.052c-0.25,0-0.491-0.044-0.723-0.13c-0.232-0.088-0.438-0.226-0.617-0.416     c-0.18-0.189-0.322-0.437-0.43-0.74s-0.16-0.671-0.16-1.102c0-0.416,0.055-0.82,0.163-1.215s0.276-0.745,0.505-1.05     s0.521-0.551,0.879-0.738c0.356-0.186,0.783-0.279,1.279-0.279c0.163,0,0.33,0.012,0.503,0.035     c0.172,0.023,0.343,0.055,0.514,0.095c0.171,0.04,0.337,0.084,0.5,0.133s0.319,0.097,0.468,0.144V39.455z M116.069,34.871     c-0.297,0-0.551,0.061-0.761,0.182c-0.211,0.121-0.381,0.28-0.514,0.478s-0.229,0.42-0.291,0.669     c-0.062,0.25-0.092,0.504-0.092,0.76c0,0.337,0.025,0.616,0.078,0.839c0.053,0.222,0.125,0.399,0.218,0.532     c0.093,0.131,0.201,0.226,0.326,0.281c0.125,0.057,0.262,0.084,0.41,0.084c0.138,0,0.284-0.027,0.44-0.084     c0.156-0.056,0.313-0.137,0.471-0.241c0.157-0.104,0.309-0.235,0.456-0.391c0.146-0.155,0.28-0.333,0.399-0.532v-2.36     c-0.087-0.032-0.18-0.062-0.277-0.089s-0.197-0.05-0.299-0.068s-0.2-0.033-0.297-0.043     C116.242,34.876,116.152,34.871,116.069,34.871z"/>
			<path class="st6" d="M122.076,33.948c0.297,0,0.559,0.035,0.787,0.106c0.229,0.07,0.426,0.168,0.593,0.293     c0.167,0.125,0.306,0.27,0.419,0.437c0.111,0.167,0.201,0.346,0.269,0.537c0.067,0.192,0.115,0.392,0.144,0.6     c0.029,0.208,0.044,0.414,0.044,0.616v0.212c0,0.09-0.001,0.16-0.005,0.211h-3.854c0.01,0.318,0.061,0.596,0.148,0.83     c0.09,0.236,0.211,0.43,0.365,0.584c0.153,0.153,0.334,0.268,0.543,0.344s0.436,0.114,0.682,0.114     c0.352,0,0.696-0.04,1.033-0.119s0.672-0.221,1.006-0.423l0.108,0.895c-0.192,0.098-0.38,0.182-0.565,0.25     c-0.185,0.068-0.369,0.125-0.555,0.168c-0.185,0.043-0.372,0.075-0.563,0.096c-0.189,0.02-0.391,0.029-0.6,0.029     c-0.349,0-0.68-0.061-0.995-0.182s-0.593-0.301-0.832-0.537c-0.239-0.237-0.429-0.531-0.57-0.882s-0.212-0.758-0.212-1.221     c0-0.448,0.061-0.854,0.182-1.218c0.121-0.363,0.295-0.674,0.52-0.933s0.498-0.458,0.82-0.597S121.674,33.948,122.076,33.948z      M121.994,34.762c-0.398,0-0.725,0.116-0.979,0.35s-0.42,0.596-0.5,1.087h2.838c0-0.231-0.034-0.436-0.102-0.615     c-0.066-0.179-0.161-0.33-0.282-0.453c-0.122-0.123-0.266-0.215-0.433-0.277C122.371,34.793,122.189,34.762,121.994,34.762z"/>
		</g>
		<g class="st4">
			<path class="st8" d="M108.373,46.697c0-0.207-0.002-0.399-0.005-0.576s-0.011-0.34-0.022-0.487     c-0.011-0.147-0.027-0.282-0.05-0.402s-0.052-0.228-0.091-0.321h0.603c0.024,0.059,0.05,0.141,0.073,0.246     c0.025,0.105,0.045,0.235,0.061,0.389c0.078-0.102,0.164-0.197,0.256-0.283c0.093-0.088,0.191-0.161,0.295-0.223     c0.104-0.061,0.213-0.109,0.328-0.144c0.114-0.034,0.234-0.052,0.359-0.052c0.189,0,0.362,0.042,0.52,0.125     c0.157,0.084,0.291,0.201,0.401,0.352s0.196,0.328,0.258,0.533c0.062,0.207,0.092,0.432,0.092,0.677     c0,0.284-0.04,0.542-0.12,0.772s-0.189,0.428-0.326,0.59s-0.299,0.287-0.483,0.375s-0.383,0.133-0.593,0.133     c-0.089,0-0.173-0.01-0.252-0.027s-0.156-0.042-0.23-0.073c-0.075-0.031-0.149-0.069-0.223-0.115     c-0.074-0.046-0.15-0.097-0.23-0.151v0.784c0,0.134,0.002,0.254,0.004,0.362c0.004,0.107,0.01,0.207,0.016,0.299     c0.007,0.091,0.016,0.176,0.027,0.252c0.011,0.076,0.023,0.15,0.036,0.223h-0.702V46.697z M109.928,47.85     c0.119,0,0.232-0.028,0.34-0.084c0.108-0.056,0.204-0.137,0.288-0.242c0.083-0.105,0.15-0.234,0.2-0.384     c0.051-0.15,0.076-0.32,0.076-0.509c0-0.186-0.018-0.354-0.053-0.503c-0.034-0.15-0.085-0.278-0.152-0.384     c-0.066-0.105-0.147-0.188-0.242-0.246c-0.095-0.058-0.202-0.086-0.322-0.086c-0.096,0-0.194,0.021-0.295,0.063     c-0.1,0.043-0.197,0.105-0.293,0.188c-0.094,0.082-0.184,0.186-0.266,0.309s-0.154,0.266-0.217,0.426v1.052     c0.113,0.08,0.212,0.146,0.295,0.198c0.084,0.053,0.16,0.094,0.23,0.124c0.068,0.03,0.135,0.051,0.198,0.062     C109.779,47.844,109.85,47.85,109.928,47.85z"/>
			<path class="st8" d="M112.287,43.826c0-0.063,0.01-0.121,0.029-0.176c0.021-0.055,0.049-0.103,0.086-0.144     c0.036-0.041,0.08-0.073,0.132-0.097s0.108-0.035,0.171-0.035s0.12,0.012,0.174,0.035c0.053,0.023,0.099,0.056,0.137,0.097     s0.068,0.089,0.09,0.144c0.023,0.055,0.034,0.113,0.034,0.176s-0.011,0.12-0.034,0.175c-0.021,0.055-0.052,0.103-0.09,0.144     s-0.084,0.073-0.137,0.097c-0.054,0.023-0.111,0.035-0.174,0.035s-0.119-0.012-0.171-0.035s-0.096-0.056-0.132-0.097     c-0.037-0.041-0.065-0.089-0.086-0.144C112.297,43.946,112.287,43.889,112.287,43.826z M113.022,46.73     c0,0.107,0.001,0.233,0.005,0.379c0.004,0.146,0.008,0.293,0.014,0.442s0.012,0.292,0.02,0.427     c0.008,0.137,0.018,0.249,0.029,0.338h-0.686v-1.77c0-0.162-0.002-0.322-0.002-0.48c-0.002-0.158-0.004-0.309-0.008-0.449     c-0.002-0.142-0.008-0.273-0.014-0.395c-0.008-0.121-0.016-0.225-0.027-0.313h0.669V46.73z"/>
		</g>
		<g class="st4">
			<path class="st6" d="M117.805,48.212c0,0.367-0.055,0.682-0.162,0.943c-0.106,0.262-0.248,0.476-0.422,0.641     s-0.373,0.287-0.596,0.365c-0.223,0.077-0.45,0.116-0.682,0.116c-0.268,0-0.533-0.045-0.796-0.137     c-0.264-0.092-0.507-0.213-0.729-0.363l0.271-0.646c0.197,0.141,0.396,0.257,0.598,0.346s0.406,0.134,0.615,0.134     c0.108,0,0.229-0.02,0.359-0.059s0.254-0.106,0.367-0.202c0.115-0.096,0.21-0.225,0.287-0.387     c0.076-0.161,0.115-0.363,0.115-0.605v-0.771c-0.109,0.137-0.225,0.252-0.346,0.349s-0.244,0.174-0.367,0.233     c-0.125,0.061-0.248,0.104-0.373,0.13c-0.123,0.026-0.242,0.04-0.357,0.04c-0.191,0-0.377-0.034-0.556-0.101     c-0.179-0.067-0.337-0.173-0.475-0.319s-0.248-0.336-0.33-0.57c-0.083-0.233-0.124-0.516-0.124-0.847     c0-0.319,0.043-0.632,0.126-0.935c0.083-0.304,0.214-0.572,0.389-0.809c0.176-0.234,0.401-0.424,0.675-0.566     c0.275-0.145,0.604-0.215,0.985-0.215c0.126,0,0.255,0.008,0.387,0.026s0.265,0.042,0.396,0.073s0.259,0.064,0.385,0.102     c0.125,0.038,0.244,0.075,0.359,0.111V48.212z M116.152,44.686c-0.229,0-0.424,0.047-0.585,0.14s-0.294,0.216-0.396,0.367     s-0.176,0.323-0.223,0.516c-0.048,0.192-0.072,0.387-0.072,0.585c0,0.258,0.021,0.473,0.061,0.645     c0.041,0.171,0.097,0.307,0.168,0.408c0.07,0.102,0.154,0.174,0.251,0.217c0.097,0.044,0.201,0.065,0.315,0.065     c0.105,0,0.219-0.021,0.339-0.065c0.12-0.043,0.24-0.104,0.361-0.186c0.122-0.08,0.238-0.181,0.352-0.301     c0.112-0.119,0.216-0.256,0.308-0.408v-1.815c-0.067-0.025-0.139-0.048-0.214-0.069c-0.075-0.021-0.151-0.038-0.229-0.052     c-0.078-0.015-0.154-0.025-0.229-0.034C116.285,44.689,116.217,44.686,116.152,44.686z"/>
			<path class="st6" d="M120.773,43.977c0.229,0,0.43,0.026,0.605,0.08c0.176,0.055,0.328,0.13,0.456,0.227     c0.128,0.096,0.235,0.207,0.321,0.336c0.087,0.127,0.156,0.266,0.207,0.412c0.052,0.148,0.089,0.302,0.111,0.462     c0.021,0.159,0.033,0.317,0.033,0.474v0.162c0,0.07-0.002,0.125-0.004,0.164h-2.965c0.009,0.244,0.047,0.457,0.115,0.638     s0.162,0.331,0.28,0.448c0.118,0.119,0.258,0.207,0.418,0.266s0.335,0.088,0.524,0.088c0.271,0,0.535-0.031,0.795-0.092     c0.259-0.062,0.517-0.17,0.773-0.326l0.084,0.689c-0.148,0.074-0.293,0.139-0.436,0.191s-0.284,0.096-0.426,0.129     c-0.143,0.033-0.287,0.059-0.434,0.074c-0.146,0.015-0.3,0.022-0.461,0.022c-0.268,0-0.523-0.047-0.766-0.14     c-0.242-0.094-0.456-0.231-0.64-0.414c-0.185-0.182-0.331-0.408-0.439-0.678s-0.163-0.582-0.163-0.939     c0-0.344,0.047-0.656,0.141-0.937s0.227-0.519,0.398-0.718c0.174-0.199,0.384-0.352,0.632-0.459S120.463,43.977,120.773,43.977z      M120.71,44.602c-0.307,0-0.558,0.09-0.753,0.27s-0.322,0.459-0.385,0.837h2.184c0-0.179-0.026-0.336-0.078-0.474     c-0.051-0.138-0.124-0.254-0.217-0.349c-0.094-0.095-0.205-0.165-0.333-0.213S120.86,44.602,120.71,44.602z"/>
		</g>
		<g class="st4">
			<path class="st8" d="M123.3,46.631c0-0.287,0.044-0.542,0.13-0.764c0.088-0.221,0.205-0.408,0.352-0.561     c0.147-0.152,0.318-0.268,0.516-0.346c0.195-0.078,0.404-0.117,0.625-0.117c0.229,0,0.439,0.039,0.631,0.117     c0.19,0.078,0.354,0.193,0.491,0.346c0.138,0.152,0.243,0.34,0.319,0.561c0.076,0.222,0.114,0.477,0.114,0.764     s-0.044,0.541-0.131,0.761s-0.204,0.405-0.351,0.554c-0.147,0.149-0.319,0.263-0.516,0.34c-0.196,0.076-0.404,0.115-0.625,0.115     c-0.23,0-0.44-0.039-0.631-0.115c-0.191-0.077-0.354-0.19-0.492-0.34c-0.137-0.148-0.243-0.334-0.318-0.554     C123.338,47.172,123.3,46.918,123.3,46.631z M123.918,46.631c0,0.193,0.023,0.367,0.07,0.521s0.113,0.283,0.199,0.389     c0.086,0.106,0.188,0.187,0.307,0.242c0.117,0.056,0.25,0.083,0.395,0.083c0.134,0,0.26-0.027,0.378-0.083     s0.222-0.136,0.31-0.242c0.088-0.105,0.156-0.235,0.207-0.389s0.075-0.327,0.075-0.521c0-0.196-0.023-0.371-0.07-0.526     c-0.046-0.155-0.112-0.286-0.198-0.394c-0.086-0.108-0.189-0.191-0.309-0.248s-0.25-0.084-0.393-0.084     c-0.137,0-0.264,0.027-0.381,0.084c-0.119,0.057-0.221,0.14-0.309,0.248c-0.087,0.107-0.155,0.238-0.205,0.394     C123.943,46.26,123.918,46.435,123.918,46.631z"/>
			<path class="st8" d="M129.199,44.844c0.357,0,0.631,0.117,0.82,0.35s0.284,0.578,0.284,1.036v2.087h-0.618V46.48     c0-0.209-0.015-0.383-0.043-0.518c-0.027-0.137-0.068-0.244-0.123-0.322c-0.055-0.079-0.124-0.135-0.207-0.166     c-0.084-0.031-0.183-0.047-0.297-0.047c-0.12,0-0.238,0.029-0.353,0.086s-0.22,0.13-0.315,0.221     c-0.097,0.09-0.182,0.191-0.255,0.305s-0.128,0.227-0.164,0.341v1.937h-0.618v-2.053c0-0.33-0.02-0.609-0.056-0.837     c-0.036-0.229-0.074-0.4-0.112-0.517h0.602c0.014,0.036,0.027,0.082,0.041,0.139s0.025,0.117,0.037,0.18     c0.011,0.063,0.021,0.123,0.029,0.184l0.027,0.15c0.211-0.254,0.426-0.438,0.643-0.55     C128.737,44.9,128.963,44.844,129.199,44.844z"/>
		</g>
		<g class="st4">
			<path class="st9" d="M127.088,50.594l0.042-0.029l0.253,0.316c-0.223,0.144-0.408,0.301-0.555,0.471     c-0.147,0.17-0.261,0.37-0.34,0.6c0.154-0.079,0.309-0.119,0.461-0.119c0.23,0,0.424,0.082,0.582,0.244     c0.157,0.163,0.236,0.363,0.236,0.6c0,0.243-0.086,0.449-0.258,0.619c-0.171,0.17-0.379,0.255-0.625,0.255     c-0.274,0-0.496-0.097-0.666-0.289c-0.169-0.192-0.254-0.444-0.254-0.757c0-0.232,0.044-0.466,0.131-0.697     c0.088-0.232,0.213-0.449,0.377-0.651C126.636,50.953,126.842,50.766,127.088,50.594z M126.398,52.383     c-0.012,0.066-0.018,0.139-0.018,0.22c0,0.164,0.049,0.3,0.144,0.405c0.096,0.105,0.218,0.158,0.367,0.158     c0.134,0,0.244-0.045,0.331-0.136s0.131-0.204,0.131-0.343c0-0.14-0.047-0.254-0.139-0.34c-0.094-0.088-0.215-0.131-0.367-0.131     c-0.078,0-0.148,0.012-0.213,0.035C126.572,52.275,126.492,52.319,126.398,52.383z"/>
			<path class="st9" d="M129.859,50.568c0.18,0,0.334,0.063,0.461,0.191c0.126,0.129,0.189,0.281,0.189,0.461     c0,0.179-0.063,0.332-0.191,0.459c-0.127,0.129-0.28,0.192-0.459,0.192c-0.178,0-0.331-0.063-0.459-0.192     c-0.127-0.127-0.191-0.28-0.191-0.459c0-0.18,0.064-0.332,0.191-0.461C129.527,50.632,129.68,50.568,129.859,50.568z      M131.339,50.56h0.323l-1.92,2.99h-0.324L131.339,50.56z M129.854,50.885c-0.093,0-0.173,0.033-0.239,0.1     c-0.065,0.065-0.098,0.145-0.098,0.238c0,0.092,0.033,0.17,0.1,0.234c0.066,0.065,0.146,0.098,0.237,0.098     c0.093,0,0.173-0.032,0.239-0.098c0.065-0.064,0.099-0.143,0.099-0.234c0-0.095-0.032-0.174-0.099-0.24     C130.029,50.918,129.949,50.885,129.854,50.885z M131.238,52.248c0.178,0,0.332,0.063,0.459,0.191     c0.129,0.127,0.192,0.279,0.192,0.457s-0.063,0.33-0.19,0.454c-0.128,0.124-0.281,0.187-0.461,0.187     c-0.181,0-0.335-0.063-0.462-0.187c-0.128-0.124-0.19-0.276-0.19-0.454c0-0.18,0.063-0.332,0.191-0.459     S131.059,52.248,131.238,52.248z M131.234,52.564c-0.092,0-0.17,0.033-0.234,0.098c-0.064,0.066-0.098,0.145-0.098,0.236     s0.033,0.172,0.098,0.238c0.064,0.065,0.143,0.098,0.234,0.098c0.094,0,0.174-0.032,0.24-0.098     c0.064-0.064,0.098-0.145,0.098-0.238s-0.033-0.172-0.098-0.236C131.408,52.598,131.328,52.564,131.234,52.564z"/>
		</g>
	</g>
	<g>
		<path class="st10" d="M40.5,36.5c0,1-0.1,1.9-0.3,2.6c-0.2,0.7-0.5,1.3-0.8,1.7c-0.4,0.4-0.8,0.7-1.3,0.9C37.5,41.9,37,42,36.3,42    c-0.2,0-0.3,0-0.5-0.1c-0.2,0-0.4-0.1-0.7-0.1c-0.2-0.1-0.4-0.1-0.7-0.2c-0.2-0.1-0.4-0.2-0.6-0.3l0.4-1.8    c0.1,0.1,0.3,0.2,0.5,0.3s0.4,0.2,0.6,0.2c0.2,0.1,0.4,0.1,0.6,0.1c0.2,0,0.4,0.1,0.5,0.1c0.3,0,0.6-0.1,0.8-0.2    c0.2-0.1,0.5-0.3,0.6-0.5c0.2-0.2,0.3-0.6,0.4-0.9c0.1-0.4,0.1-0.8,0.1-1.4V31c0-0.5,0-1.1,0-1.6s0-1,0-1.5s0-0.9-0.1-1.3    c0-0.4-0.1-0.7-0.1-1h2.2v10.9H40.5z M38,21.9c0-0.2,0-0.4,0.1-0.6s0.2-0.3,0.3-0.5c0.1-0.1,0.3-0.2,0.4-0.3    c0.2-0.1,0.4-0.1,0.6-0.1c0.2,0,0.4,0,0.6,0.1c0.2,0.1,0.3,0.2,0.5,0.3c0.1,0.1,0.2,0.3,0.3,0.5s0.1,0.4,0.1,0.6s0,0.4-0.1,0.6    s-0.2,0.3-0.3,0.5c-0.1,0.1-0.3,0.2-0.5,0.3c-0.2,0.1-0.4,0.1-0.6,0.1c-0.2,0-0.4,0-0.6-0.1c-0.2-0.1-0.3-0.2-0.4-0.3    c-0.1-0.1-0.2-0.3-0.3-0.5C38.1,22.3,38,22.1,38,21.9z"/>
	</g>
	<g class="st4">
		<path class="st5" d="M51.821,28.002c-0.116,0-0.242-0.011-0.379-0.031c-0.137-0.021-0.274-0.054-0.413-0.099    c-0.138-0.045-0.269-0.103-0.391-0.173s-0.227-0.154-0.314-0.251l0.217-0.892c0.081,0.093,0.171,0.176,0.271,0.249    c0.1,0.072,0.204,0.132,0.312,0.181c0.108,0.048,0.219,0.085,0.333,0.111s0.228,0.039,0.341,0.039    c0.177,0,0.339-0.031,0.488-0.094c0.148-0.063,0.275-0.159,0.381-0.289c0.106-0.13,0.189-0.295,0.249-0.494    s0.089-0.437,0.089-0.713v-2.386c0-0.234-0.001-0.463-0.002-0.687c-0.001-0.223-0.005-0.434-0.01-0.631    c-0.004-0.198-0.012-0.381-0.021-0.549c-0.01-0.169-0.022-0.317-0.039-0.446h0.99v4.459c0,0.501-0.051,0.924-0.154,1.268    s-0.247,0.622-0.432,0.834c-0.186,0.212-0.407,0.365-0.664,0.458C52.413,27.955,52.13,28.002,51.821,28.002z"/>
	</g>
	<g class="st4">
		<path class="st5" d="M25.577,22.204l-0.01-0.048h0.956v4.261c0.026-0.039,0.053-0.077,0.083-0.116    c0.029-0.039,0.056-0.077,0.082-0.116c0.064-0.077,0.109-0.135,0.135-0.174c0.36-0.533,0.595-0.964,0.705-1.292l0.154,0.289    c-0.129,0.341-0.319,0.704-0.57,1.089c-0.103,0.154-0.196,0.292-0.28,0.415c-0.051,0.077-0.103,0.153-0.154,0.227    c-0.052,0.074-0.103,0.153-0.155,0.236v4.869c0,1.157-0.151,2.073-0.454,2.748c-0.361,0.797-0.895,1.195-1.604,1.195    c-0.334,0-0.585-0.187-0.753-0.559c-0.167-0.379-0.251-0.88-0.251-1.504c0-0.476,0.068-1.032,0.203-1.668    c0.103-0.488,0.251-1.009,0.444-1.562c0.033-0.077,0.062-0.151,0.087-0.222c0.026-0.071,0.048-0.139,0.068-0.203    c0.032-0.071,0.061-0.142,0.087-0.212s0.052-0.138,0.077-0.202c0.071-0.167,0.132-0.318,0.184-0.453    c0.051-0.135,0.103-0.251,0.154-0.347c0.071-0.154,0.144-0.307,0.218-0.458c0.074-0.151,0.149-0.294,0.227-0.429    c0.032-0.071,0.064-0.137,0.097-0.198s0.064-0.121,0.097-0.178c0.026-0.058,0.053-0.114,0.082-0.169s0.056-0.104,0.082-0.149    v-4.174c-0.013,0.032-0.151,0.373-0.415,1.021c-0.078,0.187-0.145,0.351-0.203,0.492c-0.013,0.039-0.027,0.079-0.043,0.121    c-0.016,0.042-0.03,0.082-0.043,0.121c-0.019,0.039-0.035,0.077-0.048,0.116c-0.013,0.039-0.025,0.077-0.039,0.116l-0.154-0.289    c0.051-0.187,0.116-0.37,0.193-0.55c0.045-0.154,0.084-0.263,0.116-0.328c0.039-0.103,0.076-0.199,0.111-0.29    c0.036-0.09,0.069-0.17,0.102-0.241c0.097-0.199,0.164-0.363,0.203-0.492l0.222-0.636L25.577,22.204z M25.577,28.075    c-0.039,0.064-0.074,0.13-0.106,0.197c-0.032,0.068-0.064,0.137-0.096,0.208c-0.039,0.058-0.073,0.121-0.102,0.188    s-0.057,0.133-0.082,0.198c-0.058,0.109-0.113,0.22-0.164,0.333c-0.052,0.112-0.1,0.229-0.145,0.352    c-0.123,0.257-0.222,0.498-0.299,0.723c-0.103,0.25-0.177,0.453-0.222,0.607c-0.032,0.116-0.064,0.231-0.097,0.347    s-0.064,0.231-0.097,0.347c-0.019,0.096-0.039,0.183-0.058,0.26c-0.032,0.128-0.066,0.267-0.101,0.415    c-0.036,0.148-0.076,0.331-0.121,0.55c-0.019,0.135-0.037,0.252-0.053,0.352s-0.024,0.185-0.024,0.255c0,0.006,0,0.016,0,0.029    c0,0.013,0,0.029,0,0.048c0,0.006,0,0.016,0,0.029c0,0.013,0,0.029,0,0.048c0,0.026,0,0.045,0,0.058c0,0.006,0,0.014,0,0.024    s0,0.018,0,0.024c0,0.456,0.071,0.832,0.212,1.128c0.148,0.289,0.345,0.434,0.589,0.434c0.309,0,0.554-0.286,0.734-0.858    c0.148-0.463,0.222-0.997,0.222-1.601L25.577,28.075z M25.548,21.095c0-0.161,0.045-0.286,0.135-0.376    c0.096-0.109,0.222-0.164,0.376-0.164c0.155,0,0.28,0.051,0.376,0.154c0.11,0.103,0.165,0.228,0.165,0.376    c0,0.161-0.052,0.286-0.155,0.376c-0.097,0.103-0.219,0.154-0.367,0.154c-0.167,0-0.293-0.048-0.377-0.145    C25.599,21.381,25.548,21.256,25.548,21.095z"/>
	</g>
	<g class="st4">
		<path class="st9" d="M21.833,58.464h1.665v0.188h-0.703c-0.153,0-0.257,0.05-0.313,0.147c-0.031,0.054-0.046,0.124-0.046,0.212    v5.311c0,0.117,0.017,0.204,0.05,0.262c0.058,0.101,0.17,0.15,0.336,0.15h0.676v0.201h-1.665V58.464z"/>
		<path class="st9" d="M26.781,63.302c0-0.435-0.197-0.773-0.591-1.017c-0.187-0.114-0.398-0.189-0.636-0.224    c0.08-0.106,0.197-0.263,0.351-0.467l0.741-0.978c0.01-0.02,0.015-0.041,0.015-0.063c0-0.048-0.061-0.072-0.182-0.072h-1.352    c-0.154,0-0.26,0.077-0.317,0.23c-0.027,0.072-0.061,0.109-0.102,0.109c-0.022,0-0.033-0.013-0.033-0.039    c0-0.035,0.03-0.158,0.091-0.367c0.07-0.24,0.108-0.379,0.116-0.415c0-0.026,0.021-0.038,0.063-0.038    c0.016,0,0.039,0.002,0.071,0.008c0.031,0.004,0.055,0.007,0.07,0.007h1.978c0.144,0,0.224,0.011,0.238,0.031    c0,0.032-0.024,0.081-0.073,0.146l-0.044,0.06l-1.068,1.43c0.542,0.182,0.894,0.499,1.056,0.95    c0.065,0.183,0.098,0.348,0.098,0.495c0,0.499-0.24,0.925-0.72,1.278c-0.344,0.253-0.697,0.38-1.061,0.38    c-0.255,0-0.485-0.055-0.689-0.164c-0.075-0.039-0.114-0.064-0.118-0.073c-0.021-0.087-0.031-0.313-0.031-0.679    c0.166,0.149,0.273,0.243,0.321,0.281c0.125,0.102,0.242,0.182,0.352,0.241c0.127,0.067,0.259,0.101,0.396,0.101    c0.063,0,0.116-0.006,0.158-0.016c0.371-0.089,0.636-0.311,0.794-0.666C26.745,63.613,26.781,63.456,26.781,63.302z"/>
		<path class="st9" d="M30.115,64.936h-1.669v-0.193h0.707c0.237,0,0.355-0.118,0.355-0.354v-5.314c0-0.272-0.127-0.409-0.383-0.409    h-0.68v-0.2h1.669V64.936z"/>
	</g>
	<g class="st4">
		<path class="st9" d="M50.393,60.932v0.463h-1.681v0.693c0,0.288,0.002,0.541,0.006,0.76s0.016,0.385,0.038,0.499h-0.638    c0.021-0.116,0.034-0.282,0.038-0.502c0.003-0.219,0.005-0.471,0.005-0.757v-2.096c0-0.13-0.001-0.249-0.004-0.357    c-0.003-0.109-0.007-0.207-0.013-0.294s-0.015-0.159-0.026-0.217h2.521v0.478h-1.927v1.33H50.393z"/>
		<path class="st9" d="M51.262,61.887c0-0.25,0.038-0.47,0.113-0.662c0.075-0.191,0.177-0.354,0.304-0.485s0.276-0.231,0.446-0.3    c0.17-0.066,0.351-0.101,0.542-0.101c0.199,0,0.381,0.034,0.546,0.101c0.166,0.068,0.307,0.168,0.426,0.3    c0.119,0.132,0.211,0.294,0.276,0.485c0.066,0.192,0.099,0.412,0.099,0.662c0,0.248-0.038,0.468-0.113,0.658    c-0.076,0.191-0.177,0.352-0.304,0.48c-0.128,0.129-0.276,0.227-0.446,0.294c-0.17,0.066-0.351,0.1-0.542,0.1    c-0.199,0-0.381-0.033-0.546-0.1c-0.166-0.067-0.308-0.165-0.426-0.294s-0.211-0.289-0.277-0.48    C51.294,62.354,51.262,62.135,51.262,61.887z M51.798,61.887c0,0.167,0.02,0.317,0.061,0.451c0.041,0.133,0.098,0.244,0.172,0.336    s0.163,0.162,0.265,0.21s0.216,0.072,0.342,0.072c0.116,0,0.225-0.024,0.328-0.072s0.192-0.118,0.268-0.21s0.136-0.203,0.18-0.336    c0.043-0.134,0.065-0.284,0.065-0.451c0-0.17-0.02-0.322-0.061-0.456s-0.098-0.248-0.172-0.341    c-0.075-0.094-0.164-0.166-0.267-0.215c-0.104-0.049-0.217-0.074-0.341-0.074c-0.118,0-0.228,0.025-0.33,0.074    s-0.191,0.121-0.267,0.215c-0.075,0.093-0.135,0.207-0.178,0.341S51.798,61.717,51.798,61.887z"/>
		<path class="st9" d="M54.739,63.347v-1.778c0-0.285-0.016-0.527-0.048-0.725s-0.064-0.347-0.097-0.447h0.521    c0.023,0.055,0.044,0.122,0.063,0.204c0.018,0.082,0.034,0.173,0.046,0.272c0.012,0.102,0.021,0.208,0.027,0.322    c0.006,0.113,0.009,0.229,0.009,0.344v0.188c0.099-0.271,0.195-0.496,0.29-0.675s0.189-0.321,0.283-0.427s0.188-0.18,0.282-0.223    c0.095-0.043,0.191-0.063,0.29-0.063c0.073,0,0.141,0.007,0.203,0.021c0.062,0.014,0.125,0.035,0.188,0.066l-0.087,0.535    c-0.056-0.023-0.105-0.039-0.148-0.047s-0.095-0.012-0.156-0.012c-0.079,0-0.162,0.033-0.249,0.1s-0.173,0.155-0.257,0.266    c-0.084,0.109-0.164,0.234-0.239,0.373s-0.142,0.281-0.199,0.426c-0.057,0.146-0.102,0.288-0.136,0.428    c-0.034,0.139-0.05,0.262-0.05,0.369c0,0.049,0,0.093,0.001,0.133c0,0.041,0.003,0.08,0.008,0.117    c0.005,0.038,0.011,0.076,0.019,0.113s0.018,0.078,0.029,0.12H54.739z"/>
		<path class="st9" d="M58.65,60.339c0.193,0,0.36,0.022,0.5,0.067c0.14,0.046,0.263,0.105,0.37,0.178l-0.102,0.521    c-0.131-0.097-0.262-0.169-0.391-0.217c-0.129-0.049-0.27-0.072-0.42-0.072c-0.129,0-0.25,0.023-0.36,0.073    c-0.111,0.05-0.208,0.12-0.29,0.212c-0.082,0.094-0.146,0.207-0.192,0.342s-0.07,0.287-0.07,0.457    c0,0.156,0.021,0.298,0.064,0.426c0.042,0.127,0.103,0.236,0.183,0.328c0.079,0.092,0.175,0.162,0.287,0.213    c0.112,0.049,0.239,0.074,0.379,0.074c0.176,0,0.335-0.029,0.479-0.09c0.143-0.059,0.278-0.145,0.405-0.257l0.058,0.507    c-0.073,0.055-0.146,0.104-0.219,0.143s-0.148,0.072-0.228,0.098c-0.079,0.026-0.164,0.046-0.255,0.059    c-0.091,0.012-0.19,0.019-0.298,0.019c-0.195,0-0.378-0.034-0.548-0.103s-0.319-0.168-0.446-0.297s-0.228-0.285-0.301-0.469    c-0.073-0.183-0.11-0.391-0.11-0.621c0-0.219,0.035-0.424,0.105-0.616c0.071-0.192,0.171-0.362,0.301-0.507    c0.131-0.145,0.289-0.258,0.476-0.342C58.212,60.381,58.42,60.339,58.65,60.339z"/>
		<path class="st9" d="M61.49,60.339c0.158,0,0.298,0.019,0.42,0.056c0.122,0.038,0.227,0.09,0.315,0.156s0.164,0.145,0.223,0.233    c0.06,0.089,0.108,0.185,0.144,0.286c0.036,0.103,0.062,0.209,0.077,0.32c0.016,0.11,0.023,0.22,0.023,0.328v0.112    c0,0.048-0.001,0.086-0.003,0.112h-2.054c0.005,0.17,0.032,0.318,0.08,0.443s0.112,0.229,0.194,0.311s0.179,0.143,0.29,0.184    c0.111,0.041,0.232,0.061,0.363,0.061c0.188,0,0.371-0.021,0.551-0.063s0.358-0.117,0.536-0.226l0.058,0.478    c-0.102,0.052-0.203,0.097-0.301,0.133s-0.197,0.066-0.295,0.09c-0.099,0.022-0.199,0.04-0.3,0.051    c-0.102,0.011-0.208,0.016-0.32,0.016c-0.186,0-0.362-0.032-0.53-0.097s-0.316-0.16-0.443-0.287    c-0.127-0.125-0.229-0.282-0.304-0.469c-0.075-0.188-0.113-0.404-0.113-0.651c0-0.239,0.032-0.456,0.097-0.649    c0.064-0.193,0.157-0.359,0.276-0.498c0.12-0.137,0.266-0.243,0.438-0.317S61.275,60.339,61.49,60.339z M61.446,60.772    c-0.212,0-0.386,0.063-0.521,0.187c-0.135,0.125-0.224,0.318-0.267,0.58h1.513c0-0.123-0.018-0.232-0.054-0.328    s-0.086-0.176-0.151-0.242c-0.064-0.064-0.142-0.114-0.23-0.146C61.647,60.789,61.551,60.772,61.446,60.772z"/>
	</g>
	<g class="st4">
		<path class="st9" d="M51.227,68.43h1.541v0.558h-2.562v-0.04l0.244-0.287c0.38-0.471,0.683-0.869,0.908-1.197    s0.372-0.575,0.44-0.743c0.069-0.168,0.103-0.333,0.103-0.497c0-0.229-0.065-0.41-0.194-0.549    c-0.129-0.138-0.301-0.207-0.516-0.207c-0.162,0-0.322,0.049-0.479,0.144c-0.158,0.096-0.299,0.229-0.424,0.403v-0.734    c0.314-0.256,0.639-0.385,0.973-0.385c0.354,0,0.645,0.117,0.874,0.354c0.229,0.234,0.343,0.533,0.343,0.896    c0,0.162-0.029,0.335-0.085,0.52c-0.057,0.184-0.158,0.396-0.303,0.636c-0.145,0.24-0.391,0.567-0.739,0.981L51.227,68.43z"/>
		<path class="st9" d="M54.477,64.895c0.371,0,0.677,0.194,0.92,0.583c0.242,0.389,0.364,0.882,0.364,1.479    c0,0.613-0.122,1.111-0.364,1.495c-0.243,0.384-0.557,0.575-0.943,0.575c-0.392,0-0.707-0.188-0.944-0.563    c-0.238-0.376-0.356-0.874-0.356-1.495c0-0.613,0.123-1.112,0.368-1.497C53.766,65.087,54.085,64.895,54.477,64.895z     M54.483,65.444h-0.029c-0.222,0-0.398,0.136-0.529,0.409s-0.195,0.643-0.195,1.109c0,0.479,0.063,0.854,0.191,1.125    s0.303,0.408,0.527,0.408s0.401-0.137,0.53-0.408s0.194-0.641,0.194-1.107c0-0.469-0.063-0.842-0.187-1.119    C54.861,65.583,54.693,65.444,54.483,65.444z"/>
		<path class="st9" d="M58.635,64.9c0.249,0,0.462,0.089,0.638,0.266c0.176,0.178,0.264,0.391,0.264,0.64    c0,0.247-0.088,0.459-0.265,0.636c-0.177,0.178-0.389,0.267-0.636,0.267s-0.459-0.089-0.636-0.267    c-0.177-0.177-0.265-0.389-0.265-0.636c0-0.249,0.088-0.462,0.264-0.64C58.173,64.989,58.386,64.9,58.635,64.9z M60.685,64.889    h0.448l-2.661,4.145h-0.448L60.685,64.889z M58.627,65.34c-0.129,0-0.239,0.046-0.331,0.137c-0.091,0.092-0.137,0.201-0.137,0.33    c0,0.127,0.046,0.236,0.139,0.326c0.092,0.091,0.202,0.136,0.329,0.136c0.129,0,0.239-0.045,0.331-0.136    c0.091-0.09,0.137-0.199,0.137-0.326c0-0.13-0.045-0.24-0.136-0.331C58.869,65.385,58.758,65.34,58.627,65.34z M60.546,67.229    c0.247,0,0.459,0.088,0.636,0.266c0.177,0.176,0.266,0.387,0.266,0.635c0,0.246-0.088,0.456-0.265,0.629    c-0.176,0.172-0.389,0.258-0.638,0.258c-0.251,0-0.464-0.086-0.641-0.258c-0.176-0.173-0.265-0.383-0.265-0.629    c0-0.25,0.089-0.461,0.266-0.637C60.084,67.316,60.297,67.229,60.546,67.229z M60.54,67.668c-0.127,0-0.235,0.045-0.325,0.136    c-0.089,0.091-0.134,0.199-0.134,0.326c0,0.128,0.045,0.239,0.134,0.33c0.09,0.091,0.198,0.137,0.325,0.137    c0.131,0,0.242-0.045,0.332-0.136c0.09-0.09,0.136-0.201,0.136-0.331c0-0.129-0.045-0.237-0.136-0.327S60.671,67.668,60.54,67.668    z"/>
	</g>
	<g class="st4">
		<path class="st5" d="M26.279,50.457c0,0.473-0.045,0.869-0.134,1.189c-0.09,0.32-0.217,0.578-0.383,0.772    c-0.166,0.194-0.366,0.333-0.601,0.417s-0.496,0.127-0.783,0.127c-0.071,0-0.155-0.008-0.251-0.023    c-0.097-0.015-0.196-0.035-0.299-0.063s-0.205-0.062-0.304-0.104c-0.1-0.043-0.187-0.089-0.261-0.14l0.177-0.835    c0.054,0.041,0.124,0.079,0.208,0.116s0.172,0.07,0.264,0.099c0.091,0.029,0.183,0.051,0.274,0.066    c0.091,0.015,0.172,0.022,0.243,0.022c0.135,0,0.259-0.026,0.37-0.079c0.112-0.052,0.208-0.134,0.289-0.245    c0.082-0.111,0.144-0.255,0.188-0.431c0.043-0.175,0.066-0.388,0.066-0.637v-2.81c0-0.246-0.001-0.489-0.003-0.729    c-0.001-0.238-0.005-0.466-0.01-0.68c-0.005-0.215-0.013-0.414-0.023-0.598s-0.024-0.342-0.041-0.473h1.014V50.457z     M25.163,43.776c0-0.095,0.015-0.183,0.046-0.266c0.03-0.083,0.073-0.155,0.129-0.218c0.056-0.063,0.123-0.111,0.201-0.146    c0.078-0.035,0.164-0.054,0.258-0.054s0.183,0.019,0.264,0.054s0.15,0.084,0.208,0.146s0.103,0.135,0.137,0.218    s0.051,0.171,0.051,0.266s-0.017,0.183-0.051,0.266s-0.079,0.155-0.137,0.218s-0.127,0.111-0.208,0.146s-0.169,0.053-0.264,0.053    s-0.181-0.018-0.258-0.053c-0.078-0.035-0.145-0.084-0.201-0.146c-0.056-0.063-0.099-0.135-0.129-0.218    C25.178,43.959,25.163,43.871,25.163,43.776z"/>
	</g>
	<g class="st4">
		<path class="st11" d="M29.065,50.68c-0.824,0-1.236-0.553-1.236-1.658v-1.137c0-0.123,0-0.235-0.002-0.336    c-0.001-0.1-0.004-0.197-0.009-0.291c-0.005-0.094-0.013-0.189-0.023-0.287s-0.024-0.205-0.042-0.32h0.792v2.141    c0,0.219,0.011,0.406,0.033,0.564s0.059,0.288,0.11,0.39c0.051,0.102,0.119,0.177,0.203,0.226    c0.084,0.049,0.188,0.073,0.311,0.073c0.113,0,0.234-0.034,0.363-0.103c0.129-0.067,0.251-0.154,0.369-0.26    s0.224-0.222,0.321-0.35c0.097-0.127,0.171-0.25,0.222-0.367v-1.08c0-0.126,0-0.24-0.002-0.342s-0.004-0.198-0.01-0.291    c-0.005-0.092-0.013-0.186-0.023-0.281s-0.024-0.202-0.042-0.32h0.792v2.198c0,0.376,0.021,0.704,0.063,0.985    s0.105,0.531,0.188,0.75h-0.657c-0.018-0.043-0.037-0.096-0.058-0.154c-0.021-0.059-0.041-0.122-0.06-0.189    c-0.02-0.066-0.038-0.137-0.054-0.209c-0.017-0.074-0.03-0.146-0.041-0.219c-0.234,0.285-0.476,0.502-0.725,0.648    S29.338,50.68,29.065,50.68z"/>
	</g>
	<g class="st4">
		<path class="st11" d="M36.191,50.584h-0.715v-2.198c0-0.239-0.009-0.433-0.027-0.58s-0.048-0.264-0.091-0.347    c-0.042-0.084-0.1-0.141-0.172-0.168c-0.072-0.029-0.163-0.043-0.271-0.043c-0.095,0-0.191,0.02-0.286,0.059    c-0.095,0.038-0.186,0.093-0.272,0.164c-0.086,0.07-0.167,0.153-0.24,0.25c-0.073,0.096-0.136,0.203-0.188,0.318v2.545h-0.714    v-2.371c0-0.381-0.022-0.703-0.066-0.967s-0.086-0.462-0.127-0.596h0.695c0.028,0.082,0.053,0.18,0.073,0.291    c0.021,0.112,0.038,0.215,0.05,0.307c0.119-0.137,0.232-0.248,0.34-0.336c0.108-0.087,0.215-0.156,0.322-0.205    c0.107-0.051,0.213-0.086,0.319-0.104c0.105-0.02,0.214-0.029,0.325-0.029c0.126,0,0.241,0.019,0.344,0.054    c0.103,0.037,0.194,0.084,0.272,0.143c0.078,0.06,0.146,0.129,0.203,0.207s0.101,0.16,0.131,0.244    c0.121-0.131,0.238-0.238,0.352-0.321s0.224-0.149,0.332-0.196c0.108-0.049,0.215-0.082,0.319-0.101    c0.104-0.02,0.207-0.029,0.307-0.029c0.196,0,0.361,0.032,0.495,0.095s0.241,0.156,0.323,0.279    c0.081,0.123,0.139,0.276,0.174,0.459c0.035,0.183,0.052,0.394,0.052,0.633v2.545h-0.714v-2.121c0-0.249-0.009-0.452-0.027-0.609    c-0.018-0.156-0.048-0.279-0.091-0.37c-0.042-0.09-0.1-0.151-0.172-0.185c-0.072-0.033-0.162-0.051-0.271-0.051    c-0.095,0-0.189,0.02-0.282,0.057s-0.182,0.09-0.269,0.158c-0.086,0.067-0.166,0.15-0.24,0.248    c-0.073,0.098-0.138,0.207-0.195,0.328V50.584z"/>
	</g>
	<g class="st12">
		<path class="st6" d="M41.273,46.573c0.211,0,0.398,0.025,0.561,0.075c0.162,0.051,0.302,0.119,0.421,0.209    c0.119,0.088,0.218,0.191,0.297,0.311c0.08,0.117,0.144,0.244,0.191,0.381c0.047,0.137,0.082,0.278,0.103,0.426    c0.021,0.148,0.031,0.295,0.031,0.438v0.15c0,0.063-0.001,0.114-0.004,0.15h-2.739c0.008,0.226,0.043,0.423,0.106,0.59    s0.149,0.306,0.259,0.415s0.238,0.19,0.386,0.244c0.148,0.055,0.31,0.081,0.485,0.081c0.25,0,0.495-0.028,0.734-0.085    c0.24-0.057,0.478-0.156,0.715-0.301l0.077,0.637c-0.136,0.069-0.27,0.129-0.401,0.178s-0.263,0.088-0.394,0.119    s-0.265,0.053-0.4,0.067s-0.278,0.021-0.427,0.021c-0.247,0-0.483-0.043-0.707-0.129c-0.224-0.086-0.421-0.213-0.591-0.381    c-0.17-0.169-0.305-0.378-0.406-0.627c-0.101-0.25-0.15-0.539-0.15-0.867c0-0.319,0.043-0.607,0.129-0.866    c0.086-0.259,0.209-0.479,0.369-0.663s0.354-0.326,0.583-0.425C40.729,46.623,40.987,46.573,41.273,46.573z M41.215,47.152    c-0.284,0-0.515,0.082-0.695,0.248c-0.181,0.166-0.299,0.424-0.355,0.773h2.017c0-0.164-0.024-0.311-0.072-0.438    c-0.047-0.127-0.114-0.234-0.201-0.322s-0.189-0.152-0.307-0.197C41.483,47.174,41.354,47.152,41.215,47.152z"/>
	</g>
	<g class="st12">
		<path class="st6" d="M45.41,48.752c0,0.123,0.002,0.27,0.006,0.436c0.004,0.168,0.009,0.338,0.016,0.51    c0.006,0.172,0.014,0.336,0.023,0.493c0.009,0.157,0.02,0.288,0.033,0.394h-0.792v-4.357c0-0.375-0.006-0.716-0.019-1.02    c-0.013-0.305-0.032-0.569-0.058-0.793h0.792V48.752z"/>
	</g>
	<g class="st4">
		<path class="st11" d="M47.613,48.752c0,0.123,0.002,0.27,0.006,0.436c0.004,0.168,0.009,0.338,0.016,0.51    c0.006,0.172,0.014,0.336,0.023,0.493c0.009,0.157,0.02,0.288,0.033,0.394h-0.792v-4.357c0-0.375-0.006-0.716-0.019-1.02    c-0.013-0.305-0.032-0.569-0.058-0.793h0.792V48.752z"/>
		<path class="st11" d="M50.568,46.573c0.211,0,0.398,0.025,0.561,0.075c0.162,0.051,0.302,0.119,0.421,0.209    c0.119,0.088,0.218,0.191,0.297,0.311c0.08,0.117,0.144,0.244,0.191,0.381c0.047,0.137,0.082,0.278,0.103,0.426    c0.021,0.148,0.031,0.295,0.031,0.438v0.15c0,0.063-0.001,0.114-0.004,0.15h-2.739c0.008,0.226,0.043,0.423,0.106,0.59    s0.149,0.306,0.259,0.415s0.238,0.19,0.386,0.244c0.148,0.055,0.31,0.081,0.485,0.081c0.25,0,0.495-0.028,0.734-0.085    c0.24-0.057,0.478-0.156,0.715-0.301l0.077,0.637c-0.136,0.069-0.27,0.129-0.401,0.178s-0.263,0.088-0.394,0.119    s-0.265,0.053-0.4,0.067s-0.278,0.021-0.427,0.021c-0.247,0-0.483-0.043-0.707-0.129c-0.224-0.086-0.421-0.213-0.591-0.381    c-0.17-0.169-0.305-0.378-0.406-0.627c-0.101-0.25-0.15-0.539-0.15-0.867c0-0.319,0.043-0.607,0.129-0.866    c0.086-0.259,0.209-0.479,0.369-0.663s0.354-0.326,0.583-0.425C50.025,46.623,50.283,46.573,50.568,46.573z M50.511,47.152    c-0.284,0-0.515,0.082-0.695,0.248c-0.181,0.166-0.299,0.424-0.355,0.773h2.017c0-0.164-0.024-0.311-0.072-0.438    c-0.047-0.127-0.114-0.234-0.201-0.322s-0.189-0.152-0.307-0.197C50.778,47.174,50.65,47.152,50.511,47.152z"/>
	</g>
	<g>
		<path class="st13" d="M6,34.9c0,0-1-1-0.4-2.1C6,32,7.4,31.6,7.7,31.6c0.5-0.1,1,0.1,1.5,0.3c0.6,0.4,1.2,0.8,1.8,1.3    c0,0-0.1,0.2,1.1-0.3s3.1,0.5,3.1,0.5s3.9,1.9,4.7,2.9l3.2,2.1c0,0,1.8,1.2,0.1,3.9c-0.9,1.4-1.9,1.7-2.6,1.7    c-0.5,0-1-0.3-1.4-0.6l-2.1-1.9c0,0-1.7,1-2.9,0l-1.6-1.3l-1.1,2.6l0.7,0.6c0,0,1.7,0.5,0.5,3c-0.9,1.6-1.6,2.2-3,2.6    c-0.2,0.1-0.4,0.1-0.6,0.1c-0.7,0-1.4-0.4-1.9-0.9c-0.8-1-2.3-2.8-2.3-2.8L1.8,41c-0.2-0.3-0.3-0.6-0.4-1s0-1,0.5-1.6l-1.1-1    c-0.2-0.2-0.3-0.4-0.3-0.6c-0.1-0.5,0-1.3,0.8-2.3c1.3-1.5,2.5-1,2.5-1l1.8,1.6L6,34.9z"/>
		<path class="st6" d="M14.3,37.6c0.2,0.5-0.1,1.1-0.8,1.4c-0.6,0.3-1.3,0.1-1.5-0.3c-0.2-0.5,0.1-1.1,0.8-1.4    C13.4,37,14.1,37.1,14.3,37.6z"/>
		<path class="st6" d="M15.1,41.9c-0.1,0-1.5-3.7,2.8-5.6c0,0,1.4-0.2,2.1,0.1c0,0-1.6,0.1-2.8,1.8c-1.1,1.5-0.9,2.6,0,3.4    C17.3,41.5,16.5,42,15.1,41.9z"/>
		<path class="st14" d="M1.9,38.6c0,0,1.1-2.1,3.7-3.4"/>
		<path class="st14" d="M6,35c0,0,1.5-2.5,3.3-1.6c0,0,0.5,0.3,2-0.2"/>
		<path class="st14" d="M14,37.3c0,0,3.3-0.8,3.8-0.9c0.6-0.1,1.6-0.2,2.3,0.1"/>
		<path class="st14" d="M4.9,45.4c0,0-0.4-2.8,3.2-5.3c2.4-1.7,3.7-2.2,3.9-2.3"/>
		<path class="st14" d="M17.5,41.8l-0.6-0.6c-0.3-0.3-0.5-1.1-0.4-1.5c0.3-1.1,1.4-3,3.5-3.2"/>
		<path class="st14" d="M15,41.8c0,0-1.3-3.5,2.8-5.5"/>
		<path class="st14" d="M9.4,39.3c0,0,2.5-0.5,3,2"/>
		<path class="st14" d="M5.6,42.8c0,0,1.9-2.9,4-1.4c2,1.5,2.3,1.7,2.3,1.7"/>
		<path class="st14" d="M7.7,48.7c0,0-1.2-1.5,1.1-3.9c1.8-1.9,3.8-1.2,3.8-1.2"/>
		<path class="st14" d="M8.2,48.1C8,47.6,7.9,46.5,9.3,45c0.6-0.6,1.3-1,2.2-1c0.1,0,0.2,0,0.3,0c0.4,0,0.8,0.4,0.8,0.8    c0.1,0.7,0.1,2.1-1.4,3.2c-1.1,0.8-1.9,0.8-2.4,0.7C8.6,48.5,8.3,48.3,8.2,48.1z"/>
		<path class="st14" d="M8.2,46.9c0,0,2.3-1,2.6-2.8"/>
		<path class="st14" d="M19.5,43.6c0,0-1.1-1-0.2-2.8c0.3-0.7,0.8-1.4,1.5-1.8c1-0.7,1.6-0.7,2.7-0.3"/>
		<path class="st14" d="M21.5,43.4c-0.7,0.2-1.5-0.2-1.6-1s0.6-2.1,1.5-2.8c1-0.7,1.5-0.5,1.9-0.2C24.4,40.4,22.7,43,21.5,43.4z"/>
		<path class="st14" d="M22.1,39.3c0,0-0.9,2-2.2,2.9"/>
		<path class="st14" d="M8.8,35.9l-0.4-0.3c-0.2-0.2-0.3-0.4-0.3-0.7c0.1-0.5,0.4-1.1,1.5-1c0.1,0,0.2,0,0.3,0.1l0.8,0.6"/>
		<path class="st14" d="M8.1,37.1c0,0,0.8-2.6,3.4-2.5c0,0,0.8,0.1,1.1,0.2l-0.8,0.3l1,0.8c0.2,0.1,0.2,0.4,0,0.5    c-0.1,0.1-0.2,0.1-0.3,0.2l-1,0.7c0,0-0.9,0.8-1.8,0.1l-0.8-0.8L8.1,37.1z"/>
		<path class="st14" d="M11.1,37.5c0,0,0.7-1.2,1.8-1.2"/>
		<line class="st14" x1="9.3" y1="36.5" x2="9.9" y2="37.1"/>
		<line class="st14" x1="11.4" y1="35.1" x2="12" y2="35.6"/>
		<line class="st14" x1="10.9" y1="35.2" x2="11.6" y2="35.9"/>
		<line class="st14" x1="9.7" y1="36" x2="10.4" y2="36.7"/>
		<line class="st14" x1="10.2" y1="35.4" x2="11.1" y2="36.3"/>
		<path class="st14" d="M11.8,35.1c0,0-1-0.6-2-0.1c-1.2,0.6-0.9,1.6-0.9,1.6"/>
		<path class="st14" d="M14.3,37.6c0.2,0.5-0.1,1.1-0.7,1.3c-0.6,0.3-1.3,0.1-1.5-0.3c-0.2-0.5,0.1-1.1,0.7-1.3    C13.4,37,14.1,37.1,14.3,37.6z"/>
		<path class="st15" d="M6,34.9c0,0-1-1-0.4-2.1C6,32,7.4,31.6,7.7,31.6c0.5-0.1,1,0.1,1.5,0.3c0.6,0.4,1.2,0.8,1.8,1.3    c0,0-0.1,0.2,1.1-0.3s3.1,0.5,3.1,0.5s3.9,1.9,4.7,2.9l3.2,2.1c0,0,1.8,1.2,0.1,3.9c-0.9,1.4-1.9,1.7-2.6,1.7    c-0.5,0-1-0.3-1.4-0.6l-2.1-1.9c0,0-1.7,1-2.9,0l-1.6-1.3l-1.1,2.6l0.7,0.6c0,0,1.7,0.5,0.5,3c-0.9,1.6-1.6,2.2-3,2.6    c-0.2,0.1-0.4,0.1-0.6,0.1c-0.7,0-1.4-0.4-1.9-0.9c-0.8-1-2.3-2.8-2.3-2.8L1.8,41c-0.2-0.3-0.3-0.6-0.4-1s0-1,0.5-1.6l-1.1-1    c-0.2-0.2-0.3-0.4-0.3-0.6c-0.1-0.5,0-1.3,0.8-2.3c1.3-1.5,2.5-1,2.5-1l1.8,1.6L6,34.9z"/>
	</g>
	<line class="st16" x1="51.6" y1="21.2" x2="55.3" y2="21.2"/>
</g>
</svg>