<?xml version="1.0" encoding="UTF-8"?>
<!-- Generator: Adobe Illustrator 24.0.2, SVG Export Plug-In . SVG Version: 6.00 Build 0)  -->
<svg version="1.1" id="Calque_1" xmlns="http://www.w3.org/2000/svg" xmlns:xlink="http://www.w3.org/1999/xlink" x="0px" y="0px" viewBox="0 0 106 67" style="enable-background:new 0 0 106 67;" xml:space="preserve">
<style type="text/css">
	.st0{fill:#FFFFFF;stroke:#9D9D9C;stroke-width:0.7225;stroke-miterlimit:10;}
	.st1{fill:#FFFFFF;stroke:#000000;stroke-width:0.9634;stroke-miterlimit:10;}
	.st2{enable-background:new    ;}
	.st3{fill:#E11683;}
	.st4{fill:#706F6F;}
	.st5{fill:none;stroke:#B2B2B2;stroke-width:0.3613;stroke-miterlimit:10;}
	.st6{fill:#878787;}
	.st7{fill:#9D9D9C;}
	.st8{fill:#B2B2B2;}
	.st9{fill:#575756;}
	.st10{opacity:0.6;enable-background:new    ;}
	.st11{fill:#7DB728;}
	.st12{fill:#929292;}
	.st13{fill:#FFFFFF;}
	.st14{fill:#E11683;stroke:#575756;stroke-width:0.1733;stroke-linecap:round;stroke-linejoin:round;stroke-miterlimit:10;}
	.st15{fill:#7DB728;stroke:#575756;stroke-width:0.1733;stroke-linecap:round;stroke-linejoin:round;stroke-miterlimit:10;}
	.st16{fill:#FFFFFF;stroke:#575756;stroke-width:0.1733;stroke-linecap:round;stroke-linejoin:round;stroke-miterlimit:10;}
	.st17{fill:none;stroke:#575756;stroke-width:0.1733;stroke-linecap:round;stroke-linejoin:round;stroke-miterlimit:10;}
	.st18{fill:none;stroke:#575756;stroke-width:0.52;stroke-linecap:round;stroke-linejoin:round;stroke-miterlimit:10;}
</style>
<g id="_x3C_Groupe_x3E__lunettes">
	<polygon class="st0" points="89.6,30.2 76.4,30.2 76.4,1.2 105.3,1.2 105.3,30.2 92.3,30.2  "/>
	<path class="st1" d="M54.6,54.6H23.4V1.4h52.9v53.1H61.1c0,0-4.9,8.8-12.9,10.6C48.2,65.1,53,61.9,54.6,54.6z"/>
	<g class="st2">
		<path class="st3" d="M98.906,7.913c0.123,0,0.239,0,0.349-0.001s0.21-0.002,0.304-0.005c0.092-0.002,0.175-0.006,0.248-0.011    c0.072-0.005,0.134-0.012,0.184-0.02v0.449h-2.149c0.019-0.1,0.029-0.244,0.032-0.433c0.004-0.188,0.006-0.406,0.006-0.652V5.769    c0-0.246-0.002-0.463-0.006-0.652c-0.003-0.189-0.014-0.333-0.032-0.433h0.509v3.229H98.906z"/>
	</g>
	<g class="st2">
		<path class="st4" d="M101.598,7.913c0.123,0,0.238,0,0.348-0.001s0.211-0.002,0.304-0.005s0.175-0.006,0.249-0.011    c0.072-0.005,0.133-0.012,0.184-0.02v0.449h-2.15c0.02-0.1,0.029-0.244,0.033-0.433c0.003-0.188,0.005-0.406,0.005-0.652V5.769    c0-0.246-0.002-0.463-0.005-0.652c-0.004-0.189-0.014-0.333-0.033-0.433h0.51v3.229H101.598z"/>
	</g>
	<g class="st2">
		<path class="st3" d="M81.564,10.942c-0.117,0.337-0.277,0.587-0.482,0.75c-0.209,0.167-0.514,0.25-0.916,0.25    c-0.328,0-0.551-0.103-0.666-0.308c-0.051-0.074-0.086-0.181-0.105-0.32c-0.015-0.112-0.022-0.25-0.022-0.413v-5.05    c0-0.574,0.063-1.034,0.191-1.379c0.178-0.508,0.474-0.762,0.888-0.762c0.234,0,0.411,0.13,0.527,0.39    c0.1,0.24,0.15,0.555,0.15,0.942c0,0.279-0.023,0.576-0.07,0.89c-0.042,0.26-0.113,0.566-0.214,0.919    c-0.022,0.063-0.044,0.123-0.063,0.181c-0.035,0.104-0.063,0.188-0.082,0.25c-0.019,0.046-0.038,0.095-0.057,0.146    c-0.02,0.05-0.037,0.104-0.053,0.163c-0.023,0.058-0.045,0.119-0.066,0.183s-0.044,0.129-0.066,0.195    c-0.066,0.186-0.127,0.364-0.184,0.532c-0.056,0.169-0.107,0.329-0.153,0.48c-0.104,0.334-0.184,0.677-0.237,1.03v0.902    c0,0.275,0.032,0.471,0.098,0.587c0.074,0.147,0.229,0.221,0.465,0.221c0.432,0,0.772-0.318,1.02-0.954L81.564,10.942z     M80.92,5.88c0-0.062,0.008-0.155,0.023-0.279c0.023-0.12,0.035-0.206,0.035-0.256c0.016-0.19,0.023-0.318,0.023-0.384    c0-0.299-0.037-0.531-0.111-0.698c-0.1-0.198-0.251-0.296-0.451-0.296c-0.193,0-0.333,0.147-0.418,0.442    c-0.093,0.311-0.139,0.774-0.139,1.391v3.31c0.019-0.062,0.052-0.159,0.098-0.291c0.023-0.07,0.063-0.175,0.116-0.314    c0.023-0.074,0.062-0.184,0.116-0.332c0.02-0.054,0.039-0.11,0.061-0.168c0.021-0.059,0.044-0.117,0.066-0.175    c0.166-0.454,0.289-0.795,0.365-1.024c0.016-0.054,0.039-0.132,0.07-0.233c0.012-0.039,0.023-0.078,0.035-0.119    c0.012-0.041,0.022-0.081,0.034-0.119c0.05-0.151,0.075-0.301,0.075-0.448V5.88z"/>
	</g>
	<g class="st2">
		<path class="st4" d="M83.657,10.942c-0.116,0.337-0.276,0.587-0.481,0.75c-0.209,0.167-0.514,0.25-0.916,0.25    c-0.328,0-0.551-0.103-0.667-0.308c-0.05-0.074-0.085-0.181-0.104-0.32c-0.016-0.112-0.023-0.25-0.023-0.413v-5.05    c0-0.574,0.064-1.034,0.191-1.379c0.178-0.508,0.474-0.762,0.888-0.762c0.235,0,0.411,0.13,0.527,0.39    c0.101,0.24,0.151,0.555,0.151,0.942c0,0.279-0.023,0.576-0.07,0.89c-0.043,0.26-0.113,0.566-0.215,0.919    c-0.022,0.063-0.044,0.123-0.063,0.181c-0.035,0.104-0.063,0.188-0.082,0.25c-0.02,0.046-0.039,0.095-0.058,0.146    c-0.02,0.05-0.037,0.104-0.052,0.163c-0.023,0.058-0.046,0.119-0.067,0.183s-0.044,0.129-0.066,0.195    c-0.065,0.186-0.127,0.364-0.183,0.532c-0.057,0.169-0.107,0.329-0.154,0.48c-0.104,0.334-0.184,0.677-0.237,1.03v0.902    c0,0.275,0.032,0.471,0.099,0.587c0.073,0.147,0.229,0.221,0.464,0.221c0.433,0,0.772-0.318,1.021-0.954L83.657,10.942z     M83.014,5.88c0-0.062,0.008-0.155,0.023-0.279c0.022-0.12,0.034-0.206,0.034-0.256c0.016-0.19,0.023-0.318,0.023-0.384    c0-0.299-0.037-0.531-0.11-0.698c-0.101-0.198-0.252-0.296-0.452-0.296c-0.193,0-0.333,0.147-0.417,0.442    c-0.094,0.311-0.14,0.774-0.14,1.391v3.31c0.019-0.062,0.052-0.159,0.099-0.291c0.023-0.07,0.062-0.175,0.115-0.314    c0.023-0.074,0.063-0.184,0.117-0.332c0.019-0.054,0.039-0.11,0.061-0.168c0.021-0.059,0.043-0.117,0.066-0.175    c0.166-0.454,0.288-0.795,0.365-1.024c0.016-0.054,0.039-0.132,0.07-0.233c0.011-0.039,0.022-0.078,0.034-0.119    c0.012-0.041,0.022-0.081,0.034-0.119c0.051-0.151,0.076-0.301,0.076-0.448V5.88z"/>
	</g>
	<path class="st5" d="M30.4,51.1c0,0,4.2,1.9,10,0"/>
	<path class="st5" d="M52.5,51.1c0,0,9.3,1.8,18.4,0"/>
	<path class="st5" d="M41.2,51c0.3,0.1,4.3,2,10.5,0"/>
	<g class="st2">
		<path class="st6" d="M63.891,59.779v0.398h-1.441v0.6c0,0.247,0.002,0.465,0.005,0.654c0.003,0.188,0.014,0.332,0.032,0.43h-0.547    c0.019-0.1,0.029-0.244,0.032-0.433s0.005-0.405,0.005-0.651v-1.809c0-0.111-0.001-0.214-0.004-0.308    c-0.002-0.094-0.006-0.179-0.011-0.253c-0.005-0.075-0.013-0.137-0.022-0.188h2.162v0.412h-1.652v1.146H63.891z"/>
		<path class="st6" d="M64.635,60.602c0-0.214,0.033-0.404,0.098-0.569s0.151-0.305,0.261-0.419    c0.109-0.113,0.237-0.199,0.383-0.258s0.301-0.088,0.465-0.088c0.171,0,0.327,0.029,0.468,0.088    c0.143,0.059,0.264,0.145,0.365,0.258c0.103,0.114,0.182,0.254,0.238,0.419c0.056,0.165,0.084,0.355,0.084,0.569    c0,0.215-0.032,0.404-0.097,0.569c-0.065,0.165-0.151,0.302-0.261,0.413s-0.237,0.196-0.383,0.254    c-0.146,0.057-0.301,0.086-0.465,0.086c-0.171,0-0.326-0.029-0.469-0.086c-0.141-0.058-0.264-0.143-0.365-0.254    s-0.181-0.248-0.237-0.413C64.664,61.006,64.635,60.816,64.635,60.602z M65.096,60.602c0,0.145,0.018,0.275,0.052,0.39    s0.084,0.212,0.147,0.29c0.064,0.079,0.14,0.14,0.228,0.182c0.088,0.041,0.186,0.063,0.294,0.063c0.099,0,0.192-0.021,0.28-0.063    c0.088-0.042,0.164-0.103,0.229-0.182c0.066-0.078,0.117-0.176,0.154-0.29s0.057-0.245,0.057-0.39    c0-0.146-0.018-0.276-0.053-0.393c-0.035-0.115-0.084-0.213-0.148-0.294c-0.063-0.081-0.14-0.142-0.229-0.185    c-0.088-0.042-0.186-0.063-0.291-0.063c-0.102,0-0.196,0.021-0.283,0.063c-0.088,0.043-0.164,0.104-0.229,0.185    c-0.064,0.081-0.115,0.179-0.153,0.294C65.113,60.325,65.096,60.456,65.096,60.602z"/>
		<path class="st6" d="M67.617,61.861v-1.533c0-0.246-0.014-0.455-0.041-0.625s-0.055-0.299-0.083-0.385h0.447    c0.021,0.047,0.038,0.105,0.054,0.176s0.029,0.148,0.039,0.235c0.012,0.087,0.02,0.179,0.024,0.276    c0.005,0.099,0.007,0.197,0.007,0.297v0.162c0.085-0.234,0.168-0.428,0.249-0.582s0.161-0.276,0.242-0.367    c0.08-0.092,0.161-0.156,0.242-0.192s0.164-0.056,0.249-0.056c0.063,0,0.121,0.006,0.174,0.018s0.106,0.031,0.161,0.059    l-0.075,0.461c-0.047-0.021-0.09-0.033-0.126-0.04s-0.081-0.011-0.134-0.011c-0.068,0-0.14,0.029-0.215,0.086    c-0.074,0.059-0.146,0.134-0.219,0.229c-0.072,0.096-0.141,0.202-0.205,0.322c-0.064,0.119-0.121,0.242-0.17,0.367    c-0.05,0.125-0.088,0.248-0.117,0.368s-0.044,0.226-0.044,0.319c0,0.041,0.001,0.08,0.001,0.114    c0.001,0.035,0.004,0.069,0.008,0.101c0.004,0.033,0.01,0.065,0.016,0.098c0.008,0.032,0.016,0.066,0.025,0.104H67.617z"/>
		<path class="st6" d="M70.973,59.268c0.165,0,0.309,0.02,0.428,0.059c0.121,0.039,0.227,0.091,0.316,0.154l-0.086,0.449    c-0.113-0.084-0.225-0.146-0.336-0.188s-0.23-0.063-0.36-0.063c-0.11,0-0.214,0.021-0.31,0.063    c-0.095,0.042-0.178,0.104-0.248,0.183c-0.07,0.08-0.125,0.179-0.165,0.295s-0.06,0.248-0.06,0.395    c0,0.135,0.018,0.256,0.055,0.365c0.036,0.11,0.088,0.205,0.156,0.283c0.068,0.08,0.15,0.141,0.246,0.184s0.205,0.064,0.325,0.064    c0.151,0,0.288-0.025,0.41-0.076c0.122-0.053,0.239-0.126,0.349-0.223l0.049,0.437c-0.063,0.048-0.125,0.089-0.188,0.124    c-0.063,0.033-0.127,0.062-0.195,0.084s-0.141,0.039-0.219,0.05s-0.162,0.017-0.256,0.017c-0.167,0-0.324-0.029-0.469-0.089    c-0.146-0.059-0.273-0.144-0.383-0.255s-0.195-0.246-0.259-0.404s-0.095-0.337-0.095-0.536c0-0.188,0.03-0.364,0.091-0.531    c0.061-0.166,0.146-0.312,0.259-0.437c0.111-0.125,0.248-0.223,0.407-0.295S70.775,59.268,70.973,59.268z"/>
		<path class="st6" d="M73.407,59.268c0.136,0,0.256,0.018,0.36,0.049c0.104,0.033,0.195,0.078,0.271,0.135    c0.076,0.058,0.139,0.125,0.191,0.201c0.051,0.076,0.092,0.158,0.123,0.246c0.029,0.089,0.052,0.181,0.064,0.276    c0.014,0.095,0.021,0.189,0.021,0.282v0.098c0,0.041-0.001,0.074-0.003,0.098h-1.762c0.006,0.146,0.028,0.273,0.068,0.381    c0.041,0.108,0.097,0.197,0.167,0.269c0.07,0.07,0.153,0.123,0.249,0.158c0.095,0.034,0.199,0.052,0.311,0.052    c0.161,0,0.318-0.018,0.473-0.055c0.154-0.036,0.308-0.102,0.46-0.194l0.05,0.411c-0.088,0.045-0.174,0.084-0.259,0.115    s-0.169,0.057-0.253,0.077c-0.085,0.021-0.17,0.034-0.258,0.044c-0.087,0.009-0.178,0.014-0.274,0.014    c-0.159,0-0.311-0.027-0.454-0.084c-0.145-0.055-0.271-0.138-0.381-0.246c-0.109-0.109-0.196-0.244-0.261-0.406    c-0.064-0.16-0.097-0.348-0.097-0.561c0-0.206,0.027-0.393,0.083-0.56s0.135-0.31,0.237-0.429s0.228-0.211,0.375-0.274    S73.224,59.268,73.407,59.268z M73.37,59.643c-0.183,0-0.331,0.053-0.447,0.16s-0.192,0.274-0.229,0.5h1.297    c0-0.105-0.015-0.201-0.046-0.283s-0.074-0.151-0.129-0.207c-0.056-0.057-0.121-0.1-0.197-0.128S73.459,59.643,73.37,59.643z"/>
	</g>
	<g class="st2">
		<path class="st6" d="M26.072,58.965H27.5v0.163h-0.603c-0.131,0-0.221,0.042-0.269,0.126c-0.026,0.047-0.04,0.107-0.04,0.184    v4.578c0,0.1,0.014,0.176,0.043,0.226c0.05,0.087,0.146,0.13,0.288,0.13h0.58v0.172h-1.428V58.965z"/>
		<path class="st6" d="M29.49,62.823c0,0.269,0.083,0.431,0.249,0.487c0.069,0.016,0.14,0.033,0.21,0.049    c0.11,0.027,0.166,0.053,0.166,0.077c-0.029,0.054-0.185,0.081-0.467,0.081h-0.835c-0.136,0-0.204-0.027-0.204-0.081    c0-0.024,0.071-0.063,0.212-0.114c0.148-0.054,0.222-0.225,0.222-0.513v-3.937c0-0.292-0.133-0.451-0.397-0.475    c-0.111-0.01-0.166-0.031-0.166-0.062c0-0.015,0.058-0.036,0.174-0.067c0.076-0.018,0.19-0.045,0.343-0.082    c0.057-0.016,0.147-0.051,0.27-0.104c0.105-0.045,0.173-0.068,0.204-0.068c0.013,0.005,0.02,0.072,0.02,0.205V62.823z"/>
		<path class="st6" d="M32.515,64.543h-1.431v-0.166h0.606c0.203,0,0.305-0.102,0.305-0.306V59.49c0-0.234-0.109-0.353-0.328-0.353    h-0.583v-0.173h1.431V64.543z"/>
	</g>
	<g class="st2">
		<path class="st6" d="M64.51,66.765l-0.307-0.362c0.258-0.162,0.482-0.359,0.674-0.592c0.192-0.231,0.32-0.47,0.385-0.714    c-0.156,0.098-0.342,0.147-0.554,0.147c-0.265,0-0.492-0.1-0.683-0.297c-0.189-0.198-0.283-0.436-0.283-0.713    c0-0.29,0.1-0.535,0.303-0.736c0.201-0.201,0.449-0.302,0.74-0.302c0.328,0,0.596,0.119,0.805,0.356    c0.209,0.238,0.313,0.543,0.313,0.916c0,0.422-0.131,0.848-0.393,1.279S64.915,66.519,64.51,66.765z M65.359,64.6    c0.02-0.133,0.029-0.219,0.029-0.259c0-0.201-0.056-0.366-0.168-0.493c-0.111-0.129-0.255-0.192-0.431-0.192    c-0.161,0-0.294,0.055-0.399,0.163c-0.104,0.109-0.157,0.246-0.157,0.41c0,0.151,0.058,0.282,0.171,0.392    c0.115,0.11,0.252,0.165,0.41,0.165C65,64.785,65.182,64.723,65.359,64.6z"/>
		<path class="st6" d="M67.395,63.196c0.318,0,0.58,0.167,0.789,0.503c0.207,0.334,0.312,0.76,0.312,1.275    c0,0.528-0.104,0.958-0.312,1.289c-0.209,0.33-0.479,0.496-0.809,0.496c-0.337,0-0.607-0.162-0.811-0.486    c-0.204-0.324-0.306-0.754-0.306-1.289c0-0.529,0.104-0.959,0.315-1.291C66.785,63.362,67.059,63.196,67.395,63.196z     M67.398,63.67h-0.023c-0.191,0-0.342,0.118-0.454,0.354c-0.112,0.234-0.168,0.554-0.168,0.956c0,0.412,0.055,0.735,0.164,0.97    s0.261,0.352,0.452,0.352c0.192,0,0.344-0.117,0.455-0.352s0.166-0.553,0.166-0.955c0-0.404-0.053-0.726-0.16-0.965    C67.724,63.79,67.58,63.67,67.398,63.67z"/>
		<path class="st6" d="M70.96,63.201c0.214,0,0.396,0.076,0.547,0.229s0.226,0.337,0.226,0.552c0,0.213-0.075,0.395-0.227,0.548    c-0.152,0.153-0.334,0.229-0.546,0.229s-0.394-0.076-0.546-0.229c-0.15-0.153-0.227-0.335-0.227-0.548    c0-0.215,0.075-0.398,0.227-0.552C70.564,63.277,70.746,63.201,70.96,63.201z M72.718,63.191h0.384l-2.281,3.573h-0.385    L72.718,63.191z M70.954,63.58c-0.11,0-0.206,0.039-0.284,0.119c-0.078,0.078-0.117,0.173-0.117,0.284    c0,0.109,0.039,0.202,0.119,0.28c0.078,0.078,0.173,0.117,0.282,0.117c0.11,0,0.205-0.039,0.283-0.117    c0.079-0.078,0.118-0.171,0.118-0.28c0-0.112-0.039-0.208-0.117-0.286C71.161,63.619,71.066,63.58,70.954,63.58z M72.599,65.209    c0.212,0,0.394,0.076,0.546,0.229c0.152,0.151,0.229,0.334,0.229,0.547s-0.076,0.393-0.227,0.542    c-0.152,0.149-0.334,0.224-0.548,0.224c-0.215,0-0.397-0.074-0.55-0.224c-0.15-0.149-0.227-0.329-0.227-0.542    c0-0.215,0.076-0.397,0.229-0.549S72.385,65.209,72.599,65.209z M72.594,65.588c-0.109,0-0.201,0.039-0.278,0.117    c-0.077,0.077-0.115,0.171-0.115,0.28c0,0.11,0.038,0.206,0.115,0.284c0.077,0.079,0.169,0.119,0.278,0.119    c0.112,0,0.207-0.039,0.285-0.117s0.116-0.174,0.116-0.286c0-0.11-0.038-0.205-0.116-0.282S72.706,65.588,72.594,65.588z"/>
	</g>
	<g>
		<g class="st2">
			<path class="st3" d="M89.681,12.63c0,0.206,0.003,0.449,0.01,0.728c0.007,0.279,0.015,0.563,0.025,0.85s0.023,0.563,0.038,0.824     c0.016,0.262,0.033,0.481,0.055,0.657h-1.315V8.411c0-0.626-0.011-1.195-0.032-1.704s-0.054-0.95-0.096-1.324h1.315V12.63z"/>
		</g>
		<g class="st2">
			<path class="st7" d="M93.069,12.63c0,0.206,0.003,0.449,0.01,0.728c0.007,0.279,0.015,0.563,0.025,0.85s0.023,0.563,0.038,0.824     c0.016,0.262,0.033,0.481,0.055,0.657h-1.315V8.411c0-0.626-0.011-1.195-0.032-1.704s-0.054-0.95-0.096-1.324h1.315V12.63z"/>
		</g>
		<g class="st2">
			<path class="st8" d="M87.898,20.715c-0.047,0.095-0.096,0.199-0.145,0.309c-0.05,0.111-0.098,0.22-0.143,0.326     s-0.088,0.207-0.127,0.302c-0.041,0.095-0.074,0.176-0.1,0.243c-0.022,0.053-0.052,0.126-0.088,0.218     c-0.037,0.092-0.078,0.195-0.123,0.309c-0.045,0.114-0.094,0.235-0.145,0.363s-0.1,0.253-0.148,0.377     c-0.117,0.293-0.242,0.607-0.375,0.944h-0.629c-0.129-0.321-0.248-0.625-0.361-0.911c-0.049-0.122-0.098-0.246-0.148-0.372     s-0.1-0.248-0.145-0.364c-0.045-0.116-0.088-0.223-0.126-0.321c-0.039-0.097-0.071-0.178-0.099-0.243     c-0.025-0.066-0.059-0.148-0.099-0.244c-0.04-0.097-0.083-0.198-0.13-0.304c-0.046-0.106-0.094-0.214-0.143-0.324     c-0.048-0.11-0.096-0.212-0.142-0.308h0.696l1.01,2.726l1.011-2.726H87.898z"/>
			<path class="st8" d="M88.478,19.634c0-0.062,0.01-0.12,0.03-0.174c0.02-0.054,0.047-0.102,0.084-0.143     c0.036-0.041,0.08-0.073,0.131-0.096c0.051-0.023,0.107-0.035,0.169-0.035s0.119,0.012,0.173,0.035     c0.053,0.023,0.098,0.055,0.135,0.096c0.038,0.041,0.068,0.089,0.09,0.143s0.033,0.112,0.033,0.174     c0,0.063-0.012,0.121-0.033,0.175s-0.052,0.102-0.09,0.143c-0.037,0.041-0.082,0.073-0.135,0.096     c-0.054,0.023-0.111,0.035-0.173,0.035s-0.118-0.012-0.169-0.035s-0.095-0.055-0.131-0.096c-0.037-0.041-0.064-0.089-0.084-0.143     C88.487,19.755,88.478,19.697,88.478,19.634z M89.207,22.527c0,0.106,0.001,0.232,0.004,0.377     c0.004,0.145,0.008,0.292,0.014,0.44s0.012,0.291,0.02,0.425c0.008,0.135,0.018,0.248,0.028,0.336h-0.679v-1.762     c0-0.162-0.001-0.321-0.002-0.479s-0.004-0.306-0.007-0.447c-0.003-0.141-0.009-0.271-0.015-0.392     c-0.007-0.121-0.016-0.225-0.027-0.311h0.664V22.527z"/>
		</g>
		<g class="st2">
			<path class="st3" d="M91.354,22.132c0,0.133,0.002,0.29,0.006,0.47c0.005,0.18,0.01,0.363,0.018,0.549     c0.006,0.186,0.015,0.363,0.024,0.532s0.021,0.31,0.035,0.424h-0.849V19.41c0-0.404-0.008-0.771-0.021-1.099     c-0.014-0.329-0.034-0.613-0.062-0.854h0.849V22.132z"/>
		</g>
		<g class="st2">
			<path class="st7" d="M93.746,22.132c0,0.133,0.002,0.29,0.006,0.47s0.01,0.363,0.016,0.549c0.008,0.186,0.016,0.363,0.025,0.532     s0.021,0.31,0.035,0.424h-0.849V19.41c0-0.404-0.007-0.771-0.021-1.099c-0.014-0.329-0.035-0.613-0.063-0.854h0.85V22.132z"/>
		</g>
		<g class="st2">
			<path class="st8" d="M96.391,20.648c0.181,0,0.341,0.021,0.48,0.065c0.139,0.043,0.259,0.103,0.36,0.179     c0.102,0.077,0.187,0.166,0.255,0.268c0.068,0.102,0.123,0.211,0.164,0.329c0.041,0.117,0.07,0.24,0.088,0.367     s0.027,0.253,0.027,0.377v0.129c0,0.056-0.002,0.099-0.004,0.13h-2.35c0.007,0.195,0.037,0.365,0.092,0.509     c0.054,0.144,0.128,0.263,0.222,0.357c0.094,0.094,0.204,0.165,0.331,0.211c0.127,0.046,0.266,0.07,0.416,0.07     c0.215,0,0.424-0.024,0.63-0.073c0.205-0.049,0.409-0.135,0.612-0.259l0.066,0.548c-0.117,0.06-0.231,0.111-0.344,0.153     c-0.113,0.042-0.227,0.076-0.338,0.103c-0.113,0.026-0.228,0.046-0.344,0.058c-0.115,0.012-0.238,0.018-0.365,0.018     c-0.213,0-0.415-0.037-0.607-0.111c-0.191-0.074-0.361-0.184-0.506-0.329c-0.146-0.145-0.262-0.325-0.349-0.54     c-0.086-0.215-0.129-0.464-0.129-0.748c0-0.275,0.036-0.524,0.11-0.747s0.18-0.413,0.316-0.572     c0.137-0.158,0.305-0.28,0.501-0.366C95.924,20.691,96.145,20.648,96.391,20.648z M96.34,21.147     c-0.242,0-0.441,0.072-0.596,0.215c-0.154,0.143-0.256,0.365-0.305,0.667h1.729c0-0.142-0.02-0.268-0.061-0.377     s-0.099-0.202-0.172-0.278c-0.074-0.075-0.162-0.132-0.264-0.169S96.459,21.147,96.34,21.147z"/>
		</g>
		<g class="st2">
			<path class="st6" d="M95.114,25.529h0.414v2.903h-0.414V25.529z"/>
			<path class="st6" d="M97.454,25.492c0.265,0,0.484,0.139,0.657,0.418c0.174,0.279,0.26,0.633,0.26,1.063     c0,0.44-0.086,0.798-0.26,1.074c-0.173,0.275-0.397,0.414-0.674,0.414c-0.28,0-0.505-0.135-0.675-0.405s-0.255-0.628-0.255-1.074     c0-0.44,0.088-0.799,0.264-1.075C96.946,25.63,97.174,25.492,97.454,25.492z M97.459,25.887h-0.021     c-0.158,0-0.285,0.098-0.378,0.294c-0.093,0.196-0.14,0.462-0.14,0.797c0,0.344,0.045,0.613,0.137,0.809s0.217,0.293,0.377,0.293     s0.287-0.098,0.379-0.293s0.139-0.461,0.139-0.796c0-0.337-0.045-0.605-0.133-0.804C97.729,25.986,97.609,25.887,97.459,25.887z"/>
			<path class="st6" d="M100.426,25.496c0.178,0,0.33,0.064,0.455,0.191s0.188,0.28,0.188,0.459c0,0.177-0.063,0.33-0.189,0.457     s-0.278,0.191-0.454,0.191c-0.178,0-0.328-0.064-0.455-0.191c-0.126-0.127-0.189-0.28-0.189-0.457     c0-0.179,0.063-0.332,0.188-0.459S100.247,25.496,100.426,25.496z M101.891,25.488h0.32l-1.902,2.978h-0.32L101.891,25.488z      M100.42,25.812c-0.092,0-0.171,0.033-0.236,0.098c-0.064,0.066-0.098,0.145-0.098,0.237c0,0.091,0.033,0.169,0.1,0.234     c0.065,0.064,0.145,0.097,0.234,0.097c0.092,0,0.172-0.033,0.236-0.097c0.066-0.065,0.099-0.143,0.099-0.234     c0-0.094-0.032-0.173-0.097-0.238C100.593,25.844,100.514,25.812,100.42,25.812z M101.791,27.169c0.176,0,0.328,0.063,0.455,0.19     c0.127,0.127,0.189,0.279,0.189,0.456s-0.063,0.328-0.188,0.452s-0.278,0.186-0.456,0.186c-0.18,0-0.332-0.062-0.458-0.186     s-0.188-0.275-0.188-0.452c0-0.179,0.063-0.331,0.189-0.457S101.613,27.169,101.791,27.169z M101.787,27.485     c-0.091,0-0.168,0.032-0.232,0.097s-0.096,0.143-0.096,0.234c0,0.093,0.031,0.172,0.096,0.237s0.142,0.099,0.232,0.099     c0.094,0,0.172-0.033,0.237-0.098c0.064-0.065,0.097-0.144,0.097-0.238c0-0.092-0.032-0.171-0.097-0.235     C101.959,27.517,101.881,27.485,101.787,27.485z"/>
		</g>
	</g>
	<g class="st2">
		<path class="st9" d="M69.479,11.534c0.204,0,0.397-0.001,0.58-0.002c0.182-0.001,0.35-0.004,0.505-0.008    c0.155-0.004,0.292-0.01,0.414-0.019s0.224-0.019,0.307-0.033v0.748h-3.583c0.031-0.166,0.049-0.407,0.055-0.721    c0.006-0.314,0.008-0.676,0.008-1.086V7.96c0-0.41-0.002-0.772-0.008-1.087s-0.023-0.555-0.055-0.721h0.85v5.382H69.479z"/>
	</g>
	<g class="st2">
		<path class="st9" d="M31.296,14.617c-0.166,0.482-0.395,0.839-0.688,1.072c-0.298,0.238-0.734,0.357-1.309,0.357    c-0.469,0-0.787-0.147-0.953-0.44c-0.072-0.105-0.122-0.258-0.149-0.457c-0.022-0.161-0.033-0.357-0.033-0.59V7.345    c0-0.82,0.091-1.477,0.273-1.97c0.254-0.726,0.676-1.089,1.267-1.089c0.337,0,0.588,0.186,0.754,0.557    c0.144,0.344,0.215,0.792,0.215,1.347c0,0.399-0.033,0.823-0.1,1.271c-0.061,0.371-0.163,0.809-0.306,1.313    c-0.033,0.089-0.063,0.175-0.091,0.258c-0.05,0.149-0.088,0.269-0.116,0.357c-0.028,0.066-0.056,0.136-0.083,0.208    c-0.028,0.072-0.053,0.15-0.075,0.233c-0.033,0.083-0.065,0.17-0.095,0.262s-0.062,0.185-0.095,0.278    c-0.094,0.266-0.181,0.52-0.261,0.761c-0.08,0.241-0.153,0.47-0.22,0.686c-0.149,0.477-0.262,0.967-0.339,1.471v1.288    c0,0.394,0.047,0.673,0.141,0.839c0.105,0.211,0.326,0.316,0.663,0.316c0.619,0,1.104-0.454,1.458-1.363L31.296,14.617z     M30.376,7.386c0-0.089,0.011-0.222,0.033-0.399c0.033-0.172,0.05-0.294,0.05-0.366c0.022-0.271,0.033-0.455,0.033-0.549    c0-0.426-0.053-0.759-0.158-0.997c-0.144-0.283-0.359-0.424-0.646-0.424c-0.276,0-0.475,0.21-0.596,0.631    c-0.133,0.443-0.199,1.105-0.199,1.986v4.729c0.027-0.089,0.074-0.228,0.141-0.416c0.033-0.1,0.088-0.25,0.166-0.449    c0.033-0.105,0.088-0.263,0.166-0.474c0.027-0.078,0.057-0.158,0.087-0.241c0.03-0.083,0.062-0.167,0.095-0.25    c0.237-0.648,0.411-1.136,0.522-1.463c0.022-0.078,0.055-0.188,0.099-0.333c0.017-0.055,0.033-0.112,0.05-0.17    s0.033-0.115,0.05-0.17c0.072-0.216,0.107-0.429,0.107-0.64V7.386z"/>
	</g>
	<g>
		<path class="st9" d="M50.5,29.1c0-0.8-0.1-1.5-0.1-2.3s0-1.4,0-2V9.4h-3.6c0.1,1,0.2,2.2,0.3,3.6s0.1,2.9,0.1,4.6v13.8l0.1,1.3    c0,0.6,0,1.3,0.3,1.9c0.3,0.7,0.6,1.2,1.1,1.6c0.4,0.4,1,0.7,1.6,0.8c0.6,0.2,1.4,0.2,2,0.2s1.3-0.1,2-0.3s1.5-0.6,2.3-1.1V33    c-0.8,0.4-1.5,0.8-2.1,1s-1.2,0.3-1.7,0.3c-0.4,0-0.7-0.1-1-0.2c-0.3-0.1-0.5-0.3-0.7-0.7c-0.2-0.3-0.3-0.8-0.4-1.3    c-0.1-0.6-0.1-1.3-0.1-2.2L50.5,29.1z"/>
	</g>
	<g>
		<path class="st9" d="M31.5,46.9c0-0.3,0-0.6,0-0.8c0-0.3,0-0.5,0-0.7v-5.6h-1.3c0,0.4,0.1,0.8,0.1,1.3s0,1.1,0,1.7v5v0.5    c0,0.2,0,0.5,0.1,0.7s0.2,0.4,0.4,0.6c0.2,0.1,0.3,0.2,0.6,0.3c0.2,0.1,0.5,0.1,0.7,0.1s0.5,0,0.7-0.1c0.3-0.1,0.5-0.2,0.8-0.4v-1    c-0.3,0.2-0.5,0.3-0.8,0.4C32.6,49,32.4,49,32.2,49c-0.1,0-0.3,0-0.4-0.1c-0.1,0-0.2-0.1-0.2-0.2c-0.1-0.1-0.1-0.3-0.1-0.5    s0-0.5,0-0.8L31.5,46.9z"/>
	</g>
	<g class="st2">
		<path class="st8" d="M36.115,49.855c-1.061,0-1.59-0.715-1.59-2.145V46.24c0-0.16-0.001-0.305-0.002-0.434    c-0.002-0.131-0.006-0.256-0.013-0.377s-0.017-0.246-0.03-0.371c-0.013-0.127-0.032-0.266-0.055-0.414h1.019v2.768    c0,0.282,0.014,0.525,0.042,0.73c0.028,0.204,0.075,0.372,0.142,0.504c0.066,0.131,0.153,0.229,0.261,0.291    c0.108,0.063,0.241,0.095,0.4,0.095c0.146,0,0.301-0.044,0.467-0.132c0.166-0.088,0.324-0.201,0.475-0.337    c0.15-0.136,0.288-0.286,0.412-0.451c0.125-0.165,0.22-0.323,0.286-0.476V46.24c0-0.163-0.001-0.311-0.003-0.441    c-0.001-0.132-0.005-0.258-0.012-0.377s-0.017-0.24-0.03-0.363s-0.032-0.262-0.055-0.414h1.019v2.842    c0,0.485,0.027,0.91,0.082,1.274c0.055,0.364,0.135,0.687,0.241,0.97h-0.845c-0.023-0.057-0.048-0.123-0.075-0.199    s-0.052-0.158-0.077-0.244c-0.024-0.087-0.048-0.178-0.069-0.272s-0.039-0.188-0.052-0.282c-0.301,0.369-0.612,0.648-0.932,0.838    C36.802,49.76,36.466,49.855,36.115,49.855z"/>
	</g>
	<g class="st2">
		<path class="st8" d="M44.104,44.545c0.53,0,0.936,0.174,1.218,0.521c0.281,0.347,0.422,0.863,0.422,1.548v3.117h-0.919v-2.742    c0-0.313-0.021-0.57-0.062-0.773c-0.042-0.203-0.103-0.363-0.184-0.481s-0.184-0.2-0.308-0.247    c-0.124-0.046-0.271-0.069-0.44-0.069c-0.179,0-0.354,0.042-0.524,0.127c-0.17,0.085-0.327,0.194-0.469,0.329    c-0.143,0.135-0.269,0.287-0.378,0.457c-0.109,0.169-0.19,0.338-0.244,0.508v2.893h-0.919v-3.066c0-0.492-0.027-0.908-0.082-1.25    c-0.054-0.34-0.11-0.598-0.166-0.77h0.895c0.02,0.053,0.04,0.121,0.06,0.207c0.02,0.084,0.038,0.174,0.055,0.266    c0.017,0.094,0.031,0.186,0.044,0.275l0.04,0.224c0.314-0.379,0.633-0.652,0.954-0.82C43.417,44.629,43.753,44.545,44.104,44.545z    "/>
	</g>
	<g class="st10">
		<path class="st3" d="M49.169,44.545c0.272,0,0.512,0.031,0.721,0.097c0.209,0.065,0.389,0.154,0.542,0.269    c0.152,0.115,0.28,0.249,0.382,0.402c0.103,0.152,0.185,0.317,0.246,0.494c0.062,0.176,0.105,0.359,0.132,0.551    c0.026,0.191,0.04,0.379,0.04,0.565v0.194c0,0.084-0.001,0.148-0.005,0.195h-3.523c0.01,0.292,0.055,0.547,0.137,0.762    c0.081,0.217,0.192,0.396,0.333,0.537c0.141,0.141,0.306,0.246,0.497,0.316c0.191,0.07,0.398,0.104,0.624,0.104    c0.321,0,0.636-0.036,0.944-0.109s0.614-0.203,0.919-0.39l0.099,0.823c-0.176,0.09-0.348,0.167-0.517,0.229    s-0.338,0.115-0.507,0.154c-0.169,0.04-0.341,0.069-0.515,0.088c-0.174,0.018-0.357,0.027-0.549,0.027    c-0.318,0-0.621-0.057-0.909-0.168c-0.289-0.111-0.542-0.275-0.76-0.493c-0.219-0.218-0.393-0.487-0.522-0.81    c-0.129-0.323-0.194-0.697-0.194-1.123c0-0.412,0.055-0.785,0.167-1.119c0.111-0.334,0.269-0.62,0.475-0.857    c0.206-0.238,0.456-0.421,0.75-0.549S48.801,44.545,49.169,44.545z M49.095,45.293c-0.365,0-0.663,0.106-0.895,0.32    c-0.232,0.215-0.385,0.549-0.458,1h2.594c0-0.213-0.031-0.4-0.092-0.565c-0.062-0.165-0.147-0.304-0.258-0.417    c-0.111-0.112-0.243-0.197-0.395-0.254C49.439,45.32,49.273,45.293,49.095,45.293z"/>
	</g>
	<g class="st10">
		<path class="st11" d="M52.838,44.769h0.994v-1.62h0.919v1.62h1.615v0.724h-1.615v2.293c0,0.256,0.012,0.466,0.037,0.629    c0.025,0.162,0.063,0.29,0.114,0.381c0.052,0.092,0.117,0.154,0.196,0.188c0.08,0.033,0.176,0.05,0.289,0.05    c0.142,0,0.303-0.031,0.481-0.095c0.179-0.063,0.378-0.156,0.597-0.279v0.798c-0.229,0.149-0.447,0.254-0.656,0.312    c-0.209,0.059-0.4,0.088-0.576,0.088c-0.195,0-0.378-0.023-0.547-0.068c-0.169-0.044-0.317-0.123-0.445-0.236    c-0.127-0.113-0.228-0.264-0.3-0.451s-0.109-0.426-0.109-0.715v-2.893h-0.994V44.769z"/>
	</g>
	<g class="st2">
		<path class="st8" d="M56.925,44.769h0.994v-1.62h0.919v1.62h1.615v0.724h-1.615v2.293c0,0.256,0.013,0.466,0.037,0.629    c0.025,0.162,0.063,0.29,0.115,0.381c0.051,0.092,0.117,0.154,0.195,0.188c0.08,0.033,0.176,0.05,0.289,0.05    c0.143,0,0.303-0.031,0.482-0.095c0.178-0.063,0.377-0.156,0.596-0.279v0.798c-0.229,0.149-0.447,0.254-0.656,0.312    c-0.209,0.059-0.4,0.088-0.576,0.088c-0.195,0-0.377-0.023-0.547-0.068c-0.168-0.044-0.316-0.123-0.444-0.236    s-0.228-0.264-0.301-0.451s-0.109-0.426-0.109-0.715v-2.893h-0.994V44.769z"/>
		<path class="st8" d="M63.783,44.545c0.271,0,0.512,0.031,0.721,0.097s0.389,0.154,0.542,0.269c0.152,0.115,0.28,0.249,0.382,0.402    c0.104,0.152,0.186,0.317,0.246,0.494c0.063,0.176,0.105,0.359,0.133,0.551c0.025,0.191,0.039,0.379,0.039,0.565v0.194    c0,0.084-0.002,0.148-0.005,0.195h-3.523c0.01,0.292,0.056,0.547,0.137,0.762c0.081,0.217,0.192,0.396,0.333,0.537    c0.141,0.141,0.307,0.246,0.496,0.316c0.191,0.07,0.398,0.104,0.625,0.104c0.32,0,0.636-0.036,0.943-0.109    c0.309-0.073,0.615-0.203,0.92-0.39l0.1,0.823c-0.176,0.09-0.348,0.167-0.518,0.229c-0.168,0.063-0.338,0.115-0.506,0.154    c-0.17,0.04-0.342,0.069-0.516,0.088c-0.174,0.018-0.356,0.027-0.549,0.027c-0.318,0-0.621-0.057-0.909-0.168    s-0.542-0.275-0.761-0.493s-0.393-0.487-0.521-0.81c-0.129-0.323-0.193-0.697-0.193-1.123c0-0.412,0.055-0.785,0.166-1.119    s0.27-0.62,0.475-0.857c0.205-0.238,0.455-0.421,0.75-0.549S63.416,44.545,63.783,44.545z M63.709,45.293    c-0.365,0-0.662,0.106-0.895,0.32c-0.232,0.215-0.385,0.549-0.457,1h2.594c0-0.213-0.031-0.4-0.092-0.565    c-0.062-0.165-0.147-0.304-0.258-0.417c-0.111-0.112-0.243-0.197-0.396-0.254C64.053,45.32,63.888,45.293,63.709,45.293z"/>
	</g>
	<g class="st2">
		<path class="st12" d="M68.703,44.545c0.179,0,0.347,0.012,0.504,0.034c0.158,0.023,0.302,0.054,0.433,0.093    c0.131,0.037,0.251,0.081,0.36,0.129c0.109,0.049,0.207,0.096,0.293,0.143l-0.174,0.873c-0.082-0.051-0.178-0.103-0.283-0.158    c-0.105-0.055-0.221-0.105-0.346-0.151c-0.124-0.047-0.256-0.085-0.396-0.117c-0.142-0.032-0.288-0.048-0.44-0.048    c-0.183,0-0.335,0.021-0.46,0.061c-0.124,0.039-0.224,0.09-0.298,0.152c-0.075,0.061-0.128,0.131-0.161,0.209    s-0.051,0.154-0.051,0.227c0,0.087,0.014,0.163,0.041,0.229c0.025,0.066,0.082,0.128,0.166,0.185s0.204,0.111,0.36,0.164    c0.155,0.054,0.364,0.11,0.626,0.17c0.225,0.05,0.438,0.114,0.637,0.192c0.198,0.078,0.372,0.177,0.521,0.296    c0.148,0.12,0.267,0.264,0.353,0.432s0.13,0.369,0.13,0.602c0,0.226-0.051,0.436-0.15,0.628c-0.099,0.192-0.234,0.361-0.406,0.507    c-0.173,0.145-0.375,0.257-0.607,0.338c-0.231,0.082-0.481,0.123-0.75,0.123c-0.202,0-0.396-0.016-0.584-0.045    c-0.188-0.03-0.363-0.072-0.527-0.125s-0.313-0.115-0.449-0.185s-0.254-0.143-0.353-0.22l0.248-0.896    c0.112,0.1,0.239,0.19,0.38,0.273c0.141,0.084,0.286,0.154,0.436,0.215c0.148,0.06,0.299,0.105,0.449,0.137    s0.293,0.047,0.426,0.047c0.146,0,0.279-0.019,0.399-0.057c0.121-0.038,0.226-0.088,0.313-0.15    c0.088-0.061,0.156-0.133,0.206-0.214s0.075-0.165,0.075-0.251c0-0.094-0.02-0.182-0.058-0.263s-0.108-0.159-0.209-0.234    s-0.24-0.147-0.417-0.217c-0.178-0.069-0.405-0.14-0.684-0.21c-0.302-0.072-0.548-0.159-0.738-0.259s-0.34-0.21-0.447-0.329    s-0.182-0.25-0.221-0.389c-0.04-0.14-0.061-0.287-0.061-0.443c0-0.077,0.014-0.167,0.037-0.27    c0.025-0.104,0.066-0.211,0.125-0.322s0.135-0.221,0.229-0.329c0.095-0.108,0.213-0.204,0.355-0.289s0.31-0.153,0.502-0.207    C68.229,44.57,68.451,44.545,68.703,44.545z"/>
	</g>
	<g>
		<g>
			<path class="st13" d="M21.6,33.7l-0.7,0.1h-0.4c-0.9,0.1-1.1,1.1-1.1,1.1c-0.1,0.4-0.7,2.6-0.7,2.6c-0.9,3.7-5.1,1.7-5.1,1.7     c-2.5-0.8-3.8-4.9-3.8-4.9c-0.1-0.5-0.4-1.1-0.8-1.2l-0.6-0.2c-0.6-0.1-0.6,1.2-0.6,1.2c-0.4,3.3-3.3,2.1-3.3,2.1     C2,35.3,1,30.9,1,30.9c-0.3-1.3-0.6-3.6-0.6-3.6c0-0.7,1.2-0.4,1.2-0.4c3.2,0.5,6.1,4,6.1,4c0.9,1.1,2,0.3,2,0.3     c3.1-1.8,9.6,0.8,9.6,0.8c0.8,0.4,1.4,0.2,1.4,0.2l0.6-0.1l7.2-1l2.9-0.4c1.3-0.2,1.8,0.3,1.8,0.3l0.3,0.4     c0.7,1.1,1.7,1.9,2.1,2.7c0.1,0.2,0.1,0.5,0,0.8c-0.2,0.3-0.4,0.6-0.7,0.8c-0.2,0.2-0.4-0.1-0.5-0.3c-0.5-0.8-1.5-2.3-1.5-2.3     l-0.5-0.8c0,0-0.2-0.1-0.2-0.2c-0.9-0.5-5.1,0.5-5.1,0.5L21.6,33.7z"/>
			<path class="st13" d="M4.2,27.9l6.4-0.5c0,0,3.2-0.5,3.9-0.1l0.1,0.1L15,28c0,0,0.7,1.2,1,1.8c0.1,0.2,0.2,0.4,0.4,0.2     c0.2-0.2,0.4-0.4,0.5-0.6S17,29,17,28.8c-0.3-0.7-1-1.4-1.5-2.2l-0.2-0.3c0,0-0.4-0.4-1.3-0.3l-2.2,0.2l-9.9,0.7"/>
		</g>
		<polygon class="st14" points="21.4,33.7 21.4,32.2 23.8,31.9 23.9,33.3   "/>
		<polygon class="st15" points="23.9,33.4 23.8,31.9 26.1,31.6 26,33.1   "/>
		<g>
			<path class="st16" d="M18.6,34.9c0,0,0,4.7-3,4.5c0,0-2.7,0-4.2-2.7c0,0-1.6-2.6-1.6-4.1c0,0,0.2-1.4,3.2-1.2     c0,0,4.5,0.4,5.2,1.3C18.2,32.6,18.8,33.1,18.6,34.9"/>
			<path class="st17" d="M18.6,34.9c0,0,0,4.7-3,4.5c0,0-2.7,0-4.2-2.7c0,0-1.6-2.6-1.6-4.1c0,0,0.2-1.4,3.2-1.2     c0,0,4.5,0.4,5.2,1.3C18.2,32.6,18.8,33.1,18.6,34.9z"/>
			<path class="st17" d="M2.5,28.1c0,0,1.8,0.7,4,2.3c0,0,1.2,0.7,0.8,3.2c0,0-0.4,3-2.6,2.2c0,0-2.1-0.6-3.3-5.4     C1.3,30.4,0.4,27,2.5,28.1z"/>
			<path class="st17" d="M10.1,32c0,0-0.4,1.1,1.8,4.6c0,0,1.6,3.3,5.1,2.3"/>
			<path class="st17" d="M1.9,27.9c0,0-0.4,0.3-0.4,1.2c0,0-0.2,1.7,1.5,4.9c0,0,1.2,2.1,2.9,1.8"/>
		</g>
		<g>
			<path class="st18" d="M21.6,33.7l-0.7,0.1h-0.4c-0.9,0.1-1.1,1.1-1.1,1.1c-0.1,0.4-0.7,2.6-0.7,2.6c-0.9,3.7-5.1,1.7-5.1,1.7     c-2.5-0.8-3.8-4.9-3.8-4.9c-0.1-0.5-0.4-1.1-0.8-1.2l-0.6-0.2c-0.6-0.1-0.6,1.2-0.6,1.2c-0.4,3.3-3.3,2.1-3.3,2.1     C2,35.3,1,30.9,1,30.9c-0.3-1.3-0.6-3.6-0.6-3.6c0-0.7,1.2-0.4,1.2-0.4c3.2,0.5,6.1,4,6.1,4c0.9,1.1,2,0.3,2,0.3     c3.1-1.8,9.6,0.8,9.6,0.8c0.8,0.4,1.4,0.2,1.4,0.2l0.6-0.1l7.2-1l2.9-0.4c1.3-0.2,1.8,0.3,1.8,0.3l0.3,0.4     c0.7,1.1,1.7,1.9,2.1,2.7c0.1,0.2,0.1,0.5,0,0.8c-0.2,0.3-0.4,0.6-0.7,0.8c-0.2,0.2-0.4-0.1-0.5-0.3c-0.5-0.8-1.5-2.3-1.5-2.3     l-0.5-0.8c0,0-0.2-0.1-0.2-0.2c-0.9-0.5-5.1,0.5-5.1,0.5L21.6,33.7z"/>
			<path class="st18" d="M4.2,27.9l6.4-0.5c0,0,3.2-0.5,3.9-0.1l0.1,0.1L15,28c0,0,0.7,1.2,1,1.8c0.1,0.2,0.2,0.4,0.4,0.2     c0.2-0.2,0.4-0.4,0.5-0.6S17,29,17,28.8c-0.3-0.7-1-1.4-1.5-2.2l-0.2-0.3c0,0-0.4-0.4-1.3-0.3l-2.2,0.2l-9.9,0.7"/>
		</g>
	</g>
</g>
</svg>