<?xml version="1.0" encoding="UTF-8"?>
<!-- Generator: Adobe Illustrator 24.0.2, SVG Export Plug-In . SVG Version: 6.00 Build 0)  -->
<svg version="1.1" id="Calque_1" xmlns="http://www.w3.org/2000/svg" xmlns:xlink="http://www.w3.org/1999/xlink" x="0px" y="0px" viewBox="0 0 89 70" style="enable-background:new 0 0 89 70;" xml:space="preserve">
<style type="text/css">
	.st0{fill:#FFFFFF;stroke:#9D9D9C;stroke-width:0.7275;stroke-miterlimit:10;}
	.st1{fill:#FFFFFF;stroke:#000000;stroke-width:0.97;stroke-miterlimit:10;}
	.st2{enable-background:new    ;}
	.st3{fill:#7FC7EB;}
	.st4{fill:#706F6F;}
	.st5{fill:none;stroke:#B2B2B2;stroke-width:0.3637;stroke-miterlimit:10;}
	.st6{fill:#878787;}
	.st7{fill:#575756;}
	.st8{fill:#9D9D9C;}
	.st9{fill:#7DB728;}
	.st10{fill:#B2B2B2;}
	.st11{fill:#FFFFFF;}
	.st12{fill:none;stroke:#575756;stroke-width:0.1745;stroke-linecap:round;stroke-linejoin:round;stroke-miterlimit:10;}
	.st13{fill:#FFFFFF;stroke:#575756;stroke-width:0.1745;stroke-linecap:round;stroke-linejoin:round;stroke-miterlimit:10;}
	.st14{fill:none;stroke:#575756;stroke-width:0.5235;stroke-linecap:round;stroke-linejoin:round;stroke-miterlimit:10;}
</style>
<g id="_x3C_Groupe_x3E__moto">
	<polygon class="st0" points="68.6,33.6 56.2,33.6 56.2,0.9 88.6,0.9 88.6,33.6 71.2,33.6  "/>
	<path class="st1" d="M33.4,57H0.6V1h55.5v56H40.2c0,0-5.1,9.3-13.6,11.1C26.7,68.1,31.7,64.7,33.4,57z"/>
	<g class="st2">
		<path class="st3" d="M78.751,4.373l1.073,3.158l1.086-3.158h0.55c0.021,0.599,0.04,1.149,0.06,1.65    c0.006,0.143,0.012,0.286,0.018,0.429c0.007,0.143,0.014,0.283,0.02,0.42c0.008,0.137,0.014,0.267,0.021,0.39    c0.007,0.123,0.013,0.236,0.019,0.338s0.012,0.191,0.02,0.268c0.006,0.076,0.013,0.135,0.02,0.177h-0.462l-0.069-3.014    l-1.029,3.014h-0.486L78.554,5.04l-0.077,3.006h-0.462c0.005-0.042,0.011-0.101,0.018-0.177c0.007-0.077,0.013-0.166,0.019-0.268    s0.012-0.215,0.02-0.338c0.006-0.124,0.013-0.253,0.02-0.39c0.006-0.137,0.013-0.277,0.019-0.42    c0.006-0.144,0.013-0.287,0.019-0.429c0.02-0.501,0.041-1.052,0.063-1.65H78.751z"/>
	</g>
	<g class="st2">
		<path class="st4" d="M83.217,4.373l1.073,3.158l1.086-3.158h0.55c0.02,0.599,0.039,1.149,0.06,1.65    c0.005,0.143,0.011,0.286,0.018,0.429c0.007,0.143,0.013,0.283,0.02,0.42s0.014,0.267,0.021,0.39    c0.006,0.123,0.013,0.236,0.019,0.338s0.012,0.191,0.019,0.268c0.007,0.076,0.014,0.135,0.02,0.177h-0.461l-0.07-3.014    l-1.029,3.014h-0.486L83.02,5.04l-0.078,3.006H82.48c0.004-0.042,0.01-0.101,0.018-0.177c0.006-0.077,0.012-0.166,0.018-0.268    s0.013-0.215,0.02-0.338c0.006-0.124,0.014-0.253,0.02-0.39c0.007-0.137,0.014-0.277,0.02-0.42    c0.006-0.144,0.012-0.287,0.018-0.429c0.021-0.501,0.041-1.052,0.063-1.65H83.217z"/>
	</g>
	<g class="st2">
		<path class="st3" d="M61.389,8.047h-0.594v-2.22c0-0.13-0.021-0.241-0.068-0.333c-0.07-0.113-0.17-0.17-0.299-0.17    c-0.18,0-0.346,0.078-0.5,0.233c-0.154,0.164-0.243,0.354-0.268,0.572v1.918h-0.574V6.091V5.821c0-0.084-0.005-0.197-0.014-0.34    c-0.02-0.063-0.051-0.101-0.093-0.113c-0.087,0-0.212,0.208-0.374,0.623c-0.038,0.088-0.086,0.211-0.145,0.371    c-0.059,0.159-0.127,0.356-0.205,0.591l-0.088-0.176c0.008-0.038,0.025-0.099,0.05-0.183c0.017-0.042,0.027-0.073,0.031-0.094    c0.005-0.013,0.009-0.027,0.016-0.044s0.014-0.034,0.022-0.05c0.012-0.038,0.028-0.088,0.049-0.151    c0.021-0.063,0.047-0.139,0.076-0.227c0.229-0.625,0.463-0.937,0.705-0.937c0.236,0,0.387,0.036,0.449,0.107    c0.063,0.075,0.094,0.232,0.094,0.472c0.221-0.398,0.52-0.598,0.898-0.598c0.195,0,0.368,0.042,0.518,0.126    c0.166,0.109,0.271,0.264,0.313,0.465c0.229-0.394,0.539-0.591,0.93-0.591c0.229,0,0.414,0.048,0.556,0.145    c0.179,0.126,0.269,0.306,0.269,0.541v1.679c0,0.143,0.008,0.231,0.025,0.265c0.02,0.092,0.087,0.138,0.199,0.138    s0.23-0.183,0.355-0.547c0.017-0.063,0.029-0.103,0.037-0.12c0.018-0.046,0.031-0.09,0.045-0.132    c0.012-0.038,0.018-0.059,0.018-0.063c0.009-0.013,0.018-0.036,0.025-0.069c0.008-0.021,0.017-0.042,0.025-0.063    c0.008-0.021,0.019-0.044,0.031-0.069l0.1,0.195c-0.055,0.134-0.1,0.258-0.137,0.371c-0.014,0.042-0.025,0.079-0.038,0.11    c-0.013,0.031-0.021,0.056-0.024,0.072C63.8,7.546,63.789,7.578,63.773,7.62c-0.005,0.017-0.01,0.033-0.016,0.047    c-0.007,0.015-0.01,0.028-0.01,0.041c-0.146,0.227-0.383,0.34-0.712,0.34c-0.138,0-0.239-0.031-0.306-0.094    c-0.125-0.088-0.188-0.206-0.188-0.353V5.827c0-0.13-0.021-0.241-0.063-0.333c-0.063-0.113-0.164-0.17-0.306-0.17    c-0.149,0-0.293,0.048-0.431,0.145c-0.184,0.126-0.302,0.296-0.355,0.51V8.047z"/>
	</g>
	<g class="st2">
		<path class="st4" d="M67.145,8.047h-0.594v-2.22c0-0.13-0.022-0.241-0.068-0.333c-0.07-0.113-0.171-0.17-0.3-0.17    c-0.179,0-0.345,0.078-0.499,0.233c-0.154,0.164-0.244,0.354-0.269,0.572v1.918h-0.574V6.091V5.821    c0-0.084-0.005-0.197-0.013-0.34c-0.021-0.063-0.052-0.101-0.094-0.113c-0.087,0-0.212,0.208-0.374,0.623    c-0.038,0.088-0.085,0.211-0.144,0.371c-0.059,0.159-0.127,0.356-0.206,0.591l-0.087-0.176c0.008-0.038,0.024-0.099,0.049-0.183    C63.99,6.553,64,6.521,64.004,6.5c0.005-0.013,0.01-0.027,0.016-0.044c0.007-0.017,0.014-0.034,0.022-0.05    c0.013-0.038,0.028-0.088,0.05-0.151s0.046-0.139,0.075-0.227c0.229-0.625,0.464-0.937,0.705-0.937    c0.237,0,0.387,0.036,0.449,0.107c0.063,0.075,0.094,0.232,0.094,0.472c0.221-0.398,0.521-0.598,0.899-0.598    c0.195,0,0.367,0.042,0.518,0.126c0.166,0.109,0.271,0.264,0.313,0.465c0.229-0.394,0.538-0.591,0.93-0.591    c0.229,0,0.414,0.048,0.555,0.145c0.18,0.126,0.27,0.306,0.27,0.541v1.679c0,0.143,0.008,0.231,0.024,0.265    c0.021,0.092,0.087,0.138,0.2,0.138c0.111,0,0.23-0.183,0.355-0.547c0.016-0.063,0.029-0.103,0.037-0.12    c0.017-0.046,0.031-0.09,0.044-0.132c0.013-0.038,0.019-0.059,0.019-0.063c0.008-0.013,0.017-0.036,0.025-0.069    c0.008-0.021,0.016-0.042,0.024-0.063s0.019-0.044,0.031-0.069l0.101,0.195c-0.055,0.134-0.101,0.258-0.138,0.371    c-0.013,0.042-0.025,0.079-0.038,0.11c-0.012,0.031-0.021,0.056-0.024,0.072c-0.005,0.021-0.015,0.052-0.031,0.094    c-0.005,0.017-0.009,0.033-0.016,0.047s-0.009,0.028-0.009,0.041c-0.146,0.227-0.383,0.34-0.713,0.34    c-0.137,0-0.238-0.031-0.305-0.094c-0.125-0.088-0.188-0.206-0.188-0.353V5.827c0-0.13-0.021-0.241-0.063-0.333    c-0.063-0.113-0.164-0.17-0.307-0.17c-0.148,0-0.293,0.048-0.43,0.145c-0.184,0.126-0.303,0.296-0.355,0.51V8.047z"/>
	</g>
	<path class="st5" d="M32.4,52.9c0,0,3.9,2.9,9.3,0"/>
	<path class="st5" d="M15.6,52.9c0,0,7.1,3.2,15.8,0"/>
	<g class="st2">
		<path class="st6" d="M43.419,61.771v0.402h-1.448v0.604c0,0.25,0.002,0.471,0.005,0.66c0.003,0.191,0.014,0.336,0.033,0.435    h-0.549c0.019-0.101,0.029-0.246,0.033-0.437c0.003-0.19,0.005-0.41,0.005-0.658v-1.824c0-0.111-0.001-0.215-0.004-0.311    c-0.002-0.095-0.006-0.18-0.011-0.255s-0.012-0.139-0.022-0.188h2.172v0.414h-1.66v1.158H43.419z"/>
		<path class="st6" d="M44.168,62.602c0-0.217,0.032-0.408,0.097-0.575s0.152-0.308,0.262-0.423c0.11-0.114,0.238-0.201,0.384-0.26    c0.147-0.059,0.302-0.088,0.467-0.088c0.172,0,0.328,0.029,0.471,0.088s0.264,0.146,0.367,0.26    c0.102,0.115,0.182,0.256,0.238,0.423s0.084,0.358,0.084,0.575s-0.031,0.408-0.097,0.574s-0.152,0.305-0.263,0.417    c-0.109,0.112-0.238,0.198-0.385,0.255c-0.146,0.059-0.301,0.088-0.467,0.088c-0.171,0-0.328-0.029-0.47-0.088    c-0.142-0.057-0.264-0.143-0.367-0.255s-0.182-0.251-0.238-0.417C44.196,63.01,44.168,62.818,44.168,62.602z M44.63,62.602    c0,0.146,0.017,0.277,0.052,0.393s0.084,0.213,0.148,0.293s0.14,0.141,0.228,0.183c0.089,0.042,0.188,0.063,0.295,0.063    c0.1,0,0.193-0.021,0.282-0.063s0.165-0.103,0.231-0.183c0.065-0.08,0.117-0.178,0.154-0.293s0.057-0.246,0.057-0.393    c0-0.147-0.018-0.279-0.053-0.396c-0.035-0.116-0.084-0.215-0.148-0.297c-0.064-0.081-0.141-0.143-0.23-0.186    c-0.088-0.043-0.186-0.064-0.293-0.064c-0.102,0-0.196,0.021-0.284,0.064c-0.088,0.043-0.165,0.104-0.23,0.186    c-0.065,0.082-0.116,0.181-0.153,0.297C44.648,62.322,44.63,62.454,44.63,62.602z"/>
		<path class="st6" d="M47.164,63.872v-1.548c0-0.248-0.014-0.458-0.041-0.63s-0.056-0.302-0.084-0.389h0.449    c0.02,0.047,0.038,0.106,0.054,0.178s0.029,0.15,0.04,0.237c0.011,0.088,0.019,0.181,0.023,0.279c0.006,0.1,0.008,0.199,0.008,0.3    v0.163c0.085-0.236,0.168-0.432,0.25-0.588c0.081-0.154,0.162-0.278,0.243-0.371c0.081-0.092,0.161-0.156,0.243-0.193    s0.165-0.055,0.25-0.055c0.063,0,0.121,0.006,0.174,0.018c0.054,0.012,0.107,0.031,0.163,0.058l-0.075,0.466    c-0.049-0.021-0.09-0.034-0.127-0.041c-0.037-0.006-0.082-0.01-0.135-0.01c-0.068,0-0.141,0.029-0.215,0.087    c-0.075,0.058-0.148,0.134-0.221,0.229s-0.142,0.205-0.207,0.325c-0.064,0.12-0.121,0.245-0.17,0.371s-0.088,0.251-0.117,0.371    s-0.045,0.228-0.045,0.321c0,0.043,0.001,0.081,0.002,0.117c0.001,0.035,0.004,0.068,0.008,0.102    c0.004,0.032,0.01,0.064,0.016,0.098c0.007,0.033,0.016,0.067,0.025,0.104H47.164z"/>
		<path class="st6" d="M50.534,61.256c0.166,0,0.31,0.02,0.431,0.059s0.227,0.092,0.318,0.154l-0.088,0.453    c-0.113-0.084-0.225-0.146-0.337-0.188c-0.111-0.042-0.231-0.063-0.362-0.063c-0.111,0-0.215,0.021-0.311,0.064    s-0.179,0.105-0.25,0.186c-0.07,0.08-0.125,0.18-0.166,0.297c-0.039,0.117-0.06,0.25-0.06,0.397c0,0.136,0.019,0.259,0.056,0.37    c0.036,0.11,0.088,0.205,0.156,0.285s0.15,0.141,0.248,0.186c0.096,0.043,0.205,0.064,0.326,0.064    c0.152,0,0.289-0.025,0.412-0.078c0.123-0.052,0.24-0.126,0.35-0.224l0.051,0.44c-0.064,0.049-0.127,0.09-0.189,0.125    c-0.063,0.034-0.127,0.063-0.195,0.085s-0.143,0.04-0.221,0.05c-0.078,0.012-0.164,0.018-0.256,0.018    c-0.169,0-0.326-0.03-0.473-0.09S49.7,63.7,49.59,63.588c-0.109-0.112-0.195-0.248-0.26-0.408    c-0.063-0.158-0.094-0.34-0.094-0.541c0-0.189,0.029-0.367,0.09-0.535c0.062-0.168,0.148-0.314,0.26-0.44    c0.113-0.126,0.25-0.226,0.41-0.298C50.156,61.292,50.336,61.256,50.534,61.256z"/>
		<path class="st6" d="M52.98,61.256c0.137,0,0.258,0.016,0.362,0.049s0.196,0.078,0.272,0.136s0.141,0.126,0.191,0.202    c0.053,0.078,0.094,0.16,0.124,0.25c0.031,0.088,0.054,0.182,0.066,0.277c0.013,0.097,0.021,0.191,0.021,0.285v0.099    c0,0.042-0.002,0.075-0.003,0.099h-1.771c0.006,0.146,0.028,0.275,0.068,0.385c0.041,0.109,0.098,0.199,0.168,0.27    c0.07,0.072,0.154,0.125,0.25,0.16s0.199,0.053,0.313,0.053c0.162,0,0.32-0.018,0.475-0.055s0.309-0.103,0.462-0.197l0.05,0.416    c-0.088,0.045-0.174,0.084-0.26,0.115c-0.084,0.032-0.17,0.059-0.254,0.078c-0.086,0.021-0.172,0.035-0.259,0.044    s-0.179,0.015-0.276,0.015c-0.159,0-0.312-0.029-0.457-0.085c-0.145-0.056-0.271-0.14-0.381-0.249    c-0.11-0.109-0.197-0.246-0.263-0.408c-0.065-0.163-0.097-0.352-0.097-0.566c0-0.208,0.027-0.396,0.083-0.564    c0.056-0.17,0.136-0.313,0.238-0.434c0.104-0.119,0.229-0.212,0.377-0.276C52.63,61.287,52.797,61.256,52.98,61.256z     M52.943,61.633c-0.184,0-0.332,0.055-0.449,0.162c-0.117,0.108-0.193,0.276-0.229,0.505h1.304c0-0.107-0.016-0.202-0.047-0.286    c-0.031-0.082-0.074-0.152-0.13-0.21c-0.056-0.057-0.122-0.1-0.198-0.128C53.117,61.646,53.033,61.633,52.943,61.633z"/>
	</g>
	<g class="st2">
		<path class="st6" d="M4.065,60.092H5.5v0.164H4.895c-0.132,0-0.222,0.043-0.27,0.128c-0.026,0.048-0.04,0.108-0.04,0.185v4.619    c0,0.102,0.014,0.178,0.043,0.229c0.05,0.088,0.146,0.131,0.29,0.131H5.5v0.174H4.065V60.092z"/>
		<path class="st6" d="M7.281,63.985c0,0.315,0.137,0.499,0.411,0.554c0.112,0.021,0.168,0.044,0.168,0.064    c-0.023,0.055-0.172,0.083-0.445,0.083H6.579c-0.134,0-0.203-0.028-0.205-0.083c-0.001-0.016,0.034-0.037,0.106-0.062    c0.047-0.017,0.095-0.034,0.143-0.05c0.124-0.063,0.187-0.236,0.187-0.521V62.15c0-0.258-0.077-0.406-0.231-0.443    c-0.063-0.008-0.126-0.016-0.19-0.025c-0.096-0.016-0.145-0.035-0.145-0.06c0-0.017,0.106-0.052,0.319-0.103l0.198-0.049    c0.024-0.006,0.108-0.039,0.251-0.098c0.122-0.05,0.198-0.074,0.227-0.074c0.032,0.011,0.048,0.107,0.048,0.289    c0,0.043-0.002,0.094-0.007,0.152v0.102c0.004,0.087,0.02,0.131,0.047,0.131c0.011,0,0.066-0.049,0.167-0.148    c0.06-0.058,0.12-0.116,0.18-0.176c0.205-0.179,0.449-0.268,0.73-0.267c0.213,0.001,0.406,0.112,0.578,0.333    c0.085,0.129,0.172,0.259,0.261,0.389c-0.167,0,0.008-0.188,0.526-0.564c0.146-0.104,0.312-0.157,0.496-0.157    c0.3,0,0.536,0.092,0.709,0.274c0.173,0.183,0.26,0.426,0.26,0.729v1.621c0,0.313,0.105,0.492,0.316,0.538    c0.088,0.021,0.135,0.044,0.14,0.073c0,0.041-0.138,0.063-0.415,0.063h-0.737c-0.16,0-0.239-0.027-0.238-0.084    c0-0.016,0.037-0.033,0.111-0.054c0.049-0.013,0.098-0.024,0.146-0.038c0.132-0.055,0.198-0.213,0.198-0.479V62.59    c0-0.559-0.211-0.84-0.634-0.844c-0.374-0.004-0.633,0.121-0.777,0.372c-0.059,0.103-0.088,0.198-0.088,0.287v1.613    c0,0.252,0.071,0.407,0.213,0.465c0,0.001,0.05,0.015,0.151,0.04c0.08,0.021,0.12,0.039,0.12,0.053c0,0.073-0.127,0.11-0.381,0.11    H8.746c-0.264,0-0.396-0.03-0.396-0.091c0.063-0.027,0.145-0.066,0.245-0.113c0.123-0.068,0.185-0.228,0.185-0.477v-1.443    c0-0.566-0.239-0.85-0.716-0.85c-0.214,0-0.397,0.072-0.549,0.218c-0.155,0.147-0.233,0.329-0.233,0.544V63.985z"/>
		<path class="st6" d="M13.862,65.721h-1.438v-0.167h0.609c0.204,0,0.306-0.103,0.306-0.309v-4.623c0-0.237-0.11-0.355-0.33-0.355    h-0.586v-0.175h1.438V65.721z"/>
	</g>
	<g class="st2">
		<path class="st6" d="M44.039,68.819l-0.307-0.364c0.258-0.164,0.484-0.363,0.677-0.598s0.322-0.475,0.387-0.721    c-0.158,0.099-0.344,0.148-0.557,0.148c-0.266,0-0.495-0.1-0.685-0.3c-0.191-0.2-0.286-0.439-0.286-0.72    c0-0.291,0.102-0.539,0.305-0.742s0.451-0.305,0.744-0.305c0.33,0,0.599,0.121,0.809,0.36c0.21,0.239,0.314,0.548,0.314,0.923    c0,0.426-0.131,0.857-0.395,1.293C44.782,68.229,44.447,68.571,44.039,68.819z M44.893,66.636c0.02-0.134,0.03-0.222,0.03-0.262    c0-0.203-0.056-0.369-0.168-0.498c-0.112-0.13-0.257-0.194-0.433-0.194c-0.162,0-0.295,0.056-0.401,0.166    c-0.105,0.109-0.158,0.247-0.158,0.413c0,0.153,0.057,0.284,0.172,0.396c0.115,0.11,0.252,0.166,0.412,0.166    C44.533,66.822,44.715,66.76,44.893,66.636z"/>
		<path class="st6" d="M46.561,66.734h0.03c0.218,0,0.384-0.046,0.498-0.137c0.114-0.09,0.171-0.223,0.171-0.395    c0-0.156-0.055-0.283-0.166-0.38c-0.11-0.098-0.256-0.146-0.436-0.146c-0.182,0-0.383,0.057-0.604,0.17v-0.48    c0.203-0.102,0.424-0.152,0.664-0.152c0.32,0,0.574,0.084,0.76,0.254c0.186,0.168,0.278,0.4,0.278,0.693    c0,0.178-0.036,0.327-0.107,0.449c-0.071,0.121-0.186,0.225-0.342,0.313c0.136,0.054,0.235,0.119,0.3,0.197    c0.063,0.078,0.111,0.173,0.146,0.283c0.035,0.111,0.053,0.229,0.053,0.354c0,0.307-0.102,0.561-0.305,0.761    s-0.459,0.301-0.769,0.301c-0.265,0-0.521-0.064-0.767-0.193v-0.549c0.263,0.166,0.519,0.249,0.767,0.249    c0.168,0,0.304-0.051,0.405-0.15c0.103-0.102,0.154-0.234,0.154-0.4c0-0.139-0.043-0.261-0.128-0.365    c-0.05-0.059-0.105-0.102-0.166-0.129s-0.192-0.055-0.394-0.08l-0.045-0.004V66.734z"/>
		<path class="st6" d="M50.521,65.225c0.215,0,0.397,0.076,0.55,0.23c0.15,0.154,0.227,0.34,0.227,0.557    c0,0.215-0.076,0.399-0.229,0.554s-0.335,0.231-0.548,0.231s-0.396-0.077-0.548-0.231s-0.229-0.339-0.229-0.554    c0-0.217,0.076-0.402,0.227-0.557C50.123,65.301,50.306,65.225,50.521,65.225z M52.287,65.215h0.385l-2.293,3.604h-0.385    L52.287,65.215z M50.514,65.606c-0.111,0-0.205,0.04-0.285,0.119c-0.078,0.079-0.117,0.175-0.117,0.288    c0,0.109,0.039,0.204,0.119,0.283c0.08,0.078,0.174,0.117,0.283,0.117c0.111,0,0.207-0.039,0.285-0.117    c0.079-0.079,0.119-0.174,0.119-0.283c0-0.114-0.039-0.211-0.117-0.289S50.627,65.606,50.514,65.606z M52.167,67.25    c0.213,0,0.396,0.076,0.548,0.23c0.153,0.152,0.23,0.337,0.23,0.552c0,0.214-0.076,0.397-0.229,0.547    c-0.152,0.15-0.336,0.226-0.55,0.226c-0.216,0-0.399-0.075-0.552-0.226c-0.152-0.149-0.229-0.333-0.229-0.547    c0-0.216,0.076-0.401,0.229-0.554S51.953,67.25,52.167,67.25z M52.162,67.632c-0.109,0-0.203,0.04-0.28,0.118    s-0.116,0.173-0.116,0.283c0,0.112,0.039,0.208,0.116,0.287c0.077,0.08,0.171,0.119,0.28,0.119c0.113,0,0.208-0.039,0.286-0.117    c0.078-0.079,0.116-0.176,0.116-0.289c0-0.111-0.038-0.207-0.116-0.285C52.37,67.671,52.275,67.632,52.162,67.632z"/>
	</g>
	<g class="st2">
		<path class="st7" d="M45.334,5.469l1.79,5.263l1.81-5.263h0.916c0.033,0.998,0.066,1.915,0.1,2.75    c0.008,0.238,0.018,0.476,0.029,0.715c0.011,0.239,0.021,0.472,0.033,0.7c0.011,0.228,0.021,0.444,0.033,0.65    s0.021,0.394,0.031,0.564s0.02,0.319,0.031,0.447c0.011,0.127,0.021,0.226,0.033,0.295h-0.77l-0.117-5.023l-1.714,5.023h-0.812    l-1.723-5.011l-0.129,5.011h-0.77c0.009-0.07,0.018-0.168,0.029-0.295c0.011-0.127,0.021-0.276,0.031-0.447    s0.02-0.358,0.031-0.564s0.022-0.422,0.033-0.65c0.011-0.228,0.021-0.461,0.031-0.7c0.01-0.239,0.02-0.478,0.031-0.715    c0.033-0.835,0.068-1.752,0.104-2.75H45.334z"/>
	</g>
	<g class="st2">
		<path class="st7" d="M29.303,37.966h-3.233V27.927c0-1.092-0.041-1.976-0.122-2.651c-0.082-0.675-0.219-1.203-0.411-1.585    c-0.192-0.381-0.452-0.637-0.778-0.766c-0.326-0.129-0.734-0.194-1.223-0.194c-0.431,0-0.863,0.088-1.293,0.264    c-0.431,0.176-0.842,0.426-1.232,0.749c-0.391,0.323-0.751,0.705-1.083,1.145s-0.615,0.924-0.848,1.453v11.624h-3.233V27.135    c0-1.738-0.099-3.208-0.297-4.412c-0.198-1.203-0.391-2.11-0.577-2.721h3.146c0.128,0.376,0.239,0.819,0.332,1.33    s0.169,0.978,0.228,1.4c0.536-0.622,1.048-1.133,1.538-1.532c0.489-0.399,0.976-0.713,1.459-0.942    c0.483-0.229,0.964-0.388,1.442-0.476c0.478-0.088,0.967-0.132,1.468-0.132c0.571,0,1.089,0.083,1.555,0.247    c0.466,0.165,0.877,0.382,1.232,0.652c0.355,0.27,0.661,0.584,0.917,0.942c0.256,0.358,0.454,0.73,0.594,1.118    c0.547-0.599,1.077-1.089,1.59-1.471c0.512-0.381,1.014-0.681,1.503-0.898s0.97-0.37,1.441-0.458    c0.472-0.088,0.935-0.132,1.39-0.132c0.885,0,1.631,0.144,2.237,0.432c0.606,0.288,1.092,0.713,1.459,1.277    c0.367,0.563,0.629,1.262,0.786,2.096c0.157,0.834,0.236,1.796,0.236,2.889v11.624h-3.233v-9.687c0-1.139-0.041-2.066-0.122-2.783    c-0.082-0.716-0.219-1.279-0.411-1.69c-0.192-0.411-0.451-0.693-0.777-0.846c-0.327-0.152-0.734-0.229-1.224-0.229    c-0.431,0-0.856,0.085-1.275,0.255c-0.419,0.17-0.825,0.411-1.215,0.722c-0.391,0.312-0.751,0.69-1.083,1.136    s-0.626,0.945-0.882,1.497V37.966z"/>
	</g>
	<g class="st2">
		<path class="st7" d="M9.761,11.647h-0.87V8.391c0-0.191-0.034-0.354-0.101-0.489c-0.104-0.166-0.25-0.249-0.439-0.249    c-0.263,0-0.507,0.114-0.732,0.341c-0.226,0.24-0.357,0.52-0.394,0.84v2.813H6.383V8.778V8.381c0-0.123-0.006-0.289-0.019-0.498    c-0.03-0.092-0.076-0.148-0.137-0.167c-0.128,0-0.311,0.305-0.549,0.914c-0.055,0.129-0.125,0.311-0.21,0.544    c-0.085,0.233-0.186,0.522-0.302,0.867L5.038,9.784C5.05,9.728,5.074,9.639,5.111,9.516c0.024-0.062,0.04-0.108,0.046-0.139    C5.163,9.359,5.17,9.338,5.18,9.313c0.009-0.024,0.02-0.049,0.032-0.074C5.23,9.184,5.254,9.11,5.285,9.018    c0.031-0.092,0.067-0.203,0.11-0.332C5.73,7.77,6.075,7.311,6.429,7.311c0.348,0,0.567,0.052,0.659,0.157    C7.18,7.579,7.226,7.809,7.226,8.16c0.323-0.584,0.763-0.876,1.318-0.876c0.287,0,0.54,0.062,0.76,0.184    C9.547,7.628,9.7,7.855,9.761,8.15c0.335-0.578,0.79-0.867,1.364-0.867c0.335,0,0.607,0.07,0.815,0.212    c0.262,0.185,0.394,0.449,0.394,0.793v2.463c0,0.209,0.012,0.338,0.037,0.388c0.03,0.135,0.128,0.203,0.293,0.203    c0.165,0,0.339-0.268,0.521-0.803c0.024-0.092,0.043-0.151,0.055-0.175c0.024-0.068,0.046-0.132,0.064-0.194    c0.019-0.055,0.027-0.086,0.027-0.092c0.012-0.019,0.024-0.052,0.037-0.102c0.012-0.031,0.024-0.061,0.037-0.092    c0.012-0.03,0.028-0.064,0.046-0.101l0.146,0.286c-0.079,0.197-0.146,0.378-0.201,0.544c-0.019,0.062-0.037,0.115-0.055,0.162    c-0.018,0.046-0.031,0.082-0.037,0.106c-0.006,0.031-0.021,0.077-0.046,0.138c-0.006,0.025-0.014,0.048-0.022,0.069    c-0.009,0.021-0.014,0.042-0.014,0.06c-0.213,0.332-0.562,0.498-1.043,0.498c-0.201,0-0.351-0.046-0.448-0.138    c-0.183-0.129-0.275-0.301-0.275-0.517V8.391c0-0.191-0.031-0.354-0.091-0.489c-0.092-0.166-0.241-0.249-0.449-0.249    c-0.22,0-0.43,0.071-0.632,0.212C10.014,8.049,9.84,8.298,9.761,8.612V11.647z"/>
	</g>
	<g>
		<g class="st2">
			<path class="st3" d="M68.473,18.699h-1.002v-3.107c0-0.338-0.012-0.611-0.037-0.82s-0.068-0.373-0.127-0.491     c-0.06-0.118-0.141-0.197-0.24-0.237c-0.102-0.04-0.229-0.06-0.379-0.06c-0.134,0-0.268,0.027-0.4,0.082     c-0.134,0.055-0.261,0.132-0.382,0.232c-0.12,0.1-0.232,0.218-0.335,0.354c-0.104,0.136-0.19,0.286-0.263,0.45v3.598h-1.001     v-3.353c0-0.538-0.03-0.993-0.092-1.366c-0.061-0.372-0.121-0.653-0.178-0.842h0.973c0.04,0.116,0.074,0.253,0.104,0.411     c0.028,0.158,0.052,0.303,0.07,0.434c0.166-0.192,0.324-0.351,0.476-0.474s0.302-0.221,0.452-0.292     c0.149-0.071,0.298-0.12,0.445-0.147c0.148-0.027,0.3-0.041,0.455-0.041c0.177,0,0.337,0.025,0.481,0.077     c0.144,0.051,0.271,0.118,0.382,0.202c0.109,0.083,0.204,0.181,0.283,0.292c0.08,0.111,0.141,0.226,0.184,0.346     c0.17-0.186,0.334-0.337,0.492-0.455c0.159-0.118,0.314-0.211,0.466-0.278c0.151-0.067,0.3-0.114,0.446-0.142     s0.289-0.041,0.43-0.041c0.274,0,0.505,0.044,0.693,0.134c0.188,0.089,0.338,0.221,0.451,0.395s0.194,0.391,0.243,0.649     c0.049,0.258,0.073,0.556,0.073,0.894v3.598h-1.001v-2.998c0-0.353-0.013-0.64-0.038-0.861s-0.067-0.396-0.127-0.523     c-0.06-0.127-0.14-0.214-0.24-0.262c-0.102-0.047-0.228-0.071-0.379-0.071c-0.133,0-0.266,0.026-0.395,0.079     c-0.131,0.053-0.256,0.127-0.377,0.224c-0.12,0.096-0.232,0.213-0.335,0.352s-0.194,0.292-0.272,0.463V18.699z"/>
		</g>
		<g class="st2">
			<path class="st8" d="M77.403,18.699h-1.001v-3.107c0-0.338-0.013-0.611-0.037-0.82c-0.025-0.209-0.068-0.373-0.127-0.491     c-0.061-0.118-0.141-0.197-0.241-0.237s-0.228-0.06-0.379-0.06c-0.134,0-0.267,0.027-0.4,0.082     c-0.134,0.055-0.261,0.132-0.382,0.232c-0.12,0.1-0.232,0.218-0.335,0.354c-0.103,0.136-0.19,0.286-0.263,0.45v3.598h-1v-3.353     c0-0.538-0.031-0.993-0.092-1.366c-0.062-0.372-0.121-0.653-0.179-0.842h0.974c0.039,0.116,0.074,0.253,0.103,0.411     c0.028,0.158,0.052,0.303,0.07,0.434c0.166-0.192,0.325-0.351,0.476-0.474c0.152-0.124,0.303-0.221,0.452-0.292     c0.149-0.071,0.298-0.12,0.446-0.147s0.299-0.041,0.455-0.041c0.176,0,0.336,0.025,0.48,0.077     c0.145,0.051,0.271,0.118,0.382,0.202c0.11,0.083,0.204,0.181,0.284,0.292c0.079,0.111,0.141,0.226,0.184,0.346     c0.17-0.186,0.334-0.337,0.492-0.455s0.314-0.211,0.465-0.278c0.152-0.067,0.301-0.114,0.447-0.142     c0.146-0.027,0.289-0.041,0.43-0.041c0.273,0,0.504,0.044,0.692,0.134c0.188,0.089,0.338,0.221,0.452,0.395     c0.113,0.174,0.193,0.391,0.242,0.649c0.049,0.258,0.074,0.556,0.074,0.894v3.598h-1.002v-2.998c0-0.353-0.012-0.64-0.037-0.861     s-0.068-0.396-0.127-0.523c-0.061-0.127-0.141-0.214-0.241-0.262s-0.228-0.071-0.378-0.071c-0.134,0-0.266,0.026-0.396,0.079     s-0.255,0.127-0.376,0.224c-0.121,0.096-0.232,0.213-0.336,0.352c-0.102,0.138-0.193,0.292-0.272,0.463V18.699z"/>
		</g>
		<g class="st2">
			<path class="st9" d="M61.188,22.259c0.355,0,0.627,0.117,0.816,0.351c0.188,0.234,0.282,0.581,0.282,1.042v2.097H61.67v-1.845     c0-0.21-0.014-0.383-0.041-0.52c-0.027-0.136-0.069-0.244-0.125-0.324c-0.056-0.079-0.125-0.134-0.208-0.166     c-0.083-0.031-0.181-0.047-0.292-0.047c-0.119,0-0.236,0.029-0.351,0.085c-0.114,0.057-0.22,0.131-0.314,0.222     c-0.096,0.09-0.18,0.193-0.253,0.307c-0.073,0.114-0.128,0.229-0.163,0.342v1.946h-0.616v-3.791c0-0.362-0.002-0.68-0.006-0.951     c-0.005-0.272-0.02-0.48-0.044-0.625h0.666v2.583c0.164-0.235,0.356-0.411,0.579-0.528     C60.724,22.317,60.953,22.259,61.188,22.259z"/>
		</g>
		<g class="st2">
			<path class="st10" d="M63.011,24.053c0-0.288,0.043-0.544,0.13-0.766c0.086-0.223,0.203-0.411,0.35-0.564     c0.146-0.153,0.316-0.269,0.512-0.347c0.195-0.078,0.403-0.117,0.623-0.117c0.229,0,0.438,0.039,0.627,0.117     c0.19,0.079,0.354,0.194,0.49,0.347c0.137,0.153,0.242,0.341,0.317,0.564c0.075,0.222,0.113,0.478,0.113,0.766     c0,0.289-0.043,0.543-0.13,0.765c-0.086,0.221-0.203,0.407-0.35,0.557c-0.146,0.15-0.317,0.264-0.512,0.341     c-0.195,0.077-0.403,0.116-0.623,0.116c-0.229,0-0.438-0.039-0.627-0.116c-0.19-0.077-0.354-0.191-0.49-0.341     c-0.137-0.149-0.242-0.335-0.318-0.557C63.049,24.597,63.011,24.342,63.011,24.053z M63.627,24.053     c0,0.195,0.023,0.369,0.069,0.523s0.112,0.285,0.198,0.391c0.086,0.106,0.188,0.187,0.305,0.243     c0.117,0.056,0.248,0.084,0.393,0.084c0.133,0,0.258-0.028,0.376-0.084c0.118-0.056,0.22-0.137,0.308-0.243     c0.088-0.106,0.156-0.237,0.207-0.391c0.05-0.154,0.074-0.329,0.074-0.523c0-0.196-0.023-0.373-0.069-0.528     c-0.047-0.155-0.112-0.287-0.198-0.396s-0.188-0.191-0.307-0.249c-0.118-0.057-0.248-0.085-0.391-0.085     c-0.135,0-0.262,0.029-0.379,0.085c-0.118,0.057-0.221,0.14-0.307,0.249c-0.087,0.108-0.154,0.24-0.205,0.396     C63.651,23.681,63.627,23.857,63.627,24.053z"/>
		</g>
		<g class="st2">
			<path class="st3" d="M70.496,25.748h-0.77v-2.39c0-0.26-0.01-0.47-0.029-0.631c-0.02-0.161-0.052-0.286-0.098-0.377     c-0.045-0.091-0.107-0.152-0.186-0.183c-0.077-0.031-0.174-0.046-0.291-0.046c-0.102,0-0.205,0.021-0.308,0.063     s-0.2,0.102-0.294,0.178c-0.092,0.077-0.178,0.168-0.258,0.273c-0.078,0.104-0.146,0.22-0.201,0.346v2.768h-0.77v-2.579     c0-0.414-0.023-0.764-0.071-1.051c-0.047-0.287-0.093-0.502-0.138-0.648h0.75c0.03,0.09,0.057,0.195,0.078,0.317     c0.022,0.122,0.041,0.232,0.055,0.333c0.127-0.148,0.25-0.27,0.366-0.365c0.116-0.095,0.231-0.169,0.347-0.224     s0.23-0.092,0.344-0.113s0.23-0.031,0.35-0.031c0.136,0,0.26,0.02,0.371,0.059c0.11,0.039,0.208,0.091,0.293,0.155     c0.084,0.064,0.157,0.139,0.219,0.224c0.061,0.085,0.107,0.174,0.141,0.266c0.131-0.143,0.257-0.259,0.379-0.35     s0.241-0.162,0.357-0.214c0.117-0.051,0.231-0.088,0.344-0.109s0.223-0.031,0.33-0.031c0.211,0,0.389,0.034,0.533,0.103     s0.26,0.17,0.348,0.304s0.149,0.3,0.188,0.499c0.037,0.198,0.056,0.428,0.056,0.688v2.768h-0.77v-2.306     c0-0.271-0.01-0.492-0.029-0.663s-0.052-0.305-0.098-0.403c-0.046-0.098-0.107-0.165-0.185-0.201     c-0.078-0.036-0.176-0.054-0.292-0.054c-0.103,0-0.204,0.02-0.304,0.061s-0.196,0.098-0.289,0.172     c-0.094,0.074-0.18,0.165-0.258,0.271c-0.08,0.106-0.149,0.225-0.211,0.356V25.748z"/>
		</g>
		<g class="st2">
			<path class="st8" d="M77.442,25.748h-0.771v-2.39c0-0.26-0.01-0.47-0.028-0.631c-0.02-0.161-0.052-0.286-0.098-0.377     s-0.108-0.152-0.186-0.183s-0.175-0.046-0.291-0.046c-0.103,0-0.206,0.021-0.308,0.063c-0.104,0.042-0.201,0.102-0.294,0.178     c-0.093,0.077-0.179,0.168-0.258,0.273c-0.079,0.104-0.146,0.22-0.202,0.346v2.768h-0.77v-2.579c0-0.414-0.023-0.764-0.07-1.051     s-0.094-0.502-0.138-0.648h0.749c0.031,0.09,0.057,0.195,0.079,0.317s0.04,0.232,0.054,0.333c0.128-0.148,0.25-0.27,0.367-0.365     c0.115-0.095,0.231-0.169,0.347-0.224s0.229-0.092,0.343-0.113c0.114-0.021,0.23-0.031,0.35-0.031c0.137,0,0.26,0.02,0.371,0.059     s0.209,0.091,0.293,0.155c0.085,0.064,0.158,0.139,0.219,0.224c0.061,0.085,0.107,0.174,0.141,0.266     c0.131-0.143,0.258-0.259,0.379-0.35c0.123-0.091,0.242-0.162,0.358-0.214c0.116-0.051,0.231-0.088,0.343-0.109     c0.113-0.021,0.223-0.031,0.331-0.031c0.211,0,0.389,0.034,0.532,0.103c0.145,0.068,0.261,0.17,0.348,0.304     c0.088,0.134,0.15,0.3,0.188,0.499c0.037,0.198,0.057,0.428,0.057,0.688v2.768h-0.77v-2.306c0-0.271-0.01-0.492-0.029-0.663     s-0.053-0.305-0.098-0.403c-0.047-0.098-0.107-0.165-0.186-0.201c-0.078-0.036-0.175-0.054-0.291-0.054     c-0.104,0-0.205,0.02-0.305,0.061s-0.195,0.098-0.289,0.172c-0.093,0.074-0.179,0.165-0.258,0.271     c-0.079,0.106-0.148,0.225-0.21,0.356V25.748z"/>
		</g>
		<g class="st2">
			<path class="st10" d="M82.47,22.259c0.183,0,0.343,0.022,0.483,0.065c0.139,0.043,0.26,0.104,0.362,0.181s0.188,0.167,0.257,0.27     c0.068,0.103,0.123,0.213,0.164,0.332s0.07,0.242,0.088,0.371c0.018,0.129,0.027,0.256,0.027,0.381v0.131     c0,0.056-0.002,0.1-0.004,0.131h-2.359c0.006,0.197,0.037,0.368,0.091,0.513c0.055,0.146,0.129,0.266,0.224,0.361     c0.094,0.095,0.205,0.166,0.332,0.213c0.128,0.047,0.268,0.07,0.418,0.07c0.215,0,0.426-0.024,0.633-0.074     c0.206-0.049,0.412-0.136,0.615-0.262l0.066,0.554c-0.117,0.06-0.232,0.112-0.346,0.154s-0.227,0.077-0.34,0.104     s-0.228,0.046-0.344,0.059c-0.117,0.012-0.239,0.019-0.368,0.019c-0.213,0-0.416-0.038-0.609-0.112     c-0.192-0.075-0.362-0.186-0.509-0.333c-0.146-0.146-0.264-0.328-0.35-0.545c-0.087-0.217-0.13-0.468-0.13-0.755     c0-0.277,0.037-0.528,0.111-0.753s0.181-0.417,0.317-0.577c0.139-0.16,0.306-0.283,0.504-0.369     C82.002,22.302,82.224,22.259,82.47,22.259z M82.42,22.762c-0.244,0-0.443,0.072-0.6,0.217c-0.155,0.144-0.258,0.368-0.307,0.672     h1.738c0-0.143-0.021-0.27-0.062-0.381c-0.041-0.11-0.099-0.204-0.173-0.28c-0.074-0.076-0.163-0.133-0.266-0.171     C82.65,22.781,82.539,22.762,82.42,22.762z"/>
		</g>
		<g class="st2">
			<path class="st6" d="M79.625,28.902h1.881l-1.315,2.963l-0.372-0.158l1.063-2.405h-1.256V28.902z"/>
			<path class="st6" d="M83.484,28.869c0.18,0,0.332,0.064,0.458,0.193c0.126,0.128,0.189,0.283,0.189,0.463     c0,0.179-0.063,0.333-0.19,0.461c-0.127,0.129-0.279,0.193-0.457,0.193s-0.33-0.064-0.457-0.193     c-0.127-0.128-0.189-0.282-0.189-0.461c0-0.181,0.063-0.335,0.189-0.463C83.152,28.933,83.306,28.869,83.484,28.869z      M84.957,28.861h0.32l-1.91,3.004h-0.322L84.957,28.861z M83.479,29.188c-0.093,0-0.172,0.033-0.237,0.1     c-0.066,0.066-0.099,0.146-0.099,0.239c0,0.092,0.033,0.17,0.1,0.236c0.065,0.065,0.146,0.098,0.236,0.098     c0.093,0,0.172-0.033,0.237-0.098c0.066-0.066,0.099-0.145,0.099-0.236c0-0.095-0.032-0.175-0.098-0.24     C83.652,29.22,83.573,29.188,83.479,29.188z M84.856,30.557c0.177,0,0.329,0.064,0.457,0.192s0.191,0.281,0.191,0.46     c0,0.179-0.063,0.331-0.19,0.456c-0.127,0.125-0.279,0.188-0.458,0.188c-0.18,0-0.333-0.063-0.46-0.188     c-0.127-0.125-0.189-0.277-0.189-0.456c0-0.181,0.063-0.334,0.19-0.461C84.525,30.621,84.678,30.557,84.856,30.557z      M84.853,30.875c-0.091,0-0.169,0.033-0.233,0.098s-0.096,0.145-0.096,0.236c0,0.093,0.031,0.173,0.096,0.239     c0.064,0.066,0.143,0.099,0.233,0.099c0.094,0,0.173-0.033,0.238-0.098s0.098-0.146,0.098-0.24c0-0.093-0.032-0.172-0.098-0.237     S84.946,30.875,84.853,30.875z"/>
		</g>
	</g>
	<g class="st2">
		<path class="st7" d="M21.06,51.198h-1.155v-3.587c0-0.389-0.015-0.705-0.043-0.946c-0.029-0.241-0.078-0.43-0.147-0.565    c-0.068-0.137-0.161-0.229-0.278-0.274c-0.116-0.046-0.262-0.069-0.437-0.069c-0.154,0-0.308,0.031-0.462,0.095    c-0.154,0.063-0.301,0.151-0.44,0.267c-0.14,0.116-0.269,0.252-0.387,0.41c-0.119,0.156-0.22,0.33-0.303,0.519v4.152h-1.155    v-3.869c0-0.621-0.036-1.146-0.106-1.576c-0.071-0.431-0.14-0.754-0.206-0.972h1.124c0.045,0.134,0.085,0.292,0.119,0.475    c0.033,0.183,0.06,0.35,0.081,0.5c0.191-0.223,0.375-0.404,0.549-0.547s0.349-0.256,0.521-0.337    c0.172-0.082,0.344-0.139,0.515-0.17c0.17-0.031,0.345-0.048,0.524-0.048c0.204,0,0.389,0.03,0.555,0.089s0.313,0.136,0.44,0.233    c0.127,0.096,0.236,0.208,0.328,0.336c0.092,0.128,0.163,0.262,0.212,0.399c0.195-0.214,0.385-0.39,0.568-0.525    s0.362-0.243,0.537-0.321c0.175-0.077,0.347-0.132,0.515-0.163s0.334-0.048,0.496-0.048c0.316,0,0.583,0.053,0.799,0.154    c0.216,0.104,0.39,0.256,0.521,0.457c0.131,0.201,0.225,0.451,0.281,0.748c0.056,0.299,0.084,0.643,0.084,1.032v4.152h-1.155    v-3.46c0-0.407-0.015-0.738-0.043-0.994c-0.029-0.256-0.078-0.457-0.147-0.604c-0.068-0.146-0.161-0.247-0.278-0.302    s-0.262-0.082-0.437-0.082c-0.154,0-0.306,0.031-0.456,0.092s-0.294,0.146-0.434,0.258s-0.269,0.246-0.387,0.406    c-0.118,0.158-0.224,0.337-0.315,0.534V51.198z"/>
	</g>
	<g class="st2">
		<path class="st10" d="M26.053,48.657c0-0.433,0.065-0.815,0.195-1.149s0.305-0.616,0.524-0.846c0.22-0.23,0.476-0.403,0.769-0.521    c0.293-0.117,0.604-0.176,0.934-0.176c0.343,0,0.657,0.059,0.941,0.176c0.285,0.118,0.529,0.291,0.734,0.521    c0.205,0.229,0.364,0.512,0.477,0.846c0.113,0.334,0.169,0.717,0.169,1.149s-0.065,0.815-0.195,1.147    c-0.129,0.332-0.304,0.61-0.524,0.835s-0.476,0.396-0.769,0.511s-0.604,0.174-0.934,0.174c-0.343,0-0.657-0.059-0.941-0.174    s-0.529-0.286-0.734-0.511c-0.205-0.225-0.364-0.503-0.477-0.835S26.053,49.09,26.053,48.657z M26.977,48.657    c0,0.292,0.035,0.554,0.105,0.784c0.07,0.232,0.169,0.428,0.297,0.587c0.128,0.159,0.281,0.28,0.457,0.364    s0.373,0.127,0.589,0.127c0.2,0,0.388-0.043,0.564-0.127c0.177-0.084,0.331-0.205,0.462-0.364c0.132-0.159,0.235-0.354,0.31-0.587    c0.075-0.23,0.112-0.492,0.112-0.784c0-0.296-0.035-0.56-0.104-0.792c-0.07-0.234-0.169-0.432-0.297-0.594    c-0.128-0.164-0.281-0.287-0.459-0.373c-0.178-0.086-0.374-0.129-0.586-0.129c-0.203,0-0.393,0.043-0.569,0.129    s-0.33,0.209-0.459,0.373c-0.13,0.162-0.232,0.359-0.307,0.594C27.015,48.098,26.977,48.361,26.977,48.657z"/>
	</g>
	<g class="st2">
		<path class="st10" d="M32.278,46.191h0.999v-1.635h0.924v1.635h1.623v0.729h-1.623v2.315c0,0.258,0.012,0.469,0.038,0.633    c0.025,0.165,0.063,0.293,0.115,0.386c0.051,0.093,0.117,0.155,0.197,0.188c0.08,0.033,0.176,0.051,0.29,0.051    c0.143,0,0.305-0.032,0.484-0.096c0.18-0.064,0.379-0.158,0.599-0.282v0.806c-0.23,0.15-0.45,0.256-0.659,0.314    c-0.21,0.059-0.403,0.088-0.579,0.088c-0.197,0-0.379-0.023-0.549-0.068s-0.319-0.125-0.447-0.238    c-0.128-0.114-0.229-0.266-0.302-0.456c-0.073-0.189-0.11-0.431-0.11-0.722v-2.919h-0.999V46.191z"/>
		<path class="st10" d="M36.772,48.657c0-0.433,0.065-0.815,0.195-1.149s0.305-0.616,0.524-0.846c0.22-0.23,0.476-0.403,0.769-0.521    c0.293-0.117,0.604-0.176,0.934-0.176c0.343,0,0.657,0.059,0.941,0.176c0.285,0.118,0.529,0.291,0.734,0.521    c0.205,0.229,0.364,0.512,0.477,0.846c0.113,0.334,0.169,0.717,0.169,1.149s-0.065,0.815-0.195,1.147    c-0.129,0.332-0.304,0.61-0.524,0.835s-0.476,0.396-0.769,0.511s-0.604,0.174-0.934,0.174c-0.343,0-0.657-0.059-0.941-0.174    s-0.529-0.286-0.734-0.511c-0.205-0.225-0.364-0.503-0.477-0.835S36.772,49.09,36.772,48.657z M37.696,48.657    c0,0.292,0.035,0.554,0.105,0.784c0.07,0.232,0.169,0.428,0.297,0.587c0.128,0.159,0.281,0.28,0.457,0.364    s0.373,0.127,0.589,0.127c0.2,0,0.388-0.043,0.564-0.127c0.177-0.084,0.331-0.205,0.462-0.364c0.132-0.159,0.235-0.354,0.31-0.587    c0.075-0.23,0.112-0.492,0.112-0.784c0-0.296-0.035-0.56-0.104-0.792c-0.07-0.234-0.169-0.432-0.297-0.594    c-0.128-0.164-0.281-0.287-0.459-0.373c-0.178-0.086-0.374-0.129-0.586-0.129c-0.203,0-0.393,0.043-0.569,0.129    s-0.33,0.209-0.459,0.373c-0.13,0.162-0.232,0.359-0.307,0.594C37.733,48.098,37.696,48.361,37.696,48.657z"/>
	</g>
	<g>
		<path class="st11" d="M51.7,45c-0.8,0.8-1.1,1.9-1.1,3.2c0,2.5,1.9,4.5,4.3,4.6c2.1,0.1,3.8-1.3,4.4-3.1l0,0l1.3,0.1    c0,0.3,0.2,0.6,0.3,0.8c0.3,0.4,0.9,0.6,1.4,0.6h6c1.7,0.1,2.1-1,2.1-1c0.7,1.6,2.3,2.6,4.2,2.4c2.1-0.2,3.7-1.9,3.9-3.9    c0-0.1,0-0.2,0-0.3c0-1.4-0.7-2.8-1.9-3.5l-0.1-0.1c1.7-0.9-2.2-1.5-2.2-1.5c0.4-0.4,0.1-0.8,0.1-0.8c1.9-0.6,0.4-2.8,0.4-2.8    c-0.7-3-3.9-3.3-3.9-3.3s-1.6-0.1-0.3,1.5c1.4,1.6-1.5,3.2-1.5,3.2c0.1-0.6-0.1-1-0.4-1.1c-0.4-0.2-0.8-0.1-0.9,0.3    c-0.2,0.6,0.5,1,0.5,1c-1-0.2-3.1,0.7-3.1,0.7c-4.3,0.4-5.9-0.8-7.1-1.3c-1-0.4-2.5-1.2-3.4-1.4c0,0-0.7,0.1-1.5,0.1    c-1,0.1-2,0.3-3,0.7l0,0l-1,0.7l3.4,1.5c-1.3,0.7-1.7,3-1.7,3L51.7,45"/>
		<path class="st12" d="M70.5,40.1c0,0,2.5,0.2,4.2-0.3"/>
		<path class="st12" d="M74.7,39.8c0,0-2.2,1.4-0.2,2.9"/>
		<path class="st12" d="M76.6,44.9c-0.1-0.1-1.2,0.3-3.5,0.1"/>
		<line class="st12" x1="73.2" y1="48.1" x2="71.7" y2="45"/>
		<line class="st12" x1="72.8" y1="44.4" x2="74.1" y2="47.3"/>
		<line class="st12" x1="75.5" y1="46" x2="74.8" y2="47.4"/>
		<path class="st12" d="M77,47.9c-0.1,0-1.6,0.2-1.6,0.2"/>
		<line class="st12" x1="76.4" y1="50.2" x2="75.3" y2="49"/>
		<line class="st12" x1="74.3" y1="51.2" x2="74.3" y2="49.5"/>
		<line class="st12" x1="71.8" y1="49.7" x2="73.3" y2="49"/>
		<line class="st12" x1="71.6" y1="47.4" x2="73.1" y2="47.9"/>
		<path class="st12" d="M72.4,46.4c-0.6,0.5-0.9,1.2-0.9,2c0,1.6,1.3,2.8,2.8,2.8s2.8-1.3,2.8-2.8c0-1.6-1.3-2.7-2.8-2.8    c-0.4,0-0.7,0.1-0.9,0.2"/>
		<path class="st12" d="M51.7,45.2c0,0,1.4-2.2,8,0l3,0.9"/>
		<path class="st12" d="M55.2,49.3"/>
		<path class="st12" d="M55.6,51"/>
		<path class="st12" d="M57.5,46.9c-0.4-1.1-1.5-1.6-2.5-1.6c-1.6,0-2.9,1.3-2.9,2.9c0,1.6,1.3,2.9,2.9,2.9c1.1,0,2.1-0.6,2.5-1.5"/>
		<line class="st12" x1="54.9" y1="48.2" x2="54.9" y2="45.3"/>
		<line class="st12" x1="54.9" y1="48.2" x2="57.1" y2="46.1"/>
		<line class="st12" x1="54.9" y1="48.2" x2="52.8" y2="46.4"/>
		<line class="st12" x1="54.9" y1="48.2" x2="52.2" y2="48.7"/>
		<line class="st12" x1="54.9" y1="48.2" x2="53.5" y2="50.6"/>
		<line class="st12" x1="54.9" y1="48.2" x2="55.9" y2="51"/>
		<line class="st12" x1="69.2" y1="41.1" x2="71.3" y2="44"/>
		<path class="st12" d="M68.4,41.3c0,0,0.5,0.3,0.8-0.3"/>
		<path class="st12" d="M63,44c2.4,1.2,5.4,1.1,5.4,1.1s0.1,0.4,0.1,1.1c0,0.8-0.1,2.2-0.7,3.2c0,0-3.3,0.5-6.5-1.3"/>
		<path class="st13" d="M62.3,46.9l-7.4-0.1c-0.7,0-1.2,0.6-1.2,1.3s0.6,1.3,1.3,1.3c1.4,0.1,3.3,0.2,4.7,0.2"/>
		<path class="st12" d="M73.2,48.4c0,0.6,0.5,1.1,1.1,1.1s1.1-0.5,1.1-1.1s-0.5-1.1-1.1-1.1C73.7,47.3,73.2,47.8,73.2,48.4z"/>
		<path class="st12" d="M70.5,50.2c0,0-1.4-3.9,1.7-5.5c2.3-1.2,2.2-1.5,2.2-1.5S69,45.6,65.2,42c0,0-2.7,1.5-2.4,2.9    c0.2,1-0.6,1.9-1,2.4c-0.3,0.3-0.6,0.7-0.8,1.1c-0.3,0.5-0.4,1-0.3,1.3"/>
		<polyline class="st13" points="57.8,44.6 56.4,46.8 57.8,46.8 58.9,44.9   "/>
		<line class="st12" x1="52.6" y1="42.2" x2="55.9" y2="44.2"/>
		<path class="st14" d="M51.7,45c-0.8,0.8-1.1,1.9-1.1,3.2c0,2.5,1.9,4.5,4.3,4.6c2.1,0.1,3.8-1.3,4.4-3.1l0,0l1.3,0.1    c0,0.3,0.2,0.6,0.3,0.8c0.3,0.4,0.9,0.6,1.4,0.6h6c1.7,0.1,2.1-1,2.1-1c0.7,1.6,2.3,2.6,4.2,2.4c2.1-0.2,3.7-1.9,3.9-3.9    c0-0.1,0-0.2,0-0.3c0-1.4-0.7-2.8-1.9-3.5l-0.1-0.1c1.7-0.9-2.2-1.5-2.2-1.5c0.4-0.4,0.1-0.8,0.1-0.8c1.9-0.6,0.4-2.8,0.4-2.8    c-0.7-3-3.9-3.3-3.9-3.3s-1.6-0.1-0.3,1.5c1.4,1.6-1.5,3.2-1.5,3.2c0.1-0.6-0.1-1-0.4-1.1c-0.4-0.2-0.8-0.1-0.9,0.3    c-0.2,0.6,0.5,1,0.5,1c-1-0.2-3.1,0.7-3.1,0.7c-4.3,0.4-5.9-0.8-7.1-1.3c-1-0.4-2.5-1.2-3.4-1.4c0,0-0.7,0.1-1.5,0.1    c-1,0.1-2,0.3-3,0.7l0,0l-1,0.7l3.4,1.5c-1.3,0.7-1.7,3-1.7,3L51.7,45"/>
	</g>
</g>
</svg>