<?xml version="1.0" encoding="UTF-8"?>
<!-- Generator: Adobe Illustrator 24.0.2, SVG Export Plug-In . SVG Version: 6.00 Build 0)  -->
<svg version="1.1" id="Calque_1" xmlns="http://www.w3.org/2000/svg" xmlns:xlink="http://www.w3.org/1999/xlink" x="0px" y="0px" viewBox="0 0 103 67" style="enable-background:new 0 0 103 67;" xml:space="preserve">
<style type="text/css">
	.st0{fill:#FFFFFF;stroke:#9D9D9C;stroke-width:0.7268;stroke-miterlimit:10;}
	.st1{fill:#FFFFFF;stroke:#000000;stroke-width:0.9691;stroke-miterlimit:10;}
	.st2{enable-background:new    ;}
	.st3{fill:#7DB728;}
	.st4{fill:#706F6F;}
	.st5{fill:none;stroke:#B2B2B2;stroke-width:0.3634;stroke-miterlimit:10;}
	.st6{fill:#878787;}
	.st7{fill:#9D9D9C;}
	.st8{fill:#B2B2B2;}
	.st9{fill:#575756;}
	.st10{fill:#E11683;}
	.st11{fill:#B9B8B8;}
	.st12{fill:#FFFFFF;stroke:#B9B8B8;stroke-width:0.1744;stroke-linecap:round;stroke-linejoin:round;stroke-miterlimit:10;}
	.st13{fill:#FFFFFF;stroke:#575756;stroke-width:0.5231;stroke-linecap:round;stroke-linejoin:round;stroke-miterlimit:10;}
	.st14{fill:#E11683;stroke:#575756;stroke-width:0.5231;stroke-linecap:round;stroke-linejoin:round;stroke-miterlimit:10;}
</style>
<g id="_x3C_Groupe_x3E__neige">
	<polygon class="st0" points="85.5,53.3 72.2,53.3 72.2,22.8 102.3,22.8 102.3,53.3 88.3,53.3  "/>
	<path class="st1" d="M51.2,53.4H20.5V0.9h51.9v52.4H57.6c0,0-4.8,8.7-12.7,10.4C44.9,63.8,49.6,60.6,51.2,53.4z"/>
	<g class="st2">
		<path class="st3" d="M93.404,26.286v2.898h-0.447c0.018-0.101,0.028-0.246,0.031-0.437c0.004-0.19,0.006-0.41,0.006-0.658v-1.485    c0-0.248-0.002-0.467-0.006-0.658c-0.003-0.19-0.014-0.336-0.031-0.437h0.447l1.982,2.911v-2.911h0.447    c-0.008,0.05-0.014,0.112-0.02,0.186c-0.005,0.074-0.008,0.157-0.011,0.25s-0.005,0.195-0.005,0.306    c-0.001,0.111-0.002,0.228-0.002,0.352v2.579h-0.41L93.404,26.286z"/>
	</g>
	<g class="st2">
		<path class="st4" d="M97.168,26.286v2.898h-0.447c0.018-0.101,0.028-0.246,0.031-0.437c0.004-0.19,0.006-0.41,0.006-0.658v-1.485    c0-0.248-0.002-0.467-0.006-0.658c-0.003-0.19-0.014-0.336-0.031-0.437h0.447l1.982,2.911v-2.911h0.447    c-0.008,0.05-0.014,0.112-0.02,0.186c-0.005,0.074-0.008,0.157-0.011,0.25s-0.005,0.195-0.005,0.306    c-0.001,0.111-0.002,0.228-0.002,0.352v2.579h-0.41L97.168,26.286z"/>
	</g>
	<g class="st2">
		<path class="st3" d="M76.031,26.724c0.1-0.18,0.269-0.348,0.506-0.503c0.219-0.143,0.438-0.214,0.653-0.214    c0.233,0,0.417,0.05,0.555,0.151c0.175,0.122,0.262,0.298,0.262,0.528v1.566c0,0.155,0.009,0.26,0.024,0.315    c0.025,0.125,0.088,0.188,0.188,0.188c0.111,0,0.238-0.178,0.38-0.535c0.021-0.08,0.046-0.157,0.075-0.233    c0.012-0.042,0.027-0.087,0.047-0.135c0.018-0.048,0.037-0.099,0.059-0.154l0.094,0.188c-0.033,0.08-0.062,0.151-0.084,0.214    c-0.023,0.063-0.043,0.12-0.06,0.17c-0.009,0.017-0.015,0.035-0.019,0.054c-0.004,0.019-0.009,0.034-0.013,0.047    c-0.009,0.017-0.016,0.034-0.022,0.05c-0.006,0.017-0.011,0.032-0.016,0.044c-0.012,0.038-0.023,0.074-0.033,0.107    c-0.011,0.034-0.018,0.061-0.021,0.082c-0.125,0.209-0.348,0.314-0.668,0.314c-0.145,0-0.253-0.031-0.323-0.094    c-0.138-0.088-0.206-0.22-0.206-0.396v-1.717c0-0.13-0.021-0.241-0.063-0.333c-0.062-0.109-0.164-0.164-0.305-0.164    c-0.195,0-0.398,0.09-0.61,0.271c-0.253,0.206-0.389,0.425-0.405,0.66v1.774h-0.579v-1.956v-0.271c0-0.189-0.005-0.302-0.013-0.34    c-0.021-0.054-0.052-0.092-0.094-0.113c-0.1,0-0.236,0.256-0.41,0.768c-0.047,0.126-0.087,0.235-0.122,0.327    c-0.036,0.092-0.062,0.166-0.078,0.22c-0.05,0.138-0.081,0.232-0.093,0.283l-0.1-0.188c0.016-0.059,0.031-0.103,0.043-0.132    c0.004-0.025,0.01-0.049,0.019-0.072c0.009-0.023,0.017-0.047,0.024-0.072c0.009-0.021,0.016-0.043,0.022-0.066    s0.016-0.047,0.028-0.072c0.004-0.021,0.01-0.043,0.019-0.066c0.009-0.023,0.017-0.047,0.024-0.072    c0.009-0.021,0.016-0.042,0.021-0.063c0.007-0.021,0.016-0.044,0.029-0.069c0.008-0.042,0.024-0.09,0.049-0.145    c0.009-0.029,0.021-0.068,0.037-0.116c0.018-0.048,0.038-0.104,0.063-0.167c0.158-0.386,0.359-0.579,0.605-0.579    c0.24,0,0.39,0.063,0.447,0.188c0.038,0.071,0.057,0.248,0.057,0.528H76.031z"/>
	</g>
	<g class="st2">
		<path class="st4" d="M80.291,26.724c0.1-0.18,0.268-0.348,0.505-0.503c0.22-0.143,0.438-0.214,0.653-0.214    c0.233,0,0.418,0.05,0.555,0.151c0.175,0.122,0.262,0.298,0.262,0.528v1.566c0,0.155,0.009,0.26,0.025,0.315    c0.025,0.125,0.087,0.188,0.188,0.188c0.111,0,0.238-0.178,0.379-0.535c0.021-0.08,0.046-0.157,0.075-0.233    c0.013-0.042,0.028-0.087,0.047-0.135c0.019-0.048,0.038-0.099,0.06-0.154l0.093,0.188c-0.033,0.08-0.062,0.151-0.084,0.214    s-0.042,0.12-0.06,0.17c-0.008,0.017-0.014,0.035-0.018,0.054c-0.005,0.019-0.01,0.034-0.014,0.047    c-0.008,0.017-0.016,0.034-0.021,0.05c-0.006,0.017-0.012,0.032-0.016,0.044c-0.012,0.038-0.023,0.074-0.034,0.107    c-0.011,0.034-0.018,0.061-0.021,0.082c-0.125,0.209-0.347,0.314-0.667,0.314c-0.145,0-0.254-0.031-0.324-0.094    c-0.137-0.088-0.205-0.22-0.205-0.396v-1.717c0-0.13-0.021-0.241-0.063-0.333c-0.063-0.109-0.164-0.164-0.305-0.164    c-0.195,0-0.399,0.09-0.611,0.271c-0.253,0.206-0.389,0.425-0.404,0.66v1.774h-0.58v-1.956v-0.271c0-0.189-0.004-0.302-0.012-0.34    c-0.021-0.054-0.053-0.092-0.094-0.113c-0.1,0-0.236,0.256-0.411,0.768c-0.046,0.126-0.087,0.235-0.122,0.327    s-0.061,0.166-0.078,0.22c-0.049,0.138-0.08,0.232-0.093,0.283l-0.1-0.188c0.017-0.059,0.031-0.103,0.044-0.132    c0.004-0.025,0.01-0.049,0.018-0.072c0.009-0.023,0.018-0.047,0.025-0.072c0.008-0.021,0.016-0.043,0.021-0.066    c0.007-0.023,0.016-0.047,0.028-0.072c0.005-0.021,0.011-0.043,0.019-0.066c0.009-0.023,0.018-0.047,0.025-0.072    c0.008-0.021,0.016-0.042,0.021-0.063c0.006-0.021,0.016-0.044,0.028-0.069c0.009-0.042,0.024-0.09,0.05-0.145    c0.008-0.029,0.021-0.068,0.037-0.116c0.017-0.048,0.037-0.104,0.063-0.167c0.158-0.386,0.359-0.579,0.604-0.579    c0.241,0,0.39,0.063,0.448,0.188c0.037,0.071,0.057,0.248,0.057,0.528H80.291z"/>
	</g>
	<path class="st5" d="M32,49.5c0.3,0.1,6,1.8,15.1,0.1"/>
	<path class="st5" d="M49,49.5c0.2,0.1,4.3,1.8,10.8,0.1"/>
	<g class="st2">
		<path class="st6" d="M60.469,58.588v0.403h-1.445v0.604c0,0.249,0.001,0.469,0.004,0.66c0.004,0.189,0.015,0.334,0.033,0.434    h-0.549c0.019-0.101,0.029-0.246,0.033-0.437c0.003-0.19,0.004-0.409,0.004-0.657v-1.824c0-0.113,0-0.217-0.003-0.311    c-0.003-0.096-0.007-0.181-0.011-0.256c-0.006-0.076-0.014-0.139-0.023-0.189h2.168v0.416h-1.656v1.156H60.469z"/>
		<path class="st6" d="M61.216,59.419c0-0.216,0.032-0.408,0.097-0.575c0.065-0.166,0.152-0.308,0.262-0.422    c0.109-0.115,0.238-0.202,0.385-0.261c0.146-0.06,0.301-0.089,0.465-0.089c0.172,0,0.328,0.029,0.471,0.089    c0.142,0.059,0.264,0.146,0.365,0.261c0.104,0.114,0.182,0.256,0.238,0.422c0.057,0.167,0.085,0.359,0.085,0.575    s-0.032,0.407-0.097,0.573s-0.152,0.306-0.262,0.418s-0.238,0.197-0.384,0.256c-0.146,0.058-0.302,0.086-0.466,0.086    c-0.172,0-0.328-0.028-0.471-0.086c-0.142-0.059-0.264-0.144-0.365-0.256c-0.103-0.112-0.182-0.252-0.238-0.418    S61.216,59.635,61.216,59.419z M61.677,59.419c0,0.146,0.018,0.276,0.052,0.393c0.035,0.116,0.085,0.214,0.148,0.293    c0.064,0.079,0.141,0.141,0.229,0.183c0.088,0.041,0.186,0.063,0.294,0.063c0.1,0,0.193-0.021,0.282-0.063    c0.088-0.042,0.164-0.104,0.23-0.183c0.064-0.079,0.117-0.177,0.154-0.293s0.056-0.247,0.056-0.393    c0-0.147-0.018-0.28-0.052-0.396c-0.035-0.116-0.085-0.216-0.148-0.297c-0.064-0.081-0.141-0.144-0.229-0.187    s-0.187-0.063-0.293-0.063c-0.101,0-0.196,0.021-0.284,0.063s-0.164,0.105-0.229,0.187c-0.065,0.081-0.117,0.181-0.154,0.297    S61.677,59.271,61.677,59.419z"/>
		<path class="st6" d="M64.207,60.689v-1.547c0-0.248-0.014-0.459-0.041-0.631s-0.056-0.301-0.084-0.389h0.449    c0.02,0.047,0.037,0.106,0.053,0.178s0.029,0.15,0.04,0.237s0.019,0.181,0.023,0.279s0.008,0.198,0.008,0.3v0.163    c0.085-0.236,0.167-0.433,0.249-0.587c0.082-0.155,0.162-0.279,0.243-0.371c0.081-0.093,0.161-0.157,0.243-0.193    c0.081-0.037,0.164-0.057,0.249-0.057c0.063,0,0.121,0.006,0.175,0.018c0.053,0.012,0.106,0.031,0.162,0.059l-0.075,0.465    c-0.048-0.02-0.091-0.033-0.128-0.039c-0.036-0.008-0.08-0.011-0.134-0.011c-0.068,0-0.14,0.028-0.214,0.087    c-0.075,0.058-0.148,0.135-0.221,0.23s-0.141,0.203-0.206,0.324s-0.122,0.244-0.171,0.371s-0.088,0.25-0.117,0.371    s-0.043,0.229-0.043,0.322c0,0.041,0,0.08,0.001,0.115s0.003,0.069,0.007,0.102c0.005,0.033,0.01,0.066,0.017,0.099    s0.015,0.067,0.024,0.104H64.207z"/>
		<path class="st6" d="M67.57,58.072c0.166,0,0.31,0.021,0.43,0.06c0.121,0.04,0.227,0.091,0.318,0.155L68.23,58.74    c-0.112-0.084-0.225-0.147-0.336-0.189s-0.231-0.063-0.361-0.063c-0.111,0-0.215,0.021-0.311,0.064    c-0.096,0.042-0.178,0.104-0.249,0.185c-0.07,0.08-0.126,0.179-0.165,0.297c-0.041,0.117-0.061,0.249-0.061,0.397    c0,0.136,0.019,0.259,0.055,0.369c0.037,0.111,0.09,0.207,0.157,0.286c0.068,0.079,0.15,0.142,0.247,0.185    c0.096,0.044,0.205,0.066,0.326,0.066c0.151,0,0.289-0.027,0.411-0.078c0.123-0.053,0.239-0.127,0.349-0.225l0.051,0.44    c-0.063,0.049-0.127,0.091-0.188,0.124c-0.063,0.035-0.128,0.063-0.196,0.086c-0.068,0.023-0.141,0.039-0.219,0.051    c-0.078,0.011-0.164,0.016-0.257,0.016c-0.168,0-0.325-0.029-0.471-0.089c-0.146-0.06-0.274-0.146-0.384-0.258    s-0.196-0.249-0.26-0.407c-0.063-0.16-0.094-0.34-0.094-0.541c0-0.189,0.029-0.369,0.09-0.536c0.061-0.168,0.147-0.314,0.26-0.44    s0.248-0.225,0.408-0.299C67.193,58.109,67.373,58.072,67.57,58.072z"/>
		<path class="st6" d="M70.014,58.072c0.136,0,0.256,0.018,0.361,0.05c0.104,0.032,0.194,0.077,0.271,0.136    c0.076,0.058,0.14,0.125,0.191,0.203c0.051,0.076,0.093,0.16,0.123,0.248c0.031,0.09,0.053,0.182,0.066,0.278    s0.02,0.192,0.02,0.286v0.098c0,0.042,0,0.074-0.002,0.098h-1.768c0.006,0.148,0.028,0.276,0.068,0.385    c0.041,0.109,0.098,0.199,0.168,0.271c0.07,0.07,0.153,0.124,0.249,0.159c0.095,0.036,0.2,0.054,0.313,0.054    c0.161,0,0.319-0.02,0.474-0.057c0.154-0.036,0.309-0.102,0.461-0.195l0.05,0.415c-0.088,0.045-0.175,0.083-0.259,0.116    c-0.085,0.031-0.17,0.057-0.254,0.077c-0.086,0.021-0.172,0.035-0.258,0.044c-0.088,0.01-0.18,0.014-0.275,0.014    c-0.16,0-0.313-0.027-0.457-0.084s-0.271-0.139-0.381-0.249s-0.197-0.246-0.262-0.409c-0.064-0.162-0.098-0.352-0.098-0.566    c0-0.207,0.028-0.396,0.084-0.564c0.056-0.168,0.135-0.313,0.238-0.433c0.103-0.12,0.229-0.212,0.376-0.276    S69.828,58.072,70.014,58.072z M69.976,58.45c-0.183,0-0.332,0.054-0.448,0.162c-0.117,0.108-0.193,0.276-0.229,0.505h1.301    c0-0.107-0.015-0.203-0.046-0.285c-0.031-0.084-0.074-0.154-0.13-0.211s-0.122-0.1-0.198-0.128S70.065,58.45,69.976,58.45z"/>
	</g>
	<g class="st2">
		<path class="st6" d="M23.394,56.91h1.432v0.164h-0.605c-0.132,0-0.221,0.042-0.269,0.127c-0.026,0.047-0.04,0.109-0.04,0.185v4.62    c0,0.102,0.015,0.178,0.043,0.228c0.05,0.087,0.146,0.131,0.289,0.131h0.582v0.175h-1.432V56.91z"/>
		<path class="st6" d="M26.763,60.803c0,0.273,0.083,0.441,0.248,0.505c0.062,0.017,0.124,0.033,0.185,0.05    c0.097,0.025,0.146,0.047,0.146,0.064c-0.016,0.059-0.163,0.088-0.443,0.088h-0.68c-0.214,0-0.321-0.029-0.321-0.088    c0-0.016,0.032-0.035,0.097-0.059c0.042-0.016,0.084-0.031,0.126-0.047c0.115-0.063,0.173-0.238,0.173-0.527v-1.821    c0-0.316-0.133-0.484-0.398-0.503c-0.111-0.008-0.167-0.027-0.167-0.059c0-0.018,0.109-0.052,0.326-0.104l0.191-0.047    c0.015-0.005,0.099-0.034,0.25-0.091c0.126-0.046,0.202-0.068,0.226-0.068c0.028,0.011,0.042,0.107,0.042,0.288    c0,0.036-0.001,0.09-0.003,0.162c-0.002,0.071-0.003,0.126-0.003,0.161c0,0.047,0.004,0.085,0.013,0.116    c0.133-0.151,0.244-0.265,0.334-0.343c0.228-0.196,0.455-0.295,0.679-0.295c0.477,0,0.804,0.211,0.984,0.633    c0.07,0.166,0.104,0.301,0.104,0.404v1.613c0,0.306,0.123,0.479,0.369,0.521c0.098,0.018,0.147,0.032,0.148,0.043    c-0.01,0.059-0.148,0.088-0.414,0.088h-0.613c-0.252,0-0.384-0.031-0.395-0.096c0-0.006,0.032-0.02,0.098-0.041    c0.077-0.026,0.122-0.043,0.136-0.051c0.13-0.072,0.194-0.23,0.194-0.479v-1.153c0-0.544-0.143-0.896-0.428-1.058    c-0.124-0.068-0.258-0.104-0.4-0.104c-0.206,0-0.37,0.049-0.49,0.145c-0.208,0.164-0.313,0.35-0.313,0.557V60.803z"/>
		<path class="st6" d="M31.715,62.539H30.28v-0.168h0.608c0.204,0,0.306-0.104,0.306-0.309v-4.623c0-0.236-0.11-0.355-0.329-0.355    H30.28V56.91h1.436V62.539z"/>
	</g>
	<g class="st2">
		<path class="st6" d="M60.426,63.097c0-0.274,0.102-0.508,0.307-0.7c0.204-0.191,0.454-0.287,0.75-0.287    c0.291,0,0.536,0.095,0.736,0.285c0.2,0.189,0.301,0.424,0.301,0.702c0,0.313-0.145,0.573-0.434,0.777    c0.322,0.188,0.482,0.465,0.482,0.831c0,0.29-0.104,0.529-0.313,0.72c-0.209,0.189-0.474,0.284-0.792,0.284    c-0.316,0-0.581-0.097-0.795-0.291c-0.215-0.193-0.322-0.434-0.322-0.719c0-0.357,0.165-0.633,0.494-0.825    c-0.148-0.121-0.254-0.241-0.318-0.36C60.458,63.393,60.426,63.254,60.426,63.097z M62.065,64.726v-0.05    c0-0.162-0.057-0.293-0.171-0.395c-0.113-0.102-0.261-0.152-0.441-0.152c-0.178,0-0.323,0.051-0.436,0.154    c-0.111,0.102-0.168,0.234-0.168,0.396c0,0.163,0.057,0.296,0.172,0.398c0.115,0.102,0.264,0.152,0.446,0.152    c0.175,0,0.317-0.047,0.43-0.141S62.065,64.875,62.065,64.726z M62.023,63.113c0-0.153-0.053-0.279-0.156-0.378    s-0.235-0.148-0.395-0.148c-0.161,0-0.293,0.049-0.396,0.146c-0.104,0.098-0.154,0.223-0.154,0.375    c0,0.146,0.055,0.271,0.163,0.375s0.239,0.156,0.393,0.156c0.151,0,0.28-0.052,0.386-0.154    C61.971,63.381,62.023,63.257,62.023,63.113z"/>
		<path class="st6" d="M63.249,62.154h1.546v0.447h-1.092v0.889c0.035-0.004,0.07-0.006,0.107-0.006    c0.337,0,0.614,0.104,0.832,0.312c0.217,0.207,0.326,0.471,0.326,0.791c0,0.331-0.107,0.6-0.322,0.807    c-0.216,0.207-0.494,0.311-0.836,0.311c-0.283,0-0.557-0.069-0.822-0.206v-0.519c0.25,0.165,0.495,0.247,0.734,0.247    c0.209,0,0.385-0.063,0.527-0.186s0.213-0.274,0.213-0.454c0-0.187-0.077-0.342-0.232-0.466c-0.154-0.125-0.347-0.188-0.578-0.188    c-0.197,0-0.332,0.016-0.403,0.05V62.154z"/>
		<path class="st6" d="M67.605,62.113c0.214,0,0.396,0.078,0.548,0.232s0.228,0.34,0.228,0.556c0,0.215-0.076,0.399-0.229,0.554    s-0.334,0.231-0.547,0.231s-0.395-0.077-0.547-0.231s-0.229-0.339-0.229-0.554c0-0.216,0.076-0.401,0.227-0.556    C67.208,62.191,67.391,62.113,67.605,62.113z M69.368,62.104h0.386l-2.289,3.605H67.08L69.368,62.104z M67.6,62.496    c-0.111,0-0.207,0.04-0.285,0.119c-0.078,0.08-0.117,0.176-0.117,0.287s0.039,0.205,0.119,0.283    c0.079,0.079,0.174,0.118,0.283,0.118c0.11,0,0.205-0.039,0.283-0.118c0.079-0.078,0.119-0.172,0.119-0.283    c0-0.113-0.039-0.209-0.117-0.288S67.711,62.496,67.6,62.496z M69.248,64.139c0.213,0,0.396,0.077,0.548,0.23    c0.153,0.154,0.229,0.338,0.229,0.553s-0.076,0.396-0.229,0.547c-0.151,0.15-0.334,0.226-0.549,0.226s-0.398-0.075-0.551-0.226    c-0.151-0.15-0.227-0.332-0.227-0.547c0-0.217,0.076-0.4,0.229-0.554C68.852,64.216,69.035,64.139,69.248,64.139z M69.244,64.521    c-0.109,0-0.203,0.039-0.279,0.118c-0.078,0.079-0.116,0.173-0.116,0.283c0,0.112,0.038,0.208,0.116,0.287    c0.076,0.079,0.17,0.119,0.279,0.119c0.112,0,0.207-0.039,0.285-0.118c0.078-0.078,0.117-0.174,0.117-0.288    c0-0.112-0.039-0.207-0.117-0.284C69.451,64.561,69.356,64.521,69.244,64.521z"/>
	</g>
	<g>
		<g class="st2">
			<path class="st3" d="M83.636,33.41c0.708,0,1.251,0.234,1.628,0.701c0.377,0.467,0.564,1.162,0.564,2.083v4.193H84.6v-3.69     c0-0.42-0.028-0.767-0.084-1.039c-0.055-0.273-0.137-0.489-0.246-0.648c-0.107-0.158-0.245-0.27-0.412-0.332     c-0.166-0.063-0.361-0.094-0.588-0.094c-0.238,0-0.473,0.057-0.701,0.172c-0.228,0.113-0.438,0.262-0.627,0.442     c-0.191,0.181-0.359,0.386-0.506,0.614c-0.146,0.228-0.254,0.455-0.325,0.684v3.892h-1.229v-4.126     c0-0.662-0.037-1.223-0.109-1.681c-0.073-0.458-0.147-0.804-0.223-1.037h1.195c0.027,0.071,0.054,0.164,0.08,0.278     c0.027,0.114,0.051,0.234,0.073,0.359s0.042,0.248,0.06,0.369l0.054,0.302c0.421-0.51,0.847-0.878,1.276-1.104     C82.717,33.523,83.166,33.41,83.636,33.41z"/>
		</g>
		<g class="st2">
			<path class="st7" d="M91.263,33.41c0.708,0,1.251,0.234,1.628,0.701c0.377,0.467,0.564,1.162,0.564,2.083v4.193h-1.229v-3.69     c0-0.42-0.028-0.767-0.084-1.039c-0.055-0.273-0.137-0.489-0.246-0.648c-0.107-0.158-0.245-0.27-0.412-0.332     c-0.166-0.063-0.361-0.094-0.588-0.094c-0.238,0-0.473,0.057-0.701,0.172c-0.228,0.113-0.438,0.262-0.627,0.442     c-0.191,0.181-0.359,0.386-0.506,0.614c-0.146,0.228-0.254,0.455-0.325,0.684v3.892h-1.229v-4.126     c0-0.662-0.037-1.223-0.109-1.681c-0.073-0.458-0.147-0.804-0.223-1.037h1.195c0.027,0.071,0.054,0.164,0.08,0.278     c0.027,0.114,0.051,0.234,0.073,0.359s0.042,0.248,0.06,0.369l0.054,0.302c0.421-0.51,0.847-0.878,1.276-1.104     C90.344,33.523,90.793,33.41,91.263,33.41z"/>
		</g>
		<g class="st2">
			<path class="st8" d="M78.367,42.814c0.221,0,0.412,0.027,0.572,0.079c0.161,0.053,0.303,0.122,0.424,0.206l-0.116,0.604     c-0.15-0.112-0.3-0.196-0.448-0.252s-0.309-0.084-0.482-0.084c-0.148,0-0.285,0.028-0.413,0.086     c-0.128,0.057-0.238,0.14-0.333,0.247c-0.094,0.106-0.167,0.238-0.221,0.395c-0.053,0.157-0.08,0.334-0.08,0.531     c0,0.181,0.025,0.345,0.074,0.492c0.049,0.148,0.118,0.275,0.209,0.381c0.091,0.106,0.2,0.188,0.329,0.247     c0.128,0.058,0.273,0.087,0.435,0.087c0.202,0,0.385-0.035,0.549-0.104c0.164-0.07,0.318-0.17,0.465-0.299l0.066,0.587     c-0.084,0.065-0.168,0.12-0.25,0.166c-0.084,0.046-0.17,0.084-0.262,0.114c-0.09,0.03-0.188,0.053-0.292,0.066     c-0.104,0.016-0.218,0.022-0.343,0.022c-0.223,0-0.433-0.04-0.627-0.119c-0.195-0.079-0.366-0.194-0.512-0.344     c-0.146-0.149-0.262-0.331-0.346-0.544c-0.084-0.212-0.127-0.453-0.127-0.721c0-0.253,0.041-0.491,0.121-0.715     c0.081-0.224,0.196-0.42,0.346-0.587c0.15-0.168,0.332-0.3,0.545-0.397C77.864,42.863,78.104,42.814,78.367,42.814z"/>
			<path class="st8" d="M83.035,44.525c0,0.423,0.023,0.778,0.07,1.065c0.046,0.288,0.105,0.524,0.179,0.713h-0.581     c-0.012-0.028-0.027-0.069-0.047-0.12c-0.02-0.053-0.041-0.111-0.062-0.177s-0.041-0.138-0.06-0.213     c-0.02-0.076-0.035-0.152-0.049-0.228c-0.086,0.111-0.178,0.217-0.273,0.314c-0.097,0.099-0.197,0.186-0.305,0.262     c-0.105,0.076-0.217,0.136-0.332,0.18c-0.115,0.043-0.232,0.065-0.352,0.065c-0.141,0-0.279-0.03-0.418-0.091     c-0.138-0.061-0.263-0.15-0.373-0.271c-0.111-0.121-0.201-0.272-0.27-0.455c-0.068-0.182-0.103-0.396-0.103-0.643     c0-0.256,0.028-0.49,0.085-0.699s0.133-0.395,0.23-0.559c0.086-0.143,0.178-0.268,0.275-0.375s0.205-0.197,0.321-0.268     s0.244-0.123,0.384-0.158c0.139-0.036,0.295-0.055,0.465-0.055c0.084,0,0.178,0.007,0.281,0.02     c0.103,0.012,0.208,0.029,0.315,0.051c0.107,0.023,0.214,0.05,0.32,0.081s0.205,0.065,0.296,0.101V44.525z M81.689,43.385     c-0.07,0-0.143,0.009-0.215,0.025c-0.071,0.018-0.143,0.045-0.212,0.086c-0.069,0.04-0.138,0.094-0.203,0.159     s-0.126,0.149-0.185,0.25c-0.06,0.103-0.107,0.231-0.145,0.384c-0.036,0.153-0.055,0.311-0.055,0.472     c0,0.186,0.018,0.345,0.052,0.478s0.079,0.243,0.136,0.329s0.121,0.149,0.193,0.189s0.145,0.061,0.217,0.061     c0.094,0,0.195-0.029,0.305-0.087c0.109-0.059,0.217-0.136,0.32-0.232c0.104-0.096,0.203-0.206,0.295-0.332     c0.092-0.125,0.168-0.254,0.227-0.389V43.52c-0.033-0.016-0.075-0.031-0.127-0.047c-0.053-0.016-0.109-0.03-0.174-0.044     c-0.063-0.013-0.131-0.024-0.205-0.032S81.765,43.385,81.689,43.385z"/>
		</g>
		<g class="st2">
			<path class="st3" d="M86.54,41.943c0.442,0,0.782,0.146,1.018,0.438s0.353,0.727,0.353,1.303v2.62h-0.768v-2.306     c0-0.264-0.018-0.48-0.053-0.65c-0.034-0.171-0.086-0.306-0.153-0.404c-0.067-0.1-0.153-0.169-0.257-0.208     c-0.104-0.039-0.227-0.059-0.368-0.059c-0.149,0-0.296,0.036-0.438,0.106c-0.143,0.072-0.273,0.164-0.393,0.277     s-0.224,0.24-0.315,0.383c-0.091,0.143-0.159,0.285-0.203,0.428v2.433h-0.769v-2.579c0-0.414-0.023-0.764-0.068-1.051     c-0.046-0.286-0.092-0.502-0.139-0.647h0.747c0.017,0.045,0.033,0.103,0.05,0.175c0.017,0.07,0.031,0.146,0.045,0.224     c0.015,0.079,0.027,0.155,0.038,0.231l0.033,0.188c0.263-0.318,0.528-0.548,0.798-0.689     C85.965,42.014,86.246,41.943,86.54,41.943z"/>
		</g>
		<g class="st2">
			<path class="st7" d="M91.394,41.943c0.442,0,0.782,0.146,1.018,0.438s0.353,0.727,0.353,1.303v2.62h-0.768v-2.306     c0-0.264-0.018-0.48-0.053-0.65c-0.034-0.171-0.086-0.306-0.153-0.404c-0.067-0.1-0.153-0.169-0.257-0.208     c-0.104-0.039-0.227-0.059-0.368-0.059c-0.149,0-0.296,0.036-0.438,0.106c-0.143,0.072-0.273,0.164-0.393,0.277     s-0.224,0.24-0.315,0.383c-0.091,0.143-0.159,0.285-0.203,0.428v2.433h-0.769v-2.579c0-0.414-0.023-0.764-0.068-1.051     c-0.046-0.286-0.092-0.502-0.139-0.647h0.747c0.017,0.045,0.033,0.103,0.05,0.175c0.017,0.07,0.031,0.146,0.045,0.224     c0.015,0.079,0.027,0.155,0.038,0.231l0.033,0.188c0.263-0.318,0.528-0.548,0.798-0.689C90.818,42.014,91.1,41.943,91.394,41.943     z"/>
		</g>
		<g class="st2">
			<path class="st8" d="M95.271,42.814c0.182,0,0.343,0.022,0.481,0.066c0.14,0.043,0.261,0.104,0.362,0.181     c0.103,0.077,0.188,0.167,0.256,0.271c0.069,0.103,0.124,0.213,0.165,0.332c0.041,0.118,0.07,0.242,0.088,0.37     c0.018,0.129,0.026,0.256,0.026,0.381v0.131c0,0.056-0.001,0.1-0.003,0.131H94.29c0.007,0.196,0.037,0.368,0.092,0.513     c0.054,0.146,0.128,0.266,0.222,0.361c0.095,0.095,0.205,0.166,0.333,0.213s0.267,0.07,0.417,0.07     c0.215,0,0.426-0.024,0.631-0.074c0.207-0.049,0.411-0.136,0.615-0.262l0.066,0.555c-0.117,0.06-0.232,0.111-0.346,0.154     c-0.113,0.042-0.226,0.076-0.339,0.104c-0.112,0.027-0.228,0.047-0.344,0.059s-0.239,0.019-0.367,0.019     c-0.213,0-0.415-0.038-0.608-0.112c-0.192-0.075-0.361-0.186-0.508-0.332s-0.263-0.328-0.35-0.545     c-0.086-0.217-0.129-0.469-0.129-0.756c0-0.277,0.037-0.527,0.111-0.752s0.18-0.418,0.316-0.578     c0.139-0.159,0.305-0.282,0.502-0.369C94.803,42.857,95.024,42.814,95.271,42.814z M95.221,43.318     c-0.244,0-0.443,0.072-0.598,0.217c-0.156,0.144-0.258,0.367-0.307,0.672h1.734c0-0.143-0.02-0.27-0.061-0.381     c-0.041-0.11-0.1-0.204-0.174-0.279c-0.074-0.076-0.162-0.134-0.264-0.172S95.34,43.318,95.221,43.318z"/>
		</g>
		<g class="st2">
			<path class="st6" d="M91.805,48.6h0.414v2.929h-0.414V48.6z"/>
			<path class="st6" d="M93.5,48.6h1.288v0.373h-0.909v0.74c0.029-0.003,0.059-0.004,0.089-0.004c0.281,0,0.513,0.086,0.694,0.258     c0.181,0.174,0.271,0.393,0.271,0.66c0,0.275-0.09,0.499-0.27,0.672c-0.179,0.172-0.411,0.259-0.696,0.259     c-0.235,0-0.464-0.058-0.685-0.172v-0.433c0.209,0.138,0.412,0.206,0.611,0.206c0.176,0,0.322-0.052,0.439-0.153     c0.119-0.104,0.178-0.229,0.178-0.379c0-0.155-0.064-0.285-0.193-0.389c-0.129-0.104-0.289-0.156-0.481-0.156     c-0.165,0-0.276,0.014-0.337,0.041V48.6z"/>
			<path class="st6" d="M97.131,48.566c0.178,0,0.33,0.063,0.457,0.192c0.125,0.128,0.188,0.282,0.188,0.464     c0,0.178-0.063,0.332-0.19,0.461c-0.126,0.129-0.277,0.192-0.455,0.192s-0.329-0.063-0.456-0.192     c-0.126-0.129-0.19-0.283-0.19-0.461c0-0.182,0.063-0.336,0.189-0.464C96.8,48.63,96.952,48.566,97.131,48.566z M98.6,48.558     h0.321l-1.907,3.005h-0.321L98.6,48.558z M97.125,48.885c-0.092,0-0.171,0.033-0.236,0.1c-0.066,0.065-0.099,0.146-0.099,0.238     c0,0.092,0.033,0.171,0.1,0.236c0.065,0.066,0.145,0.099,0.235,0.099c0.093,0,0.172-0.032,0.237-0.099     c0.065-0.065,0.099-0.145,0.099-0.236c0-0.094-0.033-0.174-0.098-0.24C97.299,48.917,97.219,48.885,97.125,48.885z M98.5,50.254     c0.178,0,0.329,0.063,0.457,0.191c0.127,0.128,0.189,0.281,0.189,0.461c0,0.178-0.063,0.33-0.189,0.455     c-0.126,0.125-0.278,0.188-0.457,0.188c-0.18,0-0.332-0.063-0.459-0.188s-0.189-0.277-0.189-0.455     c0-0.182,0.063-0.334,0.19-0.462C98.17,50.317,98.322,50.254,98.5,50.254z M98.496,50.572c-0.092,0-0.169,0.033-0.232,0.098     c-0.064,0.066-0.097,0.145-0.097,0.236c0,0.094,0.032,0.174,0.097,0.24c0.063,0.066,0.141,0.099,0.232,0.099     c0.094,0,0.174-0.032,0.238-0.099c0.064-0.064,0.098-0.145,0.098-0.24c0-0.093-0.033-0.172-0.098-0.236     C98.67,50.604,98.59,50.572,98.496,50.572z"/>
		</g>
	</g>
	<g class="st2">
		<path class="st9" d="M48.139,16.96c1.861,0,3.285,0.614,4.273,1.841s1.483,3.05,1.483,5.468v11.007h-3.228V25.59    c0-1.104-0.073-2.014-0.218-2.73c-0.146-0.716-0.361-1.282-0.646-1.699c-0.285-0.417-0.646-0.708-1.082-0.872    c-0.436-0.164-0.951-0.247-1.544-0.247c-0.628,0-1.241,0.15-1.84,0.449s-1.148,0.687-1.648,1.163s-0.942,1.013-1.326,1.611    s-0.669,1.198-0.855,1.796v10.215h-3.227V24.445c0-1.738-0.096-3.208-0.288-4.412c-0.192-1.203-0.387-2.11-0.584-2.721h3.14    c0.07,0.188,0.14,0.431,0.209,0.731c0.07,0.299,0.133,0.613,0.192,0.942c0.058,0.329,0.11,0.652,0.157,0.969l0.14,0.792    c1.105-1.338,2.221-2.304,3.35-2.897C45.726,17.257,46.906,16.96,48.139,16.96z"/>
	</g>
	<g class="st2">
		<path class="st9" d="M36.512,41.166c0.665,0,1.174,0.22,1.527,0.658s0.53,1.09,0.53,1.953v3.933h-1.153v-3.46    c0-0.395-0.026-0.72-0.078-0.976c-0.052-0.256-0.129-0.458-0.231-0.606c-0.102-0.149-0.23-0.254-0.386-0.313    s-0.34-0.088-0.552-0.088c-0.224,0-0.443,0.054-0.657,0.16c-0.214,0.107-0.41,0.246-0.589,0.416s-0.336,0.361-0.474,0.575    s-0.239,0.428-0.305,0.642v3.649h-1.153v-3.869c0-0.621-0.034-1.146-0.103-1.576c-0.069-0.431-0.138-0.754-0.209-0.972h1.122    c0.025,0.066,0.05,0.154,0.075,0.261s0.048,0.22,0.068,0.337c0.021,0.117,0.04,0.232,0.056,0.346l0.05,0.283    c0.395-0.479,0.793-0.823,1.197-1.035C35.65,41.272,36.072,41.166,36.512,41.166z"/>
	</g>
	<g class="st2">
		<path class="st10" d="M42.326,42.477c0.272,0,0.514,0.033,0.723,0.098c0.209,0.066,0.391,0.156,0.543,0.272    s0.281,0.251,0.384,0.405s0.185,0.32,0.247,0.498s0.105,0.363,0.132,0.556c0.026,0.193,0.04,0.384,0.04,0.571v0.196    c0,0.084-0.001,0.149-0.005,0.196h-3.534c0.01,0.295,0.056,0.552,0.137,0.77c0.081,0.219,0.192,0.398,0.334,0.541    c0.141,0.143,0.307,0.25,0.498,0.32c0.191,0.07,0.4,0.105,0.625,0.105c0.322,0,0.638-0.037,0.947-0.111s0.616-0.204,0.922-0.393    l0.1,0.83c-0.176,0.092-0.349,0.168-0.518,0.232c-0.169,0.063-0.339,0.115-0.508,0.156c-0.169,0.039-0.341,0.068-0.516,0.088    c-0.174,0.018-0.358,0.027-0.551,0.027c-0.319,0-0.623-0.057-0.912-0.169s-0.543-0.278-0.762-0.498    c-0.22-0.22-0.394-0.492-0.523-0.817c-0.13-0.326-0.194-0.703-0.194-1.133c0-0.416,0.056-0.792,0.167-1.129    c0.111-0.338,0.27-0.626,0.476-0.865c0.206-0.24,0.457-0.425,0.753-0.555C41.625,42.541,41.958,42.477,42.326,42.477z     M42.251,43.231c-0.365,0-0.665,0.108-0.897,0.325c-0.233,0.216-0.386,0.553-0.458,1.008h2.602c0-0.214-0.031-0.404-0.092-0.57    s-0.148-0.307-0.259-0.42c-0.111-0.115-0.243-0.2-0.396-0.258C42.597,43.26,42.431,43.231,42.251,43.231z"/>
	</g>
	<g class="st2">
		<path class="st10" d="M45.681,40.941c0-0.094,0.015-0.182,0.045-0.264s0.072-0.154,0.127-0.217    c0.055-0.062,0.121-0.11,0.197-0.146c0.076-0.035,0.161-0.053,0.254-0.053c0.093,0,0.18,0.018,0.259,0.053    s0.148,0.084,0.204,0.146c0.057,0.063,0.102,0.135,0.135,0.217s0.05,0.17,0.05,0.264c0,0.095-0.017,0.183-0.05,0.265    c-0.033,0.083-0.078,0.154-0.135,0.216c-0.056,0.063-0.125,0.111-0.204,0.146s-0.166,0.053-0.259,0.053    c-0.093,0-0.178-0.018-0.254-0.053c-0.077-0.035-0.142-0.084-0.197-0.146c-0.055-0.062-0.097-0.133-0.127-0.216    C45.696,41.124,45.681,41.036,45.681,40.941z M46.777,45.32c0,0.16,0.002,0.352,0.007,0.57c0.005,0.221,0.012,0.442,0.02,0.667    s0.018,0.439,0.03,0.644c0.012,0.205,0.026,0.375,0.042,0.509h-1.022v-2.667c0-0.244,0-0.486-0.002-0.725    c-0.001-0.238-0.005-0.464-0.01-0.677s-0.013-0.411-0.022-0.594s-0.023-0.34-0.04-0.471h0.997V45.32z"/>
	</g>
	<g class="st2">
		<path class="st10" d="M53.507,47.584c0,0.443-0.063,0.822-0.192,1.137c-0.127,0.316-0.295,0.573-0.503,0.773    c-0.208,0.199-0.444,0.346-0.71,0.439c-0.266,0.094-0.537,0.142-0.813,0.142c-0.319,0-0.635-0.056-0.949-0.167    c-0.314-0.109-0.604-0.256-0.87-0.438l0.324-0.779c0.236,0.171,0.474,0.311,0.713,0.418c0.239,0.107,0.483,0.16,0.732,0.16    c0.129,0,0.272-0.023,0.429-0.07s0.302-0.128,0.438-0.244c0.136-0.115,0.25-0.271,0.341-0.465c0.092-0.195,0.138-0.438,0.138-0.73    v-0.93c-0.13,0.164-0.267,0.304-0.411,0.42c-0.145,0.115-0.291,0.209-0.438,0.281c-0.148,0.072-0.296,0.124-0.444,0.156    c-0.148,0.031-0.29,0.048-0.426,0.048c-0.229,0-0.45-0.04-0.663-0.121c-0.213-0.081-0.401-0.208-0.566-0.385    s-0.295-0.405-0.394-0.687c-0.098-0.282-0.147-0.623-0.147-1.021c0-0.387,0.05-0.762,0.149-1.127    c0.1-0.366,0.254-0.691,0.463-0.975c0.209-0.283,0.478-0.512,0.805-0.684c0.327-0.174,0.718-0.26,1.174-0.26    c0.149,0,0.303,0.012,0.46,0.033c0.158,0.021,0.315,0.051,0.471,0.088c0.156,0.037,0.31,0.078,0.459,0.123    c0.15,0.045,0.293,0.09,0.429,0.133V47.584z M51.538,43.332c-0.272,0-0.505,0.057-0.698,0.169c-0.192,0.112-0.35,0.26-0.471,0.442    c-0.122,0.184-0.21,0.391-0.267,0.621c-0.057,0.232-0.085,0.467-0.085,0.705c0,0.313,0.024,0.571,0.072,0.777    c0.048,0.207,0.115,0.371,0.199,0.493c0.085,0.122,0.185,0.21,0.299,0.262s0.24,0.078,0.376,0.078    c0.126,0,0.261-0.026,0.403-0.078c0.143-0.052,0.287-0.126,0.431-0.224s0.284-0.219,0.419-0.363    c0.135-0.144,0.256-0.309,0.366-0.492v-2.189c-0.079-0.029-0.165-0.058-0.255-0.083c-0.089-0.024-0.181-0.046-0.273-0.063    c-0.093-0.017-0.184-0.03-0.271-0.04C51.697,43.338,51.615,43.332,51.538,43.332z"/>
	</g>
	<g class="st2">
		<path class="st11" d="M57.084,42.477c0.273,0,0.514,0.033,0.723,0.098c0.21,0.066,0.391,0.156,0.544,0.272s0.28,0.251,0.384,0.405    s0.186,0.32,0.246,0.498c0.063,0.178,0.105,0.363,0.133,0.556c0.026,0.193,0.039,0.384,0.039,0.571v0.196    c0,0.084-0.001,0.149-0.004,0.196h-3.534c0.011,0.295,0.056,0.552,0.138,0.77c0.08,0.219,0.191,0.398,0.334,0.541    c0.141,0.143,0.307,0.25,0.498,0.32s0.399,0.105,0.625,0.105c0.322,0,0.639-0.037,0.947-0.111s0.616-0.204,0.922-0.393l0.1,0.83    c-0.176,0.092-0.349,0.168-0.518,0.232c-0.17,0.063-0.34,0.115-0.509,0.156c-0.169,0.039-0.341,0.068-0.517,0.088    c-0.174,0.018-0.357,0.027-0.551,0.027c-0.318,0-0.623-0.057-0.912-0.169s-0.543-0.278-0.762-0.498    c-0.22-0.22-0.395-0.492-0.523-0.817c-0.13-0.326-0.194-0.703-0.194-1.133c0-0.416,0.056-0.792,0.167-1.129    c0.111-0.338,0.27-0.626,0.476-0.865c0.206-0.24,0.457-0.425,0.753-0.555C56.383,42.541,56.716,42.477,57.084,42.477z     M57.01,43.231c-0.365,0-0.664,0.108-0.896,0.325c-0.233,0.216-0.387,0.553-0.459,1.008h2.602c0-0.214-0.031-0.404-0.092-0.57    c-0.063-0.166-0.148-0.307-0.26-0.42c-0.111-0.115-0.243-0.2-0.396-0.258C57.355,43.26,57.189,43.231,57.01,43.231z"/>
	</g>
	<g class="st2">
		<path class="st9" d="M63.456,6.545v4.831h-0.747c0.029-0.168,0.048-0.41,0.054-0.728c0.005-0.317,0.009-0.683,0.009-1.097V7.078    c0-0.414-0.004-0.779-0.009-1.097c-0.006-0.317-0.024-0.56-0.054-0.728h0.747l3.302,4.852V5.254h0.748    c-0.014,0.084-0.025,0.187-0.033,0.31s-0.015,0.262-0.02,0.417c-0.004,0.155-0.006,0.325-0.008,0.509s-0.002,0.38-0.002,0.587    v4.298h-0.686L63.456,6.545z"/>
	</g>
	<g class="st2">
		<path class="st9" d="M26.703,7.522c0.133-0.24,0.357-0.464,0.673-0.671c0.293-0.19,0.584-0.285,0.872-0.285    c0.31,0,0.557,0.067,0.739,0.202c0.233,0.162,0.349,0.397,0.349,0.704v2.088c0,0.207,0.011,0.347,0.033,0.419    c0.033,0.167,0.116,0.251,0.249,0.251c0.15,0,0.318-0.238,0.507-0.713c0.028-0.106,0.061-0.209,0.1-0.31    c0.017-0.056,0.038-0.116,0.063-0.181c0.025-0.064,0.051-0.133,0.079-0.205l0.125,0.251c-0.044,0.106-0.082,0.201-0.112,0.285    S30.322,9.519,30.3,9.586c-0.011,0.022-0.019,0.046-0.025,0.071c-0.005,0.025-0.011,0.046-0.017,0.063    c-0.011,0.022-0.021,0.045-0.029,0.067s-0.016,0.042-0.021,0.059c-0.017,0.05-0.032,0.098-0.045,0.143    c-0.014,0.045-0.024,0.081-0.029,0.109c-0.166,0.28-0.462,0.419-0.889,0.419c-0.194,0-0.338-0.042-0.432-0.126    c-0.183-0.117-0.274-0.293-0.274-0.528v-2.29c0-0.173-0.028-0.321-0.083-0.444c-0.083-0.146-0.219-0.218-0.407-0.218    c-0.26,0-0.532,0.121-0.814,0.361c-0.338,0.274-0.518,0.567-0.54,0.88v2.365h-0.772V7.908v-0.36c0-0.251-0.006-0.403-0.017-0.453    c-0.028-0.072-0.069-0.123-0.125-0.151c-0.133,0-0.316,0.341-0.548,1.023c-0.061,0.167-0.115,0.313-0.162,0.436    s-0.082,0.221-0.104,0.293c-0.066,0.185-0.108,0.31-0.125,0.377l-0.133-0.251c0.022-0.079,0.042-0.137,0.058-0.176    c0.005-0.034,0.014-0.066,0.025-0.097c0.011-0.03,0.022-0.063,0.033-0.096c0.011-0.028,0.021-0.057,0.029-0.088    c0.008-0.03,0.021-0.063,0.037-0.096c0.005-0.028,0.014-0.057,0.025-0.088s0.022-0.063,0.033-0.097    C24.961,8.057,24.971,8.029,24.979,8C24.988,7.973,25,7.942,25.017,7.908c0.011-0.056,0.034-0.12,0.067-0.193    c0.011-0.039,0.027-0.091,0.05-0.155c0.022-0.064,0.05-0.139,0.083-0.223c0.21-0.514,0.479-0.771,0.806-0.771    c0.321,0,0.521,0.084,0.598,0.252c0.05,0.095,0.075,0.33,0.075,0.704H26.703z"/>
	</g>
	<g>
		<path class="st12" d="M6.8,24.6c0,0-0.9-2,1.3-3.1c0,0,2-0.9,3.1,0.7c0,0,0.7-2.1,3-1.6c0,0,1.4,0.3,1.3,1.2c0,0,0.9-0.4,1.8,0.2    c0,0,1.4,0.5,0.8,2.3c0,0,2.4-0.7,2.7,1.4c0,0,3-0.9,3.4,2.2c0,0,2.8-0.9,1.6,1.8c0,0-1,1.5-2.5,0.5c0,0-0.7,2.2-3.2,0.7    c0,0-1.4,1.2-3,0.5c0,0-0.8,1.4-3,1.3c0,0-2.5-0.1-3.9-1.7c0,0-0.8,0.9-2.7-0.2c0,0-0.9,1.1-2.7,0.9c0,0-1.6,0-2.1-1.2    c0,0-2.1,0.7-2.1-1c0,0,0.3-1.7,1.8-1.7c0,0,0.3-1.5,1.5-1.1C4,26.7,4,23.5,6.8,24.6z"/>
		<path class="st13" d="M6,36c0,0.2-0.2,0.4-0.4,0.4c-0.2,0-0.4-0.2-0.4-0.4s0.2-0.4,0.4-0.4C5.9,35.6,6,35.7,6,36z"/>
		<path class="st13" d="M11,34c0,0.5-0.4,0.9-0.9,0.9S9.2,34.5,9.2,34s0.4-0.9,0.9-0.9S11,33.5,11,34z"/>
		<path class="st13" d="M4.4,42.4c0,0.2-0.2,0.4-0.4,0.4c-0.2,0-0.4-0.2-0.4-0.4S3.8,42,4,42C4.2,42,4.4,42.2,4.4,42.4z"/>
		<path class="st13" d="M22.6,33c0,0.2-0.2,0.4-0.4,0.4c-0.2,0-0.4-0.2-0.4-0.4s0.2-0.4,0.4-0.4S22.6,32.8,22.6,33z"/>
		<path class="st13" d="M19.5,36.1c0,0.2-0.2,0.4-0.4,0.4s-0.4-0.2-0.4-0.4s0.2-0.4,0.4-0.4S19.5,35.9,19.5,36.1z"/>
		<path class="st13" d="M23.1,44.4c0,0.2-0.1,0.3-0.3,0.3c-0.1,0-0.3-0.1-0.3-0.3s0.1-0.3,0.3-0.3C23,44.1,23.1,44.2,23.1,44.4z"/>
		<path class="st13" d="M14.8,47.9c0,0.2-0.2,0.4-0.4,0.4S14,48.1,14,47.9s0.2-0.4,0.4-0.4S14.8,47.7,14.8,47.9z"/>
		<path class="st13" d="M2.8,34.4c0,0.3-0.3,0.6-0.6,0.6s-0.6-0.3-0.6-0.6s0.3-0.6,0.6-0.6C2.5,33.8,2.8,34.1,2.8,34.4z"/>
		<path class="st13" d="M9.5,45.7c0,0.2-0.2,0.4-0.4,0.4s-0.4-0.2-0.4-0.4s0.2-0.4,0.4-0.4S9.5,45.5,9.5,45.7z"/>
		<path class="st13" d="M15.2,39.8c0,0.2-0.2,0.4-0.4,0.4s-0.4-0.2-0.4-0.4s0.2-0.4,0.4-0.4C15,39.4,15.2,39.6,15.2,39.8z"/>
		<path class="st13" d="M25.6,35.3c0,0.2-0.2,0.4-0.4,0.4c-0.2,0-0.4-0.2-0.4-0.4s0.2-0.4,0.4-0.4C25.4,34.9,25.6,35.1,25.6,35.3z"/>
		<path class="st14" d="M7.5,37.8C8,38,8.2,38.4,8.1,38.9c-0.1,0.5-0.6,0.7-1,0.6c-0.5-0.1-0.7-0.6-0.6-1.1    C6.6,38,7.1,37.7,7.5,37.8z"/>
		<ellipse class="st14" cx="10.1" cy="41.4" rx="0.8" ry="0.8"/>
		<path class="st13" d="M23.8,39.7c0,0.5-0.4,1-1,1c-0.5,0-1-0.4-1-1c0-0.5,0.4-1,1-1S23.8,39.1,23.8,39.7z"/>
		<ellipse class="st14" cx="16.8" cy="43.2" rx="0.8" ry="0.8"/>
		<path class="st13" d="M15,36.1c0,0.3-0.3,0.6-0.6,0.6s-0.6-0.3-0.6-0.6s0.3-0.6,0.6-0.6S15,35.8,15,36.1z"/>
		<path class="st13" d="M19.8,46.7c0,0.4-0.3,0.7-0.7,0.7c-0.4,0-0.7-0.3-0.7-0.7s0.3-0.7,0.7-0.7C19.5,46.1,19.8,46.4,19.8,46.7z"/>
		<ellipse class="st13" cx="1.6" cy="38.9" rx="0.6" ry="0.6"/>
		<path class="st13" d="M5.5,46.5c0,0.3-0.3,0.6-0.6,0.6c-0.3,0-0.6-0.3-0.6-0.6s0.3-0.6,0.6-0.6S5.5,46.1,5.5,46.5z"/>
	</g>
</g>
</svg>