<?xml version="1.0" encoding="UTF-8"?>
<!-- Generator: Adobe Illustrator 24.0.2, SVG Export Plug-In . SVG Version: 6.00 Build 0)  -->
<svg version="1.1" id="Calque_1" xmlns="http://www.w3.org/2000/svg" xmlns:xlink="http://www.w3.org/1999/xlink" x="0px" y="0px" viewBox="0 0 72 72" style="enable-background:new 0 0 72 72;" xml:space="preserve">
<style type="text/css">
	.st0{fill:#FFFFFF;stroke:#000000;stroke-width:0.9606;stroke-miterlimit:10;}
	.st1{fill:none;stroke:#B2B2B2;stroke-width:0.3602;stroke-miterlimit:10;}
	.st2{enable-background:new    ;}
	.st3{fill:#575756;}
	.st4{fill:#878787;}
	.st5{fill:#B2B2B2;}
	.st6{opacity:0.6;enable-background:new    ;}
	.st7{fill:#E11683;}
	.st8{fill:#FFFFFF;}
	.st9{fill:#B9B8B8;}
	.st10{fill:#DE0980;}
	.st11{fill:none;stroke:#575756;stroke-width:0.1728;stroke-linecap:round;stroke-linejoin:round;stroke-miterlimit:10;}
	.st12{fill:#1E1E1C;}
	.st13{fill:none;stroke:#575756;stroke-width:0.0762;stroke-miterlimit:10;}
	.st14{fill:#706F6F;}
	.st15{fill:none;stroke:#575756;stroke-width:0.5185;stroke-linecap:round;stroke-linejoin:round;stroke-miterlimit:10;}
</style>
<g id="_x3C_Groupe_x3E__viking">
	<path class="st0" d="M47.7,59.2H13.4V0.9h58v58.2H54.8c0,0-5.4,9.7-14.2,11.6C40.6,70.7,45.9,67.2,47.7,59.2z"/>
	<path class="st1" d="M26.1,55.5c0,0,3.5,1.5,8.5,0"/>
	<path class="st1" d="M35.7,55.5c0.3,0.1,9.6,1.9,21.4,0"/>
	<g class="st2">
		<path class="st3" d="M57.019,6.035v4.776h-0.743c0.03-0.166,0.049-0.406,0.054-0.719c0.006-0.314,0.009-0.675,0.009-1.084V6.562    c0-0.409-0.003-0.771-0.009-1.084c-0.005-0.314-0.023-0.554-0.054-0.72h0.743L60.3,9.555V4.758h0.743    c-0.014,0.083-0.025,0.186-0.033,0.307s-0.015,0.259-0.02,0.413c-0.004,0.153-0.006,0.321-0.008,0.503    c-0.001,0.183-0.002,0.376-0.002,0.581v4.25H60.3L57.019,6.035z"/>
		<path class="st3" d="M67.068,10.169c-0.212,0.149-0.411,0.272-0.599,0.369c-0.187,0.097-0.368,0.172-0.544,0.228    c-0.177,0.055-0.35,0.094-0.521,0.116c-0.171,0.022-0.346,0.033-0.524,0.033c-0.391,0-0.75-0.067-1.077-0.203    c-0.327-0.135-0.61-0.334-0.849-0.597c-0.237-0.262-0.424-0.585-0.557-0.968s-0.2-0.823-0.2-1.321s0.073-0.942,0.221-1.335    s0.349-0.725,0.604-0.997c0.256-0.272,0.557-0.48,0.902-0.624c0.345-0.144,0.716-0.216,1.111-0.216    c0.168,0,0.332,0.008,0.49,0.023s0.316,0.043,0.475,0.085s0.319,0.1,0.484,0.176c0.165,0.076,0.338,0.175,0.52,0.296l-0.268,0.746    c-0.154-0.124-0.303-0.227-0.447-0.309s-0.287-0.146-0.428-0.191s-0.279-0.077-0.415-0.095s-0.272-0.027-0.411-0.027    c-0.313,0-0.596,0.055-0.848,0.166c-0.252,0.111-0.465,0.268-0.642,0.473s-0.312,0.453-0.404,0.744    c-0.094,0.292-0.141,0.619-0.141,0.981c0,0.381,0.045,0.724,0.134,1.028c0.09,0.304,0.219,0.563,0.387,0.777    s0.371,0.378,0.608,0.491s0.505,0.17,0.799,0.17c0.124,0,0.239-0.006,0.349-0.019c0.108-0.012,0.217-0.034,0.324-0.064    c0.107-0.03,0.216-0.07,0.326-0.12c0.109-0.05,0.229-0.113,0.354-0.19V8.407H64.84V7.723h2.229V10.169z"/>
	</g>
	<g class="st2">
		<path class="st3" d="M35.16,18.407c1.848,0,3.264,0.606,4.247,1.82c0.982,1.213,1.474,3.016,1.474,5.407v10.884h-3.206v-9.578    c0-1.091-0.072-1.991-0.217-2.699c-0.145-0.708-0.359-1.268-0.642-1.68c-0.283-0.412-0.641-0.7-1.075-0.862    c-0.433-0.162-0.944-0.244-1.534-0.244c-0.624,0-1.233,0.148-1.829,0.444c-0.595,0.296-1.141,0.679-1.638,1.149    s-0.936,1.001-1.317,1.594c-0.381,0.592-0.665,1.184-0.849,1.776v10.101h-3.207v-10.71c0-1.718-0.095-3.172-0.286-4.362    c-0.19-1.19-0.384-2.087-0.581-2.69h3.12c0.069,0.186,0.139,0.427,0.208,0.723s0.133,0.607,0.191,0.932    c0.058,0.325,0.109,0.645,0.156,0.958l0.139,0.784c1.098-1.324,2.207-2.278,3.328-2.865S33.935,18.407,35.16,18.407z"/>
		<path class="st3" d="M60.398,36.082c0,1.533-0.223,2.844-0.668,3.936c-0.444,1.092-1.028,1.982-1.75,2.674    c-0.723,0.69-1.546,1.198-2.471,1.523c-0.924,0.324-1.866,0.487-2.825,0.487c-1.109,0-2.21-0.191-3.302-0.574    c-1.093-0.384-2.102-0.888-3.025-1.515l1.127-2.699c0.82,0.592,1.646,1.073,2.479,1.445c0.832,0.371,1.682,0.557,2.549,0.557    c0.45,0,0.947-0.082,1.49-0.244s1.051-0.443,1.525-0.844c0.474-0.4,0.869-0.938,1.188-1.611c0.317-0.674,0.477-1.516,0.477-2.525    V33.47c-0.451,0.569-0.928,1.053-1.43,1.454c-0.503,0.4-1.012,0.726-1.525,0.975c-0.515,0.25-1.029,0.43-1.543,0.54    c-0.515,0.11-1.008,0.165-1.482,0.165c-0.797,0-1.566-0.139-2.305-0.418c-0.74-0.278-1.396-0.723-1.969-1.332    c-0.571-0.609-1.027-1.402-1.369-2.377c-0.341-0.975-0.511-2.153-0.511-3.535c0-1.335,0.173-2.635,0.521-3.901    c0.346-1.265,0.883-2.389,1.611-3.37s1.661-1.771,2.8-2.369c1.138-0.598,2.499-0.896,4.082-0.896c0.521,0,1.054,0.038,1.604,0.113    c0.549,0.076,1.095,0.177,1.638,0.305c0.543,0.127,1.075,0.27,1.596,0.426c0.52,0.157,1.016,0.311,1.49,0.461V36.082z     M53.551,21.367c-0.947,0-1.756,0.194-2.426,0.583c-0.671,0.389-1.217,0.9-1.639,1.533s-0.73,1.35-0.928,2.151    c-0.196,0.801-0.295,1.614-0.295,2.438c0,1.08,0.084,1.977,0.252,2.69s0.398,1.283,0.693,1.707s0.642,0.726,1.04,0.906    c0.399,0.18,0.835,0.27,1.309,0.27c0.439,0,0.907-0.09,1.404-0.27c0.497-0.18,0.997-0.438,1.499-0.775    c0.503-0.336,0.988-0.754,1.457-1.253c0.467-0.499,0.893-1.068,1.273-1.707v-7.575c-0.277-0.104-0.572-0.2-0.884-0.287    c-0.312-0.087-0.63-0.16-0.954-0.218c-0.323-0.058-0.639-0.104-0.944-0.139C54.104,21.384,53.816,21.367,53.551,21.367z"/>
	</g>
	<g class="st2">
		<path class="st4" d="M58.646,63.39v0.397h-1.436v0.598c0,0.247,0.001,0.465,0.004,0.652c0.004,0.189,0.015,0.332,0.033,0.43    h-0.545c0.018-0.1,0.029-0.243,0.031-0.432c0.004-0.188,0.006-0.405,0.006-0.65v-1.804c0-0.111-0.002-0.214-0.004-0.308    s-0.006-0.178-0.012-0.252c-0.004-0.074-0.012-0.137-0.021-0.188h2.154v0.411h-1.646v1.145H58.646z"/>
		<path class="st4" d="M59.39,64.211c0-0.215,0.032-0.404,0.097-0.568c0.064-0.166,0.15-0.305,0.26-0.418    c0.109-0.114,0.236-0.2,0.381-0.258c0.146-0.059,0.301-0.088,0.464-0.088c0.17,0,0.325,0.029,0.466,0.088    c0.143,0.058,0.264,0.144,0.365,0.258c0.102,0.113,0.18,0.252,0.236,0.418c0.056,0.164,0.084,0.354,0.084,0.568    c0,0.213-0.032,0.402-0.097,0.566s-0.151,0.303-0.261,0.413c-0.108,0.111-0.235,0.195-0.381,0.253    c-0.145,0.057-0.299,0.086-0.463,0.086c-0.17,0-0.326-0.029-0.467-0.086c-0.141-0.058-0.263-0.142-0.363-0.253    c-0.102-0.11-0.182-0.249-0.237-0.413S59.39,64.424,59.39,64.211z M59.848,64.211c0,0.145,0.018,0.273,0.053,0.388    c0.034,0.114,0.083,0.211,0.146,0.29c0.063,0.078,0.139,0.139,0.227,0.18c0.088,0.042,0.186,0.063,0.293,0.063    c0.099,0,0.191-0.021,0.279-0.063c0.088-0.041,0.164-0.102,0.229-0.18c0.066-0.079,0.117-0.176,0.154-0.29    s0.056-0.243,0.056-0.388c0-0.146-0.018-0.277-0.052-0.393c-0.035-0.115-0.084-0.213-0.148-0.293    c-0.063-0.08-0.139-0.143-0.227-0.185c-0.089-0.042-0.186-0.063-0.291-0.063c-0.102,0-0.195,0.021-0.283,0.063    s-0.163,0.104-0.228,0.185s-0.115,0.178-0.152,0.293S59.848,64.064,59.848,64.211z"/>
		<path class="st4" d="M62.361,65.467v-1.529c0-0.246-0.014-0.454-0.041-0.624s-0.055-0.298-0.082-0.384h0.445    c0.02,0.046,0.037,0.104,0.053,0.175c0.016,0.071,0.029,0.149,0.04,0.235s0.019,0.178,0.023,0.275    c0.005,0.099,0.007,0.197,0.007,0.297v0.162c0.084-0.234,0.167-0.428,0.248-0.582c0.081-0.152,0.162-0.275,0.242-0.366    s0.16-0.155,0.24-0.192c0.082-0.035,0.164-0.055,0.248-0.055c0.063,0,0.121,0.006,0.174,0.018s0.105,0.031,0.16,0.058l-0.074,0.46    c-0.047-0.02-0.09-0.033-0.126-0.039c-0.036-0.007-0.081-0.01-0.134-0.01c-0.067,0-0.139,0.027-0.213,0.086    c-0.074,0.057-0.147,0.133-0.219,0.227c-0.072,0.095-0.141,0.201-0.205,0.321s-0.121,0.241-0.17,0.366    c-0.048,0.126-0.087,0.248-0.115,0.367c-0.029,0.12-0.044,0.227-0.044,0.318c0,0.042,0.001,0.08,0.001,0.115    c0.002,0.035,0.004,0.068,0.008,0.101s0.01,0.064,0.016,0.097c0.008,0.033,0.016,0.066,0.025,0.104H62.361z"/>
		<path class="st4" d="M65.705,62.879c0.164,0,0.307,0.02,0.427,0.059s0.225,0.09,0.315,0.153l-0.086,0.448    c-0.113-0.083-0.225-0.146-0.335-0.188c-0.11-0.041-0.229-0.062-0.358-0.062c-0.111,0-0.214,0.021-0.309,0.063    c-0.096,0.042-0.178,0.104-0.248,0.183s-0.125,0.178-0.164,0.294c-0.04,0.115-0.061,0.247-0.061,0.393    c0,0.135,0.02,0.256,0.055,0.365c0.037,0.11,0.089,0.204,0.156,0.283c0.068,0.078,0.149,0.14,0.246,0.183    c0.096,0.044,0.203,0.065,0.324,0.065c0.15,0,0.285-0.026,0.408-0.078c0.122-0.051,0.238-0.125,0.347-0.221l0.05,0.436    c-0.063,0.047-0.125,0.089-0.188,0.123c-0.062,0.033-0.127,0.063-0.194,0.084c-0.067,0.022-0.14,0.039-0.218,0.05    s-0.162,0.017-0.255,0.017c-0.167,0-0.323-0.029-0.468-0.088c-0.146-0.06-0.273-0.145-0.382-0.256s-0.194-0.245-0.257-0.402    c-0.063-0.158-0.095-0.336-0.095-0.535c0-0.188,0.03-0.364,0.091-0.53c0.06-0.165,0.146-0.312,0.257-0.435    c0.112-0.125,0.247-0.223,0.406-0.295S65.508,62.879,65.705,62.879z"/>
		<path class="st4" d="M68.131,62.879c0.135,0,0.256,0.017,0.359,0.049c0.104,0.033,0.193,0.077,0.27,0.135    c0.076,0.057,0.14,0.124,0.191,0.2c0.051,0.076,0.092,0.158,0.122,0.246s0.052,0.18,0.065,0.274    c0.014,0.096,0.02,0.189,0.02,0.283v0.097c0,0.042,0,0.073-0.002,0.097H67.4c0.005,0.146,0.027,0.273,0.068,0.381    c0.04,0.107,0.096,0.197,0.166,0.268s0.152,0.123,0.247,0.158s0.198,0.053,0.312,0.053c0.16,0,0.316-0.02,0.471-0.055    c0.152-0.037,0.306-0.102,0.457-0.195l0.05,0.411c-0.087,0.045-0.173,0.083-0.257,0.114c-0.085,0.031-0.169,0.057-0.254,0.077    c-0.084,0.021-0.169,0.034-0.256,0.044c-0.086,0.009-0.178,0.014-0.273,0.014c-0.158,0-0.31-0.028-0.453-0.084    c-0.144-0.055-0.27-0.137-0.379-0.246c-0.109-0.108-0.195-0.243-0.26-0.404c-0.064-0.16-0.097-0.348-0.097-0.56    c0-0.206,0.027-0.392,0.083-0.559c0.055-0.167,0.134-0.31,0.236-0.428s0.227-0.21,0.374-0.274    C67.783,62.912,67.947,62.879,68.131,62.879z M68.094,63.252c-0.182,0-0.33,0.055-0.445,0.161    c-0.116,0.106-0.191,0.273-0.229,0.499h1.293c0-0.106-0.016-0.201-0.046-0.283s-0.073-0.15-0.129-0.207s-0.12-0.099-0.196-0.127    S68.184,63.252,68.094,63.252z"/>
	</g>
	<g class="st2">
		<path class="st4" d="M16.228,62.578h1.423v0.162H17.05c-0.131,0-0.22,0.042-0.268,0.126c-0.026,0.046-0.04,0.107-0.04,0.183v4.567    c0,0.101,0.014,0.176,0.043,0.226c0.049,0.086,0.145,0.129,0.287,0.129h0.578v0.173h-1.423V62.578z"/>
		<path class="st4" d="M21.869,64.865v2.2c0,0.508-0.167,0.847-0.501,1.019c-0.267,0.136-0.562,0.206-0.885,0.211    c-0.295,0.003-0.504-0.028-0.627-0.095c-0.118-0.063-0.177-0.112-0.177-0.149c-0.019-0.086-0.028-0.281-0.028-0.584    c0.016,0,0.081,0.071,0.197,0.215c0.126,0.156,0.214,0.252,0.262,0.285c0.139,0.092,0.319,0.137,0.542,0.137    c0.253-0.025,0.447-0.098,0.583-0.217c0.108-0.096,0.162-0.351,0.162-0.766v-1.814c0-0.537-0.143-0.885-0.428-1.044    c-0.124-0.069-0.257-0.104-0.397-0.104c-0.204,0-0.366,0.047-0.487,0.143c-0.207,0.162-0.31,0.346-0.31,0.551v1.576    c0,0.27,0.083,0.436,0.248,0.498c0.061,0.018,0.122,0.033,0.183,0.051c0.096,0.025,0.144,0.046,0.144,0.063    c-0.014,0.059-0.161,0.088-0.439,0.088h-0.677c-0.211,0-0.317-0.029-0.317-0.088c0-0.016,0.032-0.035,0.096-0.059    c0.042-0.016,0.084-0.03,0.125-0.046c0.114-0.062,0.17-0.235,0.17-0.521v-1.801c0-0.313-0.132-0.479-0.396-0.498    c-0.11-0.008-0.165-0.027-0.165-0.059c0-0.008,0.172-0.059,0.515-0.148c0.024-0.007,0.107-0.037,0.25-0.09    c0.12-0.045,0.194-0.068,0.223-0.068c0.027,0.012,0.042,0.106,0.042,0.285c0,0.035-0.001,0.089-0.003,0.16    c-0.002,0.072-0.003,0.125-0.003,0.16c0,0.045,0.004,0.084,0.013,0.115c0.132-0.15,0.243-0.263,0.332-0.339    c0.228-0.194,0.453-0.292,0.675-0.292c0.475,0,0.801,0.209,0.979,0.627C21.834,64.629,21.869,64.762,21.869,64.865z"/>
		<path class="st4" d="M24.38,68.144h-1.426v-0.165h0.604c0.202,0,0.304-0.103,0.304-0.306v-4.571c0-0.234-0.109-0.352-0.327-0.352    h-0.581v-0.172h1.426V68.144z"/>
	</g>
	<g class="st2">
		<path class="st4" d="M58.071,66.842h0.495v3.476h-0.495V66.842z"/>
		<path class="st4" d="M60.869,66.797c0.316,0,0.579,0.168,0.786,0.502c0.208,0.334,0.312,0.758,0.312,1.271    c0,0.527-0.104,0.957-0.312,1.287c-0.207,0.33-0.476,0.494-0.806,0.494c-0.336,0-0.604-0.161-0.808-0.484    c-0.203-0.324-0.304-0.752-0.304-1.286c0-0.527,0.104-0.956,0.314-1.288C60.262,66.963,60.534,66.797,60.869,66.797z     M60.874,67.27H60.85c-0.189,0-0.341,0.117-0.452,0.353c-0.111,0.234-0.167,0.553-0.167,0.954c0,0.411,0.055,0.734,0.163,0.967    c0.109,0.234,0.259,0.352,0.45,0.352c0.192,0,0.344-0.117,0.454-0.352c0.11-0.232,0.165-0.551,0.165-0.952    c0-0.403-0.053-0.724-0.159-0.963S61.055,67.27,60.874,67.27z"/>
		<path class="st4" d="M63.405,66.797c0.317,0,0.579,0.168,0.786,0.502s0.311,0.758,0.311,1.271c0,0.527-0.104,0.957-0.311,1.287    s-0.476,0.494-0.806,0.494c-0.335,0-0.604-0.161-0.808-0.484c-0.203-0.324-0.305-0.752-0.305-1.286    c0-0.527,0.105-0.956,0.314-1.288C62.798,66.963,63.07,66.797,63.405,66.797z M63.41,67.27h-0.024    c-0.19,0-0.341,0.117-0.452,0.353c-0.111,0.234-0.167,0.553-0.167,0.954c0,0.411,0.054,0.734,0.163,0.967    c0.109,0.234,0.26,0.352,0.451,0.352s0.342-0.117,0.453-0.352C63.944,69.311,64,68.992,64,68.591c0-0.403-0.054-0.724-0.16-0.963    S63.59,67.27,63.41,67.27z"/>
		<path class="st4" d="M66.959,66.803c0.213,0,0.395,0.076,0.545,0.229s0.225,0.336,0.225,0.55c0,0.212-0.075,0.395-0.227,0.547    c-0.15,0.153-0.332,0.229-0.543,0.229s-0.393-0.076-0.543-0.229c-0.152-0.152-0.227-0.335-0.227-0.547    c0-0.214,0.074-0.397,0.225-0.55S66.746,66.803,66.959,66.803z M68.711,66.792h0.383l-2.275,3.565h-0.382L68.711,66.792z     M66.953,67.18c-0.111,0-0.205,0.04-0.283,0.119c-0.078,0.078-0.117,0.172-0.117,0.283c0,0.109,0.039,0.203,0.119,0.28    c0.078,0.077,0.172,0.116,0.281,0.116s0.204-0.039,0.282-0.116s0.117-0.171,0.117-0.28c0-0.112-0.038-0.207-0.116-0.285    C67.159,67.219,67.064,67.18,66.953,67.18z M68.592,68.805c0.211,0,0.393,0.076,0.545,0.228c0.15,0.151,0.227,0.334,0.227,0.546    c0,0.213-0.075,0.393-0.227,0.541c-0.15,0.148-0.332,0.223-0.545,0.223c-0.214,0-0.396-0.074-0.547-0.223    c-0.151-0.148-0.227-0.328-0.227-0.541s0.076-0.396,0.228-0.547S68.379,68.805,68.592,68.805z M68.587,69.184    c-0.108,0-0.201,0.038-0.277,0.115c-0.077,0.078-0.114,0.172-0.114,0.281c0,0.11,0.037,0.205,0.114,0.283    c0.076,0.079,0.169,0.118,0.277,0.118c0.112,0,0.206-0.038,0.284-0.116c0.077-0.078,0.116-0.173,0.116-0.285    c0-0.111-0.039-0.205-0.116-0.281C68.793,69.221,68.699,69.184,68.587,69.184z"/>
	</g>
	<g class="st2">
		<path class="st5" d="M31.465,48.906c-0.069,0.143-0.141,0.297-0.215,0.463s-0.146,0.328-0.213,0.488    c-0.068,0.158-0.131,0.31-0.191,0.452c-0.059,0.143-0.109,0.264-0.148,0.363c-0.033,0.079-0.077,0.188-0.131,0.325    c-0.054,0.139-0.116,0.293-0.183,0.463c-0.068,0.172-0.14,0.352-0.215,0.543c-0.076,0.19-0.15,0.379-0.223,0.564    c-0.175,0.438-0.361,0.908-0.56,1.413h-0.941c-0.191-0.481-0.372-0.936-0.54-1.363c-0.072-0.183-0.147-0.368-0.223-0.558    c-0.076-0.189-0.148-0.37-0.215-0.545c-0.068-0.174-0.131-0.334-0.188-0.479s-0.106-0.267-0.146-0.363    c-0.04-0.1-0.089-0.222-0.148-0.366c-0.06-0.145-0.124-0.296-0.193-0.455s-0.14-0.32-0.213-0.484s-0.144-0.318-0.213-0.461h1.04    l1.511,4.08l1.51-4.08H31.465z"/>
	</g>
	<g class="st2">
		<path class="st5" d="M32.308,47.289c0-0.093,0.015-0.18,0.044-0.261c0.03-0.081,0.072-0.153,0.126-0.214    c0.055-0.062,0.12-0.109,0.196-0.145c0.076-0.035,0.16-0.053,0.252-0.053s0.178,0.018,0.257,0.053    c0.08,0.035,0.147,0.083,0.203,0.145c0.056,0.061,0.101,0.133,0.134,0.214c0.033,0.081,0.05,0.168,0.05,0.261    c0,0.094-0.017,0.18-0.05,0.262c-0.033,0.081-0.078,0.152-0.134,0.214s-0.124,0.109-0.203,0.144    c-0.079,0.035-0.165,0.053-0.257,0.053s-0.177-0.018-0.252-0.053c-0.076-0.034-0.141-0.082-0.196-0.144    c-0.054-0.062-0.097-0.133-0.126-0.214C32.323,47.469,32.308,47.383,32.308,47.289z M33.398,51.618    c0,0.159,0.002,0.347,0.007,0.564s0.011,0.437,0.02,0.659s0.019,0.436,0.03,0.637c0.012,0.203,0.026,0.37,0.042,0.503h-1.015    v-2.638c0-0.241-0.001-0.48-0.002-0.716s-0.005-0.458-0.01-0.669s-0.013-0.406-0.022-0.588c-0.01-0.18-0.023-0.336-0.04-0.465    h0.991V51.618z"/>
	</g>
	<g class="st6">
		<path class="st7" d="M36.042,53.981v-5.622c0-0.537-0.003-1.008-0.01-1.41c-0.006-0.404-0.028-0.713-0.064-0.929h0.99v4.971    l2.005-2.085h1.238l-2.451,2.225l2.6,2.851h-1.213l-2.179-2.587v2.587H36.042z"/>
	</g>
	<g class="st2">
		<path class="st5" d="M41.068,47.289c0-0.093,0.015-0.18,0.044-0.261c0.03-0.081,0.072-0.153,0.126-0.214    c0.055-0.062,0.12-0.109,0.196-0.145c0.075-0.035,0.16-0.053,0.253-0.053c0.092,0,0.178,0.018,0.257,0.053    s0.147,0.083,0.203,0.145c0.056,0.061,0.101,0.133,0.134,0.214s0.05,0.168,0.05,0.261c0,0.094-0.017,0.18-0.05,0.262    c-0.033,0.081-0.078,0.152-0.134,0.214s-0.124,0.109-0.203,0.144c-0.079,0.035-0.165,0.053-0.257,0.053    c-0.093,0-0.178-0.018-0.253-0.053c-0.076-0.034-0.142-0.082-0.196-0.144c-0.054-0.062-0.096-0.133-0.126-0.214    C41.083,47.469,41.068,47.383,41.068,47.289z M42.158,51.618c0,0.159,0.002,0.347,0.007,0.564s0.011,0.437,0.02,0.659    s0.019,0.436,0.03,0.637c0.012,0.203,0.025,0.37,0.041,0.503h-1.015v-2.638c0-0.241-0.001-0.48-0.003-0.716    c-0.001-0.235-0.004-0.458-0.01-0.669c-0.004-0.211-0.012-0.406-0.021-0.588c-0.01-0.18-0.023-0.336-0.04-0.465h0.991V51.618z"/>
	</g>
	<g class="st2">
		<path class="st3" d="M47.439,47.512c0.661,0,1.167,0.217,1.518,0.65c0.352,0.434,0.527,1.076,0.527,1.932v3.888h-1.146v-3.421    c0-0.391-0.025-0.712-0.077-0.965s-0.128-0.453-0.229-0.601s-0.229-0.249-0.384-0.308S47.311,48.6,47.1,48.6    c-0.223,0-0.441,0.054-0.653,0.159c-0.213,0.106-0.407,0.243-0.585,0.411s-0.334,0.357-0.471,0.568    c-0.137,0.212-0.238,0.424-0.304,0.635v3.608h-1.146v-3.826c0-0.614-0.034-1.133-0.102-1.558    c-0.068-0.426-0.138-0.746-0.208-0.962h1.114c0.025,0.066,0.05,0.153,0.074,0.259c0.025,0.105,0.048,0.217,0.068,0.332    c0.021,0.117,0.039,0.23,0.057,0.343l0.049,0.28c0.393-0.473,0.789-0.814,1.189-1.023C46.584,47.616,47.002,47.512,47.439,47.512z    "/>
	</g>
	<g>
		<path class="st3" d="M56.484,53.826c0,0.547-0.08,1.016-0.238,1.406c-0.158,0.389-0.367,0.707-0.625,0.955    c-0.258,0.246-0.553,0.428-0.883,0.543c-0.33,0.117-0.667,0.175-1.01,0.175c-0.396,0-0.789-0.068-1.18-0.205    c-0.39-0.138-0.75-0.317-1.08-0.542l0.402-0.964c0.293,0.212,0.588,0.384,0.886,0.517c0.297,0.133,0.601,0.199,0.91,0.199    c0.161,0,0.339-0.029,0.532-0.088c0.194-0.058,0.376-0.158,0.545-0.301c0.17-0.144,0.311-0.336,0.424-0.576    c0.114-0.24,0.171-0.541,0.171-0.902v-1.15c-0.161,0.203-0.331,0.377-0.511,0.52s-0.361,0.26-0.545,0.349    s-0.367,0.153-0.551,0.192s-0.361,0.06-0.529,0.06c-0.285,0-0.561-0.05-0.824-0.149s-0.498-0.258-0.703-0.477    c-0.204-0.217-0.367-0.5-0.488-0.849c-0.123-0.349-0.184-0.769-0.184-1.263c0-0.477,0.063-0.941,0.186-1.394    c0.125-0.452,0.316-0.854,0.576-1.204c0.26-0.35,0.594-0.633,1-0.846c0.406-0.214,0.893-0.32,1.459-0.32    c0.186,0,0.377,0.014,0.572,0.04c0.196,0.027,0.391,0.063,0.586,0.108c0.193,0.047,0.383,0.098,0.569,0.152    c0.186,0.057,0.363,0.111,0.532,0.166V53.826z M54.039,48.569c-0.339,0-0.628,0.069-0.867,0.208    c-0.24,0.139-0.436,0.322-0.586,0.548s-0.261,0.481-0.331,0.769c-0.069,0.285-0.104,0.576-0.104,0.871    c0,0.385,0.029,0.705,0.09,0.961c0.059,0.255,0.142,0.458,0.247,0.609s0.229,0.26,0.372,0.323    c0.143,0.064,0.298,0.097,0.467,0.097c0.157,0,0.324-0.032,0.502-0.097c0.178-0.063,0.355-0.156,0.535-0.276    c0.18-0.121,0.354-0.27,0.521-0.448s0.319-0.382,0.455-0.61v-2.705c-0.099-0.037-0.204-0.072-0.315-0.104    s-0.226-0.057-0.341-0.077c-0.116-0.021-0.228-0.038-0.337-0.05C54.236,48.575,54.133,48.569,54.039,48.569z"/>
		<path class="st3" d="M50.354,54.914v-0.497h6.967v0.497H50.354z"/>
	</g>
	<g class="st2">
		<path class="st3" d="M19.736,6.63c0.119-0.214,0.319-0.413,0.602-0.597c0.263-0.169,0.522-0.253,0.78-0.253    c0.277,0,0.498,0.06,0.661,0.179c0.208,0.144,0.312,0.353,0.312,0.627v1.858c0,0.184,0.01,0.308,0.03,0.373    c0.03,0.149,0.104,0.224,0.223,0.224c0.134,0,0.285-0.211,0.453-0.634c0.025-0.094,0.055-0.187,0.089-0.276    c0.015-0.05,0.033-0.104,0.056-0.161s0.046-0.118,0.07-0.183l0.112,0.224c-0.04,0.095-0.073,0.179-0.101,0.254    s-0.051,0.142-0.07,0.201c-0.01,0.02-0.018,0.041-0.022,0.063s-0.01,0.041-0.015,0.056c-0.01,0.02-0.019,0.04-0.026,0.06    c-0.007,0.02-0.014,0.038-0.019,0.052c-0.015,0.045-0.028,0.087-0.041,0.127c-0.013,0.04-0.021,0.072-0.026,0.097    c-0.148,0.249-0.414,0.373-0.795,0.373c-0.173,0-0.302-0.037-0.386-0.112c-0.163-0.104-0.245-0.261-0.245-0.47V6.675    c0-0.154-0.025-0.286-0.074-0.396c-0.074-0.129-0.196-0.194-0.364-0.194c-0.233,0-0.476,0.107-0.729,0.321    c-0.302,0.244-0.463,0.505-0.482,0.784v2.104h-0.691V6.973V6.652c0-0.224-0.005-0.358-0.015-0.403    c-0.025-0.065-0.062-0.109-0.111-0.134c-0.119,0-0.282,0.303-0.49,0.91c-0.055,0.149-0.103,0.279-0.145,0.388    s-0.073,0.197-0.093,0.261c-0.06,0.164-0.097,0.276-0.111,0.336l-0.119-0.224c0.02-0.069,0.037-0.122,0.052-0.157    c0.005-0.03,0.012-0.058,0.022-0.085c0.01-0.027,0.02-0.056,0.03-0.086c0.01-0.025,0.019-0.051,0.026-0.079    c0.008-0.027,0.019-0.056,0.034-0.085c0.005-0.025,0.012-0.051,0.022-0.079c0.01-0.027,0.02-0.056,0.029-0.086    c0.01-0.025,0.019-0.049,0.026-0.075c0.007-0.024,0.019-0.052,0.033-0.082c0.01-0.049,0.03-0.107,0.06-0.171    c0.01-0.035,0.025-0.081,0.044-0.138c0.02-0.057,0.044-0.123,0.074-0.198c0.188-0.458,0.429-0.687,0.721-0.687    c0.287,0,0.465,0.075,0.535,0.224c0.044,0.085,0.067,0.294,0.067,0.627H19.736z"/>
		<path class="st3" d="M25.538,8.451c-0.099,0.239-0.277,0.443-0.535,0.612c-0.258,0.154-0.538,0.231-0.84,0.231    c-0.396,0-0.688-0.164-0.876-0.493c-0.178-0.284-0.268-0.632-0.268-1.045c0-0.572,0.126-1.022,0.379-1.351    c0.282-0.374,0.726-0.56,1.33-0.56c0.391,0,0.661,0.112,0.81,0.336V5.846h0.728V9.07c0.198-0.273,0.314-0.44,0.349-0.5    c0.213-0.318,0.354-0.589,0.423-0.813l0.119,0.224c-0.074,0.229-0.221,0.51-0.438,0.843c-0.084,0.12-0.164,0.235-0.238,0.347    s-0.146,0.22-0.215,0.325v3.769c0,0.896-0.119,1.609-0.356,2.142c-0.282,0.612-0.704,0.918-1.263,0.918    c-0.257,0-0.448-0.146-0.572-0.44c-0.124-0.294-0.186-0.685-0.186-1.172c0-0.358,0.05-0.786,0.149-1.284    c0.089-0.418,0.208-0.831,0.356-1.239c0.134-0.413,0.305-0.829,0.513-1.247c0.104-0.204,0.209-0.408,0.315-0.612    c0.106-0.204,0.212-0.406,0.316-0.604V8.451z M24.847,6.011c-0.352,0-0.612,0.149-0.78,0.448c-0.173,0.303-0.26,0.671-0.26,1.104    c0,0.313,0.057,0.58,0.171,0.798c0.139,0.284,0.361,0.426,0.668,0.426c0.243,0,0.446-0.077,0.609-0.231    c0.124-0.12,0.218-0.276,0.282-0.47V7.003C25.538,6.341,25.307,6.011,24.847,6.011z M24.594,12.519    c-0.124,0.378-0.215,0.741-0.275,1.09c-0.015,0.075-0.03,0.146-0.045,0.216c-0.015,0.07-0.027,0.134-0.037,0.194    c-0.02,0.189-0.029,0.286-0.029,0.292c-0.01,0.079-0.015,0.153-0.015,0.22c0,0.067,0,0.126,0,0.176    c0,0.353,0.047,0.637,0.141,0.851s0.235,0.321,0.423,0.321c0.327,0,0.55-0.313,0.669-0.94c0.074-0.383,0.111-0.913,0.111-1.589    v-2.993c-0.069,0.135-0.134,0.264-0.193,0.388c-0.059,0.125-0.116,0.244-0.171,0.358c-0.109,0.204-0.17,0.333-0.186,0.388    c-0.193,0.403-0.324,0.744-0.394,1.022V12.519z"/>
	</g>
	<g>
		<path class="st8" d="M16.5,38.1c0,0,0.1,0.4,0,1.1h0.4v2.6h-0.2c0,0,0.4,0.6,0.3,1.9c0,1.2-0.2,0.9,0.1,2.7c0,0,0.8,6.1-5.7,8    h-0.2c-6.6-1.9-5.7-8-5.7-8c0.3-1.8,0.1-1.5,0.1-2.7c-0.1-1.2,0.3-1.9,0.3-1.9H5.6v-2.6H6c-0.1-0.7,0-1.1,0-1.1    c-0.9-0.1-2.4-0.3-3.6-1.4c-2.3-2.1-2.3-6.2-1.5-6.6C1,30,1.3,30,1.3,30.1c0.2,1.5,1,3,1,3c0.2,0.4,0.7,1.2,1.8,1.7    c1.4,0.6,2.7,0.6,3.3,0.5l0.1-0.1C9.1,34.1,9.9,34,9.9,34v-0.6h1.3l0,0h1.3V34c0,0,0.8,0.1,2.4,1.2c0,0,0.1,0,0.2,0.1    c0.6,0.1,1.9,0.1,3.3-0.5c1.1-0.5,1.6-1.3,1.8-1.7c0,0,0.9-1.5,1-3c0-0.2,0.3-0.2,0.4,0C22.2,32.4,22.7,37.1,16.5,38.1z"/>
		<path class="st9" d="M15,35.4c0,0,1.2,0.8,1.4,2.8c0,0,4.2-0.4,5.2-3.5c0,0,0.8-1.9,0-4.5c0,0-0.4-0.4-0.4,0.4    c0,0-0.7,3.3-2.7,4.3C18.5,34.8,16.9,35.5,15,35.4z"/>
		<path class="st3" d="M9.4,42.9l0.6,0.3c0.1,0.3-0.2,0.6-0.4,0.6c-0.3,0-0.5-0.2-0.5-0.5C9,42.9,9.4,42.9,9.4,42.9z"/>
		<path class="st3" d="M13,42.9c0.2,0,0.3,0.2,0.3,0.5s-0.2,0.5-0.5,0.5s-0.6-0.3-0.6-0.6L13,42.9z"/>
		<rect x="9.9" y="33.4" class="st10" width="2.5" height="8.4"/>
		<rect x="9.9" y="33.4" class="st11" width="2.5" height="8.4"/>
		<polyline class="st11" points="9.9,34.1 9.9,39.2 5.9,39.3   "/>
		<polyline class="st11" points="12.4,34.1 12.4,39.3 16.4,39.3   "/>
		<path class="st11" d="M7.5,35.3c0,0-1.4,0.6-1.5,2.8"/>
		<rect x="10.9" y="39.9" class="st12" width="0.6" height="1.3"/>
		<rect x="10.9" y="39.9" class="st3" width="0.6" height="1.3"/>
		<rect x="10.6" y="40.3" class="st3" width="1.3" height="0.6"/>
		<line class="st13" x1="5.7" y1="41.8" x2="16.6" y2="41.8"/>
		<path class="st11" d="M11.5,46.9c0.1,0,0.1,0,0.1,0.1c1.9,4.3,5.4-1.5,5.3-1.3c0,0,1.5,6.4-5.6,8.7c0,0-6.6-1.1-5.8-8.7    c0,0,3.7,5.5,5.6,1.3l0.1-0.1H11.5z"/>
		<path class="st14" d="M7,40.2c0.2,0,0.4,0.2,0.4,0.4S7.2,41,7,41s-0.4-0.2-0.4-0.4C6.6,40.3,6.8,40.2,7,40.2z"/>
		<path class="st14" d="M8.9,40.2c0.2,0,0.4,0.2,0.4,0.4S9.1,41,8.9,41s-0.4-0.2-0.4-0.4C8.5,40.3,8.7,40.2,8.9,40.2z"/>
		<path class="st3" d="M11.2,35.5c0.2,0,0.4,0.2,0.4,0.4s-0.2,0.4-0.4,0.4s-0.4-0.2-0.4-0.4S11,35.5,11.2,35.5z"/>
		<path class="st3" d="M11.2,37.1c0.2,0,0.4,0.2,0.4,0.4s-0.2,0.4-0.4,0.4s-0.4-0.2-0.4-0.4S11,37.1,11.2,37.1z"/>
		<path class="st14" d="M13.7,40.2c0.2,0,0.4,0.2,0.4,0.4S13.9,41,13.7,41s-0.4-0.2-0.4-0.4C13.3,40.3,13.5,40.2,13.7,40.2z"/>
		<path class="st3" d="M15.5,40.2c0.2,0,0.4,0.2,0.4,0.4S15.7,41,15.5,41s-0.4-0.2-0.4-0.4C15.2,40.3,15.3,40.2,15.5,40.2"/>
		<path class="st11" d="M14.9,35.3c0,0,1.4,0.7,1.5,2.8"/>
		<path class="st11" d="M10.1,45.6c0,0,0,0.6,1.1,0.6c0.7,0,1.2-0.3,1.2-0.6"/>
		<path class="st11" d="M10.1,44.9c0,0-0.5,0.2-0.1,0.8"/>
		<path class="st11" d="M12.6,45.7c0,0,0.4-0.7-0.3-0.8"/>
		<path class="st11" d="M9.8,45.4c0,0-0.3,0-0.9,0.6c-0.6,0.7-1.8,0.3-1.8,0.3s-0.1,1.5,1.6,1c0.4-0.1,0.8-0.2,1.2-0.3    s0.9-0.1,1.4-0.1h0.1c0.5,0,1,0.1,1.4,0.1c0.4,0.1,0.8,0.2,1.2,0.3c1.7,0.5,1.6-1,1.6-1s-1.2,0.4-1.8-0.3s-0.9-0.6-0.9-0.6"/>
		<line class="st11" x1="12" y1="43.4" x2="13.9" y2="42.4"/>
		<line class="st11" x1="8.8" y1="42.5" x2="10.3" y2="43.4"/>
		<path class="st15" d="M16.5,38.1c0,0,0.1,0.4,0,1.1h0.4v2.6h-0.2c0,0,0.4,0.6,0.3,1.9c0,1.2-0.2,0.9,0.1,2.7c0,0,0.8,6.1-5.7,8    h-0.2c-6.6-1.9-5.7-8-5.7-8c0.3-1.8,0.1-1.5,0.1-2.7c-0.1-1.2,0.3-1.9,0.3-1.9H5.6v-2.6H6c-0.1-0.7,0-1.1,0-1.1l0,0    c-6.2-1-5.7-5.7-5.1-8c0.1-0.2,0.3-0.2,0.4,0c0.2,1.5,1,3,1,3c0.2,0.4,0.7,1.2,1.8,1.7c1.4,0.6,2.7,0.6,3.3,0.5l0.1-0.1    C9.1,34.1,9.9,34,9.9,34v-0.6h1.3l0,0h1.3V34c0,0,0.8,0.1,2.4,1.2c0,0,0.1,0,0.2,0.1c0.6,0.1,1.9,0.1,3.3-0.5    c1.1-0.5,1.6-1.3,1.8-1.7c0,0,0.9-1.5,1-3c0-0.2,0.3-0.2,0.4,0C22.2,32.4,22.7,37.1,16.5,38.1z"/>
	</g>
</g>
</svg>