<?xml version="1.0" encoding="UTF-8"?>
<!-- Generator: Adobe Illustrator 24.0.2, SVG Export Plug-In . SVG Version: 6.00 Build 0)  -->
<svg version="1.1" id="Calque_1" xmlns="http://www.w3.org/2000/svg" xmlns:xlink="http://www.w3.org/1999/xlink" x="0px" y="0px" viewBox="0 0 95 61" style="enable-background:new 0 0 95 61;" xml:space="preserve">
<style type="text/css">
	.st0{fill:#FFFFFF;stroke:#DADADA;stroke-width:0.7241;stroke-miterlimit:10;}
	.st1{fill:#FFFFFF;stroke:#9D9D9C;stroke-width:0.7241;stroke-miterlimit:10;}
	.st2{fill:#FFFFFF;stroke:#000000;stroke-width:0.9655;stroke-miterlimit:10;}
	.st3{enable-background:new    ;}
	.st4{fill:#7FC7EB;}
	.st5{fill:none;stroke:#B2B2B2;stroke-width:0.362;stroke-miterlimit:10;}
	.st6{fill:#B2B2B2;}
	.st7{fill:#9D9D9C;}
	.st8{fill:#878787;}
	.st9{fill:#575756;}
	.st10{fill:#FFFFFF;}
	.st11{fill:none;stroke:#575756;stroke-width:0.5211;stroke-linecap:round;stroke-linejoin:round;stroke-miterlimit:10;}
	.st12{fill:none;stroke:#575756;stroke-width:0.1737;stroke-linecap:round;stroke-linejoin:round;stroke-miterlimit:10;}
	.st13{fill:none;}
</style>
<g id="_x3C_Groupe_x3E__ogre">
	<rect x="60.1" y="27.1" class="st0" width="33.8" height="10.9"/>
	<polygon class="st1" points="72.6,27.1 60.2,27.1 60.2,3.7 94,3.7 94,27.1 75.1,27.1  "/>
	<path class="st2" d="M43.2,45.6H18.9V3.8H60v41.8H48.2c0,0-3.8,7-10.1,8.3C38.2,53.9,41.9,51.4,43.2,45.6z"/>
	<g class="st3">
		<path class="st4" d="M90.096,6.477c-0.016,0.101-0.026,0.243-0.03,0.426c-0.004,0.184-0.007,0.407-0.007,0.668v1.283    c0,0.205-0.025,0.391-0.078,0.558s-0.133,0.31-0.242,0.429c-0.107,0.119-0.244,0.211-0.408,0.275    c-0.166,0.065-0.359,0.097-0.582,0.097c-0.226,0-0.422-0.032-0.587-0.097c-0.166-0.064-0.304-0.156-0.412-0.275    s-0.19-0.262-0.243-0.429c-0.055-0.167-0.081-0.353-0.081-0.558V7.571c0-0.248-0.002-0.467-0.006-0.658    c-0.005-0.19-0.015-0.336-0.031-0.437h0.507v2.264c0,0.165,0.015,0.313,0.043,0.444c0.027,0.132,0.074,0.244,0.141,0.337    c0.066,0.093,0.153,0.165,0.262,0.214c0.109,0.05,0.245,0.074,0.408,0.074c0.16,0,0.294-0.024,0.4-0.074    c0.107-0.049,0.193-0.121,0.26-0.214c0.064-0.093,0.111-0.205,0.139-0.337c0.028-0.132,0.043-0.28,0.043-0.444V6.477H90.096z"/>
	</g>
	<g class="st3">
		<path class="st4" d="M66.041,8.839c-0.297,0.305-0.597,0.458-0.9,0.458c-0.357,0-0.608-0.057-0.75-0.17    c-0.197-0.141-0.295-0.385-0.295-0.734V6.544h0.537v1.644c0,0.243,0.026,0.442,0.08,0.599c0.081,0.235,0.229,0.352,0.445,0.352    c0.131,0,0.272-0.045,0.427-0.135c0.138-0.082,0.28-0.204,0.427-0.364V8.499V6.544h0.549v1.82c0,0.243,0.01,0.423,0.028,0.54    c0.022,0.125,0.089,0.188,0.196,0.188c0.065,0,0.131-0.068,0.196-0.206c0.004-0.008,0.104-0.272,0.3-0.792l0.087,0.194    c-0.131,0.388-0.216,0.625-0.254,0.71c-0.108,0.196-0.251,0.295-0.427,0.299C66.307,9.297,66.091,9.145,66.041,8.839z"/>
	</g>
	<path class="st5" d="M28.7,42.3c0,0,2.5,1.5,6.4,0"/>
	<path class="st5" d="M36.4,42.2c0.3,0.1,6.3,2.4,14.4,0"/>
	<g class="st3">
		<path class="st6" d="M70.371,33.008c0,0.423,0.023,0.778,0.069,1.065c0.046,0.288,0.105,0.524,0.179,0.713h-0.578    c-0.011-0.028-0.025-0.069-0.046-0.12c-0.02-0.053-0.04-0.111-0.062-0.177c-0.021-0.065-0.04-0.138-0.059-0.213    c-0.02-0.076-0.035-0.152-0.048-0.228c-0.086,0.111-0.177,0.217-0.272,0.314c-0.096,0.099-0.195,0.186-0.301,0.262    c-0.106,0.076-0.217,0.136-0.33,0.18c-0.115,0.043-0.231,0.065-0.35,0.065c-0.139,0-0.277-0.03-0.414-0.091    c-0.138-0.061-0.262-0.15-0.371-0.271c-0.11-0.121-0.199-0.272-0.268-0.455c-0.068-0.182-0.102-0.396-0.102-0.643    c0-0.256,0.027-0.49,0.084-0.699c0.056-0.209,0.133-0.395,0.229-0.559c0.086-0.143,0.178-0.268,0.273-0.375    c0.098-0.107,0.203-0.197,0.318-0.268c0.116-0.07,0.243-0.123,0.381-0.158c0.139-0.036,0.293-0.055,0.463-0.055    c0.083,0,0.176,0.007,0.278,0.02c0.103,0.012,0.206,0.029,0.313,0.051c0.106,0.023,0.213,0.05,0.318,0.081    s0.203,0.065,0.293,0.101V33.008z M69.035,31.867c-0.07,0-0.141,0.009-0.213,0.025c-0.07,0.018-0.141,0.045-0.211,0.086    c-0.068,0.04-0.136,0.094-0.201,0.159c-0.064,0.065-0.125,0.149-0.183,0.25c-0.06,0.103-0.107,0.231-0.144,0.384    c-0.036,0.153-0.055,0.311-0.055,0.472c0,0.186,0.018,0.345,0.051,0.478c0.035,0.133,0.08,0.243,0.136,0.329    s0.12,0.149,0.191,0.189s0.144,0.061,0.216,0.061c0.093,0,0.193-0.029,0.302-0.087c0.108-0.059,0.216-0.136,0.318-0.232    c0.104-0.096,0.2-0.206,0.292-0.332c0.092-0.125,0.166-0.254,0.227-0.389v-1.258c-0.033-0.016-0.076-0.031-0.127-0.047    c-0.053-0.016-0.109-0.03-0.172-0.044c-0.063-0.013-0.131-0.024-0.205-0.032C69.185,31.871,69.11,31.867,69.035,31.867z"/>
		<path class="st6" d="M72.103,33.193c0,0.106,0.001,0.232,0.005,0.379c0.004,0.145,0.008,0.293,0.014,0.442    c0.005,0.149,0.012,0.293,0.02,0.429c0.008,0.137,0.017,0.251,0.027,0.343h-0.676v-3.791c0-0.327-0.006-0.623-0.016-0.888    c-0.012-0.265-0.028-0.495-0.051-0.689h0.677V33.193z"/>
		<path class="st6" d="M74.758,31.297c0.219,0,0.408,0.027,0.568,0.079c0.159,0.053,0.299,0.122,0.42,0.206l-0.115,0.604    c-0.149-0.112-0.298-0.196-0.445-0.252c-0.146-0.056-0.307-0.084-0.478-0.084c-0.147,0-0.284,0.028-0.411,0.086    c-0.126,0.057-0.236,0.14-0.33,0.247c-0.093,0.106-0.166,0.238-0.219,0.395c-0.053,0.157-0.079,0.334-0.079,0.531    c0,0.181,0.024,0.345,0.073,0.492c0.048,0.148,0.117,0.275,0.207,0.381c0.09,0.106,0.199,0.188,0.326,0.247    c0.128,0.058,0.271,0.087,0.433,0.087c0.2,0,0.382-0.035,0.544-0.104c0.162-0.07,0.316-0.17,0.462-0.299l0.065,0.587    c-0.084,0.065-0.166,0.12-0.248,0.166c-0.083,0.046-0.17,0.084-0.26,0.114s-0.187,0.053-0.29,0.066    c-0.104,0.016-0.216,0.022-0.34,0.022c-0.222,0-0.43-0.04-0.623-0.119s-0.362-0.194-0.508-0.344s-0.26-0.331-0.343-0.544    c-0.084-0.212-0.125-0.453-0.125-0.721c0-0.253,0.039-0.491,0.119-0.715s0.195-0.42,0.344-0.587    c0.148-0.168,0.328-0.3,0.541-0.397C74.259,31.346,74.496,31.297,74.758,31.297z"/>
	</g>
	<g class="st3">
		<path class="st4" d="M76.51,32.668c0-0.359,0.053-0.68,0.16-0.957c0.107-0.279,0.252-0.514,0.434-0.705    c0.181-0.191,0.393-0.336,0.635-0.434c0.241-0.098,0.498-0.146,0.771-0.146c0.282,0,0.542,0.049,0.776,0.146    c0.235,0.098,0.438,0.243,0.606,0.434s0.3,0.426,0.394,0.705c0.094,0.277,0.141,0.598,0.141,0.957c0,0.361-0.054,0.68-0.161,0.957    c-0.106,0.276-0.251,0.508-0.433,0.695s-0.393,0.33-0.635,0.426c-0.242,0.097-0.499,0.145-0.771,0.145    c-0.283,0-0.541-0.048-0.777-0.145c-0.234-0.096-0.436-0.238-0.605-0.426c-0.169-0.188-0.301-0.419-0.394-0.695    C76.557,33.348,76.51,33.029,76.51,32.668z M77.271,32.668c0,0.244,0.029,0.462,0.087,0.654c0.058,0.193,0.14,0.355,0.245,0.488    s0.232,0.234,0.377,0.305c0.146,0.07,0.309,0.105,0.486,0.105c0.166,0,0.32-0.035,0.467-0.105c0.146-0.07,0.272-0.172,0.381-0.305    c0.109-0.133,0.193-0.295,0.256-0.488c0.062-0.192,0.093-0.41,0.093-0.654c0-0.246-0.028-0.465-0.087-0.66    c-0.058-0.193-0.139-0.359-0.245-0.494c-0.106-0.136-0.232-0.239-0.38-0.311c-0.146-0.071-0.309-0.107-0.484-0.107    c-0.167,0-0.324,0.036-0.469,0.107c-0.146,0.071-0.272,0.175-0.38,0.311c-0.106,0.135-0.191,0.301-0.253,0.494    C77.303,32.203,77.271,32.422,77.271,32.668z"/>
	</g>
	<g class="st3">
		<path class="st7" d="M81.229,32.668c0-0.359,0.054-0.68,0.16-0.957c0.107-0.279,0.252-0.514,0.434-0.705s0.393-0.336,0.635-0.434    c0.242-0.098,0.499-0.146,0.771-0.146c0.282,0,0.541,0.049,0.776,0.146c0.235,0.098,0.437,0.243,0.606,0.434    c0.168,0.191,0.3,0.426,0.394,0.705c0.093,0.277,0.14,0.598,0.14,0.957c0,0.361-0.053,0.68-0.16,0.957    c-0.107,0.276-0.252,0.508-0.434,0.695s-0.393,0.33-0.635,0.426c-0.242,0.097-0.498,0.145-0.771,0.145    c-0.283,0-0.542-0.048-0.777-0.145c-0.235-0.096-0.437-0.238-0.606-0.426c-0.168-0.188-0.3-0.419-0.393-0.695    C81.275,33.348,81.229,33.029,81.229,32.668z M81.991,32.668c0,0.244,0.028,0.462,0.087,0.654    c0.057,0.193,0.139,0.355,0.245,0.488c0.105,0.133,0.231,0.234,0.377,0.305s0.308,0.105,0.486,0.105    c0.165,0,0.32-0.035,0.466-0.105c0.146-0.07,0.273-0.172,0.381-0.305c0.109-0.133,0.194-0.295,0.256-0.488    c0.063-0.192,0.094-0.41,0.094-0.654c0-0.246-0.029-0.465-0.088-0.66c-0.057-0.193-0.139-0.359-0.244-0.494    c-0.106-0.136-0.232-0.239-0.38-0.311s-0.309-0.107-0.484-0.107c-0.167,0-0.324,0.036-0.47,0.107    c-0.146,0.071-0.271,0.175-0.379,0.311c-0.107,0.135-0.191,0.301-0.254,0.494C82.021,32.203,81.991,32.422,81.991,32.668z"/>
	</g>
	<g>
		<path class="st6" d="M86.694,33.193c0,0.106,0.001,0.232,0.005,0.379c0.004,0.145,0.008,0.293,0.014,0.442    c0.005,0.149,0.012,0.293,0.02,0.429c0.008,0.137,0.017,0.251,0.027,0.343h-0.676v-3.791c0-0.327-0.006-0.623-0.016-0.888    c-0.012-0.265-0.028-0.495-0.051-0.689h0.677V33.193z"/>
		<path class="st6" d="M85.457,35.289v-0.268h1.863v0.268H85.457z"/>
	</g>
	<g>
		<g class="st3">
			<path class="st4" d="M76.032,13.829c-0.948,0.008-1.427-0.636-1.438-1.931l-0.011-1.334c-0.002-0.145-0.004-0.275-0.006-0.393     S74.57,9.94,74.564,9.83c-0.008-0.11-0.018-0.222-0.029-0.337c-0.014-0.114-0.031-0.239-0.053-0.375l0.91-0.008l0.021,2.509     c0.002,0.256,0.016,0.477,0.043,0.662c0.027,0.186,0.07,0.337,0.131,0.456c0.06,0.119,0.139,0.207,0.235,0.263     c0.097,0.056,0.216,0.083,0.358,0.083c0.13-0.001,0.269-0.042,0.416-0.123c0.148-0.082,0.289-0.185,0.422-0.309     c0.135-0.125,0.256-0.262,0.365-0.412c0.11-0.15,0.194-0.295,0.252-0.434l-0.01-1.266c-0.002-0.147-0.003-0.281-0.006-0.4     c-0.002-0.119-0.007-0.233-0.014-0.341c-0.007-0.108-0.017-0.218-0.029-0.33c-0.014-0.111-0.03-0.236-0.053-0.375l0.912-0.008     l0.021,2.577c0.004,0.44,0.031,0.825,0.083,1.154c0.052,0.329,0.125,0.621,0.223,0.877l-0.755,0.006     c-0.021-0.051-0.044-0.111-0.068-0.18c-0.024-0.069-0.048-0.143-0.071-0.221c-0.022-0.078-0.044-0.16-0.063-0.246     c-0.021-0.084-0.036-0.17-0.049-0.254c-0.267,0.337-0.543,0.592-0.827,0.767C76.645,13.738,76.346,13.826,76.032,13.829z"/>
		</g>
		<g class="st3">
			<path class="st6" d="M70.008,18.434c0.003,0.422,0.029,0.778,0.077,1.064c0.048,0.287,0.11,0.524,0.185,0.711l-0.578,0.005     c-0.011-0.029-0.026-0.069-0.047-0.12c-0.02-0.052-0.041-0.11-0.063-0.176s-0.042-0.137-0.061-0.212     c-0.02-0.076-0.037-0.152-0.051-0.228c-0.084,0.112-0.174,0.218-0.269,0.317s-0.194,0.188-0.3,0.264     c-0.105,0.077-0.215,0.138-0.328,0.183c-0.113,0.044-0.23,0.067-0.35,0.068c-0.139,0.001-0.275-0.028-0.414-0.087     c-0.138-0.059-0.262-0.148-0.373-0.268c-0.111-0.121-0.201-0.271-0.271-0.453c-0.069-0.182-0.105-0.396-0.107-0.642     c-0.002-0.257,0.024-0.49,0.078-0.7c0.055-0.21,0.13-0.397,0.225-0.561c0.085-0.144,0.176-0.271,0.271-0.378     c0.096-0.108,0.201-0.198,0.315-0.27s0.241-0.125,0.38-0.162c0.139-0.038,0.292-0.057,0.461-0.058     c0.084,0,0.177,0.004,0.279,0.017c0.102,0.011,0.207,0.027,0.313,0.049s0.213,0.047,0.319,0.078     c0.105,0.03,0.203,0.063,0.294,0.098L70.008,18.434z M68.662,17.305c-0.07,0-0.141,0.009-0.213,0.027     c-0.071,0.018-0.141,0.046-0.21,0.087c-0.069,0.041-0.136,0.095-0.2,0.162s-0.125,0.15-0.181,0.251     c-0.059,0.103-0.105,0.232-0.14,0.385c-0.035,0.154-0.053,0.311-0.051,0.472c0.002,0.186,0.02,0.345,0.055,0.478     s0.081,0.242,0.138,0.328c0.058,0.085,0.121,0.148,0.192,0.188c0.072,0.04,0.145,0.059,0.217,0.059     c0.092-0.001,0.193-0.031,0.301-0.09c0.109-0.059,0.215-0.137,0.316-0.234c0.103-0.097,0.199-0.208,0.289-0.334     c0.09-0.126,0.165-0.256,0.223-0.391l-0.01-1.258c-0.033-0.015-0.076-0.031-0.127-0.046c-0.053-0.015-0.109-0.029-0.172-0.042     c-0.063-0.013-0.131-0.022-0.205-0.03S68.736,17.304,68.662,17.305z"/>
			<path class="st6" d="M71.74,18.604c0.001,0.107,0.004,0.233,0.008,0.379c0.005,0.146,0.01,0.293,0.018,0.443     c0.006,0.15,0.014,0.293,0.022,0.429s0.019,0.25,0.031,0.342l-0.677,0.006l-0.031-3.791c-0.002-0.326-0.01-0.622-0.023-0.887     s-0.031-0.494-0.055-0.689l0.676-0.006L71.74,18.604z"/>
			<path class="st6" d="M72.855,19.97l-0.033-3.968c0-0.143-0.004-0.287-0.008-0.431c-0.005-0.145-0.011-0.282-0.018-0.413     c-0.009-0.131-0.02-0.243-0.033-0.337l0.66-0.006l0.021,2.6c0.075-0.104,0.158-0.199,0.248-0.287     c0.09-0.088,0.186-0.165,0.289-0.23s0.217-0.118,0.338-0.156c0.119-0.038,0.25-0.057,0.389-0.059     c0.166-0.001,0.318,0.039,0.459,0.12c0.139,0.082,0.26,0.196,0.361,0.344c0.103,0.148,0.183,0.325,0.24,0.53     s0.088,0.43,0.09,0.673c0.002,0.289-0.033,0.549-0.107,0.783s-0.18,0.433-0.316,0.6c-0.137,0.167-0.305,0.295-0.5,0.387     c-0.195,0.091-0.416,0.138-0.66,0.14c-0.133,0.001-0.264-0.007-0.389-0.025s-0.247-0.042-0.365-0.071     c-0.117-0.029-0.232-0.061-0.342-0.094C73.069,20.036,72.961,20.002,72.855,19.97z M74.271,19.74     c0.146-0.001,0.279-0.033,0.402-0.094c0.121-0.061,0.227-0.147,0.314-0.257c0.089-0.11,0.157-0.244,0.207-0.399     c0.049-0.156,0.072-0.328,0.071-0.516c-0.001-0.186-0.02-0.353-0.054-0.503c-0.034-0.149-0.083-0.276-0.146-0.379     s-0.142-0.183-0.234-0.238c-0.093-0.055-0.197-0.083-0.316-0.081c-0.104,0-0.207,0.024-0.31,0.071s-0.2,0.112-0.294,0.195     c-0.093,0.083-0.18,0.183-0.26,0.299c-0.08,0.116-0.147,0.243-0.201,0.382l0.012,1.342c0.081,0.033,0.155,0.061,0.223,0.083     c0.067,0.023,0.133,0.042,0.197,0.056c0.063,0.014,0.127,0.024,0.189,0.03S74.201,19.74,74.271,19.74z"/>
		</g>
		<g class="st3">
			<path class="st4" d="M78.119,20.248c-0.879,0.007-1.324-0.59-1.334-1.792l-0.01-1.237c-0.001-0.134-0.003-0.256-0.006-0.365     c-0.002-0.109-0.006-0.214-0.012-0.316c-0.007-0.102-0.016-0.206-0.027-0.312c-0.013-0.106-0.028-0.222-0.049-0.348l0.845-0.007     l0.02,2.328c0.002,0.237,0.015,0.442,0.04,0.614c0.025,0.172,0.064,0.313,0.121,0.422c0.056,0.11,0.129,0.191,0.219,0.243     c0.09,0.053,0.2,0.079,0.332,0.077c0.121-0.001,0.25-0.039,0.387-0.114c0.137-0.076,0.268-0.171,0.391-0.287     c0.125-0.115,0.238-0.243,0.34-0.382c0.102-0.139,0.18-0.273,0.233-0.402l-0.01-1.174c-0.001-0.137-0.003-0.26-0.005-0.371     c-0.002-0.11-0.007-0.216-0.014-0.316c-0.006-0.101-0.015-0.203-0.027-0.306c-0.011-0.103-0.027-0.219-0.047-0.348l0.844-0.007     l0.021,2.39c0.003,0.408,0.029,0.766,0.077,1.071c0.047,0.306,0.117,0.577,0.207,0.814l-0.701,0.006     c-0.02-0.047-0.041-0.103-0.063-0.167c-0.022-0.064-0.044-0.132-0.065-0.205c-0.021-0.072-0.041-0.148-0.06-0.228     c-0.019-0.08-0.034-0.158-0.046-0.237c-0.247,0.313-0.502,0.55-0.767,0.711C78.688,20.164,78.41,20.246,78.119,20.248z"/>
		</g>
		<g>
			<path class="st6" d="M84.192,20.091l-0.61,0.005l-0.016-1.912c-0.002-0.208-0.011-0.376-0.027-0.505     c-0.016-0.128-0.043-0.229-0.08-0.301s-0.086-0.121-0.148-0.145c-0.061-0.024-0.138-0.036-0.23-0.035     c-0.081,0-0.162,0.018-0.243,0.052c-0.081,0.035-0.159,0.083-0.231,0.145c-0.073,0.063-0.141,0.136-0.203,0.22     c-0.062,0.084-0.114,0.177-0.158,0.278l0.02,2.214l-0.61,0.005l-0.017-2.063c-0.004-0.331-0.024-0.611-0.063-0.84     c-0.04-0.229-0.077-0.401-0.113-0.518l0.594-0.005c0.024,0.071,0.046,0.156,0.064,0.253c0.019,0.097,0.033,0.186,0.046,0.266     c0.1-0.12,0.195-0.218,0.287-0.294s0.183-0.137,0.273-0.182c0.092-0.045,0.182-0.075,0.271-0.093     c0.09-0.017,0.183-0.026,0.277-0.027c0.107,0,0.205,0.014,0.294,0.044c0.088,0.031,0.166,0.071,0.233,0.122     c0.067,0.051,0.125,0.11,0.174,0.178c0.049,0.067,0.088,0.139,0.114,0.212c0.103-0.115,0.202-0.209,0.298-0.283     c0.096-0.073,0.189-0.131,0.283-0.173c0.092-0.042,0.182-0.072,0.271-0.09c0.089-0.017,0.177-0.026,0.263-0.027     c0.166-0.001,0.307,0.024,0.422,0.078s0.207,0.134,0.277,0.241c0.07,0.106,0.121,0.239,0.152,0.398     c0.031,0.158,0.047,0.342,0.049,0.55l0.018,2.214l-0.609,0.005l-0.016-1.845c-0.002-0.217-0.011-0.394-0.027-0.53     s-0.043-0.243-0.08-0.321s-0.086-0.131-0.148-0.16c-0.062-0.028-0.139-0.042-0.23-0.042c-0.082,0.001-0.162,0.018-0.241,0.051     s-0.154,0.08-0.228,0.139c-0.073,0.061-0.141,0.133-0.203,0.219c-0.062,0.085-0.117,0.181-0.164,0.287L84.192,20.091z"/>
			<path class="st6" d="M81.08,20.622l-0.002-0.27l5.557-0.046l0.002,0.269L81.08,20.622z"/>
		</g>
		<g class="st3">
			<path class="st8" d="M86.279,22.248l0.412-0.003l0.023,2.929l-0.412,0.003L86.279,22.248z"/>
			<path class="st8" d="M88.281,22.198c0.178-0.001,0.329,0.061,0.455,0.189c0.126,0.127,0.189,0.281,0.191,0.462     c0.002,0.179-0.061,0.333-0.185,0.462c-0.125,0.13-0.275,0.195-0.451,0.197c-0.175,0.001-0.327-0.062-0.453-0.189     c-0.127-0.127-0.191-0.281-0.192-0.459c-0.002-0.181,0.059-0.335,0.184-0.465C87.953,22.264,88.104,22.199,88.281,22.198z      M89.739,22.176l0.319-0.002l-1.869,3.021l-0.318,0.002L89.739,22.176z M88.278,22.516c-0.091,0-0.169,0.035-0.233,0.102     c-0.064,0.066-0.097,0.146-0.096,0.24c0.001,0.092,0.034,0.17,0.101,0.235c0.065,0.065,0.145,0.097,0.234,0.097     c0.092-0.001,0.17-0.034,0.234-0.101c0.064-0.066,0.097-0.145,0.096-0.237c-0.001-0.095-0.034-0.174-0.099-0.24     C88.451,22.547,88.371,22.515,88.278,22.516z M89.654,23.874c0.176-0.001,0.326,0.061,0.455,0.188     c0.127,0.127,0.191,0.28,0.192,0.459c0.001,0.179-0.06,0.331-0.185,0.458c-0.125,0.126-0.275,0.19-0.452,0.191     c-0.179,0.001-0.331-0.06-0.458-0.184c-0.126-0.125-0.189-0.276-0.191-0.455c-0.002-0.181,0.061-0.334,0.186-0.463     C89.326,23.94,89.477,23.875,89.654,23.874z M89.652,24.192c-0.09,0.001-0.167,0.034-0.23,0.1     c-0.063,0.066-0.094,0.145-0.094,0.237c0.002,0.093,0.033,0.172,0.098,0.238s0.143,0.098,0.232,0.097     c0.094-0.001,0.172-0.034,0.235-0.1s0.096-0.146,0.095-0.241c0-0.093-0.033-0.172-0.099-0.236S89.746,24.191,89.652,24.192z"/>
		</g>
	</g>
	<path class="st9" d="M79.9,22c0,0.6-0.5,1.1-1.1,1.1s-1.1-0.5-1.1-1.1s0.5-1.1,1.1-1.1C79.5,20.9,79.9,21.4,79.9,22z"/>
	<g class="st3">
		<path class="st8" d="M48.189,51.807v0.402h-1.435v0.604c0,0.25,0.001,0.471,0.005,0.66c0.003,0.191,0.014,0.336,0.032,0.435    h-0.544c0.019-0.101,0.029-0.246,0.032-0.437c0.003-0.19,0.005-0.41,0.005-0.658v-1.824c0-0.111-0.001-0.215-0.003-0.311    c-0.002-0.095-0.006-0.18-0.011-0.255s-0.012-0.139-0.022-0.188H48.4v0.414h-1.646v1.158H48.189z"/>
		<path class="st8" d="M48.932,52.637c0-0.217,0.031-0.408,0.096-0.575s0.151-0.308,0.26-0.423c0.109-0.114,0.236-0.201,0.381-0.26    c0.146-0.059,0.3-0.088,0.463-0.088c0.17,0,0.325,0.029,0.467,0.088c0.141,0.059,0.262,0.146,0.363,0.26    c0.102,0.115,0.18,0.256,0.236,0.423c0.056,0.167,0.084,0.358,0.084,0.575s-0.032,0.408-0.097,0.574s-0.151,0.305-0.26,0.417    s-0.235,0.198-0.381,0.255c-0.146,0.059-0.3,0.088-0.462,0.088c-0.17,0-0.326-0.029-0.467-0.088    c-0.141-0.057-0.262-0.143-0.363-0.255s-0.181-0.251-0.236-0.417C48.959,53.045,48.932,52.854,48.932,52.637z M49.389,52.637    c0,0.146,0.018,0.277,0.053,0.393c0.034,0.115,0.083,0.213,0.146,0.293s0.139,0.141,0.227,0.183s0.185,0.063,0.291,0.063    c0.1,0,0.193-0.021,0.28-0.063s0.163-0.103,0.229-0.183s0.116-0.178,0.153-0.293s0.056-0.246,0.056-0.393    c0-0.147-0.017-0.279-0.052-0.396c-0.035-0.116-0.084-0.215-0.146-0.297c-0.064-0.081-0.141-0.143-0.229-0.186    s-0.186-0.064-0.291-0.064c-0.1,0-0.193,0.021-0.281,0.064s-0.163,0.104-0.228,0.186c-0.064,0.082-0.115,0.181-0.152,0.297    C49.407,52.357,49.389,52.489,49.389,52.637z"/>
		<path class="st8" d="M51.899,53.907v-1.548c0-0.248-0.014-0.458-0.04-0.63c-0.027-0.172-0.056-0.302-0.084-0.389h0.445    c0.02,0.047,0.037,0.106,0.054,0.178c0.016,0.071,0.028,0.15,0.04,0.237c0.01,0.088,0.018,0.181,0.023,0.279    c0.004,0.1,0.007,0.199,0.007,0.3v0.163c0.084-0.236,0.167-0.432,0.247-0.588c0.081-0.154,0.162-0.278,0.241-0.371    c0.08-0.092,0.161-0.156,0.241-0.193c0.081-0.037,0.164-0.055,0.248-0.055c0.063,0,0.119,0.006,0.172,0.018    c0.054,0.012,0.107,0.031,0.162,0.058l-0.074,0.466c-0.049-0.021-0.09-0.034-0.127-0.041c-0.036-0.006-0.08-0.01-0.133-0.01    c-0.068,0-0.139,0.029-0.213,0.087s-0.147,0.134-0.219,0.229c-0.072,0.096-0.141,0.205-0.205,0.325s-0.12,0.245-0.169,0.371    s-0.087,0.251-0.116,0.371s-0.043,0.228-0.043,0.321c0,0.043,0,0.081,0.001,0.117c0.001,0.035,0.003,0.068,0.007,0.102    c0.004,0.032,0.01,0.064,0.017,0.098s0.015,0.067,0.024,0.104H51.899z"/>
		<path class="st8" d="M55.238,51.291c0.166,0,0.308,0.02,0.428,0.059c0.119,0.039,0.225,0.092,0.314,0.154l-0.086,0.453    c-0.112-0.084-0.224-0.146-0.334-0.188s-0.23-0.063-0.359-0.063c-0.109,0-0.213,0.021-0.307,0.064    c-0.096,0.043-0.178,0.105-0.248,0.186s-0.125,0.18-0.164,0.297c-0.04,0.117-0.06,0.25-0.06,0.397c0,0.136,0.019,0.259,0.054,0.37    c0.037,0.11,0.089,0.205,0.156,0.285c0.068,0.08,0.149,0.141,0.245,0.186c0.096,0.043,0.204,0.064,0.323,0.064    c0.15,0,0.287-0.025,0.408-0.078c0.123-0.052,0.238-0.126,0.347-0.224l0.05,0.44c-0.063,0.049-0.125,0.09-0.188,0.125    c-0.061,0.034-0.126,0.063-0.193,0.085c-0.068,0.022-0.141,0.04-0.218,0.05c-0.077,0.012-0.163,0.018-0.255,0.018    c-0.166,0-0.322-0.03-0.467-0.09c-0.146-0.06-0.273-0.146-0.381-0.258c-0.109-0.112-0.195-0.248-0.258-0.408    c-0.063-0.158-0.094-0.34-0.094-0.541c0-0.189,0.029-0.367,0.09-0.535s0.146-0.314,0.258-0.44s0.246-0.226,0.405-0.298    C54.865,51.327,55.043,51.291,55.238,51.291z"/>
		<path class="st8" d="M57.662,51.291c0.136,0,0.255,0.016,0.359,0.049c0.104,0.033,0.193,0.078,0.27,0.136s0.139,0.126,0.189,0.202    c0.052,0.078,0.093,0.16,0.123,0.25c0.031,0.088,0.053,0.182,0.065,0.277c0.013,0.097,0.021,0.191,0.021,0.285v0.099    c0,0.042-0.002,0.075-0.003,0.099h-1.754c0.005,0.146,0.028,0.275,0.068,0.385s0.095,0.199,0.165,0.27    c0.07,0.072,0.152,0.125,0.248,0.16c0.095,0.035,0.198,0.053,0.311,0.053c0.16,0,0.316-0.018,0.47-0.055s0.306-0.103,0.458-0.197    l0.049,0.416c-0.088,0.045-0.173,0.084-0.258,0.115c-0.084,0.032-0.168,0.059-0.252,0.078c-0.084,0.021-0.169,0.035-0.256,0.044    c-0.086,0.009-0.178,0.015-0.273,0.015c-0.158,0-0.309-0.029-0.452-0.085s-0.27-0.14-0.378-0.249    c-0.109-0.109-0.196-0.246-0.26-0.408c-0.064-0.163-0.098-0.352-0.098-0.566c0-0.208,0.028-0.396,0.084-0.564    c0.055-0.17,0.133-0.313,0.236-0.434c0.102-0.119,0.227-0.212,0.373-0.276C57.314,51.322,57.479,51.291,57.662,51.291z     M57.625,51.668c-0.182,0-0.33,0.055-0.445,0.162c-0.115,0.108-0.191,0.276-0.227,0.505h1.291c0-0.107-0.016-0.202-0.047-0.286    c-0.029-0.082-0.072-0.152-0.128-0.21c-0.056-0.057-0.12-0.1-0.196-0.128C57.797,51.682,57.715,51.668,57.625,51.668z"/>
	</g>
	<g class="st3">
		<path class="st8" d="M21.522,49.268h1.421v0.164h-0.6c-0.131,0-0.22,0.043-0.268,0.128c-0.026,0.048-0.04,0.108-0.04,0.185v4.619    c0,0.102,0.015,0.178,0.043,0.229c0.05,0.088,0.145,0.131,0.287,0.131h0.577v0.174h-1.421V49.268z"/>
		<path class="st8" d="M23.981,51.093c0-0.054,0.08-0.134,0.241-0.239c0.12-0.08,0.225-0.141,0.315-0.182    c0.158-0.072,0.311-0.107,0.458-0.107c0.509,0,0.916,0.124,1.22,0.373c0.334,0.272,0.501,0.69,0.501,1.254    c0-0.001-0.002,0.047-0.006,0.145c-0.026,0.584-0.291,1.021-0.792,1.312c-0.235,0.136-0.489,0.206-0.762,0.208    c-0.378,0.004-0.658-0.054-0.839-0.172c-0.066-0.041-0.099-0.066-0.099-0.076c-0.019-0.061-0.028-0.258-0.028-0.591    c0.093,0,0.189,0.069,0.289,0.206c0.123,0.17,0.211,0.27,0.265,0.301c0.157,0.093,0.351,0.139,0.581,0.139    c0.381-0.047,0.646-0.283,0.793-0.707c0.066-0.19,0.099-0.39,0.099-0.598c0-0.074-0.004-0.148-0.013-0.227    c-0.024-0.213-0.078-0.403-0.162-0.573c-0.155-0.313-0.393-0.521-0.714-0.622c-0.16-0.051-0.332-0.076-0.516-0.076    c-0.061,0-0.117,0.002-0.168,0.007c-0.123,0.011-0.288,0.079-0.493,0.203c-0.086,0.053-0.137,0.079-0.15,0.079    S23.981,51.13,23.981,51.093z"/>
		<path class="st8" d="M29.17,54.896h-1.424v-0.167h0.604c0.202,0,0.303-0.103,0.303-0.309v-4.623c0-0.237-0.109-0.355-0.327-0.355    h-0.58v-0.175h1.424V54.896z"/>
	</g>
	<g class="st3">
		<path class="st8" d="M48.105,55.299h2.235l-1.563,3.556l-0.442-0.189l1.264-2.886h-1.493V55.299z"/>
		<path class="st8" d="M51.303,56.768h0.029c0.217,0,0.381-0.045,0.494-0.135c0.113-0.092,0.17-0.223,0.17-0.396    c0-0.156-0.056-0.282-0.165-0.38c-0.11-0.098-0.254-0.146-0.432-0.146c-0.18,0-0.38,0.058-0.599,0.172v-0.48    c0.201-0.104,0.42-0.154,0.658-0.154c0.318,0,0.568,0.085,0.753,0.254c0.184,0.17,0.276,0.4,0.276,0.694    c0,0.178-0.036,0.327-0.107,0.448c-0.07,0.122-0.184,0.227-0.338,0.313c0.135,0.054,0.233,0.12,0.297,0.198    c0.063,0.078,0.111,0.172,0.146,0.283c0.034,0.11,0.052,0.228,0.052,0.352c0,0.308-0.101,0.562-0.302,0.762    c-0.201,0.201-0.455,0.301-0.762,0.301c-0.263,0-0.516-0.064-0.759-0.193v-0.549c0.26,0.166,0.514,0.25,0.759,0.25    c0.167,0,0.3-0.051,0.401-0.152c0.102-0.1,0.152-0.233,0.152-0.399c0-0.14-0.042-0.261-0.126-0.364    c-0.05-0.059-0.104-0.103-0.165-0.13c-0.06-0.028-0.189-0.054-0.389-0.079l-0.045-0.006V56.768z"/>
		<path class="st8" d="M55.227,55.258c0.212,0,0.394,0.078,0.543,0.232c0.15,0.154,0.226,0.34,0.226,0.556    c0,0.215-0.075,0.399-0.226,0.554c-0.151,0.154-0.332,0.231-0.543,0.231c-0.212,0-0.393-0.077-0.543-0.231    c-0.151-0.154-0.227-0.339-0.227-0.554c0-0.216,0.074-0.401,0.225-0.556S55.014,55.258,55.227,55.258z M56.976,55.248h0.382    l-2.271,3.605h-0.382L56.976,55.248z M55.22,55.641c-0.11,0-0.204,0.04-0.282,0.119c-0.078,0.08-0.117,0.176-0.117,0.287    s0.039,0.205,0.118,0.283c0.079,0.079,0.173,0.118,0.281,0.118c0.11,0,0.204-0.039,0.282-0.118    c0.078-0.078,0.117-0.172,0.117-0.283c0-0.113-0.039-0.209-0.115-0.288C55.426,55.68,55.332,55.641,55.22,55.641z M56.857,57.283    c0.211,0,0.392,0.077,0.543,0.23c0.151,0.154,0.227,0.338,0.227,0.553s-0.074,0.396-0.225,0.547    c-0.151,0.15-0.333,0.226-0.545,0.226c-0.215,0-0.396-0.075-0.547-0.226s-0.227-0.332-0.227-0.547c0-0.217,0.076-0.4,0.228-0.554    C56.463,57.36,56.645,57.283,56.857,57.283z M56.852,57.666c-0.107,0-0.2,0.039-0.277,0.118c-0.076,0.079-0.114,0.173-0.114,0.283    c0,0.112,0.038,0.208,0.114,0.287c0.077,0.079,0.17,0.119,0.277,0.119c0.112,0,0.207-0.039,0.284-0.118    c0.077-0.078,0.116-0.174,0.116-0.288c0-0.112-0.039-0.207-0.116-0.284C57.059,57.705,56.964,57.666,56.852,57.666z"/>
	</g>
	<g class="st3">
		<path class="st9" d="M56.367,10.388c0,0.503-0.072,0.953-0.221,1.35c-0.146,0.397-0.342,0.733-0.584,1.009    c-0.244,0.275-0.521,0.486-0.832,0.631c-0.311,0.146-0.63,0.218-0.96,0.218c-0.333,0-0.651-0.069-0.956-0.206    c-0.305-0.137-0.574-0.338-0.809-0.604c-0.233-0.266-0.42-0.592-0.561-0.979c-0.14-0.387-0.21-0.833-0.21-1.335    c0-0.335,0.034-0.647,0.101-0.935c0.068-0.288,0.161-0.551,0.281-0.789c0.119-0.237,0.262-0.449,0.426-0.633    c0.166-0.184,0.345-0.339,0.539-0.465c0.193-0.125,0.398-0.221,0.613-0.287c0.216-0.066,0.436-0.099,0.658-0.099    c0.326,0,0.643,0.068,0.945,0.206c0.305,0.137,0.572,0.338,0.805,0.604s0.418,0.592,0.557,0.979S56.367,9.885,56.367,10.388z     M55.564,10.493c0-0.386-0.043-0.733-0.127-1.042c-0.083-0.309-0.202-0.571-0.355-0.787c-0.154-0.215-0.34-0.38-0.555-0.495    c-0.216-0.115-0.455-0.172-0.715-0.172c-0.262,0-0.501,0.055-0.718,0.166c-0.218,0.11-0.404,0.269-0.562,0.474    c-0.156,0.205-0.277,0.454-0.364,0.746c-0.087,0.292-0.13,0.62-0.13,0.983c0,0.383,0.042,0.729,0.126,1.036    c0.083,0.308,0.203,0.57,0.358,0.786c0.155,0.217,0.342,0.383,0.559,0.499c0.217,0.116,0.461,0.174,0.73,0.174    c0.252,0,0.486-0.054,0.7-0.162c0.214-0.107,0.399-0.263,0.555-0.465s0.276-0.451,0.364-0.744    C55.52,11.197,55.564,10.865,55.564,10.493z"/>
	</g>
	<g class="st3">
		<path class="st9" d="M31.464,21.023c0-1.519,0.226-2.863,0.677-4.035c0.451-1.171,1.059-2.16,1.823-2.966    c0.764-0.806,1.655-1.415,2.673-1.827c1.019-0.412,2.101-0.618,3.246-0.618c1.192,0,2.283,0.206,3.272,0.618    c0.989,0.412,1.84,1.021,2.551,1.827c0.712,0.807,1.265,1.795,1.658,2.966c0.393,1.172,0.59,2.516,0.59,4.035    s-0.226,2.861-0.677,4.026c-0.452,1.166-1.059,2.143-1.823,2.931s-1.655,1.386-2.673,1.792c-1.019,0.406-2.1,0.609-3.246,0.609    c-1.192,0-2.283-0.203-3.272-0.609c-0.989-0.406-1.84-1.003-2.552-1.792c-0.711-0.789-1.265-1.766-1.658-2.931    C31.661,23.884,31.464,22.542,31.464,21.023z M34.676,21.023c0,1.024,0.122,1.942,0.365,2.755    c0.243,0.812,0.587,1.498,1.033,2.057c0.445,0.56,0.975,0.986,1.588,1.28c0.613,0.294,1.296,0.441,2.048,0.441    c0.694,0,1.348-0.147,1.961-0.441c0.613-0.294,1.148-0.721,1.605-1.28c0.457-0.559,0.816-1.245,1.077-2.057    c0.26-0.813,0.39-1.73,0.39-2.755c0-1.036-0.121-1.962-0.364-2.781c-0.243-0.818-0.587-1.513-1.033-2.083    c-0.446-0.571-0.978-1.006-1.597-1.307s-1.299-0.45-2.04-0.45c-0.706,0-1.366,0.15-1.979,0.45s-1.146,0.736-1.597,1.307    c-0.451,0.571-0.807,1.266-1.067,2.083C34.806,19.061,34.676,19.988,34.676,21.023z"/>
	</g>
	<g class="st3">
		<path class="st9" d="M29.216,37.545c0-0.505,0.075-0.951,0.225-1.342c0.15-0.389,0.352-0.718,0.606-0.986    c0.254-0.268,0.55-0.47,0.889-0.607c0.338-0.137,0.698-0.205,1.079-0.205c0.396,0,0.759,0.068,1.088,0.205    c0.329,0.138,0.611,0.34,0.848,0.607c0.237,0.269,0.42,0.598,0.551,0.986c0.131,0.391,0.196,0.837,0.196,1.342    s-0.075,0.951-0.225,1.339c-0.15,0.388-0.352,0.712-0.606,0.974c-0.254,0.264-0.55,0.461-0.889,0.597    c-0.338,0.135-0.698,0.202-1.079,0.202c-0.396,0-0.759-0.067-1.088-0.202c-0.329-0.136-0.612-0.333-0.848-0.597    c-0.237-0.262-0.42-0.586-0.551-0.974S29.216,38.05,29.216,37.545z M30.284,37.545c0,0.341,0.04,0.646,0.121,0.916    c0.081,0.27,0.195,0.498,0.343,0.684s0.324,0.328,0.528,0.426c0.204,0.098,0.431,0.146,0.681,0.146    c0.231,0,0.448-0.049,0.652-0.146s0.382-0.24,0.534-0.426s0.271-0.414,0.358-0.684s0.13-0.575,0.13-0.916    c0-0.344-0.041-0.652-0.121-0.924c-0.081-0.272-0.195-0.504-0.343-0.693c-0.148-0.189-0.325-0.334-0.531-0.435    c-0.206-0.1-0.432-0.149-0.678-0.149c-0.234,0-0.454,0.05-0.658,0.149c-0.204,0.101-0.381,0.245-0.531,0.435    c-0.15,0.189-0.268,0.421-0.355,0.693C30.327,36.893,30.284,37.201,30.284,37.545z"/>
	</g>
	<g class="st3">
		<path class="st6" d="M40.826,40.395c0,0.406-0.058,0.754-0.174,1.043c-0.117,0.289-0.27,0.524-0.458,0.707    c-0.189,0.184-0.405,0.318-0.646,0.404s-0.488,0.129-0.739,0.129c-0.29,0-0.578-0.051-0.864-0.152s-0.549-0.235-0.791-0.401    l0.294-0.715c0.215,0.157,0.431,0.284,0.648,0.383c0.218,0.099,0.44,0.147,0.667,0.147c0.118,0,0.248-0.021,0.39-0.064    s0.275-0.117,0.399-0.224c0.124-0.106,0.228-0.249,0.311-0.427c0.083-0.178,0.125-0.401,0.125-0.669v-0.853    c-0.118,0.15-0.243,0.278-0.374,0.385c-0.131,0.105-0.265,0.191-0.399,0.258c-0.135,0.066-0.27,0.114-0.404,0.143    c-0.135,0.029-0.264,0.045-0.388,0.045c-0.208,0-0.41-0.037-0.603-0.111s-0.365-0.191-0.515-0.353    c-0.15-0.161-0.269-0.372-0.358-0.63s-0.134-0.57-0.134-0.936c0-0.354,0.045-0.699,0.136-1.033    c0.09-0.336,0.231-0.633,0.421-0.893s0.435-0.47,0.732-0.628s0.654-0.237,1.068-0.237c0.136,0,0.276,0.01,0.419,0.029    c0.144,0.021,0.287,0.047,0.429,0.081s0.281,0.071,0.417,0.113c0.136,0.042,0.266,0.082,0.39,0.122V40.395z M39.035,36.496    c-0.248,0-0.459,0.053-0.635,0.155c-0.176,0.103-0.318,0.238-0.429,0.405c-0.11,0.168-0.191,0.357-0.243,0.57    c-0.051,0.212-0.077,0.428-0.077,0.646c0,0.286,0.022,0.524,0.066,0.713s0.104,0.34,0.181,0.452s0.168,0.191,0.272,0.24    c0.104,0.047,0.218,0.07,0.342,0.07c0.115,0,0.237-0.023,0.367-0.07c0.13-0.049,0.261-0.117,0.392-0.205    c0.132-0.09,0.259-0.201,0.381-0.333c0.123-0.132,0.234-0.282,0.333-0.452v-2.006c-0.073-0.027-0.149-0.053-0.231-0.076    c-0.082-0.023-0.165-0.043-0.249-0.059c-0.085-0.015-0.167-0.027-0.248-0.036S39.104,36.496,39.035,36.496z"/>
		<path class="st6" d="M42.141,40.51v-2.837c0-0.455-0.025-0.84-0.075-1.155s-0.101-0.553-0.152-0.713h0.816    c0.036,0.086,0.069,0.195,0.097,0.325c0.029,0.131,0.053,0.276,0.073,0.437s0.034,0.33,0.043,0.512    c0.009,0.182,0.014,0.364,0.014,0.549v0.3c0.154-0.434,0.305-0.792,0.454-1.077c0.148-0.284,0.295-0.512,0.442-0.68    C44,36,44.146,35.882,44.295,35.814c0.148-0.068,0.299-0.102,0.453-0.102c0.115,0,0.221,0.011,0.318,0.032    c0.097,0.021,0.195,0.057,0.294,0.106l-0.136,0.854c-0.088-0.037-0.165-0.063-0.231-0.074c-0.066-0.013-0.148-0.019-0.245-0.019    c-0.124,0-0.254,0.053-0.39,0.159c-0.136,0.105-0.27,0.246-0.401,0.422s-0.256,0.373-0.374,0.596    c-0.118,0.221-0.222,0.447-0.311,0.68c-0.089,0.232-0.161,0.459-0.213,0.68c-0.053,0.223-0.079,0.419-0.079,0.591    c0,0.077,0,0.147,0.002,0.212s0.006,0.127,0.014,0.188c0.007,0.06,0.018,0.119,0.029,0.18c0.012,0.061,0.027,0.124,0.045,0.191    H42.141z"/>
		<path class="st6" d="M48.081,35.713c0.248,0,0.468,0.029,0.657,0.09c0.191,0.061,0.355,0.143,0.494,0.249    c0.14,0.106,0.256,0.229,0.35,0.371s0.168,0.294,0.225,0.457c0.056,0.163,0.096,0.333,0.12,0.509    c0.024,0.178,0.036,0.352,0.036,0.524v0.18c0,0.077-0.002,0.137-0.004,0.18h-3.216c0.009,0.271,0.051,0.506,0.125,0.706    c0.074,0.199,0.175,0.365,0.304,0.496s0.28,0.229,0.454,0.293s0.363,0.096,0.569,0.096c0.294,0,0.581-0.033,0.862-0.101    c0.28-0.067,0.561-0.188,0.838-0.36l0.092,0.762c-0.161,0.083-0.318,0.153-0.473,0.212s-0.309,0.106-0.463,0.144    c-0.153,0.036-0.311,0.063-0.469,0.08c-0.158,0.018-0.326,0.025-0.501,0.025c-0.29,0-0.567-0.051-0.83-0.154    c-0.263-0.104-0.494-0.256-0.693-0.457c-0.2-0.201-0.358-0.451-0.477-0.75c-0.118-0.297-0.177-0.644-0.177-1.037    c0-0.381,0.051-0.727,0.152-1.035c0.102-0.31,0.246-0.574,0.433-0.794s0.416-0.389,0.685-0.507    C47.443,35.771,47.746,35.713,48.081,35.713z M48.014,36.404c-0.333,0-0.605,0.1-0.817,0.298s-0.351,0.507-0.417,0.925h2.367    c0-0.197-0.027-0.371-0.084-0.523c-0.056-0.152-0.135-0.281-0.235-0.385c-0.102-0.105-0.222-0.184-0.36-0.236    C48.328,36.431,48.176,36.404,48.014,36.404z"/>
	</g>
	<g class="st3">
		<path class="st9" d="M25.595,8.47c0.286,0.094,0.489,0.244,0.611,0.447c0.085,0.254,0.139,0.44,0.161,0.556    c0.043,0.254,0.064,0.473,0.064,0.654c0,0.174-0.015,0.349-0.043,0.523c0.079,0.08,0.175,0.149,0.29,0.208    c0.1,0.058,0.193,0.087,0.278,0.087c0.107,0,0.186-0.058,0.236-0.174l0.161,0.349c-0.107,0.138-0.232,0.207-0.375,0.207    c-0.107,0-0.225-0.037-0.354-0.109c-0.122-0.036-0.222-0.116-0.3-0.24c-0.15,0.763-0.457,1.309-0.922,1.636    c-0.372,0.254-0.825,0.381-1.361,0.381c-0.629,0-1.129-0.258-1.5-0.774c-0.365-0.465-0.547-1.007-0.547-1.625    c0-0.756,0.2-1.41,0.6-1.962c0.393-0.531,0.925-0.796,1.597-0.796C24.848,7.838,25.316,8.049,25.595,8.47z M24.555,12.581    c0.322,0,0.622-0.146,0.9-0.437c0.293-0.319,0.489-0.752,0.589-1.297c-0.336-0.225-0.593-0.432-0.771-0.621    c-0.257-0.247-0.411-0.495-0.461-0.742c-0.021-0.051-0.032-0.138-0.032-0.262c0-0.138,0.036-0.291,0.107-0.458    c0.079-0.138,0.207-0.229,0.386-0.273c-0.171-0.189-0.425-0.283-0.761-0.283c-0.4,0-0.736,0.244-1.007,0.73    c-0.257,0.523-0.386,1.05-0.386,1.581c0,0.531,0.118,0.985,0.354,1.363C23.722,12.348,24.083,12.581,24.555,12.581z M26.12,10.465    c0.021-0.153,0.032-0.309,0.032-0.469c0-0.284-0.05-0.552-0.15-0.807c-0.122-0.269-0.243-0.403-0.365-0.403    c-0.036,0-0.075,0.015-0.118,0.044c-0.1,0.058-0.15,0.189-0.15,0.392c0,0.218,0.078,0.444,0.236,0.676    C25.748,10.16,25.919,10.349,26.12,10.465z"/>
	</g>
	<g>
		<path class="st10" d="M19.5,20.1c0-0.4,0.4-0.7,0.4-0.7c0.1-0.5-0.3-1.1-0.3-1.1c-0.5-0.3-0.2-0.7-0.2-0.7    c0.1-0.3,1.4-0.5,1.4-0.5c0.5,0,0.3,0.8,0.3,0.8l-0.2,0.5c0.1,0.3,0.1,0.8,0.1,0.8c1.2,0,1.3,1,1.3,1c0.1,1.1-0.6,1.1-0.6,1.1V23    h1.2l-1.4,7.2L20.3,23h0.3v-1c-0.2,0-0.7-0.1-0.7-0.1v0.7c-0.4,0.8-3.2,3.5-3.2,3.5c0.2,1.9-0.3,5.2-0.3,5.2    c1.1,1,1.3,4.5,1.3,4.5c0.3,0.3,0.2,1.4,0.2,1.4l-0.1,0.3v2.1c2.3,0,2.8,3,2.8,3h-6.9v-4.4h-1.1c-0.5-0.7-0.3-3.1-0.3-3.1    c-0.8,0-1.6,0-1.6,0c-0.3,0.4-0.5,3.3-0.5,3.3l-0.8,0.1v4C9.1,42.7,2,42.7,2,42.7C2,39.5,5.1,40,5.1,40c0-0.7,0.3-1.7,0.3-1.7    C4.9,38,5,37.9,5,37.9V34c-0.1-1.5,1-2.7,1-2.7c-0.6-1.4-0.7-4.2-0.7-4.2L3.6,28c0.1,0.4-0.1,1.1-0.1,1.1c0,0.9-0.4,0.8-0.4,0.8    c-0.5,0-0.4-0.7-0.4-0.7c-2.4,0.1-2.2-1.1-2.2-1.1c0-1.8,2.4-2,2.4-2C5.1,23.3,8.6,22,8.6,22c-0.4-0.5-0.2-1-0.2-1    c-0.7-0.7-0.7-2.3-0.7-2.3C6.9,17.8,7,16.1,7,16.1c0.6,0.2,1.3,0.7,1.3,0.7c1.5-1.4,3.6-1.3,3.6-1.3c2.5,0,3.3,1.3,3.3,1.3    c0.7-0.8,0.9-0.4,0.9-0.4c0,2.8-0.5,2.6-0.5,2.6s0.2,1.6-0.1,1.9c0,0,0.3,0.4,0,0.7C15.5,21.6,18.2,20.1,19.5,20.1z"/>
		<path class="st11" d="M19.5,20.1c0-0.4,0.4-0.7,0.4-0.7c0.1-0.5-0.3-1.1-0.3-1.1c-0.5-0.3-0.2-0.7-0.2-0.7    c0.1-0.3,1.4-0.5,1.4-0.5c0.5,0,0.3,0.8,0.3,0.8l-0.2,0.5c0.1,0.3,0.1,0.8,0.1,0.8c1.2,0,1.3,1,1.3,1c0.1,1.1-0.6,1.1-0.6,1.1V23    h1.2l-1.4,7.2L20.3,23h0.3v-1c-0.2,0-0.7-0.1-0.7-0.1v0.7c-0.4,0.8-3.2,3.5-3.2,3.5c0.2,1.9-0.3,5.2-0.3,5.2    c1.1,1,1.3,4.5,1.3,4.5c0.3,0.3,0.2,1.4,0.2,1.4l-0.1,0.3v2.1c2.3,0,2.8,3,2.8,3h-6.9v-4.4h-1.1c-0.5-0.7-0.3-3.1-0.3-3.1    c-0.8,0-1.6,0-1.6,0c-0.3,0.4-0.5,3.3-0.5,3.3l-0.8,0.1v4C9.1,42.7,2,42.7,2,42.7C2,39.5,5.1,40,5.1,40c0-0.7,0.3-1.7,0.3-1.7    C4.9,38,5,37.9,5,37.9V34c-0.1-1.5,1-2.7,1-2.7c-0.6-1.4-0.7-4.2-0.7-4.2L3.6,28c0.1,0.4-0.1,1.1-0.1,1.1c0,0.9-0.4,0.8-0.4,0.8    c-0.5,0-0.4-0.7-0.4-0.7c-2.4,0.1-2.2-1.1-2.2-1.1c0-1.8,2.4-2,2.4-2C5.1,23.3,8.6,22,8.6,22c-0.4-0.5-0.2-1-0.2-1    c-0.7-0.7-0.7-2.3-0.7-2.3C6.9,17.8,7,16.1,7,16.1c0.6,0.2,1.3,0.7,1.3,0.7c1.5-1.4,3.6-1.3,3.6-1.3c2.5,0,3.3,1.3,3.3,1.3    c0.7-0.8,0.9-0.4,0.9-0.4c0,2.8-0.5,2.6-0.5,2.6s0.2,1.6-0.1,1.9c0,0,0.3,0.4,0,0.7C15.5,21.6,18.2,20.1,19.5,20.1z"/>
		<g>
			<path class="st12" d="M8.4,16.8c0,0-0.7,0.6-0.7,1.8"/>
			<path class="st12" d="M15.2,16.8c0,0,0.4,0.9,0.4,2.1"/>
			<path class="st12" d="M8.5,21c0,0,1.1-1.4,2.6-1.4c0,0,1,1.2,2.1,0c0,0,1.7,0.5,2.3,1.2"/>
			<path class="st12" d="M15.5,21.6"/>
			<path class="st12" d="M8.6,21.8c0.1,0,1.1,1.5,2.8,1.6c0,0,2.5,0.4,4.1-1.9"/>
			<path class="st12" d="M8.3,21.3c0,0,1.4-0.5,3.4-0.5c0,0,2.8,0,3.9,0.6"/>
			<path class="st12" d="M9.3,21c0,0,0.7,1.1,2.3,1.1c0,0,1.7,0,3.3-1.1"/>
			<path class="st12" d="M11.3,18.1c0,0.3-0.2,0.5-0.5,0.5s-0.5-0.2-0.5-0.5s0.2-0.5,0.5-0.5C11.1,17.5,11.3,17.8,11.3,18.1z"/>
			<path class="st12" d="M13.6,18.1c0,0.3-0.2,0.5-0.5,0.5s-0.5-0.2-0.5-0.5s0.2-0.5,0.5-0.5C13.4,17.5,13.6,17.8,13.6,18.1z"/>
			<path class="st12" d="M13.3,15.6c0,0-1,1.4-1,2.6c0,0,0,0.7,0.5,0.8c0.1,0,0.2,0.1,0.2,0.2l0.1,0.5"/>
			<path class="st12" d="M10.7,15.6c0,0,1,1.4,1,2.6c0,0,0,0.7-0.5,0.8c-0.1,0-0.2,0.1-0.2,0.2v0.5"/>
			<path class="st12" d="M19.9,19.3c0,0,0.7-0.8,1.1-0.9"/>
			<path class="st12" d="M19.5,20.1c0,0-0.4,1,0.4,1.8"/>
			<path class="st12" d="M20.5,22c0,0,0.8,0,1.2-0.8"/>
			<path class="st12" d="M2.9,26c0,0-0.2,1.4,0.7,2"/>
			<path class="st12" d="M13.6,26.9c0,0,1.6,0,3.2,0.5"/>
			<path class="st12" d="M5.4,28.2c0,0,2-0.9,4-1.3"/>
			<path class="st12" d="M5.8,30.7c0,0,1.8-1,3.6-1.2"/>
			<path class="st12" d="M13.6,29.5c0,0,1.5,0,3,0.4"/>
			<rect x="9.4" y="26.8" class="st12" width="4.3" height="2.7"/>
			<rect x="10.1" y="27.4" class="st12" width="2.9" height="1.6"/>
			<path class="st12" d="M10.7,35c0,0-0.8,0.1-1.5-0.4"/>
			<path class="st12" d="M12.2,35c0,0,1.2-0.1,1.7-0.4"/>
			<polyline class="st12" points="6.1,31.3 7.6,32.8 9.3,31.1 10.4,32.4 11.3,31.1 12.5,32.5 13.4,31.1 14.5,32.4 15.1,31.4      15.8,32.2 16.4,31.4    "/>
			<line class="st12" x1="20.4" y1="23.1" x2="21.8" y2="23.1"/>
			<path class="st12" d="M5,36c0,0,4.2,0.5,5.4,0.5"/>
			<path class="st12" d="M5.4,38.1c0,0,1.8,0.7,4,0.2"/>
			<path class="st12" d="M12.3,36.4c0,0,4.2-0.3,5.4-0.7"/>
			<path id="SVGID_x5F_1_x5F_" class="st13" d="M13.6,38.1c0,0,2.6,0.3,4.2-0.6"/>
			<path class="st12" d="M8.6,21.9c0,0-0.1,2.3,0,2.9l1.1-0.5l0.6,1.3l1-1l0.7,1l0.8-1l0.7,0.4l0.7-0.8l0.7,0.6c0,0,0.8-2.7,0.7-3.2     "/>
			<polyline class="st12" points="10,20.9 10.1,21.5 10.4,20.8    "/>
			<polyline class="st12" points="10.8,20.8 10.9,21.4 11.3,20.8    "/>
			<polyline class="st12" points="11.8,20.8 12,21.4 12.4,20.8    "/>
			<polyline class="st12" points="13,20.8 13.2,21.4 13.6,20.8    "/>
			<polyline class="st12" points="10.2,21.8 10.6,21.3 10.7,22    "/>
			<polyline class="st12" points="11.1,22.1 11.4,21.3 11.7,22.1    "/>
			<path class="st12" d="M12.4,22l0.2-0.8l0.2,0.7"/>
			<path class="st12" d="M12.8,17.4c0,0,0.5-0.5,0.9,0"/>
			<path class="st12" d="M11.1,17.4c0,0-0.5-0.5-0.9,0"/>
		</g>
		<path class="st9" d="M10.9,18.1c0,0.1-0.1,0.1-0.1,0.1c-0.1,0-0.1-0.1-0.1-0.1c0-0.1,0.1-0.1,0.1-0.1C10.9,17.9,10.9,18,10.9,18.1    z"/>
		<ellipse class="st9" cx="13.1" cy="18.1" rx="0.1" ry="0.1"/>
	</g>
</g>
</svg>