<?xml version="1.0" encoding="UTF-8"?>
<!-- Generator: Adobe Illustrator 24.0.2, SVG Export Plug-In . SVG Version: 6.00 Build 0)  -->
<svg version="1.1" id="Calque_1" xmlns="http://www.w3.org/2000/svg" xmlns:xlink="http://www.w3.org/1999/xlink" x="0px" y="0px" viewBox="0 0 142 54" style="enable-background:new 0 0 142 54;" xml:space="preserve">
<style type="text/css">
	.st0{fill:#FFFFFF;stroke:#DADADA;stroke-width:0.7197;stroke-miterlimit:10;}
	.st1{fill:#FFFFFF;stroke:#9D9D9C;stroke-width:0.7197;stroke-miterlimit:10;}
	.st2{fill:#FFFFFF;stroke:#9D9D9C;stroke-width:0.7194;stroke-miterlimit:10;}
	.st3{fill:#FFFFFF;stroke:#000000;stroke-width:0.888;stroke-miterlimit:10;}
	.st4{enable-background:new    ;}
	.st5{fill:#E11683;}
	.st6{fill:#7DB728;}
	.st7{fill:#7FC7EB;}
	.st8{fill:none;stroke:#B2B2B2;stroke-width:0.3599;stroke-miterlimit:10;}
	.st9{fill:#575756;}
	.st10{fill:#B2B2B2;}
	.st11{fill:#878787;}
	.st12{opacity:0.8;enable-background:new    ;}
	.st13{opacity:0.6;enable-background:new    ;}
	.st14{fill:#706F6F;}
	.st15{fill:#FFFFFF;}
	.st16{fill:none;stroke:#575756;stroke-width:0.1727;stroke-linecap:round;stroke-linejoin:round;stroke-miterlimit:10;}
	.st17{fill:none;stroke:#575756;stroke-width:0.518;stroke-linecap:round;stroke-linejoin:round;stroke-miterlimit:10;}
	.st18{fill:#FFFFFF;stroke:#929292;stroke-width:0.1727;stroke-linecap:round;stroke-linejoin:round;stroke-miterlimit:10;}
	.st19{fill:none;stroke:#929292;stroke-width:0.1727;stroke-linecap:round;stroke-linejoin:round;stroke-miterlimit:10;}
</style>
<g id="_x3C_Groupe_x3E__otarie">
	<rect x="52.2" y="38.6" class="st0" width="34.2" height="10.7"/>
	<rect x="86.2" y="38.6" class="st0" width="34.2" height="10.7"/>
	<polygon class="st1" points="98.6,38.6 86.2,38.6 86.2,10.1 113.5,10.1 113.5,38.6 101.2,38.6  "/>
	<polygon class="st1" points="126,38.6 113.6,38.6 113.6,14.2 140.9,14.2 140.9,38.6 128.6,38.6  "/>
	<polygon class="st2" points="67.6,38.6 52.1,38.6 52.1,5 86.1,5 86.1,38.6 70.8,38.6  "/>
	<path class="st3" d="M39,38.5H20.3V7.4h31.6v31.1h-9.1c0,0-2.9,5.2-7.7,6.2C35.1,44.7,38,42.8,39,38.5z"/>
	<g class="st4">
		<path class="st5" d="M104.93,13.889v0.361h-1.305v1.173h0.605c0.227,0,0.418-0.001,0.572-0.004    c0.153-0.003,0.276-0.013,0.367-0.029v0.406h-2.014c0.017-0.09,0.027-0.221,0.029-0.392c0.004-0.171,0.005-0.368,0.005-0.59    v-1.332c0-0.223-0.001-0.419-0.005-0.59c-0.002-0.17-0.013-0.301-0.029-0.392h1.945v0.373h-1.477v1.016H104.93z"/>
	</g>
	<g class="st4">
		<path class="st6" d="M107.702,14.927h-1.407l-0.307,0.869h-0.47c0.02-0.045,0.04-0.093,0.062-0.142    c0.021-0.05,0.045-0.106,0.07-0.168c0.025-0.062,0.053-0.133,0.083-0.213c0.03-0.08,0.065-0.172,0.105-0.278l0.915-2.494h0.492    l0.916,2.494c0.038,0.105,0.072,0.198,0.104,0.278c0.03,0.08,0.059,0.151,0.084,0.213c0.026,0.063,0.05,0.119,0.071,0.168    c0.021,0.049,0.042,0.097,0.062,0.142h-0.469L107.702,14.927z M106.418,14.578h1.16l-0.584-1.636L106.418,14.578z"/>
	</g>
	<g class="st4">
		<path class="st7" d="M111.545,12.501c-0.016,0.09-0.024,0.218-0.028,0.383c-0.004,0.165-0.006,0.364-0.006,0.599v1.151    c0,0.184-0.024,0.35-0.073,0.5c-0.049,0.15-0.123,0.278-0.223,0.385c-0.101,0.107-0.227,0.189-0.379,0.248    c-0.152,0.058-0.332,0.087-0.539,0.087c-0.209,0-0.39-0.029-0.543-0.087c-0.153-0.058-0.28-0.141-0.381-0.248    c-0.102-0.106-0.176-0.235-0.226-0.385c-0.05-0.149-0.075-0.316-0.075-0.5v-1.151c0-0.223-0.002-0.419-0.005-0.59    c-0.004-0.17-0.014-0.301-0.028-0.392h0.469v2.032c0,0.147,0.014,0.28,0.039,0.398s0.069,0.219,0.131,0.303    c0.061,0.083,0.142,0.147,0.242,0.192s0.227,0.066,0.377,0.066c0.148,0,0.272-0.022,0.371-0.066c0.1-0.044,0.18-0.108,0.24-0.192    c0.06-0.083,0.103-0.185,0.129-0.303c0.025-0.118,0.039-0.25,0.039-0.398v-2.032H111.545z"/>
	</g>
	<g class="st4">
		<path class="st5" d="M88.572,14.688c0.038,0.234,0.11,0.41,0.215,0.529c0.133,0.184,0.328,0.275,0.589,0.275    c0.342,0,0.625-0.09,0.851-0.27c0.155-0.126,0.283-0.318,0.385-0.574l0.093,0.184c-0.12,0.345-0.311,0.594-0.571,0.747    c-0.256,0.149-0.6,0.224-1.031,0.224c-0.45,0-0.763-0.136-0.938-0.408c-0.145-0.195-0.216-0.473-0.216-0.833    c0-0.44,0.095-0.787,0.286-1.04c0.221-0.288,0.557-0.431,1.008-0.431c0.338,0,0.586,0.079,0.746,0.236    c0.154,0.138,0.232,0.333,0.232,0.586c0,0.004,0,0.007,0,0.008c0,0.002,0,0.004,0,0.006s0,0.004,0,0.006s0,0.004,0,0.006    s0,0.004,0,0.005c0,0.002,0,0.004,0,0.006s0,0.004,0,0.006s0,0.004,0,0.006s0,0.004,0,0.006s0,0.003,0,0.005s0,0.004,0,0.006    s0,0.004,0,0.006s0,0.005,0,0.008c0,0.004,0,0.009,0,0.015s-0.001,0.015-0.003,0.029c-0.002,0.013-0.003,0.026-0.003,0.037    c-0.035,0.241-0.326,0.414-0.874,0.517c-0.171,0.042-0.429,0.075-0.774,0.098H88.572z M89.965,14.004c0-0.012,0-0.025,0.002-0.04    c0.002-0.016,0.004-0.035,0.004-0.058c0-0.172-0.064-0.322-0.193-0.448c-0.132-0.119-0.291-0.178-0.478-0.178    c-0.268,0-0.466,0.144-0.595,0.431c-0.104,0.23-0.156,0.488-0.156,0.775c0.031-0.003,0.081-0.009,0.15-0.017    c0.023,0,0.051-0.002,0.079-0.006c0.029-0.003,0.058-0.007,0.085-0.011c0.023,0,0.049-0.002,0.078-0.006s0.058-0.008,0.085-0.012    c0.034-0.003,0.091-0.009,0.169-0.017C89.669,14.356,89.926,14.218,89.965,14.004z"/>
	</g>
	<g class="st4">
		<path class="st6" d="M92.543,15.17c-0.148,0.199-0.303,0.352-0.467,0.459c-0.193,0.115-0.402,0.172-0.623,0.172    c-0.314,0-0.542-0.132-0.682-0.396c-0.125-0.222-0.185-0.498-0.181-0.827c0-0.425,0.103-0.778,0.309-1.057    c0.226-0.291,0.56-0.437,1.003-0.437c0.248,0,0.462,0.079,0.641,0.236v-0.207h0.547v2.04c0,0.008,0,0.014,0,0.018    c0,0.003,0,0.007,0,0.011c0,0.008,0,0.014,0,0.02s0,0.01,0,0.012s0,0.006,0,0.011c0,0.006,0,0.01,0,0.012s0,0.006,0,0.011    c0,0.006,0,0.01,0,0.012s0,0.006,0,0.011c0,0.006,0,0.01,0,0.012s0,0.005,0,0.009c0,0.003,0,0.006,0,0.008s0,0.004,0,0.006    s0,0.004,0,0.006s0,0.004,0,0.006s0,0.028,0,0.077c0,0.05,0.014,0.096,0.041,0.138c0.039,0.054,0.125,0.08,0.257,0.08    c0.128,0,0.263-0.157,0.401-0.471c0.012-0.035,0.033-0.093,0.064-0.175s0.07-0.19,0.117-0.325l0.093,0.178    c-0.097,0.283-0.163,0.463-0.198,0.54c-0.14,0.295-0.35,0.442-0.629,0.442c-0.463,0-0.693-0.209-0.693-0.626V15.17z     M92.001,13.234c-0.3,0-0.517,0.136-0.653,0.408c-0.123,0.233-0.186,0.498-0.186,0.792c0,0.234,0.053,0.442,0.157,0.626    c0.116,0.218,0.289,0.328,0.519,0.328c0.14,0,0.275-0.046,0.408-0.138c0.101-0.077,0.199-0.188,0.297-0.333v-1.201    C92.465,13.395,92.284,13.234,92.001,13.234z"/>
	</g>
	<g class="st4">
		<path class="st7" d="M95.996,15.354c-0.299,0.299-0.602,0.448-0.908,0.448c-0.361,0-0.613-0.056-0.758-0.167    c-0.197-0.138-0.297-0.377-0.297-0.718v-1.81h0.542v1.608c0,0.237,0.026,0.433,0.081,0.586c0.082,0.23,0.231,0.345,0.449,0.345    c0.132,0,0.275-0.044,0.432-0.132c0.139-0.08,0.283-0.199,0.431-0.356v-0.138v-1.913h0.554v1.781c0,0.237,0.01,0.414,0.029,0.528    c0.023,0.123,0.089,0.184,0.197,0.184c0.066,0,0.133-0.067,0.199-0.201c0.003-0.007,0.104-0.266,0.303-0.775l0.087,0.189    c-0.132,0.379-0.218,0.611-0.257,0.695c-0.108,0.191-0.252,0.289-0.431,0.293C96.265,15.802,96.047,15.653,95.996,15.354z"/>
	</g>
	<g class="st4">
		<path class="st7" d="M137.701,19.454c0,0.296-0.045,0.56-0.135,0.793c-0.088,0.233-0.207,0.431-0.354,0.592    c-0.148,0.162-0.315,0.285-0.504,0.371c-0.188,0.085-0.382,0.128-0.582,0.128c-0.201,0-0.395-0.04-0.578-0.121    c-0.186-0.081-0.349-0.199-0.49-0.354s-0.254-0.348-0.34-0.575c-0.084-0.227-0.127-0.489-0.127-0.784    c0-0.197,0.021-0.38,0.061-0.549c0.041-0.169,0.098-0.323,0.17-0.463s0.159-0.264,0.259-0.372    c0.101-0.108,0.208-0.199,0.326-0.273c0.117-0.074,0.241-0.13,0.372-0.169s0.264-0.058,0.398-0.058    c0.197,0,0.389,0.04,0.572,0.121c0.185,0.081,0.347,0.199,0.487,0.354s0.253,0.348,0.337,0.575    C137.658,18.897,137.701,19.159,137.701,19.454z M137.214,19.516c0-0.227-0.025-0.431-0.076-0.612    c-0.051-0.181-0.123-0.335-0.216-0.461c-0.094-0.126-0.205-0.223-0.336-0.291s-0.275-0.101-0.434-0.101s-0.303,0.033-0.435,0.097    c-0.132,0.065-0.245,0.158-0.339,0.278c-0.096,0.121-0.169,0.267-0.222,0.438c-0.052,0.171-0.079,0.364-0.079,0.577    c0,0.225,0.025,0.428,0.076,0.608s0.123,0.334,0.218,0.461c0.095,0.127,0.207,0.225,0.339,0.293    c0.131,0.068,0.278,0.103,0.441,0.103c0.153,0,0.295-0.032,0.425-0.095c0.13-0.063,0.241-0.154,0.336-0.273    c0.094-0.119,0.167-0.265,0.221-0.437S137.214,19.734,137.214,19.516z M135.084,17.337l0.849-1.059h0.425l0.849,1.059h-0.374    l-0.688-0.689l-0.687,0.689H135.084z"/>
	</g>
	<g class="st4">
		<path class="st7" d="M118.584,17.888c0.143,0.058,0.254,0.144,0.338,0.258c0.029,0.078,0.059,0.177,0.087,0.296    c0.029,0.135,0.044,0.252,0.044,0.351c0,0.127-0.006,0.236-0.019,0.326c0.037,0.037,0.093,0.08,0.169,0.129    c0.049,0.033,0.104,0.049,0.162,0.049c0.054,0,0.102-0.037,0.143-0.111l0.101,0.197c-0.067,0.083-0.14,0.123-0.219,0.123    c-0.071,0-0.136-0.016-0.193-0.049c-0.087-0.041-0.151-0.093-0.193-0.154c-0.097,0.439-0.276,0.747-0.544,0.923    c-0.211,0.14-0.474,0.209-0.786,0.209c-0.37,0-0.663-0.144-0.88-0.431c-0.213-0.263-0.318-0.568-0.318-0.917    c0-0.431,0.118-0.798,0.355-1.102c0.225-0.304,0.537-0.456,0.937-0.456c0.383,0,0.651,0.121,0.806,0.363L118.584,17.888z     M117.654,16.374c-0.221,0.172-0.554,0.374-0.999,0.603l0.069-0.209c0.199-0.124,0.405-0.271,0.617-0.443    c0.209-0.172,0.387-0.361,0.537-0.566c0.125,0.275,0.285,0.488,0.48,0.64c0.133,0.136,0.338,0.259,0.612,0.37l-0.031,0.209    c-0.196-0.008-0.425-0.086-0.687-0.234c-0.287-0.127-0.489-0.25-0.605-0.369H117.654z M117.967,20.202    c0.188,0,0.363-0.082,0.53-0.246c0.171-0.181,0.285-0.423,0.343-0.727c-0.187-0.119-0.334-0.236-0.443-0.351    c-0.145-0.119-0.238-0.259-0.28-0.419c-0.009-0.057-0.013-0.106-0.013-0.147c0-0.094,0.021-0.179,0.063-0.252    c0.029-0.07,0.102-0.125,0.219-0.166c-0.112-0.103-0.26-0.154-0.443-0.154c-0.246,0-0.441,0.146-0.587,0.437    c-0.142,0.25-0.212,0.54-0.212,0.868c0,0.292,0.064,0.548,0.193,0.77c0.146,0.263,0.354,0.394,0.624,0.394L117.967,20.202z     M118.885,19.014c0.008-0.058,0.012-0.142,0.012-0.252c0-0.156-0.031-0.314-0.094-0.474c-0.059-0.151-0.125-0.228-0.199-0.228    c-0.018,0-0.042,0.01-0.075,0.031c-0.063,0.037-0.094,0.111-0.094,0.222s0.05,0.236,0.149,0.375    c0.08,0.144,0.178,0.252,0.294,0.326H118.885z"/>
	</g>
	<g class="st4">
		<path class="st6" d="M57.68,10.823c-0.158,0.213-0.325,0.377-0.5,0.492c-0.208,0.124-0.431,0.185-0.668,0.185    c-0.337,0-0.581-0.142-0.73-0.425c-0.133-0.238-0.198-0.534-0.193-0.887c0-0.455,0.11-0.833,0.331-1.132    c0.242-0.312,0.6-0.468,1.074-0.468c0.266,0,0.495,0.084,0.687,0.252V8.619h0.587v2.185c0,0.008,0,0.015,0,0.019s0,0.008,0,0.012    c0,0.008,0,0.016,0,0.021c0,0.006,0,0.01,0,0.012c0,0.002,0,0.006,0,0.013c0,0.006,0,0.01,0,0.012s0,0.006,0,0.012s0,0.01,0,0.012    c0,0.002,0,0.006,0,0.013c0,0.006,0,0.01,0,0.012s0,0.005,0,0.009c0,0.004,0,0.007,0,0.009c0,0.002,0,0.004,0,0.006    s0,0.004,0,0.006s0,0.004,0,0.006c0,0.002,0,0.03,0,0.083c0,0.053,0.014,0.103,0.043,0.147c0.042,0.058,0.133,0.086,0.275,0.086    c0.137,0,0.281-0.168,0.431-0.505c0.013-0.037,0.035-0.1,0.069-0.188c0.033-0.088,0.075-0.204,0.125-0.348l0.1,0.191    c-0.104,0.304-0.175,0.497-0.212,0.579c-0.15,0.316-0.375,0.474-0.674,0.474c-0.495,0-0.743-0.224-0.743-0.671V10.823z     M57.1,8.749c-0.321,0-0.554,0.146-0.699,0.437c-0.133,0.25-0.2,0.533-0.2,0.849c0,0.25,0.056,0.474,0.168,0.671    c0.125,0.234,0.31,0.351,0.556,0.351c0.15,0,0.295-0.049,0.437-0.148c0.108-0.082,0.214-0.201,0.318-0.357V9.265    C57.597,8.921,57.403,8.749,57.1,8.749z"/>
	</g>
	<g class="st4">
		<path class="st7" d="M61.337,11.02c-0.321,0.32-0.646,0.48-0.974,0.48c-0.387,0-0.658-0.06-0.812-0.179    c-0.212-0.148-0.318-0.404-0.318-0.77V8.613h0.581v1.724c0,0.254,0.029,0.464,0.087,0.628c0.087,0.246,0.248,0.369,0.481,0.369    c0.141,0,0.295-0.047,0.462-0.142c0.149-0.086,0.304-0.213,0.462-0.381v-0.148v-2.05h0.593v1.908c0,0.254,0.011,0.443,0.031,0.566    c0.025,0.131,0.096,0.197,0.212,0.197c0.071,0,0.142-0.072,0.212-0.215c0.004-0.008,0.112-0.285,0.325-0.831l0.093,0.203    c-0.142,0.406-0.233,0.655-0.274,0.745c-0.117,0.205-0.271,0.31-0.462,0.314C61.625,11.5,61.391,11.34,61.337,11.02z"/>
	</g>
	<g class="st4">
		<path class="st6" d="M78.839,10.751h-1.536l-0.334,0.948h-0.512c0.021-0.049,0.043-0.101,0.066-0.155s0.049-0.115,0.076-0.183    c0.027-0.068,0.059-0.146,0.092-0.233s0.071-0.188,0.115-0.303l0.998-2.721h0.537l0.998,2.721c0.043,0.115,0.08,0.216,0.113,0.303    s0.064,0.165,0.092,0.233c0.029,0.068,0.055,0.129,0.078,0.183s0.045,0.106,0.066,0.155h-0.512L78.839,10.751z M77.438,10.369    h1.266l-0.637-1.785L77.438,10.369z"/>
	</g>
	<g class="st4">
		<path class="st7" d="M82.938,8.104c-0.017,0.099-0.026,0.237-0.031,0.417c-0.004,0.18-0.006,0.397-0.006,0.653v1.256    c0,0.2-0.026,0.382-0.08,0.545c-0.054,0.164-0.134,0.303-0.243,0.42c-0.109,0.116-0.247,0.207-0.414,0.27    c-0.166,0.063-0.361,0.095-0.586,0.095c-0.229,0-0.426-0.032-0.594-0.095c-0.167-0.063-0.306-0.153-0.416-0.27    c-0.109-0.117-0.191-0.256-0.246-0.42c-0.054-0.163-0.08-0.345-0.08-0.545V9.175c0-0.243-0.002-0.458-0.007-0.644    c-0.004-0.187-0.015-0.329-0.031-0.427h0.513v2.216c0,0.161,0.014,0.306,0.042,0.435s0.075,0.239,0.142,0.33    c0.066,0.091,0.155,0.161,0.266,0.209c0.109,0.049,0.247,0.073,0.412,0.073c0.161,0,0.296-0.024,0.404-0.073    c0.107-0.048,0.195-0.118,0.261-0.209c0.065-0.091,0.112-0.201,0.142-0.33c0.027-0.129,0.042-0.273,0.042-0.435V8.104H82.938z"/>
	</g>
	<path class="st8" d="M38.4,36c0,0,4.1,1.5,9.1,0.1"/>
	<path class="st8" d="M32.1,36c0,0,2.6,1.1,5.7,0.1"/>
	<path class="st8" d="M26.3,35.8c0,0,1.9,1.1,4.3,0.1"/>
	<path class="st9" d="M72,46.7c0,0.6-0.5,1.1-1.1,1.1s-1.1-0.5-1.1-1.1s0.5-1.1,1.1-1.1C71.5,45.6,72,46.1,72,46.7z"/>
	<g>
		<g class="st4">
			<path class="st6" d="M68.265,19.12c0,1.034,0.059,1.903,0.175,2.606c0.117,0.703,0.267,1.285,0.45,1.744h-1.457     c-0.028-0.071-0.067-0.169-0.117-0.295s-0.102-0.27-0.154-0.431c-0.053-0.161-0.103-0.335-0.15-0.521     c-0.047-0.186-0.087-0.372-0.121-0.558c-0.216,0.274-0.445,0.531-0.687,0.771s-0.495,0.454-0.762,0.64     c-0.266,0.186-0.544,0.333-0.832,0.439c-0.289,0.107-0.583,0.16-0.882,0.16c-0.35,0-0.698-0.074-1.045-0.222     c-0.347-0.147-0.659-0.369-0.937-0.665s-0.502-0.666-0.674-1.112c-0.172-0.446-0.258-0.97-0.258-1.572     c0-0.629,0.071-1.199,0.212-1.711c0.141-0.512,0.334-0.967,0.578-1.367c0.217-0.35,0.447-0.656,0.691-0.919     s0.512-0.48,0.803-0.653c0.292-0.172,0.612-0.302,0.961-0.39s0.738-0.131,1.166-0.131c0.211,0,0.445,0.015,0.704,0.045     c0.258,0.03,0.521,0.072,0.791,0.127s0.537,0.121,0.803,0.197c0.267,0.077,0.513,0.159,0.741,0.247V19.12z M64.894,16.33     c-0.178,0-0.356,0.021-0.537,0.062c-0.181,0.041-0.358,0.11-0.533,0.209s-0.344,0.229-0.508,0.39     c-0.164,0.161-0.318,0.365-0.462,0.611c-0.15,0.251-0.271,0.565-0.362,0.939c-0.092,0.375-0.137,0.759-0.137,1.153     c0,0.454,0.043,0.844,0.129,1.169c0.086,0.326,0.2,0.594,0.341,0.805c0.142,0.21,0.302,0.365,0.483,0.463     c0.18,0.099,0.362,0.148,0.545,0.148c0.233,0,0.487-0.071,0.762-0.213c0.275-0.143,0.542-0.331,0.803-0.566     s0.506-0.506,0.737-0.813c0.23-0.307,0.42-0.624,0.57-0.952v-3.078c-0.083-0.038-0.19-0.077-0.321-0.115     c-0.13-0.039-0.274-0.074-0.433-0.107s-0.331-0.059-0.516-0.078C65.27,16.339,65.082,16.33,64.894,16.33z"/>
		</g>
		<g class="st4">
			<path class="st7" d="M73.123,23.675c-1.775,0-2.663-1.176-2.663-3.529v-2.421c0-0.263-0.001-0.5-0.004-0.714     c-0.003-0.213-0.01-0.42-0.021-0.62s-0.028-0.404-0.05-0.612c-0.022-0.208-0.053-0.435-0.092-0.681H72v4.555     c0,0.465,0.023,0.866,0.07,1.202c0.047,0.337,0.127,0.613,0.238,0.829c0.11,0.216,0.256,0.376,0.437,0.48     c0.181,0.104,0.403,0.156,0.67,0.156c0.244,0,0.505-0.073,0.782-0.218c0.277-0.145,0.543-0.33,0.795-0.554     c0.253-0.225,0.482-0.472,0.691-0.743c0.208-0.271,0.367-0.532,0.479-0.784v-2.298c0-0.268-0.002-0.51-0.004-0.727     c-0.004-0.216-0.01-0.422-0.021-0.62c-0.011-0.197-0.027-0.396-0.05-0.599c-0.022-0.202-0.053-0.429-0.091-0.681h1.705v4.678     c0,0.799,0.047,1.498,0.139,2.097c0.091,0.599,0.226,1.131,0.403,1.596h-1.415c-0.039-0.093-0.08-0.202-0.125-0.328     s-0.088-0.26-0.129-0.402c-0.042-0.142-0.08-0.292-0.117-0.447c-0.035-0.156-0.064-0.311-0.087-0.464     c-0.505,0.607-1.025,1.067-1.561,1.379C74.273,23.519,73.712,23.675,73.123,23.675z"/>
		</g>
		<g class="st4">
			<path class="st10" d="M61.452,29.841c0,0.306-0.03,0.563-0.088,0.771c-0.059,0.208-0.143,0.374-0.251,0.501     c-0.109,0.125-0.24,0.216-0.395,0.271s-0.326,0.082-0.514,0.082c-0.047,0-0.102-0.005-0.165-0.015s-0.129-0.023-0.196-0.041     c-0.068-0.018-0.134-0.04-0.2-0.067s-0.123-0.058-0.172-0.091l0.117-0.541c0.036,0.025,0.081,0.051,0.137,0.075     c0.055,0.024,0.113,0.046,0.173,0.063c0.06,0.02,0.12,0.033,0.18,0.043c0.06,0.01,0.113,0.016,0.16,0.016     c0.089,0,0.17-0.018,0.243-0.051c0.073-0.035,0.136-0.088,0.189-0.16s0.094-0.165,0.124-0.279     c0.029-0.113,0.043-0.251,0.043-0.413v-1.821c0-0.16,0-0.318-0.001-0.474c-0.001-0.155-0.003-0.302-0.007-0.441     c-0.003-0.139-0.008-0.268-0.015-0.387c-0.006-0.119-0.015-0.222-0.026-0.307h0.666V29.841z M60.719,25.507     c0-0.061,0.01-0.119,0.03-0.172s0.048-0.101,0.085-0.141s0.08-0.072,0.131-0.095s0.108-0.035,0.17-0.035s0.12,0.012,0.173,0.035     c0.054,0.023,0.099,0.055,0.137,0.095s0.068,0.087,0.09,0.141c0.022,0.054,0.033,0.111,0.033,0.172     c0,0.062-0.011,0.119-0.033,0.172c-0.022,0.054-0.052,0.101-0.09,0.141s-0.083,0.072-0.137,0.095     c-0.053,0.023-0.111,0.035-0.173,0.035s-0.119-0.012-0.17-0.035s-0.095-0.055-0.131-0.095s-0.065-0.087-0.085-0.141     S60.719,25.569,60.719,25.507z"/>
		</g>
		<g class="st4">
			<path class="st6" d="M66.293,27.748c0,0.518,0.029,0.951,0.087,1.303c0.058,0.352,0.133,0.643,0.225,0.872h-0.729     c-0.014-0.036-0.033-0.085-0.058-0.147s-0.051-0.135-0.077-0.216s-0.051-0.167-0.075-0.261c-0.024-0.093-0.044-0.186-0.061-0.279     c-0.108,0.137-0.223,0.266-0.343,0.387c-0.121,0.12-0.248,0.227-0.381,0.32c-0.133,0.092-0.272,0.166-0.416,0.219     c-0.145,0.053-0.292,0.08-0.441,0.08c-0.175,0-0.349-0.037-0.522-0.111c-0.174-0.073-0.33-0.184-0.468-0.332     c-0.139-0.147-0.251-0.333-0.337-0.556c-0.086-0.224-0.129-0.485-0.129-0.786c0-0.314,0.035-0.6,0.106-0.855     s0.167-0.483,0.29-0.683c0.108-0.175,0.223-0.329,0.345-0.46s0.256-0.24,0.402-0.326c0.146-0.086,0.306-0.151,0.48-0.195     s0.369-0.065,0.583-0.065c0.105,0,0.223,0.007,0.352,0.022s0.261,0.036,0.396,0.063c0.134,0.027,0.268,0.06,0.401,0.099     c0.133,0.038,0.257,0.079,0.371,0.123V27.748z M64.608,26.353c-0.089,0-0.179,0.01-0.269,0.031     c-0.09,0.021-0.179,0.056-0.267,0.105c-0.087,0.049-0.172,0.114-0.254,0.195c-0.082,0.081-0.159,0.183-0.231,0.306     c-0.075,0.126-0.135,0.283-0.181,0.47c-0.045,0.188-0.068,0.38-0.068,0.577c0,0.227,0.021,0.422,0.064,0.585     s0.1,0.297,0.17,0.401c0.071,0.105,0.151,0.184,0.242,0.232c0.09,0.049,0.181,0.074,0.272,0.074c0.117,0,0.244-0.035,0.381-0.107     c0.137-0.07,0.271-0.165,0.402-0.283c0.13-0.117,0.253-0.252,0.368-0.406c0.115-0.152,0.21-0.312,0.285-0.476v-1.539     c-0.042-0.019-0.095-0.038-0.16-0.057c-0.065-0.019-0.138-0.037-0.217-0.053c-0.079-0.017-0.165-0.03-0.258-0.039     C64.795,26.357,64.702,26.353,64.608,26.353z"/>
		</g>
		<g class="st4">
			<path class="st7" d="M68.875,30.025c-0.888,0-1.332-0.588-1.332-1.765v-1.21c0-0.131,0-0.25-0.002-0.357     c-0.001-0.107-0.005-0.21-0.01-0.31c-0.006-0.1-0.014-0.202-0.025-0.306c-0.011-0.104-0.026-0.217-0.045-0.34h0.853v2.277     c0,0.232,0.012,0.433,0.035,0.601c0.024,0.169,0.063,0.307,0.119,0.415c0.056,0.108,0.128,0.188,0.219,0.24     c0.09,0.052,0.202,0.077,0.335,0.077c0.122,0,0.252-0.035,0.391-0.107c0.139-0.073,0.271-0.166,0.397-0.277     c0.126-0.112,0.242-0.236,0.346-0.371c0.104-0.137,0.184-0.267,0.239-0.393V27.05c0-0.134-0.001-0.255-0.002-0.363     c-0.001-0.108-0.005-0.211-0.011-0.31c-0.005-0.099-0.014-0.198-0.025-0.3c-0.011-0.101-0.026-0.215-0.046-0.34h0.854v2.339     c0,0.399,0.023,0.749,0.068,1.049c0.046,0.299,0.113,0.565,0.202,0.798h-0.708c-0.02-0.046-0.041-0.101-0.063-0.164     c-0.022-0.063-0.044-0.13-0.064-0.201c-0.021-0.071-0.041-0.146-0.059-0.224s-0.032-0.155-0.043-0.232     c-0.252,0.305-0.513,0.534-0.78,0.689C69.45,29.947,69.169,30.025,68.875,30.025z"/>
		</g>
		<g class="st4">
			<path class="st10" d="M74.16,26.509c0.355,0,0.627,0.114,0.815,0.343c0.188,0.229,0.283,0.569,0.283,1.02v2.052h-0.616v-1.806     c0-0.206-0.014-0.375-0.041-0.509c-0.028-0.133-0.069-0.239-0.123-0.317c-0.055-0.078-0.123-0.132-0.207-0.163     c-0.083-0.03-0.182-0.046-0.295-0.046c-0.119,0-0.236,0.028-0.352,0.084c-0.113,0.056-0.219,0.128-0.314,0.216     c-0.096,0.089-0.18,0.189-0.252,0.301c-0.074,0.111-0.129,0.223-0.164,0.334v1.904h-0.615v-2.019     c0-0.324-0.019-0.598-0.055-0.822c-0.037-0.224-0.074-0.394-0.112-0.507h0.6c0.013,0.035,0.026,0.081,0.04,0.136     s0.025,0.114,0.036,0.176c0.011,0.061,0.021,0.122,0.03,0.181l0.026,0.147c0.211-0.25,0.425-0.429,0.64-0.54     C73.699,26.564,73.925,26.509,74.16,26.509z"/>
			<path class="st10" d="M77.626,26.509c0.183,0,0.343,0.021,0.483,0.064c0.139,0.042,0.26,0.102,0.362,0.177     c0.103,0.075,0.188,0.164,0.257,0.264c0.068,0.101,0.123,0.209,0.164,0.325c0.041,0.116,0.07,0.237,0.088,0.363     c0.018,0.125,0.027,0.25,0.027,0.372v0.129c0,0.055-0.002,0.097-0.004,0.127h-2.36c0.007,0.193,0.037,0.361,0.092,0.503     c0.054,0.142,0.128,0.26,0.224,0.353c0.094,0.094,0.205,0.162,0.332,0.209c0.128,0.046,0.268,0.068,0.418,0.068     c0.215,0,0.426-0.023,0.633-0.072c0.207-0.048,0.412-0.133,0.615-0.256l0.067,0.542c-0.118,0.06-0.233,0.109-0.347,0.151     c-0.113,0.041-0.227,0.075-0.34,0.102c-0.113,0.025-0.228,0.045-0.344,0.057c-0.117,0.013-0.24,0.019-0.368,0.019     c-0.214,0-0.417-0.036-0.609-0.11c-0.192-0.072-0.362-0.182-0.509-0.324c-0.146-0.144-0.264-0.322-0.35-0.533     c-0.088-0.213-0.131-0.459-0.131-0.739c0-0.271,0.037-0.517,0.111-0.737c0.074-0.22,0.182-0.408,0.318-0.565     c0.138-0.156,0.305-0.277,0.503-0.361C77.158,26.551,77.379,26.509,77.626,26.509z M77.576,27.001     c-0.244,0-0.444,0.071-0.6,0.212s-0.258,0.36-0.307,0.658h1.738c0-0.14-0.021-0.264-0.062-0.373s-0.099-0.2-0.173-0.274     c-0.074-0.074-0.163-0.13-0.266-0.167C77.807,27.02,77.695,27.001,77.576,27.001z"/>
		</g>
		<g class="st4">
			<path class="st11" d="M75.86,33.637h0.417v2.866H75.86V33.637z"/>
			<path class="st11" d="M78.212,33.6c0.267,0,0.487,0.138,0.661,0.414c0.174,0.275,0.261,0.625,0.261,1.049     c0,0.436-0.087,0.789-0.261,1.061c-0.174,0.272-0.4,0.408-0.678,0.408c-0.281,0-0.508-0.133-0.678-0.4     c-0.172-0.266-0.257-0.619-0.257-1.061c0-0.435,0.089-0.789,0.265-1.062S77.93,33.6,78.212,33.6z M78.217,33.989h-0.021     c-0.16,0-0.286,0.097-0.38,0.29s-0.14,0.457-0.14,0.787c0,0.34,0.045,0.605,0.137,0.799c0.092,0.192,0.218,0.289,0.379,0.289     c0.16,0,0.287-0.097,0.381-0.289c0.093-0.193,0.139-0.455,0.139-0.786c0-0.333-0.045-0.597-0.134-0.794     S78.367,33.989,78.217,33.989z"/>
			<path class="st11" d="M81.198,33.604c0.179,0,0.331,0.063,0.458,0.189c0.126,0.125,0.189,0.276,0.189,0.453     c0,0.175-0.064,0.325-0.191,0.451s-0.279,0.189-0.456,0.189c-0.178,0-0.33-0.063-0.457-0.189s-0.19-0.276-0.19-0.451     c0-0.177,0.063-0.328,0.189-0.453C80.867,33.666,81.02,33.604,81.198,33.604z M82.67,33.596h0.322l-1.912,2.939h-0.32     L82.67,33.596z M81.193,33.916c-0.094,0-0.172,0.032-0.238,0.097c-0.065,0.065-0.098,0.144-0.098,0.234     c0,0.09,0.033,0.167,0.1,0.231c0.066,0.063,0.145,0.096,0.236,0.096s0.172-0.032,0.237-0.096     c0.065-0.064,0.099-0.142,0.099-0.231c0-0.093-0.033-0.171-0.098-0.235S81.287,33.916,81.193,33.916z M82.57,35.256     c0.178,0,0.33,0.063,0.457,0.188s0.191,0.275,0.191,0.45s-0.063,0.323-0.189,0.446c-0.127,0.123-0.28,0.184-0.459,0.184     c-0.18,0-0.334-0.061-0.46-0.184c-0.127-0.123-0.19-0.271-0.19-0.446c0-0.177,0.064-0.327,0.191-0.451     S82.392,35.256,82.57,35.256z M82.566,35.567c-0.092,0-0.169,0.032-0.233,0.097c-0.064,0.063-0.097,0.141-0.097,0.23     c0,0.092,0.032,0.17,0.097,0.234s0.142,0.098,0.233,0.098c0.094,0,0.174-0.033,0.238-0.097c0.065-0.063,0.098-0.143,0.098-0.235     c0-0.092-0.032-0.168-0.098-0.232C82.74,35.6,82.66,35.567,82.566,35.567z"/>
		</g>
	</g>
	<g>
		<g class="st4">
			<path class="st5" d="M92.868,18.613c0.341,0,0.644,0.04,0.905,0.12s0.488,0.191,0.68,0.333s0.352,0.307,0.481,0.496     c0.129,0.188,0.231,0.392,0.309,0.609c0.077,0.217,0.132,0.444,0.165,0.68s0.051,0.469,0.051,0.699v0.24     c0,0.103-0.002,0.183-0.006,0.24h-4.427c0.013,0.361,0.069,0.675,0.172,0.942c0.102,0.267,0.241,0.487,0.418,0.662     s0.385,0.305,0.624,0.391c0.24,0.086,0.501,0.129,0.783,0.129c0.404,0,0.8-0.045,1.187-0.135c0.388-0.09,0.772-0.25,1.155-0.48     l0.125,1.016c-0.221,0.11-0.438,0.205-0.649,0.283c-0.212,0.078-0.425,0.142-0.637,0.191s-0.428,0.085-0.646,0.108     c-0.218,0.022-0.448,0.034-0.689,0.034c-0.399,0-0.78-0.069-1.143-0.206c-0.362-0.138-0.681-0.341-0.955-0.609     c-0.274-0.269-0.493-0.602-0.655-1c-0.162-0.398-0.244-0.859-0.244-1.385c0-0.509,0.07-0.97,0.209-1.382     c0.14-0.413,0.338-0.766,0.597-1.059c0.258-0.293,0.572-0.519,0.942-0.677C91.99,18.692,92.406,18.613,92.868,18.613z      M92.774,19.537c-0.458,0-0.833,0.132-1.124,0.397s-0.482,0.676-0.574,1.234h3.259c0-0.263-0.038-0.496-0.115-0.699     s-0.186-0.375-0.325-0.514c-0.139-0.14-0.305-0.244-0.496-0.314S92.999,19.537,92.774,19.537z"/>
		</g>
		<g class="st4">
			<path class="st6" d="M102.113,21.753c0,0.775,0.044,1.427,0.131,1.954c0.088,0.527,0.2,0.963,0.338,1.308h-1.093     c-0.021-0.053-0.05-0.127-0.087-0.222c-0.038-0.094-0.076-0.202-0.116-0.323c-0.04-0.121-0.077-0.251-0.112-0.391     s-0.065-0.279-0.09-0.418c-0.163,0.205-0.334,0.398-0.516,0.579s-0.371,0.34-0.571,0.48s-0.407,0.249-0.624,0.329     s-0.438,0.12-0.662,0.12c-0.262,0-0.523-0.055-0.783-0.166s-0.494-0.277-0.703-0.499c-0.207-0.222-0.376-0.5-0.505-0.834     s-0.194-0.728-0.194-1.179c0-0.472,0.054-0.899,0.16-1.283c0.105-0.384,0.25-0.725,0.434-1.025     c0.162-0.263,0.335-0.493,0.518-0.689c0.184-0.197,0.385-0.36,0.604-0.489s0.459-0.227,0.721-0.292     c0.262-0.065,0.553-0.099,0.874-0.099c0.158,0,0.334,0.012,0.527,0.034s0.392,0.054,0.593,0.095     c0.202,0.041,0.402,0.09,0.604,0.148c0.199,0.057,0.385,0.119,0.555,0.185V21.753z M99.585,19.66     c-0.134,0-0.267,0.016-0.402,0.046s-0.269,0.083-0.399,0.157c-0.131,0.074-0.258,0.171-0.381,0.292s-0.238,0.274-0.347,0.458     c-0.112,0.189-0.203,0.424-0.271,0.705c-0.069,0.281-0.103,0.569-0.103,0.865c0,0.341,0.031,0.633,0.096,0.877     c0.064,0.245,0.15,0.445,0.256,0.604c0.106,0.158,0.228,0.274,0.363,0.348c0.135,0.074,0.271,0.111,0.408,0.111     c0.175,0,0.365-0.053,0.571-0.16c0.206-0.106,0.407-0.248,0.603-0.425c0.195-0.176,0.38-0.379,0.553-0.609     c0.172-0.229,0.314-0.468,0.428-0.714v-2.308c-0.063-0.029-0.143-0.058-0.24-0.086c-0.099-0.028-0.207-0.055-0.325-0.08     c-0.118-0.024-0.247-0.044-0.388-0.058C99.867,19.667,99.727,19.66,99.585,19.66z"/>
		</g>
		<g class="st4">
			<path class="st7" d="M105.732,25.169c-1.332,0-1.998-0.882-1.998-2.647v-1.815c0-0.197,0-0.375-0.003-0.536     c-0.002-0.16-0.007-0.315-0.016-0.465s-0.021-0.303-0.037-0.458s-0.04-0.326-0.069-0.511h1.28v3.417     c0,0.349,0.018,0.649,0.054,0.902c0.035,0.252,0.094,0.459,0.178,0.622c0.083,0.162,0.191,0.282,0.327,0.36     c0.136,0.078,0.303,0.117,0.503,0.117c0.184,0,0.379-0.054,0.586-0.163c0.209-0.109,0.407-0.247,0.597-0.416     c0.189-0.168,0.362-0.354,0.519-0.557s0.275-0.399,0.359-0.588v-1.723c0-0.201-0.002-0.383-0.004-0.545s-0.008-0.317-0.016-0.465     c-0.008-0.147-0.021-0.297-0.037-0.449s-0.039-0.322-0.068-0.511h1.279v3.509c0,0.599,0.034,1.124,0.104,1.573     c0.068,0.449,0.169,0.849,0.303,1.197h-1.062c-0.029-0.07-0.061-0.152-0.094-0.246c-0.034-0.094-0.065-0.195-0.097-0.302     c-0.031-0.106-0.061-0.218-0.088-0.335s-0.049-0.233-0.065-0.348c-0.378,0.456-0.769,0.8-1.171,1.034     C106.595,25.052,106.174,25.169,105.732,25.169z"/>
		</g>
		<g class="st4">
			<path class="st10" d="M89.052,28.142c0.222,0,0.413,0.025,0.574,0.077c0.161,0.051,0.302,0.119,0.425,0.201l-0.117,0.592     c-0.15-0.109-0.301-0.191-0.449-0.246s-0.31-0.082-0.482-0.082c-0.148,0-0.287,0.027-0.415,0.083s-0.238,0.136-0.333,0.241     c-0.094,0.105-0.168,0.234-0.221,0.388c-0.054,0.153-0.08,0.326-0.08,0.519c0,0.178,0.023,0.338,0.072,0.482     s0.119,0.27,0.211,0.373c0.09,0.104,0.2,0.184,0.329,0.241s0.274,0.085,0.437,0.085c0.201,0,0.385-0.033,0.549-0.102     s0.32-0.165,0.467-0.292l0.066,0.575c-0.084,0.063-0.168,0.117-0.252,0.162c-0.083,0.045-0.17,0.082-0.262,0.111     c-0.09,0.029-0.188,0.051-0.293,0.065c-0.104,0.015-0.219,0.021-0.342,0.021c-0.225,0-0.435-0.039-0.63-0.116     c-0.195-0.078-0.366-0.189-0.513-0.337c-0.146-0.146-0.262-0.323-0.346-0.532c-0.085-0.207-0.127-0.443-0.127-0.705     c0-0.248,0.041-0.48,0.121-0.699c0.082-0.219,0.197-0.41,0.347-0.574s0.331-0.295,0.546-0.39S88.787,28.142,89.052,28.142z"/>
			<path class="st10" d="M93.729,29.816c0,0.413,0.023,0.76,0.069,1.041c0.047,0.281,0.107,0.514,0.18,0.698h-0.582     c-0.012-0.028-0.027-0.067-0.047-0.118s-0.04-0.107-0.062-0.172c-0.021-0.064-0.041-0.135-0.06-0.209     c-0.02-0.074-0.035-0.148-0.049-0.223c-0.086,0.109-0.178,0.212-0.274,0.309c-0.097,0.096-0.198,0.182-0.305,0.256     s-0.218,0.133-0.333,0.176c-0.115,0.042-0.232,0.063-0.353,0.063c-0.14,0-0.279-0.029-0.418-0.089     c-0.139-0.059-0.264-0.147-0.374-0.266c-0.111-0.118-0.201-0.267-0.271-0.445c-0.069-0.178-0.103-0.387-0.103-0.629     c0-0.251,0.027-0.479,0.084-0.684s0.135-0.387,0.232-0.547c0.086-0.141,0.178-0.263,0.275-0.367     c0.098-0.105,0.205-0.192,0.322-0.262c0.115-0.068,0.244-0.121,0.384-0.156c0.14-0.034,0.296-0.052,0.466-0.052     c0.085,0,0.179,0.006,0.281,0.019c0.104,0.012,0.209,0.028,0.316,0.051c0.107,0.021,0.215,0.048,0.322,0.078     c0.105,0.031,0.205,0.063,0.296,0.099V29.816z M92.381,28.699c-0.07,0-0.143,0.008-0.215,0.025     c-0.072,0.016-0.143,0.044-0.213,0.084c-0.07,0.039-0.138,0.091-0.203,0.155s-0.127,0.146-0.185,0.245     c-0.06,0.1-0.108,0.226-0.146,0.375c-0.036,0.15-0.055,0.305-0.055,0.461c0,0.182,0.018,0.338,0.052,0.469     c0.034,0.13,0.08,0.237,0.137,0.321c0.057,0.085,0.12,0.146,0.192,0.186s0.146,0.06,0.219,0.06c0.094,0,0.195-0.029,0.305-0.086     s0.217-0.133,0.321-0.227s0.202-0.202,0.294-0.324c0.093-0.123,0.169-0.25,0.229-0.381v-1.231     c-0.033-0.016-0.076-0.03-0.128-0.046s-0.11-0.029-0.173-0.043c-0.063-0.014-0.133-0.023-0.207-0.031     S92.457,28.699,92.381,28.699z"/>
			<path class="st10" d="M97.658,29.816c0,0.413,0.023,0.76,0.072,1.041c0.047,0.281,0.106,0.514,0.178,0.698h-0.6     c-0.024-0.058-0.054-0.142-0.088-0.255c-0.035-0.112-0.066-0.23-0.096-0.353c-0.159,0.224-0.34,0.394-0.542,0.513     c-0.202,0.117-0.427,0.177-0.673,0.177c-0.204,0-0.388-0.038-0.551-0.113s-0.303-0.183-0.42-0.321     c-0.116-0.139-0.205-0.307-0.268-0.502c-0.063-0.197-0.094-0.415-0.094-0.656c0-0.291,0.041-0.553,0.122-0.787     s0.192-0.434,0.335-0.6c0.142-0.165,0.309-0.293,0.5-0.383c0.193-0.089,0.4-0.134,0.625-0.134c0.07,0,0.145,0.007,0.221,0.022     c0.077,0.016,0.154,0.037,0.23,0.063c0.076,0.026,0.151,0.057,0.225,0.09c0.073,0.035,0.143,0.069,0.207,0.104v-0.918     c0-0.265-0.007-0.497-0.02-0.694c-0.012-0.198-0.033-0.366-0.064-0.504h0.699V29.816z M96.16,28.699     c-0.127,0-0.248,0.029-0.363,0.086s-0.218,0.139-0.308,0.246s-0.161,0.238-0.215,0.393s-0.08,0.328-0.08,0.523     c0,0.383,0.066,0.673,0.198,0.869c0.133,0.197,0.344,0.296,0.635,0.296c0.102,0,0.203-0.024,0.305-0.075     c0.101-0.051,0.195-0.116,0.286-0.197c0.09-0.08,0.171-0.174,0.245-0.277c0.072-0.104,0.133-0.211,0.18-0.32v-1.297     c-0.082-0.043-0.159-0.08-0.23-0.111c-0.07-0.03-0.141-0.056-0.209-0.075c-0.069-0.021-0.139-0.034-0.211-0.044     C96.322,28.705,96.244,28.699,96.16,28.699z"/>
		</g>
		<g class="st4">
			<path class="st5" d="M100.553,27.288c0.229,0,0.43,0.026,0.604,0.08c0.176,0.054,0.326,0.127,0.454,0.222     c0.128,0.095,0.234,0.205,0.32,0.331s0.155,0.262,0.206,0.406s0.088,0.296,0.11,0.453c0.022,0.158,0.033,0.313,0.033,0.466v0.16     c0,0.068-0.001,0.122-0.004,0.16h-2.95c0.008,0.241,0.046,0.45,0.113,0.628c0.068,0.178,0.162,0.324,0.279,0.441     c0.118,0.115,0.257,0.203,0.416,0.26c0.16,0.059,0.334,0.086,0.522,0.086c0.269,0,0.532-0.029,0.791-0.09     c0.258-0.061,0.515-0.166,0.771-0.32l0.082,0.678c-0.146,0.074-0.291,0.137-0.432,0.188c-0.143,0.052-0.283,0.095-0.426,0.128     c-0.141,0.032-0.285,0.057-0.43,0.071c-0.146,0.015-0.299,0.022-0.461,0.022c-0.266,0-0.52-0.046-0.762-0.137     c-0.24-0.092-0.453-0.228-0.637-0.406c-0.183-0.18-0.328-0.402-0.437-0.668s-0.162-0.572-0.162-0.923     c0-0.339,0.046-0.646,0.14-0.921c0.093-0.275,0.225-0.511,0.396-0.706c0.173-0.196,0.383-0.346,0.629-0.452     C99.968,27.34,100.245,27.288,100.553,27.288z M100.49,27.903c-0.305,0-0.555,0.088-0.748,0.265     c-0.195,0.177-0.322,0.451-0.383,0.822h2.172c0-0.174-0.025-0.33-0.077-0.465c-0.052-0.136-0.123-0.25-0.216-0.343     c-0.094-0.093-0.203-0.163-0.331-0.209S100.641,27.903,100.49,27.903z"/>
		</g>
		<g class="st4">
			<path class="st6" d="M106.887,29.381c0,0.518,0.028,0.951,0.087,1.303c0.058,0.352,0.133,0.643,0.225,0.872h-0.729     c-0.014-0.036-0.033-0.085-0.058-0.147c-0.025-0.063-0.051-0.135-0.078-0.216c-0.025-0.081-0.051-0.167-0.074-0.261     c-0.023-0.093-0.044-0.186-0.061-0.279c-0.107,0.137-0.223,0.266-0.344,0.387c-0.12,0.12-0.247,0.227-0.381,0.32     c-0.133,0.092-0.271,0.166-0.416,0.219s-0.291,0.08-0.441,0.08c-0.174,0-0.348-0.037-0.521-0.111     c-0.174-0.073-0.33-0.184-0.469-0.332c-0.139-0.147-0.251-0.333-0.337-0.556c-0.086-0.224-0.129-0.485-0.129-0.786     c0-0.314,0.035-0.6,0.106-0.855c0.07-0.256,0.167-0.483,0.289-0.684c0.107-0.175,0.223-0.328,0.346-0.459     c0.121-0.131,0.256-0.24,0.401-0.326c0.146-0.086,0.306-0.151,0.48-0.195s0.369-0.065,0.583-0.065     c0.105,0,0.223,0.007,0.352,0.022s0.261,0.036,0.396,0.063c0.134,0.027,0.269,0.06,0.401,0.099     c0.133,0.038,0.257,0.079,0.371,0.123V29.381z M105.201,27.985c-0.09,0-0.18,0.01-0.27,0.03c-0.09,0.021-0.179,0.057-0.266,0.105     c-0.088,0.049-0.172,0.114-0.254,0.195c-0.082,0.08-0.159,0.182-0.231,0.305c-0.075,0.127-0.136,0.283-0.181,0.471     c-0.046,0.188-0.068,0.379-0.068,0.576c0,0.227,0.021,0.422,0.064,0.585s0.1,0.297,0.17,0.401     c0.07,0.105,0.151,0.184,0.242,0.232c0.09,0.049,0.181,0.074,0.271,0.074c0.117,0,0.244-0.035,0.381-0.107     c0.138-0.07,0.271-0.165,0.402-0.283c0.131-0.117,0.253-0.252,0.368-0.406c0.115-0.152,0.21-0.312,0.285-0.476v-1.539     c-0.042-0.019-0.095-0.038-0.16-0.058c-0.065-0.019-0.138-0.037-0.217-0.053c-0.079-0.017-0.165-0.029-0.258-0.039     S105.295,27.985,105.201,27.985z"/>
		</g>
		<g class="st4">
			<path class="st7" d="M109.468,31.658c-0.888,0-1.332-0.588-1.332-1.765v-1.21c0-0.132-0.001-0.251-0.002-0.357     c-0.001-0.107-0.005-0.21-0.011-0.311c-0.006-0.099-0.014-0.201-0.025-0.305c-0.01-0.104-0.025-0.217-0.045-0.34h0.854v2.277     c0,0.232,0.012,0.433,0.035,0.601c0.023,0.169,0.063,0.307,0.118,0.415s0.128,0.188,0.219,0.24     c0.09,0.052,0.202,0.077,0.335,0.077c0.122,0,0.252-0.035,0.391-0.107c0.139-0.073,0.271-0.166,0.398-0.277     c0.126-0.112,0.241-0.236,0.346-0.371c0.104-0.137,0.184-0.267,0.238-0.393v-1.148c0-0.135,0-0.256-0.002-0.363     c-0.001-0.108-0.004-0.212-0.01-0.311c-0.006-0.098-0.014-0.198-0.025-0.299c-0.012-0.101-0.026-0.215-0.046-0.34h0.854v2.339     c0,0.399,0.022,0.749,0.068,1.049c0.046,0.299,0.113,0.565,0.202,0.798h-0.707c-0.02-0.046-0.041-0.101-0.063-0.164     c-0.023-0.063-0.045-0.13-0.064-0.201c-0.021-0.071-0.041-0.146-0.059-0.224c-0.019-0.078-0.033-0.155-0.044-0.232     c-0.253,0.305-0.513,0.534-0.78,0.689C110.043,31.58,109.762,31.658,109.468,31.658z"/>
		</g>
		<g class="st4">
			<path class="st11" d="M105.079,33.612h1.29v0.365h-0.911v0.724c0.028-0.002,0.06-0.004,0.089-0.004     c0.282,0,0.514,0.085,0.695,0.254s0.273,0.384,0.273,0.645c0,0.27-0.09,0.489-0.27,0.658s-0.413,0.254-0.699,0.254     c-0.235,0-0.465-0.057-0.686-0.169v-0.423c0.209,0.135,0.414,0.201,0.613,0.201c0.175,0,0.321-0.051,0.439-0.15     c0.119-0.101,0.179-0.225,0.179-0.371c0-0.151-0.064-0.278-0.194-0.38c-0.129-0.103-0.289-0.153-0.482-0.153     c-0.165,0-0.277,0.014-0.337,0.041V33.612z"/>
			<path class="st11" d="M108.717,33.579c0.179,0,0.332,0.063,0.457,0.188c0.127,0.127,0.189,0.277,0.189,0.454     c0,0.175-0.063,0.325-0.189,0.451s-0.279,0.188-0.457,0.188s-0.33-0.063-0.457-0.188s-0.19-0.276-0.19-0.451     c0-0.177,0.063-0.327,0.189-0.454C108.385,33.643,108.537,33.579,108.717,33.579z M110.189,33.571h0.32l-1.91,2.94h-0.322     L110.189,33.571z M108.711,33.891c-0.092,0-0.172,0.033-0.236,0.098c-0.066,0.064-0.1,0.143-0.1,0.234     c0,0.09,0.033,0.167,0.1,0.23c0.066,0.064,0.146,0.097,0.236,0.097c0.094,0,0.172-0.032,0.238-0.097     c0.065-0.063,0.098-0.141,0.098-0.23c0-0.093-0.031-0.172-0.097-0.235S108.806,33.891,108.711,33.891z M110.089,35.23     c0.177,0,0.329,0.063,0.457,0.188c0.128,0.125,0.191,0.274,0.191,0.45s-0.063,0.324-0.19,0.446s-0.279,0.184-0.458,0.184     c-0.18,0-0.333-0.062-0.46-0.184s-0.189-0.271-0.189-0.446s0.063-0.327,0.19-0.451C109.758,35.293,109.91,35.23,110.089,35.23z      M110.085,35.543c-0.091,0-0.169,0.032-0.233,0.096c-0.064,0.064-0.097,0.142-0.097,0.231c0,0.091,0.032,0.169,0.097,0.234     c0.064,0.064,0.143,0.097,0.233,0.097c0.094,0,0.173-0.031,0.238-0.096s0.098-0.143,0.098-0.235c0-0.091-0.032-0.169-0.098-0.231     C110.258,35.574,110.179,35.543,110.085,35.543z"/>
		</g>
	</g>
	<g class="st12">
		<path class="st6" d="M99.512,43.217c0.355,0,0.627,0.114,0.815,0.343c0.188,0.229,0.283,0.569,0.283,1.02v2.052h-0.616v-1.806    c0-0.206-0.014-0.376-0.041-0.509c-0.028-0.133-0.07-0.239-0.125-0.316c-0.056-0.078-0.125-0.133-0.209-0.163    c-0.082-0.03-0.18-0.046-0.291-0.046c-0.119,0-0.236,0.027-0.352,0.084c-0.113,0.056-0.219,0.128-0.314,0.217    c-0.096,0.088-0.18,0.188-0.253,0.301c-0.073,0.111-0.128,0.223-0.163,0.334v1.904h-0.615v-3.709c0-0.355-0.003-0.666-0.008-0.932    c-0.004-0.266-0.019-0.47-0.043-0.611h0.666v2.527c0.164-0.23,0.357-0.402,0.58-0.518C99.047,43.273,99.275,43.217,99.512,43.217z    "/>
	</g>
	<g class="st4">
		<path class="st6" d="M105.265,44.456c0,0.517,0.028,0.951,0.087,1.303s0.133,0.642,0.225,0.872h-0.729    c-0.014-0.035-0.033-0.085-0.058-0.148c-0.024-0.063-0.051-0.134-0.077-0.215c-0.026-0.08-0.051-0.168-0.074-0.26    c-0.024-0.094-0.045-0.187-0.061-0.279c-0.108,0.137-0.223,0.266-0.344,0.385c-0.121,0.121-0.248,0.228-0.381,0.32    c-0.133,0.094-0.271,0.166-0.416,0.22s-0.291,0.08-0.441,0.08c-0.175,0-0.349-0.037-0.521-0.11    c-0.174-0.074-0.33-0.186-0.469-0.333s-0.252-0.333-0.338-0.556s-0.129-0.484-0.129-0.786c0-0.314,0.035-0.6,0.106-0.855    s0.167-0.483,0.29-0.683c0.107-0.176,0.223-0.329,0.345-0.461c0.122-0.131,0.256-0.239,0.401-0.326    c0.146-0.086,0.307-0.15,0.48-0.194c0.176-0.044,0.369-0.065,0.584-0.065c0.104,0,0.223,0.008,0.352,0.022s0.26,0.036,0.395,0.063    s0.269,0.061,0.402,0.099c0.133,0.038,0.256,0.079,0.37,0.123V44.456z M103.579,43.061c-0.089,0-0.179,0.01-0.269,0.031    c-0.09,0.02-0.18,0.055-0.267,0.104c-0.087,0.049-0.172,0.114-0.254,0.194c-0.081,0.081-0.159,0.184-0.231,0.307    c-0.074,0.125-0.135,0.282-0.181,0.469c-0.046,0.188-0.068,0.381-0.068,0.577c0,0.228,0.021,0.422,0.064,0.585    c0.043,0.162,0.101,0.297,0.171,0.402s0.15,0.182,0.241,0.231c0.09,0.05,0.181,0.073,0.272,0.073c0.117,0,0.244-0.035,0.381-0.105    c0.137-0.072,0.271-0.166,0.402-0.283c0.13-0.118,0.252-0.254,0.367-0.406c0.115-0.154,0.211-0.313,0.285-0.477v-1.539    c-0.041-0.02-0.095-0.038-0.16-0.057c-0.064-0.02-0.137-0.037-0.217-0.054c-0.078-0.017-0.164-0.03-0.258-0.039    C103.767,43.065,103.674,43.061,103.579,43.061z"/>
	</g>
	<g class="st13">
		<path class="st5" d="M107.118,45.071c0,0.105,0.001,0.229,0.005,0.371c0.004,0.143,0.008,0.286,0.014,0.434    c0.006,0.146,0.012,0.286,0.02,0.42s0.018,0.245,0.028,0.335h-0.683v-3.709c0-0.32-0.006-0.609-0.017-0.869    s-0.027-0.484-0.05-0.674h0.683V45.071z"/>
	</g>
	<g>
		<path class="st10" d="M108.943,45.071c0,0.105,0.002,0.229,0.006,0.371c0.003,0.143,0.008,0.286,0.014,0.434    c0.005,0.146,0.012,0.286,0.02,0.42s0.018,0.245,0.027,0.335h-0.682v-3.709c0-0.32-0.006-0.609-0.018-0.869    c-0.01-0.26-0.027-0.484-0.049-0.674h0.682V45.071z"/>
		<path class="st10" d="M107.695,47.123v-0.262h1.881v0.262H107.695z"/>
	</g>
	<g class="st4">
		<path class="st10" d="M61.366,41.972c0.222,0,0.413,0.025,0.574,0.077c0.161,0.051,0.302,0.119,0.424,0.201l-0.116,0.592    c-0.151-0.109-0.301-0.191-0.45-0.246s-0.31-0.082-0.483-0.082c-0.148,0-0.287,0.027-0.415,0.083    c-0.127,0.056-0.238,0.136-0.333,0.241c-0.094,0.105-0.168,0.234-0.221,0.388s-0.08,0.326-0.08,0.519    c0,0.178,0.024,0.338,0.073,0.482s0.119,0.27,0.21,0.373s0.201,0.184,0.33,0.241s0.274,0.085,0.436,0.085    c0.202,0,0.385-0.033,0.549-0.102c0.165-0.068,0.32-0.165,0.466-0.292l0.066,0.575c-0.084,0.063-0.168,0.117-0.251,0.162    c-0.083,0.045-0.17,0.082-0.262,0.111c-0.091,0.029-0.188,0.051-0.293,0.065c-0.104,0.015-0.219,0.021-0.343,0.021    c-0.224,0-0.434-0.039-0.629-0.116c-0.195-0.078-0.366-0.189-0.513-0.337c-0.146-0.146-0.262-0.323-0.346-0.532    c-0.084-0.207-0.126-0.443-0.126-0.705c0-0.248,0.041-0.48,0.122-0.699s0.196-0.41,0.346-0.574s0.332-0.295,0.546-0.39    S61.102,41.972,61.366,41.972z"/>
		<path class="st10" d="M63.23,45.386v-2.019c0-0.324-0.019-0.599-0.055-0.822c-0.037-0.225-0.074-0.395-0.111-0.508h0.599    c0.027,0.062,0.051,0.139,0.072,0.231s0.039,0.196,0.053,0.31c0.015,0.115,0.025,0.236,0.032,0.365s0.01,0.26,0.01,0.391v0.213    c0.113-0.309,0.224-0.563,0.333-0.766c0.109-0.203,0.217-0.364,0.325-0.484c0.107-0.121,0.216-0.205,0.325-0.253    s0.22-0.072,0.333-0.072c0.084,0,0.162,0.007,0.233,0.022c0.071,0.016,0.143,0.041,0.216,0.076l-0.1,0.607    c-0.064-0.027-0.121-0.044-0.17-0.053s-0.109-0.014-0.18-0.014c-0.091,0-0.187,0.038-0.287,0.113    c-0.1,0.076-0.198,0.176-0.294,0.301s-0.188,0.266-0.275,0.424c-0.086,0.157-0.163,0.318-0.228,0.484    c-0.065,0.164-0.118,0.326-0.156,0.484c-0.039,0.156-0.059,0.297-0.059,0.42c0,0.055,0,0.104,0.002,0.15    c0.001,0.047,0.004,0.09,0.01,0.133c0.006,0.043,0.013,0.086,0.022,0.129c0.009,0.042,0.02,0.088,0.033,0.136H63.23z"/>
	</g>
	<g class="st4">
		<path class="st6" d="M69.869,43.211c0,0.518,0.029,0.951,0.087,1.303c0.058,0.352,0.133,0.643,0.225,0.872h-0.729    c-0.014-0.036-0.033-0.085-0.058-0.147s-0.051-0.135-0.077-0.216s-0.051-0.167-0.075-0.261c-0.024-0.093-0.044-0.186-0.061-0.279    c-0.108,0.137-0.223,0.266-0.343,0.387c-0.121,0.12-0.248,0.227-0.381,0.32c-0.133,0.092-0.272,0.166-0.416,0.219    c-0.145,0.053-0.292,0.08-0.441,0.08c-0.175,0-0.349-0.037-0.522-0.111c-0.174-0.073-0.33-0.184-0.468-0.332    c-0.139-0.147-0.251-0.333-0.337-0.556c-0.086-0.224-0.129-0.485-0.129-0.786c0-0.314,0.035-0.6,0.106-0.855    s0.167-0.483,0.29-0.684c0.108-0.175,0.223-0.328,0.345-0.459c0.122-0.132,0.256-0.24,0.402-0.326    c0.146-0.086,0.306-0.151,0.48-0.195s0.369-0.065,0.583-0.065c0.105,0,0.223,0.007,0.352,0.022s0.261,0.036,0.396,0.063    c0.134,0.027,0.268,0.06,0.401,0.099c0.133,0.038,0.257,0.079,0.371,0.123V43.211z M68.184,41.815    c-0.089,0-0.179,0.011-0.269,0.03c-0.09,0.021-0.179,0.057-0.267,0.105s-0.172,0.114-0.254,0.195    c-0.082,0.08-0.159,0.182-0.231,0.305c-0.075,0.127-0.135,0.283-0.181,0.471c-0.045,0.188-0.068,0.379-0.068,0.576    c0,0.227,0.021,0.422,0.064,0.585s0.1,0.297,0.17,0.401c0.071,0.105,0.151,0.184,0.242,0.232c0.09,0.049,0.181,0.074,0.272,0.074    c0.117,0,0.244-0.035,0.381-0.107c0.137-0.07,0.271-0.165,0.402-0.283c0.13-0.117,0.253-0.252,0.368-0.406    c0.115-0.152,0.21-0.312,0.285-0.476v-1.539c-0.042-0.019-0.095-0.038-0.16-0.058c-0.065-0.019-0.138-0.037-0.217-0.053    c-0.079-0.017-0.165-0.029-0.258-0.039C68.371,41.82,68.278,41.815,68.184,41.815z"/>
	</g>
	<g class="st4">
		<path class="st7" d="M74.012,41.2l1.082,3.304l0.874-3.304h0.771c-0.051,0.155-0.094,0.296-0.131,0.421    c-0.038,0.124-0.074,0.243-0.107,0.356c-0.033,0.114-0.065,0.225-0.098,0.333c-0.031,0.107-0.065,0.223-0.102,0.346l-0.77,2.729    H74.74l-1.041-3.222l-1.04,3.222h-0.791l-0.77-2.729c-0.031-0.109-0.062-0.217-0.094-0.324c-0.032-0.105-0.065-0.217-0.1-0.332    s-0.071-0.238-0.11-0.369c-0.039-0.131-0.083-0.275-0.133-0.431h0.77l0.874,3.304l1.083-3.304H74.012z"/>
	</g>
	<g>
		<path class="st10" d="M78.111,43.826c0,0.105,0.002,0.229,0.006,0.371c0.003,0.143,0.008,0.287,0.014,0.434    c0.005,0.146,0.012,0.287,0.02,0.42c0.008,0.134,0.018,0.245,0.027,0.335h-0.682v-3.71c0-0.319-0.006-0.609-0.018-0.868    c-0.01-0.259-0.027-0.483-0.049-0.675h0.682V43.826z"/>
		<path class="st10" d="M76.863,45.879v-0.264h1.881v0.264H76.863z"/>
	</g>
	<g>
		<g class="st4">
			<path class="st7" d="M123.902,22.929c0-0.45,0.068-0.848,0.207-1.195c0.137-0.347,0.323-0.639,0.557-0.878     c0.232-0.239,0.506-0.419,0.816-0.542c0.311-0.122,0.642-0.183,0.991-0.183c0.364,0,0.697,0.061,0.999,0.183     c0.303,0.122,0.563,0.303,0.78,0.542s0.386,0.531,0.507,0.878c0.119,0.347,0.18,0.745,0.18,1.195s-0.068,0.847-0.207,1.192     c-0.138,0.345-0.323,0.634-0.557,0.868c-0.233,0.233-0.506,0.41-0.816,0.53c-0.311,0.121-0.642,0.181-0.992,0.181     c-0.363,0-0.697-0.06-0.999-0.181c-0.302-0.12-0.562-0.297-0.779-0.53c-0.218-0.234-0.386-0.523-0.507-0.868     C123.963,23.775,123.902,23.378,123.902,22.929z M124.168,19.452l1.803-2.248h0.9l1.803,2.248h-0.795l-1.458-1.464l-1.458,1.464     H124.168z M124.883,22.929c0,0.303,0.037,0.575,0.111,0.815c0.074,0.241,0.18,0.444,0.316,0.609     c0.135,0.166,0.297,0.292,0.484,0.379s0.396,0.131,0.626,0.131c0.212,0,0.411-0.044,0.599-0.131s0.352-0.213,0.49-0.379     c0.141-0.166,0.25-0.369,0.33-0.609c0.078-0.24,0.119-0.512,0.119-0.815c0-0.307-0.037-0.581-0.111-0.823     s-0.18-0.448-0.316-0.617c-0.136-0.169-0.299-0.298-0.487-0.387c-0.189-0.089-0.397-0.133-0.623-0.133     c-0.216,0-0.417,0.044-0.604,0.133s-0.35,0.218-0.488,0.387c-0.138,0.169-0.246,0.375-0.326,0.617     C124.923,22.348,124.883,22.622,124.883,22.929z"/>
		</g>
		<g class="st12">
			<path class="st6" d="M118.246,29.304c0.355,0,0.628,0.114,0.816,0.343s0.283,0.568,0.283,1.02v2.052h-0.616v-1.806     c0-0.205-0.014-0.375-0.042-0.509c-0.027-0.134-0.068-0.239-0.125-0.317c-0.055-0.077-0.125-0.131-0.207-0.162     c-0.084-0.03-0.181-0.046-0.292-0.046c-0.12,0-0.237,0.028-0.351,0.084c-0.115,0.056-0.22,0.128-0.314,0.216     c-0.096,0.09-0.181,0.189-0.254,0.301s-0.127,0.224-0.163,0.335v1.904h-0.616v-3.71c0-0.354-0.002-0.664-0.006-0.931     c-0.005-0.266-0.02-0.47-0.044-0.612h0.666v2.528c0.165-0.229,0.357-0.402,0.579-0.517     C117.783,29.361,118.012,29.304,118.246,29.304z"/>
		</g>
		<g class="st4">
			<path class="st7" d="M120.233,30.646c0-0.353,0.054-0.665,0.162-0.938c0.108-0.271,0.254-0.502,0.437-0.688     c0.184-0.188,0.397-0.329,0.642-0.425s0.503-0.144,0.778-0.144c0.285,0,0.547,0.048,0.784,0.144s0.441,0.237,0.612,0.425     c0.17,0.187,0.303,0.417,0.396,0.688c0.096,0.273,0.143,0.586,0.143,0.938s-0.055,0.665-0.162,0.936     c-0.109,0.271-0.254,0.498-0.438,0.681c-0.184,0.184-0.396,0.322-0.641,0.417s-0.504,0.142-0.779,0.142     c-0.285,0-0.547-0.047-0.783-0.142c-0.238-0.095-0.441-0.233-0.612-0.417c-0.171-0.183-0.304-0.41-0.397-0.681     C120.28,31.311,120.233,30.998,120.233,30.646z M120.441,27.917l1.415-1.765h0.708l1.414,1.765h-0.624l-1.145-1.149l-1.145,1.149     H120.441z M121.004,30.646c0,0.237,0.028,0.451,0.087,0.64c0.058,0.189,0.141,0.349,0.247,0.479     c0.107,0.13,0.234,0.229,0.381,0.297c0.147,0.068,0.311,0.104,0.491,0.104c0.167,0,0.323-0.035,0.471-0.104     s0.275-0.167,0.385-0.297s0.196-0.289,0.259-0.479c0.062-0.188,0.093-0.402,0.093-0.64c0-0.241-0.028-0.456-0.087-0.646     s-0.141-0.352-0.248-0.484c-0.107-0.132-0.234-0.233-0.383-0.304c-0.148-0.069-0.312-0.104-0.489-0.104     c-0.169,0-0.327,0.035-0.474,0.104c-0.147,0.07-0.275,0.172-0.383,0.304c-0.109,0.133-0.194,0.294-0.257,0.484     C121.035,30.189,121.004,30.404,121.004,30.646z"/>
		</g>
		<g class="st4">
			<path class="st10" d="M125.02,31.125c0-0.203-0.002-0.392-0.005-0.566c-0.003-0.174-0.011-0.333-0.022-0.479     c-0.01-0.146-0.027-0.277-0.049-0.396c-0.022-0.118-0.053-0.224-0.09-0.315h0.599c0.024,0.057,0.049,0.137,0.073,0.241     s0.045,0.231,0.061,0.383c0.077-0.101,0.162-0.194,0.254-0.279s0.189-0.158,0.293-0.218c0.104-0.061,0.213-0.107,0.326-0.142     c0.115-0.034,0.234-0.051,0.358-0.051c0.188,0,0.361,0.041,0.518,0.123c0.157,0.082,0.29,0.196,0.399,0.345     c0.11,0.147,0.195,0.322,0.257,0.525c0.062,0.202,0.091,0.424,0.091,0.664c0,0.281-0.039,0.534-0.119,0.76     c-0.08,0.227-0.188,0.42-0.324,0.58s-0.297,0.283-0.481,0.369c-0.185,0.087-0.381,0.13-0.589,0.13     c-0.09,0-0.174-0.009-0.252-0.026c-0.079-0.018-0.155-0.041-0.23-0.072c-0.074-0.03-0.147-0.068-0.221-0.113     s-0.15-0.094-0.23-0.148v0.771c0,0.131,0.002,0.25,0.006,0.355c0.003,0.105,0.008,0.204,0.015,0.294     c0.007,0.089,0.016,0.173,0.026,0.247c0.012,0.076,0.023,0.148,0.037,0.219h-0.699V31.125z M126.568,32.258     c0.117,0,0.229-0.027,0.338-0.082c0.107-0.055,0.203-0.134,0.285-0.238c0.084-0.104,0.15-0.229,0.2-0.377s0.075-0.314,0.075-0.5     c0-0.182-0.018-0.348-0.052-0.494c-0.034-0.148-0.085-0.273-0.151-0.378s-0.146-0.185-0.242-0.241     c-0.094-0.057-0.201-0.086-0.32-0.086c-0.096,0-0.193,0.021-0.293,0.063c-0.1,0.042-0.197,0.104-0.291,0.184     c-0.096,0.082-0.184,0.183-0.266,0.305c-0.082,0.121-0.154,0.26-0.217,0.418v1.034c0.113,0.079,0.212,0.144,0.295,0.195     c0.084,0.052,0.16,0.092,0.229,0.122c0.068,0.029,0.135,0.049,0.198,0.061C126.42,32.253,126.49,32.258,126.568,32.258z"/>
			<path class="st10" d="M128.915,28.303c0-0.062,0.01-0.119,0.03-0.173c0.02-0.054,0.048-0.101,0.084-0.141     c0.037-0.041,0.081-0.072,0.133-0.095c0.051-0.023,0.107-0.035,0.169-0.035s0.12,0.012,0.173,0.035     c0.054,0.023,0.1,0.055,0.137,0.095c0.038,0.041,0.068,0.087,0.09,0.141c0.022,0.054,0.033,0.111,0.033,0.173     c0,0.061-0.011,0.118-0.033,0.172c-0.021,0.054-0.052,0.101-0.09,0.141c-0.037,0.041-0.083,0.072-0.137,0.096     c-0.053,0.023-0.111,0.035-0.173,0.035s-0.118-0.012-0.169-0.035c-0.052-0.023-0.096-0.055-0.133-0.096     c-0.036-0.04-0.064-0.087-0.084-0.141C128.925,28.421,128.915,28.363,128.915,28.303z M129.647,31.158     c0,0.105,0.001,0.229,0.005,0.373c0.004,0.143,0.008,0.288,0.014,0.435c0.006,0.147,0.012,0.287,0.02,0.421     c0.008,0.133,0.018,0.244,0.028,0.331h-0.683v-1.739c0-0.16,0-0.318-0.002-0.474c0-0.155-0.003-0.302-0.006-0.441     c-0.004-0.139-0.009-0.269-0.016-0.388c-0.006-0.119-0.016-0.221-0.026-0.307h0.666V31.158z"/>
			<path class="st10" d="M130.381,29.451h0.665v-1.066h0.616v1.066h1.082v0.477h-1.082v1.51c0,0.168,0.008,0.307,0.025,0.414     c0.016,0.107,0.041,0.19,0.076,0.25c0.034,0.061,0.078,0.102,0.131,0.123c0.054,0.022,0.118,0.033,0.193,0.033     c0.096,0,0.203-0.021,0.323-0.063c0.12-0.041,0.253-0.103,0.399-0.184v0.525c-0.152,0.099-0.299,0.167-0.439,0.205     c-0.14,0.039-0.269,0.058-0.387,0.058c-0.131,0-0.252-0.015-0.365-0.044s-0.213-0.082-0.299-0.156     c-0.085-0.074-0.152-0.174-0.201-0.297c-0.049-0.124-0.073-0.281-0.073-0.471v-1.904h-0.665V29.451z"/>
			<path class="st10" d="M136.39,30.979c0,0.413,0.023,0.76,0.069,1.041c0.047,0.281,0.107,0.514,0.18,0.698h-0.582     c-0.012-0.028-0.027-0.067-0.047-0.118s-0.04-0.107-0.062-0.172c-0.021-0.064-0.041-0.135-0.06-0.209     c-0.02-0.074-0.035-0.148-0.049-0.223c-0.086,0.109-0.178,0.212-0.274,0.309c-0.097,0.096-0.198,0.182-0.305,0.256     s-0.218,0.133-0.333,0.176c-0.115,0.042-0.232,0.063-0.353,0.063c-0.14,0-0.279-0.029-0.418-0.089     c-0.139-0.059-0.264-0.147-0.374-0.266c-0.111-0.118-0.201-0.267-0.271-0.445c-0.069-0.178-0.103-0.387-0.103-0.629     c0-0.251,0.027-0.479,0.084-0.684s0.135-0.387,0.232-0.547c0.086-0.141,0.178-0.263,0.275-0.367     c0.098-0.105,0.205-0.192,0.322-0.262c0.115-0.068,0.244-0.121,0.384-0.156c0.14-0.034,0.296-0.052,0.466-0.052     c0.085,0,0.179,0.006,0.281,0.019c0.104,0.012,0.209,0.028,0.316,0.051c0.107,0.021,0.215,0.048,0.322,0.078     c0.105,0.031,0.205,0.063,0.296,0.099V30.979z M135.041,29.861c-0.07,0-0.143,0.008-0.215,0.025     c-0.072,0.016-0.143,0.044-0.213,0.084c-0.07,0.039-0.138,0.091-0.203,0.155s-0.127,0.146-0.185,0.245     c-0.06,0.1-0.108,0.226-0.146,0.375c-0.036,0.15-0.055,0.305-0.055,0.461c0,0.182,0.018,0.338,0.052,0.469     c0.034,0.13,0.08,0.237,0.137,0.321c0.057,0.085,0.12,0.146,0.192,0.186s0.146,0.06,0.219,0.06c0.094,0,0.195-0.029,0.305-0.086     s0.217-0.133,0.321-0.227s0.202-0.202,0.294-0.324c0.093-0.123,0.169-0.25,0.229-0.381v-1.231     c-0.033-0.016-0.076-0.03-0.128-0.046s-0.11-0.029-0.173-0.043c-0.063-0.014-0.133-0.023-0.207-0.031     S135.117,29.861,135.041,29.861z"/>
		</g>
		<g>
			<path class="st10" d="M138.125,31.158c0,0.105,0.002,0.229,0.005,0.371s0.008,0.287,0.014,0.434     c0.005,0.146,0.013,0.287,0.02,0.42c0.008,0.134,0.018,0.245,0.028,0.335h-0.682v-3.71c0-0.319-0.006-0.609-0.018-0.868     c-0.011-0.259-0.027-0.484-0.05-0.674h0.683V31.158z"/>
			<path class="st10" d="M136.877,33.211v-0.264h1.881v0.264H136.877z"/>
		</g>
		<g class="st4">
			<path class="st11" d="M132.691,36.469h1.106v0.396h-1.84v-0.028l0.175-0.203c0.273-0.334,0.49-0.617,0.652-0.85     s0.268-0.408,0.316-0.527s0.074-0.236,0.074-0.354c0-0.161-0.047-0.291-0.14-0.389s-0.216-0.146-0.37-0.146     c-0.117,0-0.231,0.033-0.345,0.102s-0.215,0.163-0.305,0.286v-0.521c0.226-0.183,0.459-0.273,0.699-0.273     c0.254,0,0.463,0.084,0.628,0.25c0.164,0.168,0.246,0.379,0.246,0.637c0,0.115-0.021,0.237-0.062,0.368     c-0.041,0.13-0.113,0.281-0.218,0.451c-0.104,0.171-0.28,0.403-0.53,0.696L132.691,36.469z"/>
			<path class="st11" d="M135.881,33.965c0.179,0,0.332,0.063,0.457,0.189c0.127,0.125,0.189,0.276,0.189,0.453     c0,0.175-0.063,0.325-0.189,0.451s-0.279,0.189-0.457,0.189s-0.33-0.063-0.457-0.189s-0.19-0.276-0.19-0.451     c0-0.177,0.063-0.328,0.189-0.453C135.549,34.027,135.701,33.965,135.881,33.965z M137.354,33.957h0.32l-1.91,2.939h-0.322     L137.354,33.957z M135.875,34.277c-0.092,0-0.172,0.032-0.236,0.097c-0.066,0.065-0.1,0.144-0.1,0.234     c0,0.09,0.033,0.167,0.1,0.231c0.066,0.063,0.146,0.096,0.236,0.096c0.094,0,0.172-0.032,0.238-0.096     c0.065-0.064,0.098-0.142,0.098-0.231c0-0.093-0.031-0.171-0.097-0.235S135.97,34.277,135.875,34.277z M137.253,35.617     c0.177,0,0.329,0.063,0.457,0.188s0.191,0.275,0.191,0.45s-0.063,0.323-0.19,0.446s-0.279,0.184-0.458,0.184     c-0.18,0-0.333-0.061-0.46-0.184s-0.189-0.271-0.189-0.446c0-0.177,0.063-0.327,0.19-0.451S137.074,35.617,137.253,35.617z      M137.249,35.929c-0.091,0-0.169,0.032-0.233,0.097c-0.064,0.063-0.097,0.141-0.097,0.23c0,0.092,0.032,0.17,0.097,0.234     s0.143,0.098,0.233,0.098c0.094,0,0.173-0.033,0.238-0.097s0.098-0.143,0.098-0.235c0-0.092-0.032-0.168-0.098-0.232     C137.422,35.961,137.343,35.929,137.249,35.929z"/>
		</g>
	</g>
	<g class="st4">
		<path class="st11" d="M39.255,50.018v0.395h-1.448v0.591c0,0.245,0.001,0.46,0.005,0.646s0.014,0.328,0.032,0.425h-0.549    c0.019-0.099,0.029-0.24,0.033-0.428c0.003-0.186,0.005-0.4,0.005-0.644v-1.784c0-0.111-0.001-0.212-0.004-0.305    s-0.006-0.176-0.011-0.25c-0.005-0.074-0.012-0.135-0.022-0.185h2.173v0.406h-1.661v1.132H39.255z"/>
		<path class="st11" d="M40.004,50.83c0-0.211,0.032-0.398,0.097-0.563c0.065-0.162,0.152-0.301,0.262-0.413    s0.238-0.197,0.385-0.255c0.146-0.057,0.302-0.086,0.467-0.086c0.171,0,0.329,0.029,0.471,0.086    c0.143,0.058,0.265,0.143,0.367,0.255s0.182,0.251,0.238,0.413c0.057,0.164,0.085,0.352,0.085,0.563    c0,0.213-0.032,0.399-0.097,0.563c-0.065,0.162-0.152,0.299-0.262,0.408c-0.11,0.11-0.238,0.193-0.385,0.25    s-0.302,0.085-0.467,0.085c-0.171,0-0.329-0.028-0.471-0.085c-0.143-0.057-0.265-0.14-0.367-0.25    c-0.103-0.109-0.182-0.246-0.238-0.408C40.033,51.229,40.004,51.043,40.004,50.83z M40.466,50.83c0,0.144,0.018,0.271,0.052,0.385    c0.035,0.113,0.084,0.209,0.149,0.287c0.064,0.078,0.14,0.137,0.229,0.178c0.088,0.041,0.186,0.063,0.294,0.063    c0.1,0,0.194-0.021,0.282-0.063s0.165-0.1,0.231-0.178s0.117-0.174,0.155-0.287s0.056-0.241,0.056-0.385s-0.018-0.273-0.052-0.387    c-0.035-0.114-0.084-0.211-0.148-0.291c-0.064-0.08-0.141-0.141-0.23-0.182c-0.089-0.043-0.187-0.063-0.293-0.063    c-0.102,0-0.196,0.02-0.285,0.063c-0.088,0.041-0.165,0.102-0.229,0.182s-0.116,0.177-0.154,0.291    C40.485,50.557,40.466,50.687,40.466,50.83z"/>
		<path class="st11" d="M43.001,52.074v-1.514c0-0.244-0.014-0.449-0.042-0.617c-0.027-0.168-0.055-0.295-0.083-0.381h0.45    c0.02,0.047,0.038,0.104,0.054,0.174c0.016,0.07,0.029,0.147,0.04,0.232c0.011,0.086,0.019,0.177,0.024,0.273    c0.005,0.098,0.007,0.195,0.007,0.293v0.16c0.085-0.231,0.168-0.423,0.25-0.574c0.082-0.152,0.163-0.273,0.243-0.363    c0.081-0.091,0.162-0.154,0.244-0.189c0.082-0.037,0.165-0.055,0.25-0.055c0.063,0,0.122,0.006,0.175,0.018    s0.107,0.029,0.163,0.057l-0.075,0.455c-0.048-0.02-0.091-0.033-0.127-0.039c-0.037-0.007-0.082-0.01-0.135-0.01    c-0.068,0-0.14,0.027-0.214,0.084c-0.075,0.057-0.149,0.133-0.221,0.226c-0.072,0.094-0.141,0.2-0.206,0.317    c-0.065,0.119-0.122,0.24-0.171,0.363c-0.049,0.125-0.088,0.245-0.118,0.363c-0.029,0.118-0.043,0.224-0.043,0.315    c0,0.041,0,0.079,0.001,0.113c0.001,0.034,0.003,0.067,0.008,0.1c0.004,0.032,0.009,0.063,0.016,0.097    c0.007,0.031,0.015,0.065,0.025,0.102H43.001z"/>
		<path class="st11" d="M46.372,49.514c0.167,0,0.31,0.02,0.431,0.058c0.121,0.038,0.227,0.089,0.318,0.151l-0.087,0.443    c-0.113-0.082-0.226-0.144-0.337-0.185s-0.232-0.062-0.362-0.062c-0.112,0-0.215,0.021-0.311,0.063    c-0.096,0.042-0.179,0.103-0.25,0.182c-0.071,0.078-0.126,0.176-0.166,0.29s-0.06,0.245-0.06,0.39    c0,0.133,0.018,0.253,0.055,0.361s0.089,0.201,0.157,0.279s0.151,0.139,0.248,0.182c0.096,0.042,0.206,0.063,0.327,0.063    c0.151,0,0.289-0.025,0.412-0.076c0.124-0.051,0.24-0.124,0.35-0.22l0.05,0.432c-0.063,0.047-0.126,0.088-0.188,0.121    c-0.063,0.034-0.128,0.063-0.196,0.084c-0.068,0.022-0.142,0.039-0.22,0.049c-0.078,0.012-0.164,0.017-0.257,0.017    c-0.168,0-0.325-0.029-0.472-0.087c-0.146-0.059-0.275-0.143-0.385-0.253s-0.196-0.243-0.26-0.399    c-0.063-0.155-0.095-0.332-0.095-0.529c0-0.186,0.03-0.359,0.091-0.523c0.061-0.164,0.147-0.309,0.259-0.432    c0.113-0.123,0.249-0.221,0.41-0.291C45.995,49.549,46.174,49.514,46.372,49.514z"/>
		<path class="st11" d="M48.82,49.514c0.136,0,0.257,0.016,0.362,0.048s0.196,0.076,0.272,0.133    c0.076,0.057,0.141,0.123,0.192,0.198c0.052,0.076,0.093,0.156,0.124,0.244c0.031,0.087,0.053,0.178,0.066,0.271    c0.013,0.095,0.02,0.188,0.02,0.279v0.097c0,0.041-0.001,0.073-0.002,0.096h-1.771c0.005,0.145,0.028,0.271,0.069,0.377    c0.041,0.106,0.096,0.194,0.167,0.265s0.154,0.122,0.25,0.156c0.096,0.035,0.2,0.052,0.313,0.052c0.161,0,0.319-0.019,0.474-0.054    c0.155-0.037,0.309-0.101,0.462-0.192l0.05,0.406c-0.088,0.044-0.175,0.082-0.26,0.113s-0.17,0.057-0.255,0.076    s-0.171,0.034-0.258,0.043s-0.18,0.014-0.276,0.014c-0.16,0-0.313-0.027-0.457-0.083c-0.145-0.055-0.272-0.136-0.382-0.243    s-0.197-0.241-0.262-0.4s-0.097-0.344-0.097-0.554c0-0.203,0.028-0.388,0.083-0.553s0.135-0.307,0.239-0.424    c0.103-0.117,0.229-0.207,0.377-0.271C48.468,49.545,48.635,49.514,48.82,49.514z M48.782,49.883c-0.183,0-0.333,0.053-0.45,0.158    c-0.116,0.106-0.193,0.271-0.229,0.494h1.304c0-0.105-0.016-0.198-0.046-0.279s-0.074-0.15-0.13-0.205    c-0.056-0.057-0.122-0.098-0.199-0.126C48.956,49.896,48.872,49.883,48.782,49.883z"/>
	</g>
	<g class="st4">
		<path class="st11" d="M20.926,41.661h1.435v0.161h-0.606c-0.132,0-0.222,0.041-0.27,0.125c-0.027,0.045-0.04,0.105-0.04,0.18    v4.521c0,0.1,0.015,0.174,0.043,0.223c0.05,0.086,0.146,0.128,0.29,0.128h0.583v0.171h-1.435V41.661z"/>
		<path class="st11" d="M24.895,42.943c0.282-0.006,0.554,0.043,0.817,0.147c0.533,0.21,0.847,0.582,0.942,1.116    c0.022,0.125,0.033,0.246,0.033,0.363c0,0.595-0.236,1.044-0.709,1.348c-0.228,0.146-0.499,0.232-0.813,0.259    c-0.052,0.005-0.106,0.007-0.163,0.007c-0.6,0-1.045-0.24-1.337-0.721c-0.151-0.246-0.23-0.513-0.238-0.8    c-0.009-0.29,0.054-0.573,0.188-0.851c0.126-0.258,0.301-0.465,0.524-0.62C24.373,43.031,24.624,42.949,24.895,42.943z     M23.906,44.631c0.06,0.389,0.174,0.705,0.341,0.947c0.213,0.309,0.497,0.464,0.851,0.464c0.06,0,0.128-0.007,0.205-0.02    c0.583-0.101,0.874-0.529,0.874-1.285c0-0.115-0.007-0.235-0.021-0.362c-0.061-0.54-0.272-0.92-0.634-1.14    c-0.172-0.104-0.365-0.157-0.58-0.157c-0.038,0-0.094,0.004-0.169,0.013c-0.292,0.034-0.519,0.187-0.681,0.46    c-0.138,0.232-0.207,0.506-0.207,0.816C23.884,44.449,23.892,44.537,23.906,44.631z"/>
		<path class="st11" d="M29.184,47.17h-1.438v-0.164h0.609c0.204,0,0.306-0.102,0.306-0.303V42.18c0-0.232-0.11-0.348-0.33-0.348    h-0.586v-0.171h1.438V47.17z"/>
	</g>
	<g class="st4">
		<path class="st11" d="M42.215,45.43c0-0.269,0.103-0.497,0.307-0.685c0.205-0.188,0.456-0.282,0.752-0.282    c0.291,0,0.537,0.094,0.738,0.279c0.201,0.187,0.301,0.416,0.301,0.688c0,0.307-0.145,0.561-0.435,0.761    c0.323,0.185,0.484,0.455,0.484,0.813c0,0.283-0.104,0.519-0.314,0.704c-0.21,0.187-0.475,0.278-0.794,0.278    c-0.316,0-0.582-0.095-0.797-0.284c-0.215-0.19-0.322-0.425-0.322-0.704c0-0.35,0.165-0.619,0.494-0.808    c-0.148-0.118-0.254-0.235-0.318-0.353S42.215,45.584,42.215,45.43z M43.858,47.023v-0.049c0-0.158-0.057-0.286-0.171-0.385    c-0.114-0.1-0.262-0.149-0.443-0.149c-0.178,0-0.323,0.05-0.436,0.15s-0.168,0.229-0.168,0.389s0.057,0.289,0.172,0.39    c0.115,0.1,0.264,0.15,0.447,0.15c0.175,0,0.318-0.047,0.431-0.139S43.858,47.17,43.858,47.023z M43.815,45.445    c0-0.148-0.052-0.271-0.156-0.369c-0.104-0.097-0.236-0.145-0.396-0.145c-0.162,0-0.294,0.047-0.397,0.143    c-0.103,0.095-0.155,0.217-0.155,0.367c0,0.143,0.055,0.265,0.164,0.366s0.24,0.153,0.393,0.153c0.152,0,0.281-0.051,0.387-0.152    C43.762,45.708,43.815,45.587,43.815,45.445z"/>
	</g>
	<g class="st4">
		<path class="st11" d="M46.425,44.469c0.215,0,0.398,0.074,0.549,0.227c0.152,0.15,0.228,0.332,0.228,0.543    s-0.076,0.391-0.229,0.543c-0.152,0.15-0.335,0.226-0.548,0.226c-0.213,0-0.396-0.075-0.548-0.226    c-0.152-0.152-0.229-0.332-0.229-0.543s0.076-0.393,0.227-0.543C46.027,44.543,46.21,44.469,46.425,44.469z M48.191,44.459h0.386    l-2.294,3.527h-0.386L48.191,44.459z M46.419,44.842c-0.111,0-0.207,0.039-0.285,0.117c-0.079,0.078-0.118,0.172-0.118,0.281    c0,0.107,0.04,0.2,0.119,0.277c0.08,0.076,0.174,0.115,0.284,0.115c0.111,0,0.206-0.039,0.285-0.115    c0.079-0.077,0.119-0.17,0.119-0.277c0-0.111-0.039-0.205-0.117-0.282S46.532,44.842,46.419,44.842z M48.072,46.45    c0.213,0,0.396,0.075,0.548,0.226c0.153,0.15,0.229,0.33,0.229,0.54s-0.076,0.389-0.228,0.536c-0.152,0.146-0.335,0.22-0.55,0.22    c-0.216,0-0.4-0.073-0.552-0.22c-0.152-0.147-0.228-0.326-0.228-0.536c0-0.212,0.077-0.392,0.229-0.542    C47.674,46.525,47.857,46.45,48.072,46.45z M48.067,46.824c-0.109,0-0.203,0.039-0.28,0.115c-0.077,0.077-0.116,0.17-0.116,0.277    c0,0.109,0.039,0.203,0.116,0.281s0.171,0.117,0.28,0.117c0.113,0,0.208-0.039,0.286-0.115c0.078-0.077,0.117-0.172,0.117-0.283    c0-0.109-0.039-0.202-0.117-0.278S48.18,46.824,48.067,46.824z"/>
	</g>
	<g class="st4">
		<path class="st9" d="M31.155,21.358c0-0.934,0.143-1.76,0.429-2.48c0.286-0.72,0.671-1.328,1.156-1.824s1.049-0.87,1.695-1.123    c0.646-0.253,1.332-0.38,2.058-0.38c0.756,0,1.448,0.126,2.075,0.38s1.167,0.627,1.618,1.123s0.802,1.104,1.051,1.824    c0.25,0.72,0.374,1.546,0.374,2.48c0,0.933-0.143,1.758-0.429,2.475s-0.671,1.317-1.156,1.802s-1.049,0.852-1.695,1.102    c-0.646,0.25-1.332,0.375-2.058,0.375c-0.756,0-1.448-0.125-2.075-0.375s-1.167-0.617-1.618-1.102s-0.802-1.085-1.051-1.802    S31.155,22.291,31.155,21.358z M33.191,21.358c0,0.629,0.077,1.194,0.231,1.693c0.154,0.5,0.372,0.921,0.655,1.265    c0.282,0.344,0.618,0.606,1.007,0.787c0.389,0.181,0.822,0.271,1.299,0.271c0.44,0,0.855-0.09,1.244-0.271    c0.389-0.181,0.729-0.443,1.019-0.787c0.29-0.344,0.517-0.765,0.682-1.265c0.166-0.499,0.248-1.063,0.248-1.693    c0-0.637-0.077-1.207-0.231-1.709c-0.154-0.503-0.373-0.93-0.655-1.281c-0.283-0.351-0.62-0.619-1.013-0.803    s-0.824-0.277-1.293-0.277c-0.448,0-0.866,0.092-1.255,0.277c-0.389,0.185-0.727,0.452-1.013,0.803s-0.512,0.778-0.677,1.281    C33.274,20.151,33.191,20.721,33.191,21.358z"/>
	</g>
	<g class="st4">
		<path class="st14" d="M48.986,12.841c0,0.418-0.063,0.793-0.189,1.123c-0.126,0.33-0.294,0.61-0.502,0.839    c-0.209,0.229-0.446,0.404-0.713,0.525c-0.267,0.121-0.541,0.182-0.824,0.182c-0.285,0-0.559-0.057-0.821-0.171    c-0.262-0.114-0.493-0.282-0.693-0.502c-0.2-0.221-0.361-0.492-0.481-0.814c-0.121-0.322-0.181-0.692-0.181-1.111    c0-0.279,0.029-0.539,0.087-0.778c0.058-0.24,0.138-0.458,0.24-0.656c0.103-0.198,0.225-0.374,0.366-0.527    c0.142-0.153,0.295-0.283,0.462-0.387c0.166-0.104,0.342-0.184,0.527-0.239s0.374-0.082,0.564-0.082    c0.281,0,0.551,0.057,0.812,0.171c0.26,0.114,0.49,0.281,0.689,0.502c0.199,0.221,0.359,0.493,0.478,0.814    C48.926,12.052,48.986,12.423,48.986,12.841z M48.296,12.928c0-0.321-0.036-0.61-0.108-0.867    c-0.072-0.257-0.174-0.475-0.306-0.654c-0.132-0.179-0.291-0.316-0.476-0.412c-0.185-0.095-0.39-0.143-0.614-0.143    c-0.224,0-0.429,0.046-0.615,0.138c-0.187,0.092-0.347,0.223-0.481,0.394c-0.134,0.171-0.239,0.378-0.313,0.621    s-0.111,0.516-0.111,0.818c0,0.319,0.036,0.606,0.108,0.861c0.072,0.256,0.174,0.474,0.308,0.654s0.293,0.318,0.479,0.415    s0.395,0.145,0.626,0.145c0.217,0,0.417-0.044,0.602-0.134c0.184-0.089,0.343-0.218,0.476-0.387    c0.133-0.168,0.237-0.375,0.313-0.619C48.258,13.514,48.296,13.238,48.296,12.928z"/>
	</g>
	<g class="st4">
		<path class="st14" d="M26.842,11.464c0.244,0.078,0.418,0.202,0.522,0.37c0.073,0.211,0.119,0.364,0.137,0.46    c0.037,0.211,0.055,0.391,0.055,0.542c0,0.145-0.012,0.289-0.037,0.434c0.067,0.066,0.149,0.124,0.248,0.171    c0.085,0.048,0.165,0.072,0.238,0.072c0.092,0,0.159-0.048,0.202-0.145l0.137,0.289c-0.092,0.114-0.198,0.171-0.32,0.171    c-0.092,0-0.192-0.03-0.302-0.09c-0.104-0.03-0.189-0.096-0.256-0.199c-0.128,0.632-0.391,1.083-0.788,1.354    c-0.317,0.21-0.705,0.316-1.163,0.316c-0.538,0-0.965-0.213-1.282-0.641c-0.311-0.385-0.467-0.833-0.467-1.345    c0-0.626,0.171-1.167,0.513-1.625c0.335-0.439,0.791-0.659,1.364-0.659C26.204,10.941,26.604,11.115,26.842,11.464z     M25.954,14.868c0.274,0,0.531-0.12,0.769-0.361c0.25-0.265,0.418-0.623,0.503-1.074c-0.287-0.187-0.507-0.358-0.659-0.515    c-0.22-0.205-0.351-0.409-0.394-0.614c-0.019-0.042-0.027-0.114-0.027-0.216c0-0.114,0.03-0.241,0.091-0.379    c0.067-0.114,0.177-0.189,0.33-0.226c-0.146-0.157-0.363-0.235-0.65-0.235c-0.342,0-0.629,0.202-0.861,0.605    c-0.22,0.433-0.33,0.87-0.33,1.309s0.101,0.815,0.302,1.128C25.243,14.675,25.551,14.868,25.954,14.868z M27.291,13.116    c0.018-0.126,0.027-0.255,0.027-0.388c0-0.234-0.043-0.457-0.128-0.668c-0.104-0.223-0.208-0.334-0.311-0.334    c-0.031,0-0.064,0.012-0.101,0.036c-0.085,0.048-0.128,0.157-0.128,0.325c0,0.18,0.067,0.367,0.201,0.56    C26.973,12.864,27.12,13.02,27.291,13.116z"/>
	</g>
	<g class="st4">
		<path class="st9" d="M26.109,32.607c0-0.375,0.057-0.708,0.172-0.998c0.115-0.289,0.271-0.533,0.465-0.732    c0.195-0.2,0.422-0.351,0.682-0.453c0.26-0.102,0.536-0.152,0.828-0.152c0.304,0,0.583,0.051,0.835,0.152    c0.252,0.103,0.469,0.253,0.651,0.453c0.182,0.199,0.322,0.443,0.423,0.732c0.101,0.29,0.15,0.623,0.15,0.998    s-0.058,0.707-0.172,0.996c-0.115,0.287-0.271,0.529-0.465,0.725s-0.422,0.342-0.682,0.443c-0.26,0.1-0.536,0.15-0.828,0.15    c-0.304,0-0.583-0.051-0.835-0.15c-0.252-0.102-0.469-0.248-0.651-0.443s-0.323-0.438-0.423-0.725    C26.159,33.314,26.109,32.982,26.109,32.607z M26.928,32.607c0,0.254,0.031,0.48,0.093,0.682c0.062,0.2,0.15,0.37,0.263,0.508    c0.114,0.139,0.249,0.244,0.405,0.316c0.157,0.073,0.331,0.109,0.522,0.109c0.177,0,0.344-0.036,0.5-0.109    c0.157-0.072,0.293-0.178,0.41-0.316c0.117-0.138,0.208-0.308,0.275-0.508c0.066-0.201,0.1-0.428,0.1-0.682    c0-0.256-0.031-0.485-0.093-0.688c-0.062-0.203-0.15-0.374-0.263-0.516c-0.114-0.141-0.25-0.248-0.408-0.322    c-0.158-0.074-0.332-0.111-0.521-0.111c-0.18,0-0.348,0.037-0.504,0.111c-0.157,0.074-0.292,0.182-0.408,0.322    c-0.115,0.142-0.206,0.313-0.272,0.516C26.961,32.122,26.928,32.352,26.928,32.607z"/>
	</g>
	<g class="st4">
		<path class="st10" d="M31.669,31.585h0.658v-1.054h0.608v1.054h1.069v0.471h-1.069v1.491c0,0.167,0.008,0.303,0.024,0.409    c0.017,0.106,0.042,0.188,0.076,0.248c0.034,0.06,0.078,0.101,0.13,0.122c0.052,0.021,0.116,0.032,0.19,0.032    c0.094,0,0.201-0.021,0.319-0.062c0.118-0.041,0.25-0.102,0.395-0.182v0.52c-0.151,0.097-0.296,0.164-0.434,0.202    s-0.266,0.057-0.382,0.057c-0.129,0-0.25-0.015-0.362-0.044s-0.21-0.08-0.294-0.154c-0.084-0.073-0.15-0.171-0.199-0.293    s-0.072-0.277-0.072-0.466v-1.881h-0.658V31.585z"/>
	</g>
	<g class="st4">
		<path class="st10" d="M37.598,33.094c0,0.408,0.023,0.752,0.069,1.029c0.046,0.277,0.105,0.508,0.178,0.689H37.27    c-0.011-0.028-0.026-0.066-0.046-0.117c-0.02-0.049-0.04-0.105-0.061-0.17c-0.021-0.063-0.041-0.133-0.06-0.206    s-0.034-0.147-0.047-0.22c-0.086,0.107-0.176,0.209-0.271,0.305c-0.096,0.095-0.196,0.18-0.301,0.252    c-0.105,0.074-0.215,0.132-0.329,0.174c-0.114,0.043-0.23,0.063-0.349,0.063c-0.138,0-0.275-0.029-0.413-0.087    c-0.137-0.059-0.26-0.146-0.37-0.264s-0.199-0.263-0.267-0.439c-0.068-0.176-0.102-0.383-0.102-0.621    c0-0.248,0.028-0.474,0.084-0.676c0.056-0.203,0.132-0.383,0.229-0.541c0.086-0.138,0.177-0.259,0.273-0.363    c0.096-0.104,0.202-0.189,0.317-0.258c0.115-0.067,0.242-0.119,0.38-0.153s0.292-0.052,0.46-0.052    c0.083,0,0.176,0.006,0.278,0.018c0.102,0.012,0.207,0.029,0.313,0.051c0.106,0.021,0.212,0.047,0.318,0.077    c0.105,0.03,0.203,0.063,0.292,0.098V33.094z M36.266,31.99c-0.07,0-0.141,0.008-0.212,0.024s-0.142,0.044-0.21,0.083    c-0.069,0.039-0.136,0.09-0.201,0.154c-0.065,0.063-0.125,0.145-0.183,0.241c-0.059,0.1-0.107,0.224-0.143,0.372    c-0.036,0.147-0.054,0.299-0.054,0.455c0,0.18,0.017,0.334,0.051,0.463c0.034,0.128,0.079,0.234,0.135,0.317    c0.056,0.083,0.12,0.144,0.191,0.183s0.143,0.059,0.215,0.059c0.092,0,0.193-0.027,0.301-0.084s0.214-0.131,0.317-0.224    s0.2-0.2,0.291-0.321c0.091-0.121,0.167-0.246,0.226-0.377V32.12c-0.033-0.015-0.075-0.03-0.127-0.046    c-0.051-0.015-0.108-0.028-0.171-0.041c-0.063-0.014-0.13-0.023-0.204-0.031C36.415,31.994,36.34,31.99,36.266,31.99z"/>
	</g>
	<g class="st4">
		<path class="st10" d="M39.179,34.813v-1.994c0-0.32-0.018-0.592-0.054-0.813c-0.036-0.223-0.073-0.389-0.11-0.502h0.592    c0.026,0.061,0.05,0.137,0.071,0.229s0.038,0.194,0.053,0.307c0.014,0.113,0.024,0.232,0.031,0.36    c0.006,0.128,0.01,0.256,0.01,0.386v0.211c0.112-0.305,0.222-0.557,0.329-0.758c0.107-0.199,0.214-0.359,0.321-0.479    c0.106-0.118,0.213-0.201,0.32-0.249s0.217-0.071,0.329-0.071c0.083,0,0.16,0.008,0.23,0.022c0.07,0.015,0.141,0.04,0.214,0.075    l-0.099,0.6c-0.064-0.026-0.12-0.043-0.168-0.053c-0.048-0.008-0.107-0.012-0.178-0.012c-0.09,0-0.184,0.037-0.283,0.111    s-0.196,0.174-0.291,0.297c-0.096,0.123-0.186,0.263-0.271,0.418c-0.085,0.156-0.161,0.315-0.226,0.479    c-0.064,0.164-0.116,0.322-0.154,0.479c-0.039,0.156-0.058,0.295-0.058,0.416c0,0.053,0,0.104,0.001,0.148s0.004,0.09,0.01,0.131    c0.005,0.043,0.013,0.085,0.021,0.127c0.009,0.043,0.02,0.088,0.033,0.135H39.179z"/>
		<path class="st10" d="M42.107,30.449c0-0.061,0.01-0.117,0.03-0.17c0.02-0.053,0.048-0.1,0.084-0.139    c0.036-0.041,0.079-0.072,0.13-0.095c0.05-0.022,0.106-0.034,0.167-0.034c0.062,0,0.119,0.012,0.171,0.034    s0.098,0.054,0.135,0.095c0.037,0.039,0.067,0.086,0.089,0.139s0.033,0.109,0.033,0.17s-0.011,0.118-0.033,0.171    c-0.022,0.054-0.052,0.1-0.089,0.14s-0.082,0.071-0.135,0.094c-0.053,0.023-0.11,0.034-0.171,0.034    c-0.061,0-0.117-0.011-0.167-0.034c-0.051-0.022-0.094-0.054-0.13-0.094s-0.064-0.086-0.084-0.14    C42.117,30.567,42.107,30.51,42.107,30.449z M42.831,33.271c0,0.104,0.002,0.227,0.005,0.369c0.003,0.141,0.007,0.284,0.013,0.43    c0.005,0.145,0.012,0.283,0.02,0.414c0.008,0.133,0.017,0.242,0.028,0.328h-0.674v-1.719c0-0.158,0-0.314-0.001-0.467    c-0.001-0.154-0.003-0.299-0.007-0.438c-0.003-0.137-0.008-0.264-0.015-0.383c-0.007-0.117-0.016-0.219-0.026-0.303h0.658V33.271z    "/>
	</g>
	<g class="st13">
		<path class="st5" d="M45.328,31.439c0.18,0,0.339,0.021,0.477,0.063c0.138,0.043,0.258,0.102,0.358,0.176    c0.101,0.074,0.186,0.162,0.253,0.261c0.068,0.1,0.122,0.206,0.163,0.321s0.07,0.234,0.087,0.358s0.026,0.247,0.026,0.368v0.127    c0,0.054-0.001,0.096-0.003,0.126h-2.333c0.007,0.19,0.037,0.356,0.091,0.497c0.054,0.14,0.127,0.256,0.22,0.348    s0.203,0.16,0.329,0.206c0.126,0.046,0.264,0.068,0.413,0.068c0.213,0,0.421-0.024,0.625-0.071    c0.204-0.048,0.407-0.132,0.609-0.253l0.066,0.535c-0.117,0.058-0.23,0.108-0.342,0.149s-0.224,0.074-0.335,0.1    c-0.112,0.026-0.226,0.045-0.341,0.058c-0.115,0.012-0.236,0.018-0.363,0.018c-0.21,0-0.411-0.036-0.602-0.108    s-0.358-0.18-0.503-0.321c-0.145-0.142-0.26-0.317-0.345-0.527s-0.128-0.452-0.128-0.729c0-0.268,0.037-0.511,0.11-0.729    c0.073-0.217,0.178-0.402,0.314-0.558c0.136-0.155,0.302-0.273,0.497-0.356C44.865,31.48,45.084,31.439,45.328,31.439z     M45.279,31.926c-0.241,0-0.439,0.07-0.592,0.209c-0.153,0.14-0.254,0.356-0.303,0.65h1.717c0-0.139-0.02-0.262-0.061-0.368    c-0.041-0.106-0.098-0.197-0.171-0.271c-0.073-0.074-0.161-0.129-0.261-0.166C45.507,31.943,45.397,31.926,45.279,31.926z"/>
	</g>
	<g>
		<path class="st15" d="M8.3,6.5c0,0,0.8,1.2,2.9,2.5c1.7,1,2.5,3.1,1.7,4.9c0,0.1-0.1,0.1-0.1,0.2c0,0-0.7,2.7,2.8,3.6    c0.8,0.2,1.4,0.4,1.9,0.6c2,0.7,3.4,2.3,3.8,4.3c0,0.2,0.1,0.4,0.1,0.7h2.1c0.2,0,0.4,0,0.6,0.1c0.3,0.2,0.8,0.4,1,0.7    c0,0,1.2,0.3,1.1,1.3c0,0,1.6,0.4,1.3,2c0,0-1.5-0.1-2.8-1.2l-4.1-0.4c0,0-1.7,0.4-2.8,0.4c0,0,0.3,0.7,0.2,1.2    c0,0,2.1,1.2,1.2,1.8c0,0-3.6-1.7-5-1.9C12.7,27,12,27,10.7,25.6l-1.8-1.1c0,0-1.5,1.8-2.8,2.1c-1.3,0.2-5.3-0.9-5.3-0.9    s-0.6-0.5,1.5-0.9c0,0,0.8-1.2,2.7-0.7c0,0,0.7-2.1,1.3-2.2c0,0-1.8-2.6-0.3-6.8c0.1-0.2,0.1-0.4,0.2-0.5c0.3-0.5,0.8-1.6,0.3-3    c-0.3-0.8-0.3-1.7-0.2-2.5C6.6,8.1,7.1,6.9,8.3,6.5z"/>
		<polygon class="st5" points="21.4,23.2 23.8,23.2 24.9,23.9 25.8,24.4 26.1,25.2 26.8,25.6 27.3,26.5 27.3,27.3 26.3,27.1     24.9,26.3 24.5,26 20.5,25.6   "/>
		<line class="st16" x1="21.4" y1="23.2" x2="20.5" y2="25.6"/>
		<path class="st17" d="M8.3,6.5c0,0,0.8,1.2,2.9,2.5c1.7,1,2.5,3.1,1.7,4.9c0,0.1-0.1,0.1-0.1,0.2c0,0-0.7,2.7,2.8,3.6    c0.8,0.2,1.4,0.4,1.9,0.6c2,0.7,3.4,2.3,3.8,4.3c0,0.2,0.1,0.4,0.1,0.7h2.1c0.2,0,0.4,0,0.6,0.1c0.3,0.2,0.8,0.4,1,0.7    c0,0,1.2,0.3,1.1,1.3c0,0,1.6,0.4,1.3,2c0,0-1.5-0.1-2.8-1.2l-4.1-0.4c0,0-1.7,0.4-2.8,0.4c0,0,0.3,0.7,0.2,1.2    c0,0,2.1,1.2,1.2,1.8c0,0-3.6-1.7-5-1.9C12.7,27,12,27,10.7,25.6l-1.8-1.1c0,0-1.5,1.8-2.8,2.1c-1.3,0.2-5.3-0.9-5.3-0.9    s-0.6-0.5,1.5-0.9c0,0,0.8-1.2,2.7-0.7c0,0,0.7-2.1,1.3-2.2c0,0-1.8-2.6-0.3-6.8c0.1-0.2,0.1-0.4,0.2-0.5c0.3-0.5,0.8-1.6,0.3-3    c-0.3-0.8-0.3-1.7-0.2-2.5C6.6,8.1,7.1,6.9,8.3,6.5z"/>
		<path class="st18" d="M10.7,3.5c0,1.4-1.2,2.6-2.7,2.6C6.6,6.1,5.4,5,5.4,3.5s1.2-2.6,2.7-2.6C9.6,0.9,10.7,2.1,10.7,3.5z"/>
		<g>
			<g>
				<path class="st9" d="M9.7,9.9c0.4,0,0.4-0.6,0-0.6C9.2,9.3,9.2,9.9,9.7,9.9L9.7,9.9z"/>
			</g>
		</g>
		<path class="st16" d="M14.5,21c0,0-0.5,3.1,0,3.8c0.5,0.6,3.3,1.3,3.3,1.3"/>
		<path class="st16" d="M10.6,22.8c0,0,0.4,1.9,0.2,2.8"/>
		<path class="st16" d="M6.4,21.7c0,0,1.2,2,2.6,2.7"/>
		<path class="st16" d="M5.1,24c0.1,0.1,0,0.7-0.5,0.9"/>
		<path class="st16" d="M2.3,24.8c0,0,0.9-0.1,1.3,0.5"/>
		<path class="st16" d="M2.9,24.3c0,0,1.1,0,1.2,0.4"/>
		<path class="st16" d="M16.8,27.1c0.2,0,0.7,0,1,0.2"/>
		<path class="st16" d="M16.1,26.3c0.3-0.1,1.2,0.1,1.6,0.3"/>
		<path class="st16" d="M26.1,25.4c0,0-0.3-0.2-1.1-0.1"/>
		<path class="st16" d="M25.5,24.2c-0.8-0.2-1.8,0-1.8,0"/>
		<line class="st16" x1="8.1" y1="10.1" x2="8.1" y2="12.1"/>
		<line class="st16" x1="8.3" y1="10.3" x2="9" y2="11.9"/>
		<line class="st16" x1="8.5" y1="10.1" x2="10" y2="11.6"/>
		<path class="st16" d="M6.5,8.5c0,0,0,1,0.7,1.1"/>
		<path class="st19" d="M7.4,1.5c-0.2,0.2-0.8,1-0.7,2.1c0,1,0.5,1.6,0.7,1.8"/>
		<path class="st19" d="M8.7,1.5c0.2,0.2,0.8,1,0.7,2.1c0,1-0.5,1.6-0.7,1.8"/>
		<line class="st19" x1="8.1" y1="1.5" x2="8.1" y2="5.5"/>
	</g>
</g>
</svg>