<?xml version="1.0" encoding="UTF-8"?>
<!-- Generator: Adobe Illustrator 24.0.2, SVG Export Plug-In . SVG Version: 6.00 Build 0)  -->
<svg version="1.1" id="Calque_1" xmlns="http://www.w3.org/2000/svg" xmlns:xlink="http://www.w3.org/1999/xlink" x="0px" y="0px" viewBox="0 0 175 62" style="enable-background:new 0 0 175 62;" xml:space="preserve">
<style type="text/css">
	.st0{fill:#FFFFFF;stroke:#DADADA;stroke-width:0.7286;stroke-miterlimit:10;}
	.st1{fill:#FFFFFF;stroke:#9D9D9C;stroke-width:0.7286;stroke-miterlimit:10;}
	.st2{fill:#FFFFFF;stroke:#000000;stroke-width:0.9715;stroke-miterlimit:10;}
	.st3{fill:#FFFFFF;stroke:#000000;stroke-width:0.9715;stroke-miterlimit:10;stroke-dasharray:9.7149,4.8574,9.7149,4.8574;}
	.st4{fill:none;stroke:#000000;stroke-width:0.9715;stroke-miterlimit:10;}
	.st5{enable-background:new    ;}
	.st6{fill:#706F6F;}
	.st7{fill:#7DB728;}
	.st8{fill:#7FC7EB;}
	.st9{fill:none;stroke:#B2B2B2;stroke-width:0.3643;stroke-miterlimit:10;}
	.st10{fill:#878787;}
	.st11{fill:#9D9D9C;}
	.st12{fill:#B2B2B2;}
	.st13{fill:#575756;}
	.st14{opacity:0.6;enable-background:new    ;}
	.st15{fill:#E11683;}
	.st16{fill:#FFFFFF;}
	.st17{fill:#DA1A7D;}
	.st18{fill:none;stroke:#575756;stroke-width:0.5244;stroke-linecap:round;stroke-linejoin:round;stroke-miterlimit:10;}
	.st19{fill:none;stroke:#575756;stroke-width:0.1748;stroke-linecap:round;stroke-linejoin:round;stroke-miterlimit:10;}
	.st20{fill:#FFFFFF;stroke:#575756;stroke-width:0.1748;stroke-miterlimit:10;}
</style>
<g id="_x3C_Groupe_x3E__oie">
	<rect x="62.2" y="36" class="st0" width="37.9" height="12.2"/>
	<rect x="62.2" y="48.2" class="st0" width="37.9" height="12.2"/>
	<rect x="100.1" y="36" class="st0" width="37.9" height="12.2"/>
	<rect x="100.1" y="48.2" class="st0" width="37.9" height="12.2"/>
	<rect x="65.2" y="1.2" class="st1" width="31.5" height="31.6"/>
	<rect x="100.1" y="10.2" class="st1" width="35.4" height="25.8"/>
	<rect x="135.3" y="10.2" class="st1" width="38.9" height="25.8"/>
	<path class="st2" d="M62,47.6H48.9c0,0-4.2,7.7-11.2,9.1c0,0,4.2-2.8,5.6-9.1h-27"/>
	<polyline class="st3" points="16.3,47.6 16.3,1.7 62,1.7 62,47.6  "/>
	<line class="st4" x1="15.8" y1="47.8" x2="43.5" y2="47.8"/>
	<line class="st4" x1="48.5" y1="47.8" x2="62.5" y2="47.8"/>
	<g class="st5">
		<path class="st6" d="M91.095,6.254c0,0.302-0.045,0.572-0.134,0.81c-0.09,0.238-0.208,0.44-0.355,0.605    c-0.148,0.166-0.316,0.292-0.505,0.379c-0.188,0.087-0.384,0.131-0.583,0.131c-0.203,0-0.396-0.041-0.582-0.124    c-0.186-0.082-0.349-0.203-0.49-0.362c-0.143-0.159-0.256-0.355-0.341-0.587s-0.128-0.5-0.128-0.801    c0-0.201,0.021-0.388,0.062-0.561s0.098-0.331,0.171-0.473c0.072-0.143,0.158-0.269,0.259-0.38    c0.101-0.11,0.209-0.204,0.327-0.279c0.117-0.075,0.242-0.133,0.373-0.172c0.131-0.039,0.264-0.059,0.398-0.059    c0.199,0,0.391,0.041,0.575,0.124c0.185,0.082,0.347,0.203,0.488,0.362c0.142,0.159,0.254,0.355,0.339,0.587    C91.053,5.685,91.095,5.952,91.095,6.254z M90.606,6.317c0-0.231-0.025-0.44-0.077-0.625c-0.051-0.185-0.123-0.342-0.216-0.472    c-0.094-0.129-0.206-0.228-0.337-0.297S89.701,4.82,89.542,4.82s-0.304,0.033-0.437,0.099c-0.131,0.066-0.244,0.161-0.34,0.285    c-0.096,0.123-0.169,0.272-0.222,0.448s-0.079,0.372-0.079,0.59c0,0.23,0.025,0.437,0.076,0.622s0.124,0.342,0.219,0.472    c0.094,0.13,0.207,0.23,0.339,0.299c0.132,0.07,0.28,0.104,0.443,0.104c0.153,0,0.296-0.032,0.426-0.097s0.242-0.158,0.337-0.279    c0.094-0.122,0.168-0.271,0.222-0.447S90.606,6.54,90.606,6.317z"/>
	</g>
	<g class="st5">
		<path class="st7" d="M92.086,4.442l0.988,1.663l0.939-1.663h0.576c-0.073,0.105-0.139,0.202-0.195,0.288s-0.109,0.168-0.156,0.245    C94.19,5.053,94.145,5.128,94.1,5.202c-0.043,0.074-0.089,0.152-0.136,0.234l-0.677,1.163v0.423c0,0.248,0.002,0.467,0.006,0.658    c0.003,0.19,0.014,0.336,0.032,0.437h-0.551c0.019-0.101,0.028-0.246,0.032-0.437s0.006-0.41,0.006-0.658V6.579l-0.664-1.143    c-0.049-0.082-0.096-0.163-0.142-0.241c-0.046-0.079-0.095-0.159-0.144-0.239c-0.051-0.081-0.104-0.163-0.162-0.247    c-0.058-0.083-0.121-0.173-0.191-0.267H92.086z"/>
	</g>
	<g class="st5">
		<path class="st6" d="M69.28,4.646c0.167,0.055,0.286,0.141,0.357,0.258c0.05,0.147,0.082,0.254,0.094,0.321    c0.025,0.147,0.038,0.273,0.038,0.377c0,0.101-0.009,0.201-0.025,0.302c0.046,0.046,0.103,0.086,0.169,0.12    c0.059,0.034,0.113,0.05,0.163,0.05c0.063,0,0.108-0.033,0.138-0.101l0.094,0.201c-0.063,0.08-0.136,0.12-0.219,0.12    c-0.063,0-0.131-0.021-0.207-0.063c-0.071-0.021-0.129-0.067-0.175-0.138c-0.087,0.44-0.267,0.755-0.538,0.943    c-0.217,0.147-0.482,0.22-0.795,0.22c-0.367,0-0.66-0.149-0.876-0.447c-0.213-0.268-0.319-0.581-0.319-0.937    c0-0.436,0.117-0.813,0.351-1.132c0.229-0.306,0.541-0.459,0.933-0.459C68.844,4.281,69.117,4.403,69.28,4.646z M68.673,7.017    c0.188,0,0.363-0.083,0.526-0.251c0.171-0.185,0.286-0.434,0.344-0.749c-0.196-0.13-0.347-0.25-0.451-0.358    c-0.15-0.143-0.24-0.285-0.27-0.428c-0.012-0.029-0.019-0.08-0.019-0.151c0-0.08,0.021-0.167,0.063-0.264    c0.046-0.08,0.121-0.132,0.226-0.157c-0.1-0.109-0.249-0.164-0.445-0.164c-0.234,0-0.43,0.141-0.588,0.421    c-0.15,0.302-0.226,0.606-0.226,0.912s0.069,0.568,0.207,0.786C68.187,6.883,68.397,7.017,68.673,7.017z M69.587,5.797    c0.012-0.088,0.019-0.178,0.019-0.27c0-0.164-0.029-0.319-0.087-0.466c-0.071-0.155-0.142-0.232-0.213-0.232    c-0.021,0-0.044,0.008-0.069,0.025c-0.059,0.034-0.088,0.109-0.088,0.227c0,0.126,0.046,0.256,0.138,0.39    C69.37,5.621,69.47,5.73,69.587,5.797z"/>
	</g>
	<g class="st5">
		<path class="st7" d="M72.053,7.263c-0.4,0-0.662-0.061-0.782-0.183c-0.125-0.117-0.188-0.358-0.188-0.723V4.816    c0-0.151-0.036-0.227-0.106-0.227c-0.088,0-0.209,0.212-0.363,0.635c-0.012,0.042-0.026,0.084-0.041,0.126    s-0.028,0.082-0.041,0.12c-0.017,0.042-0.033,0.083-0.047,0.125s-0.028,0.082-0.041,0.12c-0.042,0.109-0.071,0.191-0.088,0.245    c-0.017,0.042-0.032,0.083-0.047,0.123c-0.015,0.04-0.028,0.079-0.041,0.116l-0.094-0.189c0.112-0.39,0.204-0.681,0.275-0.874    c0.1-0.269,0.2-0.468,0.3-0.598C70.868,4.38,71.006,4.3,71.165,4.3c0.233,0,0.379,0.063,0.438,0.188    c0.042,0.084,0.063,0.281,0.063,0.591v1.277c0,0.201,0.023,0.348,0.069,0.44c0.075,0.13,0.209,0.195,0.401,0.195    c0.159,0,0.294-0.057,0.407-0.17c0.083-0.08,0.177-0.216,0.282-0.409V4.351h0.62v2.717c0.167-0.231,0.265-0.371,0.294-0.422    c0.175-0.251,0.294-0.48,0.357-0.686l0.1,0.189c-0.071,0.209-0.196,0.446-0.376,0.71c-0.042,0.067-0.073,0.116-0.094,0.145    c-0.046,0.059-0.077,0.107-0.094,0.145c-0.08,0.097-0.142,0.188-0.188,0.277v3.164c0,0.751-0.1,1.353-0.3,1.805    c-0.23,0.524-0.584,0.787-1.064,0.787c-0.221,0-0.382-0.124-0.482-0.371c-0.104-0.256-0.156-0.587-0.156-0.994    c0-0.339,0.042-0.702,0.125-1.088c0.063-0.285,0.161-0.625,0.294-1.019c0.104-0.344,0.248-0.698,0.432-1.063    c0-0.004,0.015-0.029,0.043-0.076c0.008-0.034,0.042-0.101,0.101-0.201c0.021-0.046,0.044-0.095,0.072-0.148    c0.027-0.052,0.057-0.108,0.091-0.167c0.033-0.063,0.069-0.131,0.106-0.205s0.077-0.147,0.119-0.223V6.703    c-0.196,0.369-0.453,0.554-0.771,0.554V7.263z M72.824,8.143c-0.268,0.533-0.417,0.849-0.451,0.95    c-0.15,0.311-0.265,0.602-0.344,0.875c-0.008,0.038-0.025,0.094-0.05,0.17c-0.025,0.067-0.042,0.128-0.05,0.182    c-0.013,0.025-0.022,0.054-0.028,0.085c-0.006,0.032-0.014,0.062-0.022,0.091s-0.017,0.061-0.025,0.094    c-0.008,0.034-0.015,0.067-0.019,0.101c-0.08,0.39-0.121,0.638-0.125,0.743c-0.004,0.092-0.007,0.169-0.009,0.232    s-0.003,0.111-0.003,0.145c0,0.285,0.04,0.524,0.119,0.717c0.079,0.185,0.198,0.277,0.357,0.277c0.271,0,0.457-0.271,0.557-0.812    c0.063-0.348,0.094-0.789,0.094-1.321V8.143z"/>
	</g>
	<g class="st5">
		<path class="st6" d="M125.625,14.438c0,0.277-0.041,0.524-0.123,0.743s-0.19,0.403-0.326,0.555    c-0.135,0.151-0.289,0.267-0.462,0.347c-0.173,0.08-0.352,0.12-0.535,0.12c-0.185,0-0.362-0.038-0.532-0.113    c-0.17-0.076-0.32-0.186-0.45-0.333c-0.13-0.146-0.234-0.325-0.313-0.538c-0.077-0.213-0.116-0.458-0.116-0.735    c0-0.185,0.018-0.356,0.056-0.514s0.089-0.303,0.156-0.434c0.066-0.131,0.146-0.247,0.237-0.348s0.191-0.187,0.3-0.256    c0.108-0.069,0.222-0.122,0.342-0.158s0.242-0.054,0.366-0.054c0.182,0,0.357,0.038,0.527,0.113    c0.168,0.076,0.318,0.186,0.447,0.332c0.129,0.146,0.232,0.326,0.311,0.539C125.586,13.917,125.625,14.162,125.625,14.438z     M125.178,14.496c0-0.212-0.023-0.403-0.07-0.573s-0.113-0.314-0.199-0.433c-0.085-0.118-0.188-0.209-0.309-0.272    c-0.119-0.063-0.252-0.095-0.398-0.095c-0.145,0-0.277,0.031-0.398,0.091s-0.226,0.147-0.313,0.261    c-0.088,0.113-0.155,0.25-0.203,0.411c-0.049,0.161-0.072,0.341-0.072,0.541c0,0.211,0.023,0.4,0.07,0.57    c0.046,0.169,0.113,0.313,0.199,0.432s0.189,0.211,0.311,0.274c0.121,0.064,0.257,0.096,0.406,0.096    c0.141,0,0.271-0.03,0.391-0.089c0.119-0.06,0.223-0.145,0.309-0.256c0.087-0.111,0.154-0.248,0.203-0.409    S125.178,14.701,125.178,14.496z"/>
	</g>
	<g class="st5">
		<path class="st8" d="M128.814,12.778c-0.016,0.092-0.025,0.223-0.029,0.391c-0.004,0.168-0.006,0.372-0.006,0.612v1.176    c0,0.188-0.023,0.357-0.072,0.511c-0.05,0.153-0.125,0.284-0.225,0.393s-0.227,0.193-0.38,0.252s-0.333,0.089-0.54,0.089    c-0.209,0-0.391-0.03-0.545-0.089s-0.281-0.143-0.382-0.252s-0.177-0.24-0.226-0.393c-0.051-0.153-0.075-0.323-0.075-0.511v-1.176    c0-0.228-0.002-0.429-0.006-0.604c-0.004-0.174-0.013-0.308-0.028-0.4h0.471v2.076c0,0.151,0.013,0.286,0.039,0.407    c0.025,0.121,0.069,0.224,0.131,0.309c0.061,0.085,0.142,0.15,0.242,0.196c0.102,0.045,0.229,0.068,0.379,0.068    c0.148,0,0.273-0.022,0.373-0.068c0.099-0.045,0.179-0.111,0.239-0.196c0.061-0.085,0.104-0.188,0.13-0.309    c0.025-0.121,0.039-0.256,0.039-0.407v-2.076H128.814z"/>
	</g>
	<g class="st5">
		<path class="st7" d="M131.5,15.257h-1.412l-0.308,0.888h-0.471c0.021-0.046,0.04-0.095,0.062-0.146    c0.021-0.05,0.045-0.108,0.07-0.171c0.025-0.064,0.053-0.137,0.084-0.218s0.066-0.176,0.105-0.284l0.918-2.548h0.494l0.918,2.548    c0.039,0.108,0.072,0.202,0.104,0.284s0.059,0.154,0.085,0.218c0.026,0.063,0.05,0.121,0.071,0.171    c0.021,0.051,0.042,0.1,0.063,0.146h-0.471L131.5,15.257z M130.212,14.899h1.163l-0.584-1.672L130.212,14.899z"/>
	</g>
	<g class="st5">
		<path class="st6" d="M104.566,13.535c0.167,0.055,0.286,0.141,0.357,0.258c0.05,0.147,0.081,0.254,0.094,0.321    c0.025,0.147,0.037,0.273,0.037,0.377c0,0.101-0.008,0.201-0.025,0.302c0.047,0.046,0.104,0.086,0.17,0.12    c0.059,0.034,0.112,0.05,0.162,0.05c0.063,0,0.109-0.033,0.139-0.101l0.094,0.201c-0.063,0.08-0.137,0.12-0.22,0.12    c-0.063,0-0.132-0.021-0.206-0.063c-0.071-0.021-0.13-0.067-0.176-0.138c-0.088,0.44-0.268,0.755-0.538,0.943    c-0.218,0.147-0.482,0.22-0.796,0.22c-0.367,0-0.659-0.149-0.876-0.447c-0.213-0.268-0.319-0.581-0.319-0.937    c0-0.436,0.117-0.813,0.351-1.132c0.229-0.306,0.54-0.459,0.933-0.459C104.131,13.17,104.404,13.292,104.566,13.535z     M103.959,15.906c0.188,0,0.363-0.083,0.526-0.251c0.171-0.185,0.286-0.434,0.345-0.749c-0.197-0.13-0.348-0.25-0.451-0.358    c-0.15-0.143-0.24-0.285-0.27-0.428c-0.012-0.029-0.019-0.08-0.019-0.151c0-0.08,0.021-0.167,0.063-0.264    c0.046-0.08,0.121-0.132,0.226-0.157c-0.1-0.109-0.248-0.164-0.445-0.164c-0.233,0-0.43,0.141-0.588,0.421    c-0.15,0.302-0.226,0.606-0.226,0.912s0.069,0.568,0.207,0.786C103.473,15.772,103.684,15.906,103.959,15.906z M104.873,14.686    c0.013-0.088,0.02-0.178,0.02-0.27c0-0.164-0.029-0.319-0.088-0.466c-0.071-0.155-0.143-0.232-0.213-0.232    c-0.021,0-0.044,0.008-0.068,0.025c-0.059,0.034-0.088,0.109-0.088,0.227c0,0.126,0.045,0.256,0.137,0.39    C104.656,14.51,104.756,14.619,104.873,14.686z"/>
	</g>
	<g class="st5">
		<path class="st8" d="M107.559,15.661c-0.32,0.327-0.646,0.491-0.977,0.491c-0.388,0-0.659-0.061-0.813-0.183    c-0.213-0.151-0.319-0.413-0.319-0.786v-1.981h0.582v1.761c0,0.26,0.029,0.474,0.088,0.642c0.088,0.251,0.248,0.377,0.482,0.377    c0.142,0,0.296-0.048,0.463-0.145c0.15-0.088,0.305-0.218,0.463-0.39v-0.151v-2.095h0.596v1.95c0,0.26,0.01,0.453,0.031,0.579    c0.025,0.134,0.096,0.201,0.213,0.201c0.07,0,0.142-0.073,0.213-0.22c0.004-0.008,0.112-0.292,0.325-0.849l0.094,0.208    c-0.142,0.415-0.233,0.669-0.275,0.761c-0.116,0.209-0.271,0.316-0.464,0.321C107.848,16.151,107.613,15.988,107.559,15.661z"/>
	</g>
	<g class="st5">
		<path class="st7" d="M111.037,15.459c-0.159,0.218-0.326,0.386-0.501,0.503c-0.209,0.126-0.433,0.189-0.67,0.189    c-0.339,0-0.583-0.145-0.733-0.434c-0.133-0.243-0.197-0.545-0.193-0.906c0-0.465,0.11-0.851,0.332-1.157    c0.242-0.319,0.601-0.478,1.076-0.478c0.268,0,0.497,0.086,0.689,0.258v-0.227h0.588v2.233c0,0.009,0,0.015,0,0.019    s0,0.008,0,0.013c0,0.008,0,0.016,0,0.022s0,0.01,0,0.012c0,0.002,0,0.006,0,0.013s0,0.011,0,0.013s0,0.006,0,0.013    s0,0.01,0,0.013c0,0.002,0,0.006,0,0.012s0,0.011,0,0.013c0,0.002,0,0.005,0,0.009c0,0.004,0,0.007,0,0.01    c0,0.002,0,0.004,0,0.006c0,0.002,0,0.004,0,0.006c0,0.002,0,0.004,0,0.006c0,0.002,0,0.031,0,0.085    c0,0.055,0.016,0.105,0.044,0.151c0.042,0.059,0.134,0.088,0.276,0.088c0.137,0,0.281-0.172,0.432-0.516    c0.012-0.038,0.035-0.102,0.068-0.191c0.033-0.09,0.075-0.209,0.125-0.355l0.101,0.195c-0.104,0.311-0.175,0.507-0.213,0.591    c-0.15,0.323-0.376,0.484-0.677,0.484c-0.496,0-0.744-0.229-0.744-0.686V15.459z M110.455,13.34c-0.322,0-0.556,0.149-0.701,0.446    c-0.135,0.256-0.201,0.545-0.201,0.868c0,0.256,0.057,0.484,0.17,0.686c0.125,0.239,0.311,0.358,0.557,0.358    c0.15,0,0.297-0.05,0.438-0.151c0.109-0.083,0.216-0.205,0.32-0.365v-1.314C110.953,13.516,110.76,13.34,110.455,13.34z"/>
	</g>
	<g class="st5">
		<path class="st7" d="M168.006,15.257h-1.412l-0.308,0.888h-0.471c0.021-0.046,0.04-0.095,0.062-0.146    c0.021-0.05,0.045-0.108,0.07-0.171c0.025-0.064,0.053-0.137,0.084-0.218s0.066-0.176,0.105-0.284l0.918-2.548h0.494l0.918,2.548    c0.039,0.108,0.072,0.202,0.104,0.284s0.059,0.154,0.085,0.218c0.026,0.063,0.05,0.121,0.071,0.171    c0.021,0.051,0.042,0.1,0.063,0.146h-0.471L168.006,15.257z M166.718,14.899h1.163l-0.584-1.672L166.718,14.899z"/>
	</g>
	<g class="st5">
		<path class="st7" d="M141.302,15.465c-0.159,0.218-0.325,0.386-0.501,0.503c-0.209,0.126-0.432,0.189-0.67,0.189    c-0.338,0-0.582-0.145-0.732-0.434c-0.133-0.243-0.198-0.545-0.193-0.906c0-0.465,0.109-0.851,0.331-1.157    c0.242-0.319,0.601-0.478,1.077-0.478c0.268,0,0.496,0.086,0.688,0.258v-0.227h0.589v2.233c0,0.009,0,0.015,0,0.019    s0,0.008,0,0.013c0,0.008,0,0.016,0,0.022s0,0.01,0,0.012c0,0.002,0,0.006,0,0.013s0,0.011,0,0.013s0,0.006,0,0.013    s0,0.01,0,0.013c0,0.002,0,0.006,0,0.012s0,0.011,0,0.013c0,0.002,0,0.005,0,0.009c0,0.004,0,0.007,0,0.01    c0,0.002,0,0.004,0,0.006c0,0.002,0,0.004,0,0.006c0,0.002,0,0.004,0,0.006c0,0.002,0,0.031,0,0.085    c0,0.055,0.015,0.105,0.043,0.151c0.043,0.059,0.135,0.088,0.276,0.088c0.138,0,0.282-0.172,0.432-0.516    c0.013-0.038,0.036-0.102,0.069-0.191c0.033-0.09,0.074-0.209,0.125-0.355l0.1,0.195c-0.104,0.311-0.175,0.507-0.213,0.591    c-0.15,0.323-0.375,0.484-0.676,0.484c-0.496,0-0.745-0.229-0.745-0.686V15.465z M140.72,13.346c-0.321,0-0.556,0.149-0.701,0.446    c-0.134,0.256-0.2,0.545-0.2,0.868c0,0.256,0.057,0.484,0.169,0.686c0.125,0.239,0.311,0.358,0.558,0.358    c0.15,0,0.296-0.05,0.438-0.151c0.109-0.083,0.215-0.205,0.319-0.365v-1.314C141.219,13.521,141.024,13.346,140.72,13.346z"/>
	</g>
	<path class="st9" d="M31.9,44.2c0.3,0.1,7.8,2,16-0.2"/>
	<g class="st5">
		<path class="st10" d="M49.793,52.977v0.403H48.34v0.604c0,0.249,0.001,0.469,0.005,0.66c0.003,0.189,0.014,0.334,0.033,0.434    h-0.551c0.018-0.101,0.029-0.246,0.032-0.437s0.005-0.409,0.005-0.657V52.16c0-0.113-0.001-0.217-0.004-0.311    c-0.002-0.096-0.006-0.181-0.011-0.256c-0.005-0.076-0.013-0.139-0.022-0.189h2.179v0.416H48.34v1.156H49.793z"/>
		<path class="st10" d="M50.544,53.808c0-0.216,0.033-0.408,0.098-0.575c0.065-0.166,0.153-0.308,0.263-0.422    c0.11-0.115,0.239-0.202,0.386-0.261c0.147-0.06,0.303-0.089,0.468-0.089c0.172,0,0.329,0.029,0.472,0.089    c0.143,0.059,0.265,0.146,0.368,0.261c0.103,0.114,0.182,0.256,0.239,0.422c0.057,0.167,0.085,0.359,0.085,0.575    s-0.033,0.407-0.098,0.573c-0.065,0.166-0.153,0.306-0.263,0.418c-0.11,0.112-0.239,0.197-0.386,0.256    c-0.147,0.058-0.303,0.086-0.468,0.086c-0.172,0-0.329-0.028-0.472-0.086c-0.143-0.059-0.265-0.144-0.368-0.256    c-0.103-0.112-0.182-0.252-0.239-0.418C50.572,54.215,50.544,54.023,50.544,53.808z M51.007,53.808    c0,0.146,0.018,0.276,0.053,0.393s0.084,0.214,0.149,0.293s0.141,0.141,0.229,0.183c0.089,0.041,0.187,0.063,0.296,0.063    c0.1,0,0.194-0.021,0.283-0.063c0.088-0.042,0.166-0.104,0.232-0.183c0.066-0.079,0.118-0.177,0.155-0.293    c0.037-0.116,0.056-0.247,0.056-0.393c0-0.147-0.018-0.28-0.053-0.396s-0.084-0.216-0.149-0.297s-0.141-0.144-0.23-0.187    s-0.188-0.063-0.294-0.063c-0.102,0-0.197,0.021-0.286,0.063s-0.166,0.105-0.23,0.187s-0.117,0.181-0.154,0.297    C51.026,53.527,51.007,53.66,51.007,53.808z"/>
		<path class="st10" d="M53.549,55.078v-1.547c0-0.248-0.014-0.459-0.042-0.631c-0.027-0.172-0.055-0.301-0.083-0.389h0.451    c0.02,0.047,0.038,0.106,0.054,0.178s0.029,0.15,0.04,0.237s0.019,0.181,0.024,0.279S54,53.404,54,53.506v0.163    c0.085-0.236,0.169-0.433,0.25-0.587c0.082-0.155,0.163-0.279,0.244-0.371c0.081-0.093,0.163-0.157,0.244-0.193    c0.082-0.037,0.166-0.057,0.25-0.057c0.063,0,0.122,0.006,0.175,0.018c0.054,0.012,0.108,0.031,0.163,0.059l-0.075,0.465    c-0.049-0.02-0.091-0.033-0.128-0.039c-0.037-0.008-0.082-0.011-0.135-0.011c-0.068,0-0.14,0.028-0.215,0.087    c-0.075,0.058-0.149,0.135-0.222,0.23s-0.142,0.203-0.207,0.324s-0.123,0.244-0.171,0.371c-0.049,0.127-0.089,0.25-0.118,0.371    c-0.029,0.121-0.044,0.229-0.044,0.322c0,0.041,0,0.08,0.001,0.115c0.001,0.035,0.003,0.069,0.008,0.102    c0.004,0.033,0.009,0.066,0.016,0.099s0.015,0.067,0.025,0.104H53.549z"/>
		<path class="st10" d="M56.93,52.461c0.167,0,0.311,0.021,0.432,0.06c0.121,0.04,0.228,0.091,0.319,0.155l-0.087,0.453    c-0.114-0.084-0.227-0.147-0.338-0.189s-0.233-0.063-0.363-0.063c-0.112,0-0.216,0.021-0.312,0.064    c-0.096,0.042-0.18,0.104-0.25,0.185c-0.071,0.08-0.126,0.179-0.167,0.297c-0.04,0.117-0.06,0.249-0.06,0.397    c0,0.136,0.018,0.259,0.055,0.369c0.037,0.111,0.089,0.207,0.158,0.286c0.068,0.079,0.151,0.142,0.248,0.185    c0.097,0.044,0.206,0.066,0.328,0.066c0.152,0,0.29-0.027,0.414-0.078c0.124-0.053,0.24-0.127,0.351-0.225l0.05,0.44    c-0.063,0.049-0.126,0.091-0.189,0.124c-0.063,0.035-0.128,0.063-0.197,0.086c-0.068,0.023-0.142,0.039-0.22,0.051    c-0.079,0.011-0.165,0.016-0.258,0.016c-0.169,0-0.327-0.029-0.474-0.089c-0.146-0.06-0.275-0.146-0.385-0.258    c-0.11-0.112-0.197-0.249-0.261-0.407c-0.063-0.16-0.095-0.34-0.095-0.541c0-0.189,0.031-0.369,0.091-0.536    c0.061-0.168,0.148-0.314,0.261-0.44s0.25-0.225,0.411-0.299C56.552,52.498,56.731,52.461,56.93,52.461z"/>
		<path class="st10" d="M59.385,52.461c0.137,0,0.258,0.018,0.363,0.05c0.105,0.032,0.196,0.077,0.273,0.136    c0.077,0.058,0.141,0.125,0.193,0.203c0.052,0.076,0.093,0.16,0.124,0.248c0.031,0.09,0.053,0.182,0.066,0.278    c0.013,0.097,0.02,0.192,0.02,0.286v0.098c0,0.042-0.001,0.074-0.002,0.098h-1.776c0.005,0.148,0.028,0.276,0.069,0.385    c0.041,0.109,0.097,0.199,0.168,0.271c0.071,0.07,0.154,0.124,0.25,0.159c0.096,0.036,0.201,0.054,0.314,0.054    c0.162,0,0.321-0.02,0.476-0.057c0.155-0.036,0.31-0.102,0.463-0.195l0.05,0.415c-0.088,0.045-0.175,0.083-0.26,0.116    c-0.085,0.031-0.17,0.057-0.255,0.077c-0.085,0.021-0.172,0.035-0.259,0.044c-0.088,0.01-0.18,0.014-0.277,0.014    c-0.16,0-0.313-0.027-0.458-0.084c-0.146-0.057-0.273-0.139-0.383-0.249s-0.198-0.246-0.263-0.409    c-0.065-0.162-0.098-0.352-0.098-0.566c0-0.207,0.028-0.396,0.084-0.564c0.056-0.168,0.136-0.313,0.239-0.433    s0.229-0.212,0.378-0.276C59.033,52.494,59.2,52.461,59.385,52.461z M59.347,52.839c-0.184,0-0.334,0.054-0.451,0.162    s-0.194,0.276-0.23,0.505h1.307c0-0.107-0.015-0.203-0.046-0.285c-0.031-0.084-0.075-0.154-0.13-0.211    c-0.056-0.057-0.123-0.1-0.199-0.128S59.438,52.839,59.347,52.839z"/>
	</g>
	<g class="st5">
		<path class="st10" d="M18.381,51.299h1.439v0.164h-0.607c-0.133,0-0.223,0.042-0.271,0.127c-0.027,0.047-0.04,0.109-0.04,0.185    v4.62c0,0.102,0.014,0.178,0.043,0.228c0.05,0.087,0.147,0.131,0.291,0.131h0.584v0.175h-1.439V51.299z"/>
	</g>
	<g class="st5">
		<path class="st10" d="M23.402,53.529l-0.206-0.557c-0.062-0.17-0.162-0.256-0.299-0.26c-0.057-0.002-0.086-0.016-0.09-0.043    c0-0.05,0.084-0.075,0.253-0.075h0.683c0.191,0,0.287,0.022,0.287,0.069c-0.088,0.023-0.195,0.057-0.32,0.1    c-0.051,0.025-0.077,0.072-0.077,0.14c0,0.036,0.01,0.077,0.028,0.124l0.86,2.145c0.053-0.15,0.126-0.358,0.22-0.625l0.5-1.417    c0.022-0.061,0.034-0.12,0.034-0.178c0-0.144-0.089-0.228-0.266-0.251c-0.069-0.011-0.106-0.019-0.11-0.024    c0-0.06,0.107-0.089,0.321-0.089h0.541c0.173,0,0.263,0.012,0.267,0.033c0,0.036-0.05,0.073-0.149,0.111    c-0.069,0.024-0.137,0.049-0.205,0.074c-0.051,0.026-0.095,0.091-0.132,0.192c-0.001,0.003-0.104,0.282-0.31,0.842l-0.702,1.921    c-0.025,0.071-0.053,0.109-0.083,0.115c-0.047,0-0.081-0.033-0.102-0.102l-0.834-1.959c-0.058,0.146-0.138,0.348-0.241,0.604    l-0.31,0.771c-0.063,0.152-0.143,0.354-0.242,0.604c-0.025,0.064-0.052,0.1-0.082,0.104c-0.031,0-0.058-0.027-0.082-0.082    c-0.004-0.01-0.132-0.297-0.382-0.861l-0.875-1.963c-0.06-0.137-0.192-0.217-0.396-0.243c-0.088-0.011-0.132-0.03-0.132-0.059    c0.01-0.05,0.135-0.075,0.375-0.075h0.534c0.23,0,0.349,0.018,0.356,0.055c0,0.028-0.044,0.054-0.132,0.076    c-0.108,0.027-0.162,0.074-0.162,0.137c0,0.033,0.009,0.069,0.026,0.109c0.013,0.031,0.113,0.26,0.298,0.687l0.681,1.562    L23.402,53.529z"/>
	</g>
	<g class="st5">
		<path class="st10" d="M28.849,55.033c0,0.395,0.114,0.591,0.342,0.591c0.045,0,0.109-0.013,0.189-0.038s0.134-0.037,0.16-0.037    c0.012,0,0.019,0.004,0.02,0.014c0,0.027-0.004,0.049-0.014,0.062c-0.145,0.175-0.354,0.262-0.629,0.262    c-0.276,0-0.456-0.106-0.541-0.317c-0.006,0-0.098,0.041-0.273,0.121c-0.186,0.084-0.293,0.131-0.322,0.141    c-0.135,0.046-0.278,0.068-0.429,0.068c-0.081,0-0.17-0.012-0.267-0.035c-0.147-0.035-0.262-0.137-0.346-0.303    c-0.07-0.141-0.105-0.296-0.105-0.465c0-0.125,0.021-0.24,0.062-0.344c0.107-0.271,0.387-0.495,0.841-0.673    c0.05-0.019,0.226-0.082,0.526-0.189c0.187-0.067,0.28-0.107,0.28-0.12v-0.371c0-0.17-0.072-0.321-0.217-0.453    c-0.141-0.129-0.296-0.193-0.468-0.193c-0.083,0-0.16,0.021-0.232,0.063c-0.164,0.093-0.246,0.246-0.246,0.459    c0,0.027,0.003,0.068,0.01,0.121c0.006,0.055,0.01,0.094,0.01,0.121c0,0.009-0.004,0.018-0.013,0.027    c-0.049-0.004-0.127-0.029-0.235-0.078c-0.108-0.047-0.183-0.088-0.224-0.122c-0.009-0.009-0.014-0.022-0.014-0.04    c0-0.153,0.146-0.316,0.436-0.492c0.224-0.135,0.475-0.202,0.754-0.202c0.361,0,0.63,0.095,0.81,0.286    c0.089,0.097,0.133,0.214,0.133,0.353V55.033z M27.146,54.965c-0.004,0.49,0.167,0.734,0.513,0.734    c0.229,0,0.425-0.084,0.588-0.253c0.069-0.071,0.104-0.141,0.104-0.206v-1.292c-0.13,0-0.3,0.058-0.509,0.173    c-0.183,0.101-0.331,0.205-0.444,0.313C27.231,54.592,27.147,54.77,27.146,54.965z"/>
		<path class="st10" d="M31.923,56.928H30.48V56.76h0.611c0.205,0,0.307-0.104,0.307-0.309v-4.623c0-0.236-0.11-0.355-0.331-0.355    H30.48v-0.174h1.443V56.928z"/>
	</g>
	<g class="st5">
		<path class="st10" d="M50.417,60.024l-0.308-0.364c0.259-0.164,0.485-0.363,0.678-0.598c0.194-0.234,0.323-0.475,0.388-0.721    c-0.158,0.099-0.345,0.148-0.558,0.148c-0.267,0-0.497-0.1-0.688-0.3c-0.191-0.2-0.287-0.439-0.287-0.72    c0-0.291,0.102-0.539,0.305-0.742s0.453-0.305,0.747-0.305c0.331,0,0.601,0.121,0.812,0.36c0.21,0.239,0.315,0.548,0.315,0.923    c0,0.426-0.132,0.857-0.396,1.293C51.162,59.435,50.826,59.776,50.417,60.024z M51.273,57.841c0.02-0.134,0.03-0.222,0.03-0.262    c0-0.203-0.056-0.369-0.169-0.498c-0.113-0.13-0.258-0.194-0.435-0.194c-0.162,0-0.296,0.056-0.402,0.166    c-0.106,0.109-0.159,0.247-0.159,0.413c0,0.153,0.058,0.284,0.173,0.396c0.115,0.11,0.253,0.166,0.413,0.166    C50.912,58.027,51.095,57.965,51.273,57.841z"/>
		<path class="st10" d="M52.541,56.47h1.553v0.448h-1.097v0.888c0.035-0.003,0.071-0.005,0.108-0.005    c0.339,0,0.618,0.104,0.836,0.311s0.328,0.471,0.328,0.791c0,0.33-0.108,0.6-0.324,0.807c-0.216,0.207-0.497,0.311-0.84,0.311    c-0.284,0-0.56-0.068-0.827-0.206v-0.519c0.252,0.164,0.499,0.246,0.739,0.246c0.21,0,0.387-0.061,0.53-0.185    c0.143-0.123,0.214-0.274,0.214-0.454c0-0.186-0.078-0.342-0.233-0.467s-0.349-0.188-0.581-0.188    c-0.199,0-0.334,0.018-0.406,0.051V56.47z"/>
		<path class="st10" d="M56.918,56.43c0.215,0,0.399,0.076,0.551,0.23s0.228,0.34,0.228,0.557c0,0.215-0.077,0.399-0.229,0.554    c-0.153,0.154-0.336,0.231-0.55,0.231c-0.214,0-0.397-0.077-0.55-0.231s-0.229-0.339-0.229-0.554c0-0.217,0.076-0.402,0.228-0.557    S56.703,56.43,56.918,56.43z M58.69,56.42h0.387l-2.3,3.604H56.39L58.69,56.42z M56.912,56.812c-0.112,0-0.207,0.04-0.286,0.119    s-0.118,0.175-0.118,0.288c0,0.109,0.04,0.204,0.12,0.283c0.08,0.078,0.175,0.117,0.285,0.117c0.111,0,0.207-0.039,0.286-0.117    c0.079-0.079,0.119-0.174,0.119-0.283c0-0.114-0.039-0.211-0.117-0.289S57.025,56.812,56.912,56.812z M58.57,58.455    c0.213,0,0.397,0.076,0.55,0.23c0.153,0.152,0.23,0.337,0.23,0.552c0,0.214-0.076,0.397-0.229,0.547    c-0.152,0.15-0.336,0.226-0.551,0.226c-0.217,0-0.401-0.075-0.554-0.226c-0.152-0.149-0.229-0.333-0.229-0.547    c0-0.216,0.077-0.401,0.23-0.554C58.171,58.531,58.355,58.455,58.57,58.455z M58.565,58.837c-0.11,0-0.204,0.04-0.281,0.118    c-0.078,0.078-0.116,0.173-0.116,0.283c0,0.112,0.039,0.208,0.116,0.287c0.077,0.08,0.171,0.119,0.281,0.119    c0.113,0,0.209-0.039,0.287-0.117c0.078-0.079,0.117-0.176,0.117-0.289c0-0.111-0.039-0.207-0.117-0.285    C58.774,58.876,58.678,58.837,58.565,58.837z"/>
	</g>
	<g>
		<g class="st5">
			<path class="st11" d="M74.359,14.504c0-0.649,0.098-1.224,0.293-1.725c0.195-0.5,0.458-0.923,0.789-1.268     c0.331-0.345,0.716-0.605,1.157-0.781c0.441-0.176,0.909-0.264,1.405-0.264c0.516,0,0.988,0.088,1.417,0.264     c0.428,0.176,0.796,0.437,1.104,0.781s0.547,0.767,0.717,1.268c0.17,0.501,0.255,1.076,0.255,1.725     c0,0.649-0.098,1.223-0.293,1.721s-0.458,0.916-0.789,1.253c-0.331,0.337-0.716,0.593-1.157,0.766     c-0.441,0.174-0.909,0.26-1.405,0.26c-0.516,0-0.988-0.086-1.417-0.26c-0.428-0.173-0.796-0.429-1.104-0.766     c-0.308-0.337-0.547-0.755-0.717-1.253S74.359,15.153,74.359,14.504z M75.749,14.504c0,0.438,0.053,0.83,0.158,1.177     c0.105,0.347,0.254,0.641,0.447,0.879c0.193,0.239,0.422,0.421,0.688,0.547c0.266,0.125,0.561,0.188,0.887,0.188     c0.3,0,0.583-0.063,0.849-0.188c0.266-0.126,0.497-0.308,0.695-0.547c0.198-0.239,0.353-0.532,0.466-0.879     c0.112-0.347,0.169-0.74,0.169-1.177c0-0.443-0.053-0.839-0.158-1.189c-0.105-0.35-0.254-0.646-0.447-0.891     s-0.423-0.43-0.691-0.559c-0.268-0.128-0.563-0.192-0.883-0.192c-0.306,0-0.591,0.064-0.857,0.192     c-0.265,0.128-0.496,0.314-0.691,0.559s-0.35,0.541-0.462,0.891C75.805,13.665,75.749,14.062,75.749,14.504z"/>
		</g>
		<g class="st5">
			<path class="st7" d="M86.828,18.316c-0.26,0.725-0.516,1.316-0.766,1.774c-0.25,0.458-0.505,0.819-0.763,1.083     s-0.526,0.445-0.804,0.543s-0.578,0.147-0.898,0.147c-0.346,0-0.67-0.055-0.973-0.166c-0.303-0.111-0.592-0.269-0.868-0.476     l0.451-1.208c0.08,0.065,0.174,0.132,0.282,0.2c0.108,0.068,0.223,0.128,0.346,0.181c0.123,0.053,0.249,0.097,0.379,0.132     s0.258,0.053,0.383,0.053c0.15,0,0.298-0.026,0.443-0.079c0.145-0.053,0.292-0.153,0.439-0.302     c0.147-0.148,0.299-0.357,0.455-0.626c0.155-0.27,0.32-0.623,0.496-1.061l-2.096-5.216c-0.141-0.342-0.303-0.727-0.489-1.155     c-0.185-0.428-0.423-0.936-0.713-1.524h1.502l2.427,6.167c0.095-0.271,0.199-0.567,0.312-0.887     c0.112-0.32,0.229-0.649,0.349-0.989c0.12-0.34,0.24-0.682,0.361-1.027c0.12-0.344,0.235-0.675,0.345-0.992     c0.261-0.745,0.523-1.502,0.789-2.272h1.503c-0.131,0.292-0.248,0.562-0.354,0.811c-0.105,0.25-0.203,0.483-0.293,0.702     s-0.172,0.424-0.244,0.615s-0.139,0.375-0.199,0.551L86.828,18.316z"/>
		</g>
		<g class="st5">
			<path class="st12" d="M71.124,26.333c0,0.313-0.03,0.576-0.089,0.789c-0.059,0.212-0.143,0.383-0.252,0.511     c-0.109,0.129-0.241,0.221-0.396,0.277c-0.155,0.056-0.327,0.084-0.516,0.084c-0.047,0-0.102-0.005-0.165-0.015     c-0.063-0.01-0.129-0.024-0.197-0.042c-0.068-0.018-0.135-0.041-0.2-0.069c-0.066-0.028-0.123-0.059-0.172-0.092l0.117-0.553     c0.036,0.027,0.081,0.052,0.137,0.077c0.056,0.024,0.114,0.046,0.174,0.065s0.12,0.034,0.18,0.043     c0.06,0.01,0.114,0.015,0.161,0.015c0.089,0,0.17-0.017,0.244-0.052c0.073-0.035,0.137-0.089,0.19-0.163     c0.053-0.074,0.094-0.168,0.124-0.285c0.029-0.116,0.043-0.257,0.043-0.422v-1.862c0-0.164-0.001-0.324-0.002-0.483     c-0.001-0.159-0.003-0.309-0.007-0.451c-0.003-0.142-0.008-0.274-0.015-0.396c-0.007-0.122-0.016-0.227-0.027-0.314h0.668V26.333     z M70.389,21.904c0-0.063,0.01-0.121,0.03-0.176s0.048-0.103,0.085-0.145c0.037-0.041,0.081-0.074,0.132-0.097     s0.108-0.035,0.17-0.035s0.12,0.012,0.174,0.035c0.053,0.023,0.099,0.056,0.137,0.097c0.038,0.042,0.068,0.09,0.09,0.145     c0.022,0.055,0.033,0.113,0.033,0.176c0,0.063-0.011,0.122-0.033,0.176c-0.022,0.055-0.053,0.103-0.09,0.145     c-0.038,0.041-0.083,0.074-0.137,0.097c-0.054,0.023-0.111,0.035-0.174,0.035s-0.119-0.012-0.17-0.035s-0.095-0.056-0.132-0.097     c-0.037-0.042-0.065-0.09-0.085-0.145S70.389,21.967,70.389,21.904z"/>
		</g>
		<g class="st5">
			<path class="st11" d="M72.159,24.299c0-0.36,0.054-0.68,0.163-0.958c0.109-0.278,0.255-0.513,0.438-0.705     s0.398-0.336,0.643-0.434c0.245-0.098,0.505-0.146,0.781-0.146c0.287,0,0.549,0.049,0.787,0.146     c0.238,0.098,0.442,0.243,0.614,0.434c0.171,0.191,0.304,0.426,0.398,0.705c0.095,0.278,0.142,0.598,0.142,0.958     c0,0.361-0.054,0.679-0.163,0.956c-0.109,0.277-0.255,0.509-0.438,0.696c-0.184,0.187-0.398,0.329-0.643,0.425     c-0.245,0.097-0.505,0.145-0.781,0.145c-0.287,0-0.549-0.048-0.787-0.145c-0.238-0.096-0.442-0.238-0.614-0.425     c-0.171-0.188-0.304-0.419-0.398-0.696C72.206,24.978,72.159,24.66,72.159,24.299z M72.931,24.299     c0,0.243,0.029,0.461,0.087,0.654s0.141,0.355,0.249,0.488c0.107,0.133,0.234,0.234,0.382,0.304s0.312,0.105,0.493,0.105     c0.167,0,0.324-0.035,0.471-0.105s0.276-0.171,0.386-0.304s0.196-0.295,0.259-0.488s0.094-0.411,0.094-0.654     c0-0.246-0.029-0.466-0.088-0.66s-0.141-0.359-0.249-0.495c-0.107-0.135-0.235-0.239-0.384-0.31s-0.313-0.107-0.49-0.107     c-0.17,0-0.329,0.036-0.476,0.107s-0.275,0.175-0.384,0.31c-0.109,0.136-0.194,0.301-0.257,0.495S72.931,24.053,72.931,24.299z"/>
		</g>
		<g class="st5">
			<path class="st7" d="M79.274,26.417c-0.145,0.402-0.287,0.731-0.426,0.985s-0.28,0.455-0.423,0.602     c-0.144,0.147-0.292,0.248-0.447,0.302c-0.154,0.054-0.321,0.082-0.499,0.082c-0.192,0-0.372-0.031-0.541-0.092     s-0.329-0.149-0.482-0.264l0.25-0.671c0.044,0.037,0.097,0.074,0.156,0.111c0.06,0.038,0.124,0.071,0.192,0.101     c0.068,0.029,0.138,0.054,0.21,0.073c0.073,0.02,0.144,0.029,0.213,0.029c0.083,0,0.166-0.015,0.247-0.044     c0.081-0.029,0.162-0.085,0.244-0.167c0.082-0.083,0.166-0.199,0.252-0.348s0.178-0.346,0.275-0.589l-1.165-2.897     c-0.078-0.19-0.168-0.404-0.271-0.642c-0.103-0.237-0.235-0.52-0.397-0.847H77.5l1.348,3.426     c0.053-0.151,0.111-0.315,0.173-0.493c0.063-0.178,0.127-0.361,0.194-0.549c0.067-0.189,0.134-0.379,0.201-0.57     s0.131-0.375,0.192-0.552c0.145-0.414,0.291-0.834,0.438-1.262h0.834c-0.072,0.163-0.138,0.313-0.196,0.451     c-0.058,0.138-0.112,0.268-0.163,0.39s-0.095,0.236-0.136,0.342c-0.04,0.106-0.077,0.208-0.11,0.306L79.274,26.417z"/>
		</g>
		<g class="st5">
			<path class="st12" d="M82.84,22.928c0.183,0,0.344,0.022,0.484,0.065s0.262,0.104,0.364,0.181     c0.103,0.077,0.188,0.167,0.257,0.27c0.069,0.103,0.124,0.213,0.165,0.332c0.042,0.119,0.071,0.242,0.089,0.371     c0.018,0.129,0.026,0.256,0.026,0.381v0.131c0,0.056-0.001,0.1-0.003,0.131h-2.367c0.007,0.197,0.037,0.368,0.092,0.513     s0.129,0.266,0.224,0.361c0.095,0.095,0.206,0.166,0.334,0.213s0.268,0.07,0.419,0.07c0.216,0,0.428-0.024,0.635-0.074     s0.413-0.136,0.618-0.262l0.067,0.554c-0.118,0.06-0.234,0.112-0.348,0.154c-0.113,0.042-0.227,0.077-0.34,0.104     c-0.114,0.027-0.229,0.046-0.346,0.059S82.969,26.5,82.84,26.5c-0.213,0-0.417-0.038-0.611-0.112     c-0.194-0.075-0.364-0.186-0.511-0.333c-0.146-0.146-0.264-0.328-0.351-0.545c-0.086-0.217-0.13-0.468-0.13-0.755     c0-0.277,0.037-0.528,0.112-0.753c0.074-0.225,0.181-0.417,0.319-0.577c0.138-0.16,0.306-0.283,0.504-0.369     C82.37,22.971,82.593,22.928,82.84,22.928z M82.79,23.431c-0.245,0-0.445,0.072-0.601,0.217     c-0.156,0.144-0.258,0.368-0.307,0.672h1.743c0-0.143-0.021-0.27-0.062-0.381c-0.042-0.11-0.099-0.204-0.174-0.28     c-0.075-0.076-0.163-0.133-0.265-0.171C83.021,23.45,82.91,23.431,82.79,23.431z"/>
			<path class="st12" d="M86.162,26.5c-0.712,0-1.068-0.481-1.068-1.442v-0.99c0-0.107,0-0.205-0.001-0.292     c-0.001-0.087-0.004-0.171-0.009-0.253c-0.004-0.082-0.011-0.165-0.02-0.25c-0.009-0.085-0.021-0.178-0.037-0.279h0.685v1.862     c0,0.19,0.009,0.354,0.028,0.492c0.019,0.137,0.051,0.25,0.095,0.339s0.103,0.154,0.175,0.196s0.162,0.063,0.269,0.063     c0.098,0,0.203-0.029,0.314-0.089c0.111-0.059,0.217-0.135,0.319-0.227c0.101-0.091,0.193-0.193,0.277-0.303     c0.083-0.111,0.147-0.218,0.192-0.321v-0.939c0-0.11-0.001-0.208-0.002-0.297s-0.004-0.173-0.008-0.253s-0.011-0.162-0.02-0.245     c-0.009-0.083-0.021-0.176-0.037-0.279h0.685v1.912c0,0.327,0.019,0.612,0.056,0.857c0.036,0.245,0.09,0.462,0.161,0.652h-0.567     c-0.016-0.038-0.033-0.083-0.05-0.134c-0.018-0.051-0.035-0.106-0.052-0.164c-0.017-0.059-0.032-0.119-0.047-0.183     c-0.014-0.063-0.026-0.127-0.035-0.189c-0.202,0.248-0.411,0.436-0.626,0.563S86.398,26.5,86.162,26.5z"/>
		</g>
		<g class="st5">
			<path class="st8" d="M90.375,25.155l-0.872,1.261h-0.751c0.091-0.121,0.168-0.222,0.23-0.304c0.062-0.082,0.117-0.155,0.164-0.22     c0.049-0.065,0.093-0.126,0.135-0.185c0.041-0.058,0.087-0.124,0.139-0.198l0.594-0.866L89.486,23.9     c-0.057-0.078-0.107-0.148-0.154-0.211c-0.047-0.063-0.096-0.126-0.146-0.191s-0.108-0.137-0.172-0.216     c-0.063-0.08-0.14-0.175-0.229-0.287h0.768l0.868,1.211l0.818-1.211h0.751c-0.086,0.112-0.16,0.208-0.221,0.287     c-0.06,0.079-0.114,0.152-0.163,0.218s-0.095,0.13-0.139,0.193c-0.044,0.063-0.092,0.132-0.146,0.208l-0.544,0.805l0.577,0.805     c0.061,0.085,0.113,0.157,0.158,0.216c0.044,0.06,0.09,0.12,0.14,0.183c0.049,0.063,0.103,0.133,0.161,0.211     c0.06,0.079,0.135,0.177,0.227,0.295h-0.769L90.375,25.155z"/>
		</g>
		<g class="st5">
			<path class="st10" d="M86.287,29.937h0.025c0.183,0,0.321-0.038,0.417-0.113c0.095-0.075,0.143-0.185,0.143-0.329     c0-0.13-0.046-0.235-0.139-0.316c-0.093-0.081-0.214-0.122-0.364-0.122c-0.152,0-0.32,0.047-0.505,0.143v-0.401     c0.169-0.085,0.354-0.127,0.555-0.127c0.269,0,0.48,0.07,0.636,0.211s0.232,0.334,0.232,0.578c0,0.148-0.03,0.273-0.089,0.374     c-0.06,0.101-0.155,0.188-0.286,0.261c0.114,0.045,0.198,0.1,0.25,0.165c0.053,0.065,0.094,0.144,0.123,0.236     s0.044,0.19,0.044,0.293c0,0.256-0.085,0.468-0.254,0.635c-0.17,0.167-0.384,0.251-0.643,0.251c-0.221,0-0.435-0.054-0.641-0.162     v-0.457c0.22,0.138,0.433,0.208,0.641,0.208c0.141,0,0.253-0.042,0.339-0.126c0.085-0.083,0.128-0.195,0.128-0.333     c0-0.116-0.035-0.217-0.106-0.304c-0.042-0.049-0.088-0.085-0.139-0.108s-0.16-0.045-0.329-0.066l-0.038-0.004V29.937z"/>
			<path class="st10" d="M88.518,28.712h0.418v2.929h-0.418V28.712z"/>
			<path class="st10" d="M91.733,28.679c0.18,0,0.333,0.064,0.46,0.193c0.126,0.128,0.189,0.283,0.189,0.463     c0,0.179-0.064,0.333-0.191,0.461c-0.127,0.129-0.279,0.193-0.458,0.193s-0.331-0.064-0.458-0.193     c-0.127-0.128-0.191-0.282-0.191-0.461c0-0.181,0.064-0.335,0.19-0.463C91.4,28.743,91.555,28.679,91.733,28.679z M93.21,28.67     h0.323l-1.918,3.004h-0.322L93.21,28.67z M91.729,28.997c-0.094,0-0.172,0.033-0.238,0.1c-0.066,0.066-0.1,0.146-0.1,0.239     c0,0.092,0.033,0.17,0.101,0.236c0.066,0.065,0.146,0.098,0.237,0.098c0.093,0,0.172-0.033,0.238-0.098     c0.065-0.066,0.099-0.145,0.099-0.236c0-0.095-0.032-0.175-0.098-0.24C91.902,29.03,91.822,28.997,91.729,28.997z M93.109,30.366     c0.178,0,0.331,0.064,0.459,0.192s0.191,0.281,0.191,0.46c0,0.179-0.063,0.331-0.19,0.456c-0.127,0.125-0.28,0.188-0.46,0.188     s-0.334-0.063-0.461-0.188c-0.127-0.125-0.191-0.277-0.191-0.456c0-0.181,0.064-0.334,0.192-0.461     C92.777,30.43,92.931,30.366,93.109,30.366z M93.105,30.685c-0.092,0-0.17,0.033-0.234,0.098s-0.096,0.145-0.096,0.236     c0,0.093,0.031,0.173,0.096,0.239c0.064,0.066,0.143,0.099,0.234,0.099c0.095,0,0.174-0.033,0.239-0.098s0.099-0.146,0.099-0.24     c0-0.093-0.033-0.172-0.099-0.237S93.2,30.685,93.105,30.685z"/>
		</g>
	</g>
	<g>
		<g class="st5">
			<path class="st11" d="M108.564,21.535c0-0.469,0.07-0.884,0.211-1.246c0.142-0.361,0.332-0.667,0.57-0.916     c0.238-0.249,0.518-0.437,0.836-0.564c0.318-0.127,0.656-0.191,1.014-0.191c0.373,0,0.715,0.064,1.023,0.191     c0.31,0.127,0.575,0.315,0.798,0.564c0.222,0.249,0.396,0.555,0.519,0.916c0.123,0.362,0.184,0.777,0.184,1.246     s-0.07,0.883-0.211,1.243c-0.141,0.359-0.331,0.661-0.57,0.905c-0.238,0.243-0.518,0.428-0.836,0.553s-0.656,0.188-1.014,0.188     c-0.373,0-0.714-0.063-1.023-0.188c-0.309-0.125-0.575-0.31-0.797-0.553c-0.223-0.244-0.396-0.545-0.519-0.905     C108.626,22.418,108.564,22.003,108.564,21.535z M109.568,21.535c0,0.316,0.037,0.6,0.113,0.851     c0.076,0.25,0.184,0.462,0.323,0.635c0.14,0.173,0.305,0.305,0.497,0.396c0.191,0.091,0.404,0.136,0.64,0.136     c0.218,0,0.421-0.045,0.613-0.136s0.358-0.223,0.502-0.396c0.144-0.172,0.255-0.384,0.337-0.635     c0.081-0.251,0.121-0.534,0.121-0.851c0-0.32-0.037-0.606-0.113-0.858s-0.184-0.467-0.323-0.644s-0.306-0.311-0.499-0.403     s-0.406-0.139-0.638-0.139c-0.221,0-0.427,0.046-0.618,0.139s-0.358,0.227-0.5,0.403c-0.141,0.176-0.252,0.391-0.333,0.644     S109.568,21.215,109.568,21.535z"/>
		</g>
		<g class="st5">
			<path class="st8" d="M116.599,24.424c-1.157,0-1.737-0.781-1.737-2.344v-1.608c0-0.174,0-0.333-0.002-0.474     s-0.006-0.279-0.014-0.412s-0.018-0.268-0.033-0.406c-0.014-0.138-0.033-0.289-0.059-0.452h1.111v3.025     c0,0.309,0.016,0.575,0.047,0.798s0.082,0.407,0.154,0.551s0.168,0.25,0.285,0.319s0.264,0.104,0.438,0.104     c0.158,0,0.328-0.048,0.51-0.145c0.181-0.096,0.354-0.219,0.518-0.368c0.164-0.149,0.314-0.313,0.451-0.494     c0.135-0.18,0.239-0.354,0.312-0.521v-1.526c0-0.178-0.001-0.339-0.003-0.482s-0.006-0.281-0.014-0.412     c-0.007-0.131-0.018-0.263-0.032-0.398c-0.015-0.134-0.034-0.285-0.06-0.452h1.112v3.107c0,0.531,0.03,0.995,0.089,1.393     c0.061,0.398,0.148,0.751,0.264,1.06h-0.922c-0.025-0.062-0.053-0.134-0.082-0.218c-0.029-0.083-0.057-0.172-0.084-0.267     c-0.027-0.094-0.053-0.193-0.076-0.297s-0.043-0.206-0.057-0.308c-0.33,0.403-0.668,0.709-1.018,0.916     S116.982,24.424,116.599,24.424z"/>
		</g>
		<g class="st5">
			<path class="st7" d="M125.619,21.398c0,0.687,0.038,1.264,0.113,1.731c0.076,0.467,0.174,0.853,0.293,1.158h-0.949     c-0.018-0.047-0.043-0.113-0.076-0.196c-0.032-0.083-0.065-0.179-0.1-0.286c-0.035-0.107-0.067-0.223-0.098-0.346     c-0.031-0.124-0.057-0.247-0.079-0.371c-0.142,0.182-0.29,0.353-0.448,0.512c-0.156,0.16-0.322,0.302-0.496,0.425     s-0.354,0.221-0.543,0.292c-0.188,0.071-0.379,0.106-0.574,0.106c-0.229,0-0.455-0.049-0.682-0.147     c-0.226-0.098-0.43-0.246-0.61-0.442s-0.327-0.442-0.439-0.738c-0.112-0.296-0.168-0.644-0.168-1.044     c0-0.418,0.046-0.797,0.138-1.137c0.093-0.34,0.219-0.643,0.378-0.908c0.142-0.232,0.291-0.436,0.45-0.61     c0.159-0.175,0.334-0.319,0.523-0.434c0.189-0.114,0.398-0.201,0.627-0.259s0.48-0.087,0.76-0.087c0.137,0,0.29,0.01,0.459,0.03     c0.168,0.02,0.34,0.048,0.515,0.084c0.176,0.036,0.351,0.08,0.524,0.131c0.173,0.051,0.334,0.105,0.482,0.164V21.398z      M123.422,19.545c-0.116,0-0.232,0.014-0.351,0.041c-0.117,0.027-0.233,0.074-0.347,0.139c-0.114,0.065-0.225,0.151-0.332,0.259     c-0.105,0.107-0.207,0.243-0.301,0.406c-0.098,0.167-0.176,0.375-0.236,0.624c-0.059,0.249-0.089,0.504-0.089,0.766     c0,0.302,0.028,0.561,0.084,0.777c0.056,0.216,0.13,0.395,0.223,0.534c0.093,0.14,0.196,0.243,0.314,0.308     s0.236,0.098,0.355,0.098c0.151,0,0.317-0.047,0.497-0.142c0.179-0.095,0.354-0.22,0.523-0.376s0.33-0.336,0.48-0.54     c0.149-0.203,0.273-0.414,0.371-0.632v-2.044c-0.055-0.025-0.124-0.051-0.209-0.077c-0.085-0.025-0.18-0.049-0.282-0.071     c-0.103-0.021-0.216-0.039-0.337-0.052S123.545,19.545,123.422,19.545z"/>
		</g>
		<g class="st5">
			<path class="st11" d="M107.123,27.733c0-0.36,0.055-0.68,0.162-0.958c0.109-0.278,0.256-0.513,0.439-0.705     s0.397-0.336,0.643-0.434c0.244-0.098,0.505-0.146,0.78-0.146c0.286,0,0.549,0.049,0.786,0.146     c0.238,0.098,0.443,0.243,0.614,0.434s0.304,0.426,0.398,0.705s0.142,0.598,0.142,0.958c0,0.361-0.054,0.679-0.162,0.956     c-0.109,0.277-0.255,0.509-0.438,0.696c-0.184,0.187-0.397,0.329-0.643,0.425c-0.245,0.097-0.505,0.145-0.78,0.145     c-0.287,0-0.549-0.048-0.787-0.145c-0.238-0.096-0.442-0.238-0.613-0.425c-0.172-0.188-0.305-0.419-0.398-0.696     C107.17,28.413,107.123,28.094,107.123,27.733z M107.896,27.733c0,0.243,0.028,0.461,0.087,0.654s0.142,0.355,0.249,0.488     c0.106,0.133,0.234,0.234,0.382,0.304s0.312,0.105,0.492,0.105c0.167,0,0.324-0.035,0.472-0.105s0.276-0.171,0.386-0.304     c0.11-0.133,0.197-0.295,0.26-0.488s0.094-0.411,0.094-0.654c0-0.246-0.029-0.466-0.088-0.66s-0.141-0.359-0.248-0.495     c-0.107-0.135-0.235-0.239-0.385-0.31c-0.148-0.071-0.313-0.107-0.49-0.107c-0.17,0-0.328,0.036-0.476,0.107     s-0.275,0.175-0.384,0.31c-0.109,0.136-0.194,0.301-0.257,0.495S107.896,27.487,107.896,27.733z"/>
		</g>
		<g class="st5">
			<path class="st8" d="M113.486,29.956c-0.89,0-1.335-0.601-1.335-1.803v-1.237c0-0.134-0.001-0.256-0.002-0.365     c-0.001-0.109-0.005-0.214-0.011-0.316s-0.014-0.206-0.025-0.313c-0.011-0.106-0.025-0.222-0.045-0.348h0.855v2.328     c0,0.237,0.012,0.442,0.035,0.614s0.063,0.313,0.119,0.423s0.129,0.192,0.219,0.246c0.091,0.053,0.203,0.08,0.336,0.08     c0.123,0,0.254-0.037,0.393-0.111c0.139-0.074,0.271-0.168,0.398-0.283c0.127-0.114,0.242-0.241,0.347-0.379     c0.104-0.138,0.185-0.271,0.24-0.4v-1.174c0-0.137-0.001-0.261-0.003-0.371c-0.001-0.111-0.004-0.216-0.01-0.317     s-0.014-0.203-0.025-0.306c-0.011-0.104-0.026-0.219-0.045-0.348h0.855v2.39c0,0.408,0.022,0.766,0.068,1.072     s0.113,0.578,0.203,0.815h-0.711c-0.02-0.047-0.039-0.104-0.063-0.168c-0.021-0.064-0.043-0.132-0.064-0.205     c-0.021-0.073-0.04-0.149-0.059-0.229c-0.018-0.08-0.032-0.159-0.043-0.237c-0.254,0.311-0.515,0.545-0.783,0.705     C114.063,29.876,113.781,29.956,113.486,29.956z"/>
		</g>
		<g class="st5">
			<path class="st7" d="M120.556,27.628c0,0.529,0.029,0.972,0.088,1.332c0.058,0.359,0.134,0.656,0.226,0.891h-0.73     c-0.014-0.036-0.033-0.086-0.059-0.151s-0.051-0.138-0.077-0.22s-0.052-0.171-0.075-0.266c-0.023-0.095-0.044-0.19-0.061-0.285     c-0.108,0.14-0.224,0.271-0.344,0.394c-0.121,0.123-0.249,0.232-0.383,0.327c-0.133,0.095-0.272,0.17-0.417,0.224     c-0.146,0.055-0.292,0.082-0.442,0.082c-0.176,0-0.35-0.038-0.523-0.113c-0.175-0.076-0.331-0.189-0.471-0.34     c-0.139-0.151-0.252-0.34-0.338-0.568c-0.086-0.228-0.129-0.496-0.129-0.803c0-0.321,0.035-0.613,0.106-0.875     c0.071-0.261,0.167-0.494,0.29-0.698c0.108-0.179,0.224-0.335,0.346-0.47c0.123-0.134,0.258-0.246,0.403-0.333     s0.307-0.154,0.481-0.199c0.176-0.044,0.371-0.067,0.585-0.067c0.106,0,0.224,0.008,0.353,0.023s0.262,0.037,0.396,0.065     s0.27,0.062,0.402,0.101c0.135,0.039,0.258,0.081,0.372,0.126V27.628z M118.865,26.203c-0.089,0-0.179,0.01-0.27,0.031     c-0.09,0.021-0.18,0.057-0.267,0.107c-0.088,0.05-0.173,0.117-0.255,0.199s-0.159,0.187-0.231,0.313     c-0.075,0.128-0.136,0.289-0.182,0.48s-0.069,0.388-0.069,0.589c0,0.232,0.021,0.431,0.065,0.597     c0.043,0.167,0.101,0.304,0.171,0.411s0.152,0.187,0.242,0.237s0.182,0.076,0.273,0.076c0.117,0,0.244-0.037,0.382-0.109     c0.138-0.072,0.272-0.169,0.403-0.289s0.254-0.259,0.369-0.415c0.115-0.157,0.211-0.319,0.285-0.486v-1.573     c-0.041-0.02-0.095-0.039-0.16-0.059s-0.138-0.038-0.217-0.055c-0.08-0.017-0.166-0.03-0.26-0.04     C119.054,26.208,118.96,26.203,118.865,26.203z"/>
		</g>
		<g class="st5">
			<path class="st12" d="M121.359,26.513h0.668v-1.09h0.617v1.09h1.086V27h-1.086v1.543c0,0.172,0.009,0.313,0.025,0.422     c0.018,0.11,0.043,0.195,0.077,0.257s0.078,0.104,0.132,0.125c0.053,0.022,0.117,0.034,0.193,0.034     c0.096,0,0.204-0.021,0.324-0.063s0.254-0.105,0.4-0.188v0.537c-0.153,0.101-0.301,0.17-0.44,0.21     c-0.141,0.039-0.27,0.059-0.388,0.059c-0.131,0-0.254-0.015-0.367-0.045s-0.213-0.083-0.299-0.159     c-0.086-0.076-0.152-0.177-0.202-0.304c-0.049-0.126-0.073-0.287-0.073-0.481V27h-0.668V26.513z"/>
			<path class="st12" d="M125.967,26.362c0.184,0,0.345,0.022,0.484,0.065c0.141,0.043,0.262,0.104,0.364,0.181     s0.188,0.167,0.257,0.27c0.069,0.103,0.125,0.213,0.166,0.332s0.07,0.242,0.088,0.371c0.018,0.129,0.027,0.256,0.027,0.381v0.131     c0,0.056-0.002,0.1-0.004,0.131h-2.367c0.007,0.197,0.037,0.368,0.092,0.513s0.129,0.266,0.224,0.361     c0.095,0.095,0.206,0.166,0.334,0.213s0.268,0.07,0.419,0.07c0.216,0,0.428-0.024,0.635-0.074s0.412-0.136,0.617-0.262     l0.067,0.554c-0.118,0.06-0.233,0.112-0.348,0.154c-0.113,0.042-0.228,0.077-0.341,0.104s-0.229,0.046-0.346,0.059     c-0.116,0.012-0.239,0.019-0.369,0.019c-0.213,0-0.417-0.038-0.61-0.112c-0.194-0.075-0.364-0.186-0.511-0.333     c-0.146-0.146-0.264-0.328-0.352-0.545c-0.086-0.217-0.129-0.468-0.129-0.755c0-0.277,0.037-0.528,0.111-0.753     s0.181-0.417,0.318-0.577c0.139-0.16,0.307-0.283,0.505-0.369C125.498,26.405,125.721,26.362,125.967,26.362z M125.918,26.865     c-0.246,0-0.445,0.072-0.602,0.217c-0.156,0.144-0.258,0.368-0.307,0.672h1.742c0-0.143-0.021-0.27-0.062-0.381     c-0.042-0.11-0.099-0.204-0.174-0.28c-0.075-0.076-0.163-0.133-0.265-0.171C126.148,26.884,126.037,26.865,125.918,26.865z"/>
		</g>
		<g class="st5">
			<path class="st10" d="M127.498,32.578h0.025c0.183,0,0.321-0.037,0.416-0.113c0.096-0.074,0.144-0.185,0.144-0.328     c0-0.131-0.046-0.236-0.139-0.317s-0.214-0.122-0.364-0.122c-0.152,0-0.32,0.047-0.505,0.143V31.44     c0.169-0.085,0.354-0.127,0.555-0.127c0.269,0,0.48,0.07,0.636,0.211s0.232,0.334,0.232,0.578c0,0.148-0.029,0.273-0.09,0.375     c-0.06,0.101-0.154,0.188-0.285,0.26c0.113,0.045,0.197,0.1,0.25,0.166c0.053,0.064,0.094,0.143,0.123,0.235     s0.044,0.19,0.044,0.294c0,0.256-0.085,0.467-0.255,0.635c-0.17,0.167-0.384,0.25-0.643,0.25c-0.221,0-0.435-0.053-0.641-0.161     v-0.457c0.22,0.138,0.434,0.208,0.641,0.208c0.141,0,0.254-0.043,0.34-0.127c0.085-0.083,0.127-0.194,0.127-0.332     c0-0.117-0.035-0.218-0.105-0.305c-0.042-0.049-0.088-0.085-0.139-0.107c-0.051-0.023-0.16-0.045-0.329-0.066l-0.038-0.004     V32.578z"/>
			<path class="st10" d="M130.809,31.321c0.18,0,0.332,0.064,0.459,0.193c0.127,0.128,0.19,0.283,0.19,0.463     c0,0.179-0.063,0.333-0.191,0.46c-0.127,0.129-0.28,0.193-0.458,0.193s-0.33-0.064-0.458-0.193     c-0.128-0.128-0.19-0.281-0.19-0.46c0-0.181,0.063-0.335,0.189-0.463C130.477,31.385,130.629,31.321,130.809,31.321z      M132.285,31.313h0.322l-1.916,3.004h-0.323L132.285,31.313z M130.804,31.639c-0.093,0-0.173,0.033-0.238,0.1     c-0.065,0.066-0.099,0.146-0.099,0.239c0,0.092,0.033,0.17,0.1,0.237c0.066,0.064,0.146,0.098,0.237,0.098     c0.093,0,0.173-0.033,0.237-0.098c0.066-0.066,0.1-0.145,0.1-0.237c0-0.095-0.033-0.175-0.098-0.24     C130.978,31.672,130.898,31.639,130.804,31.639z M132.186,33.008c0.178,0,0.33,0.064,0.458,0.192s0.191,0.281,0.191,0.46     c0,0.18-0.063,0.331-0.19,0.457c-0.127,0.125-0.28,0.188-0.459,0.188c-0.182,0-0.335-0.063-0.462-0.188     c-0.128-0.126-0.19-0.277-0.19-0.457s0.063-0.334,0.191-0.461S132.006,33.008,132.186,33.008z M132.181,33.327     c-0.091,0-0.169,0.032-0.233,0.099c-0.064,0.064-0.098,0.145-0.098,0.236c0,0.093,0.033,0.173,0.098,0.238     c0.064,0.066,0.143,0.1,0.233,0.1c0.095,0,0.175-0.033,0.239-0.098c0.065-0.066,0.098-0.146,0.098-0.24s-0.032-0.173-0.098-0.238     C132.355,33.359,132.275,33.327,132.181,33.327z"/>
		</g>
	</g>
	<g class="st5">
		<path class="st13" d="M24.817,24.073c0-1.519,0.228-2.863,0.685-4.035c0.457-1.171,1.072-2.16,1.846-2.966    c0.773-0.806,1.675-1.415,2.707-1.827c1.031-0.412,2.127-0.618,3.287-0.618c1.207,0,2.312,0.206,3.313,0.618    c1.002,0.412,1.863,1.021,2.584,1.827c0.72,0.807,1.28,1.795,1.678,2.966c0.398,1.172,0.598,2.516,0.598,4.035    s-0.229,2.861-0.686,4.026c-0.457,1.166-1.072,2.143-1.845,2.931s-1.676,1.386-2.707,1.792c-1.031,0.406-2.126,0.609-3.287,0.609    c-1.207,0-2.311-0.203-3.313-0.609c-1.001-0.406-1.863-1.003-2.583-1.792s-1.28-1.766-1.679-2.931    C25.016,26.934,24.817,25.592,24.817,24.073z M28.069,24.073c0,1.024,0.123,1.942,0.369,2.755    c0.246,0.812,0.594,1.498,1.045,2.057c0.451,0.56,0.987,0.986,1.608,1.28c0.621,0.294,1.312,0.441,2.074,0.441    c0.703,0,1.365-0.147,1.986-0.441c0.621-0.294,1.163-0.721,1.625-1.28c0.463-0.559,0.826-1.245,1.09-2.057    c0.264-0.813,0.396-1.73,0.396-2.755c0-1.036-0.123-1.962-0.369-2.781c-0.246-0.818-0.595-1.513-1.046-2.083    s-0.99-1.006-1.617-1.307c-0.627-0.3-1.315-0.45-2.065-0.45c-0.715,0-1.383,0.15-2.003,0.45c-0.621,0.3-1.16,0.736-1.617,1.307    s-0.817,1.266-1.081,2.083C28.201,22.111,28.069,23.038,28.069,24.073z"/>
	</g>
	<g class="st5">
		<path class="st13" d="M44.087,9.242c0-0.33,0.053-0.639,0.158-0.927c0.105-0.288,0.255-0.541,0.448-0.759    c0.193-0.218,0.425-0.388,0.694-0.512c0.27-0.124,0.568-0.186,0.896-0.186c0.328,0,0.632,0.062,0.914,0.186    c0.281,0.124,0.521,0.294,0.721,0.512c0.199,0.218,0.357,0.471,0.475,0.759c0.117,0.289,0.176,0.598,0.176,0.927    s-0.059,0.639-0.176,0.927c-0.117,0.289-0.275,0.542-0.475,0.759s-0.439,0.389-0.721,0.512s-0.586,0.185-0.914,0.185    c-0.328,0-0.627-0.062-0.896-0.185s-0.501-0.294-0.694-0.512s-0.343-0.471-0.448-0.759C44.14,9.88,44.087,9.571,44.087,9.242z     M47.954,24.603c0,0.565,0.009,1.233,0.026,2.004s0.041,1.551,0.07,2.339s0.064,1.542,0.105,2.26    c0.041,0.718,0.091,1.313,0.149,1.783h-3.603v-9.358c0-0.859-0.003-1.707-0.009-2.542c-0.006-0.835-0.018-1.627-0.035-2.375    c-0.018-0.747-0.044-1.441-0.079-2.083c-0.035-0.641-0.082-1.192-0.141-1.651h3.515V24.603z"/>
	</g>
	<g class="st5">
		<path class="st13" d="M32.422,39.57c0-0.541,0.082-1.02,0.245-1.438c0.163-0.417,0.382-0.77,0.657-1.057    c0.276-0.287,0.597-0.504,0.965-0.651c0.367-0.146,0.758-0.22,1.171-0.22c0.43,0,0.824,0.073,1.181,0.22    c0.357,0.147,0.664,0.364,0.92,0.651s0.456,0.64,0.598,1.057c0.142,0.418,0.213,0.896,0.213,1.438s-0.082,1.02-0.244,1.436    c-0.163,0.414-0.382,0.763-0.658,1.044c-0.275,0.28-0.597,0.493-0.964,0.639c-0.368,0.145-0.758,0.217-1.171,0.217    c-0.43,0-0.824-0.072-1.181-0.217c-0.357-0.146-0.664-0.358-0.921-0.639c-0.256-0.281-0.456-0.63-0.598-1.044    C32.494,40.59,32.422,40.111,32.422,39.57z M33.581,39.57c0,0.365,0.044,0.692,0.132,0.982c0.087,0.289,0.211,0.533,0.373,0.732    c0.161,0.199,0.352,0.352,0.573,0.456s0.468,0.157,0.739,0.157c0.25,0,0.486-0.053,0.708-0.157s0.415-0.257,0.58-0.456    c0.165-0.199,0.294-0.443,0.388-0.732c0.094-0.29,0.141-0.617,0.141-0.982c0-0.369-0.043-0.699-0.131-0.99    s-0.212-0.539-0.373-0.742s-0.353-0.359-0.576-0.466c-0.224-0.106-0.469-0.161-0.736-0.161c-0.255,0-0.493,0.055-0.714,0.161    c-0.222,0.106-0.414,0.263-0.576,0.466c-0.163,0.203-0.292,0.451-0.385,0.742C33.628,38.871,33.581,39.201,33.581,39.57z"/>
		<path class="st13" d="M39.938,34.285c0-0.117,0.019-0.227,0.056-0.33c0.038-0.102,0.091-0.192,0.16-0.27    c0.069-0.078,0.151-0.139,0.247-0.184c0.096-0.043,0.203-0.065,0.319-0.065c0.117,0,0.226,0.022,0.326,0.065    c0.1,0.045,0.186,0.105,0.257,0.184c0.071,0.077,0.127,0.168,0.169,0.27c0.042,0.104,0.063,0.213,0.063,0.33    c0,0.118-0.021,0.229-0.063,0.331c-0.042,0.103-0.098,0.192-0.169,0.271s-0.157,0.139-0.257,0.183s-0.208,0.065-0.326,0.065    c-0.117,0-0.223-0.021-0.319-0.065s-0.178-0.104-0.247-0.183c-0.069-0.078-0.123-0.168-0.16-0.271S39.938,34.403,39.938,34.285z     M41.316,39.76c0,0.201,0.003,0.439,0.009,0.714s0.015,0.553,0.025,0.833c0.011,0.281,0.023,0.551,0.038,0.807    s0.032,0.467,0.053,0.635h-1.284v-3.334c0-0.307-0.001-0.609-0.003-0.906c-0.002-0.298-0.006-0.58-0.013-0.847    s-0.016-0.514-0.028-0.742s-0.029-0.425-0.05-0.589h1.252V39.76z"/>
	</g>
	<g class="st14">
		<path class="st15" d="M45.383,37.471c0.276,0,0.52,0.033,0.732,0.1c0.212,0.066,0.396,0.157,0.551,0.273    c0.155,0.117,0.284,0.254,0.389,0.408c0.104,0.156,0.188,0.324,0.25,0.503c0.063,0.179,0.107,0.366,0.134,0.561    s0.041,0.387,0.041,0.576v0.198c0,0.084-0.001,0.15-0.005,0.197h-3.581c0.01,0.298,0.057,0.557,0.139,0.776    s0.195,0.401,0.338,0.546c0.143,0.144,0.311,0.251,0.505,0.322c0.193,0.07,0.405,0.105,0.634,0.105    c0.327,0,0.646-0.037,0.959-0.111c0.313-0.074,0.625-0.206,0.935-0.396l0.101,0.837c-0.179,0.092-0.354,0.17-0.525,0.234    c-0.172,0.063-0.343,0.116-0.515,0.156c-0.172,0.041-0.346,0.07-0.523,0.09c-0.177,0.018-0.363,0.027-0.558,0.027    c-0.323,0-0.631-0.057-0.924-0.17s-0.551-0.281-0.773-0.502c-0.222-0.223-0.399-0.497-0.53-0.825s-0.197-0.708-0.197-1.142    c0-0.42,0.056-0.799,0.169-1.139s0.273-0.631,0.482-0.873c0.208-0.242,0.463-0.428,0.763-0.559    C44.672,37.537,45.009,37.471,45.383,37.471z M45.307,38.232c-0.37,0-0.673,0.109-0.909,0.327    c-0.236,0.218-0.391,0.558-0.465,1.017h2.636c0-0.216-0.031-0.408-0.093-0.575c-0.063-0.167-0.15-0.309-0.263-0.424    c-0.113-0.114-0.247-0.201-0.401-0.259C45.657,38.262,45.489,38.232,45.307,38.232z"/>
	</g>
	<g class="st5">
		<path class="st13" d="M22.451,6.66c0.223,0.073,0.381,0.188,0.476,0.344c0.067,0.196,0.108,0.338,0.125,0.428    c0.034,0.196,0.05,0.364,0.05,0.503c0,0.134-0.011,0.268-0.033,0.402c0.061,0.062,0.136,0.115,0.225,0.16    c0.078,0.044,0.15,0.067,0.217,0.067c0.083,0,0.145-0.045,0.184-0.134l0.125,0.269c-0.083,0.106-0.181,0.159-0.292,0.159    c-0.083,0-0.175-0.028-0.275-0.084c-0.095-0.028-0.173-0.089-0.234-0.184c-0.117,0.587-0.356,1.006-0.718,1.258    c-0.29,0.196-0.643,0.293-1.061,0.293c-0.49,0-0.879-0.198-1.168-0.595c-0.284-0.358-0.426-0.774-0.426-1.25    c0-0.581,0.156-1.084,0.467-1.509c0.306-0.408,0.721-0.612,1.244-0.612C21.87,6.173,22.234,6.335,22.451,6.66z M21.642,9.821    c0.25,0,0.484-0.112,0.701-0.335c0.228-0.246,0.381-0.579,0.459-0.998c-0.262-0.173-0.462-0.333-0.601-0.478    c-0.201-0.19-0.32-0.38-0.359-0.57c-0.017-0.039-0.025-0.106-0.025-0.201c0-0.106,0.028-0.224,0.083-0.352    c0.061-0.106,0.162-0.176,0.301-0.21c-0.134-0.145-0.332-0.218-0.593-0.218c-0.312,0-0.573,0.188-0.785,0.562    c-0.201,0.402-0.301,0.808-0.301,1.216s0.092,0.758,0.275,1.048C20.993,9.643,21.274,9.821,21.642,9.821z M22.86,8.194    c0.017-0.117,0.025-0.237,0.025-0.36c0-0.218-0.039-0.425-0.117-0.621c-0.095-0.207-0.189-0.311-0.284-0.311    c-0.028,0-0.059,0.011-0.092,0.034c-0.078,0.045-0.117,0.146-0.117,0.302c0,0.168,0.062,0.341,0.184,0.52    C22.571,7.959,22.705,8.105,22.86,8.194z"/>
		<path class="st13" d="M24.071,4.672c0.317,0,0.476,0.159,0.476,0.478c0,0.318-0.159,0.478-0.476,0.478    c-0.289,0-0.434-0.16-0.434-0.478C23.637,4.832,23.782,4.672,24.071,4.672z M24.472,8.807c0,0.352,0.02,0.587,0.059,0.705    c0.05,0.218,0.153,0.327,0.309,0.327c0.201,0,0.393-0.235,0.576-0.705C25.437,9.067,25.461,9,25.486,8.933    c0.025-0.067,0.049-0.131,0.071-0.193c0.028-0.073,0.05-0.134,0.066-0.185c0.017-0.05,0.031-0.087,0.042-0.109l0.142,0.268    c-0.201,0.565-0.326,0.895-0.376,0.99c-0.167,0.291-0.395,0.436-0.685,0.436c-0.707,0-1.06-0.38-1.06-1.141V6.198l0.785,0.009    V8.807z"/>
	</g>
	<g class="st5">
		<path class="st13" d="M55.407,7.99c0,0.487-0.072,0.923-0.216,1.307c-0.144,0.384-0.335,0.71-0.574,0.976    c-0.238,0.267-0.51,0.47-0.814,0.611c-0.304,0.141-0.618,0.211-0.941,0.211c-0.326,0-0.638-0.066-0.938-0.199    c-0.299-0.132-0.563-0.327-0.792-0.584c-0.229-0.257-0.412-0.573-0.549-0.948c-0.137-0.375-0.206-0.806-0.206-1.292    c0-0.325,0.033-0.626,0.099-0.905s0.158-0.533,0.275-0.763c0.117-0.23,0.256-0.434,0.418-0.613s0.337-0.329,0.527-0.451    s0.391-0.214,0.602-0.278c0.211-0.064,0.426-0.096,0.645-0.096c0.32,0,0.629,0.066,0.927,0.199    c0.297,0.132,0.56,0.327,0.788,0.584c0.228,0.257,0.41,0.573,0.545,0.948C55.339,7.072,55.407,7.503,55.407,7.99z M54.62,8.091    c0-0.374-0.042-0.709-0.124-1.009c-0.082-0.299-0.199-0.552-0.35-0.761s-0.332-0.368-0.543-0.479    c-0.211-0.111-0.445-0.167-0.701-0.167s-0.49,0.053-0.703,0.16s-0.396,0.26-0.549,0.459c-0.154,0.199-0.273,0.439-0.358,0.722    c-0.084,0.283-0.127,0.6-0.127,0.952c0,0.371,0.041,0.705,0.123,1.002c0.082,0.298,0.199,0.551,0.352,0.761    c0.152,0.209,0.334,0.371,0.547,0.483s0.451,0.168,0.715,0.168c0.248,0,0.477-0.052,0.687-0.156    c0.21-0.104,0.391-0.254,0.543-0.451c0.152-0.196,0.271-0.436,0.358-0.72C54.576,8.773,54.62,8.451,54.62,8.091z"/>
		<path class="st13" d="M59.185,5.067v0.588h-0.99v4.75h0.99v0.588h-2.728v-0.588h0.97v-4.75h-0.97V5.067H59.185z"/>
	</g>
	<g class="st5">
		<path class="st8" d="M73.658,40.018l1.085,3.376l0.876-3.376h0.772c-0.05,0.16-0.094,0.303-0.131,0.43s-0.073,0.249-0.106,0.365    c-0.033,0.115-0.066,0.229-0.098,0.34c-0.032,0.11-0.066,0.229-0.102,0.354l-0.772,2.789h-0.793l-1.043-3.291l-1.043,3.291h-0.793    l-0.772-2.789c-0.031-0.111-0.062-0.222-0.094-0.33c-0.032-0.109-0.065-0.223-0.1-0.34c-0.035-0.117-0.072-0.244-0.111-0.378    s-0.083-0.28-0.133-0.44h0.772l0.876,3.376l1.085-3.376H73.658z"/>
	</g>
	<g class="st5">
		<path class="st7" d="M80.555,42.072c0,0.529,0.029,0.973,0.088,1.332c0.058,0.359,0.133,0.656,0.225,0.891h-0.73    c-0.014-0.036-0.033-0.086-0.058-0.15s-0.051-0.139-0.077-0.221c-0.027-0.082-0.052-0.172-0.075-0.266    c-0.024-0.096-0.044-0.191-0.061-0.285c-0.108,0.139-0.224,0.271-0.344,0.394c-0.121,0.123-0.249,0.231-0.382,0.327    c-0.133,0.095-0.272,0.17-0.417,0.225c-0.145,0.055-0.292,0.082-0.443,0.082c-0.175,0-0.35-0.039-0.523-0.113    c-0.174-0.076-0.331-0.189-0.47-0.34c-0.139-0.151-0.252-0.341-0.338-0.568c-0.086-0.229-0.129-0.496-0.129-0.803    c0-0.322,0.035-0.613,0.106-0.875c0.071-0.262,0.167-0.494,0.29-0.697c0.108-0.18,0.224-0.336,0.346-0.471    c0.123-0.134,0.257-0.245,0.403-0.333s0.307-0.154,0.482-0.199c0.175-0.044,0.37-0.067,0.584-0.067    c0.106,0,0.224,0.008,0.353,0.023c0.129,0.016,0.262,0.037,0.397,0.064c0.135,0.028,0.269,0.063,0.402,0.102    c0.134,0.039,0.258,0.08,0.372,0.125V42.072z M78.865,40.646c-0.089,0-0.179,0.011-0.269,0.031    c-0.09,0.021-0.18,0.057-0.267,0.107c-0.088,0.051-0.173,0.117-0.255,0.199s-0.159,0.187-0.231,0.313    c-0.075,0.129-0.136,0.289-0.182,0.48s-0.069,0.387-0.069,0.589c0,0.231,0.021,0.431,0.065,0.597    c0.043,0.167,0.1,0.305,0.171,0.412s0.152,0.186,0.242,0.236s0.182,0.076,0.273,0.076c0.117,0,0.244-0.037,0.382-0.109    s0.272-0.17,0.403-0.289c0.131-0.121,0.254-0.26,0.369-0.416c0.116-0.156,0.211-0.318,0.286-0.486v-1.572    c-0.042-0.02-0.095-0.039-0.161-0.059s-0.138-0.037-0.217-0.055c-0.079-0.017-0.166-0.029-0.259-0.039    S78.959,40.646,78.865,40.646z"/>
	</g>
	<g class="st5">
		<path class="st12" d="M81.776,42.668c0-0.208-0.001-0.4-0.005-0.578s-0.011-0.342-0.022-0.49s-0.028-0.283-0.05-0.404    c-0.022-0.121-0.052-0.229-0.09-0.322h0.601c0.024,0.059,0.049,0.141,0.073,0.246c0.025,0.107,0.045,0.237,0.061,0.392    c0.078-0.103,0.163-0.198,0.255-0.285c0.092-0.087,0.19-0.161,0.294-0.224c0.104-0.061,0.212-0.109,0.327-0.145    c0.114-0.034,0.234-0.051,0.359-0.051c0.189,0,0.362,0.041,0.519,0.125c0.157,0.084,0.291,0.201,0.401,0.353    s0.196,0.33,0.257,0.536c0.061,0.207,0.092,0.434,0.092,0.68c0,0.287-0.04,0.545-0.121,0.777c-0.08,0.23-0.188,0.428-0.325,0.592    c-0.137,0.163-0.298,0.289-0.483,0.377c-0.185,0.088-0.382,0.133-0.591,0.133c-0.089,0-0.173-0.01-0.252-0.027    c-0.079-0.018-0.156-0.042-0.23-0.073c-0.075-0.031-0.149-0.069-0.222-0.116c-0.073-0.045-0.15-0.096-0.23-0.152v0.789    c0,0.133,0.002,0.255,0.005,0.363c0.003,0.108,0.009,0.209,0.015,0.301c0.007,0.092,0.016,0.176,0.027,0.253    s0.023,0.151,0.037,0.223h-0.701V42.668z M83.329,43.825c0.118,0,0.231-0.028,0.339-0.084s0.204-0.137,0.287-0.243    c0.083-0.105,0.15-0.234,0.201-0.386c0.05-0.151,0.075-0.321,0.075-0.512c0-0.186-0.017-0.354-0.052-0.505    c-0.034-0.15-0.085-0.279-0.152-0.386c-0.066-0.106-0.147-0.188-0.242-0.247c-0.094-0.058-0.202-0.086-0.322-0.086    c-0.096,0-0.194,0.021-0.294,0.063c-0.1,0.043-0.198,0.105-0.292,0.188c-0.094,0.083-0.183,0.187-0.265,0.311    c-0.083,0.124-0.155,0.267-0.217,0.428v1.057c0.114,0.081,0.212,0.147,0.295,0.2c0.083,0.052,0.16,0.094,0.229,0.123    c0.069,0.031,0.135,0.051,0.199,0.063S83.251,43.825,83.329,43.825z"/>
		<path class="st12" d="M85.683,39.783c0-0.063,0.01-0.121,0.03-0.176s0.048-0.104,0.085-0.145s0.081-0.074,0.132-0.098    s0.108-0.035,0.17-0.035c0.062,0,0.12,0.012,0.173,0.035c0.054,0.023,0.099,0.057,0.137,0.098c0.038,0.041,0.068,0.09,0.09,0.145    c0.022,0.055,0.034,0.113,0.034,0.176s-0.011,0.121-0.034,0.176c-0.022,0.055-0.052,0.104-0.09,0.145    c-0.038,0.041-0.083,0.074-0.137,0.098c-0.053,0.023-0.111,0.035-0.173,0.035c-0.063,0-0.119-0.012-0.17-0.035    s-0.095-0.057-0.132-0.098s-0.065-0.09-0.085-0.145S85.683,39.846,85.683,39.783z M86.418,42.701c0,0.107,0.001,0.234,0.005,0.381    s0.008,0.295,0.013,0.445c0.005,0.149,0.012,0.293,0.02,0.429c0.008,0.137,0.017,0.249,0.028,0.339H85.8v-1.777    c0-0.164,0-0.324-0.001-0.484c-0.001-0.158-0.003-0.309-0.007-0.451c-0.003-0.141-0.008-0.273-0.015-0.395    c-0.006-0.123-0.015-0.227-0.026-0.314h0.668V42.701z"/>
		<path class="st12" d="M87.152,40.957h0.668v-1.09h0.617v1.09h1.086v0.486h-1.086v1.543c0,0.172,0.009,0.313,0.025,0.423    c0.018,0.11,0.043,0.195,0.077,0.257s0.078,0.104,0.132,0.125c0.053,0.023,0.117,0.034,0.193,0.034    c0.096,0,0.204-0.021,0.324-0.063s0.254-0.105,0.4-0.188v0.536c-0.153,0.101-0.301,0.171-0.44,0.21    c-0.141,0.039-0.27,0.059-0.388,0.059c-0.131,0-0.254-0.016-0.367-0.045c-0.113-0.031-0.213-0.084-0.299-0.16    s-0.153-0.177-0.202-0.303c-0.049-0.127-0.073-0.287-0.073-0.482v-1.945h-0.668V40.957z"/>
		<path class="st12" d="M90.357,39.783c0-0.063,0.011-0.121,0.031-0.176c0.02-0.055,0.048-0.104,0.084-0.145    c0.037-0.041,0.081-0.074,0.133-0.098c0.051-0.023,0.107-0.035,0.17-0.035s0.12,0.012,0.174,0.035    c0.053,0.023,0.099,0.057,0.137,0.098c0.037,0.041,0.068,0.09,0.09,0.145c0.022,0.055,0.033,0.113,0.033,0.176    s-0.011,0.121-0.033,0.176c-0.021,0.055-0.053,0.104-0.09,0.145c-0.038,0.041-0.084,0.074-0.137,0.098    c-0.054,0.023-0.111,0.035-0.174,0.035s-0.119-0.012-0.17-0.035c-0.052-0.023-0.096-0.057-0.133-0.098    c-0.036-0.041-0.064-0.09-0.084-0.145C90.368,39.904,90.357,39.846,90.357,39.783z M91.093,42.701    c0,0.107,0.001,0.234,0.005,0.381s0.008,0.295,0.014,0.445c0.005,0.149,0.012,0.293,0.02,0.429    c0.008,0.137,0.018,0.249,0.028,0.339h-0.685v-1.777c0-0.164,0-0.324-0.002-0.484c0-0.158-0.003-0.309-0.006-0.451    c-0.004-0.141-0.009-0.273-0.016-0.395c-0.006-0.123-0.016-0.227-0.026-0.314h0.668V42.701z"/>
	</g>
	<g class="st5">
		<path class="st12" d="M72.022,54.058c0-0.208-0.001-0.401-0.005-0.579s-0.011-0.341-0.022-0.489    c-0.011-0.149-0.028-0.284-0.05-0.404c-0.022-0.12-0.052-0.228-0.09-0.322h0.601c0.024,0.058,0.049,0.141,0.073,0.247    c0.025,0.105,0.045,0.236,0.061,0.391c0.078-0.104,0.163-0.198,0.255-0.285c0.092-0.088,0.19-0.162,0.294-0.223    c0.104-0.063,0.212-0.11,0.327-0.145c0.114-0.035,0.234-0.053,0.359-0.053c0.189,0,0.362,0.043,0.519,0.127    c0.157,0.083,0.291,0.201,0.401,0.352s0.196,0.33,0.257,0.537c0.061,0.207,0.092,0.434,0.092,0.679    c0,0.286-0.04,0.546-0.121,0.776c-0.08,0.232-0.188,0.43-0.325,0.592c-0.137,0.164-0.298,0.289-0.483,0.378    c-0.185,0.089-0.382,0.133-0.591,0.133c-0.089,0-0.173-0.009-0.252-0.026c-0.079-0.019-0.156-0.043-0.23-0.074    c-0.075-0.031-0.149-0.07-0.222-0.115c-0.073-0.047-0.15-0.098-0.23-0.153v0.788c0,0.135,0.002,0.256,0.005,0.364    c0.003,0.108,0.009,0.208,0.015,0.3c0.007,0.092,0.016,0.177,0.027,0.254s0.023,0.151,0.037,0.223h-0.701V54.058z M73.575,55.215    c0.118,0,0.231-0.027,0.339-0.084c0.108-0.056,0.204-0.137,0.287-0.243s0.15-0.235,0.201-0.386c0.05-0.15,0.075-0.321,0.075-0.512    c0-0.186-0.017-0.354-0.052-0.504c-0.034-0.152-0.085-0.28-0.152-0.387c-0.066-0.105-0.147-0.188-0.242-0.246    c-0.094-0.059-0.202-0.088-0.322-0.088c-0.096,0-0.194,0.021-0.294,0.064c-0.1,0.042-0.198,0.105-0.292,0.188    c-0.094,0.083-0.183,0.186-0.265,0.311c-0.083,0.124-0.155,0.267-0.217,0.428v1.057c0.114,0.08,0.212,0.146,0.295,0.199    s0.16,0.094,0.229,0.125c0.069,0.029,0.135,0.051,0.199,0.062S73.497,55.215,73.575,55.215z"/>
	</g>
	<g class="st5">
		<path class="st11" d="M75.783,53.566c0-0.359,0.054-0.68,0.163-0.957c0.109-0.279,0.255-0.514,0.438-0.705    s0.398-0.336,0.643-0.434c0.245-0.098,0.505-0.146,0.781-0.146c0.287,0,0.549,0.049,0.787,0.146    c0.238,0.098,0.442,0.242,0.614,0.434c0.171,0.191,0.304,0.426,0.398,0.705c0.095,0.277,0.142,0.598,0.142,0.957    c0,0.361-0.054,0.68-0.163,0.957c-0.109,0.276-0.255,0.508-0.438,0.695s-0.398,0.33-0.643,0.426    c-0.245,0.097-0.505,0.145-0.781,0.145c-0.287,0-0.549-0.048-0.787-0.145c-0.238-0.096-0.442-0.238-0.614-0.426    c-0.171-0.188-0.304-0.419-0.398-0.695C75.83,54.246,75.783,53.928,75.783,53.566z M76.555,53.566    c0,0.244,0.029,0.462,0.087,0.654c0.059,0.193,0.141,0.355,0.249,0.488c0.107,0.133,0.234,0.234,0.382,0.305    s0.312,0.105,0.493,0.105c0.167,0,0.324-0.035,0.471-0.105s0.276-0.172,0.386-0.305s0.196-0.295,0.259-0.488    c0.063-0.192,0.094-0.41,0.094-0.654c0-0.246-0.029-0.465-0.088-0.66c-0.059-0.193-0.141-0.359-0.249-0.494    c-0.107-0.136-0.235-0.239-0.384-0.311s-0.313-0.107-0.49-0.107c-0.17,0-0.329,0.036-0.476,0.107s-0.275,0.175-0.384,0.311    c-0.109,0.135-0.194,0.301-0.257,0.494C76.586,53.102,76.555,53.32,76.555,53.566z"/>
	</g>
	<g class="st5">
		<path class="st15" d="M82.564,51.324c0.228,0,0.43,0.027,0.605,0.081c0.175,0.055,0.327,0.13,0.455,0.227    c0.128,0.097,0.235,0.209,0.321,0.337c0.086,0.129,0.155,0.268,0.207,0.416c0.051,0.148,0.088,0.303,0.11,0.463    c0.022,0.161,0.034,0.32,0.034,0.477v0.163c0,0.069-0.001,0.124-0.004,0.163h-2.959c0.008,0.246,0.046,0.461,0.115,0.643    c0.068,0.182,0.161,0.332,0.279,0.45s0.257,0.208,0.417,0.267s0.334,0.088,0.524,0.088c0.27,0,0.534-0.031,0.793-0.092    c0.259-0.063,0.516-0.171,0.772-0.328l0.083,0.692c-0.148,0.075-0.292,0.14-0.434,0.192c-0.142,0.054-0.284,0.097-0.426,0.131    c-0.142,0.033-0.286,0.058-0.432,0.072c-0.146,0.016-0.3,0.023-0.461,0.023c-0.267,0-0.521-0.047-0.764-0.141    s-0.455-0.231-0.639-0.414c-0.184-0.184-0.33-0.41-0.438-0.682c-0.108-0.271-0.163-0.586-0.163-0.943    c0-0.348,0.046-0.661,0.14-0.941c0.093-0.281,0.226-0.521,0.399-0.722c0.172-0.2,0.382-0.354,0.63-0.462    C81.978,51.377,82.256,51.324,82.564,51.324z M80.766,50.778l1.419-1.803h0.71l1.419,1.803h-0.626l-1.148-1.174l-1.148,1.174    H80.766z M82.502,51.953c-0.306,0-0.557,0.09-0.751,0.27c-0.195,0.181-0.323,0.461-0.384,0.842h2.179    c0-0.18-0.026-0.338-0.077-0.477c-0.052-0.139-0.124-0.255-0.217-0.35c-0.093-0.096-0.204-0.167-0.332-0.215    C82.792,51.977,82.652,51.953,82.502,51.953z"/>
	</g>
	<g class="st5">
		<path class="st12" d="M85.996,54.092c0,0.106,0.001,0.232,0.005,0.379c0.003,0.145,0.008,0.293,0.013,0.442    s0.012,0.293,0.02,0.429c0.008,0.137,0.017,0.251,0.028,0.343h-0.685v-3.79c0-0.327-0.005-0.623-0.017-0.889    c-0.011-0.264-0.028-0.494-0.05-0.688h0.685V54.092z"/>
		<path class="st12" d="M88.55,52.195c0.183,0,0.345,0.022,0.484,0.066c0.14,0.043,0.262,0.104,0.364,0.181    c0.102,0.077,0.188,0.167,0.257,0.271c0.069,0.103,0.124,0.213,0.165,0.332c0.041,0.118,0.07,0.242,0.089,0.37    c0.018,0.129,0.026,0.256,0.026,0.381v0.131c0,0.056-0.001,0.1-0.004,0.131h-2.367c0.007,0.196,0.037,0.368,0.092,0.513    c0.055,0.146,0.129,0.266,0.224,0.361c0.095,0.095,0.206,0.166,0.334,0.213c0.127,0.047,0.268,0.07,0.418,0.07    c0.217,0,0.428-0.024,0.635-0.074c0.207-0.049,0.413-0.136,0.618-0.262l0.067,0.555c-0.119,0.06-0.234,0.111-0.348,0.154    c-0.113,0.042-0.228,0.076-0.341,0.104c-0.114,0.027-0.229,0.047-0.346,0.059s-0.239,0.019-0.369,0.019    c-0.214,0-0.417-0.038-0.611-0.112c-0.194-0.075-0.364-0.186-0.511-0.332c-0.146-0.146-0.264-0.328-0.351-0.545    c-0.086-0.217-0.13-0.469-0.13-0.756c0-0.277,0.037-0.527,0.112-0.752c0.074-0.225,0.181-0.418,0.319-0.578    c0.138-0.159,0.306-0.282,0.504-0.369C88.08,52.238,88.303,52.195,88.55,52.195z M88.5,52.699c-0.245,0-0.445,0.072-0.601,0.217    c-0.156,0.144-0.258,0.367-0.307,0.672h1.742c0-0.143-0.02-0.27-0.061-0.381c-0.042-0.11-0.1-0.204-0.174-0.279    c-0.075-0.076-0.164-0.134-0.266-0.172C88.731,52.718,88.62,52.699,88.5,52.699z"/>
	</g>
	<g class="st5">
		<path class="st12" d="M110.879,44.295h-0.619v-1.912c0-0.208-0.008-0.377-0.022-0.505c-0.016-0.128-0.042-0.229-0.079-0.302    c-0.036-0.072-0.086-0.121-0.148-0.146c-0.063-0.024-0.141-0.037-0.233-0.037c-0.083,0-0.165,0.018-0.247,0.051    s-0.161,0.081-0.235,0.143c-0.075,0.062-0.144,0.135-0.207,0.219s-0.118,0.176-0.162,0.276v2.214h-0.618v-2.063    c0-0.332-0.019-0.611-0.057-0.841c-0.037-0.229-0.074-0.401-0.109-0.519h0.601c0.024,0.072,0.046,0.156,0.063,0.254    c0.018,0.097,0.032,0.186,0.043,0.266c0.103-0.118,0.201-0.215,0.294-0.291c0.094-0.076,0.187-0.137,0.278-0.18    c0.094-0.043,0.186-0.074,0.276-0.091s0.185-0.024,0.28-0.024c0.109,0,0.208,0.016,0.297,0.047    c0.09,0.031,0.168,0.072,0.236,0.123c0.067,0.053,0.126,0.111,0.175,0.18s0.087,0.14,0.113,0.213    c0.104-0.113,0.206-0.207,0.304-0.279s0.193-0.13,0.287-0.172c0.094-0.041,0.186-0.07,0.275-0.087    c0.091-0.017,0.18-0.024,0.266-0.024c0.17,0,0.313,0.027,0.428,0.082s0.209,0.135,0.279,0.242s0.119,0.241,0.15,0.4    c0.029,0.158,0.045,0.342,0.045,0.55v2.214h-0.618v-1.846c0-0.217-0.008-0.393-0.023-0.529s-0.042-0.244-0.079-0.322    c-0.036-0.078-0.086-0.132-0.148-0.16c-0.063-0.029-0.14-0.045-0.233-0.045c-0.082,0-0.163,0.017-0.243,0.049    c-0.08,0.033-0.158,0.078-0.232,0.138s-0.144,0.132-0.207,0.217s-0.119,0.18-0.168,0.285V44.295z"/>
	</g>
	<g class="st5">
		<path class="st11" d="M113.594,42.178c0-0.361,0.055-0.68,0.162-0.959c0.109-0.277,0.256-0.513,0.439-0.704    s0.397-0.336,0.643-0.435c0.244-0.098,0.505-0.146,0.78-0.146c0.286,0,0.549,0.049,0.786,0.146    c0.238,0.099,0.443,0.243,0.614,0.435s0.304,0.427,0.398,0.704c0.095,0.279,0.142,0.598,0.142,0.959    c0,0.36-0.054,0.679-0.162,0.955c-0.109,0.277-0.255,0.51-0.438,0.697c-0.184,0.187-0.397,0.328-0.643,0.425    s-0.505,0.146-0.78,0.146c-0.287,0-0.549-0.049-0.787-0.146s-0.442-0.238-0.613-0.425c-0.172-0.188-0.305-0.42-0.398-0.697    C113.641,42.856,113.594,42.538,113.594,42.178z M114.366,42.178c0,0.242,0.028,0.461,0.087,0.654    c0.059,0.192,0.142,0.355,0.249,0.488c0.106,0.133,0.234,0.234,0.382,0.304s0.312,0.104,0.492,0.104    c0.167,0,0.324-0.035,0.472-0.104s0.276-0.171,0.386-0.304c0.11-0.133,0.197-0.296,0.26-0.488    c0.063-0.193,0.094-0.412,0.094-0.654c0-0.246-0.029-0.467-0.088-0.66c-0.059-0.195-0.141-0.359-0.248-0.496    c-0.107-0.135-0.235-0.238-0.385-0.31c-0.148-0.071-0.313-0.106-0.49-0.106c-0.17,0-0.328,0.035-0.476,0.106    s-0.275,0.175-0.384,0.31c-0.109,0.137-0.194,0.301-0.257,0.496C114.397,41.711,114.366,41.932,114.366,42.178z"/>
	</g>
	<g class="st5">
		<path class="st15" d="M120.076,39.934c0.229,0,0.431,0.027,0.605,0.082c0.176,0.055,0.327,0.13,0.455,0.227    c0.129,0.096,0.235,0.209,0.322,0.338c0.086,0.129,0.154,0.267,0.206,0.414c0.052,0.148,0.089,0.303,0.11,0.464    c0.022,0.161,0.033,0.319,0.033,0.476v0.164c0,0.07-0.001,0.125-0.004,0.164h-2.959c0.008,0.246,0.047,0.459,0.115,0.641    c0.067,0.182,0.16,0.332,0.279,0.451c0.117,0.119,0.257,0.207,0.417,0.266c0.16,0.06,0.335,0.089,0.524,0.089    c0.27,0,0.533-0.03,0.793-0.093c0.258-0.061,0.516-0.17,0.771-0.326l0.084,0.691c-0.148,0.075-0.293,0.14-0.434,0.193    c-0.143,0.053-0.285,0.096-0.426,0.129c-0.143,0.034-0.287,0.059-0.433,0.074s-0.3,0.023-0.462,0.023    c-0.267,0-0.521-0.047-0.764-0.141s-0.455-0.232-0.639-0.416c-0.184-0.183-0.329-0.41-0.438-0.682    c-0.109-0.271-0.163-0.585-0.163-0.943c0-0.346,0.046-0.66,0.14-0.941c0.094-0.28,0.227-0.521,0.398-0.721    c0.173-0.199,0.383-0.354,0.631-0.461S119.768,39.934,120.076,39.934z M120.014,40.563c-0.306,0-0.557,0.09-0.751,0.271    c-0.194,0.18-0.323,0.46-0.384,0.84h2.179c0-0.179-0.026-0.338-0.077-0.476c-0.052-0.138-0.124-0.255-0.217-0.351    c-0.094-0.095-0.204-0.166-0.332-0.213C120.304,40.587,120.164,40.563,120.014,40.563z"/>
	</g>
	<g class="st14">
		<path class="st15" d="M123.508,42.701c0,0.107,0.002,0.234,0.005,0.379c0.003,0.146,0.008,0.293,0.013,0.443    c0.006,0.15,0.013,0.293,0.021,0.43s0.017,0.25,0.028,0.342h-0.685v-3.791c0-0.326-0.005-0.622-0.017-0.887    c-0.012-0.266-0.027-0.495-0.05-0.689h0.685V42.701z"/>
	</g>
	<g class="st5">
		<path class="st12" d="M125.399,42.701c0,0.107,0.001,0.234,0.005,0.379c0.004,0.146,0.008,0.293,0.014,0.443    c0.005,0.15,0.012,0.293,0.02,0.43s0.018,0.25,0.028,0.342h-0.685v-3.791c0-0.326-0.006-0.622-0.017-0.887    c-0.011-0.266-0.028-0.495-0.05-0.689h0.685V42.701z"/>
		<path class="st12" d="M127.953,40.807c0.184,0,0.345,0.021,0.484,0.064c0.141,0.044,0.262,0.104,0.364,0.182    s0.188,0.167,0.257,0.27c0.069,0.104,0.125,0.214,0.166,0.332c0.041,0.119,0.07,0.242,0.088,0.371s0.027,0.256,0.027,0.381v0.131    c0,0.057-0.002,0.1-0.004,0.131h-2.367c0.007,0.197,0.037,0.367,0.092,0.514c0.055,0.145,0.129,0.266,0.224,0.36    s0.206,0.166,0.334,0.213s0.268,0.07,0.419,0.07c0.216,0,0.428-0.024,0.635-0.073c0.207-0.05,0.412-0.137,0.617-0.262l0.067,0.553    c-0.118,0.061-0.233,0.112-0.348,0.154c-0.113,0.043-0.228,0.078-0.341,0.104s-0.229,0.046-0.346,0.059    c-0.116,0.013-0.239,0.019-0.369,0.019c-0.213,0-0.417-0.037-0.61-0.112c-0.194-0.075-0.364-0.187-0.511-0.333    c-0.146-0.146-0.264-0.328-0.352-0.545c-0.086-0.217-0.129-0.468-0.129-0.754c0-0.277,0.037-0.529,0.111-0.754    s0.181-0.416,0.318-0.576c0.139-0.16,0.307-0.283,0.505-0.369S127.707,40.807,127.953,40.807z M127.904,41.309    c-0.246,0-0.445,0.072-0.602,0.217s-0.258,0.369-0.307,0.673h1.742c0-0.144-0.021-0.271-0.062-0.381    c-0.042-0.11-0.099-0.204-0.174-0.28s-0.163-0.133-0.265-0.171C128.135,41.328,128.023,41.309,127.904,41.309z"/>
	</g>
	<g class="st5">
		<path class="st12" d="M109.39,52.195c0.223,0,0.415,0.027,0.575,0.079c0.162,0.053,0.305,0.122,0.426,0.206l-0.116,0.604    c-0.151-0.112-0.302-0.196-0.45-0.252c-0.15-0.056-0.311-0.084-0.484-0.084c-0.149,0-0.288,0.028-0.416,0.086    c-0.128,0.057-0.239,0.14-0.334,0.247c-0.095,0.106-0.168,0.238-0.223,0.395c-0.053,0.157-0.08,0.334-0.08,0.531    c0,0.181,0.025,0.345,0.074,0.492c0.049,0.148,0.119,0.275,0.21,0.381c0.091,0.106,0.202,0.188,0.331,0.247    c0.129,0.058,0.274,0.087,0.438,0.087c0.202,0,0.386-0.035,0.551-0.104c0.164-0.07,0.32-0.17,0.467-0.299l0.067,0.587    c-0.085,0.065-0.169,0.12-0.253,0.166c-0.082,0.046-0.17,0.084-0.262,0.114c-0.091,0.03-0.189,0.053-0.293,0.066    c-0.105,0.016-0.22,0.022-0.345,0.022c-0.225,0-0.435-0.04-0.631-0.119s-0.367-0.194-0.515-0.344    c-0.146-0.149-0.262-0.331-0.347-0.544c-0.085-0.212-0.127-0.453-0.127-0.721c0-0.253,0.04-0.491,0.122-0.715    c0.081-0.224,0.197-0.42,0.348-0.587c0.149-0.168,0.332-0.3,0.547-0.397S109.125,52.195,109.39,52.195z"/>
		<path class="st12" d="M111.26,55.685v-2.063c0-0.33-0.02-0.611-0.056-0.84c-0.036-0.229-0.073-0.402-0.112-0.519h0.602    c0.027,0.063,0.051,0.142,0.072,0.237c0.021,0.094,0.039,0.2,0.053,0.316c0.015,0.116,0.025,0.24,0.031,0.372    c0.008,0.132,0.011,0.265,0.011,0.399v0.219c0.113-0.316,0.225-0.577,0.334-0.784c0.108-0.206,0.218-0.372,0.325-0.495    c0.108-0.123,0.217-0.209,0.326-0.258s0.221-0.074,0.334-0.074c0.084,0,0.162,0.008,0.233,0.023s0.144,0.042,0.217,0.078    l-0.101,0.62c-0.064-0.026-0.121-0.045-0.17-0.054s-0.109-0.014-0.18-0.014c-0.092,0-0.188,0.039-0.287,0.116    c-0.101,0.077-0.199,0.179-0.296,0.307s-0.188,0.272-0.275,0.433c-0.087,0.161-0.163,0.326-0.229,0.495    c-0.064,0.169-0.117,0.333-0.156,0.495c-0.039,0.16-0.059,0.304-0.059,0.43c0,0.055,0,0.107,0.002,0.154    c0.001,0.047,0.004,0.092,0.01,0.135c0.006,0.044,0.013,0.088,0.021,0.131c0.01,0.044,0.021,0.09,0.033,0.14H111.26z"/>
	</g>
	<g class="st5">
		<path class="st11" d="M114.104,53.566c0-0.359,0.054-0.68,0.162-0.957c0.109-0.279,0.255-0.514,0.438-0.705    s0.397-0.336,0.643-0.434s0.505-0.146,0.78-0.146c0.287,0,0.549,0.049,0.787,0.146s0.442,0.242,0.613,0.434    c0.172,0.191,0.305,0.426,0.398,0.705c0.096,0.277,0.143,0.598,0.143,0.957c0,0.361-0.055,0.68-0.162,0.957    c-0.109,0.276-0.256,0.508-0.439,0.695s-0.397,0.33-0.643,0.426c-0.244,0.097-0.505,0.145-0.78,0.145    c-0.286,0-0.549-0.048-0.786-0.145c-0.238-0.096-0.443-0.238-0.614-0.426s-0.304-0.419-0.398-0.695    C114.15,54.246,114.104,53.928,114.104,53.566z M114.875,53.566c0,0.244,0.029,0.462,0.088,0.654    c0.059,0.193,0.141,0.355,0.248,0.488s0.234,0.234,0.383,0.305c0.146,0.07,0.311,0.105,0.492,0.105    c0.166,0,0.324-0.035,0.471-0.105c0.148-0.07,0.277-0.172,0.387-0.305s0.196-0.295,0.259-0.488    c0.063-0.192,0.095-0.41,0.095-0.654c0-0.246-0.029-0.465-0.088-0.66c-0.059-0.193-0.142-0.359-0.249-0.494    c-0.106-0.136-0.235-0.239-0.384-0.311s-0.313-0.107-0.49-0.107c-0.17,0-0.328,0.036-0.477,0.107    c-0.146,0.071-0.275,0.175-0.383,0.311c-0.109,0.135-0.195,0.301-0.258,0.494C114.906,53.102,114.875,53.32,114.875,53.566z"/>
	</g>
	<g class="st5">
		<path class="st15" d="M117.816,50.778l1.42-1.803h0.709l1.419,1.803h-0.626l-1.148-1.174l-1.146,1.174H117.816z M119.967,53.693    c0,0.134,0.002,0.293,0.006,0.476s0.01,0.368,0.017,0.556s0.015,0.365,0.024,0.537c0.01,0.17,0.021,0.311,0.036,0.423h-0.856    v-2.223c0-0.204,0-0.405-0.002-0.604c-0.001-0.198-0.004-0.387-0.008-0.563c-0.004-0.178-0.011-0.343-0.02-0.496    c-0.008-0.152-0.02-0.282-0.033-0.392h0.836V53.693z"/>
	</g>
	<g class="st5">
		<path class="st12" d="M120.774,52.347h0.668v-1.091h0.618v1.091h1.085v0.486h-1.085v1.544c0,0.172,0.008,0.313,0.024,0.422    s0.042,0.195,0.077,0.257c0.034,0.062,0.078,0.104,0.132,0.126c0.054,0.021,0.118,0.033,0.193,0.033    c0.096,0,0.204-0.021,0.324-0.063s0.254-0.105,0.4-0.188V55.5c-0.153,0.101-0.3,0.17-0.44,0.21    c-0.141,0.039-0.27,0.059-0.388,0.059c-0.132,0-0.253-0.015-0.367-0.046c-0.113-0.029-0.213-0.083-0.299-0.158    c-0.085-0.076-0.153-0.178-0.202-0.305c-0.049-0.126-0.073-0.287-0.073-0.48v-1.946h-0.668V52.347z"/>
		<path class="st12" d="M123.98,55.685v-2.063c0-0.33-0.02-0.611-0.056-0.84c-0.036-0.229-0.073-0.402-0.112-0.519h0.602    c0.027,0.063,0.051,0.142,0.072,0.237c0.021,0.094,0.039,0.2,0.053,0.316c0.015,0.116,0.025,0.24,0.031,0.372    c0.008,0.132,0.011,0.265,0.011,0.399v0.219c0.113-0.316,0.225-0.577,0.334-0.784c0.108-0.206,0.218-0.372,0.325-0.495    c0.108-0.123,0.217-0.209,0.326-0.258s0.221-0.074,0.334-0.074c0.084,0,0.162,0.008,0.233,0.023s0.144,0.042,0.217,0.078    l-0.101,0.62c-0.064-0.026-0.121-0.045-0.17-0.054s-0.109-0.014-0.18-0.014c-0.092,0-0.188,0.039-0.287,0.116    c-0.101,0.077-0.199,0.179-0.296,0.307s-0.188,0.272-0.275,0.433c-0.087,0.161-0.163,0.326-0.229,0.495    c-0.064,0.169-0.117,0.333-0.156,0.495c-0.039,0.16-0.059,0.304-0.059,0.43c0,0.055,0,0.107,0.002,0.154    c0.001,0.047,0.004,0.092,0.01,0.135c0.006,0.044,0.013,0.088,0.021,0.131c0.01,0.044,0.021,0.09,0.033,0.14H123.98z"/>
		<path class="st12" d="M128.354,52.195c0.183,0,0.345,0.022,0.484,0.066c0.14,0.043,0.262,0.104,0.364,0.181    c0.102,0.077,0.188,0.167,0.257,0.271c0.069,0.103,0.124,0.213,0.165,0.332c0.041,0.118,0.07,0.242,0.089,0.37    c0.018,0.129,0.026,0.256,0.026,0.381v0.131c0,0.056-0.001,0.1-0.004,0.131h-2.367c0.008,0.196,0.037,0.368,0.092,0.513    c0.055,0.146,0.129,0.266,0.225,0.361c0.094,0.095,0.205,0.166,0.334,0.213c0.127,0.047,0.268,0.07,0.418,0.07    c0.217,0,0.428-0.024,0.635-0.074c0.207-0.049,0.413-0.136,0.618-0.262l0.067,0.555c-0.119,0.06-0.234,0.111-0.348,0.154    c-0.113,0.042-0.228,0.076-0.341,0.104c-0.114,0.027-0.229,0.047-0.346,0.059s-0.239,0.019-0.369,0.019    c-0.214,0-0.417-0.038-0.61-0.112c-0.194-0.075-0.365-0.186-0.512-0.332s-0.264-0.328-0.351-0.545s-0.13-0.469-0.13-0.756    c0-0.277,0.037-0.527,0.111-0.752s0.182-0.418,0.319-0.578c0.138-0.159,0.306-0.282,0.505-0.369    C127.885,52.238,128.107,52.195,128.354,52.195z M128.305,52.699c-0.245,0-0.445,0.072-0.602,0.217    c-0.155,0.144-0.258,0.367-0.307,0.672h1.742c0-0.143-0.02-0.27-0.061-0.381c-0.042-0.11-0.1-0.204-0.174-0.279    c-0.075-0.076-0.164-0.134-0.266-0.172C128.536,52.718,128.425,52.699,128.305,52.699z"/>
	</g>
	<g>
		<g class="st5">
			<path class="st7" d="M156.823,20c0,0.634,0.035,1.167,0.104,1.598c0.07,0.431,0.161,0.788,0.271,1.069h-0.877     c-0.017-0.043-0.04-0.104-0.07-0.181c-0.029-0.077-0.061-0.165-0.092-0.264c-0.032-0.099-0.063-0.206-0.091-0.319     c-0.028-0.114-0.053-0.229-0.073-0.342c-0.129,0.167-0.268,0.325-0.412,0.473c-0.146,0.147-0.299,0.278-0.459,0.392     c-0.16,0.114-0.327,0.204-0.5,0.27c-0.174,0.065-0.352,0.098-0.531,0.098c-0.211,0-0.42-0.045-0.629-0.136     c-0.209-0.09-0.396-0.226-0.563-0.407s-0.302-0.409-0.405-0.682s-0.156-0.594-0.156-0.963c0-0.386,0.043-0.735,0.129-1.049     c0.084-0.313,0.201-0.593,0.348-0.838c0.13-0.214,0.269-0.402,0.416-0.563c0.146-0.161,0.308-0.294,0.482-0.4     c0.176-0.106,0.369-0.186,0.579-0.239s0.444-0.081,0.701-0.081c0.127,0,0.269,0.009,0.423,0.028     c0.156,0.019,0.314,0.044,0.477,0.078s0.322,0.074,0.482,0.121s0.31,0.097,0.446,0.151V20z M154.795,18.289     c-0.107,0-0.215,0.013-0.323,0.038c-0.108,0.025-0.216,0.068-0.321,0.128c-0.104,0.061-0.207,0.14-0.305,0.239     c-0.099,0.099-0.191,0.224-0.278,0.375c-0.09,0.154-0.163,0.346-0.218,0.576c-0.055,0.229-0.082,0.465-0.082,0.707     c0,0.278,0.025,0.517,0.077,0.717s0.12,0.364,0.205,0.493c0.085,0.129,0.183,0.224,0.29,0.284     c0.109,0.061,0.219,0.091,0.328,0.091c0.141,0,0.293-0.043,0.459-0.131c0.165-0.087,0.326-0.203,0.483-0.347     c0.157-0.145,0.305-0.311,0.443-0.499c0.138-0.188,0.253-0.382,0.343-0.583V18.49c-0.05-0.023-0.114-0.047-0.193-0.071     c-0.078-0.023-0.164-0.045-0.26-0.065s-0.199-0.036-0.311-0.048C155.021,18.294,154.908,18.289,154.795,18.289z"/>
		</g>
		<g class="st5">
			<path class="st12" d="M141.688,26.441c0.183,0,0.345,0.022,0.484,0.065s0.262,0.104,0.364,0.181     c0.102,0.077,0.188,0.167,0.257,0.27s0.124,0.213,0.165,0.332s0.07,0.242,0.089,0.371c0.018,0.129,0.026,0.256,0.026,0.381v0.131     c0,0.056-0.001,0.1-0.004,0.131h-2.367c0.008,0.197,0.037,0.368,0.092,0.513s0.129,0.266,0.225,0.361     c0.094,0.095,0.205,0.166,0.334,0.213c0.127,0.047,0.268,0.07,0.418,0.07c0.217,0,0.428-0.024,0.635-0.074     s0.413-0.136,0.618-0.262l0.067,0.554c-0.119,0.06-0.234,0.112-0.348,0.154s-0.228,0.077-0.341,0.104     c-0.114,0.027-0.229,0.046-0.346,0.059s-0.239,0.019-0.369,0.019c-0.214,0-0.417-0.038-0.61-0.112     c-0.194-0.075-0.365-0.186-0.512-0.333c-0.146-0.146-0.264-0.328-0.351-0.545s-0.13-0.468-0.13-0.755     c0-0.277,0.037-0.528,0.111-0.753s0.182-0.417,0.319-0.577c0.138-0.16,0.306-0.283,0.505-0.369     C141.219,26.484,141.441,26.441,141.688,26.441z M141.639,26.944c-0.245,0-0.445,0.072-0.602,0.217     c-0.155,0.144-0.258,0.368-0.307,0.672h1.742c0-0.143-0.02-0.27-0.061-0.381c-0.042-0.11-0.1-0.204-0.174-0.28     c-0.075-0.076-0.164-0.133-0.266-0.171C141.87,26.963,141.759,26.944,141.639,26.944z M143.004,24.563l-1.402,1.442h-0.534     l1.169-1.442H143.004z"/>
		</g>
		<g class="st5">
			<path class="st8" d="M146.725,30.434c0,0.134,0.001,0.255,0.004,0.364c0.004,0.108,0.009,0.208,0.016,0.3     s0.016,0.176,0.027,0.253c0.01,0.077,0.023,0.151,0.036,0.223h-0.701V29.46c-0.174,0.204-0.34,0.347-0.497,0.43     c-0.158,0.083-0.315,0.124-0.471,0.124c-0.154,0-0.311-0.03-0.469-0.091c-0.158-0.06-0.301-0.154-0.43-0.28     c-0.13-0.126-0.234-0.287-0.316-0.481c-0.081-0.195-0.121-0.425-0.121-0.691c0-0.257,0.033-0.507,0.1-0.751     c0.066-0.244,0.17-0.46,0.311-0.649s0.32-0.341,0.539-0.456c0.22-0.115,0.482-0.173,0.787-0.173c0.1,0,0.201,0.007,0.304,0.022     c0.103,0.014,0.204,0.034,0.304,0.059c0.1,0.024,0.199,0.052,0.295,0.082c0.098,0.03,0.191,0.06,0.283,0.089V30.434z      M145.438,27.012c-0.183,0-0.339,0.038-0.468,0.112c-0.129,0.075-0.234,0.173-0.315,0.295c-0.081,0.122-0.141,0.26-0.179,0.414     c-0.037,0.154-0.057,0.311-0.057,0.47c0,0.208,0.023,0.385,0.068,0.53c0.046,0.146,0.105,0.264,0.179,0.354     c0.073,0.091,0.155,0.156,0.247,0.196c0.092,0.041,0.183,0.061,0.273,0.061c0.154,0,0.311-0.062,0.471-0.185     c0.161-0.123,0.311-0.308,0.448-0.554v-1.56c-0.101-0.038-0.211-0.07-0.333-0.096C145.652,27.024,145.541,27.012,145.438,27.012z     "/>
			<path class="st8" d="M148.811,30.014c-0.712,0-1.068-0.481-1.068-1.442v-0.99c0-0.107,0-0.205-0.001-0.292     s-0.004-0.171-0.009-0.253c-0.004-0.082-0.011-0.165-0.02-0.25c-0.01-0.085-0.021-0.178-0.037-0.279h0.685v1.862     c0,0.19,0.009,0.354,0.028,0.492c0.02,0.137,0.051,0.25,0.096,0.339c0.044,0.088,0.103,0.154,0.175,0.196     s0.162,0.063,0.269,0.063c0.098,0,0.203-0.029,0.314-0.089c0.111-0.059,0.217-0.135,0.318-0.227     c0.102-0.091,0.193-0.193,0.277-0.303c0.084-0.111,0.147-0.218,0.192-0.321v-0.939c0-0.11-0.001-0.208-0.002-0.297     s-0.004-0.173-0.009-0.253c-0.004-0.081-0.011-0.162-0.02-0.245c-0.009-0.083-0.021-0.176-0.037-0.279h0.686v1.912     c0,0.327,0.018,0.612,0.055,0.857c0.037,0.245,0.09,0.462,0.162,0.652h-0.568c-0.016-0.038-0.032-0.083-0.05-0.134     c-0.019-0.051-0.035-0.106-0.052-0.164c-0.017-0.059-0.032-0.119-0.047-0.183c-0.014-0.063-0.025-0.127-0.035-0.189     c-0.202,0.248-0.411,0.436-0.626,0.563S149.047,30.014,148.811,30.014z"/>
		</g>
		<g class="st5">
			<path class="st7" d="M155.29,27.708c0,0.529,0.029,0.972,0.088,1.332c0.058,0.359,0.134,0.656,0.226,0.891h-0.73     c-0.014-0.036-0.033-0.086-0.059-0.151s-0.051-0.138-0.077-0.22s-0.052-0.171-0.075-0.266c-0.023-0.095-0.044-0.19-0.061-0.285     c-0.108,0.14-0.224,0.271-0.344,0.394c-0.121,0.123-0.249,0.232-0.383,0.327c-0.133,0.095-0.272,0.17-0.417,0.224     c-0.146,0.055-0.292,0.082-0.442,0.082c-0.176,0-0.35-0.038-0.523-0.113c-0.175-0.076-0.331-0.189-0.471-0.34     c-0.139-0.151-0.252-0.34-0.338-0.568c-0.086-0.228-0.129-0.496-0.129-0.803c0-0.321,0.035-0.613,0.106-0.875     c0.071-0.261,0.167-0.494,0.29-0.698c0.108-0.179,0.224-0.335,0.346-0.47c0.123-0.134,0.258-0.246,0.403-0.333     s0.307-0.154,0.481-0.199c0.176-0.044,0.371-0.067,0.585-0.067c0.106,0,0.224,0.008,0.353,0.023s0.262,0.037,0.396,0.065     s0.27,0.062,0.402,0.101c0.135,0.039,0.258,0.081,0.372,0.126V27.708z M153.6,26.282c-0.089,0-0.179,0.01-0.27,0.031     c-0.09,0.021-0.18,0.057-0.267,0.107c-0.088,0.05-0.173,0.117-0.255,0.199s-0.159,0.187-0.231,0.313     c-0.075,0.128-0.136,0.289-0.182,0.48s-0.069,0.388-0.069,0.589c0,0.232,0.021,0.431,0.065,0.597     c0.043,0.167,0.101,0.304,0.171,0.411s0.152,0.187,0.242,0.237s0.182,0.076,0.273,0.076c0.117,0,0.244-0.037,0.382-0.109     c0.138-0.072,0.272-0.169,0.403-0.289s0.254-0.259,0.369-0.415c0.115-0.157,0.211-0.319,0.285-0.486V26.45     c-0.041-0.02-0.095-0.039-0.16-0.059s-0.138-0.038-0.217-0.055c-0.08-0.017-0.166-0.03-0.26-0.04     C153.788,26.287,153.694,26.282,153.6,26.282z"/>
		</g>
		<g class="st5">
			<path class="st12" d="M156.094,26.592h0.668v-1.09h0.617v1.09h1.086v0.486h-1.086v1.543c0,0.172,0.009,0.313,0.025,0.422     c0.018,0.11,0.043,0.195,0.077,0.257s0.078,0.104,0.132,0.125c0.053,0.022,0.117,0.034,0.193,0.034     c0.096,0,0.204-0.021,0.324-0.063s0.254-0.105,0.4-0.188v0.537c-0.153,0.101-0.301,0.17-0.44,0.21     c-0.141,0.039-0.27,0.059-0.388,0.059c-0.131,0-0.254-0.015-0.367-0.045s-0.213-0.083-0.299-0.159     c-0.086-0.076-0.152-0.177-0.202-0.304c-0.049-0.126-0.073-0.287-0.073-0.481v-1.946h-0.668V26.592z"/>
			<path class="st12" d="M160.701,26.441c0.184,0,0.345,0.022,0.484,0.065c0.141,0.043,0.262,0.104,0.364,0.181     s0.188,0.167,0.257,0.27c0.069,0.103,0.125,0.213,0.166,0.332s0.07,0.242,0.088,0.371c0.018,0.129,0.027,0.256,0.027,0.381v0.131     c0,0.056-0.002,0.1-0.004,0.131h-2.367c0.007,0.197,0.037,0.368,0.092,0.513s0.129,0.266,0.224,0.361     c0.095,0.095,0.206,0.166,0.334,0.213s0.268,0.07,0.419,0.07c0.216,0,0.428-0.024,0.635-0.074s0.412-0.136,0.617-0.262     l0.067,0.554c-0.118,0.06-0.233,0.112-0.348,0.154c-0.113,0.042-0.228,0.077-0.341,0.104s-0.229,0.046-0.346,0.059     c-0.116,0.012-0.239,0.019-0.369,0.019c-0.213,0-0.417-0.038-0.61-0.112c-0.194-0.075-0.364-0.186-0.511-0.333     c-0.146-0.146-0.264-0.328-0.352-0.545c-0.086-0.217-0.129-0.468-0.129-0.755c0-0.277,0.037-0.528,0.111-0.753     s0.181-0.417,0.318-0.577c0.139-0.16,0.307-0.283,0.505-0.369C160.232,26.484,160.455,26.441,160.701,26.441z M160.652,26.944     c-0.246,0-0.445,0.072-0.602,0.217c-0.156,0.144-0.258,0.368-0.307,0.672h1.742c0-0.143-0.021-0.27-0.062-0.381     c-0.042-0.11-0.099-0.204-0.174-0.28c-0.075-0.076-0.163-0.133-0.265-0.171C160.883,26.963,160.771,26.944,160.652,26.944z"/>
		</g>
		<g class="st5">
			<path class="st8" d="M163.95,30.014c-0.712,0-1.068-0.481-1.068-1.442v-0.99c0-0.107-0.001-0.205-0.001-0.292     c-0.002-0.087-0.004-0.171-0.01-0.253c-0.004-0.082-0.01-0.165-0.02-0.25c-0.009-0.085-0.021-0.178-0.037-0.279h0.686v1.862     c0,0.19,0.009,0.354,0.027,0.492c0.02,0.137,0.051,0.25,0.096,0.339s0.104,0.154,0.176,0.196s0.162,0.063,0.269,0.063     c0.098,0,0.202-0.029,0.313-0.089c0.111-0.059,0.218-0.135,0.319-0.227c0.101-0.091,0.193-0.193,0.276-0.303     c0.084-0.111,0.148-0.218,0.193-0.321v-0.939c0-0.11-0.002-0.208-0.002-0.297c-0.002-0.088-0.004-0.173-0.009-0.253     s-0.011-0.162-0.021-0.245c-0.008-0.083-0.021-0.176-0.036-0.279h0.685v1.912c0,0.327,0.018,0.612,0.055,0.857     c0.037,0.245,0.091,0.462,0.162,0.652h-0.567c-0.016-0.038-0.032-0.083-0.05-0.134c-0.019-0.051-0.035-0.106-0.053-0.164     c-0.016-0.059-0.031-0.119-0.047-0.183c-0.014-0.063-0.025-0.127-0.035-0.189c-0.201,0.248-0.41,0.436-0.625,0.563     S164.187,30.014,163.95,30.014z"/>
		</g>
		<g>
			<path class="st12" d="M166.863,29.93v-2.063c0-0.331-0.019-0.611-0.055-0.84c-0.037-0.229-0.074-0.402-0.112-0.519h0.601     c0.027,0.063,0.051,0.142,0.072,0.237c0.021,0.095,0.039,0.201,0.053,0.317c0.016,0.116,0.025,0.24,0.032,0.372     c0.007,0.132,0.011,0.265,0.011,0.399v0.218c0.113-0.315,0.225-0.577,0.334-0.784c0.108-0.207,0.217-0.372,0.325-0.495     s0.216-0.209,0.325-0.258s0.221-0.074,0.334-0.074c0.084,0,0.162,0.008,0.234,0.023c0.07,0.016,0.143,0.042,0.217,0.077     l-0.101,0.621c-0.064-0.027-0.121-0.045-0.17-0.054c-0.05-0.009-0.109-0.013-0.181-0.013c-0.092,0-0.188,0.039-0.287,0.116     s-0.199,0.179-0.295,0.307c-0.098,0.127-0.189,0.272-0.275,0.433c-0.088,0.161-0.164,0.326-0.229,0.495s-0.118,0.333-0.157,0.495     s-0.059,0.304-0.059,0.43c0,0.056,0.001,0.107,0.002,0.154c0.002,0.047,0.005,0.092,0.01,0.136     c0.006,0.043,0.014,0.087,0.022,0.131s0.021,0.09,0.033,0.139H166.863z"/>
			<path class="st12" d="M166.346,30.434v-0.269h2.972v0.269H166.346z"/>
		</g>
		<g class="st5">
			<path class="st10" d="M165.09,31.218h0.417v2.929h-0.417V31.218z"/>
			<path class="st10" d="M168.306,31.185c0.18,0,0.333,0.064,0.46,0.193c0.126,0.128,0.189,0.283,0.189,0.463     c0,0.178-0.064,0.333-0.191,0.461s-0.279,0.192-0.458,0.192s-0.331-0.063-0.458-0.192s-0.191-0.283-0.191-0.461     c0-0.181,0.064-0.335,0.19-0.463C167.973,31.249,168.127,31.185,168.306,31.185z M169.782,31.177h0.323l-1.918,3.005h-0.322     L169.782,31.177z M168.301,31.503c-0.094,0-0.172,0.033-0.238,0.1c-0.066,0.066-0.1,0.146-0.1,0.239     c0,0.092,0.033,0.17,0.101,0.236c0.066,0.066,0.146,0.099,0.237,0.099c0.093,0,0.172-0.032,0.238-0.099     c0.065-0.065,0.099-0.144,0.099-0.236c0-0.095-0.032-0.175-0.098-0.24C168.475,31.536,168.395,31.503,168.301,31.503z      M169.682,32.873c0.178,0,0.331,0.063,0.459,0.191s0.191,0.281,0.191,0.461c0,0.178-0.063,0.33-0.19,0.455     s-0.28,0.188-0.46,0.188s-0.334-0.063-0.461-0.188s-0.191-0.277-0.191-0.455c0-0.182,0.064-0.334,0.192-0.462     C169.35,32.937,169.503,32.873,169.682,32.873z M169.678,33.191c-0.092,0-0.17,0.033-0.234,0.098     c-0.064,0.066-0.096,0.145-0.096,0.236c0,0.094,0.031,0.174,0.096,0.24s0.143,0.099,0.234,0.099c0.095,0,0.174-0.032,0.239-0.099     c0.065-0.064,0.099-0.145,0.099-0.24c0-0.093-0.033-0.172-0.099-0.236C169.852,33.224,169.772,33.191,169.678,33.191z"/>
		</g>
	</g>
	<path class="st13" d="M81.1,58c0,0.6-0.5,1.1-1.1,1.1s-1.1-0.5-1.1-1.1s0.5-1.1,1.1-1.1C80.6,56.8,81.1,57.3,81.1,58z"/>
	<path class="st13" d="M117.1,58c0,0.6-0.5,1.1-1.1,1.1s-1.1-0.5-1.1-1.1s0.5-1.1,1.1-1.1C116.6,56.8,117.1,57.3,117.1,58z"/>
	<path class="st13" d="M120.4,58c0,0.6-0.5,1.1-1.1,1.1s-1.1-0.5-1.1-1.1s0.5-1.1,1.1-1.1C119.9,56.8,120.4,57.3,120.4,58z"/>
	<g>
		<path class="st16" d="M18.4,34.9c0,0,2.6-0.2,2.8-1.1c0,0,0.1-0.4-0.4-0.4c0,0,0.8-0.4,0.4-1.1c0,0-0.2-0.5-1-0.2    c0,0,0.7-0.7-1.1-0.4c0,0-2.2,1.2-2.8,1.3"/>
		<path class="st16" d="M16.3,33c0,0-1.5-1.8-4.5-1.8c0,0-3-2.4-5.3-2.8c0,0-0.8-2.7,0-5.4l0.8-4.2c0,0,0.6-3.1-2.6-3.1    c0,0-0.4-0.1-0.6,0.1c0,0-0.6-0.3-0.6,0c0,0-0.8,0.2-2.4,0.1c0,0-0.4,0.4,0,0.9c0,0,0.8,1,2,1.5c0,0-0.3,1.2,0.5,2.1    c0,0,1.2,1.2,0.6,4.9c0,0-0.8,2.9-0.8,4.4c0,0,0.3,1.3,0.4,1.9c0,0-0.6,1.7-0.6,2.5c0,0-0.1,2.7,3.1,4l2.1,1.2    c0,0-0.5,1.6,0.5,2.5v0.4l-2-0.3c0,0-1.1,0.3-1.3,0.6c0,0,0,0.8,1.4,1c0,0,1.7-0.8,2.3-1l-0.1-0.8c0,0,1.3,0,1.6-0.2    c0,0-0.2,1.8,1.6,2.7v0.7c0,0-0.9,0.4-2.2,0.3c0,0-0.7-0.3-1.5,0.1c0,0-0.7,1-0.6,1.3c0,0-0.1,0.8,1.9,0.8l3.2-1.8v-0.8L13,44.4    l1.3-1.9c0,0,0.9-3.6,3.1-4.4c0,0,0.9-0.6,1.2-1.1l-0.3-0.8l0.7-0.6l-0.6-0.7"/>
		<path class="st17" d="M18.4,34.9c0,0,1.2-0.1,1.7-0.3s0.9-0.4,1-0.6c0.1-0.2,0.1-0.5-0.1-0.5c-0.2-0.1-0.3-0.1-0.3-0.1    s0.7-0.5,0.4-1.1c-0.3-0.6-1-0.2-1-0.2s0.3-0.4-0.1-0.5s-0.9,0.1-1.1,0.2s-1.4,0.8-1.7,0.9c-0.3,0-0.9,0.4-0.9,0.4l1.1,0.8    L18.4,34.9z"/>
		<path class="st18" d="M18.4,34.9c0,0,2.6-0.2,2.8-1.1c0,0,0.1-0.4-0.4-0.4c0,0,0.8-0.4,0.4-1.1c0,0-0.2-0.5-1-0.2    c0,0,0.7-0.7-1.1-0.4c0,0-2.2,1.2-2.8,1.3"/>
		<path class="st18" d="M16.3,33c0,0-1.5-1.8-4.5-1.8c0,0-3-2.4-5.3-2.8c0,0-0.8-2.7,0-5.4l0.8-4.2c0,0,0.6-3.1-2.6-3.1    c0,0-0.4-0.1-0.6,0.1c0,0-0.6-0.3-0.6,0c0,0-0.8,0.2-2.4,0.1c0,0-0.4,0.4,0,0.9c0,0,0.8,1,2,1.5c0,0-0.3,1.2,0.5,2.1    c0,0,1.2,1.2,0.6,4.9c0,0-0.8,2.9-0.8,4.4c0,0,0.3,1.3,0.4,1.9c0,0-0.6,1.7-0.6,2.5c0,0-0.1,2.7,3.1,4l2.1,1.2    c0,0-0.5,1.6,0.5,2.5v0.4l-2-0.3c0,0-1.1,0.3-1.3,0.6c0,0,0,0.8,1.4,1c0,0,1.7-0.8,2.3-1l-0.1-0.8c0,0,1.3,0,1.6-0.2    c0,0-0.2,1.8,1.6,2.7v0.7c0,0-0.9,0.4-2.2,0.3c0,0-0.7-0.3-1.5,0.1c0,0-0.7,1-0.6,1.3c0,0-0.1,0.8,1.9,0.8l3.2-1.8v-0.8L13,44.4    l1.3-1.9c0,0,0.9-3.6,3.1-4.4c0,0,0.9-0.6,1.2-1.1l-0.3-0.8l0.7-0.6l-0.6-0.7"/>
		<path class="st19" d="M5.3,33.4c0,0,0.7,0,0.8,0.8c0,0,0.2,1.6,0.5,2c0,0,0.7,2.3,4.9,2.6c0,0,1.2,0.1,2.5-0.4"/>
		<path class="st19" d="M12.5,38.2c0,0,3.3,0.6,4.4-1.2c0,0,0.2-0.5-0.5-0.3"/>
		<path class="st19" d="M14.2,37c0,0,3.1-0.2,3.3-1.3c0,0-0.1-0.4-0.7-0.4"/>
		<path class="st19" d="M15.3,35.4c0,0,2.1-0.1,2.3-0.9c0,0,0-0.5-0.8-0.5L15,33.8"/>
		<path class="st19" d="M17.3,33.4c0,0,1.7-1.1,2.8-1.3"/>
		<path class="st19" d="M18.6,33.7c0,0,1.4,0,2.1-0.3"/>
		<path class="st19" d="M8.8,30.3c0,0,0.1,0.3,0.4,0.4c0,0,1.3,0.6,1.5,0.9c0,0,1.5,0.5,1.7,0.9l2.3,1.1c0,0,0.8,0.6-0.9,0.7    c0,0,1,0.1,0.2,1.2c0,0-0.7,0.1-0.9,0.1c0,0,0.4,0.8-1.3,0.7c0,0,0.4,0.8-1.4,0.6"/>
		<path class="st19" d="M12.1,33.7c0,0,0.8,0.5,0.6,0.8c0,0-0.3,0.8-1.4,0.5c0,0,0.5,1.5-1.1,1.2c0,0-1.3-0.3-1.5-0.5"/>
		<path class="st19" d="M10.2,32.4c0,0,1,0.9,0,1.1c0,0,0.3,1.3-1.3,0.7c0,0-0.5,1.1-1.3-0.4"/>
		<path class="st13" d="M5.4,17.4c0,0.2-0.1,0.3-0.3,0.3s-0.3-0.1-0.3-0.3c0-0.2,0.1-0.3,0.3-0.3S5.4,17.2,5.4,17.4z"/>
		<path class="st19" d="M4,15.9c0,0,0.1,0.8-0.2,0.9c0,0-0.2,0-0.4-0.9"/>
		<path class="st19" d="M3,18.4c0,0-0.1-0.7,0.7-1.3c0,0,0,0.2,0.1-0.3"/>
		<path class="st19" d="M1.6,17.5c0,0,0.4,0.4,1.5,0.5"/>
		<path class="st19" d="M8.3,39.5c0,0,1.1,0.7,1.8,0.7"/>
		<path class="st19" d="M9.9,39.5c0,0,0.9,0.8,0.8,2.5"/>
		<path class="st20" d="M18.4,34.9c0,0-1.2-1.5-2.1-1.9"/>
	</g>
</g>
</svg>