<?xml version="1.0" encoding="UTF-8"?>
<!-- Generator: Adobe Illustrator 24.0.2, SVG Export Plug-In . SVG Version: 6.00 Build 0)  -->
<svg version="1.1" id="Calque_1" xmlns="http://www.w3.org/2000/svg" xmlns:xlink="http://www.w3.org/1999/xlink" x="0px" y="0px" viewBox="0 0 98 72" style="enable-background:new 0 0 98 72;" xml:space="preserve">
<style type="text/css">
	.st0{fill:#FFFFFF;stroke:#000000;stroke-width:0.9631;stroke-miterlimit:10;}
	.st1{fill:#FFFFFF;stroke:#9D9D9C;stroke-width:0.7224;stroke-miterlimit:10;}
	.st2{fill:#FFFFFF;}
	.st3{fill:none;stroke:#000000;stroke-width:0.9631;stroke-miterlimit:10;}
	.st4{fill:none;stroke:#000000;stroke-width:0.9631;stroke-miterlimit:10;stroke-dasharray:7.9409,3.9705;}
	.st5{fill:none;stroke:#000000;stroke-width:0.9631;stroke-miterlimit:10;stroke-dasharray:11.9114,3.9705,7.9409,3.9705;}
	.st6{fill:none;stroke:#000000;stroke-width:0.9631;stroke-miterlimit:10;stroke-dasharray:7.9895,3.9948;}
	.st7{fill:none;stroke:#000000;stroke-width:0.9631;stroke-miterlimit:10;stroke-dasharray:11.9843,3.9948,7.9895,3.9948;}
	.st8{enable-background:new    ;}
	.st9{fill:#706F6F;}
	.st10{fill:#7FC7EB;}
	.st11{fill:none;stroke:#B2B2B2;stroke-width:0.3612;stroke-miterlimit:10;}
	.st12{fill:#9D9D9C;}
	.st13{fill:#B2B2B2;}
	.st14{fill:#878787;}
	.st15{fill:#575756;}
	.st16{fill:#FFFFFF;stroke:#575756;stroke-width:0.5199;stroke-miterlimit:10;}
	.st17{fill:none;stroke:#575756;stroke-width:0.5199;stroke-miterlimit:10;}
	.st18{fill:#575756;stroke:#575756;stroke-width:0.1204;stroke-miterlimit:10;}
</style>
<g id="_x3C_Groupe_x3E__pointe">
	<path class="st0" d="M59.2,59.2H42.5c0,0-5.4,9.7-14.3,11.6c0,0,5.3-3.5,7.1-11.6H0.8"/>
	<polygon class="st1" points="73.5,33 59.2,33 59.2,1 97.4,1 97.4,33 76.5,33  "/>
	<g>
		<polyline class="st2" points="0.8,59.2 0.8,1.1 59.2,1.1 59.2,59.2   "/>
		<g>
			<line class="st3" x1="0.8" y1="59.2" x2="0.8" y2="52"/>
			<line class="st4" x1="0.8" y1="48" x2="0.8" y2="38.1"/>
			<line class="st5" x1="0.8" y1="36.1" x2="0.8" y2="10.3"/>
			<polyline class="st3" points="0.8,8.3 0.8,1.1 8,1.1    "/>
			<line class="st6" x1="12" y1="1.1" x2="22" y2="1.1"/>
			<line class="st7" x1="24" y1="1.1" x2="50" y2="1.1"/>
			<polyline class="st3" points="52,1.1 59.2,1.1 59.2,8.3    "/>
			<line class="st4" x1="59.2" y1="12.3" x2="59.2" y2="22.2"/>
			<line class="st5" x1="59.2" y1="24.2" x2="59.2" y2="50"/>
			<line class="st3" x1="59.2" y1="52" x2="59.2" y2="59.2"/>
		</g>
	</g>
	<line class="st3" x1="0.8" y1="59.5" x2="34.8" y2="59.5"/>
	<line class="st3" x1="42.2" y1="59.4" x2="59.3" y2="59.4"/>
	<g class="st8">
		<path class="st9" d="M84.94,5.881c0,0.298-0.044,0.565-0.134,0.8c-0.088,0.235-0.207,0.434-0.354,0.597    c-0.147,0.163-0.314,0.288-0.503,0.374c-0.188,0.086-0.382,0.129-0.581,0.129c-0.201,0-0.395-0.041-0.578-0.122    c-0.186-0.081-0.348-0.2-0.489-0.357c-0.142-0.158-0.255-0.351-0.339-0.58c-0.085-0.229-0.127-0.493-0.127-0.791    c0-0.199,0.02-0.383,0.061-0.554s0.098-0.326,0.17-0.467c0.072-0.141,0.158-0.266,0.258-0.375c0.1-0.109,0.209-0.201,0.326-0.276    s0.24-0.131,0.371-0.17c0.131-0.039,0.264-0.059,0.397-0.059c0.198,0,0.389,0.041,0.573,0.122    c0.184,0.082,0.346,0.201,0.486,0.358c0.14,0.157,0.252,0.351,0.336,0.58C84.898,5.32,84.94,5.583,84.94,5.881z M84.454,5.943    c0-0.228-0.025-0.434-0.076-0.617c-0.051-0.183-0.122-0.338-0.216-0.466c-0.093-0.127-0.205-0.225-0.335-0.293    c-0.131-0.068-0.274-0.102-0.433-0.102s-0.303,0.033-0.434,0.098c-0.132,0.065-0.245,0.159-0.34,0.281S82.453,5.114,82.4,5.287    c-0.053,0.173-0.078,0.367-0.078,0.583c0,0.227,0.025,0.431,0.076,0.613s0.123,0.337,0.217,0.466s0.206,0.227,0.338,0.295    c0.131,0.069,0.278,0.103,0.441,0.103c0.152,0,0.294-0.032,0.424-0.096c0.129-0.063,0.241-0.155,0.336-0.275    c0.094-0.12,0.167-0.267,0.221-0.441C84.428,6.361,84.454,6.164,84.454,5.943z"/>
	</g>
	<g class="st8">
		<path class="st10" d="M88.344,4.093c-0.017,0.1-0.027,0.24-0.031,0.421c-0.004,0.182-0.006,0.401-0.006,0.66V6.44    c0,0.202-0.027,0.385-0.08,0.55c-0.053,0.165-0.135,0.306-0.243,0.423c-0.108,0.118-0.247,0.208-0.413,0.272    c-0.166,0.064-0.361,0.096-0.586,0.096c-0.228,0-0.426-0.032-0.592-0.096c-0.168-0.063-0.306-0.154-0.416-0.272    c-0.109-0.117-0.191-0.258-0.245-0.423c-0.054-0.165-0.081-0.348-0.081-0.55V5.174c0-0.245-0.002-0.461-0.006-0.649    c-0.005-0.188-0.016-0.332-0.031-0.431h0.511v2.235c0,0.162,0.015,0.308,0.042,0.438c0.029,0.13,0.076,0.241,0.143,0.333    s0.154,0.162,0.265,0.211c0.109,0.049,0.247,0.073,0.411,0.073c0.162,0,0.296-0.024,0.404-0.073    c0.107-0.049,0.195-0.119,0.26-0.211c0.066-0.092,0.113-0.203,0.142-0.333c0.028-0.13,0.042-0.276,0.042-0.438V4.093H88.344z"/>
	</g>
	<g class="st8">
		<path class="st9" d="M90.861,4.093v0.36H90.25v2.906h0.611v0.36h-1.684v-0.36h0.6V4.454h-0.6v-0.36H90.861z"/>
		<path class="st9" d="M92.109,4.858v2.861H91.66c0.018-0.099,0.029-0.243,0.032-0.431c0.003-0.188,0.005-0.405,0.005-0.649V5.174    c0-0.245-0.002-0.461-0.005-0.649s-0.015-0.332-0.032-0.431h0.449l1.982,2.874V4.093h0.448c-0.009,0.05-0.015,0.111-0.021,0.184    c-0.004,0.073-0.008,0.155-0.011,0.247s-0.004,0.192-0.005,0.302c-0.001,0.109-0.001,0.225-0.001,0.348v2.545h-0.411L92.109,4.858    z"/>
	</g>
	<g class="st8">
		<path class="st9" d="M63.58,5.143c0.166,0.054,0.285,0.139,0.355,0.255c0.05,0.145,0.081,0.25,0.094,0.316    c0.025,0.145,0.037,0.269,0.037,0.373c0,0.099-0.008,0.199-0.025,0.298c0.047,0.046,0.103,0.085,0.169,0.118    c0.058,0.033,0.112,0.05,0.162,0.05c0.063,0,0.108-0.033,0.138-0.1l0.093,0.199C64.541,6.73,64.468,6.77,64.385,6.77    c-0.063,0-0.131-0.021-0.206-0.063c-0.071-0.021-0.129-0.066-0.175-0.136c-0.087,0.435-0.266,0.745-0.536,0.931    c-0.216,0.145-0.479,0.217-0.792,0.217c-0.365,0-0.656-0.147-0.873-0.441c-0.211-0.265-0.317-0.573-0.317-0.925    c0-0.431,0.116-0.803,0.349-1.118c0.229-0.302,0.539-0.453,0.93-0.453C63.146,4.783,63.418,4.903,63.58,5.143z M62.976,7.483    c0.187,0,0.361-0.083,0.523-0.249c0.171-0.182,0.284-0.428,0.343-0.739c-0.195-0.128-0.345-0.246-0.449-0.354    c-0.148-0.141-0.238-0.281-0.268-0.422c-0.012-0.029-0.019-0.079-0.019-0.149c0-0.079,0.021-0.166,0.063-0.261    c0.046-0.079,0.12-0.131,0.224-0.155c-0.1-0.108-0.246-0.162-0.441-0.162c-0.233,0-0.429,0.139-0.587,0.416    c-0.149,0.298-0.224,0.598-0.224,0.9s0.068,0.561,0.205,0.776C62.491,7.351,62.701,7.483,62.976,7.483z M63.886,6.279    c0.013-0.087,0.019-0.176,0.019-0.267c0-0.161-0.029-0.314-0.088-0.459c-0.07-0.153-0.141-0.229-0.211-0.229    c-0.021,0-0.044,0.008-0.068,0.025c-0.059,0.033-0.088,0.107-0.088,0.224c0,0.124,0.046,0.252,0.137,0.385    C63.67,6.105,63.77,6.213,63.886,6.279z"/>
	</g>
	<g class="st8">
		<path class="st10" d="M66.6,7.241c-0.32,0.323-0.645,0.484-0.973,0.484c-0.387,0-0.657-0.06-0.811-0.18    c-0.213-0.149-0.318-0.408-0.318-0.776V4.813h0.58v1.739c0,0.256,0.029,0.468,0.087,0.633c0.087,0.249,0.247,0.373,0.479,0.373    c0.143,0,0.296-0.047,0.462-0.143C66.256,7.328,66.41,7.2,66.568,7.03V6.881V4.813h0.592v1.925c0,0.257,0.01,0.447,0.031,0.571    c0.025,0.132,0.096,0.199,0.212,0.199c0.071,0,0.142-0.073,0.212-0.217c0.004-0.008,0.112-0.288,0.324-0.838l0.094,0.205    c-0.142,0.41-0.232,0.66-0.274,0.751c-0.116,0.207-0.271,0.313-0.462,0.317C66.886,7.726,66.653,7.564,66.6,7.241z"/>
	</g>
	<g class="st8">
		<path class="st9" d="M68.199,3.671c0.237,0,0.355,0.118,0.355,0.354c0,0.236-0.118,0.354-0.355,0.354    c-0.216,0-0.324-0.118-0.324-0.354C67.875,3.789,67.983,3.671,68.199,3.671z M68.498,6.732c0,0.261,0.016,0.435,0.045,0.521    c0.037,0.162,0.113,0.242,0.23,0.242c0.149,0,0.293-0.174,0.43-0.521c0.017-0.05,0.034-0.099,0.053-0.149    c0.02-0.05,0.037-0.097,0.053-0.143c0.021-0.054,0.038-0.1,0.051-0.137c0.012-0.037,0.022-0.064,0.031-0.081l0.105,0.198    c-0.149,0.418-0.243,0.663-0.28,0.733c-0.125,0.215-0.296,0.323-0.511,0.323c-0.529,0-0.793-0.281-0.793-0.844V4.801l0.586,0.006    V6.732z"/>
		<path class="st9" d="M70.893,5.503c0.1-0.178,0.268-0.344,0.505-0.497c0.221-0.141,0.438-0.211,0.655-0.211    c0.232,0,0.418,0.05,0.555,0.149c0.174,0.12,0.262,0.294,0.262,0.521v1.546c0,0.153,0.008,0.257,0.025,0.311    c0.024,0.125,0.087,0.187,0.187,0.187c0.112,0,0.239-0.176,0.38-0.528c0.021-0.079,0.046-0.155,0.075-0.23    c0.013-0.041,0.028-0.085,0.047-0.133c0.019-0.047,0.038-0.098,0.06-0.152l0.094,0.186C73.702,6.73,73.674,6.8,73.651,6.862    s-0.042,0.118-0.06,0.168c-0.008,0.017-0.014,0.034-0.018,0.053c-0.005,0.019-0.009,0.034-0.014,0.046    c-0.008,0.017-0.016,0.033-0.021,0.05s-0.012,0.031-0.016,0.043C73.512,7.26,73.5,7.295,73.489,7.328s-0.018,0.06-0.021,0.081    c-0.125,0.207-0.347,0.311-0.667,0.311c-0.146,0-0.254-0.031-0.324-0.093c-0.137-0.087-0.206-0.217-0.206-0.391V5.54    c0-0.128-0.021-0.238-0.063-0.329c-0.062-0.107-0.164-0.162-0.306-0.162c-0.195,0-0.398,0.089-0.611,0.267    c-0.253,0.203-0.389,0.42-0.404,0.652v1.751h-0.58V5.789V5.521c0-0.187-0.004-0.298-0.013-0.335    c-0.021-0.054-0.052-0.091-0.093-0.112c-0.1,0-0.237,0.252-0.412,0.758c-0.046,0.124-0.086,0.231-0.121,0.323    c-0.035,0.091-0.062,0.164-0.078,0.217c-0.051,0.137-0.081,0.229-0.094,0.279l-0.1-0.186c0.017-0.058,0.031-0.102,0.043-0.13    c0.005-0.025,0.011-0.049,0.02-0.072c0.008-0.022,0.016-0.046,0.025-0.071c0.008-0.021,0.015-0.042,0.021-0.065    c0.006-0.023,0.016-0.047,0.027-0.072c0.004-0.021,0.011-0.042,0.02-0.065c0.008-0.023,0.016-0.047,0.024-0.071    c0.009-0.021,0.016-0.042,0.022-0.063c0.006-0.021,0.016-0.043,0.027-0.068c0.008-0.042,0.025-0.089,0.05-0.143    c0.009-0.029,0.021-0.067,0.038-0.115c0.016-0.047,0.037-0.103,0.063-0.165c0.157-0.381,0.359-0.571,0.604-0.571    c0.242,0,0.391,0.062,0.449,0.187c0.037,0.07,0.057,0.244,0.057,0.521H70.893z"/>
	</g>
	<path class="st11" d="M13,55.2c0,0,10.8,2.4,23.1-0.1"/>
	<path class="st11" d="M37.9,55.2c0,0,3.9,1.3,9.9,0"/>
	<g>
		<g class="st8">
			<path class="st12" d="M65.783,15.661c0-0.57,0.086-1.074,0.26-1.513c0.172-0.439,0.405-0.81,0.697-1.113     c0.293-0.302,0.635-0.531,1.025-0.686c0.389-0.154,0.805-0.231,1.242-0.231c0.457,0,0.875,0.077,1.254,0.231     c0.379,0.155,0.705,0.383,0.979,0.686c0.271,0.303,0.484,0.673,0.635,1.113c0.15,0.439,0.227,0.943,0.227,1.513     c0,0.569-0.087,1.073-0.26,1.51c-0.174,0.437-0.406,0.804-0.699,1.1c-0.292,0.295-0.633,0.52-1.023,0.672     s-0.805,0.229-1.244,0.229c-0.456,0-0.874-0.076-1.253-0.229c-0.38-0.152-0.705-0.376-0.978-0.672     c-0.273-0.296-0.484-0.663-0.635-1.1C65.858,16.734,65.783,16.23,65.783,15.661z M67.014,15.661c0,0.384,0.047,0.729,0.14,1.033     c0.093,0.304,0.225,0.562,0.396,0.771c0.17,0.209,0.373,0.37,0.608,0.48s0.497,0.166,0.784,0.166     c0.267,0,0.518-0.055,0.752-0.166s0.439-0.271,0.615-0.48c0.176-0.21,0.313-0.467,0.412-0.771c0.1-0.305,0.15-0.649,0.15-1.033     c0-0.389-0.047-0.736-0.141-1.043c-0.093-0.307-0.225-0.567-0.395-0.782c-0.172-0.214-0.375-0.377-0.612-0.49     c-0.237-0.113-0.498-0.169-0.782-0.169c-0.27,0-0.522,0.056-0.758,0.169c-0.234,0.112-0.438,0.276-0.611,0.49     c-0.174,0.214-0.31,0.475-0.409,0.782C67.063,14.925,67.014,15.272,67.014,15.661z"/>
		</g>
		<g class="st8">
			<path class="st10" d="M75.641,19.171c-1.418,0-2.128-0.949-2.128-2.848V14.37c0-0.212-0.001-0.404-0.003-0.576     s-0.008-0.339-0.018-0.5c-0.008-0.161-0.021-0.326-0.039-0.493c-0.018-0.168-0.043-0.351-0.073-0.55h1.363v3.675     c0,0.375,0.019,0.699,0.056,0.97c0.039,0.271,0.102,0.495,0.19,0.669s0.205,0.304,0.349,0.388     c0.145,0.083,0.322,0.125,0.535,0.125c0.195,0,0.404-0.059,0.625-0.175c0.223-0.117,0.434-0.266,0.636-0.447     c0.202-0.181,0.386-0.381,0.552-0.599c0.166-0.219,0.294-0.429,0.383-0.632V14.37c0-0.216-0.002-0.412-0.004-0.586     s-0.008-0.341-0.016-0.5c-0.01-0.159-0.023-0.32-0.041-0.483c-0.018-0.164-0.041-0.347-0.072-0.55h1.363v3.775     c0,0.645,0.036,1.208,0.109,1.692s0.181,0.913,0.322,1.288H78.6c-0.03-0.075-0.064-0.163-0.1-0.265     c-0.035-0.101-0.069-0.209-0.103-0.324s-0.064-0.235-0.093-0.361c-0.029-0.126-0.053-0.25-0.07-0.375     c-0.403,0.49-0.818,0.861-1.247,1.113C76.56,19.045,76.111,19.171,75.641,19.171z"/>
		</g>
		<g class="st8">
			<path class="st12" d="M81.145,10.098c0-0.124,0.021-0.239,0.061-0.348c0.039-0.108,0.096-0.203,0.17-0.285     c0.072-0.082,0.16-0.146,0.262-0.192c0.103-0.046,0.215-0.069,0.34-0.069c0.124,0,0.239,0.023,0.346,0.069     c0.106,0.046,0.197,0.111,0.272,0.192s0.136,0.177,0.18,0.285c0.044,0.108,0.066,0.224,0.066,0.348s-0.022,0.24-0.066,0.348     c-0.044,0.108-0.104,0.203-0.18,0.285c-0.075,0.082-0.166,0.146-0.272,0.192s-0.222,0.069-0.346,0.069     c-0.125,0-0.237-0.023-0.34-0.069c-0.102-0.046-0.189-0.11-0.262-0.192c-0.074-0.082-0.131-0.176-0.17-0.285     C81.165,10.338,81.145,10.222,81.145,10.098z M82.607,15.86c0,0.212,0.004,0.462,0.011,0.751s0.016,0.582,0.026,0.877     c0.012,0.296,0.024,0.579,0.04,0.848c0.016,0.27,0.034,0.492,0.057,0.669h-1.363v-3.51c0-0.322-0.001-0.64-0.003-0.954     c-0.003-0.313-0.008-0.61-0.014-0.891c-0.007-0.28-0.017-0.541-0.03-0.781c-0.013-0.241-0.03-0.447-0.054-0.619h1.33V15.86z"/>
			<path class="st12" d="M88.653,12.118c0.709,0,1.253,0.23,1.629,0.692c0.377,0.461,0.565,1.147,0.565,2.056v4.139h-1.23v-3.643     c0-0.415-0.027-0.757-0.083-1.026c-0.056-0.269-0.138-0.482-0.246-0.639c-0.108-0.156-0.246-0.266-0.412-0.328     c-0.167-0.062-0.362-0.093-0.589-0.093c-0.239,0-0.473,0.056-0.701,0.169s-0.438,0.258-0.629,0.437     c-0.19,0.179-0.359,0.381-0.506,0.606c-0.146,0.225-0.254,0.45-0.325,0.676v3.841h-1.23v-4.073c0-0.653-0.036-1.207-0.109-1.659     c-0.073-0.452-0.147-0.793-0.224-1.023h1.197c0.027,0.071,0.054,0.162,0.08,0.275c0.027,0.112,0.051,0.23,0.073,0.354     c0.022,0.124,0.042,0.245,0.06,0.364l0.054,0.298c0.421-0.503,0.847-0.867,1.276-1.089     C87.732,12.229,88.184,12.118,88.653,12.118z"/>
		</g>
		<g class="st8">
			<path class="st13" d="M64.625,25.478v-3.917c0-0.141-0.001-0.283-0.004-0.426c-0.004-0.142-0.009-0.278-0.016-0.407     c-0.006-0.129-0.016-0.24-0.029-0.333h0.664v2.566c0.078-0.102,0.162-0.195,0.254-0.281c0.09-0.086,0.188-0.161,0.293-0.225     c0.105-0.064,0.22-0.114,0.342-0.151c0.121-0.036,0.252-0.055,0.393-0.055c0.168,0,0.322,0.041,0.462,0.123     c0.14,0.082,0.261,0.196,0.362,0.343c0.102,0.147,0.182,0.322,0.238,0.525s0.084,0.425,0.084,0.666     c0,0.285-0.038,0.542-0.114,0.771c-0.077,0.229-0.185,0.426-0.324,0.589c-0.14,0.164-0.31,0.29-0.507,0.377     c-0.199,0.088-0.421,0.133-0.667,0.133c-0.136,0-0.267-0.01-0.393-0.028c-0.126-0.019-0.249-0.043-0.367-0.073     s-0.233-0.062-0.345-0.096C64.841,25.544,64.732,25.511,64.625,25.478z M66.056,25.262c0.146,0,0.281-0.03,0.405-0.089     c0.125-0.06,0.231-0.144,0.321-0.251c0.09-0.108,0.16-0.239,0.211-0.393c0.051-0.153,0.077-0.323,0.077-0.508     c0-0.183-0.018-0.349-0.051-0.497s-0.081-0.273-0.145-0.376c-0.063-0.103-0.141-0.181-0.234-0.236     c-0.093-0.055-0.199-0.083-0.319-0.083c-0.104,0-0.208,0.022-0.313,0.068s-0.203,0.109-0.298,0.19     c-0.094,0.082-0.182,0.179-0.264,0.293s-0.15,0.239-0.207,0.376v1.324c0.082,0.033,0.157,0.062,0.225,0.084     c0.068,0.023,0.134,0.042,0.198,0.057c0.064,0.014,0.128,0.025,0.191,0.031C65.918,25.259,65.984,25.262,66.056,25.262z"/>
			<path class="st13" d="M71.309,23.938c0,0.417,0.023,0.768,0.07,1.051s0.106,0.518,0.18,0.704h-0.582     c-0.012-0.029-0.027-0.068-0.047-0.119s-0.04-0.109-0.061-0.174c-0.021-0.065-0.041-0.135-0.061-0.21     c-0.02-0.075-0.035-0.15-0.049-0.225c-0.086,0.11-0.178,0.214-0.273,0.312c-0.097,0.097-0.198,0.183-0.305,0.258     c-0.106,0.075-0.217,0.134-0.332,0.177s-0.232,0.065-0.354,0.065c-0.139,0-0.277-0.03-0.416-0.09     c-0.139-0.06-0.264-0.149-0.375-0.268c-0.11-0.119-0.2-0.269-0.27-0.449c-0.068-0.18-0.103-0.391-0.103-0.634     c0-0.254,0.028-0.484,0.085-0.69c0.057-0.207,0.133-0.39,0.23-0.551c0.087-0.142,0.179-0.265,0.276-0.371     s0.204-0.194,0.321-0.263c0.116-0.069,0.244-0.122,0.384-0.157s0.295-0.053,0.466-0.053c0.084,0,0.178,0.006,0.281,0.019     c0.103,0.012,0.207,0.029,0.315,0.051c0.107,0.022,0.214,0.048,0.321,0.08c0.105,0.031,0.205,0.064,0.295,0.099V23.938z      M69.963,22.812c-0.071,0-0.143,0.008-0.215,0.025s-0.143,0.045-0.213,0.084s-0.138,0.092-0.203,0.157s-0.127,0.147-0.185,0.247     c-0.06,0.102-0.108,0.228-0.145,0.379c-0.036,0.151-0.055,0.306-0.055,0.465c0,0.183,0.017,0.34,0.052,0.472     c0.034,0.131,0.08,0.239,0.137,0.324c0.056,0.085,0.12,0.147,0.192,0.188c0.071,0.04,0.145,0.06,0.218,0.06     c0.093,0,0.194-0.029,0.305-0.086c0.109-0.057,0.216-0.133,0.32-0.229c0.104-0.095,0.202-0.204,0.295-0.328     c0.092-0.124,0.167-0.251,0.227-0.384v-1.242c-0.033-0.015-0.076-0.031-0.127-0.046c-0.053-0.015-0.11-0.03-0.174-0.043     c-0.063-0.013-0.131-0.023-0.205-0.031C70.112,22.816,70.037,22.812,69.963,22.812z"/>
			<path class="st13" d="M72.29,25.478v-3.917c0-0.141-0.001-0.283-0.005-0.426c-0.004-0.142-0.008-0.278-0.015-0.407     c-0.007-0.129-0.017-0.24-0.03-0.333h0.665v2.566c0.077-0.102,0.162-0.195,0.253-0.281s0.189-0.161,0.294-0.225     c0.105-0.064,0.22-0.114,0.341-0.151c0.122-0.036,0.253-0.055,0.393-0.055c0.168,0,0.322,0.041,0.463,0.123     c0.139,0.082,0.26,0.196,0.361,0.343c0.103,0.147,0.182,0.322,0.238,0.525s0.084,0.425,0.084,0.666     c0,0.285-0.037,0.542-0.113,0.771c-0.077,0.229-0.186,0.426-0.324,0.589c-0.141,0.164-0.31,0.29-0.508,0.377     c-0.198,0.088-0.42,0.133-0.666,0.133c-0.136,0-0.267-0.01-0.393-0.028c-0.127-0.019-0.25-0.043-0.367-0.073     c-0.119-0.03-0.234-0.062-0.345-0.096S72.396,25.511,72.29,25.478z M73.721,25.262c0.146,0,0.281-0.03,0.404-0.089     c0.125-0.06,0.232-0.144,0.322-0.251c0.09-0.108,0.16-0.239,0.211-0.393c0.051-0.153,0.076-0.323,0.076-0.508     c0-0.183-0.017-0.349-0.05-0.497c-0.034-0.148-0.081-0.273-0.146-0.376c-0.063-0.103-0.141-0.181-0.234-0.236     c-0.092-0.055-0.199-0.083-0.318-0.083c-0.104,0-0.209,0.022-0.313,0.068c-0.104,0.045-0.203,0.109-0.298,0.19     s-0.183,0.179-0.265,0.293s-0.15,0.239-0.206,0.376v1.324c0.082,0.033,0.157,0.062,0.225,0.084     c0.067,0.023,0.134,0.042,0.198,0.057c0.064,0.014,0.127,0.025,0.191,0.031C73.582,25.259,73.648,25.262,73.721,25.262z"/>
		</g>
		<g class="st8">
			<path class="st12" d="M76.087,23.603c0-0.356,0.054-0.671,0.162-0.946c0.108-0.274,0.253-0.506,0.437-0.695     c0.183-0.189,0.396-0.332,0.64-0.428c0.244-0.097,0.503-0.145,0.777-0.145c0.286,0,0.547,0.048,0.784,0.145     c0.236,0.097,0.439,0.239,0.61,0.428s0.303,0.421,0.397,0.695c0.094,0.275,0.141,0.59,0.141,0.946s-0.054,0.67-0.162,0.944     c-0.107,0.273-0.254,0.502-0.436,0.687c-0.184,0.185-0.396,0.325-0.641,0.42c-0.244,0.095-0.503,0.143-0.777,0.143     c-0.285,0-0.547-0.048-0.783-0.143c-0.237-0.095-0.441-0.235-0.611-0.42c-0.17-0.185-0.303-0.414-0.396-0.687     C76.134,24.273,76.087,23.958,76.087,23.603z M76.855,23.603c0,0.24,0.029,0.456,0.088,0.646c0.058,0.19,0.141,0.351,0.247,0.482     c0.106,0.131,0.233,0.231,0.38,0.3s0.311,0.104,0.49,0.104c0.167,0,0.323-0.035,0.471-0.104c0.146-0.069,0.274-0.169,0.384-0.3     c0.109-0.131,0.195-0.292,0.258-0.482s0.094-0.406,0.094-0.646c0-0.243-0.029-0.46-0.087-0.652     c-0.059-0.192-0.141-0.354-0.248-0.488c-0.106-0.134-0.234-0.236-0.383-0.306c-0.147-0.071-0.311-0.106-0.488-0.106     c-0.168,0-0.326,0.035-0.473,0.106c-0.147,0.07-0.275,0.172-0.383,0.306c-0.108,0.134-0.193,0.296-0.256,0.488     S76.855,23.36,76.855,23.603z"/>
		</g>
		<g class="st8">
			<path class="st10" d="M82.386,25.796c-0.887,0-1.33-0.593-1.33-1.78v-1.221c0-0.132-0.001-0.252-0.002-0.36     c-0.001-0.108-0.005-0.212-0.011-0.313s-0.014-0.204-0.024-0.309c-0.011-0.104-0.026-0.219-0.046-0.343h0.852v2.297     c0,0.235,0.012,0.437,0.036,0.606c0.023,0.17,0.063,0.309,0.118,0.418c0.056,0.109,0.129,0.19,0.219,0.242     c0.09,0.053,0.201,0.079,0.334,0.079c0.122,0,0.252-0.037,0.391-0.109c0.139-0.073,0.271-0.167,0.396-0.28     c0.127-0.113,0.242-0.238,0.346-0.375c0.104-0.136,0.184-0.268,0.238-0.395v-1.159c0-0.135,0-0.257-0.002-0.366     c-0.001-0.109-0.004-0.213-0.01-0.313s-0.014-0.2-0.025-0.302c-0.011-0.102-0.025-0.216-0.045-0.343h0.852v2.359     c0,0.403,0.023,0.755,0.068,1.058c0.046,0.302,0.113,0.571,0.202,0.805h-0.707c-0.019-0.047-0.04-0.102-0.062-0.166     c-0.023-0.063-0.045-0.131-0.064-0.203c-0.021-0.072-0.041-0.147-0.059-0.226s-0.033-0.157-0.044-0.234     c-0.252,0.306-0.512,0.538-0.779,0.695S82.68,25.796,82.386,25.796z"/>
		</g>
		<g class="st8">
			<path class="st12" d="M85.977,20.126c0-0.077,0.013-0.15,0.037-0.217c0.025-0.068,0.061-0.127,0.106-0.178     c0.046-0.051,0.101-0.091,0.164-0.12c0.063-0.029,0.135-0.043,0.212-0.043c0.078,0,0.15,0.015,0.217,0.043     c0.066,0.029,0.123,0.069,0.17,0.12c0.047,0.051,0.084,0.11,0.112,0.178c0.028,0.067,0.042,0.14,0.042,0.217     s-0.014,0.149-0.042,0.217c-0.028,0.067-0.065,0.127-0.112,0.178c-0.047,0.051-0.104,0.091-0.17,0.12s-0.139,0.043-0.217,0.043     c-0.077,0-0.148-0.015-0.212-0.043s-0.118-0.069-0.164-0.12c-0.046-0.051-0.081-0.11-0.106-0.178     C85.989,20.275,85.977,20.203,85.977,20.126z M86.891,23.727c0,0.132,0.002,0.289,0.007,0.47c0.004,0.181,0.01,0.363,0.017,0.548     c0.007,0.185,0.016,0.361,0.025,0.53s0.021,0.308,0.035,0.418h-0.853v-2.194c0-0.201-0.001-0.4-0.002-0.596     c-0.001-0.196-0.004-0.382-0.009-0.557c-0.004-0.175-0.01-0.338-0.018-0.489c-0.009-0.15-0.02-0.279-0.033-0.387h0.83V23.727z"/>
			<path class="st12" d="M90.669,21.388c0.443,0,0.783,0.144,1.019,0.433s0.354,0.717,0.354,1.285v2.587h-0.77v-2.276     c0-0.259-0.018-0.473-0.052-0.642s-0.086-0.301-0.153-0.399c-0.068-0.098-0.154-0.167-0.258-0.205s-0.227-0.058-0.368-0.058     c-0.149,0-0.296,0.035-0.438,0.105s-0.273,0.161-0.393,0.273s-0.225,0.238-0.316,0.379c-0.091,0.141-0.159,0.281-0.203,0.422     v2.401h-0.77v-2.545c0-0.409-0.022-0.754-0.068-1.037c-0.045-0.283-0.092-0.496-0.139-0.639h0.748     c0.017,0.044,0.033,0.101,0.05,0.171c0.017,0.071,0.032,0.145,0.046,0.222s0.025,0.153,0.037,0.228l0.033,0.187     c0.264-0.315,0.529-0.542,0.798-0.681C90.094,21.458,90.375,21.388,90.669,21.388z"/>
		</g>
		<g class="st8">
			<path class="st14" d="M86.966,27.959h0.415v2.891h-0.415V27.959z"/>
			<path class="st14" d="M88.664,27.959h1.288v0.368h-0.91v0.731c0.028-0.003,0.059-0.004,0.089-0.004     c0.281,0,0.513,0.085,0.694,0.256s0.272,0.387,0.272,0.65c0,0.272-0.09,0.493-0.27,0.664s-0.412,0.255-0.697,0.255     c-0.235,0-0.464-0.056-0.686-0.169v-0.426c0.209,0.135,0.414,0.203,0.613,0.203c0.174,0,0.32-0.051,0.439-0.152     c0.119-0.102,0.178-0.226,0.178-0.374c0-0.153-0.064-0.281-0.193-0.384c-0.129-0.103-0.289-0.154-0.482-0.154     c-0.164,0-0.277,0.014-0.336,0.041V27.959z"/>
			<path class="st14" d="M92.297,27.926c0.178,0,0.33,0.063,0.457,0.19c0.125,0.127,0.188,0.279,0.188,0.458     c0,0.176-0.063,0.328-0.19,0.455s-0.278,0.19-0.455,0.19c-0.178,0-0.33-0.063-0.457-0.19s-0.189-0.279-0.189-0.455     c0-0.178,0.063-0.331,0.188-0.458S92.117,27.926,92.297,27.926z M93.767,27.917h0.321l-1.909,2.966h-0.321L93.767,27.917z      M92.291,28.24c-0.092,0-0.172,0.033-0.237,0.098s-0.099,0.144-0.099,0.236c0,0.091,0.033,0.168,0.1,0.233     c0.066,0.065,0.145,0.097,0.236,0.097c0.093,0,0.172-0.032,0.237-0.097c0.065-0.064,0.099-0.142,0.099-0.233     c0-0.094-0.033-0.173-0.098-0.237S92.385,28.24,92.291,28.24z M93.667,29.592c0.177,0,0.329,0.063,0.456,0.189     c0.127,0.126,0.191,0.278,0.191,0.454c0,0.177-0.063,0.327-0.189,0.45c-0.127,0.124-0.279,0.185-0.458,0.185     c-0.181,0-0.333-0.062-0.46-0.185s-0.189-0.273-0.189-0.45c0-0.178,0.063-0.33,0.191-0.455     C93.336,29.655,93.488,29.592,93.667,29.592z M93.662,29.906c-0.091,0-0.168,0.033-0.232,0.097s-0.096,0.142-0.096,0.233     c0,0.092,0.031,0.171,0.096,0.236s0.142,0.098,0.232,0.098c0.095,0,0.174-0.032,0.238-0.097c0.065-0.064,0.098-0.144,0.098-0.237     c0-0.092-0.032-0.17-0.098-0.234C93.836,29.938,93.757,29.906,93.662,29.906z"/>
		</g>
	</g>
	<g class="st8">
		<path d="M45.214,8.375c0,0.497-0.074,0.941-0.223,1.333c-0.148,0.392-0.345,0.724-0.59,0.995    c-0.245,0.272-0.524,0.479-0.837,0.623s-0.636,0.215-0.968,0.215c-0.335,0-0.657-0.068-0.964-0.203    c-0.308-0.135-0.579-0.334-0.815-0.596c-0.235-0.262-0.424-0.584-0.565-0.966c-0.142-0.382-0.212-0.822-0.212-1.318    c0-0.331,0.034-0.639,0.102-0.923s0.162-0.543,0.283-0.778c0.121-0.235,0.264-0.443,0.43-0.625    c0.167-0.182,0.347-0.335,0.542-0.459s0.402-0.219,0.619-0.284c0.218-0.065,0.438-0.097,0.663-0.097    c0.33,0,0.648,0.067,0.954,0.203s0.576,0.334,0.811,0.596c0.234,0.262,0.421,0.584,0.561,0.966    C45.144,7.439,45.214,7.878,45.214,8.375z M44.403,8.479c0-0.381-0.042-0.724-0.127-1.028c-0.084-0.305-0.204-0.564-0.359-0.776    s-0.342-0.375-0.559-0.488c-0.218-0.113-0.458-0.17-0.721-0.17s-0.504,0.055-0.723,0.164c-0.219,0.109-0.407,0.265-0.565,0.468    C41.19,6.85,41.067,7.096,40.98,7.384c-0.087,0.289-0.131,0.612-0.131,0.971c0,0.378,0.042,0.719,0.126,1.022    c0.084,0.303,0.205,0.562,0.362,0.776c0.156,0.214,0.344,0.378,0.563,0.493c0.219,0.114,0.464,0.171,0.736,0.171    c0.255,0,0.49-0.053,0.707-0.159c0.216-0.106,0.402-0.259,0.559-0.459c0.157-0.2,0.279-0.445,0.368-0.734    C44.359,9.174,44.403,8.846,44.403,8.479z"/>
		<path d="M49.1,5.395v0.6h-1.019v4.843H49.1v0.6h-2.806v-0.6h0.998V5.995h-0.998v-0.6H49.1z"/>
		<path d="M51.178,6.67v4.768H50.43c0.031-0.166,0.049-0.405,0.055-0.718c0.006-0.313,0.008-0.674,0.008-1.082V7.195    c0-0.408-0.002-0.769-0.008-1.082C50.479,5.8,50.461,5.561,50.43,5.395h0.748l3.305,4.789V5.395h0.748    c-0.014,0.083-0.024,0.185-0.033,0.306c-0.008,0.122-0.014,0.259-0.019,0.412c-0.004,0.153-0.007,0.321-0.009,0.503    c-0.001,0.182-0.002,0.375-0.002,0.579v4.243h-0.686L51.178,6.67z"/>
	</g>
	<g class="st8">
		<path class="st15" d="M6.588,31.397c0-1.495,0.227-2.819,0.681-3.972c0.454-1.153,1.065-2.127,1.833-2.921    c0.768-0.793,1.664-1.393,2.688-1.799c1.024-0.405,2.112-0.608,3.264-0.608c1.199,0,2.296,0.203,3.291,0.608    c0.995,0.406,1.851,1.006,2.566,1.799c0.716,0.794,1.271,1.768,1.667,2.921s0.594,2.477,0.594,3.972s-0.227,2.816-0.681,3.963    c-0.454,1.147-1.065,2.109-1.833,2.886c-0.769,0.777-1.665,1.365-2.688,1.765c-1.024,0.399-2.112,0.6-3.265,0.6    c-1.199,0-2.295-0.2-3.291-0.6s-1.851-0.987-2.566-1.765c-0.716-0.776-1.271-1.738-1.667-2.886    C6.786,34.213,6.588,32.892,6.588,31.397z M9.818,31.397c0,1.008,0.122,1.912,0.366,2.712c0.245,0.799,0.591,1.475,1.039,2.025    c0.448,0.551,0.98,0.972,1.597,1.261c0.617,0.289,1.303,0.435,2.06,0.435c0.698,0,1.355-0.146,1.973-0.435    c0.617-0.289,1.155-0.71,1.615-1.261c0.459-0.55,0.82-1.226,1.082-2.025c0.262-0.8,0.393-1.704,0.393-2.712    c0-1.02-0.123-1.933-0.367-2.738c-0.245-0.805-0.591-1.489-1.039-2.051c-0.448-0.562-0.984-0.991-1.606-1.286    c-0.623-0.296-1.307-0.443-2.051-0.443c-0.71,0-1.374,0.147-1.99,0.443c-0.617,0.295-1.152,0.724-1.606,1.286    c-0.454,0.563-0.812,1.246-1.074,2.051C9.949,29.464,9.818,30.377,9.818,31.397z"/>
		<path class="st15" d="M27.537,16.794c0-0.325,0.052-0.629,0.157-0.913c0.105-0.284,0.253-0.533,0.445-0.748    s0.422-0.383,0.689-0.504s0.564-0.183,0.891-0.183c0.326,0,0.628,0.061,0.908,0.183s0.518,0.29,0.716,0.504    c0.198,0.214,0.354,0.463,0.471,0.748c0.116,0.284,0.174,0.588,0.174,0.913c0,0.324-0.058,0.628-0.174,0.913    c-0.117,0.284-0.273,0.533-0.471,0.748c-0.198,0.214-0.437,0.382-0.716,0.504s-0.582,0.183-0.908,0.183    c-0.326,0-0.623-0.061-0.891-0.183s-0.498-0.29-0.689-0.504s-0.34-0.463-0.445-0.748C27.589,17.423,27.537,17.119,27.537,16.794z     M31.377,31.918c0,0.556,0.009,1.214,0.026,1.973c0.017,0.759,0.041,1.527,0.07,2.303c0.029,0.776,0.063,1.518,0.104,2.225    c0.041,0.707,0.09,1.293,0.148,1.756h-3.579v-9.213c0-0.846-0.003-1.681-0.009-2.503s-0.018-1.602-0.035-2.338    c-0.018-0.736-0.044-1.419-0.079-2.051c-0.035-0.631-0.082-1.173-0.14-1.625h3.491V31.918z"/>
		<path class="st15" d="M47.246,22.096c1.862,0,3.288,0.606,4.277,1.817s1.483,3.01,1.483,5.397v10.865h-3.229v-9.561    c0-1.089-0.073-1.988-0.218-2.695c-0.146-0.707-0.361-1.266-0.646-1.677c-0.285-0.412-0.646-0.698-1.083-0.861    c-0.436-0.162-0.951-0.243-1.545-0.243c-0.628,0-1.242,0.147-1.841,0.443c-0.6,0.295-1.15,0.678-1.65,1.147    c-0.5,0.47-0.943,1-1.327,1.591c-0.384,0.591-0.669,1.182-0.855,1.773v10.083h-3.229V29.484c0-1.715-0.096-3.167-0.288-4.354    s-0.387-2.083-0.585-2.686h3.143c0.07,0.186,0.14,0.426,0.209,0.722s0.133,0.605,0.192,0.93c0.058,0.324,0.11,0.643,0.157,0.956    l0.14,0.782c1.105-1.321,2.223-2.274,3.352-2.86C44.831,22.389,46.012,22.096,47.246,22.096z"/>
	</g>
	<g class="st8">
		<path class="st14" d="M3.605,62.604h1.433v0.162H4.433c-0.132,0-0.222,0.041-0.269,0.125c-0.027,0.047-0.04,0.107-0.04,0.183v4.56    c0,0.101,0.015,0.176,0.043,0.225c0.05,0.087,0.146,0.13,0.289,0.13h0.582v0.172H3.605V62.604z"/>
	</g>
	<g class="st8">
		<path class="st14" d="M8.634,64.805L8.43,64.256c-0.063-0.167-0.162-0.252-0.298-0.257c-0.057-0.001-0.086-0.015-0.09-0.042    c0-0.049,0.084-0.074,0.253-0.074h0.68c0.191,0,0.286,0.023,0.286,0.068c-0.087,0.023-0.194,0.057-0.319,0.1    c-0.051,0.023-0.076,0.069-0.076,0.137c0,0.035,0.009,0.076,0.028,0.123l0.856,2.115c0.053-0.147,0.126-0.354,0.219-0.615    l0.497-1.399c0.022-0.06,0.034-0.118,0.034-0.176c0-0.142-0.088-0.224-0.265-0.248c-0.069-0.011-0.105-0.018-0.11-0.023    c0-0.058,0.106-0.087,0.319-0.087h0.539c0.173,0,0.262,0.01,0.266,0.032c0,0.036-0.049,0.071-0.148,0.109    c-0.069,0.024-0.137,0.049-0.205,0.073c-0.051,0.026-0.095,0.09-0.131,0.189c-0.001,0.003-0.104,0.279-0.309,0.832l-0.699,1.896    c-0.025,0.071-0.053,0.108-0.083,0.114c-0.046,0-0.08-0.033-0.101-0.102L8.743,65.09c-0.058,0.143-0.138,0.342-0.24,0.594    l-0.309,0.762c-0.062,0.15-0.143,0.35-0.241,0.596c-0.024,0.064-0.052,0.1-0.082,0.104c-0.031,0-0.058-0.027-0.081-0.081    c-0.005-0.011-0.131-0.294-0.38-0.851l-0.872-1.938c-0.06-0.135-0.191-0.215-0.394-0.24c-0.088-0.011-0.131-0.03-0.131-0.059    c0.01-0.049,0.134-0.074,0.374-0.074h0.532c0.229,0,0.348,0.019,0.354,0.055c0,0.027-0.044,0.053-0.131,0.075    C7.034,64.06,6.98,64.105,6.98,64.168c0,0.031,0.009,0.068,0.026,0.107c0.014,0.029,0.112,0.256,0.297,0.678l0.677,1.541    L8.634,64.805z"/>
	</g>
	<g class="st8">
		<path class="st14" d="M12.517,65.53c-0.213-0.025-0.389-0.103-0.528-0.229c-0.152-0.139-0.228-0.311-0.228-0.518    c0-0.344,0.205-0.6,0.615-0.766c0.209-0.086,0.468-0.128,0.775-0.128c0.108,0,0.192,0.002,0.251,0.007    c0.38,0.028,0.662,0.088,0.846,0.18c0.063,0.033,0.096,0.055,0.1,0.063c0.019,0.048,0.028,0.243,0.028,0.585    c-0.062,0-0.123-0.045-0.183-0.133c-0.083-0.125-0.133-0.195-0.151-0.213c-0.226-0.195-0.496-0.293-0.81-0.293    c-0.407,0.049-0.686,0.185-0.838,0.406c-0.068,0.101-0.103,0.205-0.103,0.313c0,0.21,0.103,0.373,0.308,0.487    c0.167,0.095,0.365,0.142,0.592,0.142c0.027,0,0.066-0.002,0.12-0.006s0.093-0.007,0.12-0.007c0.113,0,0.169,0.036,0.169,0.109    c0,0.071-0.057,0.107-0.169,0.107c-0.027,0-0.067-0.002-0.12-0.007c-0.053-0.004-0.093-0.006-0.12-0.006    c-0.381,0-0.649,0.092-0.803,0.277c-0.069,0.082-0.103,0.174-0.103,0.271c0,0.261,0.195,0.459,0.587,0.592    c0.194,0.066,0.428,0.1,0.701,0.1c0.104,0,0.219-0.008,0.346-0.021c0.165-0.017,0.322-0.085,0.472-0.206    c0.06-0.047,0.096-0.07,0.108-0.07c0.013,0,0.02,0.018,0.02,0.053c0,0.058-0.071,0.138-0.213,0.24    c-0.107,0.078-0.204,0.138-0.289,0.178c-0.151,0.07-0.306,0.105-0.466,0.105c-0.426,0-0.784-0.045-1.076-0.133    c-0.459-0.139-0.688-0.373-0.688-0.701c0-0.269,0.127-0.488,0.382-0.658C12.283,65.578,12.398,65.537,12.517,65.53z     M12.565,62.816c-0.113,0.015-0.27,0.071-0.469,0.171c-0.083,0.042-0.131,0.064-0.145,0.067c-0.079,0-0.046-0.053,0.098-0.158    c0.106-0.07,0.213-0.143,0.32-0.217c0.107-0.072,0.206-0.117,0.297-0.133c0.117,0,0.268,0.041,0.452,0.124    c0.093,0.042,0.165,0.071,0.216,0.088c0.058,0.019,0.118,0.026,0.183,0.024c0.085-0.003,0.173-0.027,0.264-0.07    c0.09-0.051,0.18-0.101,0.27-0.151c0.142-0.078,0.225-0.117,0.25-0.117c0.009,0.005,0.013,0.013,0.013,0.021    c0,0.101-0.145,0.246-0.434,0.437c-0.123,0.082-0.232,0.133-0.329,0.152c-0.042,0.01-0.08,0.014-0.115,0.014    c-0.088,0-0.22-0.041-0.394-0.123C12.855,62.859,12.696,62.816,12.565,62.816z"/>
		<path class="st14" d="M16.803,68.159h-1.437v-0.165h0.609c0.204,0,0.306-0.102,0.306-0.305v-4.563c0-0.234-0.11-0.352-0.329-0.352    h-0.585v-0.172h1.437V68.159z"/>
	</g>
	<g class="st8">
		<path class="st13" d="M13.726,51.604c0-0.308-0.002-0.594-0.007-0.856s-0.016-0.505-0.032-0.726    c-0.017-0.22-0.042-0.42-0.075-0.598c-0.033-0.18-0.078-0.338-0.134-0.478h0.897c0.037,0.087,0.073,0.208,0.11,0.365    s0.066,0.351,0.09,0.579c0.116-0.152,0.244-0.293,0.381-0.422c0.138-0.13,0.284-0.24,0.439-0.331s0.317-0.162,0.489-0.214    c0.171-0.051,0.35-0.076,0.536-0.076c0.283,0,0.542,0.062,0.776,0.186c0.234,0.125,0.434,0.299,0.598,0.521    c0.165,0.224,0.293,0.488,0.384,0.795s0.137,0.642,0.137,1.006c0,0.424-0.06,0.807-0.18,1.15c-0.12,0.342-0.282,0.635-0.486,0.876    s-0.445,0.429-0.721,0.56c-0.276,0.13-0.57,0.195-0.883,0.195c-0.133,0-0.258-0.014-0.376-0.039    c-0.118-0.027-0.233-0.063-0.344-0.109c-0.111-0.047-0.222-0.104-0.332-0.172s-0.225-0.143-0.344-0.227v1.168    c0,0.199,0.002,0.378,0.007,0.539c0.005,0.16,0.013,0.309,0.022,0.444c0.01,0.136,0.023,0.261,0.04,0.375s0.035,0.224,0.055,0.33    h-1.047V51.604z M16.045,53.317c0.176,0,0.345-0.042,0.506-0.124c0.161-0.083,0.304-0.203,0.429-0.36    c0.125-0.157,0.225-0.348,0.299-0.571c0.075-0.223,0.112-0.476,0.112-0.758c0-0.274-0.026-0.523-0.077-0.747    c-0.052-0.224-0.127-0.413-0.227-0.571c-0.1-0.157-0.22-0.279-0.361-0.365c-0.142-0.086-0.302-0.129-0.481-0.129    c-0.143,0-0.29,0.031-0.439,0.095c-0.15,0.063-0.295,0.155-0.437,0.278c-0.141,0.122-0.273,0.275-0.396,0.459    s-0.231,0.395-0.324,0.633v1.564c0.169,0.119,0.317,0.219,0.441,0.296c0.125,0.078,0.239,0.14,0.342,0.185    c0.103,0.044,0.202,0.074,0.297,0.092C15.824,53.309,15.929,53.317,16.045,53.317z"/>
	</g>
	<g class="st8">
		<path class="st15" d="M19.27,50.877c0-0.535,0.081-1.008,0.243-1.42c0.163-0.412,0.381-0.76,0.655-1.043    c0.274-0.283,0.594-0.498,0.96-0.643c0.366-0.145,0.755-0.217,1.167-0.217c0.428,0,0.82,0.072,1.175,0.217    s0.661,0.359,0.917,0.643c0.255,0.283,0.454,0.631,0.596,1.043c0.141,0.412,0.212,0.885,0.212,1.42    c0,0.533-0.081,1.006-0.243,1.416c-0.162,0.409-0.38,0.753-0.655,1.03s-0.595,0.487-0.96,0.63    c-0.366,0.144-0.755,0.215-1.167,0.215c-0.428,0-0.82-0.071-1.175-0.215c-0.355-0.143-0.661-0.353-0.917-0.63    c-0.255-0.277-0.454-0.621-0.595-1.03C19.34,51.883,19.27,51.41,19.27,50.877z M20.423,50.877c0,0.359,0.044,0.683,0.131,0.969    c0.087,0.285,0.211,0.526,0.371,0.723c0.16,0.197,0.351,0.348,0.571,0.451s0.465,0.154,0.736,0.154    c0.25,0,0.484-0.051,0.705-0.154s0.413-0.254,0.577-0.451c0.164-0.196,0.293-0.438,0.387-0.723c0.093-0.286,0.14-0.609,0.14-0.969    c0-0.365-0.043-0.691-0.131-0.979s-0.211-0.532-0.371-0.732c-0.16-0.201-0.352-0.354-0.574-0.46    c-0.223-0.105-0.467-0.158-0.733-0.158c-0.253,0-0.491,0.053-0.711,0.158s-0.412,0.259-0.574,0.46    c-0.162,0.2-0.29,0.445-0.383,0.732C20.47,50.186,20.423,50.512,20.423,50.877z"/>
		<path class="st15" d="M26.753,45.66c0-0.116,0.019-0.225,0.056-0.326c0.037-0.102,0.09-0.19,0.159-0.268    c0.069-0.076,0.151-0.137,0.247-0.18s0.202-0.065,0.318-0.065s0.225,0.022,0.324,0.065c0.1,0.043,0.185,0.104,0.256,0.18    c0.071,0.077,0.127,0.166,0.168,0.268s0.063,0.21,0.063,0.326c0,0.115-0.021,0.225-0.063,0.326s-0.098,0.189-0.168,0.267    s-0.156,0.137-0.256,0.181c-0.1,0.043-0.208,0.064-0.324,0.064s-0.222-0.021-0.318-0.064c-0.096-0.044-0.178-0.104-0.247-0.181    c-0.068-0.077-0.122-0.165-0.159-0.267C26.772,45.885,26.753,45.775,26.753,45.66z M28.125,51.063    c0,0.199,0.003,0.434,0.009,0.705c0.006,0.271,0.014,0.545,0.025,0.822c0.01,0.278,0.022,0.543,0.037,0.795    c0.015,0.254,0.032,0.463,0.053,0.628h-1.278v-3.292c0-0.302-0.001-0.6-0.003-0.894s-0.006-0.572-0.012-0.835    c-0.006-0.264-0.016-0.508-0.028-0.733c-0.012-0.226-0.029-0.419-0.05-0.581h1.248V51.063z"/>
	</g>
	<g class="st8">
		<path class="st15" d="M33.504,47.555c0.665,0,1.174,0.216,1.528,0.648s0.53,1.075,0.53,1.928v3.882h-1.154v-3.415    c0-0.39-0.026-0.711-0.078-0.963c-0.052-0.253-0.129-0.453-0.23-0.6c-0.102-0.146-0.231-0.25-0.387-0.308s-0.34-0.087-0.552-0.087    c-0.225,0-0.444,0.053-0.658,0.158c-0.214,0.105-0.411,0.242-0.589,0.41s-0.336,0.357-0.474,0.568s-0.239,0.422-0.306,0.633v3.603    h-1.154v-3.819c0-0.613-0.034-1.131-0.103-1.556c-0.068-0.425-0.138-0.744-0.209-0.96h1.123c0.025,0.066,0.05,0.152,0.075,0.258    c0.025,0.105,0.047,0.217,0.068,0.332c0.021,0.117,0.04,0.23,0.056,0.342l0.05,0.279c0.395-0.471,0.794-0.813,1.197-1.021    S33.063,47.555,33.504,47.555z"/>
	</g>
	<g class="st8">
		<path class="st13" d="M37.706,49.07h0.998v-1.613h0.923v1.613h1.621v0.721h-1.621v2.285c0,0.254,0.013,0.463,0.038,0.625    s0.063,0.289,0.115,0.381c0.051,0.09,0.117,0.152,0.197,0.186c0.08,0.033,0.176,0.05,0.29,0.05c0.143,0,0.304-0.031,0.483-0.095    c0.18-0.063,0.379-0.155,0.599-0.277v0.795c-0.229,0.148-0.449,0.252-0.658,0.31s-0.402,0.087-0.579,0.087    c-0.196,0-0.379-0.021-0.549-0.066c-0.169-0.045-0.318-0.124-0.446-0.236c-0.128-0.113-0.229-0.263-0.302-0.449    c-0.073-0.188-0.11-0.425-0.11-0.713v-2.881h-0.998V49.07z"/>
		<path class="st13" d="M44.589,48.848c0.272,0,0.514,0.031,0.723,0.096c0.209,0.065,0.391,0.154,0.543,0.27    c0.153,0.113,0.281,0.247,0.384,0.399c0.103,0.152,0.185,0.315,0.247,0.491s0.105,0.359,0.132,0.549    c0.026,0.191,0.04,0.379,0.04,0.564v0.193c0,0.082-0.002,0.147-0.005,0.193h-3.536c0.01,0.291,0.056,0.545,0.137,0.76    c0.082,0.216,0.193,0.394,0.334,0.534c0.142,0.142,0.308,0.246,0.499,0.315c0.191,0.07,0.4,0.104,0.626,0.104    c0.322,0,0.638-0.036,0.948-0.109c0.309-0.073,0.617-0.202,0.922-0.388l0.1,0.82c-0.176,0.089-0.349,0.165-0.519,0.229    c-0.169,0.063-0.339,0.113-0.509,0.153c-0.169,0.04-0.341,0.069-0.516,0.087c-0.174,0.019-0.358,0.027-0.551,0.027    c-0.319,0-0.624-0.055-0.913-0.166c-0.289-0.111-0.543-0.275-0.763-0.492c-0.219-0.217-0.394-0.486-0.523-0.807    c-0.13-0.321-0.195-0.693-0.195-1.117c0-0.411,0.056-0.783,0.167-1.115c0.111-0.333,0.27-0.618,0.476-0.854    c0.206-0.237,0.457-0.419,0.753-0.546C43.887,48.911,44.22,48.848,44.589,48.848z M44.514,49.592c-0.366,0-0.665,0.107-0.897,0.32    c-0.233,0.214-0.386,0.546-0.459,0.996h2.604c0-0.211-0.031-0.399-0.092-0.563s-0.148-0.302-0.259-0.415    c-0.111-0.112-0.244-0.197-0.396-0.253C44.859,49.621,44.693,49.592,44.514,49.592z"/>
	</g>
	<g class="st8">
		<path d="M8.048,8.153c0.222,0.072,0.38,0.185,0.474,0.339C8.588,8.686,8.63,8.827,8.646,8.915c0.033,0.193,0.05,0.359,0.05,0.497    c0,0.132-0.011,0.265-0.033,0.397C8.724,9.87,8.799,9.922,8.888,9.966c0.078,0.044,0.149,0.066,0.216,0.066    c0.083,0,0.144-0.044,0.183-0.133l0.125,0.265c-0.083,0.105-0.18,0.157-0.291,0.157c-0.083,0-0.175-0.027-0.274-0.083    c-0.094-0.028-0.172-0.088-0.233-0.182c-0.116,0.579-0.354,0.993-0.715,1.242c-0.288,0.193-0.64,0.29-1.056,0.29    c-0.488,0-0.876-0.196-1.164-0.588c-0.283-0.353-0.424-0.764-0.424-1.233c0-0.574,0.155-1.07,0.465-1.49    c0.305-0.403,0.718-0.604,1.239-0.604C7.469,7.673,7.832,7.833,8.048,8.153z M7.242,11.274c0.25,0,0.482-0.11,0.698-0.331    c0.227-0.243,0.379-0.571,0.457-0.985c-0.26-0.171-0.46-0.328-0.598-0.472c-0.2-0.188-0.319-0.375-0.357-0.563    C7.424,8.885,7.416,8.818,7.416,8.725c0-0.105,0.028-0.221,0.083-0.348C7.56,8.272,7.66,8.203,7.799,8.17    c-0.133-0.144-0.33-0.215-0.59-0.215c-0.311,0-0.571,0.185-0.782,0.555C6.228,8.907,6.128,9.307,6.128,9.71    s0.091,0.748,0.274,1.035C6.596,11.098,6.876,11.274,7.242,11.274z M8.456,9.668C8.472,9.552,8.48,9.434,8.48,9.313    c0-0.215-0.039-0.419-0.117-0.613C8.27,8.496,8.175,8.394,8.081,8.394c-0.027,0-0.058,0.011-0.091,0.033    C7.912,8.471,7.874,8.57,7.874,8.725c0,0.166,0.061,0.337,0.183,0.513C8.167,9.437,8.3,9.58,8.456,9.668z"/>
		<path d="M9.661,6.191c0.316,0,0.474,0.157,0.474,0.472c0,0.314-0.158,0.472-0.474,0.472c-0.288,0-0.432-0.157-0.432-0.472    C9.229,6.349,9.373,6.191,9.661,6.191z M10.06,10.272c0,0.348,0.02,0.58,0.059,0.695c0.05,0.215,0.152,0.323,0.307,0.323    c0.2,0,0.391-0.232,0.574-0.695c0.022-0.066,0.046-0.133,0.071-0.199c0.025-0.066,0.048-0.13,0.071-0.19    c0.027-0.072,0.05-0.133,0.066-0.182c0.017-0.05,0.03-0.085,0.042-0.108l0.141,0.265c-0.199,0.558-0.324,0.883-0.374,0.977    c-0.166,0.287-0.394,0.431-0.682,0.431c-0.704,0-1.056-0.375-1.056-1.126V7.698l0.781,0.008V10.272z"/>
		<path d="M13.252,8.634c0.133-0.237,0.357-0.458,0.673-0.663c0.293-0.188,0.584-0.281,0.873-0.281c0.31,0,0.557,0.066,0.74,0.199    c0.232,0.16,0.349,0.392,0.349,0.695v2.061c0,0.205,0.011,0.342,0.033,0.414c0.033,0.166,0.116,0.249,0.25,0.249    c0.149,0,0.318-0.235,0.507-0.704c0.028-0.105,0.061-0.207,0.1-0.307c0.017-0.055,0.038-0.114,0.063-0.178    s0.051-0.131,0.079-0.203l0.125,0.249c-0.044,0.105-0.082,0.199-0.112,0.281c-0.03,0.083-0.057,0.158-0.079,0.224    c-0.011,0.022-0.02,0.045-0.025,0.07c-0.006,0.025-0.011,0.046-0.017,0.062c-0.011,0.022-0.021,0.044-0.029,0.066    s-0.015,0.042-0.021,0.058c-0.017,0.049-0.032,0.097-0.045,0.141c-0.014,0.044-0.024,0.08-0.029,0.107    c-0.166,0.276-0.463,0.414-0.889,0.414c-0.194,0-0.338-0.042-0.433-0.124c-0.183-0.116-0.274-0.29-0.274-0.521v-2.26    c0-0.171-0.027-0.317-0.083-0.438c-0.083-0.144-0.219-0.215-0.407-0.215c-0.261,0-0.532,0.119-0.814,0.356    c-0.338,0.271-0.519,0.56-0.541,0.869v2.334h-0.773V9.014V8.658c0-0.248-0.006-0.397-0.017-0.447    c-0.028-0.072-0.069-0.122-0.125-0.149c-0.133,0-0.316,0.336-0.548,1.01c-0.061,0.166-0.115,0.309-0.162,0.431    c-0.047,0.121-0.082,0.218-0.104,0.29c-0.066,0.182-0.108,0.306-0.125,0.373l-0.133-0.249c0.022-0.077,0.042-0.135,0.058-0.174    c0.005-0.033,0.014-0.064,0.025-0.095c0.011-0.03,0.022-0.062,0.033-0.095c0.011-0.027,0.021-0.056,0.029-0.087    c0.008-0.03,0.021-0.062,0.038-0.095c0.005-0.027,0.014-0.056,0.025-0.087c0.011-0.03,0.022-0.062,0.033-0.095    c0.011-0.027,0.021-0.055,0.029-0.083s0.021-0.058,0.038-0.091c0.011-0.055,0.033-0.118,0.066-0.19    c0.011-0.038,0.028-0.089,0.05-0.153c0.022-0.063,0.05-0.137,0.083-0.219c0.21-0.508,0.479-0.762,0.806-0.762    c0.321,0,0.521,0.083,0.599,0.248c0.05,0.094,0.075,0.326,0.075,0.696H13.252z"/>
	</g>
	<g class="st8">
		<path class="st14" d="M46.384,63.32v0.396h-1.447v0.597c0,0.247,0.002,0.464,0.005,0.651c0.003,0.188,0.014,0.331,0.033,0.429    h-0.549c0.019-0.099,0.029-0.243,0.033-0.431c0.003-0.188,0.005-0.404,0.005-0.649v-1.801c0-0.11-0.001-0.213-0.004-0.307    s-0.006-0.178-0.011-0.252c-0.005-0.075-0.012-0.137-0.022-0.187h2.17v0.41h-1.659v1.143H46.384z"/>
		<path class="st14" d="M47.132,64.14c0-0.214,0.033-0.403,0.097-0.567c0.065-0.165,0.152-0.305,0.262-0.418    c0.109-0.113,0.238-0.199,0.384-0.257c0.146-0.058,0.302-0.087,0.466-0.087c0.171,0,0.328,0.029,0.47,0.087    s0.264,0.144,0.367,0.257c0.102,0.113,0.182,0.253,0.238,0.418c0.056,0.164,0.084,0.354,0.084,0.567s-0.032,0.401-0.097,0.565    s-0.152,0.302-0.262,0.412c-0.11,0.111-0.238,0.195-0.384,0.253c-0.146,0.058-0.302,0.085-0.466,0.085    c-0.171,0-0.328-0.027-0.47-0.085c-0.142-0.058-0.264-0.142-0.366-0.253c-0.103-0.11-0.182-0.248-0.238-0.412    S47.132,64.354,47.132,64.14z M47.593,64.14c0,0.144,0.018,0.272,0.052,0.388c0.035,0.113,0.084,0.21,0.148,0.289    c0.064,0.078,0.14,0.139,0.229,0.18c0.088,0.041,0.186,0.063,0.294,0.063c0.1,0,0.194-0.021,0.282-0.063    c0.088-0.041,0.165-0.102,0.231-0.18c0.065-0.079,0.117-0.176,0.154-0.289c0.038-0.115,0.056-0.244,0.056-0.388    c0-0.146-0.017-0.276-0.052-0.392c-0.035-0.115-0.084-0.213-0.148-0.293s-0.141-0.142-0.229-0.184    c-0.089-0.043-0.187-0.063-0.293-0.063c-0.101,0-0.196,0.021-0.284,0.063c-0.088,0.042-0.165,0.104-0.229,0.184    s-0.116,0.178-0.153,0.293S47.593,63.994,47.593,64.14z"/>
		<path class="st14" d="M50.125,65.394v-1.527c0-0.245-0.014-0.452-0.042-0.622c-0.027-0.17-0.056-0.297-0.083-0.384h0.45    c0.02,0.046,0.037,0.104,0.053,0.175s0.029,0.148,0.04,0.234c0.011,0.087,0.019,0.179,0.024,0.276    c0.004,0.098,0.007,0.196,0.007,0.296v0.161c0.085-0.233,0.168-0.427,0.249-0.58c0.082-0.153,0.163-0.275,0.244-0.366    c0.08-0.091,0.161-0.154,0.242-0.191c0.082-0.036,0.165-0.055,0.25-0.055c0.063,0,0.121,0.006,0.174,0.018    c0.054,0.012,0.107,0.031,0.162,0.057l-0.074,0.46c-0.049-0.021-0.091-0.033-0.127-0.04c-0.037-0.006-0.082-0.01-0.135-0.01    c-0.068,0-0.141,0.029-0.215,0.086s-0.148,0.133-0.221,0.227c-0.072,0.095-0.141,0.201-0.205,0.32    c-0.065,0.119-0.123,0.242-0.172,0.367s-0.088,0.246-0.117,0.366c-0.029,0.119-0.043,0.226-0.043,0.317    c0,0.041,0,0.08,0.001,0.115c0.001,0.034,0.003,0.067,0.007,0.1c0.005,0.033,0.01,0.064,0.018,0.098    c0.006,0.031,0.014,0.066,0.024,0.103H50.125z"/>
		<path class="st14" d="M53.491,62.811c0.167,0,0.31,0.02,0.431,0.059c0.12,0.039,0.227,0.09,0.317,0.152l-0.087,0.447    c-0.113-0.082-0.226-0.145-0.337-0.186c-0.111-0.042-0.231-0.063-0.362-0.063c-0.111,0-0.215,0.021-0.31,0.063    c-0.096,0.043-0.179,0.104-0.249,0.184c-0.071,0.079-0.127,0.177-0.166,0.293c-0.041,0.115-0.061,0.246-0.061,0.393    c0,0.134,0.019,0.256,0.055,0.365c0.037,0.108,0.09,0.203,0.158,0.281c0.067,0.078,0.15,0.14,0.246,0.183    c0.097,0.043,0.205,0.064,0.326,0.064c0.152,0,0.289-0.026,0.412-0.077s0.24-0.125,0.35-0.221l0.049,0.435    c-0.063,0.048-0.125,0.089-0.188,0.122c-0.063,0.035-0.128,0.063-0.195,0.085c-0.068,0.022-0.143,0.039-0.221,0.05    s-0.163,0.016-0.256,0.016c-0.168,0-0.325-0.029-0.472-0.088s-0.274-0.144-0.384-0.254c-0.109-0.111-0.196-0.246-0.26-0.402    c-0.063-0.158-0.095-0.336-0.095-0.534c0-0.187,0.03-0.363,0.091-0.529c0.061-0.165,0.147-0.31,0.26-0.435    c0.112-0.124,0.248-0.223,0.408-0.294C53.114,62.847,53.293,62.811,53.491,62.811z"/>
		<path class="st14" d="M55.936,62.811c0.136,0,0.256,0.017,0.361,0.049c0.104,0.032,0.195,0.076,0.271,0.134s0.141,0.124,0.191,0.2    c0.053,0.076,0.094,0.158,0.124,0.246s0.053,0.179,0.066,0.273c0.013,0.096,0.02,0.189,0.02,0.283v0.096    c0,0.042-0.001,0.074-0.003,0.098h-1.768c0.005,0.146,0.027,0.271,0.068,0.379c0.041,0.108,0.097,0.197,0.168,0.268    c0.07,0.07,0.153,0.123,0.248,0.158c0.096,0.034,0.201,0.052,0.313,0.052c0.161,0,0.319-0.019,0.474-0.055    c0.155-0.036,0.309-0.101,0.462-0.194l0.05,0.41c-0.088,0.045-0.175,0.083-0.26,0.115c-0.084,0.031-0.17,0.057-0.254,0.076    c-0.085,0.02-0.171,0.035-0.258,0.043c-0.088,0.01-0.18,0.014-0.275,0.014c-0.16,0-0.313-0.027-0.457-0.082    c-0.145-0.057-0.271-0.139-0.381-0.246c-0.11-0.109-0.197-0.243-0.263-0.404c-0.064-0.16-0.097-0.347-0.097-0.559    c0-0.205,0.027-0.391,0.083-0.557c0.056-0.167,0.136-0.31,0.238-0.428c0.103-0.119,0.229-0.209,0.376-0.273    C55.584,62.843,55.75,62.811,55.936,62.811z M55.897,63.184c-0.183,0-0.333,0.053-0.448,0.16c-0.117,0.106-0.193,0.272-0.23,0.498    h1.303c0-0.106-0.016-0.2-0.047-0.282c-0.03-0.082-0.074-0.151-0.129-0.208c-0.057-0.056-0.122-0.098-0.199-0.126    C56.07,63.197,55.987,63.184,55.897,63.184z"/>
	</g>
	<g class="st8">
		<path class="st14" d="M46.293,67.699c0-0.271,0.102-0.502,0.307-0.691s0.455-0.283,0.75-0.283c0.291,0,0.537,0.094,0.737,0.281    c0.201,0.188,0.301,0.419,0.301,0.693c0,0.31-0.145,0.565-0.434,0.768c0.323,0.186,0.484,0.459,0.484,0.82    c0,0.286-0.105,0.523-0.314,0.71c-0.209,0.188-0.474,0.28-0.793,0.28c-0.316,0-0.581-0.096-0.795-0.286    c-0.214-0.191-0.322-0.429-0.322-0.71c0-0.353,0.165-0.625,0.494-0.814c-0.148-0.119-0.254-0.238-0.318-0.356    S46.293,67.855,46.293,67.699z M47.934,69.307v-0.049c0-0.16-0.057-0.289-0.171-0.389c-0.114-0.101-0.261-0.15-0.442-0.15    c-0.178,0-0.323,0.051-0.435,0.151c-0.112,0.101-0.168,0.231-0.168,0.392c0,0.161,0.057,0.292,0.172,0.393    c0.115,0.102,0.264,0.152,0.446,0.152c0.175,0,0.318-0.047,0.43-0.14C47.877,69.574,47.934,69.455,47.934,69.307z M47.891,67.715    c0-0.15-0.052-0.274-0.156-0.372s-0.235-0.146-0.395-0.146c-0.162,0-0.293,0.048-0.396,0.144c-0.104,0.096-0.155,0.22-0.155,0.37    c0,0.144,0.054,0.268,0.163,0.37s0.24,0.154,0.393,0.154c0.151,0,0.28-0.051,0.387-0.152    C47.838,67.979,47.891,67.857,47.891,67.715z"/>
		<path class="st14" d="M49.118,66.77h1.546v0.441h-1.092v0.877c0.035-0.004,0.07-0.006,0.107-0.006    c0.338,0,0.616,0.104,0.833,0.307c0.219,0.205,0.327,0.465,0.327,0.781c0,0.326-0.107,0.592-0.323,0.797    c-0.215,0.204-0.494,0.307-0.836,0.307c-0.282,0-0.557-0.068-0.823-0.204v-0.512c0.251,0.163,0.496,0.243,0.736,0.243    c0.209,0,0.385-0.061,0.527-0.182c0.143-0.122,0.214-0.271,0.214-0.449c0-0.184-0.077-0.337-0.231-0.46    c-0.155-0.124-0.348-0.185-0.579-0.185c-0.198,0-0.333,0.016-0.404,0.049V66.77z"/>
		<path class="st14" d="M53.478,66.729c0.214,0,0.397,0.076,0.549,0.229s0.227,0.336,0.227,0.549s-0.075,0.395-0.228,0.547    s-0.335,0.229-0.548,0.229s-0.396-0.076-0.548-0.229s-0.229-0.334-0.229-0.547s0.076-0.396,0.228-0.549    S53.264,66.729,53.478,66.729z M55.242,66.719h0.385l-2.291,3.559h-0.385L55.242,66.719z M53.471,67.106    c-0.11,0-0.205,0.04-0.284,0.118s-0.118,0.172-0.118,0.283c0,0.109,0.04,0.202,0.119,0.279c0.08,0.078,0.174,0.117,0.283,0.117    c0.111,0,0.207-0.039,0.285-0.117c0.078-0.077,0.118-0.17,0.118-0.279c0-0.112-0.039-0.207-0.116-0.285    C53.68,67.146,53.584,67.106,53.471,67.106z M55.122,68.729c0.212,0,0.396,0.076,0.548,0.227c0.152,0.152,0.229,0.334,0.229,0.545    c0,0.213-0.075,0.393-0.227,0.541c-0.152,0.148-0.336,0.223-0.55,0.223c-0.216,0-0.399-0.074-0.552-0.223    c-0.151-0.148-0.228-0.328-0.228-0.541s0.077-0.395,0.229-0.546C54.725,68.804,54.908,68.729,55.122,68.729z M55.117,69.105    c-0.109,0-0.203,0.039-0.279,0.117c-0.078,0.077-0.115,0.17-0.115,0.279c0,0.11,0.037,0.205,0.115,0.283    c0.076,0.078,0.17,0.117,0.279,0.117c0.113,0,0.208-0.038,0.286-0.115c0.077-0.078,0.116-0.173,0.116-0.285    c0-0.11-0.039-0.204-0.116-0.281C55.325,69.145,55.23,69.105,55.117,69.105z"/>
	</g>
	<path class="st16" d="M67.7,41.5c0,0,1.5,1.3,2,0.7c0,0,0.6-0.7-1.1-2.3c0,0-1.6-1.5-2.3-1c0,0-0.5,0.6,0.8,2l-8.3,8.5l-3.7,4.3   l4.3-3.8L67.7,41.5z"/>
	<path class="st17" d="M68.3,42c0,0-0.8-0.4-1.6-1.5"/>
	<path class="st18" d="M53.4,55.5l3-2.7L56,52.4C56,52.4,53.3,55.6,53.4,55.5"/>
</g>
</svg>