<?xml version="1.0" encoding="UTF-8"?>
<!-- Generator: Adobe Illustrator 24.0.2, SVG Export Plug-In . SVG Version: 6.00 Build 0)  -->
<svg version="1.1" id="Calque_1" xmlns="http://www.w3.org/2000/svg" xmlns:xlink="http://www.w3.org/1999/xlink" x="0px" y="0px" viewBox="0 0 147 68" style="enable-background:new 0 0 147 68;" xml:space="preserve">
<style type="text/css">
	.st0{fill:#FFFFFF;stroke:#DADADA;stroke-width:0.7273;stroke-miterlimit:10;}
	.st1{fill:#FFFFFF;stroke:#9D9D9C;stroke-width:0.7273;stroke-miterlimit:10;}
	.st2{fill:#FFFFFF;stroke:#000000;stroke-width:0.9697;stroke-miterlimit:10;}
	.st3{enable-background:new    ;}
	.st4{fill:#706F6F;}
	.st5{fill:#7FC7EB;}
	.st6{fill:none;stroke:#B2B2B2;stroke-width:0.3636;stroke-miterlimit:10;}
	.st7{fill:#878787;}
	.st8{fill:#9D9D9C;}
	.st9{fill:#B2B2B2;}
	.st10{fill:#575756;}
	.st11{fill:#FFFFFF;}
	.st12{fill:none;stroke:#575756;stroke-width:0.1745;stroke-linecap:round;stroke-linejoin:round;stroke-miterlimit:10;}
	.st13{fill:none;stroke:#575756;stroke-width:0.5234;stroke-linecap:round;stroke-linejoin:round;stroke-miterlimit:10;}
</style>
<g id="_x3C_Groupe_x3E__bonbon">
	<rect x="100.3" y="2.3" class="st0" width="45.8" height="12.2"/>
	<polygon class="st1" points="82.8,31.5 70.4,31.5 70.4,2.3 100.2,2.3 100.2,31.5 85.4,31.5  "/>
	<path class="st2" d="M48.9,54.8H18.2V2.4h52v52.4H55.3c0,0-4.8,8.7-12.7,10.4C42.6,65.2,47.4,62,48.9,54.8z"/>
	<g class="st3">
		<path class="st4" d="M92.914,6.382c0,0.302-0.044,0.572-0.133,0.81s-0.207,0.44-0.354,0.605c-0.147,0.166-0.314,0.292-0.503,0.379    c-0.188,0.087-0.381,0.131-0.581,0.131c-0.201,0-0.394-0.041-0.579-0.124c-0.185-0.082-0.348-0.203-0.488-0.362    c-0.143-0.159-0.255-0.355-0.34-0.587s-0.127-0.5-0.127-0.801c0-0.201,0.02-0.388,0.061-0.561s0.098-0.331,0.17-0.473    s0.158-0.269,0.258-0.38c0.1-0.11,0.209-0.204,0.326-0.279c0.117-0.075,0.241-0.133,0.371-0.172    c0.131-0.039,0.264-0.059,0.398-0.059c0.198,0,0.389,0.041,0.572,0.124c0.184,0.082,0.347,0.203,0.486,0.362    c0.141,0.159,0.254,0.355,0.338,0.587S92.914,6.081,92.914,6.382z M92.428,6.445c0-0.231-0.025-0.44-0.076-0.625    c-0.051-0.185-0.122-0.342-0.215-0.472c-0.094-0.129-0.205-0.228-0.336-0.297s-0.275-0.103-0.434-0.103s-0.303,0.033-0.434,0.099    c-0.131,0.066-0.244,0.161-0.34,0.285C90.5,5.455,90.426,5.604,90.373,5.78c-0.052,0.175-0.078,0.372-0.078,0.59    c0,0.23,0.025,0.437,0.076,0.622s0.123,0.342,0.217,0.472s0.207,0.23,0.338,0.299c0.132,0.07,0.279,0.104,0.441,0.104    c0.154,0,0.295-0.032,0.425-0.097s0.241-0.158,0.335-0.279c0.095-0.122,0.168-0.271,0.221-0.447    C92.401,6.868,92.428,6.668,92.428,6.445z"/>
	</g>
	<g class="st3">
		<path class="st5" d="M94.376,4.571l1.073,3.158l1.085-3.158h0.549c0.021,0.599,0.04,1.149,0.06,1.65    c0.006,0.143,0.012,0.286,0.018,0.429c0.007,0.143,0.014,0.283,0.021,0.42s0.013,0.267,0.02,0.39    c0.007,0.123,0.013,0.236,0.019,0.338s0.012,0.191,0.02,0.268c0.006,0.076,0.013,0.135,0.02,0.177h-0.461l-0.07-3.014    l-1.028,3.014h-0.486l-1.033-3.006l-0.077,3.006h-0.461c0.004-0.042,0.01-0.101,0.017-0.177c0.007-0.077,0.013-0.166,0.019-0.268    s0.012-0.215,0.02-0.338c0.006-0.124,0.013-0.253,0.02-0.39c0.006-0.137,0.013-0.277,0.019-0.42    c0.006-0.144,0.013-0.287,0.019-0.429c0.02-0.501,0.041-1.052,0.063-1.65H94.376z"/>
	</g>
	<g class="st3">
		<path class="st4" d="M74.022,5.634c0.167,0.055,0.285,0.141,0.356,0.258c0.049,0.147,0.08,0.254,0.093,0.321    c0.024,0.147,0.038,0.273,0.038,0.377c0,0.101-0.009,0.201-0.025,0.302c0.045,0.046,0.102,0.086,0.168,0.12    c0.059,0.034,0.113,0.05,0.162,0.05c0.063,0,0.108-0.033,0.138-0.101l0.093,0.201c-0.062,0.08-0.135,0.12-0.218,0.12    c-0.062,0-0.131-0.021-0.206-0.063c-0.07-0.021-0.129-0.067-0.174-0.138c-0.088,0.44-0.267,0.755-0.537,0.943    c-0.216,0.147-0.48,0.22-0.792,0.22c-0.366,0-0.657-0.149-0.873-0.447c-0.212-0.268-0.318-0.581-0.318-0.937    c0-0.436,0.116-0.813,0.349-1.132c0.229-0.306,0.539-0.459,0.93-0.459C73.588,5.269,73.86,5.391,74.022,5.634z M73.417,8.005    c0.187,0,0.362-0.083,0.524-0.251c0.17-0.185,0.285-0.434,0.344-0.749c-0.196-0.13-0.346-0.25-0.45-0.358    c-0.149-0.143-0.239-0.285-0.268-0.428c-0.013-0.029-0.019-0.08-0.019-0.151c0-0.08,0.021-0.167,0.063-0.264    c0.046-0.08,0.121-0.132,0.225-0.157c-0.1-0.109-0.248-0.164-0.443-0.164c-0.233,0-0.428,0.141-0.586,0.421    c-0.149,0.302-0.225,0.606-0.225,0.912s0.069,0.568,0.206,0.786C72.933,7.871,73.143,8.005,73.417,8.005z M74.328,6.785    c0.013-0.088,0.02-0.178,0.02-0.27c0-0.164-0.029-0.319-0.088-0.466c-0.07-0.155-0.142-0.232-0.213-0.232    c-0.02,0-0.043,0.008-0.068,0.025c-0.058,0.034-0.087,0.109-0.087,0.227c0,0.126,0.046,0.256,0.138,0.39    C74.111,6.609,74.212,6.718,74.328,6.785z"/>
	</g>
	<g class="st3">
		<path class="st5" d="M78.121,8.244h-0.594v-2.22c0-0.13-0.022-0.241-0.068-0.333c-0.07-0.113-0.17-0.17-0.299-0.17    c-0.18,0-0.346,0.078-0.499,0.233c-0.154,0.164-0.243,0.354-0.269,0.572v1.918h-0.574V6.288V6.018c0-0.084-0.004-0.197-0.012-0.34    c-0.021-0.063-0.053-0.101-0.094-0.113c-0.088,0-0.213,0.208-0.375,0.623c-0.037,0.088-0.084,0.211-0.143,0.371    c-0.059,0.159-0.127,0.356-0.206,0.591l-0.087-0.176c0.008-0.038,0.024-0.099,0.049-0.183c0.018-0.042,0.027-0.073,0.031-0.094    c0.004-0.013,0.01-0.027,0.016-0.044c0.007-0.017,0.014-0.034,0.022-0.05c0.013-0.038,0.028-0.088,0.05-0.151    c0.021-0.063,0.046-0.139,0.074-0.227c0.229-0.625,0.465-0.937,0.705-0.937c0.237,0,0.387,0.036,0.449,0.107    c0.063,0.075,0.094,0.232,0.094,0.472c0.221-0.398,0.52-0.598,0.898-0.598c0.195,0,0.367,0.042,0.518,0.126    c0.166,0.109,0.271,0.264,0.313,0.465c0.229-0.394,0.538-0.591,0.929-0.591c0.229,0,0.414,0.048,0.556,0.145    c0.178,0.126,0.268,0.306,0.268,0.541v1.679c0,0.143,0.009,0.231,0.025,0.265c0.021,0.092,0.088,0.138,0.199,0.138    c0.112,0,0.23-0.183,0.355-0.547c0.018-0.063,0.029-0.103,0.037-0.12c0.018-0.046,0.031-0.09,0.045-0.132    c0.012-0.038,0.018-0.059,0.018-0.063c0.009-0.013,0.018-0.036,0.025-0.069c0.008-0.021,0.017-0.042,0.025-0.063    c0.008-0.021,0.019-0.044,0.031-0.069l0.1,0.195c-0.055,0.134-0.1,0.258-0.138,0.371c-0.013,0.042-0.024,0.079-0.037,0.11    c-0.013,0.031-0.021,0.056-0.024,0.072c-0.005,0.021-0.016,0.052-0.031,0.094c-0.005,0.017-0.01,0.033-0.016,0.047    c-0.007,0.015-0.01,0.028-0.01,0.041c-0.146,0.227-0.383,0.34-0.711,0.34c-0.138,0-0.239-0.031-0.307-0.094    c-0.124-0.088-0.187-0.206-0.187-0.353V6.024c0-0.13-0.021-0.241-0.063-0.333c-0.062-0.113-0.164-0.17-0.306-0.17    c-0.149,0-0.293,0.048-0.43,0.145c-0.184,0.126-0.303,0.296-0.355,0.51V8.244z"/>
	</g>
	<path class="st6" d="M23.9,51.5c0.3,0.1,9.2,2,18.9,0"/>
	<path class="st6" d="M45.4,51.5c0.3,0.1,9.3,2,19.1,0"/>
	<g class="st3">
		<path class="st7" d="M57.926,60.021v0.403h-1.447v0.604c0,0.249,0.001,0.469,0.005,0.66c0.003,0.189,0.014,0.334,0.033,0.434    h-0.549c0.018-0.101,0.029-0.246,0.032-0.437s0.005-0.409,0.005-0.657v-1.824c0-0.113-0.001-0.217-0.003-0.311    c-0.003-0.096-0.006-0.181-0.011-0.256c-0.005-0.076-0.013-0.139-0.022-0.189h2.17v0.416h-1.659v1.156H57.926z"/>
		<path class="st7" d="M58.674,60.853c0-0.216,0.033-0.408,0.098-0.575c0.065-0.166,0.152-0.308,0.262-0.422    c0.11-0.115,0.238-0.202,0.384-0.261c0.146-0.06,0.302-0.089,0.467-0.089c0.171,0,0.328,0.029,0.47,0.089    c0.142,0.059,0.265,0.146,0.367,0.261c0.103,0.114,0.182,0.256,0.238,0.422c0.057,0.167,0.085,0.359,0.085,0.575    s-0.033,0.407-0.097,0.573c-0.065,0.166-0.152,0.306-0.262,0.418s-0.238,0.197-0.384,0.256c-0.146,0.058-0.302,0.086-0.466,0.086    c-0.171,0-0.328-0.028-0.471-0.086c-0.142-0.059-0.264-0.144-0.367-0.256c-0.102-0.112-0.182-0.252-0.238-0.418    S58.674,61.068,58.674,60.853z M59.136,60.853c0,0.146,0.018,0.276,0.052,0.393c0.035,0.116,0.084,0.214,0.148,0.293    s0.14,0.141,0.229,0.183c0.088,0.041,0.186,0.063,0.294,0.063c0.1,0,0.193-0.021,0.282-0.063c0.088-0.042,0.165-0.104,0.231-0.183    c0.065-0.079,0.117-0.177,0.155-0.293c0.037-0.116,0.056-0.247,0.056-0.393c0-0.147-0.018-0.28-0.053-0.396    c-0.035-0.116-0.084-0.216-0.148-0.297s-0.141-0.144-0.229-0.187s-0.187-0.063-0.293-0.063c-0.102,0-0.196,0.021-0.285,0.063    c-0.088,0.043-0.165,0.105-0.229,0.187s-0.116,0.181-0.153,0.297C59.154,60.572,59.136,60.705,59.136,60.853z"/>
		<path class="st7" d="M61.668,62.123v-1.547c0-0.248-0.014-0.459-0.041-0.631s-0.056-0.301-0.083-0.389h0.449    c0.02,0.047,0.038,0.106,0.054,0.178c0.016,0.071,0.029,0.15,0.04,0.237s0.019,0.181,0.023,0.279    c0.005,0.099,0.008,0.198,0.008,0.3v0.163c0.085-0.236,0.168-0.433,0.25-0.587c0.082-0.155,0.163-0.279,0.243-0.371    c0.081-0.093,0.162-0.157,0.243-0.193c0.082-0.037,0.165-0.057,0.25-0.057c0.063,0,0.122,0.006,0.175,0.018    s0.107,0.031,0.162,0.059l-0.075,0.465c-0.048-0.02-0.091-0.033-0.127-0.039c-0.037-0.008-0.082-0.011-0.135-0.011    c-0.068,0-0.14,0.028-0.214,0.087c-0.075,0.058-0.148,0.135-0.221,0.23c-0.073,0.096-0.141,0.203-0.206,0.324    s-0.122,0.244-0.171,0.371c-0.049,0.127-0.088,0.25-0.117,0.371c-0.029,0.121-0.044,0.229-0.044,0.322c0,0.041,0,0.08,0.001,0.115    s0.003,0.069,0.007,0.102c0.004,0.033,0.01,0.066,0.016,0.099c0.007,0.032,0.015,0.067,0.025,0.104H61.668z"/>
		<path class="st7" d="M65.037,59.506c0.166,0,0.31,0.021,0.43,0.06c0.121,0.04,0.227,0.091,0.318,0.155l-0.087,0.453    c-0.113-0.084-0.226-0.147-0.337-0.189S65.129,59.922,65,59.922c-0.111,0-0.215,0.021-0.311,0.064    c-0.096,0.042-0.179,0.104-0.25,0.185c-0.071,0.08-0.126,0.179-0.166,0.297c-0.04,0.117-0.06,0.249-0.06,0.397    c0,0.136,0.019,0.259,0.055,0.369c0.037,0.111,0.089,0.207,0.157,0.286c0.068,0.079,0.15,0.142,0.247,0.185    c0.096,0.044,0.205,0.066,0.327,0.066c0.151,0,0.289-0.027,0.412-0.078c0.123-0.053,0.24-0.127,0.349-0.225l0.05,0.44    c-0.063,0.049-0.126,0.091-0.188,0.124c-0.063,0.035-0.128,0.063-0.196,0.086c-0.068,0.023-0.142,0.039-0.22,0.051    c-0.078,0.011-0.164,0.016-0.257,0.016c-0.168,0-0.325-0.029-0.472-0.089s-0.274-0.146-0.384-0.258s-0.196-0.249-0.259-0.407    c-0.063-0.16-0.095-0.34-0.095-0.541c0-0.189,0.031-0.369,0.091-0.536c0.061-0.168,0.147-0.314,0.259-0.44    s0.249-0.225,0.409-0.299C64.66,59.543,64.839,59.506,65.037,59.506z"/>
		<path class="st7" d="M67.482,59.506c0.137,0,0.257,0.018,0.362,0.05c0.105,0.032,0.195,0.077,0.272,0.136    c0.077,0.058,0.141,0.125,0.192,0.203c0.051,0.076,0.092,0.16,0.124,0.248c0.031,0.09,0.053,0.182,0.066,0.278    s0.02,0.192,0.02,0.286v0.098c0,0.042-0.001,0.074-0.002,0.098h-1.769c0.005,0.148,0.028,0.276,0.068,0.385    c0.041,0.109,0.097,0.199,0.167,0.271c0.07,0.07,0.154,0.124,0.25,0.159c0.096,0.036,0.2,0.054,0.313,0.054    c0.161,0,0.319-0.02,0.474-0.057c0.155-0.036,0.309-0.102,0.461-0.195l0.05,0.415c-0.088,0.045-0.174,0.083-0.259,0.116    c-0.085,0.031-0.17,0.057-0.254,0.077c-0.085,0.021-0.171,0.035-0.258,0.044c-0.087,0.01-0.179,0.014-0.276,0.014    c-0.16,0-0.312-0.027-0.457-0.084s-0.272-0.139-0.382-0.249s-0.197-0.246-0.262-0.409c-0.065-0.162-0.098-0.352-0.098-0.566    c0-0.207,0.028-0.396,0.084-0.564c0.056-0.168,0.135-0.313,0.238-0.433c0.103-0.12,0.229-0.212,0.376-0.276    S67.297,59.506,67.482,59.506z M67.445,59.884c-0.183,0-0.333,0.054-0.449,0.162c-0.117,0.108-0.193,0.276-0.229,0.505h1.302    c0-0.107-0.015-0.203-0.046-0.285c-0.031-0.084-0.074-0.154-0.13-0.211s-0.122-0.1-0.198-0.128    C67.618,59.898,67.535,59.884,67.445,59.884z"/>
	</g>
	<g class="st3">
		<path class="st7" d="M20.806,58.344h1.434v0.164h-0.605c-0.132,0-0.222,0.042-0.27,0.127c-0.026,0.047-0.04,0.109-0.04,0.185v4.62    c0,0.102,0.015,0.178,0.043,0.228c0.05,0.087,0.146,0.131,0.29,0.131h0.582v0.175h-1.434V58.344z"/>
		<path class="st7" d="M23.207,60.168c0-0.054,0.081-0.133,0.243-0.24c0.121-0.079,0.227-0.139,0.318-0.181    c0.16-0.071,0.313-0.107,0.462-0.107c0.513,0,0.923,0.124,1.231,0.372c0.337,0.273,0.505,0.691,0.505,1.255    c0-0.001-0.002,0.047-0.006,0.145c-0.027,0.585-0.293,1.022-0.799,1.312c-0.237,0.137-0.493,0.205-0.769,0.208    c-0.381,0.003-0.664-0.054-0.847-0.171c-0.066-0.041-0.1-0.067-0.1-0.078c-0.019-0.06-0.028-0.256-0.028-0.59    c0.094,0,0.191,0.068,0.291,0.207c0.125,0.168,0.213,0.269,0.268,0.3c0.159,0.093,0.354,0.14,0.585,0.14    c0.385-0.047,0.651-0.283,0.8-0.709c0.066-0.189,0.1-0.389,0.1-0.597c0-0.073-0.004-0.149-0.013-0.226    c-0.024-0.213-0.079-0.404-0.163-0.574c-0.156-0.313-0.396-0.521-0.72-0.623c-0.161-0.05-0.334-0.074-0.521-0.074    c-0.061,0-0.117,0.002-0.169,0.006c-0.124,0.012-0.29,0.079-0.498,0.203c-0.087,0.053-0.138,0.079-0.151,0.079    C23.213,60.224,23.207,60.205,23.207,60.168z M24.103,58.564c-0.031-0.004-0.064-0.005-0.098-0.005    c-0.113,0.015-0.27,0.072-0.469,0.173c-0.083,0.043-0.131,0.065-0.145,0.068c-0.079,0-0.046-0.053,0.098-0.16    c0.106-0.072,0.213-0.145,0.319-0.217L24.103,58.564z M23.809,58.424c0.107-0.076,0.207-0.122,0.298-0.138    c0.117,0,0.268,0.042,0.452,0.126c0.093,0.043,0.165,0.072,0.216,0.089c0.058,0.019,0.119,0.027,0.183,0.024    c0.085-0.003,0.173-0.027,0.264-0.072c0.09-0.05,0.18-0.101,0.27-0.152c0.142-0.079,0.225-0.119,0.25-0.119    c0.009,0.006,0.013,0.014,0.013,0.022c0,0.102-0.145,0.249-0.434,0.442c-0.14,0.094-0.288,0.15-0.444,0.168    c-0.089,0-0.22-0.041-0.395-0.124c-0.092-0.042-0.172-0.075-0.241-0.097c-0.042-0.014-0.088-0.023-0.138-0.029L23.809,58.424z"/>
		<path class="st7" d="M28.361,63.973h-1.437v-0.168h0.609c0.204,0,0.306-0.104,0.306-0.309v-4.623c0-0.236-0.109-0.355-0.329-0.355    h-0.585v-0.174h1.437V63.973z"/>
	</g>
	<g class="st3">
		<path class="st7" d="M57.836,64.458c0-0.274,0.102-0.508,0.307-0.7c0.205-0.191,0.455-0.287,0.751-0.287    c0.291,0,0.537,0.095,0.737,0.285c0.201,0.189,0.301,0.424,0.301,0.702c0,0.313-0.145,0.573-0.434,0.777    c0.323,0.188,0.484,0.465,0.484,0.831c0,0.29-0.104,0.529-0.314,0.72c-0.209,0.189-0.474,0.284-0.793,0.284    c-0.316,0-0.582-0.097-0.796-0.291c-0.214-0.193-0.322-0.434-0.322-0.719c0-0.357,0.165-0.633,0.494-0.825    c-0.148-0.121-0.254-0.241-0.318-0.36C57.868,64.754,57.836,64.615,57.836,64.458z M59.478,66.087v-0.05    c0-0.162-0.057-0.293-0.171-0.395s-0.262-0.152-0.443-0.152c-0.178,0-0.323,0.051-0.436,0.154    c-0.112,0.102-0.168,0.234-0.168,0.396c0,0.163,0.058,0.296,0.172,0.398c0.115,0.102,0.264,0.152,0.447,0.152    c0.174,0,0.318-0.047,0.43-0.141S59.478,66.236,59.478,66.087z M59.435,64.475c0-0.153-0.052-0.279-0.156-0.378    s-0.236-0.148-0.396-0.148c-0.162,0-0.293,0.049-0.397,0.146c-0.103,0.098-0.154,0.223-0.154,0.375    c0,0.146,0.054,0.271,0.163,0.375S58.736,65,58.889,65c0.151,0,0.28-0.052,0.387-0.154C59.382,64.742,59.435,64.618,59.435,64.475    z"/>
		<path class="st7" d="M61.716,63.506l0.05-0.035l0.302,0.382c-0.266,0.173-0.487,0.362-0.663,0.567S61.095,64.866,61,65.143    C61.185,65.048,61.368,65,61.551,65c0.274,0,0.505,0.098,0.693,0.295c0.188,0.195,0.282,0.437,0.282,0.721    c0,0.295-0.103,0.543-0.307,0.748s-0.453,0.307-0.746,0.307c-0.328,0-0.592-0.115-0.794-0.348s-0.303-0.537-0.303-0.912    c0-0.282,0.052-0.563,0.156-0.842c0.104-0.279,0.254-0.541,0.449-0.785C61.177,63.939,61.421,63.713,61.716,63.506z     M60.893,65.664c-0.013,0.079-0.02,0.167-0.02,0.264c0,0.198,0.057,0.361,0.171,0.488c0.114,0.128,0.26,0.191,0.438,0.191    c0.16,0,0.292-0.055,0.396-0.164c0.104-0.108,0.156-0.246,0.156-0.412c0-0.17-0.055-0.307-0.166-0.411    c-0.11-0.104-0.256-0.157-0.438-0.157c-0.093,0-0.178,0.014-0.253,0.043C61.1,65.534,61.005,65.587,60.893,65.664z"/>
		<path class="st7" d="M65.024,63.475c0.214,0,0.397,0.078,0.549,0.232s0.227,0.34,0.227,0.556c0,0.215-0.076,0.399-0.229,0.554    c-0.152,0.154-0.334,0.231-0.547,0.231s-0.396-0.077-0.548-0.231s-0.228-0.339-0.228-0.554c0-0.216,0.076-0.401,0.227-0.556    S64.81,63.475,65.024,63.475z M66.79,63.465h0.386l-2.292,3.605h-0.385L66.79,63.465z M65.018,63.857    c-0.111,0-0.206,0.04-0.285,0.119c-0.079,0.08-0.118,0.176-0.118,0.287s0.04,0.205,0.119,0.283    c0.08,0.079,0.174,0.118,0.284,0.118c0.111,0,0.206-0.039,0.285-0.118c0.079-0.078,0.118-0.172,0.118-0.283    c0-0.113-0.039-0.209-0.117-0.288C65.226,63.896,65.131,63.857,65.018,63.857z M66.67,65.5c0.212,0,0.395,0.077,0.548,0.23    c0.153,0.154,0.229,0.338,0.229,0.553s-0.076,0.396-0.228,0.547c-0.152,0.15-0.335,0.226-0.549,0.226    c-0.216,0-0.4-0.075-0.552-0.226c-0.152-0.15-0.228-0.332-0.228-0.547c0-0.217,0.076-0.4,0.229-0.554    C66.272,65.577,66.456,65.5,66.67,65.5z M66.665,65.883c-0.11,0-0.203,0.039-0.28,0.118c-0.077,0.079-0.115,0.173-0.115,0.283    c0,0.112,0.039,0.208,0.115,0.287c0.077,0.079,0.17,0.119,0.28,0.119c0.112,0,0.208-0.039,0.286-0.118    c0.078-0.078,0.117-0.174,0.117-0.288c0-0.112-0.039-0.207-0.117-0.284C66.873,65.922,66.777,65.883,66.665,65.883z"/>
	</g>
	<g>
		<g class="st3">
			<path class="st8" d="M76.191,14.364c0-0.577,0.087-1.088,0.26-1.533c0.173-0.445,0.406-0.821,0.699-1.127     c0.292-0.306,0.634-0.538,1.023-0.694c0.391-0.157,0.806-0.235,1.244-0.235c0.457,0,0.875,0.078,1.255,0.235     s0.705,0.388,0.978,0.694c0.273,0.306,0.484,0.682,0.636,1.127c0.151,0.445,0.227,0.956,0.227,1.533s-0.087,1.087-0.26,1.53     s-0.405,0.814-0.698,1.114s-0.635,0.526-1.025,0.681s-0.805,0.232-1.244,0.232c-0.457,0-0.875-0.078-1.254-0.232     s-0.705-0.381-0.979-0.681c-0.272-0.3-0.484-0.671-0.635-1.114S76.191,14.941,76.191,14.364z M77.422,14.364     c0,0.389,0.047,0.738,0.141,1.047c0.093,0.309,0.225,0.569,0.396,0.781c0.171,0.213,0.374,0.375,0.608,0.487     c0.236,0.112,0.497,0.167,0.785,0.167c0.267,0,0.518-0.056,0.752-0.167c0.235-0.112,0.44-0.274,0.615-0.487     c0.176-0.212,0.313-0.473,0.413-0.781c0.101-0.309,0.149-0.658,0.149-1.047c0-0.394-0.047-0.746-0.139-1.057     c-0.094-0.311-0.227-0.575-0.396-0.792c-0.171-0.217-0.375-0.383-0.612-0.497c-0.237-0.114-0.498-0.171-0.782-0.171     c-0.27,0-0.523,0.057-0.758,0.171c-0.235,0.114-0.439,0.279-0.612,0.497c-0.173,0.217-0.31,0.48-0.409,0.792     S77.422,13.97,77.422,14.364z"/>
		</g>
		<g class="st3">
			<path class="st5" d="M89.186,17.752h-1.23v-3.824c0-0.416-0.016-0.752-0.047-1.01s-0.083-0.458-0.156-0.604     c-0.072-0.145-0.172-0.242-0.296-0.292s-0.279-0.074-0.466-0.074c-0.164,0-0.328,0.034-0.492,0.101     c-0.164,0.067-0.32,0.162-0.469,0.285s-0.287,0.268-0.413,0.436c-0.126,0.167-0.233,0.352-0.322,0.553v4.428h-1.231v-4.126     c0-0.662-0.037-1.222-0.113-1.681c-0.075-0.458-0.148-0.804-0.219-1.037h1.197c0.049,0.143,0.091,0.312,0.127,0.506     c0.035,0.195,0.064,0.373,0.086,0.533c0.204-0.237,0.399-0.431,0.586-0.583c0.186-0.152,0.371-0.271,0.555-0.359     c0.185-0.087,0.367-0.147,0.549-0.181c0.183-0.034,0.369-0.05,0.56-0.05c0.218,0,0.415,0.031,0.593,0.094     c0.177,0.063,0.333,0.146,0.469,0.249c0.135,0.103,0.252,0.222,0.35,0.359c0.097,0.136,0.172,0.278,0.226,0.426     c0.208-0.228,0.41-0.415,0.605-0.56s0.386-0.259,0.572-0.342c0.187-0.083,0.369-0.141,0.549-0.174s0.356-0.05,0.528-0.05     c0.338,0,0.621,0.055,0.853,0.165c0.23,0.109,0.415,0.271,0.556,0.486c0.139,0.214,0.239,0.481,0.299,0.798     c0.061,0.317,0.09,0.684,0.09,1.1v4.428h-1.23v-3.69c0-0.434-0.016-0.787-0.047-1.06s-0.083-0.488-0.156-0.644     c-0.073-0.157-0.172-0.264-0.296-0.322s-0.28-0.087-0.466-0.087c-0.164,0-0.326,0.033-0.486,0.098     c-0.159,0.065-0.313,0.156-0.462,0.275s-0.286,0.263-0.413,0.433c-0.126,0.17-0.238,0.36-0.336,0.57V17.752z"/>
		</g>
		<g class="st3">
			<path class="st8" d="M74.193,22.41c0-0.36,0.055-0.68,0.162-0.958c0.109-0.278,0.254-0.513,0.438-0.705     c0.183-0.191,0.396-0.336,0.641-0.434c0.244-0.098,0.502-0.146,0.777-0.146c0.285,0,0.547,0.049,0.783,0.146     c0.237,0.098,0.441,0.243,0.611,0.434c0.171,0.191,0.303,0.426,0.397,0.705s0.142,0.598,0.142,0.958     c0,0.361-0.055,0.679-0.162,0.956c-0.108,0.277-0.254,0.509-0.438,0.696c-0.182,0.187-0.396,0.329-0.64,0.425     c-0.244,0.097-0.503,0.145-0.778,0.145c-0.285,0-0.547-0.048-0.783-0.145c-0.237-0.096-0.441-0.238-0.611-0.425     c-0.17-0.188-0.303-0.419-0.396-0.696C74.241,23.089,74.193,22.771,74.193,22.41z M74.963,22.41c0,0.243,0.029,0.461,0.088,0.654     s0.141,0.355,0.247,0.488s0.233,0.234,0.38,0.304c0.147,0.07,0.311,0.105,0.491,0.105c0.167,0,0.323-0.035,0.47-0.105     c0.147-0.07,0.275-0.171,0.385-0.304s0.195-0.295,0.258-0.488s0.094-0.411,0.094-0.654c0-0.246-0.029-0.466-0.088-0.66     c-0.058-0.194-0.141-0.359-0.246-0.495c-0.107-0.135-0.234-0.239-0.383-0.31s-0.312-0.107-0.489-0.107     c-0.169,0-0.327,0.036-0.474,0.107s-0.275,0.175-0.383,0.31c-0.107,0.136-0.193,0.301-0.256,0.495S74.963,22.164,74.963,22.41z"/>
		</g>
		<g class="st3">
			<path class="st5" d="M82.488,24.528H81.72v-2.39c0-0.26-0.01-0.47-0.029-0.631c-0.02-0.161-0.052-0.286-0.098-0.377     s-0.107-0.152-0.185-0.183c-0.078-0.031-0.176-0.046-0.291-0.046c-0.104,0-0.206,0.021-0.309,0.063s-0.2,0.102-0.293,0.178     c-0.093,0.077-0.179,0.168-0.258,0.273c-0.079,0.104-0.146,0.22-0.201,0.346v2.768h-0.77v-2.579c0-0.414-0.023-0.764-0.07-1.051     c-0.048-0.287-0.094-0.502-0.138-0.648h0.749c0.029,0.09,0.057,0.195,0.078,0.317c0.022,0.122,0.041,0.232,0.055,0.333     c0.127-0.148,0.249-0.27,0.365-0.365c0.117-0.095,0.232-0.169,0.348-0.224s0.229-0.092,0.343-0.113s0.229-0.031,0.35-0.031     c0.136,0,0.259,0.02,0.37,0.059s0.209,0.091,0.293,0.155c0.084,0.064,0.157,0.139,0.219,0.224     c0.061,0.085,0.107,0.174,0.141,0.266c0.131-0.143,0.257-0.259,0.379-0.35c0.121-0.091,0.241-0.162,0.357-0.214     c0.117-0.051,0.23-0.088,0.344-0.109c0.111-0.021,0.222-0.031,0.33-0.031c0.211,0,0.389,0.034,0.532,0.103s0.26,0.17,0.347,0.304     c0.088,0.134,0.15,0.3,0.188,0.499c0.037,0.198,0.057,0.428,0.057,0.688v2.768h-0.77v-2.306c0-0.271-0.01-0.492-0.029-0.663     s-0.052-0.305-0.098-0.403c-0.046-0.098-0.107-0.165-0.186-0.201c-0.077-0.036-0.174-0.054-0.291-0.054     c-0.102,0-0.203,0.02-0.303,0.061s-0.197,0.098-0.289,0.172c-0.094,0.074-0.18,0.165-0.258,0.271     c-0.08,0.106-0.149,0.225-0.211,0.356V24.528z"/>
		</g>
		<g class="st3">
			<path class="st9" d="M85.983,24.31v-3.968c0-0.143-0.001-0.287-0.005-0.431s-0.008-0.282-0.016-0.413     c-0.006-0.131-0.016-0.243-0.029-0.337h0.665v2.6c0.077-0.103,0.162-0.198,0.253-0.285s0.189-0.163,0.295-0.228     s0.219-0.116,0.341-0.153c0.122-0.037,0.253-0.055,0.392-0.055c0.17,0,0.323,0.042,0.463,0.124     c0.141,0.083,0.261,0.199,0.363,0.347c0.102,0.149,0.182,0.326,0.237,0.532c0.057,0.206,0.085,0.431,0.085,0.674     c0,0.289-0.038,0.549-0.115,0.782c-0.076,0.232-0.184,0.432-0.324,0.597c-0.139,0.166-0.309,0.293-0.507,0.382     s-0.421,0.134-0.667,0.134c-0.135,0-0.266-0.01-0.393-0.029s-0.249-0.043-0.367-0.074c-0.119-0.03-0.234-0.063-0.345-0.097     C86.198,24.377,86.09,24.343,85.983,24.31z M87.414,24.092c0.146,0,0.281-0.03,0.406-0.091c0.123-0.06,0.23-0.145,0.32-0.255     c0.09-0.109,0.16-0.242,0.211-0.397s0.077-0.327,0.077-0.515c0-0.186-0.017-0.353-0.05-0.503s-0.082-0.277-0.145-0.381     c-0.063-0.104-0.142-0.184-0.234-0.24c-0.094-0.056-0.2-0.084-0.32-0.084c-0.104,0-0.208,0.023-0.313,0.069     c-0.104,0.046-0.203,0.11-0.298,0.193c-0.095,0.083-0.183,0.182-0.265,0.297s-0.15,0.242-0.206,0.381v1.342     c0.082,0.034,0.157,0.062,0.225,0.085s0.134,0.042,0.198,0.057s0.128,0.025,0.191,0.032     C87.275,24.088,87.343,24.092,87.414,24.092z"/>
			<path class="st9" d="M89.859,24.528v-2.063c0-0.331-0.019-0.611-0.055-0.84c-0.037-0.229-0.074-0.402-0.112-0.519h0.599     c0.027,0.063,0.051,0.142,0.072,0.237c0.021,0.095,0.039,0.201,0.053,0.317c0.015,0.116,0.025,0.24,0.031,0.372     c0.008,0.132,0.01,0.265,0.01,0.399v0.218c0.113-0.315,0.225-0.577,0.334-0.784c0.107-0.207,0.217-0.372,0.324-0.495     s0.215-0.209,0.324-0.258c0.108-0.049,0.219-0.074,0.332-0.074c0.084,0,0.162,0.008,0.233,0.023s0.144,0.042,0.216,0.077     l-0.1,0.621c-0.064-0.027-0.121-0.045-0.17-0.054s-0.108-0.013-0.18-0.013c-0.091,0-0.186,0.039-0.285,0.116     c-0.101,0.077-0.199,0.179-0.295,0.307c-0.097,0.127-0.188,0.272-0.274,0.433c-0.087,0.161-0.163,0.326-0.228,0.495     c-0.066,0.169-0.118,0.333-0.156,0.495c-0.039,0.161-0.059,0.304-0.059,0.43c0,0.056,0,0.107,0.002,0.154     c0,0.047,0.004,0.092,0.01,0.136s0.012,0.087,0.021,0.131c0.009,0.043,0.02,0.09,0.033,0.139H89.859z"/>
			<path class="st9" d="M94.217,21.039c0.182,0,0.343,0.022,0.482,0.065c0.141,0.043,0.261,0.104,0.363,0.181     c0.102,0.077,0.188,0.167,0.256,0.27s0.123,0.213,0.164,0.332s0.07,0.242,0.089,0.371c0.018,0.129,0.026,0.256,0.026,0.381v0.131     c0,0.056-0.001,0.1-0.004,0.131h-2.357c0.006,0.197,0.037,0.368,0.091,0.513s0.128,0.266,0.224,0.361     c0.094,0.095,0.205,0.166,0.332,0.213s0.267,0.07,0.418,0.07c0.215,0,0.426-0.024,0.631-0.074     c0.207-0.049,0.412-0.136,0.616-0.262l0.066,0.554c-0.118,0.06-0.233,0.112-0.346,0.154c-0.113,0.042-0.227,0.077-0.339,0.104     c-0.113,0.027-0.229,0.046-0.345,0.059s-0.239,0.019-0.368,0.019c-0.213,0-0.416-0.038-0.608-0.112     c-0.192-0.075-0.362-0.186-0.509-0.333c-0.146-0.146-0.264-0.328-0.35-0.545s-0.13-0.468-0.13-0.755     c0-0.277,0.037-0.528,0.112-0.753c0.074-0.225,0.18-0.417,0.316-0.577c0.139-0.16,0.306-0.283,0.503-0.369     C93.749,21.082,93.971,21.039,94.217,21.039z M94.167,21.542c-0.243,0-0.443,0.072-0.599,0.217     c-0.155,0.144-0.258,0.368-0.307,0.672h1.737c0-0.143-0.021-0.27-0.062-0.381c-0.041-0.11-0.099-0.204-0.174-0.28     c-0.074-0.076-0.162-0.133-0.264-0.171S94.287,21.542,94.167,21.542z"/>
		</g>
		<g class="st3">
			<path class="st7" d="M90.037,26.823h0.416v2.929h-0.416V26.823z"/>
			<path class="st7" d="M92.072,28.047h0.025c0.182,0,0.32-0.038,0.415-0.113c0.095-0.075,0.143-0.185,0.143-0.329     c0-0.13-0.046-0.235-0.139-0.316c-0.092-0.081-0.213-0.122-0.362-0.122c-0.151,0-0.319,0.047-0.504,0.143v-0.401     c0.17-0.085,0.354-0.127,0.554-0.127c0.267,0,0.479,0.07,0.633,0.211c0.155,0.141,0.231,0.334,0.231,0.578     c0,0.148-0.029,0.273-0.089,0.374s-0.155,0.188-0.284,0.261c0.113,0.045,0.196,0.1,0.249,0.165     c0.052,0.065,0.093,0.144,0.122,0.236s0.044,0.19,0.044,0.293c0,0.256-0.085,0.468-0.253,0.635     c-0.17,0.167-0.383,0.251-0.641,0.251c-0.221,0-0.434-0.054-0.639-0.162v-0.457c0.219,0.138,0.432,0.208,0.639,0.208     c0.14,0,0.252-0.042,0.338-0.126c0.085-0.083,0.127-0.195,0.127-0.333c0-0.116-0.035-0.217-0.105-0.304     c-0.041-0.049-0.088-0.085-0.139-0.108s-0.16-0.045-0.327-0.066l-0.038-0.004V28.047z"/>
			<path class="st7" d="M95.371,26.79c0.179,0,0.331,0.064,0.457,0.193c0.127,0.128,0.189,0.283,0.189,0.463     c0,0.179-0.063,0.333-0.19,0.461C95.7,28.036,95.549,28.1,95.371,28.1s-0.33-0.064-0.457-0.193     c-0.127-0.128-0.189-0.282-0.189-0.461c0-0.181,0.063-0.335,0.189-0.463C95.039,26.854,95.191,26.79,95.371,26.79z      M96.842,26.781h0.321l-1.909,3.004h-0.322L96.842,26.781z M95.365,27.108c-0.092,0-0.172,0.033-0.236,0.1     c-0.066,0.066-0.1,0.146-0.1,0.239c0,0.092,0.033,0.17,0.1,0.236c0.066,0.065,0.146,0.098,0.236,0.098     c0.093,0,0.172-0.033,0.238-0.098c0.064-0.066,0.098-0.145,0.098-0.236c0-0.095-0.032-0.175-0.098-0.24     C95.539,27.141,95.459,27.108,95.365,27.108z M96.742,28.477c0.178,0,0.329,0.064,0.457,0.192c0.127,0.128,0.19,0.281,0.19,0.46     c0,0.179-0.063,0.331-0.19,0.456c-0.126,0.125-0.279,0.188-0.457,0.188c-0.18,0-0.334-0.063-0.46-0.188     c-0.126-0.125-0.19-0.277-0.19-0.456c0-0.181,0.064-0.334,0.191-0.461C96.41,28.541,96.563,28.477,96.742,28.477z M96.738,28.796     c-0.092,0-0.17,0.033-0.233,0.098c-0.064,0.065-0.097,0.145-0.097,0.236c0,0.093,0.032,0.173,0.097,0.239     c0.063,0.066,0.142,0.099,0.233,0.099c0.094,0,0.173-0.033,0.238-0.098c0.064-0.065,0.098-0.146,0.098-0.24     c0-0.093-0.033-0.172-0.098-0.237C96.911,28.828,96.832,28.796,96.738,28.796z"/>
		</g>
	</g>
	<g class="st3">
		<path class="st10" d="M25.175,27.169c0-1.519,0.228-2.863,0.683-4.035c0.456-1.171,1.068-2.16,1.839-2.966    c0.771-0.806,1.669-1.415,2.697-1.827c1.027-0.412,2.119-0.618,3.274-0.618c1.202,0,2.302,0.206,3.301,0.618    c0.998,0.412,1.856,1.021,2.574,1.827c0.718,0.807,1.275,1.795,1.672,2.966c0.396,1.172,0.595,2.516,0.595,4.035    s-0.228,2.861-0.683,4.026c-0.456,1.166-1.068,2.143-1.839,2.931s-1.669,1.386-2.696,1.792c-1.028,0.406-2.119,0.609-3.275,0.609    c-1.202,0-2.302-0.203-3.3-0.609c-0.999-0.406-1.856-1.003-2.574-1.792s-1.275-1.766-1.672-2.931    C25.373,30.03,25.175,28.688,25.175,27.169z M28.414,27.169c0,1.024,0.123,1.942,0.368,2.755c0.245,0.812,0.592,1.498,1.042,2.057    c0.449,0.56,0.983,0.986,1.602,1.28c0.619,0.294,1.308,0.441,2.066,0.441c0.7,0,1.36-0.147,1.979-0.441    c0.619-0.294,1.159-0.721,1.62-1.28c0.461-0.559,0.823-1.245,1.085-2.057c0.263-0.813,0.394-1.73,0.394-2.755    c0-1.036-0.123-1.962-0.368-2.781c-0.245-0.818-0.593-1.513-1.042-2.083c-0.45-0.571-0.987-1.006-1.611-1.307    c-0.625-0.3-1.311-0.45-2.058-0.45c-0.712,0-1.377,0.15-1.996,0.45c-0.619,0.3-1.156,0.736-1.611,1.307    c-0.456,0.571-0.814,1.266-1.077,2.083C28.545,25.207,28.414,26.133,28.414,27.169z"/>
		<path class="st10" d="M56.063,17.723c1.868,0,3.298,0.615,4.29,1.845s1.489,3.058,1.489,5.482v11.036h-3.24v-9.711    c0-1.106-0.073-2.019-0.219-2.737c-0.146-0.718-0.362-1.286-0.648-1.704c-0.286-0.417-0.648-0.709-1.085-0.874    c-0.438-0.165-0.955-0.247-1.55-0.247c-0.63,0-1.246,0.15-1.847,0.45c-0.602,0.3-1.153,0.689-1.655,1.166    c-0.502,0.477-0.946,1.015-1.331,1.616c-0.385,0.6-0.671,1.201-0.858,1.801v10.241H46.17V25.227c0-1.742-0.097-3.216-0.289-4.423    c-0.193-1.207-0.388-2.116-0.586-2.728h3.152c0.07,0.188,0.14,0.433,0.21,0.733s0.134,0.615,0.192,0.945    c0.059,0.33,0.111,0.653,0.158,0.971l0.14,0.795c1.109-1.342,2.229-2.31,3.362-2.905C53.641,18.02,54.826,17.723,56.063,17.723z"/>
	</g>
	<g class="st3">
		<path class="st9" d="M24.062,49.021V43.02c0-0.217-0.002-0.434-0.007-0.652c-0.005-0.218-0.013-0.426-0.023-0.624    c-0.01-0.198-0.025-0.368-0.045-0.51h1.006v3.933c0.117-0.156,0.245-0.3,0.382-0.432c0.137-0.132,0.286-0.247,0.445-0.346    c0.159-0.098,0.331-0.174,0.516-0.23c0.185-0.056,0.382-0.084,0.594-0.084c0.255,0,0.488,0.063,0.7,0.188    c0.211,0.125,0.394,0.3,0.548,0.524c0.154,0.226,0.274,0.494,0.36,0.805c0.085,0.311,0.128,0.651,0.128,1.02    c0,0.437-0.058,0.83-0.173,1.183c-0.116,0.352-0.279,0.653-0.491,0.903s-0.467,0.443-0.767,0.578    c-0.3,0.135-0.637,0.203-1.009,0.203c-0.205,0-0.402-0.015-0.594-0.043c-0.191-0.029-0.376-0.066-0.556-0.111    c-0.18-0.047-0.353-0.096-0.521-0.147C24.387,49.124,24.223,49.072,24.062,49.021z M26.225,48.691    c0.222,0,0.426-0.045,0.614-0.137c0.188-0.091,0.35-0.22,0.485-0.385c0.136-0.166,0.242-0.367,0.319-0.602    c0.077-0.235,0.116-0.495,0.116-0.779c0-0.281-0.025-0.534-0.075-0.761s-0.124-0.419-0.219-0.576    c-0.096-0.157-0.214-0.278-0.355-0.362c-0.141-0.085-0.302-0.127-0.483-0.127c-0.158,0-0.315,0.035-0.473,0.104    c-0.158,0.07-0.308,0.167-0.45,0.292s-0.276,0.274-0.4,0.449c-0.125,0.175-0.229,0.366-0.312,0.575v2.03    c0.124,0.051,0.237,0.094,0.339,0.13c0.103,0.035,0.202,0.063,0.299,0.086c0.098,0.021,0.194,0.037,0.29,0.048    S26.118,48.691,26.225,48.691z"/>
	</g>
	<g class="st3">
		<path class="st10" d="M29.677,46.174c0-0.541,0.081-1.02,0.243-1.438c0.163-0.417,0.381-0.77,0.655-1.057s0.595-0.504,0.961-0.651    c0.366-0.146,0.755-0.22,1.167-0.22c0.429,0,0.821,0.073,1.176,0.22c0.355,0.147,0.662,0.364,0.917,0.651    c0.256,0.287,0.455,0.64,0.596,1.057c0.141,0.418,0.212,0.896,0.212,1.438s-0.081,1.02-0.243,1.436    c-0.162,0.414-0.381,0.763-0.655,1.044c-0.274,0.28-0.595,0.493-0.961,0.639c-0.366,0.145-0.755,0.217-1.167,0.217    c-0.429,0-0.821-0.072-1.176-0.217c-0.355-0.146-0.661-0.358-0.917-0.639c-0.256-0.281-0.455-0.63-0.596-1.044    C29.748,47.193,29.677,46.715,29.677,46.174z M30.831,46.174c0,0.365,0.043,0.692,0.131,0.982    c0.087,0.289,0.211,0.533,0.372,0.732c0.16,0.199,0.35,0.352,0.571,0.456c0.22,0.104,0.466,0.157,0.736,0.157    c0.25,0,0.484-0.053,0.705-0.157c0.22-0.104,0.413-0.257,0.577-0.456c0.164-0.199,0.293-0.443,0.387-0.732    c0.093-0.29,0.14-0.617,0.14-0.982c0-0.369-0.043-0.699-0.131-0.99s-0.211-0.539-0.371-0.742c-0.16-0.203-0.352-0.359-0.574-0.466    s-0.467-0.161-0.733-0.161c-0.254,0-0.491,0.055-0.711,0.161c-0.221,0.106-0.412,0.263-0.574,0.466    c-0.162,0.203-0.29,0.451-0.384,0.742C30.878,45.475,30.831,45.805,30.831,46.174z"/>
	</g>
	<g class="st3">
		<path class="st10" d="M40.512,42.809c0.665,0,1.175,0.219,1.528,0.657s0.53,1.089,0.53,1.954v3.932h-1.154v-3.461    c0-0.394-0.026-0.719-0.078-0.975c-0.052-0.256-0.129-0.458-0.231-0.607c-0.102-0.148-0.231-0.252-0.387-0.311    c-0.156-0.06-0.34-0.089-0.552-0.089c-0.225,0-0.444,0.054-0.658,0.161c-0.214,0.106-0.411,0.244-0.59,0.414    s-0.337,0.362-0.474,0.576s-0.239,0.428-0.306,0.643v3.648h-1.154v-3.869c0-0.621-0.034-1.146-0.103-1.576    s-0.138-0.754-0.209-0.973h1.123c0.025,0.068,0.05,0.154,0.075,0.262s0.048,0.219,0.069,0.336c0.021,0.118,0.04,0.233,0.056,0.347    l0.05,0.283c0.395-0.479,0.794-0.823,1.198-1.035C39.649,42.914,40.071,42.809,40.512,42.809z"/>
	</g>
	<g class="st3">
		<path class="st9" d="M45.284,49.021V43.02c0-0.217-0.002-0.434-0.007-0.652c-0.005-0.218-0.013-0.426-0.023-0.624    c-0.01-0.198-0.025-0.368-0.045-0.51h1.006v3.933c0.117-0.156,0.245-0.3,0.382-0.432c0.137-0.132,0.286-0.247,0.445-0.346    c0.159-0.098,0.331-0.174,0.516-0.23c0.185-0.056,0.382-0.084,0.594-0.084c0.255,0,0.488,0.063,0.7,0.188    c0.211,0.125,0.394,0.3,0.548,0.524c0.154,0.226,0.274,0.494,0.36,0.805c0.085,0.311,0.128,0.651,0.128,1.02    c0,0.437-0.058,0.83-0.173,1.183c-0.116,0.352-0.279,0.653-0.491,0.903s-0.467,0.443-0.767,0.578    c-0.3,0.135-0.637,0.203-1.009,0.203c-0.205,0-0.402-0.015-0.594-0.043c-0.191-0.029-0.376-0.066-0.556-0.111    c-0.18-0.047-0.353-0.096-0.521-0.147C45.61,49.124,45.445,49.072,45.284,49.021z M47.448,48.691c0.222,0,0.426-0.045,0.614-0.137    c0.188-0.091,0.35-0.22,0.485-0.385c0.136-0.166,0.242-0.367,0.319-0.602c0.077-0.235,0.116-0.495,0.116-0.779    c0-0.281-0.025-0.534-0.075-0.761s-0.124-0.419-0.219-0.576c-0.096-0.157-0.214-0.278-0.355-0.362    c-0.141-0.085-0.302-0.127-0.483-0.127c-0.158,0-0.315,0.035-0.473,0.104c-0.158,0.07-0.308,0.167-0.45,0.292    s-0.276,0.274-0.4,0.449c-0.125,0.175-0.229,0.366-0.312,0.575v2.03c0.124,0.051,0.237,0.094,0.339,0.13    c0.103,0.035,0.202,0.063,0.299,0.086c0.098,0.021,0.194,0.037,0.29,0.048S47.34,48.691,47.448,48.691z"/>
	</g>
	<g class="st3">
		<path class="st10" d="M50.899,46.174c0-0.541,0.081-1.02,0.243-1.438c0.163-0.417,0.381-0.77,0.655-1.057s0.595-0.504,0.961-0.651    c0.366-0.146,0.755-0.22,1.167-0.22c0.429,0,0.821,0.073,1.176,0.22c0.355,0.147,0.662,0.364,0.917,0.651    c0.256,0.287,0.455,0.64,0.596,1.057c0.141,0.418,0.212,0.896,0.212,1.438s-0.081,1.02-0.243,1.436    c-0.162,0.414-0.381,0.763-0.655,1.044c-0.274,0.28-0.595,0.493-0.961,0.639c-0.366,0.145-0.755,0.217-1.167,0.217    c-0.429,0-0.821-0.072-1.176-0.217c-0.355-0.146-0.661-0.358-0.917-0.639c-0.256-0.281-0.455-0.63-0.596-1.044    C50.97,47.193,50.899,46.715,50.899,46.174z M52.053,46.174c0,0.365,0.043,0.692,0.131,0.982c0.087,0.289,0.211,0.533,0.372,0.732    c0.16,0.199,0.35,0.352,0.571,0.456c0.22,0.104,0.466,0.157,0.736,0.157c0.25,0,0.484-0.053,0.705-0.157    c0.22-0.104,0.413-0.257,0.577-0.456c0.164-0.199,0.293-0.443,0.387-0.732c0.093-0.29,0.14-0.617,0.14-0.982    c0-0.369-0.043-0.699-0.131-0.99s-0.211-0.539-0.371-0.742c-0.16-0.203-0.352-0.359-0.574-0.466s-0.467-0.161-0.733-0.161    c-0.254,0-0.491,0.055-0.711,0.161c-0.221,0.106-0.412,0.263-0.574,0.466c-0.162,0.203-0.29,0.451-0.384,0.742    C52.1,45.475,52.053,45.805,52.053,46.174z"/>
	</g>
	<g class="st3">
		<path class="st10" d="M61.734,42.809c0.665,0,1.175,0.219,1.528,0.657s0.53,1.089,0.53,1.954v3.932h-1.154v-3.461    c0-0.394-0.026-0.719-0.078-0.975c-0.052-0.256-0.129-0.458-0.231-0.607c-0.102-0.148-0.231-0.252-0.387-0.311    c-0.156-0.06-0.34-0.089-0.552-0.089c-0.225,0-0.444,0.054-0.658,0.161c-0.214,0.106-0.411,0.244-0.59,0.414    s-0.337,0.362-0.474,0.576s-0.239,0.428-0.306,0.643v3.648h-1.154v-3.869c0-0.621-0.034-1.146-0.103-1.576    s-0.138-0.754-0.209-0.973h1.123c0.025,0.068,0.05,0.154,0.075,0.262s0.048,0.219,0.069,0.336c0.021,0.118,0.04,0.233,0.056,0.347    l0.05,0.283c0.395-0.479,0.794-0.823,1.198-1.035C60.871,42.914,61.293,42.809,61.734,42.809z"/>
	</g>
	<g class="st3">
		<path class="st10" d="M60.082,8.975c0,0.487-0.072,0.923-0.215,1.307s-0.334,0.71-0.572,0.976    c-0.237,0.267-0.508,0.47-0.811,0.611c-0.303,0.141-0.616,0.211-0.938,0.211c-0.325,0-0.636-0.066-0.934-0.199    c-0.298-0.132-0.561-0.327-0.789-0.584c-0.228-0.257-0.411-0.573-0.547-0.948c-0.137-0.375-0.206-0.806-0.206-1.292    c0-0.325,0.033-0.626,0.099-0.905s0.157-0.533,0.274-0.763s0.255-0.434,0.417-0.613s0.336-0.329,0.525-0.451    c0.189-0.122,0.389-0.214,0.6-0.278c0.211-0.064,0.425-0.096,0.642-0.096c0.319,0,0.627,0.066,0.924,0.199    c0.296,0.132,0.558,0.327,0.785,0.584c0.227,0.257,0.408,0.573,0.543,0.948C60.014,8.057,60.082,8.488,60.082,8.975z     M59.296,9.076c0-0.374-0.041-0.709-0.123-1.009c-0.082-0.299-0.198-0.552-0.348-0.761s-0.331-0.368-0.542-0.479    c-0.211-0.111-0.443-0.167-0.698-0.167c-0.255,0-0.489,0.053-0.701,0.16s-0.395,0.26-0.547,0.459    c-0.153,0.199-0.271,0.439-0.356,0.722c-0.084,0.283-0.126,0.6-0.126,0.952c0,0.371,0.041,0.705,0.123,1.002    c0.082,0.298,0.199,0.551,0.35,0.761c0.152,0.209,0.333,0.371,0.545,0.483c0.212,0.112,0.45,0.168,0.713,0.168    c0.247,0,0.475-0.052,0.684-0.156s0.39-0.254,0.542-0.451c0.151-0.196,0.271-0.436,0.356-0.72    C59.253,9.758,59.296,9.436,59.296,9.076z"/>
		<path class="st10" d="M61.933,7.302v4.676h-0.725c0.029-0.163,0.047-0.397,0.052-0.704s0.008-0.661,0.008-1.062V7.818    c0-0.4-0.003-0.754-0.008-1.062s-0.023-0.542-0.052-0.704h0.725l3.2,4.696V6.052h0.725c-0.014,0.081-0.024,0.181-0.032,0.3    c-0.008,0.119-0.014,0.254-0.018,0.404c-0.004,0.15-0.007,0.315-0.008,0.493c-0.001,0.179-0.002,0.368-0.002,0.568v4.161h-0.664    L61.933,7.302z"/>
	</g>
	<g class="st3">
		<path class="st10" d="M25.794,7.582c0.233,0.076,0.399,0.197,0.498,0.361c0.07,0.206,0.113,0.355,0.131,0.449    c0.035,0.206,0.052,0.382,0.052,0.528c0,0.141-0.012,0.282-0.035,0.423c0.064,0.064,0.143,0.12,0.236,0.167    c0.081,0.047,0.157,0.071,0.227,0.071c0.087,0,0.151-0.047,0.192-0.141l0.131,0.282c-0.087,0.112-0.189,0.167-0.306,0.167    c-0.087,0-0.183-0.029-0.288-0.088c-0.099-0.029-0.181-0.094-0.245-0.193c-0.122,0.616-0.373,1.057-0.751,1.321    c-0.303,0.206-0.672,0.308-1.109,0.308c-0.512,0-0.92-0.208-1.223-0.625c-0.297-0.376-0.445-0.813-0.445-1.313    c0-0.61,0.163-1.139,0.489-1.585c0.32-0.428,0.753-0.643,1.301-0.643C25.186,7.071,25.567,7.242,25.794,7.582z M24.947,10.902    c0.262,0,0.507-0.118,0.734-0.353c0.239-0.258,0.398-0.607,0.48-1.048C25.888,9.32,25.678,9.152,25.533,9    c-0.21-0.199-0.335-0.399-0.375-0.599C25.14,8.36,25.131,8.29,25.131,8.189c0-0.111,0.029-0.235,0.087-0.37    c0.064-0.112,0.169-0.185,0.314-0.22c-0.14-0.153-0.347-0.229-0.62-0.229c-0.326,0-0.6,0.197-0.821,0.59    c-0.209,0.423-0.314,0.849-0.314,1.277c0,0.429,0.096,0.795,0.288,1.101C24.269,10.714,24.563,10.902,24.947,10.902z     M26.223,9.193c0.017-0.123,0.026-0.25,0.026-0.378c0-0.229-0.041-0.446-0.122-0.652c-0.099-0.217-0.198-0.326-0.297-0.326    c-0.029,0-0.061,0.012-0.096,0.035c-0.082,0.047-0.122,0.153-0.122,0.317c0,0.176,0.064,0.358,0.192,0.546    C25.92,8.947,26.06,9.1,26.223,9.193z"/>
		<path class="st10" d="M29.191,8.093c0.14-0.252,0.375-0.487,0.708-0.705c0.309-0.2,0.614-0.299,0.917-0.299    c0.326,0,0.585,0.07,0.777,0.211c0.244,0.17,0.367,0.417,0.367,0.74v2.192c0,0.217,0.011,0.364,0.035,0.44    c0.035,0.176,0.123,0.264,0.262,0.264c0.157,0,0.334-0.25,0.533-0.749c0.029-0.111,0.064-0.22,0.104-0.326    c0.018-0.059,0.04-0.122,0.065-0.189c0.026-0.067,0.054-0.14,0.083-0.216l0.131,0.264c-0.047,0.112-0.086,0.211-0.118,0.299    c-0.032,0.088-0.06,0.167-0.083,0.238c-0.012,0.023-0.021,0.048-0.026,0.075c-0.006,0.027-0.012,0.049-0.018,0.066    c-0.012,0.023-0.022,0.047-0.031,0.07s-0.016,0.044-0.021,0.062c-0.018,0.053-0.034,0.103-0.048,0.15s-0.025,0.085-0.03,0.114    c-0.175,0.294-0.486,0.44-0.935,0.44c-0.204,0-0.355-0.044-0.454-0.132c-0.192-0.123-0.288-0.308-0.288-0.555V8.146    c0-0.182-0.029-0.337-0.087-0.467c-0.087-0.152-0.23-0.229-0.428-0.229c-0.274,0-0.559,0.126-0.856,0.379    c-0.355,0.288-0.544,0.596-0.568,0.924v2.483h-0.812V8.498V8.119c0-0.264-0.006-0.423-0.018-0.476    c-0.029-0.076-0.073-0.129-0.131-0.159c-0.14,0-0.332,0.358-0.576,1.075c-0.064,0.176-0.121,0.329-0.17,0.458    c-0.05,0.129-0.086,0.232-0.109,0.309c-0.07,0.193-0.113,0.326-0.131,0.396l-0.14-0.264c0.023-0.082,0.043-0.144,0.061-0.185    c0.006-0.035,0.015-0.069,0.026-0.101c0.011-0.032,0.023-0.066,0.035-0.101c0.012-0.029,0.022-0.061,0.031-0.093    s0.022-0.066,0.039-0.101c0.006-0.029,0.015-0.06,0.026-0.093c0.012-0.032,0.023-0.066,0.035-0.101    c0.011-0.029,0.021-0.059,0.03-0.088s0.022-0.062,0.04-0.097c0.011-0.059,0.035-0.126,0.07-0.202    C27.5,8.254,27.518,8.2,27.541,8.132s0.052-0.146,0.087-0.233c0.221-0.54,0.503-0.81,0.847-0.81c0.337,0,0.547,0.088,0.628,0.264    c0.053,0.1,0.079,0.346,0.079,0.74H29.191z"/>
	</g>
	<g class="st3">
		<path class="st9" d="M105.643,8.823c0,0.422,0.023,0.778,0.07,1.065c0.047,0.288,0.106,0.525,0.18,0.713h-0.582    c-0.012-0.029-0.027-0.069-0.047-0.121c-0.02-0.052-0.04-0.11-0.061-0.176c-0.021-0.066-0.042-0.137-0.061-0.213    c-0.02-0.076-0.035-0.152-0.049-0.228c-0.086,0.112-0.178,0.217-0.273,0.315c-0.098,0.099-0.198,0.186-0.305,0.262    c-0.106,0.076-0.218,0.136-0.333,0.18c-0.115,0.043-0.233,0.065-0.353,0.065c-0.14,0-0.279-0.03-0.418-0.091    c-0.139-0.06-0.263-0.151-0.374-0.271c-0.11-0.121-0.2-0.272-0.269-0.455c-0.069-0.182-0.104-0.396-0.104-0.643    c0-0.257,0.027-0.49,0.084-0.699s0.135-0.396,0.232-0.559c0.086-0.143,0.178-0.269,0.275-0.376s0.205-0.196,0.321-0.267    s0.244-0.124,0.384-0.159c0.141-0.036,0.295-0.054,0.466-0.054c0.085,0,0.179,0.006,0.281,0.019s0.208,0.029,0.315,0.052    c0.108,0.022,0.215,0.049,0.322,0.081c0.105,0.031,0.205,0.065,0.295,0.101V8.823z M104.296,7.683    c-0.071,0-0.143,0.008-0.215,0.025c-0.071,0.017-0.144,0.045-0.213,0.086c-0.069,0.04-0.138,0.093-0.202,0.159    c-0.066,0.066-0.127,0.149-0.186,0.25c-0.06,0.103-0.107,0.231-0.145,0.384c-0.037,0.153-0.055,0.311-0.055,0.472    c0,0.186,0.018,0.345,0.051,0.478c0.035,0.133,0.08,0.243,0.137,0.329s0.121,0.149,0.193,0.189    c0.072,0.041,0.145,0.061,0.218,0.061c0.093,0,0.194-0.029,0.305-0.087c0.109-0.058,0.217-0.135,0.321-0.231    c0.104-0.096,0.202-0.207,0.294-0.332c0.093-0.125,0.168-0.255,0.228-0.389V7.817c-0.033-0.016-0.076-0.031-0.127-0.047    c-0.053-0.016-0.11-0.03-0.174-0.043c-0.063-0.013-0.132-0.024-0.206-0.032S104.371,7.683,104.296,7.683z"/>
		<path class="st9" d="M108.188,7.112c0.223,0,0.414,0.026,0.574,0.079c0.161,0.053,0.303,0.122,0.424,0.207l-0.115,0.604    c-0.151-0.112-0.301-0.196-0.449-0.252c-0.148-0.056-0.311-0.084-0.482-0.084c-0.148,0-0.287,0.029-0.414,0.086    c-0.129,0.057-0.239,0.139-0.334,0.247c-0.094,0.107-0.168,0.239-0.221,0.396c-0.053,0.157-0.08,0.333-0.08,0.53    c0,0.181,0.025,0.345,0.074,0.493c0.049,0.147,0.118,0.274,0.209,0.381c0.091,0.106,0.201,0.188,0.329,0.247    c0.129,0.058,0.274,0.087,0.437,0.087c0.201,0,0.385-0.035,0.549-0.104s0.318-0.169,0.465-0.298l0.066,0.587    c-0.084,0.065-0.168,0.12-0.25,0.166c-0.084,0.046-0.171,0.084-0.262,0.114s-0.188,0.052-0.293,0.067    c-0.104,0.015-0.219,0.022-0.342,0.022c-0.225,0-0.434-0.04-0.629-0.119c-0.195-0.08-0.366-0.194-0.513-0.344    s-0.262-0.331-0.347-0.543c-0.084-0.212-0.126-0.453-0.126-0.721c0-0.253,0.04-0.491,0.122-0.715    c0.08-0.224,0.195-0.419,0.346-0.587c0.149-0.168,0.332-0.3,0.545-0.397C107.686,7.161,107.924,7.112,108.188,7.112z"/>
		<path class="st9" d="M111.115,10.685c-0.709,0-1.064-0.481-1.064-1.442v-0.99c0-0.107,0-0.205-0.001-0.292    s-0.004-0.171-0.009-0.253c-0.004-0.082-0.011-0.165-0.02-0.25S110,7.28,109.984,7.179h0.683v1.862    c0,0.19,0.009,0.354,0.028,0.492c0.019,0.137,0.051,0.25,0.095,0.339s0.103,0.154,0.175,0.196s0.161,0.063,0.268,0.063    c0.098,0,0.201-0.029,0.313-0.089c0.111-0.059,0.217-0.135,0.318-0.227c0.101-0.091,0.192-0.193,0.275-0.303    c0.084-0.111,0.146-0.218,0.191-0.321V8.253c0-0.11,0-0.208-0.002-0.297c-0.001-0.088-0.004-0.173-0.008-0.253    s-0.012-0.162-0.02-0.245c-0.01-0.083-0.021-0.176-0.037-0.279h0.682v1.912c0,0.327,0.019,0.612,0.055,0.857    c0.037,0.245,0.091,0.462,0.162,0.652h-0.566c-0.016-0.038-0.031-0.083-0.049-0.134c-0.018-0.051-0.035-0.106-0.053-0.164    c-0.016-0.059-0.031-0.119-0.046-0.183c-0.015-0.063-0.026-0.127-0.035-0.189c-0.202,0.248-0.409,0.436-0.624,0.563    C111.576,10.621,111.352,10.685,111.115,10.685z"/>
		<path class="st9" d="M113.993,8.974c0-0.208-0.001-0.401-0.005-0.579s-0.011-0.341-0.021-0.49    c-0.012-0.149-0.027-0.284-0.051-0.404c-0.021-0.121-0.051-0.228-0.09-0.322h0.6c0.024,0.058,0.049,0.141,0.073,0.247    c0.024,0.106,0.044,0.237,0.06,0.391c0.078-0.103,0.162-0.198,0.255-0.285c0.092-0.087,0.189-0.162,0.292-0.223    c0.104-0.062,0.213-0.11,0.326-0.145c0.115-0.035,0.234-0.052,0.357-0.052c0.189,0,0.361,0.042,0.518,0.126    c0.156,0.083,0.289,0.201,0.399,0.352s0.195,0.33,0.257,0.537c0.061,0.207,0.091,0.434,0.091,0.679c0,0.287-0.04,0.545-0.12,0.777    s-0.188,0.429-0.324,0.592c-0.137,0.164-0.297,0.289-0.48,0.377s-0.381,0.133-0.589,0.133c-0.089,0-0.173-0.009-0.251-0.027    c-0.078-0.018-0.155-0.042-0.229-0.074c-0.075-0.031-0.147-0.07-0.222-0.116c-0.072-0.046-0.149-0.097-0.229-0.153v0.789    c0,0.134,0.001,0.255,0.004,0.364c0.004,0.108,0.009,0.208,0.016,0.3c0.006,0.092,0.016,0.176,0.026,0.253    s0.023,0.151,0.036,0.223h-0.698V8.974z M115.54,10.131c0.118,0,0.229-0.028,0.338-0.084c0.107-0.056,0.202-0.137,0.286-0.243    c0.083-0.106,0.149-0.235,0.199-0.386c0.051-0.151,0.075-0.321,0.075-0.512c0-0.186-0.017-0.354-0.052-0.504    c-0.034-0.151-0.085-0.28-0.151-0.386c-0.066-0.106-0.147-0.188-0.241-0.247c-0.094-0.058-0.201-0.087-0.32-0.087    c-0.096,0-0.193,0.021-0.293,0.063s-0.197,0.105-0.291,0.188c-0.095,0.083-0.184,0.186-0.266,0.311    c-0.082,0.124-0.153,0.267-0.215,0.428v1.057c0.112,0.081,0.211,0.147,0.293,0.2c0.084,0.052,0.16,0.094,0.229,0.124    s0.135,0.051,0.198,0.062S115.463,10.131,115.54,10.131z"/>
	</g>
	<g class="st3">
		<path class="st5" d="M119.365,10.706c-0.887,0-1.33-0.601-1.33-1.803V7.666c0-0.134-0.001-0.256-0.002-0.365    c-0.002-0.109-0.006-0.214-0.011-0.316c-0.006-0.102-0.015-0.206-0.025-0.313c-0.011-0.106-0.026-0.222-0.046-0.348h0.854v2.328    c0,0.237,0.012,0.442,0.035,0.614s0.063,0.313,0.118,0.423s0.128,0.192,0.218,0.246c0.09,0.053,0.202,0.08,0.335,0.08    c0.122,0,0.253-0.037,0.392-0.111c0.139-0.074,0.271-0.168,0.396-0.283c0.127-0.114,0.241-0.241,0.346-0.379    c0.104-0.138,0.184-0.271,0.238-0.4V7.666c0-0.137,0-0.261-0.002-0.371c-0.001-0.111-0.004-0.216-0.01-0.317    s-0.014-0.203-0.025-0.306s-0.026-0.219-0.045-0.348h0.852v2.39c0,0.408,0.023,0.766,0.068,1.072    c0.047,0.306,0.113,0.578,0.202,0.815h-0.707c-0.02-0.047-0.04-0.104-0.063-0.168c-0.022-0.064-0.044-0.132-0.064-0.205    s-0.04-0.149-0.058-0.229c-0.019-0.08-0.033-0.159-0.044-0.237c-0.253,0.311-0.513,0.545-0.78,0.705    C119.939,10.626,119.659,10.706,119.365,10.706z"/>
	</g>
	<g class="st3">
		<path class="st8" d="M125.239,6.24c0.444,0,0.783,0.146,1.019,0.438c0.236,0.292,0.354,0.726,0.354,1.302v2.621h-0.77V8.295    c0-0.263-0.017-0.479-0.051-0.65c-0.035-0.171-0.086-0.306-0.154-0.405s-0.154-0.168-0.258-0.208s-0.227-0.059-0.368-0.059    c-0.149,0-0.296,0.036-0.438,0.107s-0.273,0.163-0.393,0.276c-0.12,0.113-0.225,0.241-0.316,0.384s-0.16,0.285-0.204,0.428v2.432    h-0.769V8.022c0-0.414-0.023-0.764-0.069-1.051s-0.093-0.502-0.14-0.648h0.749c0.017,0.045,0.033,0.103,0.05,0.174    s0.031,0.146,0.046,0.224c0.014,0.079,0.026,0.155,0.037,0.231l0.033,0.188c0.264-0.319,0.53-0.548,0.799-0.69    C124.664,6.311,124.945,6.24,125.239,6.24z"/>
	</g>
	<g class="st3">
		<path class="st9" d="M129.254,7.112c0.222,0,0.413,0.026,0.574,0.079c0.16,0.053,0.302,0.122,0.424,0.207l-0.116,0.604    c-0.151-0.112-0.301-0.196-0.449-0.252c-0.148-0.056-0.31-0.084-0.482-0.084c-0.148,0-0.286,0.029-0.414,0.086    c-0.128,0.057-0.239,0.139-0.333,0.247c-0.094,0.107-0.168,0.239-0.221,0.396c-0.054,0.157-0.08,0.333-0.08,0.53    c0,0.181,0.024,0.345,0.073,0.493c0.049,0.147,0.118,0.274,0.21,0.381c0.09,0.106,0.2,0.188,0.328,0.247    c0.129,0.058,0.274,0.087,0.437,0.087c0.202,0,0.385-0.035,0.549-0.104s0.319-0.169,0.466-0.298l0.066,0.587    c-0.084,0.065-0.168,0.12-0.251,0.166s-0.171,0.084-0.261,0.114c-0.092,0.03-0.189,0.052-0.293,0.067    c-0.104,0.015-0.219,0.022-0.343,0.022c-0.224,0-0.434-0.04-0.629-0.119c-0.195-0.08-0.366-0.194-0.513-0.344    s-0.262-0.331-0.346-0.543s-0.127-0.453-0.127-0.721c0-0.253,0.041-0.491,0.122-0.715s0.196-0.419,0.347-0.587    c0.148-0.168,0.331-0.3,0.545-0.397S128.99,7.112,129.254,7.112z"/>
		<path class="st9" d="M130.701,7.263h0.666v-1.09h0.615v1.09h1.081V7.75h-1.081v1.543c0,0.172,0.008,0.313,0.025,0.422    c0.016,0.11,0.041,0.195,0.076,0.257c0.034,0.062,0.078,0.104,0.131,0.125c0.053,0.022,0.117,0.034,0.193,0.034    c0.096,0,0.203-0.021,0.322-0.063c0.12-0.042,0.253-0.105,0.399-0.188v0.537c-0.153,0.101-0.3,0.17-0.438,0.21    c-0.141,0.039-0.27,0.059-0.387,0.059c-0.131,0-0.252-0.015-0.365-0.045s-0.213-0.083-0.299-0.159    c-0.085-0.076-0.152-0.177-0.201-0.304s-0.072-0.287-0.072-0.481V7.75h-0.666V7.263z"/>
		<path class="st9" d="M134.959,10.685c-0.709,0-1.064-0.481-1.064-1.442v-0.99c0-0.107,0-0.205-0.001-0.292    s-0.004-0.171-0.009-0.253c-0.004-0.082-0.011-0.165-0.02-0.25s-0.021-0.178-0.037-0.279h0.683v1.862    c0,0.19,0.009,0.354,0.028,0.492c0.019,0.137,0.051,0.25,0.095,0.339s0.103,0.154,0.175,0.196s0.161,0.063,0.268,0.063    c0.098,0,0.201-0.029,0.313-0.089c0.111-0.059,0.217-0.135,0.318-0.227c0.101-0.091,0.192-0.193,0.275-0.303    c0.084-0.111,0.146-0.218,0.191-0.321V8.253c0-0.11,0-0.208-0.002-0.297c-0.001-0.088-0.004-0.173-0.008-0.253    s-0.012-0.162-0.02-0.245c-0.01-0.083-0.021-0.176-0.037-0.279h0.682v1.912c0,0.327,0.019,0.612,0.055,0.857    c0.037,0.245,0.091,0.462,0.162,0.652h-0.566c-0.016-0.038-0.031-0.083-0.049-0.134c-0.018-0.051-0.035-0.106-0.053-0.164    c-0.016-0.059-0.031-0.119-0.046-0.183c-0.015-0.063-0.026-0.127-0.035-0.189c-0.202,0.248-0.409,0.436-0.624,0.563    C135.42,10.621,135.195,10.685,134.959,10.685z"/>
		<path class="st9" d="M137.837,10.601V8.538c0-0.331-0.019-0.611-0.055-0.84c-0.036-0.229-0.073-0.402-0.112-0.519h0.6    c0.026,0.063,0.051,0.142,0.071,0.237c0.021,0.095,0.039,0.201,0.054,0.317c0.014,0.116,0.024,0.24,0.031,0.372    c0.007,0.132,0.01,0.265,0.01,0.399v0.218c0.113-0.315,0.225-0.577,0.333-0.784c0.108-0.207,0.217-0.372,0.324-0.495    s0.216-0.209,0.324-0.258s0.22-0.074,0.333-0.074c0.084,0,0.162,0.008,0.232,0.023c0.071,0.016,0.144,0.042,0.217,0.077    l-0.1,0.621c-0.064-0.027-0.121-0.045-0.17-0.054s-0.109-0.013-0.18-0.013c-0.092,0-0.187,0.039-0.286,0.116    c-0.101,0.077-0.198,0.179-0.294,0.307c-0.098,0.127-0.188,0.272-0.275,0.433c-0.086,0.161-0.162,0.326-0.228,0.495    s-0.118,0.333-0.156,0.495c-0.039,0.161-0.058,0.304-0.058,0.43c0,0.056,0,0.107,0.001,0.154s0.005,0.092,0.01,0.136    c0.006,0.043,0.013,0.087,0.022,0.131c0.008,0.043,0.02,0.09,0.033,0.139H137.837z"/>
		<path class="st9" d="M142.195,7.112c0.182,0,0.342,0.022,0.482,0.065c0.14,0.043,0.26,0.104,0.362,0.181s0.188,0.167,0.257,0.27    c0.068,0.103,0.123,0.213,0.164,0.332s0.07,0.242,0.088,0.371c0.018,0.129,0.027,0.256,0.027,0.381v0.131    c0,0.056-0.002,0.1-0.004,0.131h-2.358c0.007,0.197,0.037,0.368,0.091,0.513c0.055,0.146,0.129,0.266,0.224,0.361    c0.095,0.095,0.205,0.166,0.333,0.213c0.127,0.047,0.266,0.07,0.417,0.07c0.215,0,0.426-0.024,0.632-0.074    c0.207-0.049,0.412-0.136,0.615-0.262l0.066,0.554c-0.117,0.06-0.232,0.112-0.346,0.154s-0.227,0.077-0.339,0.104    c-0.113,0.027-0.228,0.046-0.345,0.059c-0.116,0.012-0.238,0.019-0.367,0.019c-0.213,0-0.416-0.038-0.609-0.112    c-0.192-0.075-0.362-0.186-0.509-0.333c-0.146-0.146-0.263-0.328-0.349-0.545c-0.087-0.217-0.131-0.468-0.131-0.755    c0-0.277,0.037-0.528,0.112-0.753c0.074-0.225,0.18-0.417,0.317-0.577c0.138-0.16,0.305-0.283,0.502-0.369    C141.727,7.155,141.949,7.112,142.195,7.112z M142.145,7.615c-0.243,0-0.443,0.072-0.598,0.217    c-0.156,0.144-0.258,0.368-0.307,0.672h1.736c0-0.143-0.02-0.27-0.061-0.381c-0.041-0.11-0.1-0.204-0.174-0.28    c-0.074-0.076-0.162-0.133-0.264-0.171C142.376,7.634,142.266,7.615,142.145,7.615z"/>
	</g>
	<g>
		<path class="st11" d="M26.1,35.1c0,0-0.1,0.1,0.7,0.3c0,0-0.2,0.7-1.3,0.8c-1.2,0-2,1.3-2,1.3s-1,2.3-2.9,1.7s-3.4,2.4-3.4,2.4    S16,41,15.6,40.1c0,0,0-0.1-0.1-0.3"/>
		<path class="st11" d="M25.8,36.2c0,0-1,2.1-2.8,2.1"/>
		<path class="st11" d="M21,39.3c0,0-1.3,1.5-3.4,1.7"/>
		<path class="st11" d="M15.5,39.8c-0.3-1-1.3-4.3,0.2-5.5c0,0-3,1.1-6.5-1.6c0,0-3.1-2.2-3.3-7.2c0,0,0.2-3.5,2.5-4.5    c0,0-0.2-0.1-0.2-0.3c0,0-3.1-0.5-5.4-3.4c-0.3-0.4-0.6-0.7-1-1l0,0C1,15.8,0.6,15,0.5,14.1c0-0.5,0-1,0-1s3.3,0.8,4.1-1    s3.2-1,3.2-1s1.5,0.3,2.3-0.6c0.8-0.8,1.5-0.5,1.5-0.5c-0.2,0.5-0.5,0.9-0.3,1.6c0,0,0.7,2.7-0.4,4.3c0,0-1,3.3-1.2,3.6l0.2,0.2    c0,0,0.4-0.2,0.5,0.1c0,0,5.4-0.1,8.2,4.4c0,0,2.3,3.2-1,8.8c0,0,0.2,0,0.2,0.2c0,0.3,5.7-1.4,8.3,1.9"/>
		<path class="st11" d="M4.8,11.8c0,0-2,0-3.6,1.4"/>
		<path class="st12" d="M9.8,19.8c0,0-0.2,0.9-1.6,0.9"/>
		<path class="st12" d="M10.3,19.8c0,0-0.1,1.3-1.9,1.3"/>
		<path class="st12" d="M8.8,21c0,0-0.5,0.5,0.1,1.9"/>
		<path class="st12" d="M17.5,33c0,0-1.4,1.1-1.9,1.3"/>
		<path class="st12" d="M17.8,33.2c0,0-1.2,1.1-2.1,1.2"/>
		<path class="st12" d="M14.6,20.8c0,0-2,4.1-8.3,3.3"/>
		<path class="st12" d="M17.9,23.4c0,0-5.4,6.3-11.7,4.3"/>
		<path class="st12" d="M19.3,26.9c0,0-5,5.3-11.6,4.3"/>
		<path class="st12" d="M18.4,31.2c0,0-3.9,2.9-7.1,2.8"/>
		<path class="st12" d="M17,33.8c0,0,2.3-0.2,3.3,1.8"/>
		<line class="st12" x1="16.7" y1="34" x2="18" y2="35.4"/>
		<path class="st12" d="M16.4,34.1c0,0,0.5,2.3,0.3,3.2"/>
		<path class="st12" d="M9.1,20.5c0,0-2.3-0.4-2.8-2.5"/>
		<line class="st12" x1="9.2" y1="20.5" x2="7.9" y2="19"/>
		<path class="st12" d="M9.4,20.3c0,0-0.9-2-0.3-3.2"/>
		<path class="st12" d="M10.1,20.2c0,0,0.7-0.1,1.1,0.6"/>
		<path class="st13" d="M26.1,35.1c0,0-0.1,0.1,0.7,0.3c0,0-0.2,0.7-1.3,0.8c-1.2,0-2,1.3-2,1.3s-1,2.3-2.9,1.7s-3.4,2.4-3.4,2.4    S16,41,15.6,40.1c0,0,0-0.1-0.1-0.3"/>
		<path class="st13" d="M25.8,36.2c0,0-1,2.1-2.8,2.1"/>
		<path class="st13" d="M21,39.3c0,0-1.3,1.5-3.4,1.7"/>
		<path class="st13" d="M15.5,39.8c-0.3-1-1.3-4.3,0.2-5.5c0,0-3,1.1-6.5-1.6c0,0-3.1-2.2-3.3-7.2c0,0,0.2-3.5,2.5-4.5    c0,0-0.2-0.1-0.2-0.3c0,0-3.1-0.5-5.4-3.4c-0.3-0.4-0.6-0.7-1-1l0,0C1,15.8,0.6,15,0.5,14.1c0-0.5,0-1,0-1s3.3,0.8,4.1-1    s3.2-1,3.2-1s1.5,0.3,2.3-0.6c0.8-0.8,1.5-0.5,1.5-0.5c-0.2,0.5-0.5,0.9-0.3,1.6c0,0,0.7,2.7-0.4,4.3c0,0-1,3.3-1.2,3.6l0.2,0.2    c0,0,0.4-0.2,0.5,0.1c0,0,5.4-0.1,8.2,4.4c0,0,2.3,3.2-1,8.8c0,0,0.2,0,0.2,0.2c0,0.3,5.7-1.4,8.3,1.9"/>
		<path class="st13" d="M4.8,11.8c0,0-2,0-3.6,1.4"/>
	</g>
</g>
</svg>