<?xml version="1.0" encoding="UTF-8"?>
<!-- Generator: Adobe Illustrator 24.0.2, SVG Export Plug-In . SVG Version: 6.00 Build 0)  -->
<svg version="1.1" id="Calque_1" xmlns="http://www.w3.org/2000/svg" xmlns:xlink="http://www.w3.org/1999/xlink" x="0px" y="0px" viewBox="0 0 148 70" style="enable-background:new 0 0 148 70;" xml:space="preserve">
<style type="text/css">
	.st0{fill:#FFFFFF;stroke:#DADADA;stroke-width:0.7621;stroke-miterlimit:10;}
	.st1{fill:#FFFFFF;stroke:#DADADA;stroke-width:0.7813;stroke-miterlimit:10;}
	.st2{fill:#FFFFFF;stroke:#DADADA;stroke-width:0.7254;stroke-miterlimit:10;}
	.st3{fill:#FFFFFF;stroke:#9D9D9C;stroke-width:0.7254;stroke-miterlimit:10;}
	.st4{fill:#FFFFFF;stroke:#000000;stroke-width:0.9672;stroke-miterlimit:10;}
	.st5{enable-background:new    ;}
	.st6{fill:#706F6F;}
	.st7{fill:#7FC7EB;}
	.st8{fill:none;stroke:#B2B2B2;stroke-width:0.3627;stroke-miterlimit:10;}
	.st9{fill:#9D9D9C;}
	.st10{fill:#B2B2B2;}
	.st11{fill:#7DB728;}
	.st12{fill:#E11683;}
	.st13{fill:#878787;}
	.st14{fill:#575756;}
	.st15{opacity:0.6;enable-background:new    ;}
	.st16{fill:#FFFFFF;stroke:#575756;stroke-width:0.853;stroke-miterlimit:10;}
	.st17{fill:#FFFFFF;}
	.st18{fill:#7DB728;stroke:#575756;stroke-width:0.522;stroke-miterlimit:10;}
	.st19{fill:none;stroke:#575756;stroke-width:0.174;stroke-linecap:round;stroke-linejoin:round;stroke-miterlimit:10;}
	.st20{fill:none;stroke:#575756;stroke-width:0.174;stroke-miterlimit:10;}
	.st21{fill:none;stroke:#575756;stroke-width:0.522;stroke-linecap:round;stroke-linejoin:round;stroke-miterlimit:10;}
</style>
<g id="_x3C_Groupe_x3E__loup">
	<rect x="109.4" y="8.3" class="st0" width="37.6" height="12.7"/>
	<rect x="71.8" y="8.3" class="st1" width="37.6" height="12.7"/>
	<rect x="109.4" y="21" class="st2" width="37.6" height="12.7"/>
	<rect x="71.8" y="21" class="st2" width="37.6" height="12.7"/>
	<rect x="71.9" y="33.8" class="st3" width="28.8" height="23.2"/>
	<path class="st4" d="M49.3,56.9H16.7v-56h55.2v56H56.1c0,0-5.1,9.3-13.5,11.1C42.6,68,47.6,64.6,49.3,56.9z"/>
	<g class="st5">
		<path class="st6" d="M95.91,38.158c0,0.303-0.045,0.572-0.133,0.811s-0.206,0.439-0.353,0.605c-0.146,0.165-0.313,0.291-0.5,0.379    c-0.187,0.086-0.38,0.131-0.579,0.131s-0.392-0.041-0.575-0.124c-0.184-0.082-0.346-0.202-0.486-0.362    c-0.142-0.159-0.253-0.355-0.338-0.588s-0.126-0.499-0.126-0.801c0-0.201,0.02-0.389,0.061-0.561    c0.041-0.174,0.097-0.331,0.168-0.474c0.072-0.143,0.158-0.269,0.258-0.38c0.1-0.11,0.207-0.203,0.324-0.279    c0.116-0.075,0.239-0.133,0.369-0.172s0.262-0.06,0.396-0.06c0.196,0,0.387,0.041,0.569,0.124    c0.183,0.082,0.345,0.202,0.483,0.361c0.141,0.16,0.252,0.355,0.336,0.588C95.868,37.59,95.91,37.857,95.91,38.158z     M95.426,38.222c0-0.231-0.025-0.44-0.075-0.626c-0.051-0.185-0.122-0.342-0.215-0.471s-0.204-0.229-0.334-0.297    c-0.13-0.069-0.273-0.104-0.431-0.104s-0.301,0.033-0.432,0.1s-0.244,0.16-0.338,0.284c-0.094,0.123-0.168,0.272-0.22,0.448    c-0.052,0.175-0.078,0.371-0.078,0.59c0,0.229,0.025,0.437,0.075,0.621c0.051,0.185,0.123,0.342,0.217,0.472    s0.205,0.229,0.336,0.3c0.131,0.069,0.277,0.104,0.439,0.104c0.152,0,0.293-0.031,0.422-0.096s0.24-0.158,0.334-0.279    c0.094-0.122,0.167-0.271,0.22-0.447C95.4,38.645,95.426,38.445,95.426,38.222z"/>
	</g>
	<g class="st5">
		<path class="st7" d="M99.561,38.158c0,0.303-0.045,0.572-0.133,0.811s-0.206,0.439-0.353,0.605    c-0.146,0.165-0.313,0.291-0.5,0.379c-0.187,0.086-0.38,0.131-0.579,0.131s-0.392-0.041-0.575-0.124    c-0.184-0.082-0.346-0.202-0.486-0.362c-0.142-0.159-0.253-0.355-0.338-0.588s-0.126-0.499-0.126-0.801    c0-0.201,0.02-0.389,0.061-0.561c0.041-0.174,0.097-0.331,0.168-0.474c0.072-0.143,0.158-0.269,0.258-0.38    c0.1-0.11,0.207-0.203,0.324-0.279c0.116-0.075,0.239-0.133,0.369-0.172s0.262-0.06,0.396-0.06c0.196,0,0.387,0.041,0.569,0.124    c0.183,0.082,0.345,0.202,0.483,0.361c0.141,0.16,0.252,0.355,0.336,0.588C99.519,37.59,99.561,37.857,99.561,38.158z     M99.076,38.222c0-0.231-0.025-0.44-0.075-0.626c-0.051-0.185-0.122-0.342-0.215-0.471s-0.204-0.229-0.334-0.297    c-0.13-0.069-0.273-0.104-0.431-0.104s-0.301,0.033-0.432,0.1s-0.244,0.16-0.338,0.284c-0.094,0.123-0.168,0.272-0.22,0.448    c-0.052,0.175-0.078,0.371-0.078,0.59c0,0.229,0.025,0.437,0.075,0.621c0.051,0.185,0.123,0.342,0.217,0.472    s0.205,0.229,0.336,0.3c0.131,0.069,0.277,0.104,0.439,0.104c0.152,0,0.293-0.031,0.422-0.096s0.24-0.158,0.334-0.279    c0.094-0.122,0.167-0.271,0.22-0.447C99.051,38.645,99.076,38.445,99.076,38.222z"/>
	</g>
	<g class="st5">
		<path class="st6" d="M75.51,36.552c0.166,0.055,0.284,0.141,0.354,0.258c0.05,0.147,0.081,0.254,0.093,0.321    c0.025,0.146,0.037,0.272,0.037,0.377c0,0.101-0.008,0.201-0.024,0.302c0.046,0.046,0.101,0.087,0.167,0.12    c0.059,0.033,0.112,0.05,0.162,0.05c0.062,0,0.107-0.033,0.137-0.101l0.093,0.201c-0.062,0.08-0.135,0.119-0.218,0.119    c-0.062,0-0.13-0.021-0.205-0.063c-0.07-0.021-0.127-0.066-0.173-0.139c-0.087,0.441-0.265,0.756-0.534,0.943    c-0.215,0.147-0.478,0.221-0.788,0.221c-0.364,0-0.653-0.148-0.869-0.447c-0.211-0.268-0.316-0.58-0.316-0.937    c0-0.437,0.116-0.813,0.348-1.132c0.228-0.307,0.536-0.459,0.924-0.459C75.078,36.188,75.35,36.309,75.51,36.552z M74.908,38.923    c0.187,0,0.36-0.083,0.521-0.251c0.17-0.186,0.283-0.435,0.342-0.749c-0.195-0.13-0.344-0.249-0.447-0.358    c-0.148-0.143-0.238-0.285-0.267-0.428c-0.013-0.029-0.019-0.08-0.019-0.15c0-0.08,0.021-0.168,0.062-0.265    c0.046-0.079,0.12-0.132,0.224-0.157c-0.1-0.109-0.246-0.164-0.44-0.164c-0.232,0-0.426,0.141-0.583,0.422    c-0.149,0.302-0.224,0.605-0.224,0.912s0.068,0.568,0.205,0.786C74.426,38.789,74.635,38.923,74.908,38.923z M75.814,37.703    c0.012-0.088,0.019-0.178,0.019-0.271c0-0.163-0.028-0.319-0.087-0.466c-0.07-0.154-0.141-0.232-0.211-0.232    c-0.021,0-0.043,0.008-0.068,0.025c-0.058,0.033-0.087,0.109-0.087,0.227c0,0.125,0.046,0.256,0.137,0.39    C75.6,37.527,75.699,37.636,75.814,37.703z"/>
	</g>
	<g class="st5">
		<path class="st7" d="M78.47,36.552c0.165,0.055,0.284,0.141,0.354,0.258c0.049,0.147,0.08,0.254,0.092,0.321    c0.025,0.146,0.038,0.272,0.038,0.377c0,0.101-0.009,0.201-0.024,0.302c0.045,0.046,0.101,0.087,0.167,0.12    c0.058,0.033,0.112,0.05,0.161,0.05c0.063,0,0.107-0.033,0.137-0.101l0.094,0.201c-0.063,0.08-0.135,0.119-0.218,0.119    c-0.062,0-0.13-0.021-0.205-0.063c-0.07-0.021-0.128-0.066-0.173-0.139c-0.088,0.441-0.266,0.756-0.534,0.943    c-0.216,0.147-0.478,0.221-0.788,0.221c-0.364,0-0.654-0.148-0.869-0.447c-0.211-0.268-0.316-0.58-0.316-0.937    c0-0.437,0.115-0.813,0.348-1.132c0.228-0.307,0.535-0.459,0.924-0.459C78.037,36.188,78.309,36.309,78.47,36.552z M77.867,38.923    c0.188,0,0.361-0.083,0.521-0.251c0.17-0.186,0.283-0.435,0.342-0.749c-0.194-0.13-0.344-0.249-0.447-0.358    c-0.148-0.143-0.237-0.285-0.266-0.428c-0.014-0.029-0.02-0.08-0.02-0.15c0-0.08,0.021-0.168,0.063-0.265    c0.045-0.079,0.119-0.132,0.223-0.157c-0.099-0.109-0.246-0.164-0.439-0.164c-0.232,0-0.427,0.141-0.584,0.422    c-0.148,0.302-0.224,0.605-0.224,0.912s0.068,0.568,0.205,0.786C77.386,38.789,77.595,38.923,77.867,38.923z M78.773,37.703    c0.013-0.088,0.02-0.178,0.02-0.271c0-0.163-0.029-0.319-0.088-0.466c-0.07-0.154-0.141-0.232-0.211-0.232    c-0.02,0-0.043,0.008-0.068,0.025c-0.057,0.033-0.086,0.109-0.086,0.227c0,0.125,0.045,0.256,0.137,0.39    C78.559,37.527,78.658,37.636,78.773,37.703z"/>
	</g>
	<path class="st8" d="M34,52.5c0,0,10.2,3.6,23.9,0"/>
	<g>
		<g class="st5">
			<path class="st9" d="M81.031,41.671c0-0.469,0.07-0.884,0.21-1.245s0.328-0.668,0.564-0.916c0.237-0.249,0.513-0.438,0.829-0.564     c0.314-0.127,0.65-0.191,1.005-0.191c0.37,0,0.708,0.064,1.015,0.191s0.569,0.315,0.79,0.564c0.22,0.248,0.392,0.555,0.514,0.916     s0.183,0.776,0.183,1.245s-0.07,0.884-0.209,1.243c-0.141,0.359-0.328,0.661-0.565,0.904c-0.236,0.244-0.513,0.428-0.828,0.554     s-0.651,0.188-1.006,0.188c-0.369,0-0.707-0.063-1.014-0.188s-0.57-0.31-0.79-0.554c-0.221-0.243-0.393-0.545-0.514-0.904     C81.092,42.555,81.031,42.14,81.031,41.671z M82.026,41.671c0,0.316,0.038,0.6,0.112,0.851c0.076,0.25,0.183,0.463,0.32,0.635     c0.139,0.173,0.303,0.305,0.492,0.396c0.19,0.091,0.402,0.136,0.635,0.136c0.215,0,0.418-0.045,0.607-0.136     c0.19-0.091,0.356-0.223,0.498-0.396c0.142-0.172,0.253-0.385,0.334-0.635c0.08-0.251,0.121-0.534,0.121-0.851     c0-0.319-0.039-0.606-0.113-0.858c-0.076-0.252-0.183-0.467-0.32-0.644c-0.139-0.177-0.303-0.311-0.494-0.403     c-0.192-0.093-0.403-0.139-0.633-0.139c-0.219,0-0.423,0.046-0.613,0.139c-0.189,0.093-0.354,0.227-0.494,0.403     c-0.141,0.177-0.25,0.392-0.331,0.644S82.026,41.352,82.026,41.671z"/>
		</g>
		<g class="st5">
			<path class="st7" d="M86.951,41.671c0-0.469,0.07-0.884,0.209-1.245c0.141-0.361,0.328-0.668,0.564-0.916     c0.237-0.249,0.514-0.438,0.829-0.564s0.651-0.191,1.005-0.191c0.37,0,0.708,0.064,1.015,0.191s0.569,0.315,0.79,0.564     c0.221,0.248,0.393,0.555,0.514,0.916c0.122,0.361,0.184,0.776,0.184,1.245s-0.07,0.884-0.21,1.243s-0.328,0.661-0.565,0.904     c-0.236,0.244-0.512,0.428-0.828,0.554c-0.314,0.126-0.65,0.188-1.006,0.188c-0.369,0-0.707-0.063-1.014-0.188     s-0.57-0.31-0.79-0.554c-0.221-0.243-0.392-0.545-0.514-0.904S86.951,42.14,86.951,41.671z M87.945,41.671     c0,0.316,0.038,0.6,0.113,0.851c0.076,0.25,0.182,0.463,0.32,0.635c0.138,0.173,0.302,0.305,0.492,0.396     c0.189,0.091,0.401,0.136,0.635,0.136c0.215,0,0.418-0.045,0.607-0.136s0.355-0.223,0.498-0.396     c0.141-0.172,0.252-0.385,0.333-0.635c0.081-0.251,0.121-0.534,0.121-0.851c0-0.319-0.038-0.606-0.113-0.858     s-0.183-0.467-0.319-0.644c-0.139-0.177-0.304-0.311-0.495-0.403c-0.192-0.093-0.403-0.139-0.632-0.139     c-0.219,0-0.424,0.046-0.613,0.139c-0.19,0.093-0.355,0.227-0.495,0.403s-0.25,0.392-0.331,0.644     C87.986,41.064,87.945,41.352,87.945,41.671z"/>
		</g>
		<g class="st5">
			<path class="st10" d="M73.597,47.508h0.662v-0.587c0-0.503,0.101-0.881,0.303-1.132c0.202-0.252,0.481-0.378,0.839-0.378     c0.131,0,0.258,0.021,0.385,0.062c0.125,0.042,0.24,0.1,0.344,0.174l-0.152,0.503c-0.084-0.063-0.177-0.112-0.278-0.147     c-0.102-0.036-0.2-0.055-0.298-0.055c-0.086,0-0.162,0.016-0.229,0.046s-0.121,0.079-0.165,0.146     c-0.044,0.067-0.078,0.154-0.101,0.26c-0.023,0.107-0.035,0.236-0.035,0.389v0.721h0.894v0.486h-0.894v1.194     c0,0.163,0.001,0.325,0.005,0.485c0.003,0.159,0.009,0.312,0.017,0.455c0.008,0.145,0.018,0.278,0.031,0.401     s0.029,0.228,0.046,0.315h-0.711v-2.852h-0.662V47.508z"/>
		</g>
		<g class="st5">
			<path class="st9" d="M76.324,48.729c0-0.361,0.053-0.68,0.16-0.959c0.108-0.277,0.253-0.513,0.436-0.704     c0.182-0.191,0.395-0.336,0.637-0.435c0.242-0.098,0.5-0.146,0.773-0.146c0.284,0,0.544,0.049,0.779,0.146     c0.236,0.099,0.439,0.243,0.609,0.435c0.169,0.191,0.301,0.427,0.395,0.704c0.094,0.279,0.141,0.598,0.141,0.959     c0,0.36-0.054,0.679-0.161,0.955c-0.108,0.277-0.253,0.51-0.435,0.697c-0.182,0.187-0.395,0.328-0.637,0.425     c-0.243,0.097-0.501,0.146-0.773,0.146c-0.285,0-0.545-0.049-0.78-0.146s-0.438-0.238-0.608-0.425     c-0.17-0.188-0.301-0.42-0.395-0.697C76.371,49.407,76.324,49.089,76.324,48.729z M77.089,48.729     c0,0.242,0.029,0.461,0.087,0.654c0.059,0.192,0.141,0.355,0.246,0.488c0.106,0.133,0.232,0.234,0.379,0.304     s0.309,0.104,0.488,0.104c0.165,0,0.32-0.035,0.467-0.104s0.273-0.171,0.383-0.304s0.195-0.296,0.257-0.488     c0.062-0.193,0.093-0.412,0.093-0.654c0-0.246-0.029-0.467-0.086-0.66c-0.059-0.195-0.141-0.359-0.247-0.496     c-0.106-0.135-0.233-0.238-0.38-0.31c-0.148-0.071-0.311-0.106-0.486-0.106c-0.168,0-0.326,0.035-0.472,0.106     c-0.146,0.071-0.273,0.175-0.381,0.31c-0.107,0.137-0.192,0.301-0.255,0.496C77.12,48.262,77.089,48.482,77.089,48.729z"/>
		</g>
		<g class="st5">
			<path class="st7" d="M81.06,48.729c0-0.361,0.054-0.68,0.161-0.959c0.107-0.277,0.252-0.513,0.435-0.704s0.395-0.336,0.638-0.435     c0.242-0.098,0.5-0.146,0.773-0.146c0.283,0,0.543,0.049,0.779,0.146c0.236,0.099,0.438,0.243,0.608,0.435     c0.169,0.191,0.302,0.427,0.396,0.704c0.094,0.279,0.141,0.598,0.141,0.959c0,0.36-0.055,0.679-0.162,0.955     c-0.107,0.277-0.252,0.51-0.434,0.697c-0.183,0.187-0.395,0.328-0.638,0.425s-0.501,0.146-0.773,0.146     c-0.284,0-0.544-0.049-0.78-0.146c-0.235-0.097-0.438-0.238-0.607-0.425c-0.17-0.188-0.302-0.42-0.396-0.697     C81.106,49.407,81.06,49.089,81.06,48.729z M81.824,48.729c0,0.242,0.029,0.461,0.088,0.654c0.058,0.192,0.14,0.355,0.246,0.488     c0.105,0.133,0.232,0.234,0.379,0.304c0.146,0.069,0.309,0.104,0.487,0.104c0.165,0,0.321-0.035,0.468-0.104     s0.273-0.171,0.383-0.304s0.194-0.296,0.256-0.488c0.063-0.193,0.094-0.412,0.094-0.654c0-0.246-0.029-0.467-0.087-0.66     c-0.058-0.195-0.14-0.359-0.247-0.496c-0.105-0.135-0.232-0.238-0.38-0.31s-0.31-0.106-0.486-0.106     c-0.168,0-0.325,0.035-0.472,0.106s-0.273,0.175-0.381,0.31c-0.107,0.137-0.191,0.301-0.254,0.496     C81.855,48.262,81.824,48.482,81.824,48.729z"/>
		</g>
		<g class="st5">
			<path class="st10" d="M85.502,47.508h0.662v-1.09h0.611v1.09h1.076v0.486h-1.076v1.543c0,0.172,0.009,0.313,0.025,0.423     c0.017,0.11,0.042,0.195,0.076,0.257s0.078,0.104,0.131,0.125c0.053,0.023,0.117,0.034,0.191,0.034     c0.096,0,0.202-0.021,0.321-0.063s0.251-0.105,0.397-0.188v0.536c-0.152,0.101-0.299,0.171-0.438,0.21s-0.267,0.059-0.384,0.059     c-0.13,0-0.251-0.016-0.364-0.045c-0.112-0.031-0.211-0.084-0.296-0.16s-0.151-0.177-0.2-0.303     c-0.049-0.127-0.072-0.287-0.072-0.482v-1.945h-0.662V47.508z"/>
			<path class="st10" d="M88.646,50.627v-3.968c0-0.144-0.002-0.287-0.006-0.431c-0.003-0.145-0.008-0.282-0.015-0.413     s-0.017-0.243-0.03-0.337h0.662v2.6c0.078-0.104,0.162-0.197,0.252-0.285s0.188-0.163,0.293-0.229     c0.104-0.064,0.218-0.115,0.34-0.152c0.121-0.037,0.251-0.055,0.39-0.055c0.168,0,0.321,0.041,0.46,0.123     c0.139,0.084,0.26,0.199,0.361,0.348s0.18,0.326,0.236,0.531c0.057,0.207,0.084,0.432,0.084,0.675     c0,0.288-0.037,0.55-0.113,0.782s-0.184,0.432-0.323,0.597c-0.139,0.165-0.308,0.293-0.505,0.382     c-0.197,0.09-0.418,0.135-0.664,0.135c-0.134,0-0.264-0.01-0.39-0.029c-0.126-0.019-0.248-0.043-0.366-0.073     c-0.117-0.03-0.232-0.063-0.342-0.097C88.859,50.695,88.752,50.661,88.646,50.627z M90.068,50.41     c0.146,0,0.281-0.031,0.404-0.092c0.123-0.06,0.23-0.145,0.32-0.254c0.089-0.109,0.158-0.242,0.209-0.398     c0.051-0.154,0.076-0.326,0.076-0.515c0-0.186-0.016-0.353-0.049-0.503s-0.082-0.277-0.145-0.381s-0.141-0.184-0.233-0.24     c-0.093-0.055-0.198-0.084-0.317-0.084c-0.104,0-0.207,0.023-0.311,0.069c-0.104,0.046-0.203,0.11-0.297,0.192     c-0.094,0.084-0.182,0.182-0.264,0.297c-0.081,0.115-0.149,0.242-0.205,0.381v1.342c0.082,0.034,0.156,0.063,0.224,0.086     s0.134,0.043,0.197,0.057c0.063,0.016,0.128,0.025,0.19,0.032S89.998,50.41,90.068,50.41z"/>
		</g>
		<g class="st5">
			<path class="st11" d="M95.322,49.068c0,0.422,0.023,0.777,0.069,1.064s0.105,0.525,0.179,0.713h-0.58     c-0.01-0.029-0.025-0.069-0.045-0.121c-0.021-0.051-0.041-0.109-0.063-0.176c-0.021-0.066-0.041-0.137-0.059-0.213     c-0.02-0.076-0.035-0.152-0.049-0.229c-0.086,0.112-0.177,0.217-0.272,0.315c-0.097,0.099-0.197,0.187-0.304,0.262     c-0.105,0.076-0.216,0.136-0.33,0.18c-0.115,0.044-0.232,0.065-0.352,0.065c-0.139,0-0.277-0.03-0.415-0.091     c-0.138-0.06-0.262-0.151-0.372-0.271c-0.11-0.121-0.199-0.272-0.268-0.454c-0.068-0.183-0.104-0.396-0.104-0.643     c0-0.258,0.028-0.49,0.085-0.699c0.056-0.209,0.133-0.396,0.229-0.559c0.086-0.144,0.178-0.27,0.275-0.377     c0.097-0.107,0.203-0.195,0.318-0.266c0.117-0.07,0.244-0.124,0.383-0.16c0.139-0.035,0.293-0.053,0.463-0.053     c0.084,0,0.178,0.006,0.28,0.018c0.103,0.013,0.208,0.029,0.314,0.053c0.106,0.021,0.214,0.049,0.319,0.08     s0.204,0.064,0.295,0.101V49.068z M93.981,47.928c-0.071,0-0.142,0.008-0.214,0.024c-0.071,0.017-0.143,0.046-0.211,0.086     c-0.07,0.04-0.137,0.093-0.202,0.159s-0.126,0.149-0.185,0.25c-0.059,0.103-0.107,0.23-0.143,0.384     c-0.037,0.153-0.055,0.311-0.055,0.472c0,0.186,0.017,0.345,0.051,0.479c0.034,0.133,0.079,0.242,0.136,0.328     c0.056,0.086,0.12,0.149,0.192,0.189c0.071,0.041,0.144,0.061,0.217,0.061c0.092,0,0.193-0.029,0.303-0.088     c0.109-0.058,0.215-0.135,0.318-0.23c0.104-0.097,0.201-0.207,0.293-0.332s0.168-0.256,0.227-0.39v-1.258     c-0.033-0.016-0.075-0.031-0.127-0.048c-0.052-0.016-0.109-0.029-0.172-0.043s-0.131-0.023-0.205-0.031     S94.057,47.928,93.981,47.928z"/>
		</g>
		<g class="st5">
			<path class="st12" d="M97.002,49.252c0,0.107,0.002,0.234,0.006,0.379c0.003,0.146,0.008,0.293,0.013,0.443     s0.013,0.293,0.021,0.43s0.017,0.25,0.027,0.342h-0.678v-3.791c0-0.326-0.006-0.622-0.018-0.887     c-0.011-0.266-0.027-0.495-0.049-0.689h0.678V49.252z"/>
		</g>
		<g>
			<path class="st10" d="M98.877,49.252c0,0.107,0.002,0.234,0.005,0.379c0.003,0.146,0.008,0.293,0.013,0.443     c0.006,0.15,0.013,0.293,0.021,0.43s0.017,0.25,0.028,0.342h-0.679v-3.791c0-0.326-0.005-0.622-0.017-0.887     c-0.012-0.266-0.027-0.495-0.05-0.689h0.679V49.252z"/>
			<path class="st10" d="M97.636,51.35v-0.27h1.87v0.27H97.636z"/>
		</g>
		<g class="st5">
			<path class="st13" d="M92.733,52.283h0.413v2.929h-0.413V52.283z"/>
			<path class="st13" d="M95.921,52.25c0.178,0,0.329,0.063,0.455,0.192c0.126,0.128,0.188,0.282,0.188,0.464     c0,0.178-0.063,0.332-0.189,0.461c-0.127,0.129-0.277,0.192-0.454,0.192s-0.328-0.063-0.454-0.192     c-0.127-0.129-0.189-0.283-0.189-0.461c0-0.182,0.063-0.336,0.188-0.464C95.592,52.313,95.742,52.25,95.921,52.25z      M97.385,52.241h0.318l-1.899,3.005h-0.319L97.385,52.241z M95.916,52.568c-0.093,0-0.172,0.033-0.236,0.1     c-0.065,0.065-0.098,0.146-0.098,0.238c0,0.092,0.032,0.171,0.098,0.236c0.066,0.066,0.145,0.099,0.236,0.099     s0.17-0.032,0.236-0.099c0.064-0.065,0.098-0.145,0.098-0.236c0-0.094-0.033-0.174-0.098-0.24     C96.088,52.601,96.009,52.568,95.916,52.568z M97.285,53.938c0.176,0,0.328,0.063,0.454,0.191s0.19,0.281,0.19,0.461     c0,0.178-0.063,0.33-0.189,0.455s-0.277,0.188-0.455,0.188c-0.18,0-0.332-0.063-0.457-0.188     c-0.127-0.125-0.189-0.277-0.189-0.455c0-0.182,0.063-0.334,0.189-0.462C96.955,54.001,97.107,53.938,97.285,53.938z      M97.281,54.256c-0.092,0-0.168,0.033-0.232,0.098c-0.064,0.066-0.096,0.145-0.096,0.236c0,0.094,0.031,0.174,0.096,0.24     s0.141,0.099,0.232,0.099c0.093,0,0.172-0.032,0.236-0.099c0.064-0.064,0.098-0.145,0.098-0.24c0-0.093-0.033-0.172-0.098-0.236     C97.453,54.288,97.374,54.256,97.281,54.256z"/>
		</g>
	</g>
	<g class="st5">
		<path class="st13" d="M58.826,61.879v0.403h-1.439v0.604c0,0.249,0.001,0.469,0.005,0.66c0.003,0.189,0.014,0.334,0.032,0.434    h-0.546c0.019-0.101,0.029-0.246,0.032-0.437c0.003-0.19,0.005-0.409,0.005-0.657v-1.824c0-0.113-0.001-0.217-0.004-0.311    c-0.002-0.096-0.006-0.181-0.011-0.256c-0.005-0.076-0.012-0.139-0.022-0.189h2.16v0.416h-1.65v1.156H58.826z"/>
		<path class="st13" d="M59.571,62.71c0-0.216,0.032-0.408,0.097-0.575c0.064-0.166,0.151-0.308,0.261-0.422    c0.109-0.115,0.237-0.202,0.382-0.261c0.146-0.06,0.3-0.089,0.464-0.089c0.17,0,0.326,0.029,0.468,0.089    c0.142,0.059,0.263,0.146,0.365,0.261c0.102,0.114,0.181,0.256,0.237,0.422c0.056,0.167,0.084,0.359,0.084,0.575    s-0.032,0.407-0.097,0.573s-0.151,0.306-0.261,0.418c-0.109,0.112-0.236,0.197-0.382,0.256c-0.146,0.058-0.3,0.086-0.464,0.086    c-0.17,0-0.327-0.028-0.468-0.086c-0.142-0.059-0.263-0.144-0.365-0.256c-0.102-0.112-0.181-0.252-0.237-0.418    S59.571,62.926,59.571,62.71z M60.03,62.71c0,0.146,0.018,0.276,0.052,0.393s0.084,0.214,0.148,0.293    c0.063,0.079,0.139,0.141,0.227,0.183c0.087,0.041,0.185,0.063,0.293,0.063c0.099,0,0.192-0.021,0.28-0.063    c0.088-0.042,0.164-0.104,0.229-0.183s0.117-0.177,0.154-0.293c0.037-0.116,0.056-0.247,0.056-0.393    c0-0.147-0.018-0.28-0.052-0.396s-0.084-0.216-0.147-0.297c-0.064-0.081-0.14-0.144-0.229-0.187s-0.186-0.063-0.292-0.063    c-0.101,0-0.195,0.021-0.283,0.063s-0.164,0.105-0.229,0.187c-0.064,0.081-0.115,0.181-0.152,0.297S60.03,62.563,60.03,62.71z"/>
		<path class="st13" d="M62.55,63.98v-1.547c0-0.248-0.014-0.459-0.041-0.631s-0.055-0.301-0.083-0.389h0.447    c0.02,0.047,0.038,0.106,0.053,0.178s0.029,0.15,0.04,0.237s0.019,0.181,0.024,0.279s0.007,0.198,0.007,0.3v0.163    c0.084-0.236,0.167-0.433,0.248-0.587c0.081-0.155,0.162-0.279,0.242-0.371c0.08-0.093,0.161-0.157,0.242-0.193    c0.081-0.037,0.164-0.057,0.248-0.057c0.063,0,0.121,0.006,0.174,0.018c0.053,0.012,0.107,0.031,0.161,0.059l-0.074,0.465    c-0.048-0.02-0.09-0.033-0.126-0.039c-0.037-0.008-0.082-0.011-0.134-0.011c-0.068,0-0.139,0.028-0.213,0.087    c-0.075,0.058-0.148,0.135-0.22,0.23s-0.14,0.203-0.205,0.324c-0.065,0.121-0.122,0.244-0.17,0.371s-0.087,0.25-0.117,0.371    c-0.029,0.121-0.043,0.229-0.043,0.322c0,0.041,0,0.08,0.001,0.115s0.003,0.069,0.007,0.102c0.004,0.033,0.01,0.066,0.016,0.099    c0.007,0.032,0.015,0.067,0.025,0.104H62.55z"/>
		<path class="st13" d="M65.9,61.363c0.166,0,0.309,0.021,0.428,0.06c0.12,0.04,0.226,0.091,0.317,0.155l-0.087,0.453    c-0.113-0.084-0.225-0.147-0.335-0.189s-0.23-0.063-0.36-0.063c-0.111,0-0.214,0.021-0.309,0.064    c-0.095,0.042-0.178,0.104-0.248,0.185c-0.07,0.08-0.125,0.179-0.165,0.297c-0.04,0.117-0.06,0.249-0.06,0.397    c0,0.136,0.018,0.259,0.055,0.369c0.036,0.111,0.088,0.207,0.156,0.286s0.15,0.142,0.246,0.185    c0.096,0.044,0.205,0.066,0.325,0.066c0.151,0,0.287-0.027,0.41-0.078c0.123-0.053,0.238-0.127,0.348-0.225l0.049,0.44    c-0.063,0.049-0.125,0.091-0.187,0.124c-0.063,0.035-0.127,0.063-0.195,0.086c-0.068,0.023-0.141,0.039-0.218,0.051    c-0.078,0.011-0.163,0.016-0.255,0.016c-0.167,0-0.324-0.029-0.469-0.089c-0.146-0.06-0.273-0.146-0.382-0.258    s-0.195-0.249-0.258-0.407c-0.063-0.16-0.094-0.34-0.094-0.541c0-0.189,0.03-0.369,0.091-0.536c0.06-0.168,0.146-0.314,0.258-0.44    s0.248-0.225,0.407-0.299C65.525,61.4,65.704,61.363,65.9,61.363z"/>
		<path class="st13" d="M68.333,61.363c0.136,0,0.256,0.018,0.36,0.05c0.104,0.032,0.194,0.077,0.271,0.136    c0.076,0.058,0.14,0.125,0.191,0.203c0.051,0.076,0.092,0.16,0.123,0.248c0.031,0.09,0.053,0.182,0.066,0.278    s0.02,0.192,0.02,0.286v0.098c0,0.042-0.001,0.074-0.002,0.098h-1.76c0.005,0.148,0.028,0.276,0.068,0.385    c0.041,0.109,0.096,0.199,0.167,0.271c0.07,0.07,0.153,0.124,0.248,0.159c0.095,0.036,0.199,0.054,0.312,0.054    c0.161,0,0.318-0.02,0.472-0.057c0.154-0.036,0.307-0.102,0.459-0.195l0.049,0.415c-0.087,0.045-0.174,0.083-0.258,0.116    c-0.084,0.031-0.169,0.057-0.253,0.077s-0.17,0.035-0.257,0.044c-0.087,0.01-0.178,0.014-0.274,0.014    c-0.159,0-0.31-0.027-0.454-0.084s-0.271-0.139-0.38-0.249s-0.196-0.246-0.261-0.409c-0.064-0.162-0.097-0.352-0.097-0.566    c0-0.207,0.028-0.396,0.083-0.564c0.056-0.168,0.135-0.313,0.237-0.433s0.228-0.212,0.375-0.276    C67.984,61.396,68.149,61.363,68.333,61.363z M68.296,61.741c-0.182,0-0.331,0.054-0.447,0.162s-0.192,0.276-0.229,0.505h1.296    c0-0.107-0.016-0.203-0.046-0.285c-0.031-0.084-0.074-0.154-0.129-0.211c-0.055-0.057-0.121-0.1-0.197-0.128    S68.385,61.741,68.296,61.741z"/>
	</g>
	<g class="st5">
		<path class="st13" d="M59.443,68.927l-0.305-0.364c0.256-0.164,0.48-0.363,0.672-0.598c0.192-0.234,0.32-0.475,0.385-0.721    c-0.157,0.099-0.341,0.148-0.553,0.148c-0.265,0-0.492-0.1-0.682-0.3s-0.284-0.439-0.284-0.72c0-0.291,0.101-0.539,0.303-0.742    c0.202-0.203,0.449-0.305,0.74-0.305c0.328,0,0.596,0.121,0.804,0.36s0.313,0.548,0.313,0.923c0,0.426-0.131,0.857-0.392,1.293    C60.182,68.337,59.849,68.679,59.443,68.927z M60.292,66.743c0.02-0.134,0.03-0.222,0.03-0.262c0-0.203-0.056-0.369-0.167-0.498    c-0.112-0.13-0.255-0.194-0.431-0.194c-0.16,0-0.293,0.056-0.398,0.166c-0.105,0.109-0.158,0.247-0.158,0.413    c0,0.153,0.057,0.284,0.171,0.396c0.114,0.11,0.25,0.166,0.409,0.166C59.934,66.93,60.115,66.867,60.292,66.743z"/>
		<path class="st13" d="M61.278,66.314c0-0.274,0.102-0.508,0.305-0.699c0.204-0.193,0.453-0.289,0.748-0.289    c0.29,0,0.534,0.096,0.733,0.285c0.199,0.191,0.299,0.426,0.299,0.703c0,0.313-0.144,0.572-0.432,0.777    c0.321,0.188,0.481,0.465,0.481,0.83c0,0.291-0.104,0.531-0.313,0.721s-0.472,0.284-0.79,0.284c-0.314,0-0.578-0.097-0.792-0.29    c-0.213-0.194-0.32-0.434-0.32-0.719c0-0.357,0.164-0.633,0.491-0.826c-0.147-0.121-0.253-0.241-0.316-0.361    C61.31,66.611,61.278,66.473,61.278,66.314z M62.911,67.943v-0.051c0-0.16-0.057-0.292-0.17-0.394s-0.26-0.151-0.44-0.151    c-0.177,0-0.322,0.051-0.433,0.152c-0.112,0.103-0.168,0.235-0.168,0.398c0,0.162,0.057,0.295,0.171,0.396    c0.114,0.104,0.262,0.154,0.444,0.154c0.174,0,0.316-0.047,0.428-0.141S62.911,68.093,62.911,67.943z M62.869,66.33    c0-0.152-0.052-0.277-0.155-0.377s-0.234-0.148-0.394-0.148c-0.16,0-0.292,0.049-0.395,0.146    c-0.103,0.097-0.154,0.222-0.154,0.375c0,0.145,0.054,0.27,0.163,0.374s0.239,0.156,0.391,0.156c0.151,0,0.279-0.052,0.385-0.155    C62.816,66.599,62.869,66.475,62.869,66.33z"/>
		<path class="st13" d="M65.887,65.332c0.213,0,0.396,0.076,0.546,0.23c0.15,0.154,0.226,0.34,0.226,0.557    c0,0.215-0.076,0.399-0.227,0.554s-0.333,0.231-0.545,0.231s-0.393-0.077-0.545-0.231c-0.151-0.154-0.227-0.339-0.227-0.554    c0-0.217,0.075-0.402,0.226-0.557C65.492,65.408,65.674,65.332,65.887,65.332z M67.644,65.322h0.383l-2.28,3.604h-0.383    L67.644,65.322z M65.881,65.714c-0.111,0-0.205,0.04-0.284,0.119c-0.078,0.079-0.117,0.175-0.117,0.288    c0,0.109,0.04,0.204,0.119,0.283c0.079,0.078,0.173,0.117,0.282,0.117c0.11,0,0.205-0.039,0.283-0.117    c0.078-0.079,0.118-0.174,0.118-0.283c0-0.114-0.039-0.211-0.117-0.289C66.088,65.754,65.993,65.714,65.881,65.714z     M67.524,67.357c0.211,0,0.393,0.076,0.545,0.23c0.152,0.152,0.228,0.337,0.228,0.552c0,0.214-0.076,0.397-0.227,0.547    c-0.151,0.15-0.333,0.226-0.546,0.226c-0.215,0-0.398-0.075-0.549-0.226c-0.151-0.149-0.227-0.333-0.227-0.547    c0-0.216,0.076-0.401,0.228-0.554C67.129,67.434,67.311,67.357,67.524,67.357z M67.52,67.739c-0.109,0-0.202,0.04-0.278,0.118    s-0.115,0.173-0.115,0.283c0,0.112,0.039,0.208,0.115,0.287c0.077,0.08,0.169,0.119,0.278,0.119c0.112,0,0.207-0.039,0.285-0.117    c0.077-0.079,0.116-0.176,0.116-0.289c0-0.111-0.039-0.207-0.116-0.285C67.727,67.778,67.632,67.739,67.52,67.739z"/>
	</g>
	<g class="st5">
		<path class="st13" d="M20.102,60.84h1.427v0.164h-0.603c-0.131,0-0.221,0.042-0.268,0.127c-0.026,0.047-0.04,0.109-0.04,0.185    v4.62c0,0.102,0.015,0.178,0.043,0.228c0.049,0.087,0.146,0.131,0.288,0.131h0.58v0.175h-1.427V60.84z"/>
		<path class="st13" d="M23.513,64.143c0,0.574,0.172,0.924,0.515,1.048c0.142,0.052,0.293,0.077,0.455,0.077    c0.456-0.043,0.684-0.273,0.684-0.693v-1.586c0-0.219-0.074-0.374-0.224-0.467c-0.095-0.043-0.192-0.094-0.291-0.152    c0-0.025,0.073-0.05,0.22-0.072c0.096-0.012,0.192-0.025,0.288-0.039c0.015-0.003,0.086-0.025,0.214-0.064    c0.096-0.029,0.165-0.044,0.207-0.044c0.01,0.005,0.015,0.032,0.015,0.082c0,0.026-0.001,0.064-0.004,0.116    c-0.002,0.053-0.004,0.092-0.004,0.117v2.164c0,0.357,0.117,0.536,0.353,0.536c0.015,0,0.039-0.001,0.07-0.003    c0.031-0.002,0.055-0.004,0.072-0.004c0.044,0,0.067,0.027,0.068,0.082c-0.004,0.014-0.122,0.042-0.353,0.086    c-0.231,0.043-0.378,0.065-0.439,0.065c-0.044-0.028-0.108-0.122-0.19-0.282c-0.032,0-0.063,0.024-0.091,0.072    c-0.038,0.063-0.063,0.1-0.075,0.111c-0.128,0.105-0.344,0.173-0.647,0.201c-0.427,0-0.781-0.131-1.061-0.393    c-0.147-0.138-0.22-0.311-0.22-0.52v-1.533c0-0.26-0.077-0.43-0.23-0.509c-0.063-0.026-0.126-0.054-0.189-0.081    c-0.096-0.044-0.144-0.078-0.144-0.104c0-0.012,0.083-0.024,0.25-0.04c0.192-0.017,0.294-0.026,0.306-0.028    c0.31-0.07,0.455-0.104,0.434-0.104c0.028,0.016,0.042,0.036,0.042,0.062c0,0.018-0.003,0.041-0.011,0.072    s-0.011,0.056-0.011,0.072c0,0.129,0,0.307-0.002,0.533L23.513,64.143z"/>
		<path class="st13" d="M28.55,66.469h-1.43v-0.168h0.606c0.203,0,0.304-0.104,0.304-0.309v-4.623c0-0.236-0.109-0.355-0.328-0.355    H27.12V60.84h1.43V66.469z"/>
	</g>
	<g class="st5">
		<path class="st14" d="M62.514,8.375c0,0.503-0.074,0.953-0.221,1.35s-0.343,0.733-0.587,1.009s-0.522,0.486-0.833,0.631    c-0.312,0.146-0.633,0.218-0.964,0.218c-0.334,0-0.654-0.069-0.96-0.206c-0.306-0.137-0.577-0.338-0.811-0.604    s-0.422-0.592-0.563-0.979s-0.211-0.833-0.211-1.335c0-0.335,0.034-0.647,0.101-0.935c0.068-0.288,0.162-0.551,0.282-0.789    c0.12-0.237,0.263-0.449,0.428-0.633c0.165-0.184,0.345-0.339,0.54-0.465c0.194-0.125,0.4-0.221,0.617-0.287    c0.216-0.066,0.437-0.099,0.66-0.099c0.328,0,0.645,0.068,0.95,0.206c0.305,0.137,0.573,0.338,0.807,0.604    c0.233,0.266,0.419,0.592,0.559,0.979C62.444,7.427,62.514,7.872,62.514,8.375z M61.707,8.48c0-0.386-0.042-0.733-0.126-1.042    c-0.084-0.309-0.204-0.571-0.358-0.787c-0.154-0.215-0.34-0.38-0.557-0.495c-0.216-0.115-0.456-0.172-0.718-0.172    c-0.262,0-0.502,0.055-0.72,0.166s-0.405,0.269-0.563,0.474C58.509,6.83,58.387,7.079,58.3,7.371    c-0.087,0.292-0.13,0.62-0.13,0.983c0,0.383,0.042,0.729,0.126,1.036c0.084,0.308,0.204,0.57,0.36,0.786    c0.156,0.217,0.342,0.383,0.561,0.499c0.218,0.116,0.462,0.174,0.732,0.174c0.254,0,0.488-0.054,0.704-0.162    c0.215-0.107,0.4-0.263,0.556-0.465s0.278-0.451,0.366-0.744C61.663,9.184,61.707,8.852,61.707,8.48z"/>
		<path class="st14" d="M68.202,5.356c-0.027,0.167-0.045,0.405-0.052,0.71c-0.007,0.306-0.01,0.677-0.01,1.114v2.138    c0,0.341-0.044,0.651-0.132,0.929c-0.088,0.278-0.223,0.517-0.403,0.715c-0.181,0.198-0.409,0.352-0.685,0.459    c-0.276,0.107-0.6,0.162-0.972,0.162c-0.378,0-0.706-0.054-0.983-0.162c-0.277-0.107-0.507-0.261-0.688-0.459    c-0.182-0.199-0.318-0.437-0.408-0.715c-0.09-0.278-0.134-0.587-0.134-0.929V7.18c0-0.414-0.003-0.779-0.01-1.097    c-0.007-0.317-0.024-0.56-0.052-0.728h0.848V9.13c0,0.274,0.023,0.521,0.07,0.74c0.047,0.219,0.125,0.407,0.236,0.562    c0.11,0.155,0.256,0.274,0.438,0.356c0.182,0.083,0.409,0.124,0.683,0.124c0.267,0,0.491-0.042,0.67-0.124    c0.179-0.082,0.323-0.201,0.433-0.356c0.109-0.155,0.187-0.342,0.233-0.562c0.047-0.22,0.07-0.466,0.07-0.74V5.356H68.202z"/>
	</g>
	<g class="st5">
		<path class="st14" d="M25.221,28.958c0-1.515,0.226-2.856,0.677-4.024c0.452-1.168,1.06-2.154,1.825-2.958    s1.656-1.412,2.676-1.823c1.019-0.411,2.103-0.617,3.25-0.617c1.193,0,2.285,0.206,3.275,0.617    c0.99,0.411,1.842,1.019,2.554,1.823s1.265,1.791,1.659,2.958c0.394,1.168,0.591,2.51,0.591,4.024s-0.226,2.853-0.678,4.016    c-0.452,1.162-1.06,2.137-1.824,2.923c-0.765,0.787-1.657,1.383-2.676,1.788c-1.019,0.404-2.102,0.607-3.249,0.607    c-1.193,0-2.285-0.203-3.275-0.607c-0.99-0.405-1.842-1.001-2.554-1.788c-0.712-0.786-1.266-1.761-1.659-2.923    C25.417,31.812,25.221,30.473,25.221,28.958z M28.435,28.958c0,1.021,0.122,1.938,0.365,2.748s0.588,1.494,1.034,2.052    c0.446,0.558,0.976,0.983,1.59,1.277c0.614,0.293,1.297,0.44,2.05,0.44c0.695,0,1.349-0.147,1.963-0.44    c0.614-0.293,1.149-0.719,1.607-1.277c0.458-0.558,0.816-1.242,1.077-2.052s0.391-1.726,0.391-2.748    c0-1.033-0.122-1.958-0.365-2.774c-0.243-0.816-0.588-1.508-1.034-2.078c-0.446-0.569-0.979-1.004-1.599-1.303    s-1.3-0.449-2.042-0.449c-0.707,0-1.367,0.15-1.981,0.449c-0.614,0.299-1.147,0.734-1.599,1.303    c-0.452,0.57-0.808,1.262-1.068,2.078C28.565,27.001,28.435,27.926,28.435,28.958z"/>
		<path class="st14" d="M51.632,38.293c-3.707,0-5.56-2.524-5.56-7.573v-5.195c0-0.563-0.003-1.074-0.009-1.532    s-0.021-0.901-0.043-1.33c-0.023-0.429-0.058-0.866-0.104-1.313c-0.046-0.446-0.11-0.933-0.191-1.461h3.562v9.774    c0,0.998,0.049,1.858,0.148,2.58c0.098,0.722,0.263,1.315,0.495,1.779c0.231,0.464,0.536,0.808,0.912,1.03    c0.376,0.223,0.843,0.334,1.399,0.334c0.509,0,1.054-0.155,1.633-0.466c0.579-0.311,1.132-0.708,1.659-1.189    c0.527-0.481,1.008-1.013,1.442-1.594c0.434-0.582,0.767-1.142,0.999-1.682v-4.931c0-0.575-0.003-1.095-0.009-1.559    s-0.021-0.907-0.043-1.33c-0.023-0.422-0.058-0.851-0.104-1.286c-0.046-0.434-0.11-0.921-0.191-1.461h3.562v10.039    c0,1.714,0.096,3.214,0.287,4.5c0.191,1.286,0.472,2.427,0.843,3.425h-2.954c-0.082-0.2-0.168-0.435-0.261-0.704    c-0.093-0.271-0.183-0.559-0.27-0.863c-0.087-0.305-0.168-0.625-0.243-0.96s-0.136-0.666-0.182-0.995    c-1.055,1.303-2.141,2.289-3.258,2.959C54.033,37.958,52.859,38.293,51.632,38.293z"/>
	</g>
	<g class="st5">
		<path class="st10" d="M35.751,48.264c0,0.162,0.002,0.352,0.007,0.568c0.005,0.219,0.012,0.44,0.02,0.665    c0.008,0.225,0.018,0.439,0.03,0.644c0.011,0.205,0.025,0.376,0.042,0.514h-1.018v-5.686c0-0.49-0.008-0.934-0.025-1.332    c-0.017-0.396-0.042-0.742-0.075-1.033h1.018V48.264z"/>
	</g>
	<g class="st5">
		<path class="st14" d="M37.242,47.477c0-0.541,0.081-1.02,0.242-1.438c0.162-0.417,0.379-0.77,0.652-1.057    c0.273-0.287,0.592-0.504,0.956-0.651c0.364-0.146,0.751-0.22,1.161-0.22c0.426,0,0.816,0.073,1.17,0.22    c0.354,0.147,0.658,0.364,0.912,0.651c0.255,0.287,0.452,0.64,0.593,1.057c0.141,0.418,0.211,0.896,0.211,1.438    s-0.081,1.02-0.242,1.436c-0.162,0.414-0.379,0.763-0.652,1.044c-0.273,0.28-0.592,0.493-0.956,0.639    c-0.364,0.145-0.751,0.217-1.161,0.217c-0.426,0-0.816-0.072-1.17-0.217c-0.354-0.146-0.658-0.358-0.913-0.639    c-0.254-0.281-0.452-0.63-0.593-1.044C37.312,48.496,37.242,48.018,37.242,47.477z M38.39,47.477c0,0.365,0.043,0.692,0.13,0.982    c0.087,0.289,0.21,0.533,0.37,0.732s0.349,0.352,0.568,0.456s0.463,0.157,0.732,0.157c0.249,0,0.482-0.053,0.702-0.157    c0.219-0.104,0.411-0.257,0.574-0.456c0.163-0.199,0.292-0.443,0.385-0.732c0.093-0.29,0.14-0.617,0.14-0.982    c0-0.369-0.043-0.699-0.13-0.99s-0.21-0.539-0.37-0.742c-0.159-0.203-0.35-0.359-0.571-0.466    c-0.222-0.106-0.465-0.161-0.729-0.161c-0.252,0-0.488,0.055-0.708,0.161s-0.41,0.263-0.571,0.466    c-0.161,0.203-0.289,0.451-0.381,0.742C38.437,46.777,38.39,47.107,38.39,47.477z"/>
	</g>
	<g class="st5">
		<path class="st14" d="M46.506,50.812c-1.324,0-1.986-0.901-1.986-2.706V46.25c0-0.201-0.001-0.384-0.003-0.547    c-0.002-0.164-0.007-0.322-0.016-0.475c-0.008-0.154-0.021-0.311-0.037-0.469c-0.017-0.16-0.04-0.334-0.068-0.523h1.272v3.492    c0,0.357,0.018,0.664,0.053,0.922s0.094,0.47,0.177,0.635c0.083,0.166,0.191,0.289,0.326,0.369s0.301,0.119,0.5,0.119    c0.182,0,0.376-0.056,0.583-0.166c0.207-0.111,0.405-0.254,0.593-0.426c0.188-0.172,0.36-0.361,0.516-0.568    c0.155-0.208,0.274-0.408,0.357-0.602V46.25c0-0.205-0.001-0.391-0.003-0.557s-0.007-0.324-0.016-0.475    c-0.008-0.151-0.021-0.305-0.037-0.459c-0.017-0.156-0.04-0.33-0.068-0.523h1.272v3.587c0,0.612,0.034,1.147,0.103,1.607    c0.068,0.459,0.168,0.867,0.301,1.224h-1.055c-0.029-0.071-0.06-0.155-0.093-0.252c-0.033-0.096-0.065-0.199-0.096-0.309    c-0.031-0.108-0.06-0.223-0.087-0.342c-0.027-0.12-0.049-0.238-0.065-0.355c-0.376,0.465-0.764,0.817-1.164,1.057    C47.364,50.691,46.945,50.812,46.506,50.812z"/>
	</g>
	<g class="st15">
		<path class="st11" d="M51.628,48.214c0-0.312-0.002-0.602-0.007-0.868s-0.016-0.512-0.032-0.734    c-0.017-0.223-0.042-0.426-0.075-0.606s-0.078-0.343-0.134-0.483h0.894c0.036,0.088,0.073,0.211,0.109,0.37    c0.037,0.159,0.066,0.354,0.089,0.587c0.116-0.154,0.243-0.298,0.38-0.428c0.137-0.131,0.283-0.243,0.437-0.336    c0.154-0.092,0.316-0.164,0.486-0.216s0.349-0.078,0.534-0.078c0.281,0,0.539,0.063,0.772,0.188    c0.233,0.126,0.432,0.303,0.596,0.529c0.164,0.227,0.292,0.494,0.382,0.805c0.091,0.311,0.137,0.65,0.137,1.02    c0,0.429-0.06,0.816-0.179,1.164s-0.281,0.644-0.484,0.889c-0.204,0.244-0.443,0.434-0.718,0.566    c-0.274,0.132-0.567,0.198-0.878,0.198c-0.132,0-0.257-0.014-0.375-0.04c-0.118-0.027-0.231-0.064-0.342-0.111    c-0.111-0.047-0.221-0.104-0.331-0.174c-0.109-0.068-0.223-0.145-0.342-0.229v1.183c0,0.201,0.002,0.384,0.007,0.546    s0.013,0.313,0.022,0.45s0.023,0.265,0.04,0.38s0.035,0.228,0.055,0.335h-1.042V48.214z M53.937,49.949    c0.175,0,0.343-0.041,0.504-0.125c0.16-0.084,0.303-0.205,0.427-0.365c0.124-0.159,0.224-0.352,0.298-0.578    c0.075-0.227,0.112-0.482,0.112-0.768c0-0.278-0.026-0.531-0.077-0.758s-0.126-0.419-0.226-0.578c-0.1-0.16-0.219-0.283-0.36-0.37    c-0.141-0.087-0.301-0.131-0.479-0.131c-0.142,0-0.288,0.032-0.437,0.096s-0.294,0.157-0.435,0.282    c-0.141,0.123-0.272,0.279-0.395,0.465c-0.123,0.187-0.23,0.4-0.323,0.642v1.585c0.169,0.121,0.315,0.221,0.439,0.3    s0.237,0.141,0.34,0.187c0.103,0.045,0.201,0.076,0.295,0.093S53.821,49.949,53.937,49.949z"/>
	</g>
	<g class="st5">
		<path class="st14" d="M23.61,7.545c0.22,0.073,0.377,0.188,0.472,0.344c0.066,0.196,0.107,0.338,0.124,0.428    c0.033,0.196,0.049,0.364,0.049,0.503c0,0.134-0.011,0.268-0.033,0.402c0.061,0.062,0.135,0.115,0.223,0.16    c0.077,0.044,0.149,0.067,0.215,0.067c0.083,0,0.143-0.045,0.182-0.134l0.124,0.269c-0.083,0.106-0.18,0.159-0.29,0.159    c-0.083,0-0.174-0.028-0.273-0.084c-0.094-0.028-0.171-0.089-0.231-0.184c-0.116,0.587-0.353,1.006-0.711,1.258    c-0.287,0.196-0.637,0.293-1.051,0.293c-0.486,0-0.872-0.198-1.159-0.595c-0.281-0.358-0.422-0.774-0.422-1.25    c0-0.581,0.154-1.084,0.463-1.509c0.303-0.408,0.714-0.612,1.233-0.612C23.033,7.059,23.395,7.221,23.61,7.545z M22.807,10.707    c0.248,0,0.48-0.112,0.695-0.335c0.226-0.246,0.378-0.579,0.455-0.998c-0.259-0.173-0.458-0.333-0.596-0.478    c-0.198-0.19-0.317-0.38-0.355-0.57c-0.017-0.039-0.025-0.106-0.025-0.201c0-0.106,0.027-0.224,0.083-0.352    c0.061-0.106,0.16-0.176,0.298-0.21c-0.132-0.145-0.328-0.218-0.587-0.218c-0.309,0-0.568,0.188-0.778,0.562    c-0.198,0.402-0.298,0.808-0.298,1.216s0.091,0.758,0.273,1.048C22.165,10.528,22.443,10.707,22.807,10.707z M24.015,9.08    c0.017-0.117,0.025-0.237,0.025-0.36c0-0.218-0.039-0.425-0.116-0.621c-0.094-0.207-0.188-0.311-0.282-0.311    c-0.027,0-0.058,0.011-0.091,0.034c-0.077,0.045-0.116,0.146-0.116,0.302c0,0.168,0.061,0.341,0.182,0.52    C23.728,8.845,23.861,8.991,24.015,9.08z"/>
		<path class="st14" d="M27.623,10.38c-0.425,0.437-0.855,0.654-1.291,0.654c-0.513,0-0.872-0.081-1.076-0.243    c-0.281-0.201-0.422-0.551-0.422-1.048V7.101h0.77v2.348c0,0.347,0.039,0.632,0.116,0.855c0.116,0.335,0.328,0.503,0.637,0.503    c0.188,0,0.392-0.064,0.612-0.193c0.199-0.117,0.402-0.291,0.612-0.52V9.894V7.101h0.786v2.6c0,0.347,0.014,0.604,0.041,0.771    c0.033,0.179,0.127,0.269,0.282,0.269c0.094,0,0.187-0.098,0.281-0.293c0.005-0.011,0.149-0.389,0.43-1.132l0.124,0.277    c-0.188,0.554-0.309,0.892-0.364,1.015c-0.154,0.28-0.358,0.422-0.612,0.428C28.003,11.034,27.694,10.816,27.623,10.38z"/>
	</g>
	<g class="st15">
		<path class="st12" d="M122.377,30.234v-3.791c0-0.362-0.002-0.68-0.006-0.951c-0.005-0.272-0.02-0.48-0.043-0.625h0.662v3.351    l1.34-1.406h0.828l-1.639,1.5l1.737,1.922h-0.812l-1.455-1.745v1.745H122.377z"/>
	</g>
	<g class="st5">
		<path class="st10" d="M125.863,25.722c0-0.063,0.01-0.121,0.03-0.176c0.02-0.055,0.048-0.103,0.084-0.145    c0.036-0.041,0.08-0.074,0.131-0.097s0.106-0.035,0.169-0.035c0.062,0,0.119,0.012,0.172,0.035s0.098,0.056,0.136,0.097    c0.038,0.042,0.067,0.09,0.089,0.145c0.022,0.055,0.033,0.113,0.033,0.176c0,0.063-0.011,0.122-0.033,0.176    c-0.021,0.055-0.051,0.103-0.089,0.145c-0.038,0.041-0.083,0.074-0.136,0.097s-0.11,0.035-0.172,0.035    c-0.063,0-0.118-0.012-0.169-0.035s-0.095-0.056-0.131-0.097c-0.036-0.042-0.064-0.09-0.084-0.145    C125.873,25.843,125.863,25.785,125.863,25.722z M126.592,28.641c0,0.107,0.002,0.234,0.005,0.38s0.008,0.295,0.013,0.445    c0.006,0.15,0.013,0.293,0.021,0.429c0.008,0.137,0.017,0.25,0.028,0.339h-0.679v-1.778c0-0.164-0.001-0.324-0.002-0.483    c-0.001-0.159-0.003-0.309-0.007-0.451c-0.003-0.142-0.008-0.274-0.015-0.396c-0.007-0.122-0.015-0.227-0.026-0.314h0.662V28.641z    "/>
	</g>
	<g class="st5">
		<path class="st7" d="M130.742,25.957l1.075,3.376l0.868-3.376h0.766c-0.049,0.16-0.093,0.303-0.13,0.43    c-0.038,0.127-0.073,0.249-0.105,0.365c-0.033,0.116-0.065,0.229-0.098,0.339c-0.032,0.111-0.065,0.229-0.101,0.354l-0.766,2.789    h-0.786l-1.034-3.292l-1.035,3.292h-0.785l-0.766-2.789c-0.03-0.112-0.062-0.222-0.094-0.331c-0.031-0.109-0.064-0.222-0.099-0.34    c-0.034-0.117-0.071-0.243-0.11-0.377c-0.038-0.134-0.082-0.281-0.132-0.44h0.766l0.868,3.376l1.076-3.376H130.742z"/>
	</g>
	<g class="st5">
		<path class="st10" d="M134.15,25.722c0-0.063,0.01-0.121,0.03-0.176c0.02-0.055,0.048-0.103,0.084-0.145    c0.036-0.041,0.08-0.074,0.131-0.097s0.106-0.035,0.169-0.035c0.062,0,0.119,0.012,0.172,0.035s0.098,0.056,0.136,0.097    c0.038,0.042,0.067,0.09,0.089,0.145c0.022,0.055,0.033,0.113,0.033,0.176c0,0.063-0.011,0.122-0.033,0.176    c-0.021,0.055-0.051,0.103-0.089,0.145c-0.038,0.041-0.083,0.074-0.136,0.097s-0.11,0.035-0.172,0.035    c-0.063,0-0.118-0.012-0.169-0.035s-0.095-0.056-0.131-0.097c-0.036-0.042-0.064-0.09-0.084-0.145    C134.16,25.843,134.15,25.785,134.15,25.722z M134.879,28.641c0,0.107,0.002,0.234,0.005,0.38s0.008,0.295,0.013,0.445    c0.006,0.15,0.013,0.293,0.021,0.429c0.008,0.137,0.017,0.25,0.028,0.339h-0.679v-1.778c0-0.164-0.001-0.324-0.002-0.483    c-0.001-0.159-0.003-0.309-0.007-0.451c-0.003-0.142-0.008-0.274-0.015-0.396c-0.007-0.122-0.015-0.227-0.026-0.314h0.662V28.641z    "/>
	</g>
	<g class="st5">
		<path class="st10" d="M81.648,13.241c0.221,0,0.411,0.026,0.571,0.079c0.159,0.053,0.301,0.122,0.422,0.207l-0.116,0.604    c-0.15-0.112-0.299-0.196-0.446-0.252c-0.147-0.056-0.308-0.084-0.479-0.084c-0.148,0-0.285,0.029-0.412,0.086    c-0.127,0.057-0.238,0.139-0.332,0.247c-0.094,0.107-0.166,0.239-0.22,0.396c-0.053,0.157-0.079,0.333-0.079,0.53    c0,0.181,0.023,0.345,0.072,0.493c0.049,0.147,0.119,0.274,0.209,0.381c0.09,0.106,0.199,0.188,0.328,0.247    c0.127,0.058,0.271,0.087,0.434,0.087c0.2,0,0.383-0.035,0.545-0.104c0.164-0.069,0.318-0.169,0.464-0.298l0.066,0.587    c-0.084,0.065-0.167,0.12-0.25,0.166s-0.169,0.084-0.26,0.114s-0.188,0.052-0.291,0.067c-0.104,0.015-0.218,0.022-0.341,0.022    c-0.223,0-0.432-0.04-0.626-0.119c-0.194-0.08-0.364-0.194-0.51-0.344s-0.261-0.331-0.344-0.543    c-0.084-0.212-0.126-0.453-0.126-0.721c0-0.253,0.04-0.491,0.121-0.715c0.08-0.224,0.195-0.419,0.344-0.587    c0.148-0.168,0.33-0.3,0.543-0.397S81.387,13.241,81.648,13.241z"/>
		<path class="st10" d="M84.23,15.137c0,0.107,0.002,0.233,0.005,0.379s0.008,0.293,0.013,0.443c0.006,0.15,0.013,0.293,0.021,0.429    c0.008,0.137,0.017,0.25,0.028,0.342h-0.679v-3.791c0-0.327-0.005-0.623-0.017-0.888c-0.012-0.265-0.027-0.495-0.05-0.689h0.679    V15.137z"/>
	</g>
	<g class="st5">
		<path class="st9" d="M85.235,14.612c0-0.36,0.054-0.68,0.161-0.958s0.252-0.513,0.435-0.705s0.395-0.336,0.638-0.434    c0.242-0.098,0.5-0.146,0.773-0.146c0.283,0,0.543,0.049,0.779,0.146c0.236,0.098,0.438,0.243,0.608,0.434    c0.169,0.191,0.302,0.426,0.396,0.705s0.141,0.598,0.141,0.958c0,0.361-0.055,0.679-0.162,0.956s-0.252,0.509-0.434,0.696    c-0.183,0.187-0.395,0.329-0.638,0.425c-0.243,0.097-0.501,0.145-0.773,0.145c-0.284,0-0.544-0.048-0.78-0.145    c-0.235-0.096-0.438-0.238-0.607-0.425c-0.17-0.188-0.302-0.419-0.396-0.696S85.235,14.973,85.235,14.612z M86,14.612    c0,0.243,0.029,0.461,0.088,0.654c0.058,0.193,0.14,0.355,0.246,0.488c0.105,0.133,0.232,0.234,0.379,0.304    c0.146,0.07,0.309,0.105,0.487,0.105c0.165,0,0.321-0.035,0.468-0.105s0.273-0.171,0.383-0.304s0.194-0.295,0.256-0.488    c0.063-0.193,0.094-0.411,0.094-0.654c0-0.246-0.029-0.466-0.087-0.66s-0.14-0.359-0.247-0.495    c-0.105-0.135-0.232-0.239-0.38-0.31s-0.31-0.107-0.486-0.107c-0.168,0-0.325,0.036-0.472,0.107s-0.273,0.175-0.381,0.31    c-0.107,0.136-0.191,0.301-0.254,0.495S86,14.366,86,14.612z"/>
	</g>
	<g class="st5">
		<path class="st7" d="M93.094,12.453l1.076,3.376l0.869-3.376h0.765c-0.05,0.16-0.093,0.303-0.13,0.43    c-0.037,0.127-0.072,0.249-0.105,0.365c-0.033,0.116-0.066,0.229-0.098,0.339c-0.031,0.111-0.065,0.229-0.102,0.354l-0.766,2.789    h-0.785l-1.035-3.292L91.75,16.73h-0.787l-0.765-2.789c-0.03-0.112-0.062-0.222-0.093-0.331c-0.032-0.109-0.065-0.222-0.1-0.34    c-0.035-0.117-0.071-0.243-0.109-0.377c-0.039-0.134-0.083-0.281-0.133-0.44h0.766l0.869,3.376l1.075-3.376H93.094z"/>
	</g>
	<g>
		<path class="st10" d="M98.371,13.241c0.352,0,0.623,0.117,0.811,0.351s0.281,0.581,0.281,1.042v2.097H98.85v-1.845    c0-0.21-0.014-0.383-0.041-0.52c-0.027-0.136-0.068-0.244-0.122-0.324c-0.054-0.079-0.122-0.134-0.205-0.166    c-0.083-0.031-0.181-0.047-0.293-0.047c-0.119,0-0.235,0.029-0.349,0.085c-0.114,0.057-0.219,0.131-0.313,0.222    c-0.095,0.09-0.179,0.193-0.251,0.307c-0.073,0.114-0.127,0.229-0.162,0.342v1.946H96.5v-2.063c0-0.331-0.018-0.611-0.055-0.84    c-0.036-0.229-0.072-0.402-0.11-0.519h0.596c0.013,0.036,0.026,0.083,0.04,0.139c0.013,0.057,0.025,0.117,0.036,0.18    s0.021,0.124,0.03,0.185l0.025,0.151c0.21-0.255,0.422-0.439,0.637-0.552C97.912,13.298,98.137,13.241,98.371,13.241z"/>
		<path class="st10" d="M95.99,17.233v-0.269h3.922v0.269H95.99z"/>
	</g>
	<g class="st5">
		<path class="st11" d="M123.508,15.942c0,0.529,0.028,0.972,0.086,1.332c0.059,0.359,0.133,0.656,0.224,0.891h-0.724    c-0.014-0.036-0.033-0.086-0.059-0.151c-0.024-0.064-0.05-0.138-0.076-0.22s-0.051-0.171-0.074-0.266    c-0.023-0.095-0.043-0.19-0.061-0.285c-0.107,0.14-0.221,0.271-0.341,0.394s-0.246,0.232-0.379,0.327    c-0.132,0.095-0.271,0.17-0.413,0.224c-0.145,0.055-0.29,0.082-0.439,0.082c-0.174,0-0.346-0.038-0.519-0.113    c-0.173-0.076-0.327-0.189-0.466-0.34c-0.138-0.151-0.25-0.34-0.335-0.568c-0.085-0.228-0.128-0.496-0.128-0.803    c0-0.321,0.035-0.613,0.105-0.875c0.07-0.261,0.166-0.494,0.287-0.698c0.107-0.179,0.223-0.335,0.344-0.47    s0.254-0.246,0.398-0.333c0.146-0.088,0.305-0.154,0.479-0.199c0.174-0.044,0.367-0.067,0.579-0.067    c0.104,0,0.222,0.008,0.35,0.023s0.259,0.037,0.394,0.065c0.133,0.028,0.267,0.062,0.398,0.101    c0.133,0.039,0.256,0.081,0.369,0.126V15.942z M121.832,14.517c-0.089,0-0.178,0.01-0.268,0.031s-0.178,0.057-0.264,0.107    c-0.088,0.05-0.172,0.117-0.253,0.199s-0.158,0.187-0.229,0.313c-0.074,0.128-0.135,0.289-0.18,0.48    c-0.046,0.191-0.068,0.388-0.068,0.589c0,0.232,0.021,0.431,0.063,0.597c0.043,0.167,0.1,0.304,0.17,0.411s0.15,0.187,0.239,0.237    c0.09,0.05,0.181,0.076,0.271,0.076c0.115,0,0.242-0.037,0.379-0.109c0.137-0.072,0.27-0.169,0.398-0.289    c0.13-0.12,0.252-0.259,0.367-0.415c0.113-0.157,0.209-0.319,0.283-0.486v-1.573c-0.041-0.02-0.095-0.039-0.16-0.059    c-0.064-0.02-0.137-0.038-0.215-0.055c-0.078-0.017-0.164-0.03-0.256-0.04C122.019,14.521,121.926,14.517,121.832,14.517z"/>
	</g>
	<g class="st5">
		<path class="st9" d="M124.498,16.047c0-0.36,0.055-0.68,0.162-0.958s0.252-0.513,0.434-0.705c0.183-0.191,0.395-0.336,0.638-0.434    c0.243-0.098,0.501-0.146,0.773-0.146c0.284,0,0.544,0.049,0.78,0.146c0.235,0.098,0.438,0.243,0.607,0.434    s0.302,0.426,0.396,0.705s0.141,0.598,0.141,0.958c0,0.361-0.054,0.679-0.161,0.956s-0.252,0.509-0.435,0.696    c-0.183,0.187-0.395,0.329-0.638,0.425c-0.242,0.097-0.5,0.145-0.773,0.145c-0.283,0-0.543-0.048-0.779-0.145    c-0.236-0.096-0.438-0.238-0.608-0.425c-0.169-0.188-0.302-0.419-0.396-0.696S124.498,16.408,124.498,16.047z M125.264,16.047    c0,0.243,0.029,0.461,0.087,0.654s0.14,0.355,0.246,0.488s0.232,0.234,0.379,0.304c0.146,0.07,0.309,0.105,0.487,0.105    c0.166,0,0.322-0.035,0.469-0.105c0.146-0.07,0.273-0.171,0.383-0.304c0.108-0.133,0.193-0.295,0.256-0.488    s0.094-0.411,0.094-0.654c0-0.246-0.029-0.466-0.088-0.66c-0.058-0.194-0.14-0.359-0.246-0.495    c-0.105-0.135-0.232-0.239-0.381-0.31c-0.146-0.071-0.309-0.107-0.486-0.107c-0.168,0-0.324,0.036-0.471,0.107    s-0.273,0.175-0.381,0.31c-0.107,0.136-0.192,0.301-0.254,0.495C125.295,15.581,125.264,15.801,125.264,16.047z"/>
	</g>
	<g class="st5">
		<path class="st7" d="M130.807,18.27c-0.883,0-1.324-0.601-1.324-1.803v-1.237c0-0.134,0-0.256-0.002-0.365    c-0.002-0.109-0.005-0.214-0.01-0.316c-0.006-0.102-0.014-0.206-0.025-0.313c-0.012-0.106-0.026-0.222-0.045-0.348h0.848v2.328    c0,0.237,0.012,0.442,0.035,0.614s0.063,0.313,0.117,0.423c0.056,0.11,0.128,0.192,0.218,0.246c0.09,0.053,0.2,0.08,0.333,0.08    c0.121,0,0.251-0.037,0.389-0.111c0.139-0.074,0.27-0.168,0.396-0.283c0.126-0.114,0.239-0.241,0.343-0.379    c0.104-0.138,0.184-0.271,0.238-0.4v-1.174c0-0.137,0-0.261-0.002-0.371c-0.002-0.111-0.005-0.216-0.01-0.317    c-0.006-0.101-0.015-0.203-0.025-0.306c-0.012-0.104-0.026-0.219-0.045-0.348h0.848v2.39c0,0.408,0.022,0.766,0.068,1.072    c0.045,0.306,0.111,0.578,0.2,0.815h-0.703c-0.02-0.047-0.04-0.104-0.062-0.168c-0.022-0.064-0.044-0.132-0.064-0.205    c-0.021-0.073-0.04-0.149-0.059-0.229c-0.018-0.08-0.032-0.159-0.043-0.237c-0.251,0.311-0.51,0.545-0.775,0.705    C131.378,18.19,131.099,18.27,130.807,18.27z M129.52,13.258l1.406-1.803h0.704l1.406,1.803h-0.62l-1.139-1.174l-1.137,1.174    H129.52z"/>
	</g>
	<g>
		<path class="st10" d="M133.873,14.827h0.662v-1.09h0.613v1.09h1.075v0.486h-1.075v1.543c0,0.172,0.008,0.313,0.024,0.422    c0.017,0.11,0.042,0.195,0.076,0.257s0.077,0.104,0.13,0.125c0.054,0.022,0.117,0.034,0.193,0.034c0.094,0,0.201-0.021,0.32-0.063    s0.252-0.105,0.396-0.188v0.537c-0.151,0.101-0.297,0.17-0.436,0.21c-0.14,0.039-0.268,0.059-0.385,0.059    c-0.13,0-0.252-0.015-0.363-0.045c-0.113-0.03-0.212-0.083-0.297-0.159c-0.085-0.076-0.152-0.177-0.2-0.304    s-0.073-0.287-0.073-0.481v-1.946h-0.662V14.827z"/>
		<path class="st10" d="M133.774,18.668v-0.269h2.764v0.269H133.774z"/>
	</g>
	<g class="st5">
		<path class="st9" d="M85.896,26.929c0-0.36,0.055-0.68,0.162-0.958s0.252-0.513,0.434-0.705c0.183-0.191,0.395-0.336,0.638-0.434    c0.243-0.098,0.501-0.146,0.773-0.146c0.284,0,0.544,0.049,0.78,0.146c0.235,0.098,0.438,0.243,0.607,0.434    s0.302,0.426,0.396,0.705s0.141,0.598,0.141,0.958c0,0.361-0.054,0.679-0.161,0.956s-0.252,0.509-0.435,0.696    c-0.183,0.187-0.395,0.329-0.638,0.425c-0.242,0.097-0.5,0.145-0.773,0.145c-0.283,0-0.543-0.048-0.779-0.145    c-0.236-0.096-0.438-0.238-0.608-0.425c-0.169-0.188-0.302-0.419-0.396-0.696S85.896,27.29,85.896,26.929z M86.662,26.929    c0,0.243,0.029,0.461,0.087,0.654s0.14,0.355,0.246,0.488s0.232,0.234,0.379,0.304c0.146,0.07,0.309,0.105,0.487,0.105    c0.166,0,0.322-0.035,0.469-0.105c0.146-0.07,0.273-0.171,0.383-0.304c0.108-0.133,0.193-0.295,0.256-0.488    s0.094-0.411,0.094-0.654c0-0.246-0.029-0.466-0.088-0.66c-0.058-0.194-0.14-0.359-0.246-0.495    c-0.105-0.135-0.232-0.239-0.381-0.31c-0.146-0.071-0.309-0.107-0.486-0.107c-0.168,0-0.324,0.036-0.471,0.107    s-0.273,0.175-0.381,0.31c-0.107,0.136-0.192,0.301-0.254,0.495C86.693,26.463,86.662,26.683,86.662,26.929z"/>
	</g>
	<g class="st5">
		<path class="st7" d="M92.205,29.151c-0.883,0-1.324-0.601-1.324-1.803v-1.237c0-0.134-0.001-0.256-0.002-0.365    c-0.002-0.109-0.006-0.214-0.011-0.316c-0.006-0.102-0.014-0.206-0.024-0.313c-0.012-0.106-0.027-0.222-0.046-0.348h0.849v2.328    c0,0.237,0.012,0.442,0.035,0.614s0.063,0.313,0.117,0.423s0.127,0.192,0.217,0.246c0.09,0.053,0.201,0.08,0.334,0.08    c0.121,0,0.25-0.037,0.389-0.111c0.138-0.074,0.27-0.168,0.395-0.283c0.126-0.114,0.24-0.241,0.344-0.379    c0.104-0.138,0.183-0.271,0.238-0.4v-1.174c0-0.137-0.001-0.261-0.002-0.371c-0.002-0.111-0.006-0.216-0.011-0.317    c-0.006-0.101-0.015-0.203-0.024-0.306c-0.012-0.104-0.027-0.219-0.046-0.348h0.849v2.39c0,0.408,0.021,0.766,0.067,1.072    s0.112,0.578,0.2,0.815h-0.703c-0.02-0.047-0.039-0.104-0.062-0.168c-0.022-0.064-0.044-0.132-0.064-0.205    s-0.04-0.149-0.058-0.229c-0.018-0.08-0.033-0.159-0.043-0.237c-0.252,0.311-0.51,0.545-0.776,0.705    C92.775,29.072,92.496,29.151,92.205,29.151z M92.014,22.337l1.448,1.803h-0.661l-1.738-1.803H92.014z"/>
	</g>
	<path class="st14" d="M90.9,18.5c0,0.6-0.5,1.1-1.1,1.1s-1.1-0.5-1.1-1.1s0.5-1.1,1.1-1.1C90.4,17.3,90.9,17.8,90.9,18.5z"/>
	<g>
		<ellipse class="st14" cx="89" cy="31.1" rx="1.1" ry="1.1"/>
		<path class="st14" d="M93.4,31.1c0,0.6-0.5,1.1-1.1,1.1s-1.1-0.5-1.1-1.1s0.5-1.1,1.1-1.1S93.4,30.5,93.4,31.1z"/>
	</g>
	<g>
		<path class="st16" d="M18.5,37.8"/>
		<path class="st17" d="M3.8,51.8c0-0.2,0.9-1.1,1.3-1.2L5,48.9l-0.3,1.2C4.5,50.4,3.8,51.8,3.8,51.8"/>
		<path class="st16" d="M21,51.7"/>
		<path class="st16" d="M3.2,50.9c-0.6,0-0.9,0.4-1,0.8"/>
		<path class="st16" d="M3.4,51.3c0,0-0.7,0.1-0.7,0.6"/>
		<path class="st16" d="M4.8,51.5c0,0-0.6,0.2-0.5,0.9"/>
		<path class="st16" d="M5.5,51.6c0,0-0.7,0.2-0.5,1"/>
		<path class="st17" d="M22.4,45.8c-2.2-1.6-1.5-3.2-1.5-3.2c0.9-3-1.6-5-1.6-5c-0.9-0.8-2.1-0.9-3.2-0.8c-1.4,0.1-2.9-0.1-3.9-0.3    c-0.6-0.1-1.1-0.3-1.6-0.6c-0.4-0.3-1-0.5-1.7-0.5c-1.3,0.1-1.6-0.5-1.6-0.5C7,33.8,6,33.1,6,33.1l0.9,0.1c0.2,0,0.3-0.2,0.3-0.4    c-0.1-0.8-0.9-2.1-0.9-2.1c0.3-1.2-0.4-1.9-0.9-2.2c-0.4-0.3-0.7-0.6-1-1c-0.2-0.2-0.3-0.5-0.3-0.8C4,26,4,25.3,3.6,25.7    c-0.4,0.4-0.8,0.7-0.8,0.7l-0.1,0.9c-0.3-0.5-0.4-0.5-0.4-0.5C1,27,2.1,28.3,2.1,28.3L2,31.6c0,0-1.5,1-0.8,4.9    c0.8,4.5,2,4.8,2,4.8c-0.4,1.5,0.5,2.3,0.5,2.3s0.2,6.8-0.4,6.7s-1.1,0.6-1.1,0.6c-0.6,0.7,0.4,0.9,0.4,0.9h1.1    c-0.3,0.6,0.5,0.6,0.5,0.6l0.3,0.1c0.3,0.1,0.7,0,0.9-0.3L5.8,52c0.9-0.2,0.6-1.1,0.6-1.1l-0.2-2.5c0,0,0.4-0.2,0.4-0.7    c0-0.1-0.1-0.3-0.1-0.4c-0.4-0.8,0.1-4.2,0.1-4.2c3.6,1.7,8.1,0.1,8.1,0.1c0.1,1.6,2.9,2.9,4,3.2c0.2,0.1,0.4,0.3,0.5,0.5    c0.5,1.5,0.5,2.4,0.2,3c-0.1,0.2-0.1,0.6-0.6,0.8c-0.4,0.2-0.6,0.5-0.2,1c0.2,0.3,0.3,0.3,1,0.3c0.3,0,0.3,0,0.4,0l0,0    c0.2,0,0.3-0.1,0.3-0.3c0.1-0.6,0.3-1.8,0.3-1.9v-4.1c1.4,0.7,1.6,1.4,1.9,2.7c0.2,0.9-0.1,1.5-0.3,1.7c-0.1,0.1-0.1,0.1-0.2,0.2    c-0.6,0.2-0.9,0.4-1,0.7c0,0.4,0,0.6,0,0.7c0,0,0.1,0.2,0.3,0.3c0.3,0.1,0.4,0,0.4,0s0.1,0.1,0.3,0.1c0.2,0,0.3,0,0.3,0    s0.1,0.1,0.3,0.1l0,0c0.4,0,0.7-0.3,0.9-0.7v-0.1c0.1-0.4,0.2-0.8,0.2-1.2c0-0.2,0-0.5,0-0.7l-0.3-2.7    C23.3,46.5,22.7,46.1,22.4,45.8z"/>
		<path class="st18" d="M21.1,41.3c-0.1,4.1,3.5,4,3.5,4s0.8-1-0.3-3.5c-0.6-1.2-1.1-2.7-2.2-3.5c-1.4-1.1-3.4-1.2-3.2-1.1    C18.9,37.2,21.1,38.9,21.1,41.3z"/>
		<path class="st19" d="M20.8,45.9c0,0-2.1-0.7-2.9-1.5c0,0-0.5,0-0.8-0.7c-0.1-0.3-0.3-0.5-0.4-0.7c-0.4-0.7-0.5-1.6-0.3-2.4    c0.1-0.5,0.3-0.9,0.7-1.4"/>
		<path class="st19" d="M5.5,40.6c0,0-0.8,1.4-0.7,2.8c0.1,0.5,0.1,0.9,0.1,1.4v4.1"/>
		<path class="st19" d="M3.5,25.9c0,0,0.2,0.3,0.6,0.2"/>
		<path class="st19" d="M5.9,31.4c0,0,0.7,0.7,0.5,1.1c0,0-0.4,0.1-1-0.7"/>
		<path class="st19" d="M5,32.3c0,0,0.6,0.9,1.4,0.8"/>
		<path class="st19" d="M5.6,30.8c0,0,0.3-0.1,0.8,0"/>
		<path class="st19" d="M4.8,28.7c0,0-0.4,0.5,0.1,0.8"/>
		<path class="st20" d="M2.3,33.3c0,0-0.9,3.2,0,2.2c0,0-0.7,2.5,0.3,1.2c0,0-0.3,2.2,0.9,1.5"/>
		<path class="st20" d="M6.8,42c0.1,0,1.1,1.1,2.3,0.2c0,0,0.9,1.5,2.1,0.5"/>
		<path class="st20" d="M11.1,37.9c0,0,2.8-1.1,2.4-0.2c0,0,2.2-0.7,2,0.2c0,0,0.8-0.5,0.8-0.1"/>
		<path class="st19" d="M22.7,51.3c0,0-0.7,0.4-0.3,0.9"/>
		<path class="st19" d="M22.2,51.1c0,0-0.9,0.3-0.5,0.9"/>
		<path class="st19" d="M19.9,51.5c0,0-0.5,0.2-0.4,0.7"/>
		<path class="st19" d="M19.4,51.2c0,0-0.7,0.2-0.6,0.8"/>
		<path class="st19" d="M19,52.4"/>
		<path class="st19" d="M18.5,37.8"/>
		<path class="st21" d="M3.8,51.8c0-0.2,0.9-1.1,1.3-1.2L5,48.9l-0.3,1.2C4.5,50.4,3.8,51.8,3.8,51.8"/>
		<path class="st19" d="M21,51.7"/>
		<path class="st19" d="M3.2,50.9c-0.6,0-0.9,0.4-1,0.8"/>
		<path class="st19" d="M3.4,51.3c0,0-0.7,0.1-0.7,0.6"/>
		<path class="st19" d="M4.8,51.5c0,0-0.6,0.2-0.5,0.9"/>
		<path class="st19" d="M5.5,51.6c0,0-0.7,0.2-0.5,1"/>
		<path class="st21" d="M22.4,45.8c-2.2-1.6-1.5-3.2-1.5-3.2c0.9-3-1.6-5-1.6-5c-0.9-0.8-2.1-0.9-3.2-0.8c-1.4,0.1-2.9-0.1-3.9-0.3    c-0.6-0.1-1.1-0.3-1.6-0.6c-0.4-0.3-1-0.5-1.7-0.5c-1.3,0.1-1.6-0.5-1.6-0.5C7,33.8,6,33.1,6,33.1l0.9,0.1c0.2,0,0.3-0.2,0.3-0.4    c-0.1-0.8-0.9-2.1-0.9-2.1c0.3-1.2-0.4-1.9-0.9-2.2c-0.4-0.3-0.7-0.6-1-1c-0.2-0.2-0.3-0.5-0.3-0.8C4,26,4,25.3,3.6,25.7    c-0.4,0.4-0.8,0.7-0.8,0.7l-0.1,0.9c-0.3-0.5-0.4-0.5-0.4-0.5C1,27,2.1,28.3,2.1,28.3L2,31.6c0,0-1.5,1-0.8,4.9    c0.8,4.5,2,4.8,2,4.8c-0.4,1.5,0.5,2.3,0.5,2.3s0.2,6.8-0.4,6.7s-1.1,0.6-1.1,0.6c-0.6,0.7,0.4,0.9,0.4,0.9h1.1    c-0.3,0.6,0.5,0.6,0.5,0.6l0.3,0.1c0.3,0.1,0.7,0,0.9-0.3L5.8,52c0.9-0.2,0.6-1.1,0.6-1.1l-0.2-2.5c0,0,0.4-0.2,0.4-0.7    c0-0.1-0.1-0.3-0.1-0.4c-0.4-0.8,0.1-4.2,0.1-4.2c3.6,1.7,8.1,0.1,8.1,0.1c0.1,1.6,2.9,2.9,4,3.2c0.2,0.1,0.4,0.3,0.5,0.5    c0.5,1.5,0.5,2.4,0.2,3c-0.1,0.2-0.1,0.6-0.6,0.8c-0.4,0.2-0.6,0.5-0.2,1c0.2,0.3,0.3,0.3,1,0.3c0.3,0,0.3,0,0.4,0l0,0    c0.2,0,0.3-0.1,0.3-0.3c0.1-0.6,0.3-1.8,0.3-1.9v-4.1c1.4,0.7,1.6,1.4,1.9,2.7c0.2,0.9-0.1,1.5-0.3,1.7c-0.1,0.1-0.1,0.1-0.2,0.2    c-0.6,0.2-0.9,0.4-1,0.7c0,0.4,0,0.6,0,0.7c0,0,0.1,0.2,0.3,0.3c0.3,0.1,0.4,0,0.4,0s0.1,0.1,0.3,0.1c0.2,0,0.3,0,0.3,0    s0.1,0.1,0.3,0.1l0,0c0.4,0,0.7-0.3,0.9-0.7v-0.1c0.1-0.4,0.2-0.8,0.2-1.2c0-0.2,0-0.5,0-0.7l-0.3-2.7    C23.3,46.5,22.7,46.1,22.4,45.8z"/>
	</g>
</g>
</svg>