<?xml version="1.0" encoding="UTF-8"?>
<!-- Generator: Adobe Illustrator 24.0.2, SVG Export Plug-In . SVG Version: 6.00 Build 0)  -->
<svg version="1.1" id="Calque_1" xmlns="http://www.w3.org/2000/svg" xmlns:xlink="http://www.w3.org/1999/xlink" x="0px" y="0px" viewBox="0 0 95 70" style="enable-background:new 0 0 95 70;" xml:space="preserve">
<style type="text/css">
	.st0{fill:#FFFFFF;stroke:#9D9D9C;stroke-width:0.729;stroke-miterlimit:10;}
	.st1{fill:#FFFFFF;stroke:#000000;stroke-width:0.9721;stroke-miterlimit:10;}
	.st2{enable-background:new    ;}
	.st3{fill:#7DB728;}
	.st4{fill:#706F6F;}
	.st5{fill:none;stroke:#B2B2B2;stroke-width:0.3645;stroke-miterlimit:10;}
	.st6{fill:none;stroke:#B2B2B2;stroke-width:0.3337;stroke-miterlimit:10;}
	.st7{fill:#878787;}
	.st8{fill:#575756;}
	.st9{fill:#9D9D9C;}
	.st10{fill:#E11683;}
	.st11{fill:#B2B2B2;}
	.st12{fill:none;}
	.st13{fill:#FFFFFF;}
	.st14{fill:none;stroke:#575756;stroke-width:0.1749;stroke-linecap:round;stroke-linejoin:round;stroke-miterlimit:10;}
	.st15{fill:#575756;stroke:#575756;stroke-width:0.0857;stroke-linecap:round;stroke-linejoin:round;stroke-miterlimit:10;}
	.st16{fill:none;stroke:#575756;stroke-width:0.5247;stroke-linecap:round;stroke-linejoin:round;stroke-miterlimit:10;}
	.st17{fill:#FFFFFF;stroke:#575756;stroke-width:0.5247;stroke-linecap:round;stroke-linejoin:round;stroke-miterlimit:10;}
</style>
<g id="_x3C_Groupe_x3E__pirate">
	<rect x="56.3" y="1.2" class="st0" width="38.4" height="30.4"/>
	<path class="st1" d="M33.5,57.3h-33v-56h55.8v56h-16c0,0-5.1,9.3-13.6,11.1C26.7,68.4,31.8,65,33.5,57.3z"/>
	<g class="st2">
		<path class="st3" d="M86.354,6.529c0,0.25,0.002,0.47,0.005,0.66c0.004,0.19,0.015,0.335,0.033,0.434h-0.552    c0.019-0.101,0.028-0.246,0.032-0.437s0.006-0.41,0.006-0.658V4.747c0-0.117-0.002-0.227-0.004-0.328    c-0.003-0.102-0.007-0.192-0.012-0.273S85.851,4,85.841,3.95c0.104-0.003,0.216-0.007,0.333-0.013    c0.101-0.003,0.214-0.006,0.34-0.009c0.127-0.002,0.258-0.003,0.393-0.003c0.202,0,0.385,0.023,0.549,0.069    c0.164,0.046,0.304,0.116,0.419,0.209s0.204,0.209,0.267,0.347c0.063,0.138,0.095,0.299,0.095,0.482    c0,0.185-0.03,0.351-0.092,0.498s-0.148,0.273-0.263,0.376c-0.115,0.104-0.254,0.183-0.419,0.238    c-0.165,0.056-0.351,0.083-0.556,0.083c-0.092,0-0.187-0.002-0.283-0.006c-0.098-0.004-0.187-0.01-0.269-0.019V6.529z     M86.354,5.812c0.081,0.01,0.162,0.017,0.246,0.02c0.083,0.003,0.173,0.005,0.269,0.005c0.176,0,0.32-0.021,0.435-0.061    c0.114-0.041,0.206-0.095,0.273-0.165c0.067-0.069,0.114-0.15,0.142-0.241s0.04-0.188,0.04-0.288s-0.015-0.197-0.044-0.288    s-0.078-0.171-0.146-0.24S87.412,4.43,87.3,4.389s-0.251-0.062-0.419-0.062c-0.059,0-0.111,0-0.158,0.001    c-0.047,0-0.09,0.001-0.13,0.002c-0.04,0-0.079,0.002-0.118,0.003c-0.038,0.002-0.078,0.003-0.12,0.005V5.812z"/>
	</g>
	<g class="st2">
		<path class="st4" d="M89.345,6.529c0,0.25,0.002,0.47,0.005,0.66c0.004,0.19,0.015,0.335,0.033,0.434h-0.552    c0.019-0.101,0.028-0.246,0.032-0.437s0.006-0.41,0.006-0.658V4.747c0-0.117-0.002-0.227-0.004-0.328    c-0.003-0.102-0.007-0.192-0.012-0.273S88.841,4,88.831,3.95c0.104-0.003,0.216-0.007,0.333-0.013    c0.101-0.003,0.214-0.006,0.34-0.009c0.127-0.002,0.258-0.003,0.393-0.003c0.202,0,0.385,0.023,0.549,0.069    c0.164,0.046,0.304,0.116,0.419,0.209s0.204,0.209,0.267,0.347c0.063,0.138,0.095,0.299,0.095,0.482    c0,0.185-0.03,0.351-0.092,0.498s-0.148,0.273-0.263,0.376c-0.115,0.104-0.254,0.183-0.419,0.238    c-0.165,0.056-0.351,0.083-0.556,0.083c-0.092,0-0.187-0.002-0.283-0.006c-0.098-0.004-0.187-0.01-0.269-0.019V6.529z     M89.345,5.812c0.081,0.01,0.162,0.017,0.246,0.02c0.083,0.003,0.173,0.005,0.269,0.005c0.176,0,0.32-0.021,0.435-0.061    c0.114-0.041,0.206-0.095,0.273-0.165c0.067-0.069,0.114-0.15,0.142-0.241s0.04-0.188,0.04-0.288s-0.015-0.197-0.044-0.288    s-0.078-0.171-0.146-0.24s-0.157-0.124-0.27-0.165s-0.251-0.062-0.419-0.062c-0.059,0-0.111,0-0.158,0.001    c-0.047,0-0.09,0.001-0.13,0.002c-0.04,0-0.079,0.002-0.118,0.003c-0.038,0.002-0.078,0.003-0.12,0.005V5.812z"/>
	</g>
	<g class="st2">
		<path class="st3" d="M60.563,4.949V11.9h-0.511V5.271l-0.201,0.567l-0.076-0.18c0.012-0.037,0.027-0.087,0.049-0.153    c0.022-0.058,0.037-0.1,0.044-0.125c0.004-0.011,0.017-0.047,0.038-0.109c0.018-0.055,0.041-0.122,0.068-0.202    s0.053-0.205,0.078-0.376V4.208h0.511v0.485c0.12-0.153,0.257-0.273,0.413-0.36c0.148-0.083,0.316-0.125,0.506-0.125    c0.195,0,0.355,0.042,0.482,0.125c0.156,0.109,0.234,0.263,0.234,0.463v1.357c0,0.091,0.009,0.178,0.027,0.261    c0.021,0.105,0.077,0.158,0.168,0.158c0.087,0,0.188-0.145,0.305-0.436c0.007-0.029,0.016-0.058,0.023-0.087    c0.01-0.029,0.02-0.056,0.03-0.082c0.007-0.022,0.014-0.044,0.019-0.068c0.006-0.023,0.014-0.046,0.025-0.068    c0.029-0.095,0.047-0.153,0.055-0.174l0.086,0.169C62.88,6.02,62.831,6.17,62.791,6.279c-0.04,0.109-0.066,0.18-0.082,0.213    c-0.119,0.182-0.324,0.272-0.613,0.272c-0.119,0-0.207-0.027-0.261-0.082c-0.108-0.077-0.163-0.186-0.163-0.327V4.862    c0-0.12-0.018-0.214-0.055-0.284c-0.051-0.102-0.139-0.152-0.266-0.152s-0.266,0.051-0.418,0.152    c-0.171,0.105-0.294,0.231-0.37,0.376V4.949z"/>
	</g>
	<g class="st2">
		<path class="st4" d="M63.652,4.949V11.9h-0.51V5.271l-0.201,0.567l-0.076-0.18c0.011-0.037,0.027-0.087,0.049-0.153    c0.021-0.058,0.036-0.1,0.043-0.125c0.004-0.011,0.018-0.047,0.039-0.109c0.018-0.055,0.041-0.122,0.067-0.202    c0.027-0.08,0.054-0.205,0.079-0.376V4.208h0.51v0.485c0.12-0.153,0.258-0.273,0.414-0.36c0.148-0.083,0.316-0.125,0.505-0.125    c0.195,0,0.356,0.042,0.483,0.125c0.156,0.109,0.233,0.263,0.233,0.463v1.357c0,0.091,0.009,0.178,0.027,0.261    c0.022,0.105,0.077,0.158,0.169,0.158c0.086,0,0.188-0.145,0.304-0.436c0.007-0.029,0.016-0.058,0.024-0.087    c0.01-0.029,0.02-0.056,0.029-0.082c0.008-0.022,0.014-0.044,0.02-0.068c0.006-0.023,0.014-0.046,0.024-0.068    c0.029-0.095,0.048-0.153,0.055-0.174l0.087,0.169C65.969,6.02,65.92,6.17,65.881,6.279c-0.041,0.109-0.067,0.18-0.082,0.213    c-0.119,0.182-0.324,0.272-0.613,0.272c-0.12,0-0.207-0.027-0.262-0.082c-0.108-0.077-0.162-0.186-0.162-0.327V4.862    c0-0.12-0.019-0.214-0.055-0.284c-0.051-0.102-0.14-0.152-0.266-0.152c-0.127,0-0.267,0.051-0.419,0.152    c-0.171,0.105-0.294,0.231-0.37,0.376V4.949z"/>
	</g>
	<path class="st5" d="M12.4,53.6c0,0,4.4,2.1,9.7,0"/>
	<path class="st5" d="M33.9,53.5c0,0,4.7,2.7,9.5,0"/>
	<path class="st6" d="M23.8,53.5c0,0,4.6,2.7,9.5,0"/>
	<g class="st2">
		<path class="st7" d="M43.495,62.031v0.402H42.04v0.604c0,0.25,0.002,0.471,0.005,0.66c0.003,0.191,0.014,0.336,0.032,0.435h-0.551    c0.018-0.101,0.029-0.246,0.032-0.437s0.005-0.41,0.005-0.658v-1.824c0-0.111-0.001-0.215-0.004-0.311    c-0.002-0.095-0.006-0.18-0.011-0.255s-0.013-0.139-0.022-0.188h2.181v0.414H42.04v1.158H43.495z"/>
		<path class="st7" d="M44.247,62.861c0-0.217,0.033-0.408,0.098-0.575c0.065-0.167,0.153-0.308,0.263-0.423    c0.11-0.114,0.239-0.201,0.386-0.26s0.303-0.088,0.469-0.088c0.172,0,0.33,0.029,0.473,0.088c0.143,0.059,0.266,0.146,0.369,0.26    c0.103,0.115,0.183,0.256,0.24,0.423c0.057,0.167,0.085,0.358,0.085,0.575s-0.032,0.408-0.098,0.574s-0.153,0.305-0.263,0.417    s-0.239,0.198-0.386,0.255c-0.147,0.059-0.303,0.088-0.469,0.088c-0.172,0-0.33-0.029-0.473-0.088    c-0.143-0.057-0.266-0.143-0.369-0.255c-0.103-0.112-0.183-0.251-0.24-0.417C44.275,63.27,44.247,63.078,44.247,62.861z     M44.71,62.861c0,0.146,0.018,0.277,0.053,0.393s0.084,0.213,0.149,0.293s0.141,0.141,0.229,0.183    c0.089,0.042,0.187,0.063,0.296,0.063c0.1,0,0.195-0.021,0.283-0.063c0.089-0.042,0.166-0.103,0.232-0.183    c0.066-0.08,0.118-0.178,0.156-0.293s0.056-0.246,0.056-0.393c0-0.147-0.018-0.279-0.053-0.396    c-0.035-0.116-0.084-0.215-0.149-0.297c-0.064-0.081-0.141-0.143-0.231-0.186c-0.089-0.043-0.188-0.064-0.294-0.064    c-0.102,0-0.197,0.021-0.286,0.064c-0.089,0.043-0.166,0.104-0.231,0.186c-0.065,0.082-0.117,0.181-0.154,0.297    C44.729,62.582,44.71,62.714,44.71,62.861z"/>
		<path class="st7" d="M47.256,64.132v-1.548c0-0.248-0.014-0.458-0.042-0.63c-0.027-0.172-0.056-0.302-0.084-0.389h0.452    c0.02,0.047,0.038,0.106,0.054,0.178c0.016,0.071,0.029,0.15,0.04,0.237c0.011,0.088,0.019,0.181,0.024,0.279    c0.005,0.1,0.007,0.199,0.007,0.3v0.163c0.085-0.236,0.169-0.432,0.251-0.588c0.081-0.154,0.163-0.278,0.244-0.371    c0.081-0.092,0.163-0.156,0.245-0.193s0.165-0.055,0.25-0.055c0.064,0,0.123,0.006,0.176,0.018    c0.054,0.012,0.107,0.031,0.163,0.058l-0.075,0.466c-0.049-0.021-0.092-0.034-0.128-0.041c-0.036-0.006-0.082-0.01-0.136-0.01    c-0.068,0-0.141,0.029-0.215,0.087c-0.076,0.058-0.149,0.134-0.223,0.229c-0.072,0.096-0.142,0.205-0.207,0.325    c-0.065,0.12-0.122,0.245-0.171,0.371s-0.088,0.251-0.118,0.371s-0.044,0.228-0.044,0.321c0,0.043,0,0.081,0.001,0.117    c0,0.035,0.003,0.068,0.007,0.102c0.004,0.032,0.01,0.064,0.016,0.098c0.007,0.033,0.015,0.067,0.025,0.104H47.256z"/>
		<path class="st7" d="M50.641,61.516c0.167,0,0.312,0.02,0.433,0.059s0.228,0.092,0.319,0.154l-0.088,0.453    c-0.113-0.084-0.227-0.146-0.338-0.188c-0.112-0.042-0.233-0.063-0.363-0.063c-0.112,0-0.217,0.021-0.313,0.064    s-0.18,0.105-0.251,0.186s-0.126,0.18-0.167,0.297c-0.039,0.117-0.06,0.25-0.06,0.397c0,0.136,0.019,0.259,0.056,0.37    c0.036,0.11,0.089,0.205,0.157,0.285s0.151,0.141,0.248,0.186c0.097,0.043,0.206,0.064,0.329,0.064    c0.152,0,0.289-0.025,0.413-0.078c0.124-0.052,0.241-0.126,0.351-0.224l0.051,0.44c-0.063,0.049-0.127,0.09-0.189,0.125    c-0.063,0.034-0.128,0.063-0.197,0.085c-0.068,0.022-0.142,0.04-0.221,0.05c-0.078,0.012-0.164,0.018-0.258,0.018    c-0.168,0-0.326-0.03-0.474-0.09s-0.276-0.146-0.386-0.258c-0.111-0.112-0.197-0.248-0.262-0.408    c-0.063-0.158-0.095-0.34-0.095-0.541c0-0.189,0.03-0.367,0.091-0.535c0.062-0.168,0.148-0.314,0.262-0.44    c0.112-0.126,0.25-0.226,0.411-0.298C50.262,61.552,50.441,61.516,50.641,61.516z"/>
		<path class="st7" d="M53.098,61.516c0.137,0,0.259,0.016,0.363,0.049c0.105,0.033,0.197,0.078,0.273,0.136    c0.077,0.058,0.142,0.126,0.193,0.202c0.053,0.078,0.094,0.16,0.125,0.25c0.03,0.088,0.053,0.182,0.066,0.277    c0.013,0.097,0.02,0.191,0.02,0.285v0.099c0,0.042-0.001,0.075-0.002,0.099h-1.778c0.005,0.146,0.028,0.275,0.069,0.385    s0.097,0.199,0.168,0.27c0.07,0.072,0.154,0.125,0.25,0.16s0.201,0.053,0.314,0.053c0.162,0,0.321-0.018,0.477-0.055    c0.156-0.037,0.311-0.103,0.465-0.197l0.05,0.416c-0.089,0.045-0.176,0.084-0.261,0.115c-0.086,0.032-0.171,0.059-0.256,0.078    c-0.086,0.021-0.172,0.035-0.26,0.044s-0.18,0.015-0.277,0.015c-0.16,0-0.313-0.029-0.459-0.085    c-0.145-0.056-0.273-0.14-0.383-0.249c-0.111-0.109-0.198-0.246-0.264-0.408c-0.064-0.163-0.098-0.352-0.098-0.566    c0-0.208,0.027-0.396,0.084-0.564c0.057-0.17,0.136-0.313,0.239-0.434c0.104-0.119,0.229-0.212,0.379-0.276    C52.745,61.547,52.912,61.516,53.098,61.516z M53.061,61.893c-0.184,0-0.334,0.055-0.451,0.162    c-0.117,0.108-0.194,0.276-0.23,0.505h1.309c0-0.107-0.016-0.202-0.047-0.286c-0.031-0.082-0.074-0.152-0.131-0.21    c-0.055-0.057-0.121-0.1-0.199-0.128C53.234,61.906,53.15,61.893,53.061,61.893z"/>
	</g>
	<g class="st2">
		<path class="st7" d="M3.97,60.352h1.441v0.164H4.802c-0.132,0-0.223,0.043-0.271,0.128c-0.027,0.048-0.04,0.108-0.04,0.185v4.619    c0,0.102,0.014,0.178,0.043,0.229c0.05,0.088,0.147,0.131,0.291,0.131h0.585v0.174H3.97V60.352z"/>
		<path class="st7" d="M7.558,65.585c0,0.271,0.143,0.444,0.428,0.521c0.121,0.031,0.181,0.063,0.181,0.098    c-0.032,0.059-0.181,0.088-0.445,0.088H7.036c-0.242,0-0.362-0.029-0.362-0.088c0-0.025,0.036-0.051,0.107-0.076    c0.049-0.016,0.098-0.031,0.147-0.047c0.123-0.057,0.184-0.227,0.184-0.51v-3.105c0-0.262-0.079-0.412-0.236-0.451    c-0.063-0.01-0.125-0.02-0.188-0.029c-0.097-0.018-0.145-0.039-0.145-0.063c0-0.009,0.174-0.059,0.521-0.15    c0.028-0.008,0.111-0.041,0.25-0.098C7.436,61.625,7.511,61.6,7.542,61.6c0.019,0.014,0.028,0.096,0.028,0.246    c0,0.024,0.001,0.06,0.003,0.107C7.576,62,7.578,62.036,7.578,62.06c0,0.01,0.004,0.015,0.013,0.015    c-0.025,0,0.089-0.078,0.344-0.232c0.087-0.053,0.191-0.1,0.313-0.141c0.138-0.047,0.271-0.066,0.398-0.061    c0.393,0.016,0.719,0.154,0.979,0.412c0.253,0.252,0.41,0.577,0.472,0.977c0.013,0.087,0.02,0.167,0.02,0.239    c0,0.282-0.071,0.55-0.214,0.804c-0.14,0.25-0.328,0.451-0.567,0.607c-0.252,0.163-0.514,0.25-0.787,0.26    c-0.144,0.006-0.342-0.022-0.594-0.084c-0.231-0.055-0.355-0.082-0.371-0.082c-0.023,0-0.034,0.008-0.033,0.021    C7.554,65.247,7.556,65.51,7.558,65.585z M8.973,62.121c-0.234-0.096-0.462-0.145-0.684-0.145c-0.199,0-0.364,0.037-0.495,0.111    C7.632,62.18,7.551,62.317,7.551,62.5v1.684c0,0.217,0.166,0.393,0.497,0.525c0.15,0.063,0.304,0.093,0.461,0.093    c0.476,0,0.806-0.245,0.991-0.734c0.078-0.204,0.117-0.425,0.117-0.661c0-0.4-0.1-0.735-0.299-1.005    C9.22,62.27,9.105,62.176,8.973,62.121z"/>
		<path class="st7" d="M12.683,65.98h-1.444v-0.167h0.612c0.205,0,0.308-0.103,0.308-0.309v-4.623c0-0.237-0.11-0.355-0.331-0.355    h-0.588v-0.175h1.444V65.98z"/>
	</g>
	<g class="st2">
		<path class="st7" d="M44.119,69.079l-0.309-0.364c0.259-0.164,0.486-0.363,0.68-0.598s0.323-0.475,0.389-0.721    c-0.159,0.099-0.345,0.148-0.559,0.148c-0.268,0-0.497-0.1-0.688-0.3s-0.287-0.439-0.287-0.72c0-0.291,0.102-0.539,0.306-0.742    c0.204-0.203,0.453-0.305,0.748-0.305c0.331,0,0.602,0.121,0.813,0.36c0.21,0.239,0.316,0.548,0.316,0.923    c0,0.426-0.132,0.857-0.396,1.293C44.865,68.489,44.528,68.831,44.119,69.079z M44.976,66.896c0.02-0.134,0.03-0.222,0.03-0.262    c0-0.203-0.057-0.369-0.169-0.498c-0.113-0.13-0.258-0.194-0.435-0.194c-0.162,0-0.296,0.056-0.402,0.166    c-0.106,0.109-0.159,0.247-0.159,0.413c0,0.153,0.058,0.284,0.173,0.396c0.115,0.11,0.253,0.166,0.414,0.166    C44.614,67.082,44.797,67.02,44.976,66.896z"/>
		<path class="st7" d="M46.245,65.524h1.555v0.448h-1.098v0.888c0.035-0.003,0.071-0.005,0.107-0.005    c0.339,0,0.619,0.104,0.838,0.311c0.219,0.207,0.328,0.471,0.328,0.791c0,0.33-0.108,0.6-0.325,0.807    c-0.216,0.207-0.497,0.311-0.841,0.311c-0.284,0-0.56-0.068-0.827-0.206V68.35c0.252,0.164,0.499,0.246,0.74,0.246    c0.21,0,0.387-0.061,0.53-0.185c0.143-0.123,0.214-0.274,0.214-0.454c0-0.186-0.078-0.342-0.233-0.467    c-0.155-0.125-0.349-0.188-0.582-0.188c-0.199,0-0.334,0.018-0.406,0.051V65.524z"/>
		<path class="st7" d="M50.628,65.484c0.216,0,0.399,0.076,0.552,0.23s0.229,0.34,0.229,0.557c0,0.215-0.077,0.399-0.23,0.554    c-0.152,0.154-0.336,0.231-0.55,0.231s-0.397-0.077-0.55-0.231c-0.153-0.154-0.23-0.339-0.23-0.554    c0-0.217,0.076-0.402,0.229-0.557S50.412,65.484,50.628,65.484z M52.402,65.475h0.387l-2.303,3.604h-0.388L52.402,65.475z     M50.621,65.866c-0.111,0-0.207,0.04-0.285,0.119c-0.08,0.079-0.119,0.175-0.119,0.288c0,0.109,0.04,0.204,0.119,0.283    c0.08,0.078,0.176,0.117,0.285,0.117c0.112,0,0.207-0.039,0.287-0.117c0.078-0.079,0.118-0.174,0.118-0.283    c0-0.114-0.039-0.211-0.117-0.289C50.83,65.906,50.734,65.866,50.621,65.866z M52.281,67.51c0.214,0,0.397,0.076,0.551,0.23    c0.154,0.152,0.23,0.337,0.23,0.552c0,0.214-0.076,0.397-0.229,0.547c-0.153,0.15-0.338,0.226-0.553,0.226    c-0.217,0-0.401-0.075-0.555-0.226c-0.152-0.149-0.229-0.333-0.229-0.547c0-0.216,0.076-0.401,0.23-0.554    C51.882,67.586,52.066,67.51,52.281,67.51z M52.276,67.892c-0.11,0-0.204,0.04-0.281,0.118s-0.116,0.173-0.116,0.283    c0,0.112,0.039,0.208,0.116,0.287c0.077,0.08,0.171,0.119,0.281,0.119c0.113,0,0.21-0.039,0.288-0.117    c0.078-0.079,0.117-0.176,0.117-0.289c0-0.111-0.039-0.207-0.117-0.285C52.486,67.931,52.39,67.892,52.276,67.892z"/>
	</g>
	<g class="st2">
		<path class="st8" d="M47.959,10.795c0,0.437,0.003,0.822,0.009,1.156c0.006,0.333,0.025,0.586,0.057,0.759H47.06    c0.032-0.176,0.051-0.431,0.057-0.764c0.006-0.333,0.009-0.717,0.009-1.151V7.677c0-0.205-0.002-0.397-0.007-0.574    c-0.004-0.178-0.011-0.337-0.02-0.478c-0.009-0.141-0.022-0.255-0.04-0.343c0.184-0.006,0.379-0.013,0.583-0.022    c0.176-0.006,0.374-0.011,0.595-0.016s0.449-0.006,0.687-0.006c0.354,0,0.675,0.04,0.961,0.121    c0.286,0.081,0.531,0.202,0.733,0.365c0.201,0.163,0.357,0.366,0.467,0.607c0.109,0.242,0.164,0.523,0.164,0.843    c0,0.323-0.053,0.614-0.16,0.872c-0.106,0.258-0.26,0.478-0.461,0.658c-0.199,0.18-0.443,0.319-0.732,0.416    c-0.288,0.097-0.611,0.145-0.972,0.145c-0.161,0-0.326-0.003-0.495-0.011c-0.17-0.007-0.326-0.019-0.47-0.033V10.795z     M47.959,9.54c0.14,0.018,0.284,0.029,0.43,0.035c0.146,0.006,0.303,0.009,0.47,0.009c0.307,0,0.561-0.035,0.761-0.106    c0.2-0.07,0.36-0.167,0.479-0.288c0.118-0.122,0.201-0.263,0.248-0.423c0.047-0.16,0.07-0.328,0.07-0.504    c0-0.176-0.026-0.344-0.077-0.504c-0.051-0.16-0.136-0.3-0.254-0.42c-0.119-0.12-0.276-0.216-0.473-0.289    c-0.195-0.072-0.439-0.108-0.732-0.108c-0.103,0-0.194,0.001-0.276,0.002s-0.157,0.003-0.228,0.004s-0.14,0.004-0.207,0.007    c-0.066,0.003-0.137,0.006-0.21,0.009V9.54z"/>
	</g>
	<g class="st2">
		<path class="st8" d="M20.826,22.813c0-1.092-0.009-2.105-0.026-3.038c-0.018-0.934-0.056-1.791-0.114-2.571    s-0.146-1.488-0.263-2.123c-0.117-0.634-0.275-1.197-0.474-1.69h3.16c0.128,0.305,0.257,0.737,0.386,1.294    c0.128,0.558,0.234,1.242,0.316,2.052c0.409-0.54,0.857-1.039,1.342-1.497c0.486-0.458,1-0.848,1.545-1.171    c0.544-0.323,1.117-0.575,1.72-0.757c0.603-0.182,1.231-0.273,1.887-0.273c0.994,0,1.904,0.22,2.729,0.661    c0.825,0.44,1.527,1.057,2.106,1.849s1.029,1.732,1.352,2.818c0.322,1.086,0.482,2.275,0.482,3.566    c0,1.503-0.21,2.862-0.632,4.077s-0.992,2.251-1.711,3.108c-0.719,0.857-1.565,1.518-2.536,1.981s-2.007,0.696-3.106,0.696    c-0.468,0-0.91-0.047-1.325-0.141c-0.416-0.094-0.819-0.223-1.211-0.387c-0.392-0.165-0.781-0.367-1.167-0.608    c-0.386-0.24-0.79-0.508-1.211-0.801v4.139c0,0.705,0.009,1.341,0.026,1.911c0.018,0.569,0.044,1.095,0.079,1.576    c0.035,0.481,0.082,0.925,0.141,1.329c0.059,0.406,0.123,0.796,0.193,1.172h-3.686V22.813z M28.988,28.889    c0.62,0,1.214-0.146,1.781-0.44s1.071-0.719,1.51-1.277c0.438-0.558,0.79-1.233,1.053-2.025c0.264-0.792,0.395-1.688,0.395-2.686    c0-0.974-0.091-1.858-0.272-2.65c-0.182-0.792-0.448-1.468-0.799-2.025c-0.351-0.558-0.775-0.989-1.272-1.294    s-1.062-0.458-1.693-0.458c-0.503,0-1.018,0.112-1.545,0.334c-0.526,0.223-1.039,0.552-1.536,0.986    c-0.498,0.435-0.962,0.978-1.396,1.629c-0.433,0.651-0.813,1.4-1.141,2.245v5.548c0.597,0.423,1.114,0.772,1.553,1.048    s0.839,0.493,1.202,0.652c0.363,0.158,0.711,0.267,1.044,0.326C28.207,28.86,28.578,28.889,28.988,28.889z"/>
	</g>
	<g class="st2">
		<path class="st8" d="M7.108,8.115v11.227H6.284V8.634L5.959,9.55L5.836,9.259C5.854,9.201,5.88,9.118,5.915,9.013    C5.95,8.919,5.973,8.852,5.985,8.81c0.005-0.018,0.026-0.076,0.061-0.176c0.029-0.088,0.066-0.197,0.11-0.326    C6.2,8.179,6.243,7.977,6.284,7.701V6.917h0.825v0.784C7.301,7.454,7.524,7.26,7.775,7.12c0.24-0.135,0.512-0.203,0.816-0.203    c0.316,0,0.576,0.067,0.781,0.203C9.624,7.295,9.75,7.545,9.75,7.868v2.192c0,0.147,0.015,0.288,0.044,0.423    c0.035,0.17,0.125,0.255,0.272,0.255c0.141,0,0.304-0.235,0.491-0.705c0.012-0.047,0.025-0.094,0.04-0.141    c0.015-0.047,0.031-0.091,0.048-0.132c0.012-0.035,0.022-0.072,0.031-0.11c0.009-0.039,0.022-0.075,0.04-0.11    c0.047-0.152,0.076-0.247,0.088-0.282l0.14,0.273c-0.093,0.311-0.172,0.555-0.237,0.731s-0.108,0.291-0.132,0.343    c-0.193,0.294-0.523,0.44-0.992,0.44c-0.193,0-0.333-0.044-0.421-0.132c-0.176-0.123-0.263-0.299-0.263-0.528V7.974    c0-0.194-0.03-0.346-0.088-0.458c-0.082-0.164-0.226-0.247-0.43-0.247s-0.43,0.083-0.676,0.247    C7.43,7.686,7.231,7.889,7.108,8.124V8.115z"/>
	</g>
	<g>
		<g class="st2">
			<path class="st3" d="M70.658,12.323c0-0.338-0.004-0.651-0.009-0.94c-0.005-0.289-0.017-0.554-0.035-0.796     s-0.046-0.461-0.081-0.657c-0.037-0.196-0.086-0.371-0.147-0.523h0.978c0.041,0.094,0.08,0.228,0.12,0.4     c0.04,0.173,0.072,0.384,0.098,0.635c0.127-0.167,0.265-0.322,0.415-0.463c0.15-0.142,0.311-0.263,0.479-0.363     c0.168-0.1,0.346-0.178,0.533-0.234c0.186-0.056,0.381-0.084,0.584-0.084c0.307,0,0.589,0.068,0.844,0.205     c0.256,0.136,0.473,0.327,0.652,0.572c0.18,0.246,0.318,0.536,0.418,0.872c0.1,0.336,0.15,0.705,0.15,1.104     c0,0.465-0.066,0.886-0.196,1.262c-0.13,0.376-0.307,0.697-0.53,0.962c-0.223,0.266-0.484,0.47-0.784,0.613     c-0.301,0.144-0.622,0.215-0.962,0.215c-0.145,0-0.281-0.015-0.41-0.043c-0.129-0.029-0.254-0.069-0.375-0.12     s-0.242-0.113-0.361-0.188c-0.119-0.074-0.244-0.157-0.375-0.248v1.281c0,0.218,0.003,0.415,0.009,0.591     c0.005,0.176,0.013,0.339,0.024,0.488c0.011,0.149,0.025,0.286,0.043,0.412c0.019,0.125,0.039,0.246,0.061,0.362h-1.141V12.323z      M73.184,14.204c0.191,0,0.376-0.045,0.552-0.136c0.175-0.091,0.331-0.223,0.467-0.395c0.136-0.173,0.245-0.382,0.326-0.627     c0.081-0.246,0.122-0.522,0.122-0.832c0-0.302-0.027-0.575-0.084-0.82c-0.057-0.246-0.139-0.454-0.247-0.627     c-0.108-0.172-0.24-0.306-0.394-0.401c-0.154-0.094-0.329-0.142-0.525-0.142c-0.155,0-0.314,0.035-0.478,0.104     c-0.163,0.069-0.321,0.171-0.476,0.305c-0.154,0.135-0.298,0.303-0.432,0.504s-0.252,0.434-0.354,0.695v1.717     c0.186,0.131,0.346,0.239,0.481,0.325s0.26,0.152,0.372,0.202c0.112,0.049,0.22,0.083,0.323,0.101     C72.941,14.195,73.057,14.204,73.184,14.204z"/>
		</g>
		<g class="st2">
			<path class="st9" d="M76.837,12.323c0-0.338-0.003-0.651-0.009-0.94c-0.005-0.289-0.017-0.554-0.035-0.796     c-0.018-0.242-0.045-0.461-0.081-0.657s-0.085-0.371-0.147-0.523h0.979c0.04,0.094,0.08,0.228,0.119,0.4     c0.04,0.173,0.072,0.384,0.098,0.635c0.127-0.167,0.266-0.322,0.416-0.463c0.15-0.142,0.31-0.263,0.479-0.363     c0.168-0.1,0.346-0.178,0.532-0.234c0.187-0.056,0.381-0.084,0.584-0.084c0.308,0,0.589,0.068,0.845,0.205     s0.473,0.327,0.652,0.572c0.179,0.246,0.318,0.536,0.418,0.872c0.1,0.336,0.149,0.705,0.149,1.104     c0,0.465-0.065,0.886-0.196,1.262c-0.13,0.376-0.307,0.697-0.529,0.962c-0.223,0.266-0.484,0.47-0.785,0.613     s-0.621,0.215-0.961,0.215c-0.145,0-0.282-0.015-0.41-0.043c-0.129-0.029-0.254-0.069-0.375-0.12s-0.242-0.113-0.361-0.188     c-0.119-0.074-0.244-0.157-0.375-0.248v1.281c0,0.218,0.002,0.415,0.008,0.591s0.014,0.339,0.025,0.488     c0.01,0.149,0.024,0.286,0.043,0.412c0.018,0.125,0.038,0.246,0.06,0.362h-1.141V12.323z M79.363,14.204     c0.191,0,0.375-0.045,0.551-0.136s0.332-0.223,0.467-0.395c0.137-0.173,0.245-0.382,0.326-0.627     c0.082-0.246,0.123-0.522,0.123-0.832c0-0.302-0.028-0.575-0.084-0.82c-0.057-0.246-0.139-0.454-0.248-0.627     c-0.108-0.172-0.24-0.306-0.394-0.401c-0.153-0.094-0.329-0.142-0.524-0.142c-0.156,0-0.314,0.035-0.479,0.104     c-0.162,0.069-0.32,0.171-0.475,0.305c-0.154,0.135-0.299,0.303-0.432,0.504c-0.135,0.202-0.252,0.434-0.354,0.695v1.717     c0.185,0.131,0.345,0.239,0.48,0.325c0.137,0.085,0.26,0.152,0.373,0.202c0.111,0.049,0.219,0.083,0.322,0.101     C79.121,14.195,79.236,14.204,79.363,14.204z"/>
		</g>
		<g class="st2">
			<path class="st10" d="M59.982,21.104c0.182,0,0.344,0.022,0.484,0.065s0.262,0.104,0.364,0.181s0.188,0.167,0.257,0.27     c0.07,0.103,0.125,0.213,0.166,0.332s0.07,0.242,0.089,0.371c0.018,0.129,0.026,0.256,0.026,0.381v0.131     c0,0.056-0.001,0.1-0.003,0.131h-2.37c0.006,0.197,0.037,0.368,0.092,0.513s0.129,0.266,0.224,0.361     c0.095,0.095,0.206,0.166,0.335,0.213c0.127,0.047,0.268,0.07,0.419,0.07c0.216,0,0.429-0.024,0.636-0.074     s0.413-0.136,0.618-0.262l0.067,0.554c-0.119,0.06-0.234,0.112-0.348,0.154c-0.114,0.042-0.229,0.077-0.342,0.104     s-0.229,0.046-0.346,0.059s-0.24,0.019-0.369,0.019c-0.215,0-0.418-0.038-0.612-0.112c-0.194-0.075-0.364-0.186-0.512-0.333     c-0.147-0.146-0.264-0.328-0.351-0.545c-0.088-0.217-0.131-0.468-0.131-0.755c0-0.277,0.037-0.528,0.112-0.753     s0.181-0.417,0.319-0.577c0.139-0.16,0.307-0.283,0.505-0.369C59.512,21.147,59.734,21.104,59.982,21.104z M59.932,21.607     c-0.245,0-0.445,0.072-0.602,0.217c-0.156,0.144-0.259,0.368-0.308,0.672h1.745c0-0.143-0.021-0.27-0.063-0.381     c-0.041-0.11-0.099-0.204-0.174-0.28c-0.074-0.076-0.162-0.133-0.266-0.171C60.164,21.626,60.053,21.607,59.932,21.607z"/>
		</g>
		<g class="st2">
			<path class="st11" d="M64.15,21.104c0.357,0,0.63,0.117,0.819,0.351s0.284,0.581,0.284,1.042v2.097h-0.618v-1.845     c0-0.21-0.015-0.383-0.042-0.52c-0.027-0.136-0.068-0.244-0.123-0.324c-0.055-0.079-0.125-0.134-0.208-0.166     c-0.083-0.031-0.183-0.047-0.296-0.047c-0.12,0-0.238,0.029-0.353,0.085c-0.114,0.057-0.22,0.131-0.315,0.222     c-0.096,0.09-0.182,0.193-0.254,0.307c-0.074,0.114-0.129,0.229-0.164,0.342v1.946h-0.619V22.53c0-0.331-0.018-0.611-0.055-0.84     c-0.037-0.229-0.074-0.402-0.112-0.519h0.603c0.013,0.036,0.025,0.083,0.039,0.139c0.014,0.057,0.025,0.117,0.037,0.18     s0.021,0.124,0.03,0.185l0.026,0.151c0.212-0.255,0.426-0.439,0.643-0.552C63.688,21.161,63.914,21.104,64.15,21.104z"/>
			<path class="st11" d="M69.219,21.171c-0.047,0.096-0.095,0.2-0.145,0.312c-0.051,0.112-0.098,0.222-0.145,0.329     c-0.045,0.107-0.088,0.209-0.129,0.305c-0.039,0.096-0.072,0.178-0.1,0.245c-0.022,0.054-0.052,0.127-0.088,0.22     c-0.037,0.093-0.078,0.197-0.125,0.312c-0.045,0.115-0.094,0.237-0.145,0.366c-0.052,0.128-0.102,0.255-0.15,0.381     c-0.119,0.295-0.244,0.613-0.378,0.953H67.18c-0.129-0.324-0.25-0.631-0.364-0.919c-0.049-0.123-0.099-0.249-0.15-0.376     s-0.1-0.25-0.146-0.367c-0.045-0.118-0.088-0.226-0.127-0.324c-0.039-0.099-0.072-0.18-0.099-0.245     c-0.026-0.067-0.06-0.149-0.101-0.247c-0.039-0.097-0.083-0.199-0.13-0.307s-0.095-0.216-0.144-0.327s-0.098-0.214-0.145-0.311     h0.703l1.02,2.751l1.02-2.751H69.219z"/>
			<path class="st11" d="M71.209,21.104c0.182,0,0.344,0.022,0.484,0.065s0.262,0.104,0.364,0.181s0.188,0.167,0.257,0.27     c0.07,0.103,0.125,0.213,0.166,0.332s0.07,0.242,0.089,0.371c0.018,0.129,0.026,0.256,0.026,0.381v0.131     c0,0.056-0.001,0.1-0.003,0.131h-2.37c0.006,0.197,0.037,0.368,0.092,0.513s0.129,0.266,0.224,0.361     c0.095,0.095,0.206,0.166,0.335,0.213c0.127,0.047,0.268,0.07,0.419,0.07c0.216,0,0.429-0.024,0.636-0.074     s0.413-0.136,0.618-0.262l0.067,0.554c-0.119,0.06-0.234,0.112-0.348,0.154c-0.114,0.042-0.229,0.077-0.342,0.104     s-0.229,0.046-0.346,0.059s-0.24,0.019-0.369,0.019c-0.215,0-0.418-0.038-0.612-0.112c-0.194-0.075-0.364-0.186-0.512-0.333     c-0.147-0.146-0.264-0.328-0.351-0.545c-0.088-0.217-0.131-0.468-0.131-0.755c0-0.277,0.037-0.528,0.112-0.753     s0.181-0.417,0.319-0.577c0.139-0.16,0.307-0.283,0.505-0.369C70.738,21.147,70.961,21.104,71.209,21.104z M71.158,21.607     c-0.245,0-0.445,0.072-0.602,0.217c-0.156,0.144-0.259,0.368-0.308,0.672h1.745c0-0.143-0.021-0.27-0.063-0.381     c-0.041-0.11-0.099-0.204-0.174-0.28c-0.074-0.076-0.162-0.133-0.266-0.171C71.391,21.626,71.279,21.607,71.158,21.607z"/>
			<path class="st11" d="M74.201,23c0,0.107,0.001,0.233,0.004,0.379c0.004,0.146,0.008,0.293,0.014,0.443s0.012,0.293,0.02,0.429     c0.008,0.137,0.018,0.25,0.029,0.342h-0.686v-3.791c0-0.327-0.006-0.623-0.017-0.888c-0.011-0.265-0.028-0.495-0.05-0.689h0.686     V23z"/>
			<path class="st11" d="M75.153,22.898c0-0.288,0.044-0.544,0.13-0.766c0.088-0.223,0.205-0.411,0.352-0.564     c0.147-0.153,0.318-0.269,0.516-0.347c0.195-0.078,0.404-0.117,0.625-0.117c0.229,0,0.439,0.039,0.63,0.117     c0.19,0.079,0.354,0.194,0.491,0.347c0.137,0.153,0.244,0.341,0.319,0.564c0.075,0.222,0.114,0.478,0.114,0.766     c0,0.289-0.044,0.543-0.131,0.765c-0.087,0.221-0.204,0.407-0.352,0.557c-0.146,0.15-0.318,0.264-0.514,0.341     c-0.197,0.077-0.405,0.116-0.626,0.116c-0.229,0-0.439-0.039-0.63-0.116c-0.191-0.077-0.354-0.191-0.492-0.341     c-0.137-0.149-0.243-0.335-0.318-0.557C75.191,23.442,75.153,23.187,75.153,22.898z M75.771,22.898     c0,0.195,0.023,0.369,0.07,0.523s0.113,0.285,0.199,0.391c0.086,0.106,0.188,0.187,0.307,0.243     c0.117,0.056,0.249,0.084,0.395,0.084c0.133,0,0.259-0.028,0.377-0.084c0.118-0.056,0.221-0.137,0.31-0.243     c0.088-0.106,0.157-0.237,0.207-0.391s0.075-0.329,0.075-0.523c0-0.196-0.023-0.373-0.07-0.528     c-0.047-0.155-0.113-0.287-0.199-0.396s-0.188-0.191-0.307-0.249c-0.119-0.057-0.25-0.085-0.393-0.085     c-0.137,0-0.264,0.029-0.382,0.085c-0.118,0.057-0.221,0.14-0.308,0.249s-0.155,0.24-0.205,0.396     C75.797,22.526,75.771,22.702,75.771,22.898z"/>
		</g>
		<g class="st2">
			<path class="st3" d="M79.238,22.559c0-0.26-0.003-0.501-0.007-0.723c-0.005-0.223-0.013-0.426-0.027-0.612     s-0.034-0.354-0.063-0.505s-0.065-0.285-0.112-0.403h0.752c0.03,0.073,0.061,0.176,0.092,0.309     c0.03,0.133,0.056,0.295,0.075,0.488c0.097-0.128,0.204-0.248,0.319-0.356s0.238-0.202,0.367-0.279     c0.131-0.077,0.267-0.137,0.41-0.18s0.293-0.065,0.449-0.065c0.236,0,0.453,0.052,0.65,0.157c0.195,0.104,0.363,0.251,0.501,0.44     c0.138,0.189,0.245,0.413,0.321,0.671c0.077,0.259,0.115,0.542,0.115,0.85c0,0.357-0.05,0.681-0.15,0.971     c-0.1,0.289-0.236,0.536-0.407,0.74s-0.372,0.361-0.604,0.472c-0.23,0.111-0.477,0.166-0.739,0.166     c-0.111,0-0.216-0.011-0.315-0.034c-0.099-0.022-0.195-0.053-0.288-0.092c-0.094-0.039-0.187-0.087-0.278-0.145     s-0.188-0.121-0.288-0.191v0.985c0,0.168,0.002,0.319,0.007,0.455c0.004,0.136,0.01,0.261,0.018,0.375     c0.009,0.114,0.02,0.22,0.034,0.316c0.014,0.096,0.029,0.189,0.046,0.279h-0.877V22.559z M81.181,24.006     c0.147,0,0.289-0.035,0.425-0.105c0.135-0.07,0.254-0.171,0.359-0.304c0.104-0.132,0.188-0.293,0.25-0.482     c0.063-0.189,0.094-0.402,0.094-0.64c0-0.232-0.021-0.442-0.064-0.631c-0.043-0.189-0.106-0.35-0.189-0.482     c-0.084-0.133-0.186-0.235-0.303-0.308c-0.119-0.073-0.254-0.109-0.404-0.109c-0.119,0-0.242,0.026-0.367,0.08     s-0.248,0.131-0.365,0.235c-0.119,0.104-0.23,0.232-0.333,0.388s-0.193,0.333-0.271,0.535v1.321     c0.142,0.101,0.265,0.184,0.37,0.25c0.104,0.066,0.199,0.118,0.286,0.155c0.086,0.038,0.169,0.063,0.249,0.078     C80.994,23.999,81.084,24.006,81.181,24.006z"/>
		</g>
		<g class="st2">
			<path class="st9" d="M84.121,22.559c0-0.26-0.002-0.501-0.006-0.723c-0.005-0.223-0.014-0.426-0.027-0.612     c-0.015-0.186-0.035-0.354-0.063-0.505c-0.028-0.151-0.066-0.285-0.113-0.403h0.752c0.031,0.073,0.062,0.176,0.092,0.309     c0.031,0.133,0.057,0.295,0.076,0.488c0.097-0.128,0.203-0.248,0.318-0.356c0.116-0.109,0.238-0.202,0.368-0.279     c0.13-0.077,0.267-0.137,0.409-0.18c0.145-0.043,0.294-0.065,0.449-0.065c0.237,0,0.454,0.052,0.65,0.157     c0.196,0.104,0.363,0.251,0.502,0.44c0.138,0.189,0.244,0.413,0.321,0.671c0.077,0.259,0.114,0.542,0.114,0.85     c0,0.357-0.049,0.681-0.15,0.971c-0.1,0.289-0.235,0.536-0.406,0.74c-0.172,0.204-0.373,0.361-0.604,0.472     c-0.231,0.111-0.478,0.166-0.739,0.166c-0.111,0-0.217-0.011-0.316-0.034c-0.098-0.022-0.194-0.053-0.287-0.092     c-0.094-0.039-0.187-0.087-0.279-0.145c-0.092-0.057-0.188-0.121-0.287-0.191v0.985c0,0.168,0.002,0.319,0.006,0.455     s0.01,0.261,0.019,0.375c0.009,0.114,0.02,0.22,0.034,0.316c0.014,0.096,0.029,0.189,0.045,0.279h-0.877V22.559z M86.064,24.006     c0.147,0,0.289-0.035,0.424-0.105s0.255-0.171,0.359-0.304c0.104-0.132,0.188-0.293,0.251-0.482     c0.063-0.189,0.094-0.402,0.094-0.64c0-0.232-0.021-0.442-0.065-0.631c-0.043-0.189-0.105-0.35-0.189-0.482     s-0.185-0.235-0.303-0.308c-0.119-0.073-0.253-0.109-0.403-0.109c-0.12,0-0.243,0.026-0.368,0.08s-0.247,0.131-0.365,0.235     c-0.119,0.104-0.229,0.232-0.332,0.388c-0.104,0.155-0.193,0.333-0.271,0.535v1.321c0.142,0.101,0.265,0.184,0.369,0.25     c0.104,0.066,0.2,0.118,0.287,0.155c0.086,0.038,0.168,0.063,0.248,0.078C85.878,23.999,85.967,24.006,86.064,24.006z"/>
		</g>
		<g class="st2">
			<path class="st11" d="M90.279,21.104c0.182,0,0.344,0.022,0.484,0.065s0.262,0.104,0.364,0.181s0.188,0.167,0.257,0.27     c0.07,0.103,0.125,0.213,0.166,0.332s0.07,0.242,0.089,0.371c0.018,0.129,0.026,0.256,0.026,0.381v0.131     c0,0.056-0.001,0.1-0.003,0.131h-2.37c0.006,0.197,0.037,0.368,0.092,0.513s0.129,0.266,0.224,0.361     c0.095,0.095,0.206,0.166,0.335,0.213c0.127,0.047,0.268,0.07,0.419,0.07c0.216,0,0.429-0.024,0.636-0.074     s0.413-0.136,0.618-0.262l0.067,0.554c-0.119,0.06-0.234,0.112-0.348,0.154c-0.114,0.042-0.229,0.077-0.342,0.104     s-0.229,0.046-0.346,0.059s-0.24,0.019-0.369,0.019c-0.215,0-0.418-0.038-0.612-0.112c-0.194-0.075-0.364-0.186-0.512-0.333     c-0.147-0.146-0.264-0.328-0.351-0.545c-0.088-0.217-0.131-0.468-0.131-0.755c0-0.277,0.037-0.528,0.112-0.753     s0.181-0.417,0.319-0.577c0.139-0.16,0.307-0.283,0.505-0.369C89.809,21.147,90.031,21.104,90.279,21.104z M90.229,21.607     c-0.245,0-0.445,0.072-0.602,0.217c-0.156,0.144-0.259,0.368-0.308,0.672h1.745c0-0.143-0.021-0.27-0.063-0.381     c-0.041-0.11-0.099-0.204-0.174-0.28c-0.074-0.076-0.162-0.133-0.266-0.171C90.461,21.626,90.35,21.607,90.229,21.607z"/>
		</g>
		<g class="st2">
			<path class="st7" d="M86.226,26.888h1.296v0.374h-0.916v0.74c0.029-0.002,0.06-0.004,0.09-0.004c0.283,0,0.516,0.086,0.698,0.259     c0.183,0.173,0.274,0.393,0.274,0.66c0,0.275-0.091,0.499-0.271,0.672c-0.18,0.172-0.414,0.259-0.701,0.259     c-0.236,0-0.467-0.057-0.689-0.172v-0.432c0.211,0.137,0.416,0.206,0.617,0.206c0.175,0,0.322-0.051,0.441-0.154     c0.119-0.103,0.179-0.229,0.179-0.378c0-0.155-0.065-0.285-0.194-0.389s-0.291-0.156-0.484-0.156     c-0.166,0-0.279,0.014-0.339,0.042V26.888z"/>
			<path class="st7" d="M89.878,26.855c0.18,0,0.333,0.064,0.46,0.193c0.127,0.128,0.189,0.283,0.189,0.463     c0,0.179-0.063,0.333-0.191,0.461c-0.127,0.129-0.279,0.193-0.458,0.193s-0.331-0.064-0.458-0.193     c-0.128-0.128-0.191-0.282-0.191-0.461c0-0.181,0.063-0.335,0.189-0.463C89.545,26.919,89.698,26.855,89.878,26.855z      M91.356,26.847h0.323l-1.92,3.004h-0.322L91.356,26.847z M89.873,27.173c-0.094,0-0.173,0.033-0.238,0.1     c-0.066,0.066-0.1,0.146-0.1,0.239c0,0.092,0.033,0.17,0.1,0.236c0.067,0.065,0.146,0.098,0.238,0.098     c0.093,0,0.172-0.033,0.238-0.098c0.066-0.066,0.1-0.145,0.1-0.236c0-0.095-0.033-0.175-0.099-0.24     C90.047,27.206,89.967,27.173,89.873,27.173z M91.256,28.542c0.178,0,0.331,0.064,0.459,0.192s0.191,0.281,0.191,0.46     c0,0.179-0.063,0.331-0.19,0.456c-0.127,0.125-0.28,0.188-0.46,0.188c-0.181,0-0.334-0.063-0.462-0.188     c-0.128-0.125-0.19-0.277-0.19-0.456c0-0.181,0.063-0.334,0.191-0.461C90.923,28.606,91.076,28.542,91.256,28.542z      M91.252,28.861c-0.092,0-0.17,0.033-0.234,0.098s-0.098,0.145-0.098,0.236c0,0.093,0.033,0.173,0.098,0.239     c0.064,0.066,0.143,0.099,0.234,0.099c0.094,0,0.174-0.033,0.239-0.098s0.099-0.146,0.099-0.24c0-0.093-0.033-0.172-0.099-0.237     S91.346,28.861,91.252,28.861z"/>
		</g>
	</g>
	<g class="st2">
		<path class="st8" d="M12.871,48.834c0-0.39-0.003-0.752-0.009-1.085s-0.02-0.64-0.041-0.919c-0.021-0.278-0.052-0.531-0.094-0.758    s-0.098-0.428-0.169-0.604h1.129c0.046,0.109,0.092,0.263,0.138,0.462s0.083,0.444,0.113,0.733    c0.146-0.193,0.306-0.371,0.48-0.535c0.173-0.164,0.357-0.303,0.552-0.418s0.399-0.206,0.614-0.271    c0.215-0.064,0.44-0.098,0.674-0.098c0.355,0,0.68,0.079,0.975,0.236c0.294,0.158,0.545,0.378,0.752,0.661    c0.207,0.282,0.368,0.618,0.482,1.007c0.115,0.388,0.172,0.813,0.172,1.273c0,0.537-0.075,1.022-0.226,1.457    c-0.15,0.434-0.354,0.805-0.611,1.11c-0.257,0.306-0.559,0.542-0.906,0.708c-0.347,0.165-0.717,0.248-1.11,0.248    c-0.167,0-0.325-0.017-0.474-0.051c-0.148-0.033-0.292-0.079-0.433-0.138c-0.14-0.06-0.279-0.132-0.417-0.218    c-0.138-0.086-0.282-0.181-0.433-0.285v1.479c0,0.251,0.003,0.479,0.009,0.682s0.016,0.392,0.028,0.563s0.029,0.331,0.05,0.476    s0.044,0.283,0.069,0.418h-1.317V48.834z M15.787,51.005c0.221,0,0.434-0.052,0.636-0.157s0.382-0.257,0.539-0.456    s0.282-0.44,0.376-0.724s0.141-0.604,0.141-0.959c0-0.349-0.033-0.664-0.097-0.947c-0.065-0.283-0.16-0.524-0.285-0.724    c-0.125-0.199-0.277-0.354-0.455-0.462c-0.178-0.109-0.379-0.164-0.605-0.164c-0.18,0-0.363,0.04-0.552,0.119    c-0.188,0.08-0.371,0.197-0.548,0.353c-0.178,0.155-0.344,0.349-0.499,0.582c-0.155,0.233-0.291,0.501-0.408,0.802v1.982    c0.213,0.15,0.398,0.275,0.555,0.375c0.157,0.098,0.3,0.176,0.429,0.232s0.254,0.096,0.373,0.116S15.641,51.005,15.787,51.005z"/>
	</g>
	<g class="st2">
		<path class="st11" d="M19.853,45.117c0-0.094,0.015-0.182,0.045-0.264c0.03-0.082,0.073-0.154,0.128-0.217    c0.055-0.062,0.121-0.11,0.198-0.146c0.077-0.035,0.162-0.053,0.256-0.053c0.093,0,0.18,0.018,0.261,0.053    c0.08,0.035,0.148,0.084,0.206,0.146c0.057,0.063,0.102,0.135,0.135,0.217c0.034,0.082,0.05,0.17,0.05,0.264    c0,0.095-0.017,0.183-0.05,0.265c-0.033,0.083-0.079,0.154-0.135,0.216c-0.057,0.063-0.125,0.111-0.206,0.146    c-0.081,0.035-0.167,0.053-0.261,0.053c-0.094,0-0.179-0.018-0.256-0.053c-0.077-0.035-0.143-0.084-0.198-0.146    c-0.055-0.062-0.098-0.133-0.128-0.216C19.868,45.3,19.853,45.212,19.853,45.117z M20.956,49.496c0,0.16,0.003,0.352,0.008,0.57    c0.005,0.221,0.012,0.442,0.02,0.667s0.018,0.439,0.03,0.644c0.012,0.205,0.026,0.375,0.043,0.509h-1.028v-2.667    c0-0.244,0-0.486-0.002-0.725c-0.001-0.238-0.005-0.464-0.01-0.677c-0.005-0.213-0.013-0.411-0.023-0.594    c-0.01-0.183-0.023-0.34-0.04-0.471h1.003V49.496z"/>
	</g>
	<g class="st2">
		<path class="st11" d="M23.64,51.886v-3.095c0-0.496-0.028-0.916-0.083-1.26s-0.111-0.604-0.168-0.778h0.903    c0.04,0.095,0.076,0.212,0.108,0.354s0.059,0.302,0.08,0.477c0.022,0.174,0.038,0.359,0.048,0.559    c0.01,0.197,0.015,0.396,0.015,0.598v0.328c0.17-0.474,0.337-0.865,0.501-1.176c0.164-0.311,0.327-0.557,0.489-0.742    c0.162-0.184,0.325-0.313,0.489-0.387c0.164-0.074,0.331-0.111,0.501-0.111c0.127,0,0.244,0.012,0.351,0.035    s0.216,0.063,0.326,0.116l-0.15,0.931c-0.097-0.04-0.183-0.066-0.256-0.08c-0.074-0.014-0.164-0.021-0.271-0.021    c-0.137,0-0.281,0.058-0.431,0.173c-0.15,0.116-0.298,0.27-0.444,0.461s-0.283,0.408-0.414,0.649s-0.245,0.489-0.344,0.742    s-0.177,0.501-0.235,0.742c-0.059,0.241-0.088,0.456-0.088,0.644c0,0.084,0.001,0.162,0.002,0.232s0.007,0.138,0.015,0.203    s0.019,0.131,0.033,0.196c0.013,0.065,0.03,0.136,0.05,0.209H23.64z"/>
	</g>
	<g class="st2">
		<path class="st11" d="M32.262,49.219c0,0.635,0.035,1.166,0.105,1.598s0.161,0.787,0.271,1.069H31.76    c-0.017-0.044-0.04-0.104-0.07-0.181c-0.03-0.078-0.061-0.166-0.093-0.265c-0.032-0.099-0.062-0.206-0.09-0.319    c-0.029-0.114-0.053-0.229-0.073-0.342c-0.13,0.167-0.269,0.324-0.414,0.473c-0.145,0.147-0.298,0.278-0.458,0.393    c-0.161,0.113-0.328,0.203-0.501,0.27c-0.174,0.064-0.351,0.098-0.532,0.098c-0.21,0-0.42-0.045-0.629-0.137    c-0.209-0.09-0.397-0.226-0.564-0.406c-0.167-0.182-0.303-0.409-0.406-0.683c-0.104-0.273-0.156-0.595-0.156-0.964    c0-0.385,0.043-0.734,0.128-1.049c0.085-0.313,0.202-0.593,0.349-0.838c0.13-0.215,0.269-0.402,0.417-0.563    c0.147-0.161,0.308-0.294,0.484-0.399c0.175-0.106,0.368-0.186,0.579-0.24c0.21-0.053,0.444-0.08,0.702-0.08    c0.127,0,0.268,0.01,0.424,0.027c0.155,0.02,0.314,0.045,0.476,0.078c0.162,0.034,0.324,0.074,0.484,0.121    c0.161,0.047,0.31,0.098,0.446,0.15V49.219z M30.231,47.508c-0.107,0-0.215,0.013-0.324,0.038    c-0.108,0.024-0.215,0.067-0.321,0.128s-0.207,0.141-0.306,0.239s-0.191,0.224-0.278,0.375c-0.09,0.154-0.163,0.347-0.218,0.576    s-0.083,0.466-0.083,0.707c0,0.278,0.026,0.517,0.078,0.717c0.052,0.2,0.12,0.364,0.206,0.493    c0.085,0.129,0.182,0.225,0.291,0.284c0.109,0.061,0.218,0.091,0.329,0.091c0.141,0,0.293-0.043,0.459-0.131    s0.327-0.203,0.484-0.348s0.305-0.311,0.444-0.498s0.253-0.383,0.343-0.584v-1.887c-0.05-0.023-0.114-0.047-0.193-0.07    s-0.166-0.045-0.261-0.065s-0.199-0.036-0.311-0.048S30.345,47.508,30.231,47.508z"/>
	</g>
	<g class="st2">
		<path class="st11" d="M34.075,46.879h1.003v-1.635h0.928v1.635h1.63v0.729h-1.63v2.315c0,0.258,0.013,0.469,0.038,0.633    c0.025,0.165,0.063,0.293,0.115,0.386c0.052,0.093,0.118,0.155,0.198,0.188s0.177,0.051,0.291,0.051    c0.144,0,0.306-0.032,0.486-0.096c0.181-0.064,0.381-0.158,0.602-0.282v0.806c-0.23,0.15-0.451,0.256-0.662,0.314    c-0.211,0.059-0.405,0.088-0.582,0.088c-0.197,0-0.381-0.023-0.551-0.068c-0.171-0.045-0.32-0.125-0.449-0.238    c-0.128-0.114-0.229-0.266-0.303-0.456c-0.074-0.189-0.11-0.431-0.11-0.722v-2.919h-1.003V46.879z"/>
		<path class="st11" d="M40.995,46.652c0.274,0,0.517,0.033,0.728,0.098c0.21,0.066,0.393,0.156,0.546,0.272    s0.283,0.251,0.386,0.405s0.187,0.32,0.248,0.498c0.062,0.178,0.106,0.363,0.133,0.556c0.027,0.193,0.041,0.384,0.041,0.571v0.196    c0,0.084-0.002,0.149-0.005,0.196h-3.555c0.01,0.295,0.056,0.552,0.138,0.77c0.082,0.219,0.194,0.398,0.336,0.541    s0.309,0.25,0.501,0.32s0.402,0.105,0.629,0.105c0.324,0,0.642-0.037,0.953-0.111c0.311-0.074,0.62-0.204,0.928-0.393l0.1,0.83    c-0.177,0.092-0.351,0.168-0.521,0.232c-0.17,0.063-0.341,0.115-0.512,0.156c-0.17,0.039-0.343,0.068-0.519,0.088    c-0.175,0.018-0.36,0.027-0.554,0.027c-0.321,0-0.626-0.057-0.917-0.169s-0.546-0.278-0.767-0.498s-0.396-0.492-0.527-0.817    c-0.13-0.326-0.195-0.703-0.195-1.133c0-0.416,0.056-0.792,0.168-1.129c0.112-0.338,0.271-0.626,0.479-0.865    c0.207-0.24,0.459-0.425,0.757-0.555C40.29,46.717,40.624,46.652,40.995,46.652z M40.92,47.407c-0.368,0-0.668,0.108-0.902,0.325    c-0.234,0.216-0.388,0.553-0.461,1.008h2.618c0-0.214-0.031-0.404-0.093-0.57s-0.149-0.307-0.261-0.42    c-0.112-0.115-0.245-0.2-0.399-0.258C41.268,47.436,41.101,47.407,40.92,47.407z"/>
	</g>
	<g>
		<path class="st12" d="M61.6,43.5c1.2,0.6,2.8,0.8,4.3-0.7"/>
		<line class="st12" x1="56.2" y1="50.3" x2="56.2" y2="54.1"/>
		<line class="st12" x1="59.5" y1="50.3" x2="59.5" y2="53.3"/>
		<path class="st13" d="M55.5,56.7c-0.6,0-1-0.2-1-0.5s0.4-0.8,1-0.9v-1.8h1.4v3.2H55.5z"/>
		<line class="st12" x1="57.7" y1="37.6" x2="57.7" y2="39.4"/>
		<rect x="54.5" y="39.4" class="st13" width="7" height="10.9"/>
		<path class="st12" d="M54.4,40.2c0,0-2.6,0.4-2.8,3.9"/>
		<path class="st13" d="M53,29.8c0.3-1.8,4.6-3.3,6.8-2.3c2.8,1.3,2.4,4,2.4,4l0,0c0.1,0.4,0.2,0.8,0.2,1.2c0,2.6-2.1,4.7-4.7,4.7    c-2.6,0-4.7-2.1-4.7-4.7c0-0.4,0.1-0.9,0.2-1.2"/>
		<path class="st13" d="M52.1,30.4c0,0-2.3-1.3-3.9,0.5c0,0,1.5,1.5,3.8,0.3c0,0-2.3,0.7-2,2.6c0,0,2.3,0.5,3-2"/>
		<path class="st13" d="M50.3,44.2c-0.1,1.1,0.7,2,1.6,2c0.9,0,1.7-0.9,1.6-2C52.4,44.2,51.3,44.2,50.3,44.2z"/>
		<path class="st13" d="M60,54.1c0.7-0.2,1.2-1,1.1-1.7c-1.1,0-2.1,0-3.2,0c-0.1,0.8,0.5,1.4,1.2,1.6v2.7H60V54.1z"/>
		<path class="st13" d="M53.4,47.5c0,0.5-0.5,0.9-1,0.8c-0.4-0.1-0.7-0.4-0.6-0.8c0-0.4,0-0.8,0-1.3"/>
		<path class="st13" d="M60.1,54c0,0-0.5,0.2-1,0"/>
		<rect x="65.3" y="42.4" class="st13" width="1.6" height="3"/>
		<path class="st13" d="M65.3,42.4v-9.7c0,0,1.5,1,2.4,2.8h-0.8l1.2,0.9c0.5,1.6,0.5,3.7-1.2,6"/>
		<path class="st13" d="M67.2,42.2c0.2,0.4-0.2,0.9-0.8,1.2c-0.6,0.3-1.3,0.3-1.4-0.1c-0.2-0.4,0.2-0.9,0.8-1.2    C66.4,41.8,67,41.9,67.2,42.2z"/>
		<path class="st13" d="M53.1,31.7c-0.1,0.1-0.2,0.1-0.4,0.1c-0.4,0-0.7-0.5-0.7-1c0-0.6,0.3-1,0.7-1s0.7,0.5,0.7,1    C53.5,31.2,53.3,31.5,53.1,31.7"/>
		<g>
			<g>
				<path d="M56.8,32.9c0.3,0,0.3-0.4,0-0.4S56.5,32.9,56.8,32.9L56.8,32.9z"/>
			</g>
		</g>
		<g>
			<g>
				<path class="st8" d="M59.1,32.9c0.3,0,0.3-0.4,0-0.4C58.9,32.5,58.9,32.9,59.1,32.9L59.1,32.9z"/>
			</g>
		</g>
		<path class="st14" d="M57.7,34.3c0,0,0.6-0.6,1.2,0"/>
		<path class="st14" d="M55.6,35.2c0,0,0.7,1.5,2.5,1.1"/>
		<path class="st15" d="M56.9,31.9c0.3,0.2,0.5,0.5,0.5,0.9c0,0.6-0.6,1.1-1.3,1.1s-1.3-0.5-1.3-1.1c0,0,0,0,0-0.1    c0-0.4,0.2-0.7,0.5-0.9C55.8,31.6,56.3,31.4,56.9,31.9z"/>
		<path class="st14" d="M53,31.8c0,0,1.7-1.7,4.4-1c3.2,0.8,4.8,0.8,4.8,0.8"/>
		<line class="st14" x1="53" y1="29.8" x2="53" y2="31.8"/>
		<line class="st14" x1="54.6" y1="45.9" x2="61.5" y2="45.9"/>
		<line class="st14" x1="54.6" y1="47.7" x2="61.5" y2="47.7"/>
		<line class="st14" x1="54.6" y1="49.2" x2="61.5" y2="49.2"/>
		<line class="st14" x1="57.2" y1="45.9" x2="57.2" y2="47.7"/>
		<line class="st14" x1="59.1" y1="45.9" x2="59.1" y2="47.7"/>
		<rect x="57.4" y="46.3" class="st14" width="1.4" height="1"/>
		<line class="st14" x1="54.5" y1="44.1" x2="61.5" y2="44.1"/>
		<line class="st14" x1="54.5" y1="42.2" x2="61.5" y2="42.2"/>
		<polyline class="st14" points="56.8,39.4 57.8,40.9 58.8,39.4   "/>
		<line class="st14" x1="55" y1="33.1" x2="53.1" y2="33.7"/>
		<line class="st14" x1="57" y1="32.4" x2="60.4" y2="31.4"/>
		<path class="st16" d="M61.6,43.5c1.2,0.6,2.8,0.8,4.3-0.7"/>
		<line class="st16" x1="56.2" y1="50.3" x2="56.2" y2="54.1"/>
		<line class="st16" x1="59.5" y1="50.3" x2="59.5" y2="53.3"/>
		<path class="st17" d="M55.5,56.7c-0.6,0-1-0.2-1-0.5s0.4-0.8,1-0.9v-1.8h1.4v3.2H55.5z"/>
		<line class="st16" x1="57.7" y1="37.6" x2="57.7" y2="39.4"/>
		<rect x="54.5" y="39.4" class="st16" width="7" height="10.9"/>
		<path class="st16" d="M54.4,40.2c0,0-2.6,0.4-2.8,3.9"/>
		<path class="st16" d="M53,29.8c0.3-1.8,4.6-3.3,6.8-2.3c2.8,1.3,2.4,4,2.4,4l0,0c0.1,0.4,0.2,0.8,0.2,1.2c0,2.6-2.1,4.7-4.7,4.7    c-2.6,0-4.7-2.1-4.7-4.7c0-0.4,0.1-0.9,0.2-1.2"/>
		<path class="st16" d="M52.1,30.4c0,0-2.3-1.3-3.9,0.5c0,0,1.5,1.5,3.8,0.3c0,0-2.3,0.7-2,2.6c0,0,2.3,0.5,3-2"/>
		<path class="st17" d="M50.3,44.2c-0.1,1.1,0.7,2,1.6,2c0.9,0,1.7-0.9,1.6-2C52.4,44.2,51.3,44.2,50.3,44.2z"/>
		<path class="st17" d="M60,54.1c0.7-0.2,1.2-1,1.1-1.7c-1.1,0-2.1,0-3.2,0c-0.1,0.8,0.5,1.4,1.2,1.6v2.7H60V54.1z"/>
		<path class="st17" d="M53.4,47.5c0,0.5-0.5,0.9-1,0.8c-0.4-0.1-0.7-0.4-0.6-0.8c0-0.4,0-0.8,0-1.3"/>
		<path class="st14" d="M60.1,54c0,0-0.5,0.2-1,0"/>
		<rect x="65.3" y="42.4" class="st17" width="1.6" height="3"/>
		<path class="st17" d="M65.3,42.4v-9.7c0,0,1.5,1,2.4,2.8h-0.8l1.2,0.9c0.5,1.6,0.5,3.7-1.2,6"/>
		<path class="st17" d="M67.2,42.2c0.2,0.4-0.2,0.9-0.8,1.2c-0.6,0.3-1.3,0.3-1.4-0.1c-0.2-0.4,0.2-0.9,0.8-1.2    C66.4,41.8,67,41.9,67.2,42.2z"/>
		<path class="st17" d="M53.1,31.7c-0.1,0.1-0.2,0.1-0.4,0.1c-0.4,0-0.7-0.5-0.7-1c0-0.6,0.3-1,0.7-1s0.7,0.5,0.7,1    C53.5,31.2,53.3,31.5,53.1,31.7"/>
	</g>
</g>
</svg>