<?xml version="1.0" encoding="UTF-8"?>
<!-- Generator: Adobe Illustrator 24.0.2, SVG Export Plug-In . SVG Version: 6.00 Build 0)  -->
<svg version="1.1" id="Calque_1" xmlns="http://www.w3.org/2000/svg" xmlns:xlink="http://www.w3.org/1999/xlink" x="0px" y="0px" viewBox="0 0 111 70" style="enable-background:new 0 0 111 70;" xml:space="preserve">
<style type="text/css">
	.st0{fill:#FFFFFF;stroke:#9D9D9C;stroke-width:0.7358;stroke-miterlimit:10;}
	.st1{fill:#FFFFFF;stroke:#000000;stroke-width:0.981;stroke-miterlimit:10;}
	.st2{enable-background:new    ;}
	.st3{fill:#E11683;}
	.st4{fill:#706F6F;}
	.st5{fill:none;stroke:#B2B2B2;stroke-width:0.3679;stroke-miterlimit:10;}
	.st6{fill:#878787;}
	.st7{fill:#9D9D9C;}
	.st8{fill:#B2B2B2;}
	.st9{fill:#575756;}
	.st10{opacity:0.8;enable-background:new    ;}
	.st11{fill:#7DB728;}
	.st12{fill:#FFFFFF;}
	.st13{fill:#FFFFFF;stroke:#000000;stroke-width:0.2343;stroke-linecap:round;stroke-linejoin:round;stroke-miterlimit:10;}
	.st14{fill:none;stroke:#575756;stroke-width:0.5295;stroke-linecap:round;stroke-linejoin:round;stroke-miterlimit:10;}
	.st15{fill:none;stroke:#575756;stroke-width:0.1765;stroke-linecap:round;stroke-linejoin:round;stroke-miterlimit:10;}
	.st16{fill:none;stroke:#000000;stroke-width:0.0865;stroke-linecap:round;stroke-linejoin:round;stroke-miterlimit:10;}
</style>
<g id="_x3C_Groupe_x3E__rat">
	<rect x="81.3" y="0.5" class="st0" width="29.5" height="29.4"/>
	<path class="st1" d="M57.8,57.5H24.1V0.6h57.1v56.9H64.8c0,0-5.3,9.5-14,11.3C50.8,68.8,56.1,65.3,57.8,57.5z"/>
	<g class="st2">
		<path class="st3" d="M102.873,6.256c0,0.125,0,0.243,0.001,0.354c0.001,0.111,0.003,0.214,0.005,0.309    c0.003,0.095,0.006,0.179,0.012,0.253c0.005,0.074,0.012,0.136,0.02,0.185h-0.558c0.019-0.101,0.029-0.248,0.032-0.439    c0.004-0.192,0.006-0.413,0.006-0.662V4.464c0-0.118-0.002-0.228-0.004-0.33s-0.006-0.194-0.012-0.275    c-0.005-0.081-0.012-0.147-0.022-0.197c0.088-0.003,0.185-0.008,0.292-0.013c0.092-0.003,0.199-0.006,0.324-0.009    s0.263-0.004,0.412-0.004c0.197,0,0.378,0.02,0.541,0.06c0.164,0.04,0.304,0.101,0.42,0.185c0.117,0.083,0.209,0.191,0.273,0.323    c0.064,0.132,0.098,0.289,0.098,0.471c0,0.153-0.023,0.289-0.072,0.407s-0.111,0.22-0.19,0.305s-0.168,0.156-0.268,0.211    c-0.101,0.056-0.202,0.098-0.305,0.126c0.051,0.069,0.112,0.154,0.187,0.254c0.074,0.101,0.152,0.207,0.236,0.319    c0.084,0.112,0.168,0.227,0.254,0.342c0.085,0.116,0.165,0.223,0.24,0.32c0.074,0.098,0.139,0.182,0.195,0.253    c0.055,0.071,0.094,0.119,0.116,0.145h-0.647l-1.07-1.582h-0.516V6.256z M102.873,5.383h0.482c0.287,0,0.505-0.059,0.653-0.177    c0.147-0.118,0.222-0.283,0.222-0.494c0-0.108-0.016-0.204-0.049-0.287s-0.085-0.154-0.155-0.21    c-0.07-0.057-0.161-0.1-0.271-0.129c-0.11-0.029-0.244-0.044-0.399-0.044c-0.09,0-0.176,0.001-0.258,0.004    s-0.157,0.005-0.225,0.009V5.383z"/>
	</g>
	<g class="st2">
		<path class="st4" d="M106.182,6.256c0,0.125,0,0.243,0.001,0.354c0.001,0.111,0.003,0.214,0.005,0.309    c0.003,0.095,0.006,0.179,0.012,0.253c0.005,0.074,0.012,0.136,0.02,0.185h-0.558c0.019-0.101,0.029-0.248,0.032-0.439    c0.004-0.192,0.006-0.413,0.006-0.662V4.464c0-0.118-0.002-0.228-0.004-0.33s-0.006-0.194-0.012-0.275    c-0.005-0.081-0.012-0.147-0.022-0.197c0.088-0.003,0.185-0.008,0.292-0.013c0.092-0.003,0.199-0.006,0.324-0.009    s0.263-0.004,0.412-0.004c0.197,0,0.378,0.02,0.541,0.06c0.164,0.04,0.304,0.101,0.42,0.185c0.117,0.083,0.209,0.191,0.273,0.323    c0.064,0.132,0.098,0.289,0.098,0.471c0,0.153-0.023,0.289-0.072,0.407s-0.111,0.22-0.19,0.305s-0.168,0.156-0.268,0.211    c-0.101,0.056-0.202,0.098-0.305,0.126c0.051,0.069,0.112,0.154,0.187,0.254c0.074,0.101,0.152,0.207,0.236,0.319    c0.084,0.112,0.168,0.227,0.254,0.342c0.085,0.116,0.165,0.223,0.24,0.32c0.074,0.098,0.139,0.182,0.195,0.253    c0.055,0.071,0.094,0.119,0.116,0.145h-0.647l-1.07-1.582h-0.516V6.256z M106.182,5.383h0.482c0.287,0,0.505-0.059,0.653-0.177    c0.147-0.118,0.222-0.283,0.222-0.494c0-0.108-0.016-0.204-0.049-0.287s-0.085-0.154-0.155-0.21    c-0.07-0.057-0.161-0.1-0.271-0.129c-0.11-0.029-0.244-0.044-0.399-0.044c-0.09,0-0.176,0.001-0.258,0.004    s-0.157,0.005-0.225,0.009V5.383z"/>
	</g>
	<g class="st2">
		<path class="st3" d="M83.976,6.269l-0.089-0.19c0.025-0.084,0.045-0.146,0.057-0.184c0.014-0.029,0.023-0.061,0.032-0.095    s0.019-0.065,0.032-0.095c0.033-0.084,0.057-0.147,0.069-0.19c0.017-0.059,0.04-0.124,0.069-0.196    c0.051-0.156,0.096-0.289,0.134-0.399c0.038-0.109,0.063-0.196,0.076-0.259c-0.313,0-0.47-0.121-0.47-0.361    c0-0.114,0.027-0.209,0.082-0.285c0.051-0.072,0.131-0.108,0.242-0.108c0.088,0,0.158,0.013,0.209,0.038    c0.051,0.046,0.089,0.137,0.114,0.272v0.26c0.009,0,0.116-0.011,0.323-0.032c0.178-0.025,0.29-0.046,0.336-0.063    c0.254,0,0.43,0.065,0.527,0.196c0.089,0.123,0.133,0.325,0.133,0.607V6.49c0,0.013,0,0.024,0,0.035c0,0.01,0,0.018,0,0.022    c0,0.013,0,0.023,0,0.032s0,0.017,0,0.025c0,0.008,0,0.017,0,0.025c0,0.008,0,0.015,0,0.019c0,0.009,0,0.016,0,0.022    s0,0.039,0,0.098s0.016,0.128,0.045,0.208c0.047,0.093,0.14,0.139,0.279,0.139c0.084,0,0.184-0.114,0.298-0.341    c0.102-0.215,0.194-0.45,0.279-0.703l0.102,0.196c-0.122,0.342-0.222,0.591-0.298,0.747c-0.131,0.228-0.277,0.342-0.438,0.342    c-0.369,0-0.6-0.057-0.692-0.171c-0.11-0.114-0.165-0.346-0.165-0.696V5.421V5.275c0-0.186-0.013-0.342-0.038-0.468    c-0.034-0.11-0.095-0.165-0.185-0.165c-0.012,0-0.025,0-0.037,0c-0.014,0-0.025,0-0.039,0c-0.012,0-0.025,0-0.037,0    c-0.014,0-0.025,0-0.039,0c-0.012,0-0.025,0-0.041,0c-0.015,0-0.028,0-0.041,0c-0.017,0-0.031,0-0.045,0c-0.012,0-0.025,0-0.037,0    c-0.11,0-0.184,0.006-0.223,0.019c-0.051,0.215-0.139,0.506-0.266,0.873c-0.014,0.034-0.025,0.066-0.035,0.098    c-0.011,0.032-0.021,0.063-0.029,0.092C84.16,5.758,84.148,5.79,84.137,5.82c-0.01,0.029-0.021,0.059-0.034,0.088    c-0.013,0.034-0.024,0.065-0.035,0.095c-0.011,0.03-0.021,0.059-0.028,0.089c-0.013,0.034-0.024,0.065-0.035,0.095    c-0.01,0.03-0.021,0.057-0.035,0.083H83.976z M84.407,4.218c0-0.114-0.044-0.17-0.134-0.17c-0.063,0.012-0.095,0.074-0.095,0.183    c0,0.165,0.071,0.247,0.216,0.247L84.407,4.218z"/>
	</g>
	<g class="st2">
		<path class="st4" d="M86.883,6.269l-0.088-0.19c0.025-0.084,0.044-0.146,0.057-0.184c0.013-0.029,0.023-0.061,0.031-0.095    c0.009-0.034,0.02-0.065,0.032-0.095c0.034-0.084,0.058-0.147,0.069-0.19c0.018-0.059,0.041-0.124,0.07-0.196    c0.051-0.156,0.096-0.289,0.133-0.399c0.039-0.109,0.064-0.196,0.076-0.259c-0.313,0-0.469-0.121-0.469-0.361    c0-0.114,0.027-0.209,0.082-0.285c0.051-0.072,0.131-0.108,0.241-0.108c0.089,0,0.159,0.013,0.21,0.038    c0.051,0.046,0.088,0.137,0.113,0.272v0.26c0.009,0,0.117-0.011,0.324-0.032c0.178-0.025,0.289-0.046,0.336-0.063    c0.254,0,0.43,0.065,0.527,0.196c0.088,0.123,0.133,0.325,0.133,0.607V6.49c0,0.013,0,0.024,0,0.035c0,0.01,0,0.018,0,0.022    c0,0.013,0,0.023,0,0.032s0,0.017,0,0.025c0,0.008,0,0.017,0,0.025c0,0.008,0,0.015,0,0.019c0,0.009,0,0.016,0,0.022    s0,0.039,0,0.098s0.015,0.128,0.045,0.208c0.046,0.093,0.139,0.139,0.278,0.139c0.085,0,0.185-0.114,0.298-0.341    c0.102-0.215,0.195-0.45,0.279-0.703l0.102,0.196c-0.122,0.342-0.222,0.591-0.298,0.747c-0.131,0.228-0.276,0.342-0.438,0.342    c-0.368,0-0.599-0.057-0.692-0.171c-0.109-0.114-0.164-0.346-0.164-0.696V5.421V5.275c0-0.186-0.014-0.342-0.039-0.468    c-0.033-0.11-0.095-0.165-0.184-0.165c-0.013,0-0.025,0-0.038,0s-0.025,0-0.038,0s-0.025,0-0.038,0s-0.025,0-0.038,0    s-0.026,0-0.041,0c-0.016,0-0.029,0-0.041,0c-0.018,0-0.032,0-0.045,0s-0.025,0-0.038,0c-0.11,0-0.184,0.006-0.222,0.019    c-0.051,0.215-0.14,0.506-0.267,0.873c-0.013,0.034-0.024,0.066-0.035,0.098s-0.021,0.063-0.028,0.092    c-0.013,0.034-0.024,0.065-0.035,0.095c-0.01,0.029-0.021,0.059-0.035,0.088c-0.012,0.034-0.023,0.065-0.035,0.095    c-0.01,0.03-0.02,0.059-0.027,0.089c-0.014,0.034-0.025,0.065-0.035,0.095c-0.011,0.03-0.022,0.057-0.035,0.083H86.883z     M87.314,4.218c0-0.114-0.044-0.17-0.133-0.17c-0.063,0.012-0.096,0.074-0.096,0.183c0,0.165,0.072,0.247,0.217,0.247    L87.314,4.218z"/>
	</g>
	<path class="st5" d="M45,53.6c0,0,7.1,2.3,15.2,0"/>
	<g class="st2">
		<path class="st6" d="M27.639,61.293h1.458v0.165h-0.616c-0.134,0-0.226,0.043-0.274,0.128c-0.027,0.048-0.041,0.109-0.041,0.186    v4.648c0,0.102,0.015,0.179,0.044,0.229c0.051,0.087,0.149,0.132,0.294,0.132h0.592v0.176h-1.458V61.293z"/>
		<path class="st6" d="M30.649,65.21c0,0.247,0.103,0.406,0.309,0.478c0.206,0.07,0.309,0.119,0.309,0.145    c-0.033,0.061-0.184,0.09-0.452,0.09h-0.692c-0.245,0-0.367-0.029-0.367-0.09c0-0.024,0.073-0.063,0.218-0.116    c0.15-0.054,0.225-0.228,0.225-0.52v-1.681c0-0.264-0.095-0.422-0.284-0.477c-0.08-0.018-0.16-0.035-0.24-0.054    c-0.126-0.031-0.189-0.06-0.189-0.085c0-0.016,0.133-0.051,0.399-0.105c0.136-0.028,0.224-0.048,0.266-0.059    c0.028-0.008,0.114-0.041,0.256-0.099c0.124-0.05,0.201-0.075,0.23-0.075c0.009,0.016,0.014,0.07,0.014,0.166    c0,0.043-0.001,0.107-0.003,0.193c-0.002,0.086-0.003,0.15-0.003,0.193c0,0.064,0.014,0.096,0.042,0.096    c0.019,0,0.104-0.07,0.257-0.214c0.18-0.167,0.274-0.254,0.285-0.263c0.1-0.078,0.201-0.117,0.303-0.117    c0.186,0.042,0.33,0.135,0.43,0.277c0.014,0.064-0.008,0.132-0.066,0.201c-0.062,0.072-0.121,0.104-0.176,0.096    c-0.208-0.097-0.372-0.145-0.493-0.145c-0.185,0.016-0.348,0.111-0.489,0.289c-0.058,0.074-0.086,0.133-0.086,0.18V65.21z"/>
		<path class="st6" d="M35.121,66.957h-1.462v-0.17h0.619c0.208,0,0.312-0.104,0.312-0.311v-4.65c0-0.238-0.112-0.357-0.335-0.357    h-0.596v-0.176h1.462V66.957z"/>
	</g>
	<g class="st2">
		<path class="st6" d="M68.583,62.023v0.404h-1.472v0.607c0,0.252,0.002,0.473,0.005,0.665c0.003,0.191,0.015,0.337,0.032,0.437    h-0.558c0.019-0.102,0.029-0.248,0.032-0.439c0.004-0.191,0.006-0.412,0.006-0.662V61.2c0-0.112-0.002-0.218-0.004-0.313    s-0.006-0.181-0.012-0.257c-0.005-0.076-0.012-0.14-0.022-0.189h2.208v0.417h-1.688v1.165H68.583z"/>
		<path class="st6" d="M69.345,62.858c0-0.218,0.032-0.411,0.099-0.579s0.155-0.309,0.267-0.425    c0.112-0.115,0.242-0.202,0.392-0.262c0.148-0.06,0.307-0.089,0.475-0.089c0.174,0,0.334,0.029,0.479,0.089    s0.269,0.146,0.373,0.262c0.104,0.116,0.185,0.257,0.242,0.425c0.057,0.168,0.086,0.361,0.086,0.579s-0.033,0.41-0.099,0.577    c-0.066,0.167-0.155,0.307-0.267,0.42S71.148,64.055,71,64.113c-0.149,0.058-0.308,0.087-0.475,0.087    c-0.175,0-0.334-0.029-0.479-0.087c-0.145-0.059-0.27-0.145-0.373-0.258c-0.104-0.113-0.186-0.253-0.242-0.42    C69.373,63.269,69.345,63.076,69.345,62.858z M69.814,62.858c0,0.147,0.018,0.278,0.053,0.396    c0.035,0.115,0.086,0.215,0.151,0.295s0.143,0.141,0.232,0.183c0.089,0.042,0.189,0.063,0.3,0.063    c0.102,0,0.197-0.021,0.287-0.063c0.089-0.042,0.167-0.103,0.234-0.183c0.066-0.08,0.119-0.18,0.157-0.295    c0.038-0.117,0.058-0.248,0.058-0.396c0-0.148-0.019-0.281-0.055-0.399c-0.035-0.117-0.085-0.217-0.15-0.298    c-0.064-0.082-0.143-0.145-0.233-0.188s-0.19-0.064-0.298-0.064c-0.104,0-0.2,0.021-0.29,0.064    c-0.089,0.043-0.167,0.105-0.233,0.188c-0.066,0.081-0.118,0.181-0.156,0.298C69.834,62.577,69.814,62.71,69.814,62.858z"/>
		<path class="st6" d="M72.391,64.137V62.58c0-0.25-0.014-0.461-0.042-0.635c-0.028-0.172-0.056-0.303-0.085-0.391h0.457    c0.02,0.047,0.038,0.107,0.055,0.178c0.016,0.072,0.029,0.152,0.04,0.24s0.019,0.182,0.024,0.281    c0.005,0.1,0.008,0.199,0.008,0.301v0.164c0.086-0.238,0.17-0.435,0.254-0.591c0.082-0.155,0.165-0.28,0.247-0.374    c0.082-0.092,0.165-0.157,0.247-0.194c0.084-0.037,0.168-0.056,0.254-0.056c0.064,0,0.124,0.006,0.178,0.018    c0.055,0.012,0.109,0.031,0.166,0.059l-0.076,0.469c-0.05-0.021-0.093-0.034-0.13-0.041c-0.038-0.007-0.083-0.01-0.138-0.01    c-0.068,0-0.142,0.029-0.218,0.087s-0.151,0.136-0.225,0.231s-0.144,0.205-0.21,0.326c-0.065,0.122-0.123,0.246-0.174,0.374    c-0.05,0.128-0.09,0.252-0.119,0.374c-0.029,0.121-0.045,0.229-0.045,0.323c0,0.042,0.001,0.081,0.002,0.116    s0.004,0.07,0.008,0.104c0.004,0.032,0.01,0.064,0.016,0.098c0.008,0.033,0.016,0.068,0.025,0.105H72.391z"/>
		<path class="st6" d="M75.817,61.504c0.169,0,0.315,0.02,0.438,0.06c0.122,0.04,0.23,0.092,0.323,0.155l-0.089,0.456    c-0.115-0.085-0.229-0.147-0.343-0.19c-0.113-0.041-0.236-0.063-0.368-0.063c-0.113,0-0.219,0.021-0.316,0.064    c-0.097,0.043-0.182,0.105-0.254,0.186c-0.071,0.082-0.128,0.182-0.168,0.299c-0.041,0.119-0.061,0.252-0.061,0.4    c0,0.137,0.018,0.261,0.055,0.372s0.091,0.207,0.16,0.287c0.069,0.081,0.153,0.143,0.252,0.187    c0.098,0.043,0.209,0.065,0.332,0.065c0.154,0,0.293-0.026,0.419-0.079c0.125-0.052,0.243-0.127,0.355-0.225l0.051,0.443    c-0.064,0.049-0.128,0.09-0.192,0.125c-0.063,0.035-0.129,0.063-0.199,0.086c-0.068,0.023-0.144,0.039-0.223,0.051    c-0.08,0.011-0.167,0.017-0.262,0.017c-0.171,0-0.331-0.03-0.479-0.09c-0.149-0.06-0.279-0.146-0.392-0.26    c-0.111-0.112-0.199-0.249-0.264-0.41c-0.064-0.16-0.096-0.342-0.096-0.544c0-0.191,0.03-0.371,0.092-0.539    c0.063-0.169,0.15-0.316,0.264-0.443c0.115-0.127,0.254-0.227,0.417-0.3S75.616,61.504,75.817,61.504z"/>
		<path class="st6" d="M78.305,61.504c0.139,0,0.262,0.017,0.368,0.049c0.106,0.033,0.198,0.079,0.276,0.137    c0.078,0.059,0.143,0.127,0.195,0.205c0.053,0.077,0.095,0.16,0.126,0.25s0.054,0.183,0.067,0.279    c0.014,0.098,0.02,0.193,0.02,0.287v0.1c0,0.042,0,0.074-0.002,0.099h-1.799c0.004,0.148,0.027,0.277,0.069,0.388    c0.041,0.109,0.098,0.199,0.17,0.271c0.071,0.072,0.156,0.125,0.254,0.16c0.097,0.036,0.203,0.054,0.318,0.054    c0.164,0,0.325-0.019,0.482-0.056s0.313-0.104,0.47-0.197l0.051,0.418c-0.09,0.045-0.178,0.084-0.264,0.116    c-0.087,0.032-0.174,0.058-0.26,0.078s-0.174,0.035-0.262,0.044c-0.09,0.01-0.184,0.015-0.281,0.015    c-0.162,0-0.317-0.028-0.465-0.085c-0.146-0.057-0.276-0.141-0.389-0.25c-0.111-0.111-0.199-0.248-0.266-0.412    s-0.1-0.354-0.1-0.569c0-0.21,0.029-0.399,0.086-0.568c0.057-0.17,0.137-0.315,0.242-0.436c0.104-0.12,0.232-0.214,0.383-0.278    S78.117,61.504,78.305,61.504z M78.267,61.884c-0.187,0-0.339,0.054-0.457,0.163s-0.196,0.278-0.233,0.508h1.325    c0-0.107-0.016-0.204-0.047-0.287c-0.032-0.084-0.075-0.154-0.132-0.212s-0.125-0.101-0.202-0.129    C78.442,61.898,78.357,61.884,78.267,61.884z"/>
	</g>
	<g class="st2">
		<path class="st6" d="M69.215,69.115l-0.313-0.367c0.262-0.166,0.491-0.366,0.688-0.602s0.328-0.477,0.394-0.725    c-0.161,0.1-0.35,0.148-0.565,0.148c-0.271,0-0.504-0.1-0.697-0.301s-0.291-0.442-0.291-0.725c0-0.293,0.104-0.542,0.311-0.746    c0.206-0.205,0.458-0.307,0.756-0.307c0.335,0,0.609,0.121,0.822,0.361c0.213,0.242,0.32,0.552,0.32,0.93    c0,0.429-0.135,0.861-0.401,1.3C69.97,68.521,69.629,68.865,69.215,69.115z M70.082,66.918c0.021-0.136,0.031-0.223,0.031-0.264    c0-0.204-0.058-0.371-0.172-0.502c-0.114-0.129-0.261-0.194-0.44-0.194c-0.164,0-0.3,0.056-0.407,0.166s-0.161,0.249-0.161,0.416    c0,0.153,0.059,0.286,0.175,0.397c0.117,0.111,0.257,0.168,0.419,0.168C69.716,67.105,69.901,67.043,70.082,66.918z"/>
		<path class="st6" d="M71.096,65.537h2.294l-1.604,3.578l-0.454-0.19l1.297-2.903h-1.532V65.537z"/>
		<path class="st6" d="M75.804,65.497c0.218,0,0.404,0.077,0.558,0.233c0.154,0.154,0.232,0.342,0.232,0.559    s-0.078,0.402-0.232,0.558c-0.155,0.155-0.342,0.233-0.558,0.233c-0.217,0-0.402-0.078-0.558-0.233    c-0.154-0.155-0.232-0.341-0.232-0.558s0.078-0.404,0.231-0.559C75.398,65.574,75.586,65.497,75.804,65.497z M77.6,65.487h0.393    l-2.332,3.628h-0.393L77.6,65.487z M75.797,65.882c-0.113,0-0.209,0.04-0.289,0.12s-0.121,0.176-0.121,0.289    c0,0.111,0.041,0.206,0.122,0.285s0.177,0.119,0.288,0.119c0.113,0,0.21-0.04,0.29-0.119s0.12-0.174,0.12-0.285    c0-0.115-0.039-0.211-0.119-0.291C76.009,65.922,75.912,65.882,75.797,65.882z M77.478,67.535c0.216,0,0.402,0.077,0.558,0.231    c0.155,0.155,0.232,0.34,0.232,0.556c0,0.217-0.076,0.4-0.23,0.551c-0.155,0.15-0.342,0.227-0.56,0.227    c-0.22,0-0.407-0.076-0.562-0.227s-0.231-0.334-0.231-0.551c0-0.218,0.077-0.403,0.233-0.557    C77.072,67.611,77.26,67.535,77.478,67.535z M77.473,67.92c-0.111,0-0.207,0.039-0.285,0.119    c-0.078,0.078-0.117,0.174-0.117,0.285c0,0.112,0.039,0.209,0.117,0.289c0.078,0.079,0.174,0.119,0.285,0.119    c0.115,0,0.211-0.039,0.291-0.119c0.079-0.078,0.119-0.176,0.119-0.289s-0.04-0.209-0.119-0.287    C77.684,67.959,77.588,67.92,77.473,67.92z"/>
	</g>
	<g>
		<g class="st2">
			<path class="st3" d="M92.231,14.907v-3.373c0-0.541-0.03-0.999-0.091-1.374s-0.122-0.657-0.184-0.847h0.989     c0.044,0.102,0.083,0.231,0.118,0.386c0.035,0.156,0.064,0.329,0.088,0.519s0.041,0.393,0.053,0.609     c0.011,0.216,0.016,0.433,0.016,0.653v0.356c0.188-0.516,0.371-0.942,0.551-1.281s0.357-0.608,0.536-0.809     c0.178-0.201,0.356-0.342,0.536-0.422s0.363-0.121,0.55-0.121c0.14,0,0.268,0.013,0.386,0.039     c0.117,0.025,0.236,0.067,0.357,0.126l-0.166,1.015c-0.105-0.044-0.199-0.073-0.28-0.088s-0.18-0.022-0.297-0.022     c-0.15,0-0.308,0.063-0.474,0.189c-0.164,0.126-0.326,0.293-0.486,0.502c-0.159,0.208-0.311,0.444-0.453,0.708     c-0.143,0.263-0.27,0.533-0.377,0.809c-0.108,0.276-0.194,0.546-0.258,0.809c-0.064,0.263-0.098,0.498-0.098,0.702     c0,0.091,0.002,0.176,0.004,0.252s0.007,0.151,0.016,0.222c0.01,0.071,0.021,0.143,0.036,0.214s0.033,0.147,0.056,0.228H92.231z"/>
		</g>
		<g class="st2">
			<path class="st7" d="M96.943,14.907v-3.373c0-0.541-0.029-0.999-0.09-1.374s-0.123-0.657-0.185-0.847h0.989     c0.045,0.102,0.084,0.231,0.119,0.386c0.034,0.156,0.063,0.329,0.088,0.519c0.023,0.19,0.041,0.393,0.052,0.609     s0.017,0.433,0.017,0.653v0.356c0.188-0.516,0.37-0.942,0.55-1.281s0.358-0.608,0.536-0.809s0.357-0.342,0.537-0.422     s0.362-0.121,0.549-0.121c0.14,0,0.268,0.013,0.386,0.039c0.117,0.025,0.236,0.067,0.357,0.126l-0.165,1.015     c-0.106-0.044-0.2-0.073-0.281-0.088c-0.08-0.015-0.18-0.022-0.297-0.022c-0.15,0-0.308,0.063-0.473,0.189     c-0.164,0.126-0.327,0.293-0.486,0.502c-0.16,0.208-0.311,0.444-0.454,0.708c-0.143,0.263-0.269,0.533-0.376,0.809     c-0.109,0.276-0.195,0.546-0.259,0.809c-0.064,0.263-0.097,0.498-0.097,0.702c0,0.091,0.001,0.176,0.003,0.252     s0.007,0.151,0.017,0.222s0.021,0.143,0.035,0.214c0.016,0.071,0.033,0.147,0.056,0.228H96.943z"/>
		</g>
		<g class="st2">
			<path class="st8" d="M86.119,21.131v-3.993c0-0.144-0.002-0.289-0.006-0.434c-0.003-0.145-0.008-0.284-0.016-0.415     c-0.006-0.132-0.016-0.245-0.029-0.339h0.676v2.616c0.08-0.104,0.166-0.199,0.258-0.287c0.092-0.088,0.192-0.165,0.299-0.229     c0.107-0.065,0.224-0.117,0.348-0.154s0.258-0.056,0.399-0.056c0.171,0,0.328,0.042,0.47,0.125     c0.143,0.083,0.266,0.2,0.369,0.349c0.104,0.15,0.185,0.328,0.242,0.535s0.086,0.433,0.086,0.678     c0,0.291-0.039,0.553-0.116,0.787c-0.078,0.234-0.188,0.434-0.33,0.601s-0.313,0.295-0.517,0.385     c-0.201,0.09-0.428,0.135-0.678,0.135c-0.138,0-0.271-0.01-0.399-0.029c-0.129-0.019-0.253-0.044-0.374-0.074     s-0.238-0.063-0.351-0.098C86.338,21.199,86.227,21.165,86.119,21.131z M87.574,20.912c0.148,0,0.286-0.03,0.412-0.091     c0.127-0.061,0.236-0.146,0.327-0.257c0.091-0.11,0.163-0.243,0.215-0.4c0.052-0.156,0.077-0.329,0.077-0.518     c0-0.187-0.016-0.355-0.051-0.506c-0.033-0.15-0.082-0.278-0.146-0.383c-0.064-0.105-0.145-0.185-0.238-0.241     c-0.096-0.057-0.203-0.084-0.325-0.084c-0.106,0-0.212,0.023-0.318,0.069c-0.106,0.046-0.207,0.111-0.303,0.194     c-0.096,0.083-0.186,0.183-0.269,0.299c-0.084,0.116-0.154,0.244-0.211,0.383v1.35c0.084,0.034,0.16,0.063,0.229,0.086     c0.069,0.024,0.137,0.043,0.202,0.058s0.13,0.025,0.194,0.032C87.434,20.908,87.502,20.912,87.574,20.912z"/>
			<path class="st8" d="M92.921,19.562c0,0.425,0.024,0.783,0.071,1.072s0.108,0.528,0.183,0.717h-0.593     c-0.011-0.029-0.026-0.07-0.047-0.122s-0.041-0.111-0.063-0.177s-0.042-0.138-0.061-0.214c-0.02-0.076-0.036-0.153-0.049-0.229     c-0.089,0.113-0.182,0.218-0.279,0.317c-0.099,0.099-0.202,0.187-0.311,0.263c-0.107,0.077-0.221,0.137-0.338,0.181     s-0.237,0.066-0.359,0.066c-0.142,0-0.283-0.03-0.424-0.091c-0.142-0.061-0.269-0.152-0.381-0.273     c-0.113-0.122-0.205-0.274-0.274-0.457c-0.07-0.184-0.104-0.399-0.104-0.646c0-0.259,0.028-0.493,0.086-0.704     c0.057-0.21,0.136-0.398,0.234-0.562c0.088-0.144,0.182-0.27,0.281-0.378c0.1-0.108,0.209-0.197,0.326-0.268     c0.119-0.071,0.25-0.125,0.392-0.16c0.142-0.036,0.3-0.054,0.474-0.054c0.086,0,0.182,0.006,0.286,0.019s0.212,0.03,0.321,0.052     s0.219,0.05,0.326,0.081c0.109,0.032,0.209,0.065,0.302,0.101V19.562z M91.551,18.414c-0.072,0-0.146,0.008-0.219,0.025     s-0.146,0.045-0.217,0.086c-0.07,0.041-0.14,0.094-0.206,0.161c-0.067,0.066-0.13,0.15-0.188,0.251     c-0.061,0.104-0.109,0.232-0.146,0.386s-0.057,0.312-0.057,0.474c0,0.187,0.018,0.347,0.053,0.481     c0.035,0.134,0.082,0.244,0.139,0.331c0.058,0.086,0.123,0.15,0.197,0.19c0.072,0.041,0.146,0.061,0.221,0.061     c0.096,0,0.198-0.029,0.311-0.088c0.111-0.059,0.22-0.136,0.326-0.233c0.105-0.097,0.205-0.208,0.299-0.334     s0.172-0.257,0.232-0.392v-1.266c-0.033-0.016-0.077-0.032-0.131-0.047c-0.053-0.016-0.111-0.03-0.176-0.044     s-0.134-0.024-0.209-0.032C91.703,18.418,91.627,18.414,91.551,18.414z"/>
		</g>
		<g class="st2">
			<path class="st3" d="M94.104,21.351v-2.595c0-0.416-0.023-0.769-0.069-1.057c-0.047-0.289-0.094-0.506-0.143-0.652h0.762     c0.034,0.079,0.064,0.178,0.091,0.297s0.05,0.252,0.067,0.398c0.02,0.146,0.032,0.303,0.041,0.468     c0.008,0.166,0.012,0.333,0.012,0.502v0.274c0.145-0.396,0.285-0.725,0.424-0.985s0.275-0.468,0.412-0.623     s0.274-0.263,0.412-0.325c0.139-0.062,0.279-0.093,0.424-0.093c0.107,0,0.205,0.01,0.296,0.029     c0.091,0.02,0.183,0.052,0.274,0.097L96.98,17.87c-0.081-0.034-0.152-0.057-0.215-0.068s-0.139-0.017-0.229-0.017     c-0.115,0-0.237,0.048-0.363,0.146c-0.127,0.097-0.252,0.226-0.375,0.386c-0.123,0.161-0.239,0.342-0.35,0.544     c-0.109,0.203-0.206,0.41-0.289,0.623c-0.084,0.212-0.15,0.419-0.199,0.622s-0.074,0.382-0.074,0.54     c0,0.07,0.001,0.135,0.002,0.194c0.002,0.059,0.006,0.116,0.014,0.171c0.006,0.055,0.016,0.11,0.027,0.165     c0.011,0.055,0.025,0.113,0.042,0.175H94.104z"/>
		</g>
		<g class="st2">
			<path class="st7" d="M97.814,21.351v-2.595c0-0.416-0.023-0.769-0.07-1.057c-0.046-0.289-0.094-0.506-0.141-0.652h0.761     c0.034,0.079,0.064,0.178,0.091,0.297c0.027,0.12,0.049,0.252,0.068,0.398c0.018,0.146,0.031,0.303,0.039,0.468     c0.01,0.166,0.014,0.333,0.014,0.502v0.274c0.144-0.396,0.285-0.725,0.423-0.985s0.275-0.468,0.413-0.623     c0.137-0.155,0.273-0.263,0.412-0.325c0.138-0.062,0.279-0.093,0.423-0.093c0.106,0,0.206,0.01,0.296,0.029     c0.09,0.02,0.182,0.052,0.275,0.097l-0.127,0.781c-0.082-0.034-0.154-0.057-0.216-0.068c-0.063-0.011-0.139-0.017-0.229-0.017     c-0.116,0-0.237,0.048-0.364,0.146s-0.252,0.226-0.374,0.386c-0.122,0.161-0.239,0.342-0.349,0.544     c-0.11,0.203-0.207,0.41-0.29,0.623s-0.149,0.419-0.199,0.622s-0.073,0.382-0.073,0.54c0,0.07,0,0.135,0.002,0.194     c0.001,0.059,0.006,0.116,0.012,0.171c0.008,0.055,0.017,0.11,0.027,0.165c0.012,0.055,0.025,0.113,0.043,0.175H97.814z"/>
		</g>
		<g class="st2">
			<path class="st8" d="M102.915,17.84c0.185,0,0.349,0.022,0.491,0.066s0.265,0.104,0.369,0.182     c0.104,0.078,0.189,0.168,0.26,0.272s0.126,0.215,0.168,0.334c0.041,0.119,0.071,0.244,0.09,0.373     c0.018,0.129,0.027,0.257,0.027,0.383v0.132c0,0.056-0.002,0.1-0.004,0.131h-2.399c0.007,0.198,0.038,0.371,0.093,0.517     c0.056,0.146,0.131,0.267,0.227,0.363s0.209,0.167,0.339,0.214s0.271,0.071,0.425,0.071c0.219,0,0.434-0.024,0.643-0.074     c0.21-0.049,0.419-0.137,0.627-0.263l0.067,0.557c-0.12,0.061-0.237,0.112-0.353,0.155c-0.115,0.042-0.23,0.078-0.345,0.104     c-0.115,0.027-0.231,0.046-0.351,0.059c-0.118,0.012-0.243,0.019-0.374,0.019c-0.216,0-0.423-0.038-0.619-0.113     c-0.196-0.075-0.368-0.187-0.518-0.334s-0.268-0.33-0.355-0.548s-0.132-0.472-0.132-0.76c0-0.279,0.037-0.531,0.113-0.758     c0.075-0.226,0.184-0.419,0.323-0.58c0.14-0.161,0.31-0.285,0.511-0.372C102.439,17.884,102.665,17.84,102.915,17.84z      M102.864,18.347c-0.248,0-0.451,0.072-0.608,0.218c-0.158,0.145-0.262,0.371-0.313,0.677h1.768c0-0.144-0.021-0.272-0.063-0.383     c-0.043-0.111-0.102-0.205-0.176-0.282c-0.076-0.077-0.166-0.134-0.27-0.172C103.1,18.366,102.986,18.347,102.864,18.347z"/>
		</g>
		<g class="st2">
			<path class="st6" d="M102.306,25.696h0.025c0.185,0,0.325-0.038,0.423-0.114c0.096-0.076,0.145-0.186,0.145-0.331     c0-0.131-0.047-0.237-0.141-0.318s-0.217-0.123-0.369-0.123c-0.154,0-0.324,0.048-0.512,0.144v-0.403     c0.172-0.086,0.359-0.129,0.563-0.129c0.271,0,0.486,0.071,0.644,0.213s0.236,0.336,0.236,0.582c0,0.149-0.03,0.274-0.091,0.376     c-0.061,0.102-0.158,0.189-0.29,0.263c0.116,0.045,0.2,0.1,0.254,0.166s0.095,0.145,0.124,0.237     c0.03,0.093,0.045,0.191,0.045,0.296c0,0.257-0.086,0.47-0.258,0.639c-0.172,0.168-0.389,0.252-0.652,0.252     c-0.224,0-0.439-0.054-0.648-0.163v-0.459c0.223,0.139,0.439,0.208,0.648,0.208c0.143,0,0.258-0.042,0.344-0.126     c0.088-0.084,0.131-0.196,0.131-0.335c0-0.117-0.036-0.219-0.107-0.306c-0.043-0.049-0.09-0.085-0.141-0.109     c-0.053-0.023-0.163-0.045-0.334-0.066l-0.038-0.004V25.696z"/>
			<path class="st6" d="M105.66,24.43c0.183,0,0.338,0.065,0.466,0.194s0.192,0.285,0.192,0.466c0,0.18-0.064,0.334-0.193,0.464     s-0.283,0.194-0.465,0.194c-0.18,0-0.334-0.065-0.464-0.194c-0.129-0.129-0.193-0.284-0.193-0.464     c0-0.182,0.063-0.337,0.192-0.466S105.479,24.43,105.66,24.43z M107.157,24.422h0.327l-1.943,3.023h-0.326L107.157,24.422z      M105.655,24.751c-0.095,0-0.175,0.033-0.241,0.1c-0.066,0.066-0.1,0.146-0.1,0.241c0,0.092,0.033,0.172,0.101,0.238     c0.067,0.065,0.147,0.099,0.24,0.099c0.095,0,0.175-0.033,0.241-0.099c0.067-0.066,0.101-0.146,0.101-0.238     c0-0.095-0.033-0.176-0.099-0.242C105.832,24.784,105.751,24.751,105.655,24.751z M107.056,26.128     c0.181,0,0.335,0.064,0.465,0.193c0.13,0.128,0.194,0.283,0.194,0.463s-0.064,0.333-0.193,0.459     c-0.129,0.125-0.284,0.188-0.466,0.188c-0.183,0-0.339-0.063-0.468-0.188c-0.129-0.126-0.193-0.279-0.193-0.459     c0-0.182,0.064-0.336,0.194-0.464C106.719,26.192,106.874,26.128,107.056,26.128z M107.051,26.449     c-0.092,0-0.172,0.033-0.236,0.099c-0.065,0.066-0.098,0.146-0.098,0.238c0,0.094,0.032,0.174,0.098,0.241     c0.064,0.067,0.145,0.1,0.236,0.1c0.096,0,0.178-0.033,0.243-0.099s0.099-0.146,0.099-0.242c0-0.094-0.033-0.173-0.099-0.239     C107.229,26.482,107.146,26.449,107.051,26.449z"/>
		</g>
	</g>
	<g class="st2">
		<path class="st9" d="M72.103,10.368c0,0.208,0.001,0.405,0.003,0.591c0.001,0.186,0.004,0.357,0.008,0.515    c0.004,0.158,0.011,0.298,0.02,0.422c0.008,0.124,0.02,0.227,0.033,0.308h-0.931c0.031-0.169,0.05-0.413,0.056-0.732    c0.005-0.319,0.008-0.687,0.008-1.104V7.381c0-0.197-0.002-0.38-0.006-0.551c-0.004-0.17-0.011-0.323-0.02-0.458    c-0.008-0.135-0.021-0.245-0.038-0.329c0.146-0.006,0.31-0.013,0.487-0.021c0.151-0.006,0.332-0.011,0.541-0.015    c0.209-0.004,0.438-0.006,0.686-0.006c0.33,0,0.631,0.033,0.902,0.099c0.272,0.066,0.506,0.169,0.701,0.308    c0.193,0.139,0.346,0.319,0.454,0.538s0.163,0.481,0.163,0.785c0,0.256-0.041,0.482-0.121,0.679s-0.186,0.366-0.316,0.508    c-0.132,0.142-0.28,0.26-0.447,0.353c-0.166,0.093-0.336,0.163-0.508,0.211c0.086,0.115,0.189,0.257,0.312,0.424    c0.122,0.167,0.254,0.345,0.394,0.532s0.28,0.377,0.423,0.569c0.143,0.193,0.276,0.371,0.399,0.534    c0.125,0.164,0.232,0.304,0.326,0.422c0.094,0.118,0.158,0.199,0.195,0.241h-1.08l-1.785-2.637h-0.858V10.368z M72.103,8.912    h0.804c0.479,0,0.843-0.098,1.09-0.295c0.246-0.197,0.37-0.471,0.37-0.822c0-0.18-0.028-0.34-0.083-0.479s-0.141-0.256-0.258-0.35    s-0.268-0.166-0.453-0.215c-0.184-0.049-0.406-0.074-0.666-0.074c-0.149,0-0.293,0.002-0.43,0.006    c-0.137,0.004-0.262,0.009-0.374,0.015V8.912z"/>
	</g>
	<g class="st2">
		<path class="st9" d="M48.043,37.474V26.548c0-1.753-0.098-3.236-0.294-4.45c-0.196-1.214-0.395-2.129-0.597-2.745h3.206    c0.143,0.332,0.27,0.749,0.383,1.252c0.113,0.503,0.208,1.063,0.285,1.679s0.134,1.273,0.169,1.972    c0.036,0.699,0.053,1.404,0.053,2.114v1.155c0.606-1.67,1.2-3.053,1.782-4.148c0.582-1.095,1.161-1.969,1.737-2.62    c0.576-0.651,1.155-1.107,1.737-1.368c0.581-0.26,1.175-0.391,1.781-0.391c0.451,0,0.866,0.042,1.247,0.125    c0.38,0.083,0.766,0.219,1.158,0.408l-0.535,3.287c-0.344-0.142-0.646-0.237-0.908-0.284c-0.262-0.047-0.582-0.071-0.962-0.071    c-0.487,0-0.997,0.204-1.532,0.613c-0.534,0.409-1.06,0.95-1.576,1.625s-1.006,1.439-1.47,2.292    c-0.463,0.853-0.87,1.726-1.22,2.62c-0.351,0.895-0.629,1.768-0.837,2.621c-0.208,0.853-0.312,1.611-0.312,2.274    c0,0.296,0.003,0.568,0.009,0.817c0.006,0.249,0.024,0.488,0.054,0.719c0.029,0.231,0.068,0.463,0.116,0.693    c0.047,0.23,0.107,0.477,0.178,0.737H48.043z"/>
	</g>
	<g class="st2">
		<path class="st9" d="M28.794,9.77l-0.13-0.278c0.037-0.124,0.065-0.213,0.084-0.269c0.019-0.043,0.034-0.09,0.046-0.139    c0.012-0.05,0.028-0.096,0.046-0.139c0.05-0.124,0.084-0.217,0.103-0.279c0.025-0.086,0.059-0.182,0.103-0.288    c0.074-0.229,0.14-0.424,0.195-0.585c0.056-0.161,0.093-0.288,0.112-0.38c-0.459,0-0.689-0.176-0.689-0.529    c0-0.167,0.041-0.306,0.121-0.417c0.074-0.105,0.192-0.158,0.354-0.158c0.13,0,0.233,0.019,0.307,0.056    c0.075,0.068,0.13,0.201,0.167,0.399v0.381c0.013,0,0.171-0.016,0.475-0.046c0.261-0.037,0.425-0.068,0.494-0.093    c0.372,0,0.629,0.096,0.772,0.288c0.13,0.18,0.195,0.477,0.195,0.891v1.912c0,0.019,0,0.036,0,0.051c0,0.016,0,0.026,0,0.033    c0,0.019,0,0.034,0,0.046s0,0.025,0,0.037s0,0.025,0,0.037s0,0.021,0,0.028c0,0.012,0,0.023,0,0.032s0,0.058,0,0.144    c0,0.087,0.021,0.189,0.065,0.306c0.068,0.136,0.205,0.205,0.41,0.205c0.124,0,0.27-0.167,0.438-0.501    c0.149-0.315,0.285-0.659,0.41-1.03L33.02,9.77c-0.18,0.501-0.326,0.867-0.438,1.095c-0.192,0.334-0.407,0.501-0.643,0.501    c-0.54,0-0.878-0.083-1.014-0.25c-0.162-0.167-0.242-0.507-0.242-1.021V8.526V8.313c0-0.272-0.019-0.501-0.056-0.687    c-0.05-0.161-0.14-0.241-0.27-0.241c-0.019,0-0.037,0-0.056,0s-0.037,0-0.056,0c-0.019,0-0.037,0-0.056,0s-0.037,0-0.056,0    s-0.039,0-0.061,0c-0.022,0-0.042,0-0.061,0c-0.025,0-0.046,0-0.065,0c-0.019,0-0.038,0-0.056,0c-0.161,0-0.27,0.009-0.326,0.028    c-0.074,0.315-0.205,0.743-0.391,1.281c-0.019,0.05-0.036,0.098-0.051,0.144c-0.016,0.046-0.03,0.091-0.042,0.135    c-0.019,0.049-0.036,0.096-0.051,0.139s-0.033,0.086-0.051,0.13c-0.019,0.049-0.036,0.096-0.051,0.139S28.9,9.467,28.888,9.51    c-0.019,0.05-0.036,0.096-0.051,0.139c-0.016,0.043-0.033,0.083-0.051,0.121H28.794z M29.427,6.762c0-0.167-0.065-0.25-0.195-0.25    c-0.093,0.019-0.14,0.108-0.14,0.269c0,0.242,0.105,0.362,0.316,0.362L29.427,6.762z"/>
	</g>
	<g class="st2">
		<path class="st9" d="M46.063,51.794V47.9c0-0.624-0.035-1.152-0.105-1.586c-0.07-0.432-0.141-0.758-0.212-0.978h1.143    c0.051,0.118,0.096,0.267,0.136,0.446c0.041,0.18,0.074,0.379,0.102,0.599c0.028,0.22,0.048,0.454,0.061,0.702    c0.013,0.25,0.019,0.5,0.019,0.754v0.411c0.216-0.595,0.427-1.088,0.635-1.478c0.207-0.391,0.414-0.702,0.619-0.934    c0.205-0.232,0.412-0.395,0.619-0.488c0.207-0.093,0.419-0.139,0.634-0.139c0.161,0,0.309,0.015,0.444,0.044    c0.136,0.029,0.273,0.078,0.413,0.146l-0.19,1.171c-0.123-0.05-0.23-0.084-0.324-0.101c-0.093-0.018-0.207-0.025-0.343-0.025    c-0.173,0-0.355,0.072-0.545,0.218s-0.378,0.339-0.562,0.579s-0.358,0.514-0.523,0.816c-0.165,0.305-0.31,0.615-0.435,0.934    c-0.125,0.319-0.224,0.631-0.298,0.935c-0.074,0.304-0.111,0.573-0.111,0.81c0,0.105,0.001,0.203,0.003,0.291    c0.002,0.09,0.009,0.175,0.019,0.257c0.011,0.083,0.024,0.165,0.042,0.247c0.017,0.082,0.038,0.17,0.063,0.263H46.063z"/>
	</g>
	<g class="st2">
		<path class="st8" d="M55.311,49.088c0,0.644,0.036,1.184,0.107,1.621c0.072,0.438,0.164,0.799,0.277,1.085h-0.896    c-0.017-0.044-0.041-0.105-0.072-0.184c-0.031-0.079-0.062-0.168-0.095-0.269c-0.032-0.1-0.063-0.208-0.092-0.324    c-0.029-0.115-0.054-0.23-0.074-0.347c-0.133,0.17-0.274,0.33-0.422,0.479c-0.148,0.15-0.305,0.283-0.469,0.398    c-0.164,0.115-0.334,0.207-0.512,0.273s-0.358,0.1-0.542,0.1c-0.215,0-0.429-0.047-0.643-0.139s-0.405-0.229-0.576-0.413    c-0.171-0.184-0.309-0.414-0.415-0.691c-0.106-0.277-0.159-0.604-0.159-0.978c0-0.392,0.043-0.746,0.13-1.064    s0.206-0.602,0.356-0.85c0.133-0.219,0.274-0.409,0.425-0.572c0.15-0.164,0.315-0.299,0.494-0.406    c0.179-0.107,0.376-0.188,0.591-0.242c0.215-0.055,0.454-0.082,0.717-0.082c0.129,0,0.274,0.01,0.433,0.028    s0.321,0.046,0.486,0.079c0.166,0.034,0.33,0.075,0.494,0.123c0.164,0.047,0.316,0.098,0.456,0.152V49.088z M53.238,47.353    c-0.109,0-0.22,0.013-0.331,0.038s-0.22,0.069-0.328,0.131c-0.107,0.061-0.211,0.142-0.312,0.242    c-0.101,0.1-0.195,0.227-0.284,0.381c-0.092,0.156-0.167,0.351-0.223,0.584c-0.056,0.232-0.084,0.473-0.084,0.717    c0,0.283,0.026,0.525,0.08,0.729c0.053,0.201,0.123,0.369,0.209,0.5c0.087,0.131,0.186,0.227,0.297,0.288    c0.111,0.062,0.223,0.092,0.335,0.092c0.144,0,0.299-0.044,0.468-0.133s0.333-0.206,0.494-0.353    c0.16-0.146,0.312-0.314,0.453-0.505s0.258-0.388,0.351-0.593v-1.914c-0.051-0.023-0.117-0.047-0.197-0.071    s-0.169-0.046-0.266-0.066s-0.203-0.036-0.317-0.048C53.469,47.358,53.354,47.353,53.238,47.353z"/>
	</g>
	<g class="st10">
		<path class="st11" d="M57.164,46.715h1.023v-1.66h0.947v1.66h1.664v0.74h-1.664v2.348c0,0.262,0.014,0.477,0.039,0.644    s0.064,0.297,0.117,0.391c0.053,0.093,0.121,0.157,0.202,0.191c0.082,0.034,0.181,0.051,0.297,0.051    c0.147,0,0.313-0.032,0.497-0.097c0.184-0.064,0.389-0.16,0.613-0.286v0.817c-0.234,0.152-0.46,0.26-0.675,0.318    c-0.216,0.06-0.413,0.09-0.595,0.09c-0.201,0-0.389-0.023-0.563-0.069s-0.326-0.126-0.458-0.242s-0.235-0.271-0.31-0.462    c-0.075-0.192-0.113-0.437-0.113-0.732v-2.961h-1.023V46.715z"/>
	</g>
	<g>
		<path class="st12" d="M34.4,43.5"/>
		<path class="st12" d="M29.1,43.9"/>
		<path class="st12" d="M35.3,44.7"/>
		<path class="st12" d="M8,36.3"/>
		<path class="st12" d="M6.9,35.6"/>
		<path class="st12" d="M3,34.1c0,0.1,0,0.3,0,0.5c0,0.1,0.2,0.3,0.2,0.4c0.1,0,0.7-0.1,0.7-0.1l-0.1-0.7"/>
		<path class="st12" d="M30.2,40.7l0.1-0.7l0.4,0.3c0,0,0.1,0.4,0.3-0.3c0,0,0.5,0,0.6,0.3"/>
		<path class="st12" d="M4.9,33.9c0,0-0.9,1,1.3,0.6c0.4-0.1,1.9,0,2.7,0.2c0.5,0.1,0.7,0.7,0.3,1.1c-0.4,0.4-0.9,0.7-1.7,0.8H6    c0,0-1.2,0-0.9,1.1c0,0,0.2-0.4,0.7-0.4c0,0-0.4,0.7,0.1,1.1c0,0-0.1-0.7,0.4-0.8c0,0,0,0.8,0.5,0.7c0,0-0.5-0.3,0-0.7l0,0    c0.3-0.2,0.7-0.2,1-0.2c0.2,0,0.4,0.1,0.4,0.1s0.4,0.1,0.4-0.2c1.6-0.3,2.5-0.5,3.1-0.7c0.1,0,0.5-0.2,0.9-0.1    c0.4,0,0.8,0.2,1,0.3c1,0.6,1.9,1.1,2.9,1.7c0,0,1.3,0.5,2.1,0.6c0.8,0.1,1.6,0.1,2.1,0.1l0,0c0.2,0.2,0.4,0.3,0.6,0.4v0.1l-2,0.1    l0,0c-0.4-0.2-1-0.3-1.1-0.3l0,0c-0.5,0-1.3,0.1-1.7,0.3c-0.1,0,0,0.1,0,0.1c0.7,0,1.5,0.1,1.5,0.1c-1.5,0.1-1.6,0.3-1.7,0.6    c0,0,0,0.1,0.1,0.1c0.4-0.1,1.1-0.1,1.6-0.3c0.1,0,0.1,0.1,0,0.1c-0.3,0.1-0.6,0.3-0.8,0.4c-0.1,0.1,0,0.2,0.1,0.2l1.6-0.4    l3.9,0.3l0,0c0.9-0.1,1.2-0.6,1.3-0.7c0,0,0,0,0.1,0c0.5,0.3,1.7,0.4,1.8,0.4l0,0c0.7,0.6-0.2,0.8-0.2,0.8    c-0.9,0.2-2.2-0.1-2.3-0.1l0,0c-0.8-0.4-1.3-0.3-1.3-0.3c-0.7,0-1.3,0.2-1.7,0.4c-0.1,0,0,0.1,0,0.1c0.5-0.1,1-0.1,1.3-0.1    c0.1,0,0.1,0.1,0,0.1c-0.9,0.2-1.2,0.6-1.3,0.7c0,0,0,0.1,0.1,0.1c0.6-0.3,1.3-0.3,1.8-0.4c0.1,0,0.1,0.1,0,0.1    c-0.3,0.1-0.5,0.3-0.7,0.4c-0.1,0,0,0.1,0,0.1c1.3-0.3,4.9-0.4,4.9-0.4c1.8,0,1.3-1.3,1.2-1.6v-0.1l0.2-0.1l0,0l0.5,0.1l0,0    l0.2-0.2c0,0,0,0,0.1,0l0.2,0.1h0.1v-0.3c0,0,0.3,0.4,0.5,0.5c0.1,0.1,0.4,0.3,0.4,0.3c0.6,0.9,1.8,0.8,2.4,0.8    c8.5,0,5.5,1.4,5.4,1.4c-0.2,0.1,0.2,0-5.5,0.8c-2.7,0.4-3.6,0.3-3.6,0.3s0.4,0.3,2.3,0.6c1.7,0.3,2.6,0.2,3.9,0    c4-0.5,4.6-0.9,5.1-1.4c2.9-2.9-8-2.9-8.4-2.9c-0.8-1.6-0.6-1.9-0.6-1.9c0.4-1.1,0.5-3,0.5-3.1l0,0c-1.1-8.2-7.5-8.2-7.5-8.2    c-4.9-0.2-7.4,2.3-7.4,2.3l0,0c0,0-5.8,1.9-6.9,0.6c0,0,0.4-0.5,0.7-1.2c0.1-0.4-0.1-0.7-0.6-0.6c-0.3,0.1-0.6,0.2-0.9,0.2    c-0.9,0.1-0.8,0.7-0.8,0.7L7,29.6c-0.8,0.2-1.5,0.6-2.2,1c-0.4,0.4-1,0.9-1.2,1.4c-1.1,0.3-2,0.2-2.8,0.9c0,0-0.7,0-0.8,0.4    c-0.1,0.2,0,0.4,0.2,0.5s0.5,0.2,1,0L2.5,34c0.2,0,0.4,0,0.6,0h0.1c0.4,0,0.8,0,1.2-0.1c0.5-0.1,0.9-0.1,1.5-0.1l0,0"/>
		<path class="st11" d="M31.6,40.1l0.1,0.2c0,0,5.6,0.1,6.7,0.6c0,0,2.4,0.5,2.3,1.3c-0.1,0.8-0.6,1.1-0.6,1.2c0,0-1.2,1-4.3,1.2    c-3,0.2-3.9,0.2-3.9,0.2l-2.5-0.4L29.3,44l5.4-0.6l3-0.3c0,0,1.5-0.5,0.7-1c-0.7-0.5-5.1-0.6-5.1-0.6l-2.2-0.1l-0.9-0.7l0.1-0.8    l0.4,0.3c0,0,0.1,0.4,0.3-0.3L31.6,40.1z"/>
		<path class="st13" d="M34.4,43.5"/>
		<path class="st13" d="M29.1,43.9"/>
		<path class="st13" d="M35.3,44.7"/>
		<path class="st13" d="M8,36.3"/>
		<path class="st13" d="M6.9,35.6"/>
		<path class="st14" d="M3,34.1c0,0.1,0,0.3,0,0.5c0,0.1,0.2,0.3,0.2,0.4c0.1,0,0.7-0.1,0.7-0.1l-0.1-0.7"/>
		<path class="st15" d="M30.2,40.7l0.1-0.7l0.4,0.3c0,0,0.1,0.4,0.3-0.3c0,0,0.5,0,0.6,0.3"/>
		<path class="st14" d="M4.9,33.9c0,0-0.9,1,1.3,0.6c0.4-0.1,1.9,0,2.7,0.2c0.5,0.1,0.7,0.7,0.3,1.1c-0.4,0.4-0.9,0.7-1.7,0.8H6    c0,0-1.2,0-0.9,1.1c0,0,0.2-0.4,0.7-0.4c0,0-0.4,0.7,0.1,1.1c0,0-0.1-0.7,0.4-0.8c0,0,0,0.8,0.5,0.7c0,0-0.5-0.3,0-0.7l0,0    c0.3-0.2,0.7-0.2,1-0.2c0.2,0,0.4,0.1,0.4,0.1s0.4,0.1,0.4-0.2c1.6-0.3,2.5-0.5,3.1-0.7c0.1,0,0.5-0.2,0.9-0.1    c0.4,0,0.8,0.2,1,0.3c1,0.6,1.9,1.1,2.9,1.7c0,0,1.3,0.5,2.1,0.6c0.8,0.1,1.6,0.1,2.1,0.1l0,0c0.2,0.2,0.4,0.3,0.6,0.4v0.1l-2,0.1    l0,0c-0.4-0.2-1-0.3-1.1-0.3l0,0c-0.5,0-1.3,0.1-1.7,0.3c-0.1,0,0,0.1,0,0.1c0.7,0,1.5,0.1,1.5,0.1c-1.5,0.1-1.6,0.3-1.7,0.6    c0,0,0,0.1,0.1,0.1c0.4-0.1,1.1-0.1,1.6-0.3c0.1,0,0.1,0.1,0,0.1c-0.3,0.1-0.6,0.3-0.8,0.4c-0.1,0.1,0,0.2,0.1,0.2l1.6-0.4    l3.9,0.3l0,0c0.9-0.1,1.2-0.6,1.3-0.7c0,0,0,0,0.1,0c0.5,0.3,1.7,0.4,1.8,0.4l0,0c0.7,0.6-0.2,0.8-0.2,0.8    c-0.9,0.2-2.2-0.1-2.3-0.1l0,0c-0.8-0.4-1.3-0.3-1.3-0.3c-0.7,0-1.3,0.2-1.7,0.4c-0.1,0,0,0.1,0,0.1c0.5-0.1,1-0.1,1.3-0.1    c0.1,0,0.1,0.1,0,0.1c-0.9,0.2-1.2,0.6-1.3,0.7c0,0,0,0.1,0.1,0.1c0.6-0.3,1.3-0.3,1.8-0.4c0.1,0,0.1,0.1,0,0.1    c-0.3,0.1-0.5,0.3-0.7,0.4c-0.1,0,0,0.1,0,0.1c1.3-0.3,4.9-0.4,4.9-0.4c1.8,0,1.3-1.3,1.2-1.6v-0.1l0.2-0.1l0,0l0.5,0.1l0,0    l0.2-0.2c0,0,0,0,0.1,0l0.2,0.1h0.1v-0.3c0,0,0.3,0.4,0.5,0.5c0.1,0.1,0.4,0.3,0.4,0.3c0.6,0.9,1.8,0.8,2.4,0.8    c8.5,0,5.5,1.4,5.4,1.4c-0.2,0.1,0.2,0-5.5,0.8c-2.7,0.4-3.6,0.3-3.6,0.3s0.4,0.3,2.3,0.6c1.7,0.3,2.6,0.2,3.9,0    c4-0.5,4.6-0.9,5.1-1.4c2.9-2.9-8-2.9-8.4-2.9c-0.8-1.6-0.6-1.9-0.6-1.9c0.4-1.1,0.5-3,0.5-3.1l0,0c-1.1-8.2-7.5-8.2-7.5-8.2    c-4.9-0.2-7.4,2.3-7.4,2.3l0,0c0,0-5.8,1.9-6.9,0.6c0,0,0.4-0.5,0.7-1.2c0.1-0.4-0.1-0.7-0.6-0.6c-0.3,0.1-0.6,0.2-0.9,0.2    c-0.9,0.1-0.8,0.7-0.8,0.7L7,29.6c-0.8,0.2-1.5,0.6-2.2,1c-0.4,0.4-1,0.9-1.2,1.4c-1.1,0.3-2,0.2-2.8,0.9c0,0-0.7,0-0.8,0.4    c-0.1,0.2,0,0.4,0.2,0.5s0.5,0.2,1,0L2.5,34c0.2,0,0.4,0,0.6,0h0.1c0.4,0,0.8,0,1.2-0.1c0.5-0.1,0.9-0.1,1.5-0.1l0,0"/>
		<path class="st15" d="M24.2,39.9c0,0-5.2-1.4-5-4.3c0,0,0-4.6,3.3-3.5"/>
		<path class="st15" d="M28.1,40.2c0,0-0.3-0.5-0.3-0.9"/>
		<line class="st15" x1="28.4" y1="40.2" x2="28.1" y2="39.3"/>
		<line class="st15" x1="28.8" y1="40.1" x2="28.8" y2="39.5"/>
		<path class="st15" d="M39.8,43.4c0,0,0.1-1-1.3-1"/>
		<path class="st15" d="M38.4,43.9c0,0,0.2-0.8-0.4-1.1"/>
		<path class="st15" d="M37.2,44.2c0,0,0.2-0.6-0.3-1.1"/>
		<path class="st15" d="M35.1,44.5c0,0,0.3-0.4-0.1-1.2"/>
		<path class="st15" d="M36,44.4c0,0,0.2-0.7-0.3-1.2"/>
		<path class="st15" d="M33.9,44.6c0,0,0.2-0.3-0.1-1.1"/>
		<path class="st15" d="M32.8,44.7c0,0,0.1-0.6,0-1"/>
		<path class="st16" d="M31.3,43.8"/>
		<path class="st16" d="M29.7,43.8"/>
		<path class="st15" d="M40.6,42.4c0,0,0.1-1.7-2.1-0.2"/>
		<path class="st15" d="M38.8,40.9c0,0-1.1-0.3-0.9,0.9"/>
		<path class="st15" d="M37.6,40.7c0,0-1-0.3-0.8,1"/>
		<path class="st15" d="M36.6,40.5c0,0-1.1-0.2-0.9,1"/>
		<path class="st15" d="M35.3,40.4c0,0-1.1-0.2-0.9,1.1"/>
		<path class="st15" d="M33.6,40.3c0,0-1.1,0-0.9,1.2"/>
		<path class="st15" d="M9.4,31.1c0,0,0.3,0.2,0.8,0c0.4-0.2,0.8-0.3,1.2-0.2c0.1,0,0.2,0,0.3,0.1c0.2,0.1,0.5,0.1,0.8,0.2    c0.4,0.1,0.6,0.6,0.3,1l0,0c-0.4,0.5-1,0.5-1.3,0.5c-0.2,0-0.4,0-0.5,0c-0.6,0.2-1.2,0-1.2,0"/>
		<path class="st15" d="M3.5,34.8c0-0.1-0.1-0.2-0.1-0.3c0-0.2,0-0.3,0-0.4"/>
		<path class="st15" d="M0.8,32.9c0.3,0,0.5,0.2,0.5,0.4S1.2,33.6,1,33.7"/>
		<path class="st15" d="M8.3,29.3c0,0,0.2,0,0.5,0.2"/>
		<g>
			<g>
				<path class="st9" d="M5.5,32.2c0.4,0,0.4-0.6,0-0.6C5.1,31.7,5.1,32.2,5.5,32.2L5.5,32.2z"/>
			</g>
		</g>
		<path class="st15" d="M4.9,31.6c0,0,0.5-0.7,1.1-0.4"/>
	</g>
</g>
</svg>