<?xml version="1.0" encoding="UTF-8"?>
<!-- Generator: Adobe Illustrator 24.0.2, SVG Export Plug-In . SVG Version: 6.00 Build 0)  -->
<svg version="1.1" id="Calque_1" xmlns="http://www.w3.org/2000/svg" xmlns:xlink="http://www.w3.org/1999/xlink" x="0px" y="0px" viewBox="0 0 95 69" style="enable-background:new 0 0 95 69;" xml:space="preserve">
<style type="text/css">
	.st0{fill:#FFFFFF;stroke:#9D9D9C;stroke-width:0.7229;stroke-miterlimit:10;}
	.st1{fill:#FFFFFF;stroke:#000000;stroke-width:0.9638;stroke-miterlimit:10;}
	.st2{enable-background:new    ;}
	.st3{fill:#7DB728;}
	.st4{fill:#706F6F;}
	.st5{fill:none;stroke:#B2B2B2;stroke-width:0.2994;stroke-miterlimit:10;}
	.st6{fill:none;stroke:#B2B2B2;stroke-width:0.3074;stroke-miterlimit:10;}
	.st7{fill:none;stroke:#B2B2B2;stroke-width:0.2585;stroke-miterlimit:10;}
	.st8{fill:none;stroke:#B2B2B2;stroke-width:0.3803;stroke-miterlimit:10;}
	.st9{fill:#878787;}
	.st10{fill:#9D9D9C;}
	.st11{fill:#B2B2B2;}
	.st12{fill:#575756;}
	.st13{fill:#B9D384;}
	.st14{fill:none;stroke:#575756;stroke-width:0.1735;stroke-linecap:round;stroke-linejoin:round;stroke-miterlimit:10;}
	.st15{fill:#FFFFFF;stroke:#575756;stroke-width:0.2421;stroke-linecap:round;stroke-linejoin:round;stroke-miterlimit:10;}
	.st16{fill:none;stroke:#575756;stroke-width:0.1734;stroke-miterlimit:10;}
	.st17{fill:#FFFFFF;stroke:#575756;stroke-width:0.1734;stroke-miterlimit:10;}
	.st18{fill:none;stroke:#575756;stroke-width:0.1716;stroke-miterlimit:10;}
	.st19{fill:#7DB728;stroke:#575756;stroke-width:0.1734;stroke-miterlimit:10;}
	.st20{fill:none;stroke:#575756;stroke-width:0.5202;stroke-linecap:round;stroke-linejoin:round;stroke-miterlimit:10;}
</style>
<g id="_x3C_Groupe_x3E__téléphone">
	<polygon class="st0" points="76.2,29.6 63,29.6 63,0.7 94.5,0.7 94.5,29.6 78.9,29.6  "/>
	<path class="st1" d="M40.4,55.6H8.1V0.8h54.8v54.8H47.1c0,0-5.1,9.1-13.4,10.9C33.7,66.5,38.7,63.2,40.4,55.6z"/>
	<g class="st2">
		<path class="st3" d="M88.02,3.89v0.461c-0.1-0.021-0.199-0.036-0.295-0.041c-0.098-0.006-0.203-0.009-0.315-0.009h-0.598v2.143    c0,0.246,0.003,0.463,0.009,0.651s0.02,0.333,0.041,0.432h-0.572c0.021-0.1,0.035-0.244,0.041-0.432s0.009-0.406,0.009-0.651    V4.301h-0.585c-0.111,0-0.216,0.003-0.314,0.009c-0.098,0.005-0.196,0.02-0.296,0.041V3.89H88.02z"/>
	</g>
	<g class="st2">
		<path class="st4" d="M91.217,3.89v0.461c-0.1-0.021-0.199-0.036-0.295-0.041c-0.098-0.006-0.203-0.009-0.315-0.009h-0.598v2.143    c0,0.246,0.003,0.463,0.009,0.651s0.02,0.333,0.041,0.432h-0.572c0.021-0.1,0.035-0.244,0.041-0.432s0.009-0.406,0.009-0.651    V4.301h-0.585c-0.111,0-0.216,0.003-0.314,0.009c-0.098,0.005-0.196,0.02-0.296,0.041V3.89H91.217z"/>
	</g>
	<g class="st2">
		<path class="st3" d="M67.072,4.452l1.17,0.012v0.168h-1.176l0.012,3.618v0.168c0,0.266,0.035,0.44,0.105,0.523    c0.063,0.079,0.171,0.119,0.324,0.119c0.258,0,0.465-0.172,0.623-0.517c0.028-0.063,0.105-0.259,0.229-0.592l0.1,0.199    c-0.157,0.411-0.271,0.669-0.343,0.772c-0.157,0.204-0.383,0.305-0.678,0.305c-0.419,0-0.676-0.05-0.771-0.149    c-0.121-0.1-0.179-0.33-0.174-0.691l-0.007-5.088h0.579L67.072,4.452z"/>
	</g>
	<g class="st2">
		<path class="st4" d="M68.971,4.452l1.17,0.012v0.168h-1.176l0.012,3.618v0.168c0,0.266,0.035,0.44,0.105,0.523    c0.063,0.079,0.171,0.119,0.324,0.119c0.258,0,0.465-0.172,0.623-0.517c0.028-0.063,0.105-0.259,0.229-0.592l0.1,0.199    c-0.157,0.411-0.271,0.669-0.343,0.772c-0.157,0.204-0.383,0.305-0.678,0.305c-0.419,0-0.676-0.05-0.771-0.149    c-0.121-0.1-0.179-0.33-0.174-0.691l-0.007-5.088h0.579L68.971,4.452z"/>
	</g>
	<path class="st5" d="M13,52.1c0.2,0.1,4.6,2.4,9.8,0"/>
	<path class="st6" d="M48.8,52.1c0.2,0.1,4.8,2.4,10.3,0"/>
	<path class="st7" d="M23.7,52.1c0.2,0.1,3.4,2.4,7.3,0"/>
	<path class="st8" d="M32.3,52.1c0.4,0.1,5.9,2.4,15.5,0"/>
	<g class="st2">
		<path class="st9" d="M50.492,60.555v0.398h-1.443v0.598c0,0.248,0.001,0.466,0.004,0.654c0.004,0.188,0.015,0.332,0.033,0.43    h-0.548c0.019-0.1,0.028-0.244,0.032-0.432c0.004-0.189,0.005-0.406,0.005-0.652v-1.807c0-0.11-0.001-0.213-0.003-0.307    c-0.004-0.094-0.007-0.178-0.012-0.254c-0.006-0.074-0.013-0.137-0.022-0.186h2.165v0.41h-1.654v1.146H50.492z"/>
		<path class="st9" d="M51.238,61.377c0-0.215,0.033-0.404,0.098-0.569s0.152-0.306,0.262-0.419s0.236-0.199,0.383-0.258    s0.301-0.087,0.466-0.087c0.171,0,0.327,0.028,0.47,0.087c0.141,0.059,0.264,0.145,0.365,0.258s0.182,0.254,0.238,0.419    s0.084,0.354,0.084,0.569c0,0.214-0.032,0.403-0.097,0.568c-0.065,0.164-0.151,0.302-0.262,0.413    c-0.109,0.111-0.237,0.195-0.384,0.253c-0.146,0.057-0.301,0.086-0.465,0.086c-0.171,0-0.327-0.029-0.469-0.086    c-0.143-0.058-0.264-0.142-0.366-0.253s-0.182-0.249-0.237-0.413C51.268,61.78,51.238,61.591,51.238,61.377z M51.699,61.377    c0,0.145,0.018,0.273,0.053,0.389c0.035,0.114,0.084,0.211,0.148,0.29c0.063,0.079,0.139,0.14,0.227,0.181    s0.187,0.063,0.295,0.063c0.1,0,0.193-0.021,0.281-0.063s0.164-0.102,0.23-0.181c0.064-0.079,0.116-0.176,0.154-0.29    c0.037-0.115,0.055-0.244,0.055-0.389c0-0.146-0.017-0.277-0.052-0.393c-0.034-0.115-0.084-0.213-0.147-0.294    c-0.064-0.081-0.141-0.142-0.229-0.185s-0.187-0.063-0.292-0.063c-0.102,0-0.196,0.021-0.284,0.063s-0.165,0.104-0.229,0.185    s-0.115,0.179-0.152,0.294S51.699,61.23,51.699,61.377z"/>
		<path class="st9" d="M54.227,62.635v-1.532c0-0.245-0.014-0.454-0.041-0.624s-0.056-0.299-0.084-0.385h0.448    c0.021,0.047,0.038,0.105,0.054,0.176s0.029,0.148,0.039,0.235c0.012,0.087,0.02,0.179,0.024,0.276s0.007,0.197,0.007,0.297v0.162    c0.085-0.234,0.168-0.429,0.25-0.582c0.08-0.154,0.162-0.276,0.242-0.367c0.08-0.092,0.161-0.156,0.242-0.192    c0.082-0.036,0.164-0.055,0.25-0.055c0.063,0,0.121,0.006,0.174,0.017c0.053,0.012,0.107,0.031,0.162,0.059l-0.075,0.461    c-0.048-0.021-0.091-0.033-0.127-0.041c-0.036-0.006-0.081-0.01-0.134-0.01c-0.068,0-0.141,0.029-0.215,0.086    c-0.074,0.058-0.148,0.134-0.221,0.229c-0.072,0.094-0.141,0.201-0.205,0.321s-0.121,0.241-0.17,0.367S54.76,61.78,54.73,61.9    c-0.029,0.119-0.044,0.225-0.044,0.318c0,0.041,0.001,0.08,0.001,0.115c0.002,0.034,0.004,0.068,0.008,0.1    c0.004,0.033,0.01,0.065,0.016,0.098c0.008,0.033,0.016,0.066,0.025,0.104H54.227z"/>
		<path class="st9" d="M57.586,60.044c0.166,0,0.31,0.02,0.43,0.059c0.121,0.039,0.227,0.09,0.318,0.153l-0.088,0.448    c-0.113-0.083-0.225-0.146-0.336-0.187c-0.111-0.042-0.231-0.063-0.361-0.063c-0.111,0-0.214,0.021-0.31,0.063    c-0.095,0.042-0.179,0.103-0.249,0.183s-0.125,0.178-0.166,0.295c-0.039,0.115-0.059,0.247-0.059,0.393    c0,0.135,0.018,0.257,0.055,0.367c0.036,0.109,0.088,0.203,0.156,0.282s0.15,0.14,0.246,0.183    c0.097,0.044,0.205,0.065,0.326,0.065c0.151,0,0.289-0.026,0.411-0.077c0.123-0.052,0.239-0.125,0.349-0.223l0.05,0.437    c-0.063,0.048-0.126,0.089-0.188,0.124c-0.063,0.033-0.127,0.062-0.195,0.084s-0.141,0.039-0.219,0.05s-0.164,0.017-0.256,0.017    c-0.168,0-0.325-0.029-0.471-0.089c-0.146-0.059-0.273-0.144-0.384-0.255c-0.109-0.111-0.196-0.246-0.259-0.404    c-0.063-0.157-0.095-0.336-0.095-0.535c0-0.188,0.03-0.365,0.091-0.531s0.146-0.311,0.26-0.436    c0.111-0.125,0.248-0.223,0.408-0.295S57.389,60.044,57.586,60.044z"/>
		<path class="st9" d="M60.025,60.044c0.137,0,0.258,0.017,0.361,0.048c0.105,0.033,0.195,0.078,0.271,0.135    c0.076,0.058,0.141,0.125,0.191,0.201c0.052,0.076,0.093,0.158,0.123,0.246c0.031,0.088,0.053,0.18,0.066,0.275    s0.02,0.189,0.02,0.283v0.097c0,0.042,0,0.074-0.002,0.097h-1.766c0.006,0.146,0.028,0.273,0.069,0.382    c0.04,0.108,0.097,0.197,0.167,0.269c0.07,0.07,0.153,0.123,0.248,0.158c0.096,0.034,0.2,0.052,0.313,0.052    c0.161,0,0.318-0.019,0.474-0.056c0.154-0.035,0.308-0.101,0.46-0.193l0.051,0.41c-0.089,0.045-0.175,0.084-0.26,0.115    c-0.084,0.031-0.169,0.057-0.254,0.077c-0.084,0.021-0.17,0.034-0.258,0.044c-0.087,0.009-0.179,0.014-0.275,0.014    c-0.158,0-0.311-0.027-0.455-0.084c-0.145-0.055-0.271-0.138-0.381-0.246c-0.109-0.109-0.196-0.244-0.262-0.405    c-0.064-0.161-0.097-0.348-0.097-0.561c0-0.206,0.028-0.392,0.083-0.56c0.057-0.166,0.135-0.309,0.238-0.428    s0.229-0.211,0.376-0.274S59.842,60.044,60.025,60.044z M59.988,60.418c-0.182,0-0.332,0.053-0.447,0.16    c-0.117,0.107-0.193,0.273-0.229,0.5h1.3c0-0.107-0.016-0.201-0.047-0.283c-0.03-0.082-0.073-0.151-0.129-0.208    s-0.121-0.099-0.197-0.127C60.161,60.432,60.078,60.418,59.988,60.418z"/>
	</g>
	<g class="st2">
		<path class="st9" d="M10.908,58.893h1.43v0.162h-0.604c-0.132,0-0.221,0.043-0.269,0.127c-0.027,0.047-0.04,0.107-0.04,0.183    v4.574c0,0.101,0.014,0.176,0.043,0.226c0.05,0.086,0.146,0.13,0.289,0.13h0.581v0.173h-1.43V58.893z"/>
		<path class="st9" d="M14.282,62.598c0,0.381,0.15,0.572,0.45,0.572c0.09,0,0.217-0.027,0.381-0.082    c0.165-0.055,0.266-0.082,0.305-0.082c0,0.051-0.076,0.116-0.229,0.198c-0.108,0.058-0.207,0.103-0.295,0.133    c-0.153,0.052-0.297,0.077-0.433,0.077c-0.191-0.003-0.359-0.099-0.503-0.288c-0.077-0.101-0.116-0.231-0.116-0.392v-2.083    c0-0.049-0.079-0.073-0.237-0.073h-0.204c-0.1,0-0.149-0.016-0.149-0.048c0-0.008,0.087-0.079,0.261-0.216    c0.188-0.147,0.293-0.232,0.317-0.254c0.039-0.04,0.124-0.16,0.254-0.362c0.112-0.172,0.176-0.257,0.194-0.257    c0.014,0.01,0.021,0.064,0.021,0.164c0,0.047-0.001,0.115-0.003,0.207c-0.002,0.092-0.003,0.161-0.003,0.208    c0,0.153,0.013,0.23,0.04,0.23h0.85c0.042,0,0.091-0.011,0.146-0.034c0.055-0.022,0.082-0.033,0.078-0.033l0.013,0.013    c0,0.038-0.036,0.113-0.109,0.226c-0.072,0.113-0.124,0.17-0.155,0.17c-0.017,0-0.041-0.001-0.072-0.004    c-0.032-0.002-0.055-0.003-0.071-0.003h-0.729V62.598z"/>
		<path class="st9" d="M17.752,64.467h-1.434v-0.166h0.607c0.203,0,0.305-0.102,0.305-0.307v-4.576c0-0.235-0.109-0.353-0.329-0.353    h-0.584v-0.173h1.434V64.467z"/>
	</g>
	<g class="st2">
		<path class="st9" d="M51.111,67.534l-0.306-0.361c0.257-0.163,0.481-0.36,0.675-0.592c0.191-0.231,0.32-0.47,0.385-0.714    c-0.157,0.098-0.342,0.146-0.555,0.146c-0.266,0-0.493-0.098-0.684-0.296c-0.189-0.198-0.285-0.435-0.285-0.712    c0-0.289,0.102-0.535,0.305-0.735c0.202-0.201,0.449-0.302,0.741-0.302c0.329,0,0.598,0.119,0.807,0.356    c0.21,0.237,0.313,0.542,0.313,0.915c0,0.422-0.131,0.848-0.393,1.278C51.853,66.949,51.518,67.288,51.111,67.534z M51.963,65.371    c0.02-0.133,0.029-0.219,0.029-0.259c0-0.2-0.055-0.365-0.168-0.493c-0.111-0.128-0.256-0.191-0.432-0.191    c-0.16,0-0.294,0.055-0.399,0.162c-0.104,0.109-0.157,0.246-0.157,0.41c0,0.151,0.057,0.281,0.171,0.392    c0.114,0.109,0.251,0.164,0.411,0.164C51.604,65.556,51.785,65.494,51.963,65.371z"/>
		<path class="st9" d="M53.758,67.014h1.324v0.48h-2.201v-0.035l0.209-0.246c0.328-0.405,0.588-0.75,0.781-1.031    c0.193-0.283,0.319-0.496,0.378-0.641c0.06-0.145,0.089-0.287,0.089-0.429c0-0.196-0.057-0.353-0.167-0.472    c-0.111-0.119-0.259-0.178-0.443-0.178c-0.14,0-0.276,0.041-0.412,0.123s-0.257,0.197-0.364,0.348v-0.633    c0.271-0.221,0.549-0.332,0.836-0.332c0.305,0,0.555,0.102,0.751,0.305c0.196,0.202,0.295,0.459,0.295,0.771    c0,0.141-0.024,0.289-0.073,0.447c-0.049,0.159-0.136,0.342-0.26,0.549c-0.125,0.207-0.336,0.488-0.635,0.846L53.758,67.014z"/>
		<path class="st9" d="M57.574,63.975c0.214,0,0.396,0.076,0.547,0.229c0.151,0.152,0.227,0.336,0.227,0.551    c0,0.213-0.075,0.395-0.227,0.548c-0.152,0.153-0.334,0.229-0.547,0.229s-0.395-0.076-0.547-0.229S56.8,64.967,56.8,64.754    c0-0.215,0.075-0.398,0.227-0.551S57.359,63.975,57.574,63.975z M59.335,63.964h0.385l-2.286,3.57h-0.385L59.335,63.964z     M57.568,64.353c-0.111,0-0.206,0.04-0.285,0.118c-0.078,0.078-0.117,0.174-0.117,0.284c0,0.109,0.039,0.203,0.119,0.28    c0.079,0.078,0.174,0.117,0.283,0.117c0.11,0,0.205-0.039,0.283-0.117c0.079-0.077,0.118-0.171,0.118-0.28    c0-0.112-0.039-0.208-0.116-0.286C57.775,64.392,57.68,64.353,57.568,64.353z M59.216,65.979c0.212,0,0.394,0.075,0.546,0.228    c0.153,0.152,0.229,0.334,0.229,0.547s-0.075,0.394-0.228,0.542c-0.151,0.149-0.334,0.224-0.548,0.224    c-0.216,0-0.399-0.074-0.551-0.224c-0.151-0.148-0.228-0.329-0.228-0.542c0-0.214,0.076-0.396,0.229-0.548    S59.002,65.979,59.216,65.979z M59.211,66.357c-0.109,0-0.203,0.039-0.279,0.117c-0.077,0.078-0.115,0.172-0.115,0.281    c0,0.11,0.038,0.205,0.115,0.284c0.076,0.079,0.17,0.118,0.279,0.118c0.112,0,0.207-0.039,0.285-0.117s0.117-0.173,0.117-0.285    c0-0.111-0.039-0.205-0.117-0.282S59.323,66.357,59.211,66.357z"/>
	</g>
	<g>
		<g class="st2">
			<path class="st3" d="M74.033,9.624h1.08V7.869h0.997v1.754h1.753v0.783H76.11v2.483c0,0.277,0.014,0.504,0.04,0.68     c0.027,0.176,0.068,0.314,0.125,0.413c0.055,0.099,0.127,0.167,0.213,0.203s0.189,0.054,0.313,0.054     c0.154,0,0.329-0.034,0.523-0.103c0.193-0.068,0.41-0.169,0.646-0.302v0.864c-0.248,0.162-0.484,0.274-0.711,0.337     s-0.436,0.094-0.627,0.094c-0.211,0-0.409-0.024-0.593-0.073c-0.183-0.048-0.345-0.134-0.482-0.256     c-0.139-0.122-0.247-0.285-0.326-0.488c-0.079-0.204-0.118-0.462-0.118-0.775v-3.13h-1.08V9.624z"/>
		</g>
		<g class="st2">
			<path class="st10" d="M78.33,9.624h1.08V7.869h0.997v1.754h1.753v0.783h-1.753v2.483c0,0.277,0.014,0.504,0.04,0.68     c0.027,0.176,0.068,0.314,0.125,0.413c0.055,0.099,0.127,0.167,0.213,0.203s0.189,0.054,0.313,0.054     c0.154,0,0.329-0.034,0.523-0.103c0.193-0.068,0.41-0.169,0.646-0.302v0.864c-0.248,0.162-0.484,0.274-0.711,0.337     s-0.436,0.094-0.627,0.094c-0.211,0-0.409-0.024-0.593-0.073c-0.183-0.048-0.345-0.134-0.482-0.256     c-0.139-0.122-0.247-0.285-0.326-0.488c-0.079-0.204-0.118-0.462-0.118-0.775v-3.13h-1.08V9.624z"/>
		</g>
		<g class="st2">
			<path class="st11" d="M68.054,18.519c0.222,0,0.412,0.026,0.573,0.078c0.16,0.052,0.301,0.12,0.423,0.204l-0.116,0.598     c-0.15-0.111-0.3-0.194-0.448-0.249c-0.148-0.056-0.309-0.083-0.481-0.083c-0.148,0-0.285,0.028-0.413,0.085     c-0.127,0.057-0.237,0.138-0.332,0.244c-0.094,0.106-0.167,0.237-0.221,0.392c-0.053,0.155-0.079,0.33-0.079,0.525     c0,0.179,0.023,0.342,0.072,0.488c0.049,0.146,0.119,0.271,0.209,0.377c0.092,0.105,0.201,0.187,0.329,0.244     s0.273,0.086,0.435,0.086c0.201,0,0.385-0.035,0.548-0.103c0.163-0.069,0.319-0.167,0.465-0.296l0.066,0.582     c-0.085,0.064-0.168,0.119-0.251,0.164c-0.082,0.046-0.17,0.083-0.26,0.113c-0.092,0.03-0.188,0.052-0.293,0.066     c-0.104,0.014-0.218,0.021-0.342,0.021c-0.223,0-0.432-0.039-0.627-0.118s-0.365-0.192-0.512-0.341     c-0.146-0.148-0.261-0.328-0.345-0.538s-0.126-0.448-0.126-0.714c0-0.25,0.04-0.486,0.121-0.708     c0.08-0.222,0.195-0.416,0.346-0.582c0.148-0.166,0.33-0.297,0.544-0.394S67.791,18.519,68.054,18.519z"/>
			<path class="st11" d="M72.717,20.213c0,0.419,0.023,0.771,0.07,1.055c0.046,0.285,0.105,0.52,0.179,0.706h-0.581     c-0.011-0.029-0.026-0.069-0.046-0.12c-0.021-0.051-0.04-0.109-0.062-0.174s-0.041-0.136-0.061-0.211     c-0.018-0.075-0.034-0.15-0.047-0.226c-0.087,0.111-0.178,0.215-0.274,0.313c-0.097,0.097-0.197,0.184-0.304,0.259     c-0.105,0.076-0.217,0.135-0.332,0.178c-0.115,0.043-0.232,0.065-0.352,0.065c-0.14,0-0.278-0.03-0.416-0.09     c-0.139-0.06-0.264-0.149-0.374-0.269s-0.2-0.27-0.269-0.45c-0.068-0.181-0.104-0.393-0.104-0.636     c0-0.255,0.029-0.485,0.085-0.693c0.057-0.207,0.134-0.391,0.23-0.553c0.087-0.142,0.179-0.266,0.276-0.372     c0.097-0.106,0.203-0.194,0.32-0.264c0.115-0.07,0.243-0.123,0.383-0.158c0.139-0.036,0.294-0.053,0.465-0.053     c0.084,0,0.178,0.006,0.28,0.018c0.103,0.012,0.208,0.03,0.315,0.052s0.214,0.049,0.32,0.08c0.105,0.031,0.205,0.064,0.295,0.1     V20.213z M71.373,19.083c-0.071,0-0.143,0.008-0.215,0.025c-0.071,0.017-0.143,0.045-0.212,0.085s-0.138,0.092-0.202,0.158     c-0.065,0.065-0.127,0.148-0.185,0.248c-0.06,0.102-0.108,0.229-0.145,0.38s-0.055,0.307-0.055,0.467     c0,0.184,0.017,0.341,0.052,0.473c0.034,0.132,0.08,0.24,0.136,0.326c0.057,0.085,0.12,0.147,0.192,0.188s0.145,0.06,0.218,0.06     c0.093,0,0.194-0.029,0.304-0.086s0.217-0.134,0.32-0.229s0.201-0.205,0.293-0.329s0.168-0.252,0.229-0.385v-1.246     c-0.033-0.016-0.076-0.031-0.129-0.047c-0.051-0.015-0.109-0.03-0.172-0.043s-0.132-0.024-0.206-0.032     S71.447,19.083,71.373,19.083z"/>
			<path class="st11" d="M73.729,21.974v-2.043c0-0.328-0.019-0.605-0.056-0.832c-0.035-0.227-0.072-0.398-0.11-0.513h0.597     c0.027,0.062,0.051,0.14,0.072,0.234c0.021,0.094,0.039,0.199,0.053,0.314c0.015,0.115,0.025,0.238,0.031,0.369     c0.007,0.13,0.01,0.262,0.01,0.395v0.216c0.113-0.312,0.225-0.571,0.332-0.775c0.109-0.205,0.217-0.368,0.324-0.49     c0.107-0.122,0.215-0.207,0.323-0.255c0.108-0.049,0.22-0.073,0.332-0.073c0.084,0,0.161,0.008,0.232,0.023     c0.071,0.015,0.143,0.041,0.216,0.076l-0.1,0.615c-0.064-0.027-0.121-0.044-0.17-0.053s-0.107-0.013-0.179-0.013     c-0.091,0-0.187,0.038-0.285,0.114c-0.1,0.077-0.198,0.178-0.294,0.304c-0.096,0.126-0.188,0.269-0.273,0.428     c-0.087,0.16-0.162,0.323-0.228,0.49c-0.065,0.167-0.118,0.331-0.156,0.49c-0.038,0.16-0.058,0.301-0.058,0.425     c0,0.055,0,0.106,0.002,0.153c0,0.046,0.004,0.091,0.01,0.134c0.005,0.043,0.012,0.086,0.021,0.13     c0.008,0.043,0.02,0.089,0.033,0.138H73.729z"/>
			<path class="st11" d="M76.484,20.296c0-0.286,0.043-0.539,0.129-0.759c0.087-0.22,0.203-0.406,0.35-0.558     c0.146-0.151,0.316-0.266,0.51-0.344c0.195-0.078,0.402-0.116,0.621-0.116c0.229,0,0.437,0.039,0.626,0.116     c0.188,0.078,0.352,0.192,0.487,0.344c0.137,0.152,0.242,0.338,0.317,0.558s0.112,0.473,0.112,0.759     c0,0.286-0.043,0.538-0.129,0.757s-0.202,0.403-0.348,0.551c-0.146,0.148-0.317,0.261-0.512,0.337     c-0.195,0.077-0.402,0.115-0.621,0.115c-0.228,0-0.436-0.038-0.625-0.115c-0.189-0.076-0.352-0.188-0.488-0.337     s-0.242-0.332-0.316-0.551C76.521,20.834,76.484,20.582,76.484,20.296z M77.098,20.296c0,0.192,0.023,0.365,0.07,0.518     s0.112,0.282,0.197,0.387c0.086,0.105,0.187,0.186,0.304,0.241c0.118,0.055,0.248,0.083,0.392,0.083     c0.133,0,0.258-0.028,0.375-0.083c0.117-0.056,0.22-0.136,0.307-0.241c0.088-0.105,0.156-0.234,0.207-0.387     c0.049-0.153,0.074-0.326,0.074-0.518c0-0.195-0.023-0.37-0.07-0.523c-0.046-0.154-0.111-0.285-0.197-0.392     c-0.085-0.107-0.187-0.189-0.305-0.246c-0.119-0.057-0.248-0.085-0.391-0.085c-0.135,0-0.261,0.028-0.378,0.085     c-0.118,0.057-0.22,0.138-0.306,0.246s-0.154,0.238-0.204,0.392S77.098,20.102,77.098,20.296z"/>
		</g>
		<g class="st2">
			<path class="st3" d="M80.126,17.842h0.829v-1.35h0.768v1.35h1.35v0.602h-1.35v1.91c0,0.213,0.011,0.387,0.031,0.523     c0.021,0.136,0.053,0.242,0.096,0.318s0.098,0.128,0.164,0.155c0.066,0.028,0.146,0.042,0.24,0.042     c0.119,0,0.254-0.026,0.402-0.079c0.15-0.053,0.316-0.13,0.498-0.232v0.664c-0.19,0.125-0.373,0.211-0.547,0.26     c-0.175,0.048-0.335,0.073-0.482,0.073c-0.162,0-0.314-0.019-0.455-0.056c-0.142-0.038-0.266-0.103-0.372-0.197     s-0.19-0.219-0.251-0.376c-0.061-0.156-0.092-0.355-0.092-0.596v-2.408h-0.829V17.842z"/>
		</g>
		<g class="st2">
			<path class="st10" d="M83.523,17.842h0.83v-1.35h0.768v1.35h1.348v0.602h-1.348v1.91c0,0.213,0.01,0.387,0.031,0.523     c0.02,0.136,0.052,0.242,0.095,0.318s0.098,0.128,0.164,0.155c0.066,0.028,0.146,0.042,0.241,0.042     c0.118,0,0.252-0.026,0.402-0.079c0.148-0.053,0.314-0.13,0.498-0.232v0.664c-0.191,0.125-0.374,0.211-0.549,0.26     c-0.174,0.048-0.334,0.073-0.48,0.073c-0.164,0-0.315-0.019-0.457-0.056c-0.141-0.038-0.265-0.103-0.371-0.197     s-0.189-0.219-0.251-0.376c-0.061-0.156-0.091-0.355-0.091-0.596v-2.408h-0.83V17.842z"/>
		</g>
		<g class="st2">
			<path class="st11" d="M88.805,18.519c0.182,0,0.342,0.021,0.48,0.065c0.141,0.043,0.261,0.103,0.362,0.179     s0.187,0.166,0.255,0.268c0.069,0.102,0.124,0.211,0.165,0.329c0.041,0.118,0.07,0.24,0.088,0.367s0.026,0.253,0.026,0.377v0.129     c0,0.056-0.001,0.099-0.003,0.13h-2.354c0.007,0.195,0.037,0.364,0.091,0.508c0.055,0.144,0.129,0.263,0.223,0.357     s0.205,0.164,0.332,0.211c0.127,0.046,0.266,0.07,0.416,0.07c0.215,0,0.426-0.024,0.631-0.073     c0.206-0.049,0.411-0.135,0.615-0.259l0.065,0.548c-0.117,0.06-0.231,0.111-0.345,0.153s-0.227,0.076-0.339,0.103     c-0.112,0.026-0.228,0.046-0.343,0.058c-0.117,0.012-0.239,0.018-0.367,0.018c-0.213,0-0.415-0.037-0.607-0.111     c-0.193-0.074-0.361-0.184-0.508-0.329s-0.262-0.325-0.349-0.54s-0.13-0.464-0.13-0.747c0-0.275,0.037-0.523,0.111-0.746     c0.074-0.222,0.18-0.413,0.317-0.571c0.138-0.158,0.304-0.28,0.501-0.365S88.559,18.519,88.805,18.519z M88.755,19.017     c-0.243,0-0.442,0.072-0.598,0.214c-0.155,0.143-0.257,0.365-0.306,0.666h1.732c0-0.142-0.02-0.267-0.061-0.377     c-0.041-0.109-0.1-0.202-0.173-0.277c-0.074-0.075-0.162-0.132-0.265-0.169C88.984,19.036,88.874,19.017,88.755,19.017z"/>
		</g>
		<g class="st2">
			<path class="st9" d="M85.573,25.438c0-0.227,0.085-0.419,0.255-0.578c0.17-0.158,0.379-0.237,0.625-0.237     c0.242,0,0.446,0.078,0.613,0.235c0.166,0.157,0.25,0.35,0.25,0.58c0,0.259-0.121,0.473-0.361,0.641     c0.268,0.155,0.402,0.384,0.402,0.686c0,0.24-0.087,0.438-0.262,0.594c-0.174,0.157-0.395,0.235-0.659,0.235     c-0.263,0-0.483-0.08-0.662-0.24c-0.179-0.16-0.268-0.358-0.268-0.593c0-0.295,0.138-0.522,0.411-0.682     c-0.123-0.1-0.211-0.199-0.265-0.297C85.6,25.683,85.573,25.568,85.573,25.438z M86.938,26.782v-0.042     c0-0.133-0.048-0.241-0.142-0.325c-0.096-0.083-0.219-0.125-0.369-0.125c-0.147,0-0.268,0.042-0.361,0.126     s-0.141,0.194-0.141,0.328s0.048,0.244,0.144,0.328c0.095,0.084,0.22,0.126,0.371,0.126c0.146,0,0.265-0.039,0.358-0.116     C86.892,27.005,86.938,26.905,86.938,26.782z M86.903,25.451c0-0.126-0.044-0.229-0.13-0.312     c-0.086-0.082-0.195-0.122-0.328-0.122c-0.135,0-0.244,0.04-0.33,0.12c-0.086,0.081-0.129,0.184-0.129,0.31     c0,0.12,0.045,0.223,0.136,0.309s0.2,0.129,0.327,0.129c0.125,0,0.232-0.042,0.321-0.128     C86.859,25.672,86.903,25.57,86.903,25.451z"/>
			<path class="st9" d="M89.426,24.627c0.178,0,0.33,0.064,0.457,0.191c0.125,0.127,0.188,0.28,0.188,0.459     c0,0.177-0.063,0.33-0.189,0.457c-0.127,0.127-0.278,0.191-0.455,0.191c-0.178,0-0.328-0.064-0.455-0.191     c-0.127-0.127-0.189-0.279-0.189-0.457c0-0.179,0.063-0.332,0.188-0.459C89.096,24.691,89.248,24.627,89.426,24.627z      M90.893,24.619h0.321l-1.905,2.975h-0.32L90.893,24.619z M89.42,24.942c-0.092,0-0.171,0.033-0.236,0.099     s-0.098,0.145-0.098,0.237c0,0.091,0.033,0.169,0.099,0.234c0.066,0.065,0.146,0.097,0.235,0.097     c0.093,0,0.172-0.032,0.237-0.097s0.099-0.143,0.099-0.234c0-0.094-0.033-0.173-0.098-0.238S89.514,24.942,89.42,24.942z      M90.794,26.298c0.177,0,0.329,0.063,0.456,0.19s0.189,0.278,0.189,0.456s-0.063,0.328-0.189,0.452     c-0.126,0.124-0.277,0.186-0.456,0.186c-0.18,0-0.333-0.062-0.459-0.186s-0.189-0.274-0.189-0.452     c0-0.178,0.063-0.331,0.19-0.457S90.615,26.298,90.794,26.298z M90.789,26.614c-0.09,0-0.168,0.033-0.232,0.097     c-0.064,0.065-0.096,0.143-0.096,0.234c0,0.093,0.031,0.172,0.096,0.237s0.143,0.098,0.232,0.098     c0.094,0,0.174-0.032,0.238-0.097s0.098-0.144,0.098-0.238c0-0.092-0.033-0.17-0.098-0.235     C90.963,26.646,90.883,26.614,90.789,26.614z"/>
		</g>
	</g>
	<g class="st2">
		<path class="st12" d="M57.554,6.27v0.807c-0.175-0.038-0.347-0.062-0.517-0.072c-0.17-0.01-0.354-0.015-0.551-0.015h-1.045v3.75    c0,0.43,0.004,0.81,0.015,1.14s0.034,0.582,0.071,0.756h-1.002c0.039-0.174,0.063-0.426,0.072-0.756s0.016-0.71,0.016-1.14v-3.75    H53.59c-0.195,0-0.378,0.005-0.549,0.015c-0.172,0.01-0.345,0.034-0.52,0.072V6.27H57.554z"/>
	</g>
	<g class="st2">
		<path class="st12" d="M28.025,20.988h3.485V15.32h3.224v5.667h5.663v2.529h-5.663v8.022c0,0.896,0.043,1.628,0.131,2.197    c0.087,0.57,0.22,1.015,0.4,1.334c0.18,0.32,0.41,0.537,0.688,0.654c0.279,0.115,0.616,0.174,1.011,0.174    c0.499,0,1.063-0.11,1.69-0.332c0.627-0.221,1.325-0.546,2.091-0.976v2.791c-0.802,0.523-1.568,0.887-2.3,1.09    s-1.406,0.305-2.021,0.305c-0.686,0-1.325-0.078-1.917-0.234c-0.592-0.158-1.112-0.434-1.56-0.829s-0.799-0.921-1.054-1.578    c-0.256-0.657-0.383-1.491-0.383-2.502V23.517h-3.485V20.988z"/>
	</g>
	<g class="st2">
		<path class="st12" d="M14.356,6.521l1.716,0.018v0.247h-1.725l0.019,5.308v0.247c0,0.39,0.052,0.646,0.155,0.767    c0.091,0.116,0.249,0.174,0.475,0.174c0.377,0,0.681-0.253,0.913-0.758c0.042-0.091,0.155-0.38,0.338-0.868l0.146,0.292    c-0.231,0.603-0.399,0.98-0.502,1.132c-0.231,0.299-0.563,0.448-0.995,0.448c-0.615,0-0.992-0.073-1.132-0.219    c-0.176-0.146-0.262-0.484-0.255-1.014l-0.009-7.463h0.849L14.356,6.521z"/>
	</g>
	<g class="st2">
		<path class="st12" d="M12.865,44.35h1.245v-2.025h1.152v2.025h2.023v0.902h-2.023v2.866c0,0.319,0.016,0.581,0.046,0.785    c0.031,0.204,0.079,0.362,0.143,0.477c0.064,0.114,0.146,0.192,0.246,0.233s0.22,0.063,0.361,0.063    c0.179,0,0.38-0.039,0.604-0.119c0.224-0.078,0.473-0.194,0.747-0.348v0.996c-0.287,0.188-0.56,0.316-0.822,0.39    c-0.261,0.072-0.502,0.108-0.722,0.108c-0.245,0-0.473-0.027-0.685-0.084c-0.212-0.056-0.397-0.154-0.557-0.295    c-0.16-0.142-0.286-0.33-0.376-0.564c-0.091-0.234-0.137-0.533-0.137-0.895v-3.613h-1.245V44.35z"/>
	</g>
	<g class="st2">
		<path class="st11" d="M20.438,45.366c0.272,0,0.513,0.032,0.722,0.097s0.39,0.154,0.543,0.27c0.152,0.114,0.28,0.248,0.383,0.4    c0.103,0.153,0.185,0.318,0.246,0.494c0.062,0.176,0.105,0.359,0.132,0.551c0.026,0.19,0.04,0.379,0.04,0.564v0.195    c0,0.082-0.001,0.147-0.005,0.193h-3.53c0.01,0.293,0.056,0.547,0.137,0.763c0.082,0.216,0.192,0.395,0.333,0.536    c0.141,0.141,0.307,0.246,0.498,0.316c0.191,0.069,0.399,0.104,0.625,0.104c0.322,0,0.637-0.035,0.946-0.109    c0.309-0.072,0.616-0.202,0.921-0.389l0.1,0.822c-0.176,0.09-0.349,0.166-0.518,0.229c-0.169,0.063-0.339,0.114-0.508,0.154    c-0.169,0.04-0.341,0.069-0.516,0.087c-0.174,0.019-0.357,0.027-0.55,0.027c-0.319,0-0.623-0.055-0.911-0.166    s-0.542-0.275-0.762-0.494c-0.219-0.217-0.394-0.486-0.523-0.809s-0.194-0.696-0.194-1.121c0-0.412,0.055-0.785,0.167-1.119    s0.27-0.619,0.476-0.857c0.206-0.236,0.456-0.42,0.752-0.548C19.737,45.43,20.069,45.366,20.438,45.366z M20.363,46.113    c-0.365,0-0.664,0.107-0.896,0.321c-0.232,0.214-0.385,0.548-0.458,0.999h2.599c0-0.213-0.031-0.4-0.092-0.565    s-0.147-0.304-0.259-0.416s-0.243-0.198-0.396-0.254C20.708,46.142,20.542,46.113,20.363,46.113z M22.399,42.576l-2.091,2.143    h-0.797l1.743-2.143H22.399z"/>
		<path class="st11" d="M24.894,48.182c0,0.158,0.002,0.347,0.007,0.563s0.012,0.436,0.02,0.658s0.018,0.435,0.03,0.637    c0.012,0.203,0.025,0.373,0.042,0.509h-1.021v-5.63c0-0.485-0.008-0.925-0.025-1.318s-0.042-0.734-0.075-1.023h1.021V48.182z"/>
		<path class="st11" d="M28.703,45.366c0.272,0,0.513,0.032,0.722,0.097s0.39,0.154,0.543,0.27c0.152,0.114,0.28,0.248,0.383,0.4    c0.103,0.153,0.185,0.318,0.246,0.494c0.062,0.176,0.105,0.359,0.132,0.551c0.026,0.19,0.04,0.379,0.04,0.564v0.195    c0,0.082-0.001,0.147-0.005,0.193h-3.53c0.01,0.293,0.056,0.547,0.137,0.763c0.082,0.216,0.192,0.395,0.333,0.536    c0.141,0.141,0.307,0.246,0.498,0.316c0.191,0.069,0.399,0.104,0.625,0.104c0.322,0,0.637-0.035,0.946-0.109    c0.309-0.072,0.616-0.202,0.921-0.389l0.1,0.822c-0.176,0.09-0.349,0.166-0.518,0.229c-0.169,0.063-0.339,0.114-0.508,0.154    c-0.169,0.04-0.341,0.069-0.516,0.087c-0.174,0.019-0.357,0.027-0.55,0.027c-0.319,0-0.623-0.055-0.911-0.166    s-0.542-0.275-0.762-0.494c-0.219-0.217-0.394-0.486-0.523-0.809s-0.194-0.696-0.194-1.121c0-0.412,0.055-0.785,0.167-1.119    s0.27-0.619,0.476-0.857c0.206-0.236,0.456-0.42,0.752-0.548C28.002,45.43,28.334,45.366,28.703,45.366z M28.628,46.113    c-0.365,0-0.664,0.107-0.896,0.321c-0.232,0.214-0.385,0.548-0.458,0.999h2.599c0-0.213-0.031-0.4-0.092-0.565    s-0.147-0.304-0.259-0.416s-0.243-0.198-0.396-0.254C28.973,46.142,28.807,46.113,28.628,46.113z M30.664,42.576l-2.091,2.143    h-0.797l1.743-2.143H30.664z"/>
	</g>
	<g class="st2">
		<path class="st13" d="M31.835,48.131c0-0.309-0.002-0.595-0.007-0.859c-0.005-0.264-0.016-0.506-0.032-0.727    s-0.042-0.422-0.075-0.602c-0.033-0.179-0.078-0.338-0.134-0.478h0.896c0.037,0.087,0.073,0.208,0.109,0.366    s0.066,0.352,0.09,0.58c0.116-0.152,0.243-0.294,0.381-0.424c0.138-0.129,0.284-0.239,0.438-0.331    c0.154-0.091,0.317-0.163,0.488-0.214c0.171-0.052,0.35-0.077,0.535-0.077c0.282,0,0.541,0.062,0.774,0.187    s0.433,0.299,0.597,0.523c0.165,0.225,0.292,0.49,0.383,0.797c0.091,0.308,0.137,0.644,0.137,1.01c0,0.425-0.06,0.809-0.179,1.152    c-0.12,0.344-0.281,0.638-0.485,0.88c-0.204,0.243-0.444,0.429-0.72,0.561s-0.569,0.196-0.881,0.196    c-0.133,0-0.258-0.013-0.376-0.039c-0.118-0.027-0.232-0.063-0.344-0.109c-0.111-0.047-0.221-0.104-0.331-0.172    c-0.109-0.068-0.224-0.145-0.343-0.227v1.17c0,0.199,0.002,0.38,0.007,0.541s0.012,0.31,0.022,0.445    c0.01,0.137,0.023,0.262,0.04,0.377c0.017,0.114,0.035,0.225,0.055,0.331h-1.046V48.131z M34.151,49.85    c0.176,0,0.344-0.041,0.505-0.124c0.161-0.083,0.303-0.203,0.428-0.361c0.125-0.157,0.224-0.349,0.299-0.573    c0.075-0.224,0.112-0.477,0.112-0.76c0-0.275-0.026-0.525-0.077-0.75c-0.052-0.224-0.127-0.414-0.227-0.572    s-0.22-0.279-0.361-0.366s-0.301-0.13-0.48-0.13c-0.143,0-0.289,0.031-0.438,0.095s-0.294,0.156-0.436,0.279    c-0.141,0.122-0.273,0.276-0.396,0.46c-0.123,0.186-0.23,0.396-0.323,0.637v1.568c0.169,0.12,0.316,0.219,0.44,0.297    s0.238,0.14,0.341,0.185c0.103,0.044,0.202,0.075,0.296,0.092S34.035,49.85,34.151,49.85z"/>
		<path class="st13" d="M40.423,45.366c0.531,0,0.938,0.173,1.22,0.521s0.423,0.863,0.423,1.547v3.114h-0.921v-2.74    c0-0.313-0.021-0.569-0.063-0.772s-0.104-0.363-0.187-0.48c-0.083-0.118-0.187-0.201-0.311-0.247s-0.27-0.069-0.436-0.069    c-0.179,0-0.354,0.042-0.525,0.127c-0.171,0.084-0.328,0.193-0.471,0.328s-0.269,0.287-0.378,0.457    c-0.109,0.169-0.191,0.338-0.244,0.508v2.89H37.61v-5.63c0-0.539-0.003-1.01-0.01-1.413s-0.028-0.714-0.065-0.929h0.996v3.836    c0.246-0.349,0.534-0.61,0.866-0.785C39.729,45.453,40.072,45.366,40.423,45.366z"/>
	</g>
	<g class="st2">
		<path class="st11" d="M42.928,48.031c0-0.428,0.064-0.808,0.194-1.139c0.129-0.33,0.304-0.609,0.523-0.836    c0.219-0.229,0.475-0.4,0.767-0.516c0.292-0.117,0.603-0.175,0.931-0.175c0.342,0,0.655,0.058,0.938,0.175    c0.284,0.115,0.528,0.287,0.732,0.516c0.204,0.227,0.362,0.506,0.475,0.836c0.113,0.331,0.169,0.711,0.169,1.139    c0,0.429-0.065,0.808-0.194,1.137c-0.129,0.328-0.304,0.604-0.522,0.826c-0.219,0.223-0.475,0.392-0.767,0.506    c-0.292,0.115-0.603,0.172-0.931,0.172c-0.342,0-0.655-0.057-0.938-0.172c-0.284-0.114-0.528-0.283-0.732-0.506    c-0.204-0.222-0.363-0.498-0.476-0.826C42.984,48.839,42.928,48.46,42.928,48.031z M43.849,48.031    c0,0.289,0.035,0.549,0.104,0.777c0.07,0.229,0.168,0.423,0.296,0.581c0.127,0.157,0.279,0.278,0.456,0.36    c0.176,0.084,0.372,0.125,0.587,0.125c0.199,0,0.387-0.041,0.563-0.125c0.176-0.082,0.329-0.203,0.46-0.36    c0.131-0.158,0.234-0.352,0.309-0.581c0.075-0.229,0.112-0.488,0.112-0.777c0-0.292-0.035-0.553-0.104-0.784    c-0.07-0.231-0.169-0.427-0.296-0.588c-0.128-0.161-0.281-0.284-0.458-0.369c-0.178-0.085-0.373-0.127-0.585-0.127    c-0.203,0-0.392,0.042-0.568,0.127c-0.176,0.085-0.329,0.208-0.458,0.369s-0.231,0.356-0.306,0.588S43.849,47.739,43.849,48.031z"/>
		<path class="st11" d="M51.711,45.366c0.531,0,0.938,0.173,1.219,0.521c0.283,0.348,0.424,0.863,0.424,1.547v3.114h-0.922v-2.74    c0-0.313-0.02-0.569-0.062-0.772s-0.103-0.363-0.185-0.48c-0.081-0.118-0.184-0.201-0.309-0.247    c-0.124-0.046-0.271-0.069-0.44-0.069c-0.179,0-0.354,0.042-0.524,0.127c-0.172,0.084-0.328,0.193-0.471,0.328    s-0.27,0.287-0.379,0.457c-0.109,0.169-0.191,0.338-0.244,0.508v2.89h-0.921v-3.064c0-0.491-0.027-0.907-0.082-1.248    s-0.11-0.597-0.167-0.77h0.896c0.02,0.054,0.039,0.122,0.06,0.206c0.021,0.086,0.038,0.174,0.055,0.268    c0.017,0.093,0.032,0.184,0.045,0.273l0.04,0.225c0.314-0.379,0.634-0.652,0.955-0.82C51.021,45.449,51.358,45.366,51.711,45.366z    "/>
		<path class="st11" d="M56.893,45.366c0.272,0,0.514,0.032,0.723,0.097s0.39,0.154,0.543,0.27c0.152,0.114,0.279,0.248,0.383,0.4    c0.103,0.153,0.186,0.318,0.246,0.494c0.062,0.176,0.105,0.359,0.133,0.551c0.025,0.19,0.039,0.379,0.039,0.564v0.195    c0,0.082-0.002,0.147-0.005,0.193h-3.53c0.01,0.293,0.057,0.547,0.137,0.763c0.082,0.216,0.193,0.395,0.334,0.536    c0.141,0.141,0.307,0.246,0.498,0.316c0.191,0.069,0.398,0.104,0.625,0.104c0.322,0,0.637-0.035,0.945-0.109    c0.309-0.072,0.616-0.202,0.922-0.389l0.1,0.822c-0.176,0.09-0.35,0.166-0.518,0.229c-0.17,0.063-0.34,0.114-0.508,0.154    c-0.17,0.04-0.342,0.069-0.516,0.087c-0.174,0.019-0.357,0.027-0.551,0.027c-0.318,0-0.622-0.055-0.91-0.166    c-0.289-0.111-0.543-0.275-0.762-0.494c-0.22-0.217-0.395-0.486-0.523-0.809s-0.193-0.696-0.193-1.121    c0-0.412,0.055-0.785,0.166-1.119s0.27-0.619,0.476-0.857c0.206-0.236,0.456-0.42,0.752-0.548    C56.192,45.43,56.524,45.366,56.893,45.366z M56.818,46.113c-0.365,0-0.664,0.107-0.896,0.321s-0.385,0.548-0.458,0.999h2.599    c0-0.213-0.03-0.4-0.092-0.565s-0.147-0.304-0.259-0.416s-0.243-0.198-0.396-0.254C57.164,46.142,56.998,46.113,56.818,46.113z"/>
	</g>
	<path class="st14" d="M83.9,13.1"/>
	<g>
		<path class="st15" d="M12.6,26.1v-5.7c0,0,0.2-1.8-2.4-1.8s-7.5,0-7.5,0s-2.1-0.1-2.1,1.9v1.6H0.5v1.6h0.1v0.8H0.5v1.6h0.1V39    c0,0-0.1,1.9,2.3,1.9s7.5,0,7.5,0s2.2,0.2,2.2-1.9s0-11.3,0-11.3h0.1v-1.5L12.6,26.1z"/>
		<path class="st12" d="M9.9,19.7c0,0.1-0.1,0.2-0.2,0.2c-0.1,0-0.2-0.1-0.2-0.2s0.1-0.2,0.2-0.2C9.8,19.5,9.9,19.6,9.9,19.7z"/>
		<path class="st12" d="M4.8,19.5c0,0.1-0.1,0.2-0.2,0.2s-0.2-0.1-0.2-0.2s0.1-0.2,0.2-0.2S4.8,19.5,4.8,19.5z"/>
		<path class="st12" d="M4.2,19.5c0,0.1-0.1,0.2-0.2,0.2c-0.1,0-0.2-0.1-0.2-0.2s0.1-0.2,0.2-0.2C4.1,19.4,4.2,19.5,4.2,19.5z"/>
		<path class="st16" d="M7.7,19.5c0,0.1-0.1,0.2-0.2,0.2H5.6c-0.1,0-0.2-0.1-0.2-0.2l0,0c0-0.1,0.1-0.2,0.2-0.2h1.9    C7.6,19.4,7.7,19.4,7.7,19.5L7.7,19.5z"/>
		<rect x="2.3" y="39.2" class="st16" width="1.3" height="0.8"/>
		<path class="st17" d="M7.9,39.6c0,0.3-0.3,0.5-0.6,0.5H5.9c-0.3,0-0.6-0.2-0.6-0.5l0,0c0-0.3,0.3-0.5,0.6-0.5h1.4    C7.6,39.1,7.9,39.3,7.9,39.6L7.9,39.6z"/>
		<polygon class="st17" points="11,40.1 11,39.2 9.3,39.6   "/>
		<rect x="1.3" y="21" class="st18" width="10.6" height="17.3"/>
		<path class="st16" d="M4.3,28.6c0,0.6-0.5,1-1,1c-0.6,0-1-0.5-1-1c0-0.6,0.5-1,1-1S4.3,28.1,4.3,28.6z"/>
		<path class="st16" d="M7.7,28.6c0,0.6-0.5,1-1,1c-0.6,0-1-0.5-1-1c0-0.6,0.5-1,1-1S7.7,28.1,7.7,28.6z"/>
		<path class="st16" d="M10.8,28.6c0,0.6-0.5,1-1,1c-0.6,0-1-0.5-1-1c0-0.6,0.5-1,1-1C10.4,27.6,10.8,28.1,10.8,28.6z"/>
		<path class="st16" d="M4.3,31.4c0,0.6-0.5,1-1,1c-0.6,0-1-0.5-1-1s0.5-1,1-1C3.8,30.3,4.3,30.8,4.3,31.4z"/>
		<path class="st16" d="M7.7,31.4c0,0.6-0.5,1-1,1c-0.6,0-1-0.5-1-1s0.5-1,1-1C7.2,30.3,7.7,30.8,7.7,31.4z"/>
		<path class="st16" d="M10.8,31.4c0,0.6-0.5,1-1,1c-0.6,0-1-0.5-1-1s0.5-1,1-1C10.4,30.3,10.8,30.8,10.8,31.4z"/>
		<path class="st16" d="M4.3,34.1c0,0.6-0.5,1-1,1c-0.6,0-1-0.5-1-1c0-0.6,0.5-1,1-1C3.8,33,4.3,33.5,4.3,34.1z"/>
		<path class="st19" d="M7.7,34.1c0,0.6-0.5,1-1,1c-0.6,0-1-0.5-1-1c0-0.6,0.5-1,1-1C7.2,33,7.7,33.5,7.7,34.1z"/>
		<path class="st19" d="M7.7,36.8c0,0.6-0.5,1-1,1c-0.6,0-1-0.5-1-1c0-0.6,0.5-1,1-1C7.2,35.7,7.7,36.2,7.7,36.8z"/>
		<path class="st16" d="M10.8,34.1c0,0.6-0.5,1-1,1c-0.6,0-1-0.5-1-1c0-0.6,0.5-1,1-1C10.4,33,10.8,33.5,10.8,34.1z"/>
		<path class="st20" d="M12.6,26.2v-5.7c0,0,0.2-1.8-2.4-1.8s-7.5,0-7.5,0s-2.1-0.1-2.1,1.9v1.6H0.5v1.6h0.1v0.8H0.5v1.6h0.1V39    c0,0-0.1,1.9,2.3,1.9s7.5,0,7.5,0s2.2,0.2,2.2-1.9s0-11.3,0-11.3h0.1v-1.5H12.6z"/>
	</g>
</g>
</svg>