<?xml version="1.0" encoding="UTF-8"?>
<!-- Generator: Adobe Illustrator 24.0.2, SVG Export Plug-In . SVG Version: 6.00 Build 0)  -->
<svg version="1.1" id="Calque_1" xmlns="http://www.w3.org/2000/svg" xmlns:xlink="http://www.w3.org/1999/xlink" x="0px" y="0px" viewBox="0 0 114 72" style="enable-background:new 0 0 114 72;" xml:space="preserve">
<style type="text/css">
	.st0{fill:#FFFFFF;stroke:#DADADA;stroke-width:0.7269;stroke-miterlimit:10;}
	.st1{fill:#FFFFFF;stroke:#000000;stroke-width:0.9692;stroke-miterlimit:10;}
	.st2{fill:none;stroke:#B2B2B2;stroke-width:0.3634;stroke-miterlimit:10;}
	.st3{enable-background:new    ;}
	.st4{fill:#878787;}
	.st5{fill:#575756;}
	.st6{opacity:0.6;enable-background:new    ;}
	.st7{fill:#E11683;}
	.st8{fill:#B2B2B2;}
	.st9{opacity:0.8;enable-background:new    ;}
	.st10{fill:#7FC7EB;}
	.st11{fill:#FFFFFF;}
	.st12{fill:#E11683;stroke:#575756;stroke-width:0.0897;stroke-linecap:round;stroke-linejoin:round;stroke-miterlimit:10;}
	.st13{fill:none;stroke:#575756;stroke-width:0.5231;stroke-linecap:round;stroke-linejoin:round;stroke-miterlimit:10;}
	.st14{fill:none;stroke:#575756;stroke-width:0.1744;stroke-linecap:round;stroke-linejoin:round;stroke-miterlimit:10;}
</style>
<g id="_x3C_Groupe_x3E__usine">
	<rect x="78" y="47" class="st0" width="35.4" height="12.1"/>
	<rect x="78" y="34.9" class="st0" width="35.4" height="12.1"/>
	<path class="st1" d="M54.2,59H19.9V1H78v58H61.4c0,0-5.4,9.7-14.2,11.5C47.1,70.5,52.4,67,54.2,59z"/>
	<path class="st2" d="M35.7,54.9c0,0,2.7,1.9,6.1,0"/>
	<path class="st2" d="M52.3,54.9c0.3,0.1,4.5,2.2,10.4,0"/>
	<path class="st2" d="M43,54.9c0.2,0.1,3.1,2.2,7.3,0"/>
	<g class="st3">
		<path class="st4" d="M23.778,63.18h1.442v0.163h-0.609c-0.133,0-0.223,0.042-0.271,0.126c-0.027,0.047-0.04,0.108-0.04,0.184v4.59    c0,0.101,0.014,0.176,0.043,0.227c0.05,0.086,0.147,0.13,0.291,0.13h0.585v0.173h-1.442V63.18z"/>
		<path class="st4" d="M27.061,69.053c-0.04,0.005-0.086,0.008-0.137,0.008c-0.209,0-0.349-0.066-0.418-0.199    c0-0.039,0.032-0.125,0.095-0.254c0.067-0.135,0.115-0.202,0.144-0.202c0.1,0.271,0.208,0.413,0.323,0.43    c0.215,0,0.359-0.095,0.432-0.286l0.226-0.594c0.078-0.203,0.117-0.412,0.117-0.628c0-0.088-0.01-0.156-0.029-0.205    c-0.002-0.003-0.092-0.233-0.27-0.69l-0.613-1.569c-0.057-0.146-0.164-0.229-0.32-0.249c-0.065-0.01-0.099-0.026-0.099-0.051    c0.014-0.055,0.103-0.082,0.268-0.082h0.699c0.195,0,0.293,0.029,0.294,0.089c-0.005,0.024-0.055,0.045-0.149,0.062    c-0.063,0.01-0.124,0.021-0.186,0.031c-0.038,0.013-0.057,0.047-0.057,0.105c0,0.027,0.006,0.059,0.02,0.095    c0,0.001,0.077,0.202,0.23,0.603l0.523,1.37l0.727-1.843c0.024-0.063,0.036-0.113,0.036-0.15c0-0.121-0.097-0.197-0.291-0.227    c-0.08-0.01-0.121-0.021-0.121-0.033c0-0.063,0.094-0.094,0.281-0.094h0.542c0.123,0,0.184,0.01,0.184,0.033    c0,0.031-0.038,0.064-0.115,0.1c-0.056,0.026-0.111,0.053-0.167,0.078c-0.05,0.032-0.096,0.101-0.136,0.205    c-0.027,0.066-0.17,0.439-0.43,1.119l-0.975,2.552c-0.048,0.126-0.131,0.233-0.249,0.321    C27.324,68.986,27.197,69.037,27.061,69.053z"/>
		<path class="st4" d="M32.234,68.771h-1.445v-0.166h0.612c0.205,0,0.308-0.103,0.308-0.307v-4.593c0-0.235-0.11-0.353-0.331-0.353    h-0.589V63.18h1.445V68.771z"/>
	</g>
	<g class="st3">
		<path class="st4" d="M65.102,63.901v0.399h-1.455v0.6c0,0.249,0.002,0.468,0.005,0.656c0.003,0.189,0.015,0.334,0.032,0.432    h-0.552c0.019-0.1,0.029-0.244,0.032-0.434c0.004-0.189,0.006-0.407,0.006-0.654v-1.812c0-0.112-0.002-0.214-0.004-0.309    c-0.003-0.095-0.006-0.179-0.012-0.254c-0.005-0.075-0.012-0.138-0.022-0.188h2.183v0.413h-1.668v1.149H65.102z"/>
		<path class="st4" d="M65.854,64.727c0-0.215,0.033-0.406,0.098-0.572c0.066-0.165,0.154-0.305,0.264-0.42    c0.111-0.113,0.24-0.199,0.387-0.258c0.147-0.059,0.304-0.088,0.469-0.088c0.173,0,0.33,0.029,0.474,0.088    c0.143,0.059,0.266,0.145,0.368,0.258c0.104,0.115,0.184,0.255,0.24,0.42c0.057,0.166,0.085,0.357,0.085,0.572    s-0.032,0.404-0.098,0.569s-0.153,0.304-0.264,0.415s-0.239,0.196-0.386,0.254c-0.147,0.057-0.305,0.086-0.47,0.086    c-0.173,0-0.329-0.029-0.473-0.086c-0.144-0.058-0.267-0.143-0.369-0.254s-0.183-0.25-0.239-0.415S65.854,64.941,65.854,64.727z     M66.318,64.727c0,0.145,0.018,0.274,0.053,0.389c0.035,0.115,0.084,0.213,0.148,0.292s0.142,0.14,0.23,0.181    c0.088,0.042,0.188,0.063,0.296,0.063c0.101,0,0.194-0.021,0.283-0.063c0.089-0.041,0.166-0.102,0.231-0.181    c0.066-0.079,0.119-0.177,0.156-0.292c0.037-0.114,0.057-0.244,0.057-0.389c0-0.146-0.018-0.278-0.053-0.395    c-0.035-0.115-0.085-0.214-0.149-0.295c-0.064-0.08-0.142-0.143-0.231-0.185c-0.089-0.042-0.188-0.063-0.294-0.063    c-0.103,0-0.198,0.021-0.286,0.063c-0.089,0.042-0.166,0.104-0.23,0.185c-0.065,0.081-0.117,0.18-0.154,0.295    C66.337,64.448,66.318,64.58,66.318,64.727z"/>
		<path class="st4" d="M68.864,65.988v-1.537c0-0.246-0.014-0.455-0.041-0.626c-0.028-0.171-0.056-0.3-0.085-0.386h0.452    c0.021,0.046,0.038,0.104,0.054,0.176c0.016,0.07,0.029,0.149,0.041,0.236c0.01,0.086,0.019,0.179,0.023,0.277    c0.005,0.098,0.008,0.197,0.008,0.297v0.162c0.085-0.234,0.168-0.429,0.25-0.583s0.164-0.276,0.245-0.368s0.163-0.156,0.245-0.193    c0.082-0.036,0.165-0.055,0.25-0.055c0.064,0,0.123,0.006,0.176,0.018c0.054,0.012,0.107,0.031,0.163,0.058l-0.075,0.462    c-0.049-0.02-0.092-0.033-0.128-0.039c-0.036-0.008-0.082-0.011-0.136-0.011c-0.068,0-0.141,0.028-0.215,0.087    c-0.076,0.057-0.15,0.133-0.223,0.229c-0.072,0.095-0.142,0.202-0.207,0.322c-0.064,0.12-0.123,0.242-0.172,0.369    c-0.049,0.125-0.088,0.248-0.117,0.368s-0.045,0.227-0.045,0.319c0,0.042,0.001,0.08,0.002,0.115c0,0.035,0.003,0.068,0.008,0.102    c0.004,0.032,0.01,0.064,0.016,0.098c0.007,0.032,0.016,0.066,0.025,0.104H68.864z"/>
		<path class="st4" d="M72.252,63.389c0.166,0,0.311,0.02,0.432,0.059s0.229,0.091,0.32,0.154l-0.088,0.449    c-0.113-0.083-0.227-0.146-0.338-0.188c-0.113-0.041-0.234-0.063-0.364-0.063c-0.112,0-0.216,0.021-0.313,0.064    c-0.097,0.042-0.18,0.104-0.251,0.184c-0.07,0.08-0.127,0.178-0.166,0.295c-0.041,0.117-0.061,0.248-0.061,0.395    c0,0.135,0.018,0.258,0.055,0.367c0.037,0.11,0.09,0.205,0.158,0.284s0.151,0.141,0.248,0.184    c0.098,0.044,0.207,0.065,0.329,0.065c0.151,0,0.29-0.026,0.414-0.078c0.124-0.051,0.241-0.125,0.351-0.223l0.051,0.438    c-0.064,0.049-0.127,0.09-0.189,0.124s-0.129,0.063-0.197,0.085s-0.143,0.039-0.221,0.051c-0.078,0.01-0.164,0.016-0.258,0.016    c-0.17,0-0.328-0.029-0.475-0.089c-0.147-0.06-0.275-0.145-0.387-0.256c-0.109-0.112-0.197-0.247-0.261-0.405    s-0.095-0.338-0.095-0.537c0-0.188,0.03-0.365,0.092-0.533c0.061-0.166,0.147-0.313,0.26-0.437    c0.113-0.125,0.25-0.224,0.412-0.296C71.872,63.425,72.053,63.389,72.252,63.389z"/>
		<path class="st4" d="M74.709,63.389c0.138,0,0.26,0.017,0.364,0.049c0.105,0.033,0.196,0.078,0.273,0.135    c0.077,0.058,0.142,0.125,0.193,0.201c0.052,0.077,0.093,0.16,0.124,0.248s0.053,0.18,0.066,0.275s0.021,0.191,0.021,0.284v0.098    c0,0.042-0.001,0.074-0.003,0.097H73.97c0.005,0.147,0.028,0.275,0.069,0.383c0.041,0.108,0.097,0.198,0.168,0.27    c0.07,0.07,0.154,0.123,0.25,0.158c0.097,0.035,0.201,0.053,0.315,0.053c0.162,0,0.321-0.019,0.477-0.055    c0.155-0.037,0.31-0.102,0.464-0.195l0.051,0.412c-0.089,0.045-0.176,0.084-0.262,0.115c-0.085,0.031-0.17,0.057-0.256,0.077    c-0.085,0.021-0.172,0.034-0.26,0.044s-0.18,0.014-0.277,0.014c-0.16,0-0.313-0.027-0.459-0.084    c-0.145-0.056-0.273-0.139-0.383-0.247c-0.111-0.109-0.199-0.245-0.264-0.406c-0.065-0.161-0.098-0.349-0.098-0.563    c0-0.206,0.027-0.394,0.084-0.562c0.056-0.167,0.135-0.311,0.239-0.43c0.104-0.119,0.229-0.211,0.379-0.275    C74.357,63.421,74.523,63.389,74.709,63.389z M74.672,63.764c-0.184,0-0.334,0.054-0.451,0.161s-0.194,0.274-0.23,0.501h1.309    c0-0.106-0.016-0.201-0.046-0.283c-0.031-0.082-0.075-0.152-0.13-0.209c-0.057-0.057-0.123-0.1-0.2-0.127    C74.846,63.777,74.762,63.764,74.672,63.764z"/>
	</g>
	<g class="st3">
		<path class="st4" d="M65.726,70.903l-0.309-0.362c0.259-0.164,0.485-0.361,0.68-0.594s0.323-0.471,0.39-0.717    c-0.16,0.1-0.346,0.148-0.561,0.148c-0.268,0-0.496-0.1-0.688-0.298c-0.192-0.198-0.288-0.437-0.288-0.715    c0-0.29,0.103-0.536,0.306-0.737c0.205-0.201,0.453-0.303,0.748-0.303c0.331,0,0.602,0.119,0.813,0.357s0.316,0.545,0.316,0.918    c0,0.423-0.132,0.851-0.396,1.283C66.473,70.316,66.135,70.656,65.726,70.903z M66.584,68.734c0.02-0.134,0.029-0.221,0.029-0.261    c0-0.202-0.057-0.366-0.169-0.495c-0.112-0.128-0.259-0.191-0.436-0.191c-0.162,0-0.296,0.054-0.402,0.163    c-0.106,0.108-0.159,0.246-0.159,0.411c0,0.151,0.058,0.282,0.173,0.393c0.115,0.109,0.253,0.164,0.414,0.164    C66.221,68.918,66.404,68.857,66.584,68.734z"/>
		<path class="st4" d="M68.295,70.903l-0.309-0.362c0.259-0.164,0.485-0.361,0.68-0.594c0.193-0.232,0.323-0.471,0.389-0.717    c-0.159,0.1-0.346,0.148-0.56,0.148c-0.268,0-0.497-0.1-0.688-0.298s-0.287-0.437-0.287-0.715c0-0.29,0.102-0.536,0.306-0.737    s0.453-0.303,0.747-0.303c0.332,0,0.603,0.119,0.813,0.357c0.21,0.238,0.315,0.545,0.315,0.918c0,0.423-0.131,0.851-0.396,1.283    C69.041,70.316,68.704,70.656,68.295,70.903z M69.152,68.734c0.02-0.134,0.03-0.221,0.03-0.261c0-0.202-0.057-0.366-0.169-0.495    c-0.113-0.128-0.259-0.191-0.436-0.191c-0.162,0-0.297,0.054-0.402,0.163c-0.107,0.108-0.16,0.246-0.16,0.411    c0,0.151,0.059,0.282,0.174,0.393c0.115,0.109,0.253,0.164,0.414,0.164C68.79,68.918,68.973,68.857,69.152,68.734z"/>
		<path class="st4" d="M72.238,67.332c0.216,0,0.4,0.076,0.552,0.229c0.152,0.153,0.229,0.337,0.229,0.552    c0,0.214-0.077,0.396-0.229,0.551c-0.153,0.152-0.337,0.229-0.551,0.229c-0.215,0-0.397-0.077-0.551-0.229    c-0.152-0.154-0.229-0.337-0.229-0.551c0-0.215,0.076-0.398,0.229-0.552C71.838,67.408,72.022,67.332,72.238,67.332z     M74.014,67.321H74.4l-2.304,3.582h-0.388L74.014,67.321z M72.232,67.711c-0.112,0-0.207,0.04-0.287,0.119    c-0.079,0.078-0.119,0.174-0.119,0.285c0,0.109,0.041,0.203,0.121,0.281s0.175,0.117,0.285,0.117c0.111,0,0.207-0.039,0.286-0.117    s0.118-0.172,0.118-0.281c0-0.113-0.039-0.209-0.117-0.287S72.346,67.711,72.232,67.711z M73.893,69.344    c0.214,0,0.397,0.076,0.551,0.229c0.154,0.152,0.23,0.336,0.23,0.549s-0.076,0.395-0.229,0.543    c-0.152,0.149-0.337,0.225-0.553,0.225c-0.217,0-0.402-0.075-0.555-0.225c-0.152-0.148-0.229-0.33-0.229-0.543    c0-0.215,0.076-0.398,0.23-0.551C73.492,69.42,73.678,69.344,73.893,69.344z M73.888,69.724c-0.11,0-0.204,0.039-0.281,0.117    c-0.077,0.077-0.116,0.172-0.116,0.281c0,0.111,0.039,0.206,0.116,0.286c0.077,0.078,0.171,0.117,0.281,0.117    c0.113,0,0.21-0.039,0.288-0.117s0.117-0.173,0.117-0.286c0-0.111-0.039-0.206-0.117-0.282    C74.098,69.762,74.001,69.724,73.888,69.724z"/>
	</g>
	<g class="st3">
		<path class="st5" d="M28.473,12.344c-0.515,0.52-1.037,0.78-1.565,0.78c-0.622,0-1.057-0.096-1.305-0.29    c-0.341-0.24-0.512-0.657-0.512-1.25V8.435h0.933v2.799c0,0.414,0.047,0.753,0.141,1.02c0.141,0.4,0.398,0.6,0.773,0.6    c0.227,0,0.475-0.077,0.742-0.23c0.241-0.14,0.488-0.347,0.743-0.62v-0.24v-3.33h0.954v3.1c0,0.413,0.017,0.72,0.05,0.92    c0.041,0.213,0.154,0.32,0.341,0.32c0.114,0,0.228-0.117,0.341-0.35c0.006-0.013,0.181-0.463,0.522-1.35l0.15,0.33    c-0.228,0.66-0.375,1.063-0.441,1.209c-0.188,0.333-0.435,0.503-0.743,0.51C28.934,13.124,28.56,12.864,28.473,12.344z"/>
	</g>
	<g class="st3">
		<path class="st5" d="M71.794,6.449c-0.03,0.183-0.05,0.442-0.058,0.777s-0.012,0.74-0.012,1.216v2.337    c0,0.373-0.049,0.711-0.146,1.015c-0.099,0.304-0.248,0.564-0.449,0.781c-0.201,0.217-0.455,0.384-0.761,0.501    c-0.307,0.118-0.667,0.177-1.081,0.177c-0.42,0-0.784-0.059-1.092-0.177c-0.309-0.117-0.564-0.285-0.767-0.501    c-0.202-0.217-0.353-0.478-0.452-0.781c-0.101-0.304-0.15-0.643-0.15-1.015V8.442c0-0.452-0.004-0.852-0.012-1.198    s-0.026-0.612-0.057-0.795H67.7v4.124c0,0.3,0.026,0.569,0.078,0.809s0.14,0.444,0.263,0.614c0.122,0.17,0.285,0.3,0.487,0.39    c0.202,0.09,0.455,0.135,0.759,0.135c0.297,0,0.546-0.045,0.745-0.135c0.199-0.09,0.359-0.22,0.48-0.39    c0.121-0.169,0.208-0.374,0.26-0.614s0.079-0.509,0.079-0.809V6.449H71.794z"/>
	</g>
	<g class="st3">
		<path class="st5" d="M45.703,40.389c-3.756,0-5.634-2.514-5.634-7.543v-5.175c0-0.561-0.003-1.07-0.009-1.526    s-0.021-0.897-0.044-1.325c-0.024-0.427-0.059-0.862-0.105-1.307c-0.047-0.444-0.112-0.93-0.194-1.456h3.609v9.736    c0,0.994,0.05,1.851,0.149,2.57s0.267,1.31,0.502,1.771c0.235,0.462,0.543,0.804,0.924,1.026c0.381,0.222,0.854,0.333,1.417,0.333    c0.516,0,1.068-0.154,1.655-0.465c0.587-0.31,1.147-0.704,1.682-1.184c0.534-0.479,1.021-1.008,1.461-1.587    c0.44-0.579,0.777-1.137,1.012-1.675v-4.912c0-0.573-0.003-1.09-0.009-1.552s-0.021-0.903-0.044-1.325    c-0.024-0.421-0.059-0.848-0.106-1.28s-0.111-0.918-0.193-1.456h3.609v9.999c0,1.708,0.097,3.201,0.291,4.482    c0.193,1.28,0.478,2.418,0.854,3.412h-2.993c-0.083-0.198-0.17-0.433-0.264-0.702c-0.094-0.269-0.185-0.555-0.273-0.859    c-0.088-0.304-0.17-0.623-0.247-0.955c-0.077-0.334-0.138-0.664-0.185-0.992c-1.068,1.298-2.168,2.281-3.301,2.947    C48.135,40.056,46.947,40.389,45.703,40.389z"/>
	</g>
	<g class="st3">
		<path class="st5" d="M37.508,53.591c-1.338,0-2.008-0.896-2.008-2.688v-1.845c0-0.199-0.001-0.381-0.003-0.543    s-0.007-0.32-0.016-0.473c-0.008-0.151-0.021-0.307-0.038-0.465s-0.04-0.332-0.069-0.52h1.286v3.47    c0,0.354,0.018,0.659,0.054,0.915c0.035,0.257,0.095,0.467,0.179,0.632c0.083,0.165,0.193,0.286,0.329,0.366    c0.136,0.078,0.305,0.118,0.505,0.118c0.184,0,0.38-0.056,0.589-0.165c0.209-0.111,0.409-0.252,0.599-0.422    c0.19-0.172,0.364-0.359,0.521-0.566c0.157-0.206,0.277-0.405,0.361-0.597v-1.751c0-0.203-0.001-0.388-0.003-0.553    c-0.002-0.164-0.007-0.322-0.016-0.472s-0.021-0.302-0.038-0.456s-0.04-0.327-0.069-0.52h1.286v3.563    c0,0.608,0.034,1.141,0.104,1.597c0.069,0.457,0.17,0.861,0.304,1.216H40.3c-0.029-0.071-0.061-0.154-0.094-0.25    c-0.034-0.096-0.066-0.198-0.097-0.306c-0.032-0.109-0.061-0.223-0.088-0.342c-0.027-0.118-0.049-0.236-0.066-0.353    c-0.381,0.462-0.773,0.813-1.176,1.05C38.375,53.473,37.952,53.591,37.508,53.591z"/>
	</g>
	<g class="st6">
		<path class="st7" d="M45.766,48.192c0.182,0,0.354,0.012,0.514,0.035s0.307,0.055,0.44,0.093c0.133,0.039,0.256,0.083,0.367,0.131    c0.111,0.049,0.21,0.098,0.298,0.145l-0.177,0.882c-0.084-0.05-0.18-0.103-0.288-0.159c-0.108-0.055-0.225-0.105-0.352-0.153    c-0.127-0.047-0.262-0.087-0.405-0.118c-0.144-0.032-0.293-0.049-0.448-0.049c-0.186,0-0.342,0.021-0.468,0.061    c-0.126,0.041-0.228,0.092-0.304,0.154c-0.076,0.063-0.13,0.133-0.164,0.212s-0.051,0.155-0.051,0.229    c0,0.087,0.014,0.164,0.041,0.231s0.083,0.13,0.169,0.187s0.208,0.113,0.367,0.166c0.159,0.055,0.371,0.111,0.638,0.172    c0.229,0.051,0.445,0.115,0.647,0.193c0.203,0.08,0.379,0.18,0.531,0.301s0.271,0.266,0.359,0.436    c0.087,0.17,0.131,0.373,0.131,0.607c0,0.229-0.05,0.44-0.152,0.635c-0.101,0.195-0.239,0.366-0.415,0.512    c-0.176,0.146-0.381,0.262-0.617,0.344c-0.236,0.082-0.491,0.123-0.764,0.123c-0.206,0-0.404-0.016-0.594-0.045    c-0.191-0.031-0.37-0.072-0.537-0.127c-0.167-0.053-0.319-0.115-0.458-0.186c-0.138-0.07-0.258-0.145-0.359-0.223l0.253-0.906    c0.115,0.1,0.244,0.193,0.387,0.276c0.143,0.085,0.291,0.156,0.442,0.217s0.304,0.106,0.458,0.139    c0.153,0.032,0.297,0.048,0.433,0.048c0.148,0,0.284-0.02,0.407-0.058s0.229-0.089,0.319-0.151s0.159-0.135,0.21-0.217    c0.05-0.082,0.076-0.167,0.076-0.254c0-0.095-0.02-0.184-0.058-0.266c-0.039-0.082-0.11-0.161-0.212-0.236    c-0.103-0.076-0.245-0.148-0.425-0.22c-0.18-0.07-0.412-0.142-0.695-0.212c-0.307-0.073-0.558-0.16-0.751-0.262    c-0.194-0.101-0.346-0.212-0.456-0.332c-0.109-0.121-0.185-0.252-0.225-0.395c-0.041-0.141-0.061-0.29-0.061-0.447    c0-0.078,0.013-0.168,0.038-0.273c0.025-0.104,0.067-0.212,0.126-0.324c0.059-0.113,0.137-0.224,0.232-0.333    c0.096-0.109,0.217-0.206,0.362-0.292s0.315-0.156,0.511-0.209C45.283,48.219,45.509,48.192,45.766,48.192z"/>
	</g>
	<g class="st3">
		<path class="st8" d="M48.662,46.654c0-0.094,0.015-0.182,0.045-0.264c0.03-0.083,0.074-0.154,0.129-0.217s0.122-0.111,0.2-0.146    s0.164-0.053,0.258-0.053c0.095,0,0.182,0.018,0.263,0.053s0.15,0.084,0.208,0.146c0.057,0.063,0.103,0.134,0.137,0.217    c0.034,0.082,0.05,0.17,0.05,0.264c0,0.095-0.017,0.183-0.05,0.266c-0.034,0.082-0.08,0.154-0.137,0.217    c-0.058,0.062-0.126,0.11-0.208,0.146c-0.081,0.036-0.168,0.054-0.263,0.054c-0.094,0-0.18-0.018-0.258-0.054    c-0.078-0.035-0.144-0.084-0.2-0.146c-0.056-0.063-0.099-0.135-0.129-0.217C48.677,46.837,48.662,46.749,48.662,46.654z     M49.775,51.04c0,0.161,0.002,0.353,0.007,0.572c0.005,0.22,0.012,0.442,0.021,0.668c0.008,0.226,0.018,0.44,0.03,0.646    c0.012,0.205,0.026,0.375,0.043,0.509h-1.037v-2.671c0-0.246-0.001-0.488-0.002-0.727c-0.002-0.238-0.005-0.465-0.01-0.678    c-0.005-0.213-0.013-0.412-0.023-0.596c-0.01-0.183-0.023-0.34-0.041-0.471h1.012V51.04z"/>
	</g>
	<g class="st3">
		<path class="st8" d="M55.329,48.192c0.54,0,0.953,0.175,1.24,0.526c0.287,0.352,0.43,0.873,0.43,1.565v3.15h-0.936v-2.772    c0-0.316-0.021-0.576-0.063-0.781c-0.042-0.205-0.104-0.367-0.187-0.486c-0.083-0.119-0.188-0.203-0.314-0.25    s-0.276-0.07-0.448-0.07c-0.182,0-0.36,0.043-0.534,0.129s-0.333,0.196-0.478,0.332c-0.145,0.137-0.273,0.29-0.385,0.461    c-0.111,0.172-0.194,0.344-0.248,0.515v2.924h-0.936v-3.101c0-0.496-0.028-0.918-0.083-1.262    c-0.056-0.345-0.112-0.604-0.169-0.779h0.911c0.02,0.054,0.041,0.123,0.061,0.209s0.039,0.176,0.056,0.27    c0.017,0.095,0.032,0.188,0.045,0.277l0.041,0.227c0.32-0.383,0.644-0.658,0.972-0.828C54.629,48.277,54.972,48.192,55.329,48.192    z"/>
	</g>
	<g class="st3">
		<path class="st8" d="M60.522,48.192c0.276,0,0.521,0.032,0.733,0.099c0.213,0.064,0.396,0.156,0.552,0.271    c0.155,0.116,0.284,0.252,0.39,0.406c0.104,0.154,0.188,0.32,0.25,0.498c0.063,0.179,0.107,0.365,0.135,0.558    c0.026,0.193,0.04,0.384,0.04,0.572v0.196c0,0.084-0.002,0.15-0.005,0.197h-3.588c0.011,0.295,0.057,0.553,0.14,0.771    c0.083,0.218,0.196,0.398,0.339,0.541c0.144,0.143,0.313,0.25,0.506,0.32c0.194,0.07,0.406,0.105,0.635,0.105    c0.328,0,0.648-0.037,0.962-0.11c0.313-0.074,0.626-0.205,0.937-0.394l0.101,0.832c-0.179,0.091-0.354,0.168-0.526,0.232    c-0.172,0.063-0.344,0.115-0.516,0.156c-0.172,0.039-0.347,0.068-0.523,0.088c-0.178,0.018-0.364,0.027-0.56,0.027    c-0.323,0-0.632-0.057-0.926-0.169s-0.552-0.278-0.774-0.499c-0.223-0.22-0.399-0.493-0.531-0.818    c-0.131-0.326-0.197-0.705-0.197-1.135c0-0.416,0.057-0.794,0.17-1.132c0.113-0.337,0.273-0.626,0.482-0.866    s0.465-0.426,0.765-0.555C59.811,48.257,60.148,48.192,60.522,48.192z M60.446,48.948c-0.37,0-0.675,0.108-0.911,0.325    c-0.235,0.217-0.391,0.554-0.465,1.011h2.641c0-0.215-0.031-0.405-0.094-0.572s-0.149-0.307-0.263-0.421    c-0.112-0.114-0.247-0.199-0.401-0.257C60.797,48.977,60.629,48.948,60.446,48.948z"/>
	</g>
	<g class="st3">
		<path class="st8" d="M85.396,53.506c0,0.42,0.023,0.773,0.07,1.059s0.107,0.521,0.181,0.708h-0.585    c-0.012-0.028-0.027-0.069-0.047-0.12s-0.041-0.109-0.063-0.175s-0.041-0.136-0.06-0.212c-0.019-0.075-0.035-0.15-0.049-0.227    c-0.087,0.111-0.179,0.216-0.276,0.313c-0.097,0.098-0.198,0.185-0.306,0.26c-0.106,0.075-0.218,0.136-0.335,0.179    c-0.115,0.043-0.233,0.064-0.354,0.064c-0.141,0-0.281-0.029-0.42-0.09c-0.14-0.061-0.266-0.15-0.377-0.27    c-0.111-0.12-0.201-0.271-0.271-0.451c-0.069-0.182-0.104-0.395-0.104-0.639c0-0.256,0.029-0.487,0.086-0.695    c0.057-0.207,0.135-0.393,0.232-0.555c0.087-0.143,0.18-0.267,0.277-0.373c0.099-0.107,0.206-0.195,0.323-0.266    c0.117-0.069,0.245-0.122,0.386-0.158c0.141-0.035,0.297-0.053,0.469-0.053c0.085,0,0.18,0.006,0.283,0.018    c0.104,0.013,0.209,0.029,0.317,0.053c0.108,0.021,0.216,0.049,0.323,0.08c0.106,0.031,0.205,0.064,0.297,0.1V53.506z     M84.042,52.373c-0.071,0-0.144,0.008-0.216,0.025c-0.072,0.016-0.144,0.045-0.214,0.084c-0.07,0.041-0.138,0.094-0.204,0.158    c-0.066,0.066-0.128,0.148-0.186,0.249c-0.061,0.103-0.109,0.229-0.146,0.382c-0.037,0.152-0.056,0.309-0.056,0.468    c0,0.185,0.018,0.343,0.053,0.476c0.034,0.132,0.08,0.24,0.137,0.326s0.121,0.148,0.193,0.188c0.072,0.041,0.146,0.061,0.22,0.061    c0.094,0,0.196-0.029,0.306-0.086c0.111-0.059,0.219-0.135,0.323-0.23s0.203-0.205,0.296-0.33    c0.092-0.125,0.169-0.254,0.229-0.387v-1.25c-0.033-0.016-0.076-0.031-0.128-0.047c-0.053-0.015-0.11-0.029-0.175-0.043    c-0.063-0.014-0.132-0.023-0.207-0.031C84.193,52.377,84.117,52.373,84.042,52.373z"/>
	</g>
	<g class="st9">
		<path class="st10" d="M89.027,55.272h-0.619v-1.899c0-0.207-0.008-0.374-0.023-0.502c-0.016-0.127-0.042-0.228-0.078-0.3    c-0.037-0.072-0.087-0.12-0.149-0.146c-0.063-0.023-0.141-0.036-0.234-0.036c-0.083,0-0.165,0.017-0.247,0.05    c-0.083,0.033-0.162,0.08-0.236,0.142s-0.144,0.134-0.207,0.217c-0.064,0.083-0.117,0.175-0.162,0.274v2.2h-0.619v-2.05    c0-0.328-0.02-0.607-0.057-0.834c-0.038-0.229-0.075-0.4-0.111-0.516h0.603c0.024,0.071,0.046,0.154,0.063,0.252    c0.018,0.096,0.033,0.185,0.044,0.265c0.103-0.118,0.2-0.214,0.294-0.29c0.094-0.075,0.188-0.135,0.279-0.178    c0.093-0.044,0.185-0.074,0.276-0.09c0.091-0.018,0.185-0.025,0.28-0.025c0.109,0,0.209,0.016,0.299,0.047    c0.089,0.031,0.168,0.072,0.235,0.123s0.126,0.11,0.176,0.178c0.049,0.068,0.087,0.139,0.113,0.212    c0.104-0.113,0.206-0.206,0.305-0.278s0.194-0.129,0.288-0.17s0.186-0.07,0.275-0.086c0.09-0.018,0.18-0.025,0.266-0.025    c0.17,0,0.313,0.027,0.429,0.082c0.116,0.054,0.209,0.135,0.279,0.241s0.12,0.239,0.15,0.396s0.046,0.34,0.046,0.546v2.2h-0.619    v-1.833c0-0.215-0.008-0.391-0.023-0.526s-0.042-0.242-0.079-0.32c-0.036-0.077-0.087-0.131-0.149-0.159    c-0.063-0.029-0.14-0.044-0.233-0.044c-0.083,0-0.164,0.017-0.244,0.048c-0.081,0.033-0.157,0.078-0.232,0.137    s-0.144,0.131-0.208,0.215c-0.063,0.085-0.119,0.18-0.168,0.283V55.272z"/>
	</g>
	<g class="st3">
		<path class="st8" d="M91.971,55.056v-3.942c0-0.143-0.001-0.285-0.004-0.428c-0.004-0.145-0.009-0.28-0.016-0.41    c-0.006-0.131-0.017-0.242-0.029-0.336h0.668v2.584c0.078-0.103,0.163-0.197,0.254-0.283c0.092-0.088,0.191-0.162,0.297-0.227    s0.221-0.115,0.343-0.152s0.254-0.055,0.395-0.055c0.169,0,0.325,0.041,0.465,0.123c0.141,0.082,0.263,0.197,0.364,0.346    c0.104,0.146,0.184,0.323,0.24,0.527c0.057,0.205,0.085,0.428,0.085,0.67c0,0.287-0.038,0.545-0.116,0.777    c-0.076,0.23-0.186,0.428-0.326,0.593c-0.14,0.164-0.311,0.291-0.51,0.38s-0.423,0.133-0.67,0.133    c-0.137,0-0.268-0.01-0.395-0.027c-0.128-0.02-0.251-0.044-0.37-0.074c-0.12-0.029-0.235-0.063-0.347-0.096    C92.188,55.123,92.078,55.09,91.971,55.056z M93.41,54.84c0.146,0,0.283-0.031,0.408-0.091s0.232-0.144,0.322-0.253    s0.161-0.24,0.213-0.395c0.051-0.154,0.076-0.326,0.076-0.512c0-0.185-0.017-0.352-0.05-0.5c-0.034-0.148-0.082-0.275-0.146-0.379    s-0.143-0.183-0.236-0.238c-0.094-0.055-0.2-0.083-0.32-0.083c-0.105,0-0.21,0.022-0.314,0.068    c-0.105,0.046-0.205,0.109-0.3,0.191c-0.095,0.083-0.184,0.181-0.267,0.295c-0.082,0.114-0.15,0.241-0.207,0.378v1.334    c0.083,0.033,0.158,0.062,0.227,0.084c0.067,0.023,0.134,0.043,0.199,0.057c0.064,0.016,0.128,0.025,0.191,0.032    C93.271,54.836,93.338,54.84,93.41,54.84z"/>
		<path class="st8" d="M95.868,50.79c0-0.062,0.01-0.12,0.03-0.175c0.02-0.055,0.049-0.103,0.085-0.144    c0.037-0.041,0.081-0.073,0.132-0.097c0.052-0.023,0.108-0.035,0.171-0.035s0.12,0.012,0.174,0.035s0.1,0.056,0.138,0.097    c0.037,0.041,0.068,0.089,0.09,0.144c0.022,0.055,0.033,0.113,0.033,0.175s-0.011,0.12-0.033,0.175    c-0.021,0.055-0.053,0.103-0.09,0.144c-0.038,0.041-0.084,0.073-0.138,0.097s-0.111,0.035-0.174,0.035s-0.119-0.012-0.171-0.035    c-0.051-0.023-0.095-0.056-0.132-0.097c-0.036-0.041-0.065-0.089-0.085-0.144C95.878,50.91,95.868,50.852,95.868,50.79z     M96.604,53.689c0,0.106,0.002,0.232,0.006,0.379c0.003,0.145,0.008,0.292,0.014,0.441c0.005,0.148,0.012,0.291,0.02,0.426    c0.008,0.136,0.018,0.248,0.028,0.337h-0.686v-1.767c0-0.162-0.001-0.322-0.002-0.479s-0.003-0.308-0.007-0.448    c-0.003-0.141-0.008-0.272-0.015-0.394s-0.016-0.225-0.026-0.312h0.668V53.689z"/>
		<path class="st8" d="M100.551,55.189c0,0.293-0.043,0.544-0.129,0.753c-0.085,0.209-0.197,0.38-0.338,0.512    c-0.139,0.132-0.297,0.229-0.477,0.292c-0.178,0.062-0.359,0.093-0.545,0.093c-0.214,0-0.426-0.036-0.637-0.11    c-0.211-0.072-0.406-0.17-0.584-0.289l0.217-0.518c0.159,0.113,0.318,0.206,0.479,0.277c0.161,0.07,0.325,0.106,0.492,0.106    c0.087,0,0.184-0.016,0.287-0.047c0.105-0.03,0.203-0.085,0.295-0.161c0.092-0.077,0.168-0.18,0.229-0.309    c0.063-0.129,0.093-0.29,0.093-0.483v-0.616c-0.087,0.109-0.179,0.201-0.276,0.277c-0.097,0.077-0.195,0.14-0.294,0.188    c-0.1,0.048-0.198,0.082-0.298,0.104c-0.1,0.021-0.194,0.031-0.286,0.031c-0.153,0-0.302-0.026-0.444-0.08    c-0.143-0.053-0.27-0.139-0.38-0.255s-0.198-0.269-0.265-0.454c-0.065-0.188-0.099-0.412-0.099-0.678    c0-0.255,0.034-0.504,0.101-0.746s0.17-0.457,0.311-0.645s0.32-0.339,0.541-0.453c0.219-0.115,0.482-0.172,0.787-0.172    c0.101,0,0.203,0.007,0.31,0.021s0.212,0.033,0.316,0.059c0.104,0.024,0.207,0.051,0.308,0.082    c0.101,0.029,0.196,0.059,0.287,0.088V55.189z M99.23,52.373c-0.184,0-0.34,0.037-0.469,0.111s-0.234,0.172-0.316,0.293    c-0.081,0.121-0.141,0.259-0.179,0.412s-0.057,0.309-0.057,0.467c0,0.207,0.017,0.378,0.048,0.515    c0.033,0.137,0.078,0.245,0.135,0.327c0.057,0.08,0.123,0.139,0.2,0.173s0.161,0.052,0.253,0.052c0.084,0,0.175-0.018,0.271-0.052    c0.097-0.034,0.192-0.084,0.29-0.148c0.096-0.064,0.189-0.144,0.28-0.239s0.173-0.205,0.246-0.327v-1.45    c-0.054-0.02-0.11-0.038-0.171-0.055s-0.121-0.03-0.184-0.041c-0.063-0.012-0.123-0.021-0.183-0.027    C99.336,52.377,99.281,52.373,99.23,52.373z"/>
	</g>
	<g class="st3">
		<path class="st10" d="M103.008,55.377c-0.893,0-1.338-0.598-1.338-1.791v-1.229c0-0.134-0.001-0.255-0.002-0.362    c-0.002-0.108-0.006-0.213-0.011-0.314c-0.006-0.102-0.015-0.205-0.025-0.311s-0.026-0.221-0.046-0.346h0.857v2.313    c0,0.235,0.012,0.439,0.035,0.609c0.023,0.171,0.063,0.312,0.119,0.421c0.056,0.11,0.129,0.19,0.22,0.243    c0.091,0.054,0.202,0.08,0.337,0.08c0.122,0,0.254-0.037,0.393-0.111c0.14-0.072,0.272-0.166,0.399-0.28s0.243-0.239,0.347-0.378    c0.105-0.137,0.186-0.27,0.24-0.396v-1.167c0-0.136,0-0.259-0.002-0.368c-0.001-0.11-0.004-0.215-0.01-0.314    c-0.006-0.101-0.014-0.202-0.025-0.305c-0.012-0.104-0.026-0.219-0.046-0.346h0.856v2.375c0,0.404,0.023,0.76,0.07,1.064    c0.045,0.303,0.113,0.574,0.202,0.81h-0.711c-0.02-0.048-0.04-0.103-0.063-0.167c-0.022-0.063-0.044-0.131-0.065-0.203    c-0.021-0.072-0.04-0.148-0.059-0.228c-0.018-0.079-0.032-0.157-0.043-0.235c-0.254,0.309-0.516,0.541-0.784,0.699    S103.303,55.377,103.008,55.377z M102.075,49.67c0-0.078,0.013-0.151,0.04-0.219c0.025-0.068,0.063-0.129,0.11-0.18    s0.103-0.092,0.167-0.121s0.136-0.043,0.213-0.043c0.078,0,0.15,0.014,0.216,0.043s0.122,0.07,0.169,0.121    c0.048,0.051,0.085,0.111,0.111,0.18c0.026,0.067,0.04,0.141,0.04,0.219c0,0.077-0.014,0.15-0.04,0.219    c-0.026,0.067-0.063,0.127-0.111,0.179c-0.047,0.052-0.104,0.091-0.169,0.12s-0.138,0.045-0.216,0.045    c-0.077,0-0.148-0.016-0.213-0.045s-0.119-0.068-0.167-0.12s-0.085-0.111-0.11-0.179C102.088,49.82,102.075,49.747,102.075,49.67z     M103.832,49.67c0-0.078,0.013-0.151,0.039-0.219c0.026-0.068,0.063-0.129,0.111-0.18c0.047-0.051,0.103-0.092,0.166-0.121    c0.064-0.029,0.136-0.043,0.214-0.043s0.149,0.014,0.216,0.043c0.064,0.029,0.121,0.07,0.169,0.121s0.084,0.111,0.11,0.18    c0.027,0.067,0.04,0.141,0.04,0.219c0,0.077-0.013,0.15-0.04,0.219c-0.026,0.067-0.063,0.127-0.11,0.179s-0.104,0.091-0.169,0.12    c-0.066,0.029-0.138,0.045-0.216,0.045s-0.149-0.016-0.214-0.045c-0.063-0.029-0.119-0.068-0.166-0.12    c-0.048-0.052-0.085-0.111-0.111-0.179C103.845,49.82,103.832,49.747,103.832,49.67z"/>
	</g>
	<g class="st6">
		<path class="st7" d="M107.963,51.807c0.184,0,0.346,0.021,0.485,0.064c0.141,0.043,0.263,0.104,0.364,0.18    c0.104,0.077,0.189,0.166,0.258,0.27c0.069,0.102,0.125,0.211,0.166,0.329s0.07,0.241,0.088,0.368    c0.019,0.128,0.027,0.254,0.027,0.379v0.129c0,0.057-0.001,0.1-0.004,0.131h-2.371c0.007,0.195,0.037,0.365,0.092,0.51    s0.129,0.264,0.225,0.358c0.095,0.095,0.206,0.165,0.334,0.212c0.129,0.047,0.269,0.069,0.42,0.069    c0.217,0,0.428-0.024,0.636-0.073s0.413-0.135,0.618-0.26l0.067,0.55c-0.118,0.06-0.233,0.111-0.348,0.153    c-0.114,0.043-0.228,0.076-0.341,0.104c-0.114,0.026-0.229,0.046-0.347,0.059c-0.117,0.012-0.24,0.018-0.37,0.018    c-0.213,0-0.418-0.037-0.611-0.111c-0.194-0.074-0.365-0.185-0.512-0.33c-0.147-0.146-0.265-0.326-0.352-0.541    c-0.087-0.216-0.131-0.466-0.131-0.75c0-0.275,0.037-0.525,0.112-0.748c0.075-0.224,0.181-0.414,0.319-0.574    c0.139-0.158,0.307-0.28,0.506-0.366C107.492,51.85,107.716,51.807,107.963,51.807z M107.913,52.307    c-0.245,0-0.446,0.071-0.603,0.215c-0.155,0.143-0.258,0.365-0.307,0.668h1.746c0-0.143-0.021-0.268-0.063-0.379    c-0.041-0.109-0.1-0.202-0.174-0.277c-0.074-0.076-0.164-0.133-0.266-0.17C108.145,52.325,108.033,52.307,107.913,52.307z"/>
	</g>
	<g class="st3">
		<path class="st8" d="M84.09,44.048h-0.619v-1.899c0-0.207-0.008-0.374-0.023-0.502c-0.016-0.127-0.041-0.228-0.078-0.3    s-0.086-0.12-0.148-0.146c-0.063-0.023-0.141-0.036-0.234-0.036c-0.083,0-0.166,0.017-0.248,0.05s-0.161,0.08-0.236,0.142    c-0.074,0.062-0.143,0.134-0.207,0.217c-0.063,0.083-0.117,0.175-0.162,0.274v2.2h-0.619v-2.05c0-0.328-0.019-0.607-0.057-0.834    c-0.037-0.229-0.074-0.4-0.11-0.516h0.603c0.024,0.071,0.045,0.154,0.063,0.252c0.018,0.096,0.032,0.185,0.044,0.265    c0.102-0.118,0.2-0.214,0.294-0.29c0.093-0.075,0.187-0.135,0.279-0.178c0.093-0.044,0.185-0.074,0.276-0.09    c0.091-0.018,0.185-0.025,0.28-0.025c0.109,0,0.208,0.016,0.298,0.047s0.168,0.072,0.236,0.123    c0.067,0.051,0.126,0.11,0.176,0.178c0.049,0.068,0.086,0.139,0.113,0.212c0.104-0.113,0.206-0.206,0.305-0.278    c0.098-0.072,0.193-0.129,0.287-0.17s0.186-0.07,0.275-0.086c0.091-0.018,0.18-0.025,0.267-0.025c0.169,0,0.312,0.027,0.429,0.082    c0.115,0.054,0.209,0.135,0.279,0.241s0.119,0.239,0.15,0.396c0.029,0.157,0.045,0.34,0.045,0.546v2.2h-0.619v-1.833    c0-0.215-0.008-0.391-0.023-0.526s-0.041-0.242-0.078-0.32c-0.037-0.077-0.087-0.131-0.149-0.159    c-0.063-0.029-0.14-0.044-0.233-0.044c-0.083,0-0.164,0.017-0.244,0.048c-0.081,0.033-0.158,0.078-0.232,0.137    c-0.076,0.059-0.145,0.131-0.208,0.215c-0.063,0.085-0.12,0.18-0.169,0.283V44.048z"/>
	</g>
	<g class="st3">
		<path class="st10" d="M88.535,44.152c-0.892,0-1.338-0.598-1.338-1.791v-1.229c0-0.134,0-0.255-0.002-0.362    c-0.002-0.108-0.005-0.213-0.01-0.314c-0.006-0.102-0.015-0.205-0.025-0.311c-0.012-0.105-0.027-0.221-0.047-0.346h0.857v2.313    c0,0.235,0.012,0.439,0.035,0.609c0.024,0.171,0.064,0.312,0.119,0.421c0.057,0.11,0.129,0.19,0.221,0.243    c0.09,0.054,0.202,0.08,0.336,0.08c0.123,0,0.254-0.037,0.393-0.111c0.141-0.072,0.273-0.166,0.4-0.28s0.242-0.239,0.347-0.378    c0.104-0.137,0.185-0.27,0.24-0.396v-1.167c0-0.136-0.001-0.259-0.002-0.368c-0.001-0.11-0.005-0.215-0.011-0.314    c-0.006-0.101-0.014-0.202-0.025-0.305c-0.011-0.104-0.025-0.219-0.045-0.346h0.856v2.375c0,0.404,0.022,0.76,0.069,1.064    c0.046,0.303,0.113,0.574,0.203,0.81h-0.711c-0.02-0.048-0.041-0.103-0.063-0.167c-0.023-0.063-0.045-0.131-0.065-0.203    s-0.04-0.148-0.059-0.228s-0.032-0.157-0.044-0.235c-0.254,0.309-0.516,0.541-0.783,0.699    C89.113,44.072,88.831,44.152,88.535,44.152z M87.234,39.174l1.422-1.791h0.711l1.422,1.791h-0.627l-1.15-1.166l-1.149,1.166    H87.234z"/>
	</g>
	<g>
		<path class="st8" d="M92.086,44.048v-2.05c0-0.328-0.018-0.607-0.055-0.834c-0.037-0.229-0.074-0.4-0.112-0.516h0.603    c0.026,0.063,0.051,0.141,0.072,0.234c0.021,0.096,0.039,0.2,0.053,0.315c0.015,0.116,0.025,0.239,0.031,0.37    c0.008,0.131,0.011,0.264,0.011,0.396v0.217c0.114-0.313,0.226-0.572,0.335-0.778s0.217-0.369,0.326-0.491    c0.107-0.123,0.217-0.208,0.326-0.257s0.221-0.073,0.334-0.073c0.084,0,0.162,0.008,0.234,0.023    c0.071,0.016,0.144,0.041,0.217,0.076l-0.1,0.617c-0.064-0.027-0.122-0.045-0.171-0.054c-0.05-0.009-0.109-0.013-0.181-0.013    c-0.092,0-0.188,0.037-0.287,0.114c-0.102,0.077-0.199,0.179-0.297,0.306c-0.097,0.126-0.189,0.27-0.275,0.43    c-0.088,0.16-0.164,0.323-0.229,0.491c-0.065,0.167-0.118,0.331-0.157,0.491s-0.059,0.303-0.059,0.427    c0,0.056,0,0.106,0.002,0.153c0.001,0.047,0.004,0.092,0.01,0.135s0.013,0.087,0.021,0.131c0.01,0.043,0.021,0.089,0.033,0.138    H92.086z"/>
		<path class="st8" d="M91.568,44.548v-0.267h2.977v0.267H91.568z"/>
	</g>
	<g class="st3">
		<path class="st8" d="M96.826,42.746c0-0.229,0.022-0.447,0.066-0.657s0.105-0.407,0.186-0.589s0.178-0.346,0.291-0.493    s0.24-0.272,0.377-0.375l0.157,0.323c-0.122,0.106-0.228,0.225-0.313,0.354s-0.156,0.271-0.211,0.422s-0.094,0.312-0.118,0.481    s-0.036,0.348-0.036,0.533c0,0.181,0.012,0.354,0.036,0.52s0.063,0.325,0.118,0.479c0.055,0.152,0.125,0.3,0.211,0.442    c0.086,0.142,0.191,0.28,0.313,0.413l-0.198,0.303c-0.287-0.298-0.506-0.625-0.654-0.983    C96.901,43.561,96.826,43.17,96.826,42.746z"/>
		<path class="st8" d="M100.225,44.048h-0.387V42.86c0-0.129-0.006-0.233-0.016-0.313s-0.025-0.143-0.049-0.188    s-0.054-0.075-0.093-0.09c-0.039-0.016-0.088-0.023-0.146-0.023c-0.052,0-0.103,0.01-0.155,0.031    c-0.051,0.021-0.1,0.051-0.146,0.088c-0.047,0.039-0.09,0.084-0.13,0.137c-0.04,0.051-0.073,0.109-0.102,0.172v1.374h-0.387    v-1.281c0-0.205-0.012-0.38-0.035-0.521c-0.024-0.143-0.047-0.249-0.069-0.321h0.377c0.015,0.044,0.027,0.096,0.039,0.156    s0.021,0.116,0.027,0.166c0.064-0.074,0.125-0.134,0.184-0.182c0.059-0.047,0.117-0.084,0.175-0.111s0.115-0.045,0.173-0.057    c0.057-0.01,0.115-0.016,0.176-0.016c0.068,0,0.13,0.01,0.186,0.029s0.105,0.046,0.147,0.078c0.042,0.031,0.079,0.068,0.11,0.111    c0.03,0.042,0.054,0.086,0.07,0.132c0.066-0.071,0.129-0.129,0.19-0.174s0.121-0.081,0.18-0.106s0.116-0.043,0.173-0.055    c0.057-0.01,0.111-0.016,0.166-0.016c0.105,0,0.195,0.018,0.268,0.052s0.131,0.085,0.174,0.151    c0.045,0.066,0.076,0.148,0.095,0.248c0.019,0.098,0.028,0.212,0.028,0.342v1.374h-0.387v-1.146c0-0.135-0.005-0.244-0.015-0.329    s-0.026-0.151-0.05-0.2c-0.022-0.049-0.053-0.082-0.092-0.1s-0.088-0.027-0.146-0.027c-0.053,0-0.104,0.01-0.153,0.03    s-0.099,0.048-0.146,0.085s-0.09,0.082-0.129,0.135c-0.04,0.053-0.075,0.111-0.105,0.178V44.048z"/>
		<path class="st8" d="M102.765,44.1c-0.446,0-0.669-0.299-0.669-0.896V42.59c0-0.066,0-0.127-0.001-0.182    c-0.001-0.054-0.003-0.105-0.005-0.156c-0.004-0.051-0.008-0.104-0.014-0.156c-0.005-0.053-0.013-0.109-0.022-0.172h0.429v1.155    c0,0.118,0.006,0.22,0.018,0.306c0.012,0.085,0.031,0.155,0.06,0.21c0.028,0.056,0.064,0.096,0.11,0.122    c0.045,0.026,0.102,0.039,0.168,0.039c0.061,0,0.127-0.018,0.196-0.055s0.136-0.084,0.2-0.141c0.063-0.057,0.121-0.12,0.173-0.188    c0.052-0.069,0.093-0.136,0.12-0.199V42.59c0-0.068,0-0.129-0.001-0.185c-0.001-0.055-0.003-0.106-0.005-0.157    c-0.003-0.05-0.008-0.101-0.013-0.152c-0.005-0.051-0.013-0.108-0.022-0.172h0.428v1.187c0,0.203,0.012,0.38,0.035,0.532    c0.022,0.152,0.057,0.287,0.102,0.405h-0.355c-0.01-0.023-0.021-0.052-0.031-0.083c-0.012-0.032-0.022-0.066-0.033-0.103    c-0.01-0.036-0.02-0.073-0.029-0.113c-0.009-0.04-0.016-0.079-0.021-0.118c-0.127,0.154-0.258,0.271-0.393,0.35    C103.053,44.061,102.912,44.1,102.765,44.1z"/>
		<path class="st8" d="M104.572,44.048v-1.281c0-0.205-0.012-0.38-0.034-0.521c-0.022-0.143-0.046-0.249-0.069-0.321h0.375    c0.018,0.038,0.032,0.088,0.045,0.146c0.014,0.059,0.025,0.125,0.034,0.197s0.016,0.148,0.021,0.23    c0.004,0.082,0.006,0.164,0.006,0.248v0.135c0.07-0.195,0.141-0.357,0.209-0.486c0.068-0.128,0.137-0.23,0.203-0.307    c0.068-0.076,0.137-0.13,0.204-0.16c0.068-0.031,0.138-0.047,0.21-0.047c0.053,0,0.102,0.006,0.146,0.016    c0.045,0.01,0.09,0.025,0.136,0.047l-0.063,0.387c-0.041-0.018-0.076-0.028-0.106-0.034c-0.03-0.005-0.068-0.009-0.112-0.009    c-0.058,0-0.117,0.024-0.181,0.072c-0.063,0.049-0.124,0.111-0.185,0.191c-0.061,0.078-0.118,0.168-0.173,0.268    c-0.054,0.101-0.103,0.203-0.144,0.308s-0.073,0.208-0.098,0.308s-0.037,0.188-0.037,0.267c0,0.034,0,0.066,0.002,0.096    c0,0.029,0.002,0.058,0.006,0.085c0.004,0.026,0.008,0.054,0.014,0.08c0.006,0.027,0.012,0.057,0.021,0.087H104.572z"/>
		<path class="st8" d="M106.434,41.246c0-0.039,0.006-0.075,0.019-0.109c0.013-0.033,0.03-0.063,0.054-0.09    c0.022-0.025,0.051-0.045,0.082-0.061c0.032-0.014,0.068-0.021,0.107-0.021s0.074,0.008,0.108,0.021    c0.033,0.016,0.062,0.035,0.085,0.061c0.024,0.026,0.043,0.057,0.057,0.09c0.014,0.034,0.021,0.07,0.021,0.109    s-0.008,0.076-0.021,0.109c-0.014,0.034-0.032,0.064-0.057,0.09c-0.023,0.025-0.052,0.046-0.085,0.061    c-0.034,0.014-0.069,0.021-0.108,0.021s-0.075-0.008-0.107-0.021c-0.031-0.015-0.06-0.035-0.082-0.061    c-0.023-0.025-0.041-0.056-0.054-0.09C106.439,41.322,106.434,41.285,106.434,41.246z M106.894,43.059    c0,0.066,0.001,0.146,0.003,0.236s0.005,0.184,0.008,0.275c0.004,0.094,0.008,0.183,0.014,0.268    c0.004,0.084,0.01,0.154,0.018,0.21h-0.429v-1.104c0-0.101-0.001-0.201-0.001-0.299c-0.001-0.1-0.002-0.192-0.004-0.281    c-0.002-0.088-0.006-0.17-0.01-0.245s-0.01-0.141-0.018-0.194h0.419V43.059z"/>
		<path class="st8" d="M107.615,44.048v-1.281c0-0.205-0.012-0.38-0.035-0.521c-0.023-0.143-0.047-0.249-0.07-0.321h0.377    c0.017,0.038,0.031,0.088,0.045,0.146c0.013,0.059,0.023,0.125,0.033,0.197c0.009,0.072,0.016,0.148,0.02,0.23    s0.006,0.164,0.006,0.248v0.135c0.072-0.195,0.142-0.357,0.21-0.486c0.067-0.128,0.136-0.23,0.204-0.307    c0.066-0.076,0.135-0.13,0.203-0.16c0.068-0.031,0.139-0.047,0.209-0.047c0.053,0,0.102,0.006,0.146,0.016s0.09,0.025,0.137,0.047    l-0.063,0.387c-0.04-0.018-0.075-0.028-0.106-0.034c-0.031-0.005-0.068-0.009-0.113-0.009c-0.057,0-0.117,0.024-0.18,0.072    c-0.063,0.049-0.124,0.111-0.186,0.191c-0.061,0.078-0.117,0.168-0.172,0.268c-0.055,0.101-0.102,0.203-0.143,0.308    s-0.074,0.208-0.099,0.308s-0.036,0.188-0.036,0.267c0,0.034,0,0.066,0,0.096c0.001,0.029,0.004,0.058,0.007,0.085    c0.003,0.026,0.008,0.054,0.014,0.08c0.005,0.027,0.013,0.057,0.021,0.087H107.615z"/>
		<path class="st8" d="M110.573,42.746c0,0.424-0.075,0.814-0.224,1.173c-0.149,0.358-0.367,0.686-0.654,0.983l-0.199-0.303    c0.117-0.133,0.219-0.271,0.305-0.413c0.086-0.143,0.156-0.29,0.212-0.442c0.056-0.153,0.097-0.313,0.124-0.479    c0.025-0.166,0.039-0.339,0.039-0.52c0-0.176-0.014-0.347-0.039-0.516c-0.027-0.169-0.068-0.33-0.124-0.483    s-0.126-0.297-0.212-0.431c-0.086-0.135-0.188-0.255-0.305-0.361l0.157-0.323c0.138,0.103,0.264,0.228,0.377,0.375    c0.114,0.147,0.21,0.312,0.291,0.493c0.08,0.182,0.142,0.379,0.187,0.589C110.551,42.299,110.573,42.518,110.573,42.746z"/>
	</g>
	<path class="st5" d="M105,57c0,0.6-0.5,1.1-1.1,1.1s-1.1-0.5-1.1-1.1s0.5-1.1,1.1-1.1S105,56.4,105,57z"/>
	<g>
		<path class="st11" d="M16.6,44.8v-5.3l5.2,5.3H24c1.3,0,1.1,1.2,1.1,1.2c0,1-0.6,1.3-0.6,1.3v6.6H0.4l0.5-23    c-0.2-0.4-0.2-1.1-0.2-1.1c0-1.6,1.7-1.3,1.7-1.3c0.9-2.4,2.8-1.4,2.8-1.4c0.8-2.4,2.6-2.3,2.6-2.3c1,0,2.1,0.4,2.1,0.4    c1.6-1.6,2.8-1.3,2.8-1.3c2.1,0,3.1,1.2,3.1,1.2c2.1-2,4.1-1.7,4.1-1.7c6,0,5.6,5.9,5.6,5.9c0,5.4-5.2,5.7-5.2,5.7    c-4.4,0-5.6-3-5.6-3c-3.2,1.1-4.8-1-4.8-1c-2.6,1.6-4.2-0.8-4.2-0.8c0,0.6-1.8,0.8-1.8,0.8l0.5,13.9h2v-5.3l5.2,5.3v-5.3    L16.6,44.8z"/>
		<polygon class="st12" points="6.4,44.8 6.4,47.3 11.6,47.3 11.6,44.8 6.4,39.5   "/>
		<path class="st13" d="M16.6,44.8v-5.3l5.2,5.3H24c1.3,0,1.1,1.2,1.1,1.2c0,1-0.6,1.3-0.6,1.3v6.6H0.4l0.5-23    c-0.2-0.4-0.2-1.1-0.2-1.1c0-1.6,1.7-1.3,1.7-1.3c0.9-2.4,2.8-1.4,2.8-1.4c0.8-2.4,2.6-2.3,2.6-2.3c1,0,2.1,0.4,2.1,0.4    c1.6-1.6,2.8-1.3,2.8-1.3c2.1,0,3.1,1.2,3.1,1.2c2.1-2,4.1-1.7,4.1-1.7c6,0,5.6,5.9,5.6,5.9c0,5.4-5.2,5.7-5.2,5.7    c-4.4,0-5.6-3-5.6-3c-3.2,1.1-4.8-1-4.8-1c-2.6,1.6-4.2-0.8-4.2-0.8c0,0.6-1.8,0.8-1.8,0.8l0.5,13.9h2v-5.3l5.2,5.3v-5.3    L16.6,44.8z"/>
		<g>
			<line class="st14" x1="1" y1="30.9" x2="3.9" y2="30.9"/>
			<path class="st14" d="M4.4,44.8H3c0,0-1.4,0.1-1.4,1.3c0,0,0.1,1.1,0.9,1.1v6.6"/>
			<line class="st14" x1="24.5" y1="47.3" x2="2.5" y2="47.3"/>
			<rect x="5.4" y="48.6" class="st14" width="1.2" height="2.1"/>
			<rect x="7.5" y="48.6" class="st14" width="1.2" height="2.1"/>
			<rect x="9.6" y="48.6" class="st14" width="1.2" height="2.1"/>
			<rect x="11.7" y="48.6" class="st14" width="1.2" height="2.1"/>
			<rect x="13.7" y="48.6" class="st14" width="1.2" height="2.1"/>
			<rect x="15.8" y="48.6" class="st14" width="1.2" height="2.1"/>
			<rect x="17.9" y="48.6" class="st14" width="1.2" height="2.1"/>
		</g>
	</g>
</g>
</svg>