<?xml version="1.0" encoding="UTF-8"?>
<!-- Generator: Adobe Illustrator 24.0.2, SVG Export Plug-In . SVG Version: 6.00 Build 0)  -->
<svg version="1.1" id="Calque_1" xmlns="http://www.w3.org/2000/svg" xmlns:xlink="http://www.w3.org/1999/xlink" x="0px" y="0px" viewBox="0 0 117 73" style="enable-background:new 0 0 117 73;" xml:space="preserve">
<style type="text/css">
	.st0{fill:#FFFFFF;stroke:#DADADA;stroke-width:0.7289;stroke-miterlimit:10;}
	.st1{fill:#FFFFFF;stroke:#000000;stroke-width:0.9719;stroke-miterlimit:10;}
	.st2{fill:none;stroke:#B2B2B2;stroke-width:0.3645;stroke-miterlimit:10;}
	.st3{enable-background:new    ;}
	.st4{fill:#878787;}
	.st5{fill:#575756;}
	.st6{fill:#7FC7EB;}
	.st7{fill:#B2B2B2;}
	.st8{fill:#FFFFFF;}
	.st9{fill:none;stroke:#575756;stroke-width:0.1749;stroke-linecap:round;stroke-linejoin:round;stroke-miterlimit:10;}
	.st10{fill:#FFFFFF;stroke:#575756;stroke-width:0.1749;stroke-miterlimit:10;}
	.st11{fill:none;stroke:#575756;stroke-width:0.5246;stroke-linecap:round;stroke-linejoin:round;stroke-miterlimit:10;}
</style>
<g id="_x3C_Groupe_x3E__vache">
	<rect x="78.8" y="47.4" class="st0" width="37.9" height="12.2"/>
	<path class="st1" d="M54.7,59.6H20.4V1.3h58.1v58.3H61.8c0,0-5.4,9.7-14.2,11.6C47.6,71.2,52.9,67.7,54.7,59.6z"/>
	<path class="st2" d="M35.5,55.2c0,0,5.4,2.7,11.7-0.1"/>
	<path class="st2" d="M48.9,55.2c0,0,7,2.7,15.2-0.1"/>
	<g class="st3">
		<path class="st4" d="M22.546,63.307h1.44v0.164h-0.608c-0.132,0-0.223,0.043-0.271,0.128c-0.027,0.048-0.04,0.108-0.04,0.185    v4.619c0,0.102,0.014,0.178,0.043,0.229c0.05,0.088,0.147,0.131,0.291,0.131h0.585v0.174h-1.44V63.307z"/>
		<path class="st4" d="M28.201,64.597c0.15,0,0.226,0.03,0.226,0.089c0,0.01-0.042,0.031-0.127,0.065    c-0.096,0.04-0.149,0.065-0.162,0.074c-0.059,0.039-0.111,0.112-0.156,0.218c-0.069,0.161-0.189,0.441-0.361,0.842l-0.822,1.919    c-0.026,0.065-0.054,0.1-0.083,0.104c-0.031,0-0.058-0.027-0.082-0.082c-0.004-0.011-0.132-0.298-0.382-0.863l-0.876-1.962    c-0.06-0.136-0.192-0.218-0.396-0.243c-0.088-0.012-0.132-0.031-0.132-0.059c0.01-0.051,0.136-0.076,0.376-0.076h0.535    c0.231,0,0.35,0.02,0.356,0.057c0,0.033-0.045,0.065-0.135,0.097c-0.101,0.037-0.152,0.085-0.152,0.143    c0,0.024,0.006,0.052,0.019,0.083c0.058,0.129,0.158,0.354,0.299,0.676l0.681,1.543l0.82-2.063    c0.023-0.058,0.035-0.112,0.035-0.164c0-0.115-0.067-0.197-0.202-0.242c-0.053-0.018-0.082-0.028-0.085-0.033    c0-0.081,0.089-0.122,0.267-0.122H28.201z"/>
		<path class="st4" d="M30.723,68.936h-1.444v-0.167h0.611c0.205,0,0.308-0.103,0.308-0.309v-4.623c0-0.237-0.11-0.355-0.331-0.355    h-0.588v-0.175h1.444V68.936z"/>
	</g>
	<g class="st3">
		<path class="st4" d="M65.541,64.033v0.403h-1.454v0.604c0,0.249,0.001,0.469,0.005,0.66c0.004,0.189,0.014,0.334,0.033,0.434    h-0.553c0.02-0.101,0.029-0.246,0.033-0.437s0.005-0.409,0.005-0.657v-1.824c0-0.113-0.001-0.217-0.003-0.311    c-0.004-0.096-0.007-0.181-0.012-0.256c-0.006-0.076-0.013-0.139-0.023-0.189h2.182v0.416h-1.667v1.156H65.541z"/>
		<path class="st4" d="M66.293,64.864c0-0.216,0.031-0.408,0.098-0.575c0.064-0.166,0.152-0.308,0.263-0.422    c0.11-0.115,0.239-0.202,0.386-0.261c0.146-0.06,0.303-0.089,0.469-0.089c0.172,0,0.33,0.029,0.473,0.089    c0.143,0.059,0.266,0.146,0.368,0.261c0.103,0.114,0.183,0.256,0.239,0.422c0.057,0.167,0.086,0.359,0.086,0.575    s-0.033,0.407-0.098,0.573c-0.066,0.166-0.153,0.306-0.264,0.418s-0.238,0.197-0.387,0.256c-0.146,0.058-0.303,0.086-0.468,0.086    c-0.173,0-0.329-0.028-0.473-0.086c-0.144-0.059-0.266-0.144-0.368-0.256c-0.104-0.112-0.184-0.252-0.24-0.418    S66.293,65.08,66.293,64.864z M66.756,64.864c0,0.146,0.018,0.276,0.053,0.393s0.085,0.214,0.148,0.293    c0.064,0.079,0.142,0.141,0.23,0.183c0.088,0.041,0.187,0.063,0.295,0.063c0.101,0,0.195-0.021,0.283-0.063    c0.089-0.042,0.166-0.104,0.232-0.183s0.117-0.177,0.155-0.293s0.056-0.247,0.056-0.393c0-0.147-0.017-0.28-0.052-0.396    s-0.085-0.216-0.149-0.297s-0.141-0.144-0.23-0.187s-0.188-0.063-0.295-0.063c-0.102,0-0.197,0.021-0.285,0.063    c-0.089,0.043-0.166,0.105-0.23,0.187c-0.065,0.081-0.117,0.181-0.154,0.297S66.756,64.717,66.756,64.864z"/>
		<path class="st4" d="M69.301,66.135v-1.547c0-0.248-0.015-0.459-0.042-0.631c-0.028-0.172-0.056-0.301-0.084-0.389h0.451    c0.021,0.047,0.038,0.106,0.054,0.178s0.029,0.15,0.04,0.237s0.019,0.181,0.024,0.279c0.004,0.099,0.008,0.198,0.008,0.3v0.163    c0.084-0.236,0.168-0.433,0.25-0.587c0.082-0.155,0.163-0.279,0.244-0.371c0.081-0.093,0.162-0.157,0.244-0.193    c0.082-0.037,0.166-0.057,0.251-0.057c0.063,0,0.122,0.006,0.175,0.018c0.055,0.012,0.108,0.031,0.164,0.059l-0.076,0.465    c-0.048-0.02-0.09-0.033-0.127-0.039c-0.037-0.008-0.082-0.011-0.136-0.011c-0.068,0-0.14,0.028-0.216,0.087    c-0.074,0.058-0.148,0.135-0.222,0.23c-0.072,0.096-0.142,0.203-0.206,0.324c-0.065,0.121-0.123,0.244-0.172,0.371    c-0.05,0.127-0.089,0.25-0.118,0.371s-0.044,0.229-0.044,0.322c0,0.041,0,0.08,0.002,0.115c0,0.035,0.003,0.069,0.007,0.102    c0.005,0.033,0.01,0.066,0.017,0.099c0.006,0.032,0.015,0.067,0.025,0.104H69.301z"/>
		<path class="st4" d="M72.684,63.518c0.167,0,0.311,0.021,0.432,0.06c0.121,0.04,0.229,0.091,0.32,0.155l-0.088,0.453    c-0.113-0.084-0.227-0.147-0.338-0.189c-0.112-0.042-0.233-0.063-0.363-0.063c-0.112,0-0.217,0.021-0.313,0.064    c-0.096,0.042-0.18,0.104-0.251,0.185c-0.071,0.08-0.126,0.179-0.167,0.297c-0.039,0.117-0.06,0.249-0.06,0.397    c0,0.136,0.019,0.259,0.056,0.369c0.036,0.111,0.089,0.207,0.157,0.286c0.069,0.079,0.151,0.142,0.248,0.185    c0.097,0.044,0.206,0.066,0.329,0.066c0.151,0,0.289-0.027,0.413-0.078c0.124-0.053,0.241-0.127,0.351-0.225l0.051,0.44    c-0.064,0.049-0.127,0.091-0.189,0.124c-0.063,0.035-0.129,0.063-0.197,0.086c-0.068,0.023-0.142,0.039-0.221,0.051    c-0.078,0.011-0.164,0.016-0.258,0.016c-0.168,0-0.326-0.029-0.474-0.089s-0.276-0.146-0.386-0.258    c-0.11-0.112-0.197-0.249-0.261-0.407c-0.063-0.16-0.095-0.34-0.095-0.541c0-0.189,0.029-0.369,0.091-0.536    c0.062-0.168,0.147-0.314,0.261-0.44s0.25-0.225,0.411-0.299C72.305,63.555,72.484,63.518,72.684,63.518z"/>
		<path class="st4" d="M75.141,63.518c0.137,0,0.258,0.018,0.363,0.05c0.104,0.032,0.195,0.077,0.272,0.136    c0.077,0.058,0.142,0.125,0.193,0.203c0.052,0.076,0.093,0.16,0.124,0.248c0.031,0.09,0.053,0.182,0.066,0.278    s0.02,0.192,0.02,0.286v0.098c0,0.042,0,0.074-0.002,0.098H74.4c0.006,0.148,0.028,0.276,0.068,0.385    c0.041,0.109,0.098,0.199,0.168,0.271c0.072,0.07,0.155,0.124,0.252,0.159c0.096,0.036,0.2,0.054,0.314,0.054    c0.162,0,0.32-0.02,0.476-0.057c0.155-0.036,0.31-0.102,0.464-0.195l0.05,0.415c-0.089,0.045-0.175,0.083-0.261,0.116    c-0.085,0.031-0.17,0.057-0.256,0.077c-0.084,0.021-0.172,0.035-0.259,0.044c-0.088,0.01-0.181,0.014-0.276,0.014    c-0.161,0-0.314-0.027-0.459-0.084c-0.146-0.057-0.273-0.139-0.384-0.249s-0.198-0.246-0.263-0.409    c-0.066-0.162-0.098-0.352-0.098-0.566c0-0.207,0.027-0.396,0.084-0.564c0.055-0.168,0.135-0.313,0.238-0.433    s0.23-0.212,0.379-0.276S74.955,63.518,75.141,63.518z M75.103,63.896c-0.185,0-0.335,0.054-0.451,0.162    c-0.117,0.108-0.194,0.276-0.231,0.505h1.309c0-0.107-0.016-0.203-0.046-0.285c-0.03-0.084-0.074-0.154-0.13-0.211    c-0.057-0.057-0.123-0.1-0.199-0.128C75.275,63.91,75.192,63.896,75.103,63.896z"/>
	</g>
	<g class="st3">
		<path class="st4" d="M66.165,71.082l-0.308-0.365c0.258-0.164,0.484-0.363,0.679-0.597c0.194-0.234,0.323-0.475,0.388-0.722    c-0.158,0.1-0.344,0.148-0.559,0.148c-0.268,0-0.496-0.1-0.688-0.299s-0.287-0.439-0.287-0.72c0-0.292,0.102-0.539,0.306-0.742    c0.204-0.202,0.452-0.304,0.747-0.304c0.33,0,0.602,0.119,0.813,0.359c0.21,0.24,0.315,0.547,0.315,0.924    c0,0.426-0.132,0.855-0.396,1.291C66.911,70.492,66.574,70.834,66.165,71.082z M67.022,68.898c0.021-0.135,0.03-0.222,0.03-0.262    c0-0.203-0.057-0.369-0.17-0.498c-0.112-0.129-0.258-0.193-0.435-0.193c-0.162,0-0.296,0.055-0.402,0.164    c-0.106,0.11-0.159,0.248-0.159,0.414c0,0.152,0.058,0.284,0.173,0.395c0.116,0.111,0.253,0.166,0.413,0.166    C66.66,69.084,66.844,69.022,67.022,68.898z"/>
		<path class="st4" d="M68.731,71.082l-0.308-0.365c0.258-0.164,0.484-0.363,0.679-0.597c0.194-0.234,0.323-0.475,0.388-0.722    c-0.158,0.1-0.344,0.148-0.559,0.148c-0.268,0-0.496-0.1-0.688-0.299s-0.287-0.439-0.287-0.72c0-0.292,0.102-0.539,0.306-0.742    c0.204-0.202,0.452-0.304,0.747-0.304c0.33,0,0.602,0.119,0.813,0.359c0.21,0.24,0.315,0.547,0.315,0.924    c0,0.426-0.132,0.855-0.396,1.291C69.478,70.492,69.141,70.834,68.731,71.082z M69.589,68.898c0.021-0.135,0.03-0.222,0.03-0.262    c0-0.203-0.057-0.369-0.17-0.498c-0.112-0.129-0.258-0.193-0.435-0.193c-0.162,0-0.296,0.055-0.402,0.164    c-0.106,0.11-0.159,0.248-0.159,0.414c0,0.152,0.058,0.284,0.173,0.395c0.116,0.111,0.253,0.166,0.413,0.166    C69.227,69.084,69.41,69.022,69.589,68.898z"/>
		<path class="st4" d="M72.672,67.486c0.215,0,0.398,0.078,0.551,0.232s0.229,0.34,0.229,0.556c0,0.215-0.076,0.399-0.229,0.554    s-0.337,0.231-0.55,0.231c-0.215,0-0.397-0.077-0.551-0.231c-0.152-0.154-0.229-0.339-0.229-0.554    c0-0.216,0.075-0.401,0.228-0.556C72.271,67.564,72.456,67.486,72.672,67.486z M74.445,67.477h0.387l-2.303,3.605h-0.387    L74.445,67.477z M72.665,67.869c-0.111,0-0.207,0.04-0.286,0.119c-0.079,0.08-0.119,0.176-0.119,0.287s0.041,0.205,0.121,0.283    c0.08,0.079,0.174,0.118,0.284,0.118c0.112,0,0.207-0.039,0.286-0.118c0.079-0.078,0.119-0.172,0.119-0.283    c0-0.113-0.039-0.209-0.117-0.288C72.874,67.908,72.778,67.869,72.665,67.869z M74.324,69.512c0.214,0,0.397,0.077,0.551,0.23    c0.153,0.154,0.23,0.338,0.23,0.553s-0.076,0.396-0.229,0.547c-0.152,0.15-0.337,0.226-0.552,0.226    c-0.217,0-0.401-0.075-0.555-0.226c-0.152-0.15-0.229-0.332-0.229-0.547c0-0.217,0.077-0.4,0.23-0.554    C73.925,69.589,74.109,69.512,74.324,69.512z M74.319,69.895c-0.11,0-0.204,0.039-0.28,0.118    c-0.078,0.079-0.117,0.173-0.117,0.283c0,0.112,0.039,0.208,0.117,0.287c0.076,0.079,0.17,0.119,0.28,0.119    c0.113,0,0.209-0.039,0.288-0.118c0.078-0.078,0.117-0.174,0.117-0.288c0-0.112-0.039-0.207-0.117-0.284    C74.528,69.934,74.433,69.895,74.319,69.895z"/>
	</g>
	<g class="st3">
		<path class="st5" d="M72.443,6.003h0.943c-0.041,0.091-0.082,0.186-0.123,0.284c-0.041,0.099-0.086,0.21-0.134,0.335    c-0.048,0.125-0.102,0.267-0.16,0.427c-0.059,0.16-0.124,0.347-0.197,0.562l-1.688,4.821h-0.987l-1.71-4.821    c-0.076-0.211-0.143-0.397-0.2-0.557c-0.057-0.16-0.108-0.303-0.155-0.429c-0.047-0.126-0.09-0.238-0.127-0.337    c-0.039-0.098-0.075-0.193-0.11-0.284h0.943l1.851,5.57L72.443,6.003z"/>
	</g>
	<g class="st3">
		<path class="st5" d="M28.338,11.065c0,0.422,0.021,0.698,0.065,0.829c0.072,0.218,0.286,0.327,0.641,0.327    c0.209,0,0.449-0.214,0.717-0.643c0.224-0.4,0.413-0.829,0.564-1.287c-0.275-0.269-0.46-0.509-0.554-0.72    c-0.203-0.312-0.304-0.61-0.304-0.894c0-0.232,0.025-0.472,0.076-0.719c0.05-0.211,0.174-0.349,0.369-0.415    c0.116-0.051,0.225-0.076,0.326-0.076c0.319,0,0.54,0.266,0.663,0.796c0.007,0.058,0.011,0.174,0.011,0.349    c0,0.415-0.076,0.931-0.228,1.548c0.08,0.095,0.203,0.182,0.37,0.262c0.152,0.087,0.286,0.131,0.402,0.131    c0.116,0,0.221-0.047,0.315-0.142l0.185,0.381c-0.102,0.102-0.235,0.153-0.402,0.153c-0.145,0-0.315-0.047-0.511-0.142    c-0.195-0.065-0.351-0.167-0.467-0.305c-0.261,0.843-0.529,1.417-0.804,1.723c-0.239,0.262-0.514,0.393-0.826,0.393    c-0.637,0-1.046-0.076-1.227-0.229c-0.239-0.145-0.369-0.432-0.391-0.861V8.853v-0.36c0-0.043-0.011-0.153-0.033-0.327    c0-0.102-0.051-0.16-0.152-0.174c-0.174,0-0.435,0.52-0.782,1.559c-0.043,0.116-0.083,0.225-0.119,0.327    c-0.037,0.102-0.069,0.196-0.098,0.283c-0.022,0.08-0.043,0.146-0.065,0.196c-0.021,0.051-0.033,0.087-0.033,0.109    c-0.043,0.102-0.076,0.204-0.098,0.306l-0.185-0.327c0.065-0.262,0.141-0.509,0.228-0.742c0.029-0.072,0.051-0.131,0.065-0.174    c0.007-0.029,0.016-0.06,0.027-0.093s0.023-0.067,0.038-0.104c0.015-0.036,0.036-0.098,0.065-0.185    c0.015-0.037,0.037-0.098,0.065-0.186c0.174-0.509,0.337-0.861,0.489-1.058C26.929,7.635,27.168,7.5,27.458,7.5    c0.405,0,0.663,0.113,0.771,0.338c0.072,0.138,0.109,0.473,0.109,1.003V11.065z M30.619,8.765c0-0.262-0.025-0.451-0.076-0.567    c-0.058-0.109-0.138-0.164-0.239-0.164c-0.073,0.051-0.112,0.113-0.12,0.186c-0.058,0.146-0.09,0.313-0.098,0.501    c0,0.487,0.116,0.89,0.348,1.21l0.108-0.567c0.051-0.32,0.076-0.512,0.076-0.578V8.765z"/>
	</g>
	<g class="st3">
		<path class="st5" d="M57.895,21.013c-0.246,0.505-0.5,1.051-0.763,1.638c-0.263,0.587-0.515,1.163-0.754,1.726    s-0.465,1.098-0.675,1.603c-0.21,0.505-0.386,0.934-0.526,1.286c-0.117,0.282-0.272,0.667-0.465,1.154s-0.41,1.033-0.649,1.638    c-0.24,0.605-0.494,1.245-0.763,1.92s-0.532,1.341-0.79,1.999c-0.62,1.55-1.281,3.217-1.982,5.002h-3.333    c-0.679-1.702-1.316-3.311-1.913-4.826c-0.257-0.646-0.521-1.303-0.789-1.973c-0.27-0.669-0.524-1.312-0.764-1.928    c-0.24-0.617-0.462-1.183-0.667-1.7c-0.205-0.517-0.377-0.945-0.518-1.286c-0.14-0.352-0.316-0.784-0.526-1.294    s-0.438-1.048-0.684-1.611s-0.498-1.136-0.754-1.717c-0.257-0.581-0.509-1.124-0.754-1.629h3.684l5.352,14.441l5.351-14.441    H57.895z"/>
	</g>
	<g class="st3">
		<path class="st6" d="M90.097,51.479l1.086,3.376l0.878-3.376h0.772c-0.05,0.159-0.095,0.303-0.132,0.431    c-0.037,0.127-0.073,0.248-0.106,0.364c-0.034,0.116-0.066,0.229-0.099,0.339c-0.031,0.111-0.066,0.229-0.102,0.355l-0.773,2.788    h-0.793l-1.045-3.292l-1.045,3.292h-0.793l-0.773-2.788c-0.03-0.112-0.062-0.223-0.094-0.332c-0.031-0.109-0.064-0.222-0.1-0.34    c-0.035-0.117-0.072-0.242-0.111-0.377s-0.083-0.281-0.133-0.44h0.772l0.877,3.376l1.087-3.376H90.097z"/>
	</g>
	<g class="st3">
		<path class="st7" d="M96.363,53.979c0,0.423,0.023,0.778,0.07,1.065c0.047,0.288,0.106,0.524,0.18,0.713h-0.584    c-0.012-0.028-0.027-0.069-0.047-0.12c-0.021-0.053-0.041-0.111-0.063-0.177s-0.041-0.138-0.061-0.213    c-0.019-0.076-0.035-0.152-0.048-0.228c-0.087,0.111-0.179,0.217-0.276,0.314c-0.096,0.099-0.198,0.186-0.305,0.262    c-0.107,0.076-0.219,0.136-0.334,0.18c-0.117,0.043-0.234,0.065-0.355,0.065c-0.14,0-0.279-0.03-0.419-0.091    s-0.265-0.15-0.376-0.271s-0.201-0.272-0.271-0.455c-0.069-0.182-0.104-0.396-0.104-0.643c0-0.256,0.028-0.49,0.085-0.699    s0.135-0.395,0.232-0.559c0.087-0.143,0.18-0.268,0.277-0.375s0.205-0.197,0.322-0.268s0.246-0.123,0.387-0.158    c0.14-0.036,0.296-0.055,0.467-0.055c0.085,0,0.18,0.007,0.283,0.02c0.104,0.012,0.209,0.029,0.317,0.051    c0.108,0.023,0.216,0.05,0.322,0.081s0.206,0.065,0.298,0.101V53.979z M95.01,52.838c-0.072,0-0.144,0.009-0.216,0.025    c-0.072,0.018-0.144,0.045-0.214,0.086c-0.07,0.04-0.139,0.094-0.204,0.159s-0.128,0.149-0.186,0.25    c-0.06,0.103-0.108,0.231-0.146,0.384c-0.037,0.153-0.055,0.311-0.055,0.472c0,0.186,0.018,0.345,0.052,0.478    s0.08,0.243,0.138,0.329c0.057,0.086,0.121,0.149,0.193,0.189s0.145,0.061,0.219,0.061c0.094,0,0.195-0.029,0.306-0.087    c0.11-0.059,0.218-0.136,0.322-0.232c0.104-0.096,0.204-0.206,0.296-0.332c0.092-0.125,0.169-0.254,0.229-0.389v-1.258    c-0.033-0.016-0.076-0.031-0.128-0.047c-0.053-0.016-0.11-0.03-0.174-0.044c-0.063-0.013-0.133-0.024-0.208-0.032    C95.16,52.842,95.085,52.838,95.01,52.838z"/>
		<path class="st7" d="M100.173,55.673c0,0.296-0.043,0.548-0.129,0.759c-0.085,0.209-0.198,0.381-0.337,0.515    c-0.14,0.133-0.299,0.23-0.477,0.294c-0.178,0.063-0.359,0.094-0.545,0.094c-0.214,0-0.426-0.037-0.637-0.111    s-0.404-0.171-0.583-0.291l0.218-0.521c0.158,0.114,0.316,0.206,0.478,0.278c0.16,0.071,0.323,0.107,0.491,0.107    c0.087,0,0.183-0.016,0.287-0.047c0.105-0.031,0.203-0.086,0.295-0.163c0.091-0.077,0.167-0.181,0.229-0.31    c0.061-0.131,0.092-0.293,0.092-0.486V55.17c-0.087,0.109-0.18,0.203-0.275,0.279c-0.098,0.078-0.195,0.141-0.295,0.188    c-0.099,0.048-0.198,0.083-0.297,0.104c-0.1,0.021-0.195,0.031-0.286,0.031c-0.153,0-0.302-0.027-0.444-0.08    c-0.143-0.054-0.27-0.14-0.379-0.257c-0.111-0.118-0.199-0.271-0.264-0.458c-0.066-0.188-0.1-0.414-0.1-0.682    c0-0.256,0.033-0.507,0.101-0.751c0.067-0.243,0.171-0.46,0.311-0.649c0.141-0.188,0.32-0.34,0.54-0.455    c0.219-0.115,0.481-0.174,0.787-0.174c0.1,0,0.203,0.008,0.309,0.022s0.211,0.034,0.316,0.059    c0.104,0.024,0.207,0.052,0.307,0.082c0.101,0.03,0.197,0.06,0.288,0.089V55.673z M98.853,52.838    c-0.183,0-0.339,0.038-0.468,0.113c-0.129,0.074-0.234,0.173-0.316,0.295c-0.08,0.121-0.141,0.26-0.178,0.414    c-0.038,0.154-0.057,0.311-0.057,0.47c0,0.208,0.016,0.381,0.048,0.519c0.032,0.137,0.077,0.247,0.134,0.328    c0.057,0.082,0.123,0.141,0.2,0.175s0.161,0.052,0.253,0.052c0.084,0,0.174-0.018,0.271-0.052    c0.096-0.034,0.192-0.085,0.289-0.149s0.19-0.145,0.28-0.241s0.172-0.206,0.246-0.329v-1.459c-0.054-0.021-0.11-0.039-0.17-0.056    c-0.061-0.017-0.122-0.03-0.185-0.042c-0.063-0.011-0.123-0.02-0.183-0.027C98.959,52.842,98.904,52.838,98.853,52.838z"/>
		<path class="st7" d="M100.941,54.063c0-0.288,0.043-0.544,0.131-0.766c0.086-0.223,0.203-0.411,0.351-0.564    c0.147-0.152,0.318-0.269,0.515-0.348c0.195-0.078,0.404-0.117,0.625-0.117c0.229,0,0.439,0.039,0.63,0.117    c0.19,0.079,0.354,0.195,0.491,0.348c0.137,0.153,0.243,0.342,0.318,0.564c0.076,0.222,0.114,0.478,0.114,0.766    c0,0.289-0.044,0.543-0.13,0.766c-0.088,0.221-0.204,0.406-0.352,0.557c-0.146,0.149-0.318,0.264-0.514,0.34    c-0.197,0.078-0.405,0.116-0.625,0.116c-0.23,0-0.439-0.038-0.631-0.116c-0.19-0.076-0.354-0.19-0.49-0.34    c-0.138-0.15-0.244-0.336-0.32-0.557C100.979,54.605,100.941,54.352,100.941,54.063z M101.56,54.063    c0,0.195,0.023,0.369,0.07,0.523s0.113,0.285,0.198,0.391c0.086,0.106,0.188,0.188,0.307,0.244    c0.117,0.055,0.25,0.084,0.395,0.084c0.133,0,0.26-0.029,0.377-0.084c0.118-0.057,0.221-0.138,0.31-0.244    c0.088-0.105,0.157-0.236,0.207-0.391s0.075-0.328,0.075-0.523c0-0.196-0.023-0.373-0.07-0.528s-0.113-0.287-0.199-0.396    s-0.188-0.191-0.307-0.248s-0.25-0.086-0.393-0.086c-0.137,0-0.264,0.029-0.381,0.086c-0.119,0.057-0.221,0.14-0.309,0.248    c-0.086,0.108-0.154,0.24-0.205,0.396C101.585,53.689,101.56,53.866,101.56,54.063z"/>
		<path class="st7" d="M106.836,52.268c0.357,0,0.63,0.117,0.819,0.352c0.189,0.233,0.284,0.58,0.284,1.041v2.097h-0.619v-1.845    c0-0.211-0.014-0.384-0.041-0.521c-0.027-0.136-0.069-0.244-0.123-0.323c-0.055-0.08-0.125-0.135-0.208-0.166    s-0.183-0.047-0.296-0.047c-0.12,0-0.238,0.028-0.353,0.085c-0.114,0.058-0.22,0.131-0.315,0.222    c-0.096,0.09-0.181,0.193-0.254,0.307c-0.074,0.114-0.129,0.229-0.164,0.342v1.946h-0.618v-2.063c0-0.33-0.019-0.611-0.056-0.84    c-0.036-0.229-0.074-0.402-0.111-0.519h0.602c0.014,0.036,0.027,0.083,0.04,0.14s0.025,0.117,0.036,0.18    c0.012,0.063,0.021,0.123,0.031,0.184l0.026,0.151c0.212-0.255,0.425-0.438,0.642-0.552    C106.374,52.324,106.6,52.268,106.836,52.268z"/>
	</g>
	<g class="st3">
		<path class="st5" d="M41.665,47.102c-0.088,0.182-0.179,0.376-0.272,0.586c-0.094,0.209-0.184,0.415-0.27,0.616    c-0.086,0.201-0.166,0.392-0.241,0.573c-0.076,0.18-0.138,0.333-0.188,0.459c-0.042,0.101-0.097,0.238-0.166,0.412    s-0.146,0.369-0.232,0.585c-0.085,0.216-0.176,0.444-0.272,0.686s-0.19,0.479-0.282,0.714c-0.221,0.555-0.458,1.149-0.708,1.787    h-1.191c-0.242-0.607-0.47-1.183-0.683-1.725c-0.092-0.23-0.186-0.465-0.282-0.704s-0.187-0.469-0.272-0.688    c-0.086-0.221-0.165-0.423-0.238-0.607s-0.135-0.338-0.185-0.459c-0.05-0.126-0.113-0.28-0.188-0.463    c-0.075-0.182-0.157-0.374-0.244-0.576c-0.088-0.201-0.178-0.405-0.27-0.613c-0.092-0.207-0.182-0.4-0.27-0.582h1.316l1.912,5.16    l1.912-5.16H41.665z"/>
	</g>
	<g class="st3">
		<path class="st7" d="M46.373,50.853c0,0.634,0.035,1.167,0.105,1.598s0.16,0.788,0.271,1.069h-0.877    c-0.017-0.043-0.041-0.104-0.07-0.182c-0.03-0.076-0.061-0.164-0.093-0.264s-0.062-0.205-0.09-0.319s-0.053-0.229-0.073-0.343    c-0.13,0.168-0.268,0.326-0.414,0.474c-0.145,0.147-0.298,0.278-0.458,0.392c-0.161,0.115-0.328,0.205-0.501,0.27    c-0.174,0.066-0.351,0.099-0.531,0.099c-0.21,0-0.42-0.046-0.629-0.136c-0.209-0.091-0.397-0.227-0.564-0.408    c-0.167-0.181-0.303-0.408-0.406-0.682s-0.155-0.594-0.155-0.963c0-0.387,0.042-0.736,0.128-1.05    c0.085-0.313,0.201-0.593,0.348-0.838c0.13-0.214,0.269-0.402,0.416-0.563s0.309-0.295,0.484-0.4s0.369-0.186,0.579-0.238    c0.21-0.055,0.444-0.081,0.702-0.081c0.127,0,0.268,0.009,0.424,0.028c0.155,0.018,0.314,0.044,0.476,0.078    c0.162,0.033,0.323,0.073,0.484,0.12c0.16,0.047,0.309,0.097,0.446,0.151V50.853z M44.342,49.142    c-0.107,0-0.214,0.013-0.323,0.038c-0.108,0.025-0.215,0.068-0.321,0.128c-0.105,0.061-0.207,0.14-0.306,0.239    s-0.191,0.224-0.278,0.375c-0.09,0.154-0.163,0.346-0.218,0.576c-0.055,0.229-0.083,0.465-0.083,0.707    c0,0.278,0.026,0.518,0.078,0.717s0.121,0.364,0.206,0.493c0.085,0.13,0.182,0.224,0.291,0.284    c0.108,0.061,0.218,0.091,0.328,0.091c0.141,0,0.293-0.044,0.458-0.131c0.166-0.087,0.327-0.203,0.484-0.347    c0.157-0.145,0.305-0.311,0.444-0.499c0.139-0.188,0.253-0.382,0.343-0.583v-1.887c-0.05-0.023-0.115-0.048-0.193-0.071    c-0.079-0.023-0.166-0.046-0.261-0.065s-0.199-0.035-0.311-0.048C44.569,49.147,44.456,49.142,44.342,49.142z"/>
	</g>
	<g class="st3">
		<path class="st7" d="M51.217,48.286c0.334,0,0.622,0.04,0.865,0.118c0.242,0.079,0.455,0.182,0.639,0.31l-0.176,0.905    c-0.227-0.167-0.453-0.293-0.677-0.377c-0.224-0.084-0.466-0.125-0.727-0.125c-0.224,0-0.432,0.042-0.624,0.128    c-0.192,0.085-0.359,0.208-0.501,0.37c-0.142,0.16-0.253,0.358-0.333,0.594c-0.08,0.234-0.12,0.5-0.12,0.795    c0,0.271,0.037,0.518,0.11,0.739c0.073,0.222,0.179,0.412,0.316,0.571c0.137,0.159,0.302,0.283,0.496,0.369    c0.194,0.088,0.413,0.131,0.657,0.131c0.304,0,0.58-0.051,0.827-0.155c0.247-0.104,0.481-0.253,0.702-0.448l0.1,0.881    c-0.127,0.098-0.253,0.18-0.378,0.249c-0.125,0.069-0.256,0.126-0.394,0.171c-0.137,0.045-0.284,0.079-0.441,0.102    c-0.157,0.021-0.329,0.032-0.517,0.032c-0.337,0-0.653-0.06-0.947-0.179s-0.551-0.291-0.772-0.516s-0.395-0.496-0.521-0.815    s-0.19-0.679-0.19-1.082c0-0.379,0.061-0.736,0.183-1.071c0.122-0.336,0.296-0.629,0.521-0.881s0.5-0.45,0.822-0.596    C50.459,48.359,50.819,48.286,51.217,48.286z"/>
		<path class="st7" d="M56.806,48.286c0.535,0,0.944,0.175,1.228,0.526c0.284,0.35,0.426,0.871,0.426,1.563v3.145h-0.927v-2.768    c0-0.315-0.021-0.575-0.063-0.779c-0.042-0.205-0.104-0.367-0.188-0.486s-0.188-0.202-0.313-0.249    c-0.125-0.047-0.271-0.07-0.439-0.07c-0.18,0-0.356,0.042-0.529,0.128c-0.172,0.086-0.33,0.197-0.474,0.332    c-0.144,0.137-0.271,0.289-0.381,0.461c-0.11,0.171-0.192,0.342-0.246,0.514v2.918h-0.927v-5.686c0-0.544-0.003-1.02-0.01-1.428    c-0.007-0.406-0.028-0.72-0.065-0.938h1.002v3.875c0.247-0.354,0.538-0.617,0.872-0.793S56.452,48.286,56.806,48.286z"/>
		<path class="st7" d="M62.02,48.286c0.273,0,0.516,0.032,0.727,0.099c0.211,0.064,0.393,0.156,0.547,0.271    c0.152,0.115,0.281,0.25,0.385,0.404c0.104,0.155,0.188,0.321,0.248,0.499c0.063,0.178,0.107,0.362,0.133,0.556    c0.027,0.193,0.041,0.383,0.041,0.571v0.196c0,0.084-0.002,0.149-0.006,0.196h-3.553c0.01,0.296,0.055,0.552,0.137,0.771    c0.082,0.217,0.194,0.398,0.336,0.54c0.143,0.144,0.31,0.249,0.502,0.319c0.191,0.07,0.401,0.105,0.629,0.105    c0.324,0,0.642-0.036,0.952-0.109c0.312-0.074,0.62-0.205,0.928-0.393l0.101,0.83c-0.178,0.09-0.352,0.168-0.521,0.23    c-0.171,0.064-0.342,0.116-0.512,0.156c-0.17,0.041-0.344,0.07-0.519,0.088c-0.176,0.02-0.36,0.028-0.554,0.028    c-0.321,0-0.627-0.056-0.918-0.169c-0.291-0.112-0.547-0.278-0.767-0.498c-0.221-0.22-0.396-0.492-0.526-0.817    s-0.195-0.703-0.195-1.132c0-0.416,0.056-0.793,0.168-1.131c0.111-0.336,0.271-0.625,0.479-0.865    c0.207-0.239,0.459-0.424,0.757-0.553S61.648,48.286,62.02,48.286z M61.943,49.041c-0.367,0-0.668,0.108-0.902,0.324    c-0.233,0.217-0.387,0.553-0.461,1.01h2.617c0-0.215-0.031-0.405-0.093-0.572c-0.062-0.166-0.149-0.305-0.261-0.42    c-0.112-0.113-0.245-0.199-0.398-0.256C62.291,49.07,62.125,49.041,61.943,49.041z"/>
	</g>
	<g>
		<path class="st8" d="M3.6,37c0,0,0.1-0.4-0.2-0.4c0,0-0.6-0.2-0.6-0.8c0,0-0.2-0.8-1-0.7c0,0-1.3,0,0-1.4c0,0,1.5-0.6,1.8-0.9    c0,0,0.8-0.7,0.7-2.2c0,0,0.4-1.9,1.6-0.5c0,0,0.6,0.8,0.3,1.5c0,0-1.3,2-0.8,6.2c0,0-0.1,1.9-0.5,2.6c0,0-0.4,1.2-0.2,1.7    c0,0-0.5,0.8-0.4,1.9c0,0-0.1,2.3-1,3.7c0,0-0.9,0.7-0.4,1.3c0,0,0.5,0.1,0.6,0.3l0.9,0.2c0,0,0.5-0.1,0.5-1c0,0-0.2-2.5,0.2-3    c0,0,0.5,0.9,1.2-0.5l0.8,0.5c0,0-0.4,1.2,0.1,1.4c0,0,0.4,0.3,0.9-1c0,0,0.6,0.4,1.4,0.4c0,0,0.1,1,0.7,1c0,0,0.4,0.1,0.3-1.1    c0,0-0.2,0.4,1-0.9c0,0,1,0.3,1.4,0.4c0,0,0.3,0.9,0,1.7c0,0,0.1,0.5,1.1,0.5c0,0,0.9,0.2,0.6-0.9c0,0-0.3-0.9-0.2-0.9    c0,0,2.5,0.4,4,0c0,0,0.1,0.5,0.6,0.9c0,0,0.7,2.5,0.1,3.6c0,0-0.2,0.2,0.2,0.6c0,0,0.6,0.4,0.6,0.6c0,0,1.3,0.3,1.4-0.7    c0,0-0.1-0.5-0.5-1.2c0,0-1-1.7-0.8-3.5c0,0,0.3-0.4,0.3-0.7c0,0,2.8-1.1,3.2-2l0.4,0.7c0,0-0.3,1,0.4,1.7c0,0,0.7,0.6,0.6,2.1    c0,0-0.3,0.9,0.3,1.2c0,0,0.7,0.3,1,0.6c0,0,0.9,0.1,0.9-0.4c0,0-0.2-0.7-0.7-1.4c0,0-0.7-1.1-0.9-2.5c0,0,0.1-1.3-0.4-2.2    c0,0-0.2-1.5,0-2.2c0,0,0.5-1.5,0.5-3.1c0,0,0-4.5,0.8-6.8c0,0,0.7-2.6-0.1-4.9c0,0,1.2-0.2,2.1-1c0,0,0.6-0.4,0.8-0.3    c0,0-1.1-0.1-1.2-0.2c0,0-1.4-1.2-2.4-0.7c0,0,0.9-2.4-0.9-3.1c0,0,0.4,1,0.2,1.5c0,0-0.7-0.8-1-0.4c0,0-0.1-1-0.6-0.2    c0,0-0.4-0.6-0.9-0.3l0.1-0.1c0,0-0.7-0.7-1.1,0c0,0-0.4-1-1.3,0.4c0,0-1.5,0-1,1.1c0,0-1.3,0.4-0.3,1.2c0,0-0.2,0.1,0,0.4    c0,0-1,0.1-1.1-1.9c0,0-1.8,1.2,0.4,3c0,0-1,0.6-1.1,1.7c0,0-0.4,1.5-1.3,1.8c0,0,1.3,0.9,2.5-0.7c0,0,0.6-1.4,0.8-0.8    c0,0,0.3,0.7,0,1.3c0,0-2.4,2.5,1,3.1c0,0-1.6,1.7-7.1-0.4c0,0-3.1-1.4-4.1-1.5c0,0-1.6,0.4-2-0.2c0,0-0.7-1.4-1.7-1.5    c0,0-1.5,0-1.6,2.1c0,0,0.3,1.5-1.6,2.1c0,0-1.6,0.4-1.3,1.4c0,0-1,1.7,0.4,2.3c0,0,1.4-0.2,1.8,0.3c0,0,0.3,0,0.4,0.2    C3.5,37.5,3.6,37,3.6,37z"/>
		<path class="st9" d="M1.2,35.7c0,0-0.1,0.2,0.6,0.4c0,0,0.6,0.2,0.7,0.5"/>
		<path class="st9" d="M9.2,31.1c0,0-2.5-0.8-3,0.4"/>
		<path class="st9" d="M6.6,41.4c0,0-0.3,1.3-0.7,1.6c0,0-0.1,1-0.8,1.4"/>
		<path class="st9" d="M5.5,44c0,0-0.3,1.1-0.5,1.5"/>
		<path class="st9" d="M3.5,48.4c0,0,0.2,0.3,0.7,0.2"/>
		<path class="st5" d="M4.9,44h0.3c0,0,0.1-0.1,0.1-0.3C5.3,43.7,5.1,43.5,4.9,44"/>
		<path class="st9" d="M6.4,42.1c0,0,2.3,2.7,5.2,3.2"/>
		<path class="st9" d="M13,45.7c0,0,0.8,0.2,1.6,0.3"/>
		<path class="st9" d="M13.6,47c0,0-0.2,0.1,0.7,0.1"/>
		<path class="st9" d="M17.4,43c0,0,1.6,0.8,1.2,2.9"/>
		<path class="st9" d="M20.5,42.4c0,0-0.4,2.1,0.2,3"/>
		<path class="st9" d="M20.3,46.2c0,0-0.3,0.1-0.6-0.1"/>
		<path class="st9" d="M19.8,50.7c0,0,0.5,0.3,1,0.2"/>
		<path class="st9" d="M26.1,48.8c0,0,0.4,0.3,1.1,0.1"/>
		<path class="st9" d="M25.9,45.3c0,0-0.1,0.2-0.2,0.4"/>
		<path class="st9" d="M23.9,43.6c0.1,0,1.4-1.4,1.6-2.4"/>
		<path class="st9" d="M26.3,33.6c0,0-0.8,0.4-1.2,0.5c0,0-1.8,0.6-2,1.7c0,0,0,0.4,0.3,0.7c0,0,0.3,0.5,0,1.8c0,0,0,1.3,1.6,1.3    c0,0,0.7,0,1-0.6C25.9,39.1,26,34.2,26.3,33.6z"/>
		<path class="st9" d="M19.6,32.8c0,0-1,1-0.1,1.8c0,0,1.5,1,1.5,1.6c0,0,0,0.8-0.5,1.1c0,0-0.6,0.8-0.2,1.4c0,0,0.5,0.9-0.7,1.5    c0,0-2.5,0.8-2.7,1.1c0,0-2.1,0.6-2.6-0.2c0,0-1.8-1.4-3.5-1.7c0,0-1.7-0.7-1.5-2.4c0,0,0.4-4.7,4.5-4.7    C13.9,32.3,17.2,33.4,19.6,32.8z"/>
		<path class="st9" d="M5.7,32.8c0,0,2.5-0.4,2.6,1.5c0,0-0.2,1.2-0.5,1.7c0,0-0.4,0.7,0.2,1.3c0,0,1.2,0.9,1.1,1.8    c0,0-0.3,1.6-2.1,1.8c0,0-1.5-0.2-1.7-1.1c0,0,0.2-1.6,0.1-3C5.3,36.7,5.3,33.3,5.7,32.8z"/>
		<path class="st9" d="M26.3,27.8c0,0,0.1,0.8-0.4,1.5c0,0-1.4,1.6-1.7,2.7c0,0-0.5,1.2-1.4,1.4c0,0-0.9,0.1-1.1-0.3    c0,0-0.6-1-1.3-0.8"/>
		<path class="st9" d="M20.9,32.4c0,0,0.2-0.3,1.5-0.3c0,0,2.1-0.2,2.1-1.9c0,0-0.1-2-2.6-1.7c0,0-1.4-0.1-2.6,0.8"/>
		<path class="st9" d="M19.1,30.3c0,0,0.5-0.2,0.6,0.2"/>
		<path class="st9" d="M23.3,29.4c0,0-0.5-0.4-0.6,0.3"/>
		<path class="st9" d="M21.7,32.2c0,0,0.5,1,1.2,0.4"/>
		<path class="st9" d="M18.8,26.9c0,0-0.5,0.2-0.7,0.9c0,0-0.3,0.8-0.9,1.2"/>
		<path class="st9" d="M25,25c0,0,0.6,0.6,1.9,0.2c0,0,0.6-0.4,1.1-0.2"/>
		<path class="st9" d="M22.3,22.1c0,0,0.3-0.2,0.4-0.6"/>
		<path class="st9" d="M20,22.9"/>
		<path class="st9" d="M20,23c0,0-0.3,0-0.4,0.5c0,0-0.1,0.4,0.5,0.4"/>
		<path class="st9" d="M19,24.3c0,0,0.4-0.2,0.6,0"/>
		<path class="st9" d="M25.4,22.5c0,0,0,0.9-0.9,1.6c0,0-0.8,0.8-1.2-0.2c0,0,0.2,1.5-0.8,0.7c0,0-1.4,0.9-1.1-0.4"/>
		<path class="st9" d="M19,24.9c0,0,0.4,0.4,0.9,0.1c0,0,0.3,1,1.6-0.1"/>
		<path class="st9" d="M26.1,24.2c0,0-0.2,0.4-1,0.4"/>
		<path class="st9" d="M26.8,26.4c0,0-1.3-0.3-1.9-0.9"/>
		<circle class="st5" cx="22.7" cy="25.9" r="0.3"/>
		<path class="st5" d="M20.1,26.7c0,0.2-0.1,0.3-0.3,0.3c-0.2,0-0.3-0.1-0.3-0.3c0-0.2,0.1-0.3,0.3-0.3C20,26.3,20.1,26.5,20.1,26.7    z"/>
		<path class="st9" d="M21.9,25.7c0,0,0.2,0.3,0.6,0.3"/>
		<path class="st9" d="M21.9,25.3c0,0,0.1,0.4,0.6,0.4"/>
		<path class="st9" d="M22.4,25c0,0,0,0.5,0.3,0.6"/>
		<path class="st10" d="M18.5,26"/>
		<path class="st9" d="M19.6,26.6c-0.4-0.3-0.2-0.6-0.2-0.6"/>
		<path class="st9" d="M19.9,26.5c-0.4-0.3-0.2-0.6-0.2-0.6"/>
		<path class="st9" d="M19.2,26c0,0-0.2,0.4,0.4,0.6"/>
		<path class="st11" d="M3.6,37c0,0,0.1-0.4-0.2-0.4c0,0-0.6-0.2-0.6-0.8c0,0-0.2-0.8-1-0.7c0,0-1.3,0,0-1.4c0,0,1.5-0.6,1.8-0.9    c0,0,0.8-0.7,0.7-2.2c0,0,0.4-1.9,1.6-0.5c0,0,0.6,0.8,0.3,1.5c0,0-1.3,2-0.8,6.2c0,0-0.1,1.9-0.5,2.6c0,0-0.4,1.2-0.2,1.7    c0,0-0.5,0.8-0.4,1.9c0,0-0.1,2.3-1,3.7c0,0-0.9,0.7-0.4,1.3c0,0,0.5,0.1,0.6,0.3l0.9,0.2c0,0,0.5-0.1,0.5-1c0,0-0.2-2.5,0.2-3    c0,0,0.5,0.9,1.2-0.5l0.8,0.5c0,0-0.4,1.2,0.1,1.4c0,0,0.4,0.3,0.9-1c0,0,0.6,0.4,1.4,0.4c0,0,0.1,1,0.7,1c0,0,0.4,0.1,0.3-1.1    c0,0-0.2,0.4,1-0.9c0,0,1,0.3,1.4,0.4c0,0,0.3,0.9,0,1.7c0,0,0.1,0.5,1.1,0.5c0,0,0.9,0.2,0.6-0.9c0,0-0.3-0.9-0.2-0.9    c0,0,2.5,0.4,4,0c0,0,0.1,0.5,0.6,0.9c0,0,0.7,2.5,0.1,3.6c0,0-0.2,0.2,0.2,0.6c0,0,0.6,0.4,0.6,0.6c0,0,1.3,0.3,1.4-0.7    c0,0-0.1-0.5-0.5-1.2c0,0-1-1.7-0.8-3.5c0,0,0.3-0.4,0.3-0.7c0,0,2.8-1.1,3.2-2l0.4,0.7c0,0-0.3,1,0.4,1.7c0,0,0.7,0.6,0.6,2.1    c0,0-0.3,0.9,0.3,1.2c0,0,0.7,0.3,1,0.6c0,0,0.9,0.1,0.9-0.4c0,0-0.2-0.7-0.7-1.4c0,0-0.7-1.1-0.9-2.5c0,0,0.1-1.3-0.4-2.2    c0,0-0.2-1.5,0-2.2c0,0,0.5-1.5,0.5-3.1c0,0,0-4.5,0.8-6.8c0,0,0.7-2.6-0.1-4.9c0,0,1.2-0.2,2.1-1c0,0,0.6-0.4,0.8-0.3    c0,0-1.1-0.1-1.2-0.2c0,0-1.4-1.2-2.4-0.7c0,0,0.9-2.4-0.9-3.1c0,0,0.4,1,0.2,1.5c0,0-0.7-0.8-1-0.4c0,0-0.1-1-0.6-0.2    c0,0-0.4-0.6-0.9-0.3l0.1-0.1c0,0-0.7-0.7-1.1,0c0,0-0.4-1-1.3,0.4c0,0-1.5,0-1,1.1c0,0-1.3,0.4-0.3,1.2c0,0-0.2,0.1,0,0.4    c0,0-1,0.1-1.1-1.9c0,0-1.8,1.2,0.4,3c0,0-1,0.6-1.1,1.7c0,0-0.4,1.5-1.3,1.8c0,0,1.3,0.9,2.5-0.7c0,0,0.6-1.4,0.8-0.8    c0,0,0.3,0.7,0,1.3c0,0-2.4,2.5,1,3.1c0,0-1.6,1.7-7.1-0.4c0,0-3.1-1.4-4.1-1.5c0,0-1.6,0.4-2-0.2c0,0-0.7-1.4-1.7-1.5    c0,0-1.5,0-1.6,2.1c0,0,0.3,1.5-1.6,2.1c0,0-1.6,0.4-1.3,1.4c0,0-1,1.7,0.4,2.3c0,0,1.4-0.2,1.8,0.3c0,0,0.3,0,0.4,0.2    C3.5,37.5,3.6,37,3.6,37z"/>
	</g>
</g>
</svg>