<?xml version="1.0" encoding="UTF-8"?>
<!-- Generator: Adobe Illustrator 24.0.2, SVG Export Plug-In . SVG Version: 6.00 Build 0)  -->
<svg version="1.1" id="Calque_1" xmlns="http://www.w3.org/2000/svg" xmlns:xlink="http://www.w3.org/1999/xlink" x="0px" y="0px" viewBox="0 0 95 60" style="enable-background:new 0 0 95 60;" xml:space="preserve">
<style type="text/css">
	.st0{fill:#FFFFFF;stroke:#DADADA;stroke-width:0.7175;stroke-miterlimit:10;}
	.st1{fill:#FFFFFF;stroke:#9D9D9C;stroke-width:0.7175;stroke-miterlimit:10;}
	.st2{enable-background:new    ;}
	.st3{fill:#7FC7EB;}
	.st4{fill:#7DB728;}
	.st5{fill:#B2B2B2;}
	.st6{fill:#E11683;}
	.st7{opacity:0.8;enable-background:new    ;}
	.st8{fill:#3C3C3B;}
	.st9{fill:#878787;}
	.st10{fill:#FFFFFF;stroke:#000000;stroke-width:0.9568;stroke-miterlimit:10;stroke-dasharray:8.6289,4.3144,8.6289,4.3144;}
	.st11{fill:#FFFFFF;stroke:#000000;stroke-width:0.9567;stroke-miterlimit:10;}
	.st12{fill:none;stroke:#B2B2B2;stroke-width:0.3588;stroke-miterlimit:10;}
	.st13{fill:#575756;}
	.st14{fill:#FFFFFF;stroke:#000000;stroke-width:0.3291;stroke-linecap:round;stroke-linejoin:round;stroke-miterlimit:10;}
	.st15{fill:none;stroke:#575756;stroke-width:0.1721;stroke-linecap:round;stroke-linejoin:round;stroke-miterlimit:10;}
	.st16{fill:none;stroke:#575756;stroke-width:0.5164;stroke-linecap:round;stroke-linejoin:round;stroke-miterlimit:10;}
	.st17{fill:#575756;stroke:#575756;stroke-width:0.1097;stroke-miterlimit:10;}
</style>
<g id="_x3C_Groupe_x3E__taxi">
	<rect x="60.4" y="48.7" class="st0" width="33.9" height="10.7"/>
	<polygon class="st1" points="72.8,25.8 60.5,25.8 60.5,2.9 94.3,2.9 94.3,25.8 75.4,25.8  "/>
	<polygon class="st1" points="72.8,48.6 60.5,48.6 60.5,25.7 94.3,25.7 94.3,48.6 75.4,48.6  "/>
	<g class="st2">
		<path class="st3" d="M88.471,9.27c-0.072,0.067-0.158,0.126-0.256,0.176c-0.097,0.05-0.199,0.092-0.305,0.127    c-0.107,0.035-0.215,0.061-0.324,0.078c-0.109,0.018-0.211,0.026-0.305,0.026c-0.251,0-0.477-0.042-0.676-0.127    c-0.201-0.084-0.371-0.206-0.512-0.362c-0.14-0.157-0.248-0.347-0.322-0.571c-0.076-0.224-0.113-0.475-0.113-0.752    c0-0.317,0.047-0.595,0.139-0.834c0.093-0.239,0.217-0.438,0.371-0.598c0.154-0.159,0.332-0.279,0.533-0.358    c0.201-0.08,0.412-0.12,0.63-0.12c0.089,0,0.18,0.006,0.272,0.017c0.092,0.012,0.186,0.03,0.279,0.057    c0.093,0.026,0.186,0.062,0.278,0.106s0.183,0.1,0.272,0.166l-0.148,0.444c-0.078-0.069-0.157-0.127-0.238-0.175    c-0.081-0.047-0.162-0.086-0.242-0.115c-0.082-0.028-0.162-0.049-0.242-0.062s-0.157-0.019-0.231-0.019    c-0.174,0-0.333,0.03-0.479,0.09s-0.271,0.15-0.376,0.27c-0.104,0.12-0.187,0.269-0.246,0.447    c-0.059,0.178-0.089,0.386-0.089,0.623c0,0.191,0.025,0.374,0.077,0.547c0.051,0.174,0.126,0.328,0.225,0.46    c0.1,0.132,0.221,0.238,0.365,0.317s0.311,0.118,0.498,0.118c0.094,0,0.189-0.01,0.285-0.032c0.098-0.021,0.191-0.052,0.284-0.093    c0.093-0.04,0.181-0.088,0.265-0.144c0.085-0.056,0.162-0.118,0.23-0.188L88.471,9.27z"/>
	</g>
	<g class="st2">
		<path class="st4" d="M91.713,6.015v0.456c-0.1-0.021-0.197-0.035-0.294-0.041s-0.201-0.009-0.313-0.009h-0.595v2.121    c0,0.244,0.003,0.458,0.009,0.645s0.02,0.329,0.041,0.428h-0.57c0.021-0.099,0.035-0.241,0.041-0.428s0.009-0.401,0.009-0.645    V6.421h-0.582c-0.11,0-0.215,0.003-0.313,0.009c-0.097,0.006-0.196,0.02-0.295,0.041V6.015H91.713z"/>
	</g>
	<g class="st2">
		<path class="st3" d="M88.359,32.055c-0.072,0.066-0.158,0.125-0.256,0.176c-0.097,0.051-0.199,0.092-0.305,0.127    c-0.107,0.035-0.215,0.061-0.324,0.078s-0.211,0.025-0.305,0.025c-0.251,0-0.477-0.042-0.676-0.127    c-0.201-0.084-0.371-0.205-0.512-0.362c-0.14-0.157-0.248-0.347-0.322-0.571c-0.076-0.223-0.113-0.474-0.113-0.752    c0-0.317,0.047-0.595,0.139-0.834c0.093-0.239,0.217-0.438,0.371-0.598c0.154-0.159,0.332-0.279,0.533-0.358    c0.201-0.08,0.412-0.12,0.63-0.12c0.089,0,0.18,0.006,0.272,0.017c0.092,0.012,0.186,0.03,0.279,0.057    c0.093,0.026,0.186,0.062,0.278,0.106s0.183,0.1,0.272,0.166l-0.148,0.444c-0.078-0.069-0.157-0.127-0.238-0.175    c-0.081-0.047-0.162-0.086-0.242-0.115c-0.082-0.028-0.162-0.049-0.242-0.062s-0.157-0.019-0.231-0.019    c-0.174,0-0.333,0.03-0.479,0.09s-0.271,0.15-0.376,0.27c-0.104,0.12-0.187,0.269-0.246,0.447    c-0.059,0.178-0.089,0.386-0.089,0.623c0,0.191,0.025,0.374,0.077,0.548c0.051,0.174,0.126,0.327,0.225,0.459    c0.1,0.133,0.221,0.238,0.365,0.317s0.311,0.118,0.498,0.118c0.094,0,0.189-0.01,0.285-0.031c0.098-0.021,0.191-0.053,0.284-0.094    c0.093-0.039,0.181-0.088,0.265-0.144c0.085-0.056,0.162-0.118,0.23-0.188L88.359,32.055z"/>
		<path class="st3" d="M91.717,32.055c-0.072,0.066-0.158,0.125-0.256,0.176c-0.097,0.051-0.199,0.092-0.305,0.127    c-0.107,0.035-0.215,0.061-0.324,0.078s-0.211,0.025-0.305,0.025c-0.251,0-0.477-0.042-0.676-0.127    c-0.201-0.084-0.371-0.205-0.512-0.362c-0.14-0.157-0.248-0.347-0.322-0.571c-0.076-0.223-0.113-0.474-0.113-0.752    c0-0.317,0.047-0.595,0.139-0.834c0.093-0.239,0.217-0.438,0.371-0.598c0.154-0.159,0.332-0.279,0.533-0.358    c0.201-0.08,0.412-0.12,0.63-0.12c0.089,0,0.18,0.006,0.272,0.017c0.092,0.012,0.186,0.03,0.279,0.057    c0.093,0.026,0.186,0.062,0.278,0.106s0.183,0.1,0.272,0.166l-0.148,0.444c-0.078-0.069-0.157-0.127-0.238-0.175    c-0.081-0.047-0.162-0.086-0.242-0.115c-0.082-0.028-0.162-0.049-0.242-0.062s-0.157-0.019-0.231-0.019    c-0.174,0-0.333,0.03-0.479,0.09s-0.271,0.15-0.376,0.27c-0.104,0.12-0.187,0.269-0.246,0.447    c-0.059,0.178-0.089,0.386-0.089,0.623c0,0.191,0.025,0.374,0.077,0.548c0.051,0.174,0.126,0.327,0.225,0.459    c0.1,0.133,0.221,0.238,0.365,0.317s0.311,0.118,0.498,0.118c0.094,0,0.189-0.01,0.285-0.031c0.098-0.021,0.191-0.053,0.284-0.094    c0.093-0.039,0.181-0.088,0.265-0.144c0.085-0.056,0.162-0.118,0.23-0.188L91.717,32.055z"/>
	</g>
	<g class="st2">
		<path class="st5" d="M66.883,54.607c0-0.203-0.002-0.393-0.004-0.566c-0.004-0.175-0.012-0.335-0.021-0.48    c-0.012-0.146-0.028-0.277-0.051-0.396c-0.021-0.118-0.051-0.224-0.089-0.315h0.595c0.024,0.058,0.049,0.138,0.072,0.241    c0.025,0.104,0.045,0.232,0.061,0.383c0.076-0.1,0.16-0.193,0.252-0.279c0.092-0.085,0.188-0.158,0.291-0.219    c0.103-0.06,0.211-0.107,0.324-0.141c0.113-0.034,0.231-0.051,0.355-0.051c0.187,0,0.357,0.041,0.514,0.123    c0.154,0.082,0.287,0.197,0.396,0.346c0.108,0.147,0.193,0.322,0.254,0.525s0.091,0.425,0.091,0.666    c0,0.28-0.04,0.534-0.119,0.761c-0.079,0.228-0.187,0.421-0.321,0.581c-0.137,0.16-0.295,0.283-0.479,0.369    c-0.183,0.087-0.377,0.13-0.584,0.13c-0.088,0-0.172-0.009-0.25-0.026s-0.154-0.041-0.229-0.072    c-0.073-0.03-0.146-0.068-0.219-0.113s-0.148-0.095-0.229-0.149v0.772c0,0.131,0.002,0.25,0.006,0.357    c0.002,0.105,0.008,0.203,0.014,0.293c0.008,0.09,0.016,0.174,0.027,0.249c0.011,0.075,0.023,0.148,0.036,0.218h-0.694V54.607z     M68.42,55.742c0.116,0,0.229-0.027,0.335-0.082s0.202-0.135,0.284-0.238c0.082-0.104,0.148-0.23,0.198-0.379    s0.074-0.314,0.074-0.501c0-0.183-0.017-0.347-0.052-0.495c-0.033-0.148-0.084-0.273-0.15-0.378    c-0.065-0.104-0.146-0.185-0.238-0.241c-0.094-0.058-0.201-0.086-0.319-0.086c-0.095,0-0.192,0.021-0.291,0.063    s-0.195,0.104-0.289,0.184c-0.093,0.082-0.181,0.184-0.263,0.305s-0.152,0.262-0.215,0.419v1.036    c0.113,0.078,0.21,0.145,0.293,0.195c0.082,0.051,0.158,0.092,0.227,0.121c0.068,0.03,0.133,0.051,0.195,0.062    C68.272,55.736,68.342,55.742,68.42,55.742z"/>
		<path class="st5" d="M73.541,54.459c0,0.415,0.023,0.763,0.068,1.045c0.047,0.281,0.106,0.514,0.18,0.698h-0.578    c-0.012-0.028-0.027-0.067-0.047-0.118s-0.04-0.107-0.061-0.173c-0.021-0.064-0.041-0.134-0.061-0.208    c-0.018-0.075-0.034-0.15-0.047-0.225c-0.086,0.109-0.178,0.213-0.273,0.31s-0.196,0.182-0.302,0.257    c-0.106,0.074-0.216,0.133-0.331,0.176c-0.114,0.043-0.23,0.063-0.35,0.063c-0.139,0-0.277-0.029-0.414-0.089    c-0.139-0.059-0.262-0.147-0.373-0.266c-0.109-0.119-0.199-0.268-0.268-0.445c-0.068-0.18-0.102-0.389-0.102-0.631    c0-0.252,0.027-0.48,0.084-0.686c0.057-0.204,0.133-0.387,0.229-0.547c0.086-0.141,0.177-0.263,0.274-0.368    c0.097-0.104,0.203-0.192,0.318-0.261c0.116-0.07,0.243-0.121,0.382-0.156c0.14-0.035,0.293-0.053,0.463-0.053    c0.083,0,0.177,0.006,0.278,0.018c0.104,0.012,0.207,0.029,0.314,0.051c0.107,0.022,0.213,0.049,0.318,0.079    c0.106,0.03,0.204,0.063,0.295,0.099V54.459z M72.203,53.342c-0.07,0-0.143,0.008-0.213,0.024    c-0.072,0.017-0.143,0.044-0.212,0.084s-0.137,0.092-0.202,0.156c-0.064,0.064-0.126,0.146-0.184,0.245    c-0.059,0.101-0.107,0.227-0.143,0.377c-0.037,0.149-0.055,0.303-0.055,0.461c0,0.182,0.017,0.338,0.051,0.469    s0.08,0.238,0.136,0.322s0.12,0.146,0.191,0.186s0.144,0.06,0.216,0.06c0.094,0,0.193-0.028,0.303-0.085    c0.109-0.058,0.215-0.133,0.318-0.228s0.201-0.202,0.293-0.325s0.167-0.25,0.227-0.382v-1.233    c-0.033-0.015-0.076-0.03-0.127-0.045c-0.053-0.016-0.109-0.03-0.172-0.043c-0.063-0.014-0.131-0.023-0.205-0.031    S72.277,53.342,72.203,53.342z"/>
	</g>
	<g class="st2">
		<path class="st3" d="M76.295,52.355c0.247,0,0.461,0.029,0.641,0.087s0.338,0.134,0.474,0.228l-0.13,0.666    c-0.168-0.123-0.336-0.217-0.502-0.277c-0.166-0.063-0.346-0.093-0.539-0.093c-0.166,0-0.32,0.031-0.463,0.095    c-0.143,0.063-0.266,0.152-0.371,0.271c-0.105,0.118-0.188,0.264-0.248,0.437c-0.059,0.173-0.089,0.367-0.089,0.584    c0,0.2,0.027,0.382,0.082,0.544s0.132,0.303,0.234,0.42c0.102,0.117,0.224,0.207,0.368,0.271c0.143,0.064,0.306,0.096,0.486,0.096    c0.226,0,0.43-0.037,0.613-0.113c0.184-0.077,0.357-0.188,0.521-0.33l0.074,0.647c-0.095,0.071-0.188,0.133-0.28,0.183    c-0.094,0.051-0.19,0.093-0.292,0.127c-0.102,0.033-0.21,0.057-0.327,0.073c-0.116,0.017-0.244,0.024-0.383,0.024    c-0.25,0-0.484-0.044-0.703-0.132c-0.217-0.087-0.408-0.214-0.572-0.379c-0.163-0.165-0.292-0.364-0.387-0.599    c-0.094-0.234-0.141-0.5-0.141-0.796c0-0.278,0.045-0.541,0.136-0.788c0.091-0.246,0.22-0.462,0.387-0.646    c0.167-0.186,0.37-0.332,0.609-0.439C75.732,52.409,76,52.355,76.295,52.355z"/>
	</g>
	<g class="st2">
		<path class="st6" d="M79.741,52.355c0.134,0,0.26,0.009,0.378,0.025c0.117,0.018,0.225,0.041,0.322,0.068    c0.099,0.029,0.188,0.061,0.27,0.097c0.082,0.036,0.155,0.071,0.22,0.105l-0.13,0.647c-0.063-0.037-0.133-0.076-0.212-0.117    c-0.079-0.04-0.165-0.078-0.259-0.112c-0.092-0.034-0.191-0.063-0.297-0.087s-0.215-0.035-0.329-0.035    c-0.136,0-0.251,0.015-0.344,0.045c-0.093,0.029-0.167,0.066-0.224,0.112c-0.055,0.046-0.096,0.097-0.12,0.155    s-0.037,0.114-0.037,0.168c0,0.064,0.01,0.121,0.03,0.17c0.02,0.05,0.061,0.096,0.124,0.137c0.063,0.043,0.153,0.084,0.27,0.123    s0.272,0.081,0.468,0.125c0.169,0.037,0.328,0.085,0.477,0.143c0.148,0.059,0.278,0.131,0.39,0.221    c0.112,0.088,0.2,0.195,0.265,0.32c0.064,0.124,0.096,0.272,0.096,0.445c0,0.168-0.037,0.322-0.111,0.466    s-0.176,0.269-0.305,0.376c-0.129,0.106-0.279,0.19-0.453,0.251c-0.174,0.06-0.361,0.091-0.562,0.091    c-0.151,0-0.297-0.012-0.437-0.033c-0.141-0.022-0.271-0.053-0.395-0.093c-0.122-0.04-0.234-0.085-0.336-0.137    s-0.189-0.106-0.264-0.163l0.186-0.666c0.084,0.074,0.18,0.143,0.284,0.203c0.105,0.063,0.214,0.115,0.325,0.16    c0.111,0.044,0.224,0.078,0.336,0.102c0.113,0.023,0.219,0.035,0.318,0.035c0.109,0,0.209-0.015,0.299-0.043    c0.091-0.028,0.169-0.065,0.234-0.111c0.066-0.045,0.117-0.098,0.154-0.158s0.057-0.123,0.057-0.188    c0-0.068-0.016-0.133-0.043-0.193c-0.029-0.061-0.081-0.119-0.156-0.174c-0.076-0.057-0.18-0.109-0.313-0.162    c-0.133-0.051-0.303-0.104-0.512-0.154c-0.225-0.055-0.408-0.119-0.551-0.193c-0.143-0.073-0.254-0.154-0.335-0.244    c-0.081-0.088-0.136-0.184-0.165-0.287c-0.03-0.104-0.045-0.214-0.045-0.33c0-0.057,0.01-0.123,0.027-0.199    c0.02-0.076,0.05-0.156,0.094-0.238c0.043-0.083,0.1-0.164,0.17-0.244c0.071-0.08,0.16-0.152,0.266-0.215    c0.107-0.063,0.232-0.114,0.376-0.154C79.387,52.375,79.553,52.355,79.741,52.355z"/>
	</g>
	<g class="st7">
		<path class="st8" d="M83.345,52.783c0.181,0,0.341,0.021,0.479,0.064c0.139,0.042,0.258,0.102,0.359,0.177    s0.186,0.164,0.254,0.265c0.068,0.102,0.123,0.209,0.164,0.326c0.041,0.115,0.07,0.236,0.088,0.363    c0.018,0.125,0.026,0.25,0.026,0.373v0.128c0,0.055-0.001,0.097-0.003,0.128H82.37c0.007,0.193,0.036,0.361,0.091,0.504    c0.054,0.142,0.127,0.26,0.221,0.353s0.204,0.163,0.331,0.209c0.126,0.046,0.265,0.069,0.415,0.069    c0.213,0,0.422-0.024,0.627-0.072c0.205-0.049,0.408-0.135,0.611-0.257l0.066,0.542c-0.117,0.06-0.231,0.11-0.344,0.152    c-0.112,0.041-0.225,0.075-0.337,0.102c-0.112,0.025-0.227,0.045-0.343,0.057c-0.115,0.013-0.236,0.019-0.364,0.019    c-0.212,0-0.413-0.036-0.604-0.11c-0.191-0.073-0.36-0.182-0.506-0.325s-0.261-0.321-0.347-0.534s-0.129-0.459-0.129-0.74    c0-0.271,0.036-0.518,0.11-0.738c0.074-0.22,0.18-0.408,0.316-0.564c0.136-0.157,0.303-0.277,0.498-0.362    C82.88,52.825,83.1,52.783,83.345,52.783z M83.295,53.275c-0.242,0-0.44,0.071-0.595,0.213c-0.154,0.141-0.255,0.361-0.304,0.659    h1.725c0-0.141-0.021-0.265-0.061-0.374c-0.041-0.107-0.099-0.199-0.172-0.273c-0.074-0.074-0.162-0.131-0.264-0.168    S83.414,53.275,83.295,53.275z"/>
		<path class="st8" d="M85.574,56.202V54.18c0-0.324-0.018-0.599-0.055-0.823c-0.035-0.225-0.072-0.394-0.11-0.508h0.595    c0.027,0.062,0.051,0.139,0.071,0.231c0.021,0.094,0.038,0.197,0.053,0.311c0.015,0.114,0.024,0.236,0.031,0.365    s0.011,0.26,0.011,0.392v0.214c0.111-0.31,0.222-0.565,0.33-0.768c0.107-0.203,0.215-0.365,0.322-0.485    c0.106-0.12,0.214-0.205,0.322-0.253c0.107-0.049,0.217-0.072,0.33-0.072c0.084,0,0.16,0.008,0.23,0.022    c0.07,0.016,0.143,0.041,0.215,0.075l-0.099,0.609c-0.063-0.027-0.12-0.045-0.169-0.053c-0.048-0.01-0.107-0.014-0.178-0.014    c-0.091,0-0.186,0.038-0.284,0.113c-0.099,0.076-0.196,0.176-0.292,0.301s-0.188,0.267-0.273,0.424    c-0.086,0.158-0.161,0.32-0.227,0.485c-0.064,0.165-0.116,0.327-0.154,0.485c-0.039,0.158-0.059,0.298-0.059,0.421    c0,0.055,0.001,0.104,0.002,0.151c0.001,0.046,0.004,0.09,0.01,0.133s0.013,0.086,0.021,0.129c0.009,0.042,0.02,0.088,0.033,0.136    H85.574z"/>
	</g>
	<g>
		<g class="st2">
			<path class="st3" d="M75.316,7.537c0.33-0.003,0.615,0.033,0.855,0.108s0.451,0.174,0.634,0.298L76.64,8.832     c-0.226-0.162-0.45-0.284-0.672-0.364c-0.222-0.081-0.462-0.12-0.72-0.118c-0.221,0.002-0.427,0.045-0.615,0.131     c-0.189,0.085-0.354,0.208-0.493,0.367C74,9.007,73.893,9.202,73.814,9.433c-0.076,0.23-0.114,0.491-0.111,0.78     c0.002,0.266,0.04,0.507,0.115,0.724c0.074,0.216,0.18,0.402,0.316,0.557c0.137,0.155,0.301,0.274,0.494,0.358     c0.191,0.084,0.408,0.125,0.649,0.123c0.301-0.002,0.573-0.056,0.817-0.16c0.242-0.104,0.473-0.252,0.689-0.445l0.106,0.862     c-0.125,0.097-0.249,0.18-0.372,0.248c-0.123,0.069-0.253,0.125-0.388,0.171c-0.136,0.046-0.28,0.08-0.435,0.103     c-0.156,0.023-0.326,0.035-0.512,0.037c-0.333,0.002-0.646-0.053-0.938-0.167s-0.547-0.281-0.768-0.499     c-0.219-0.219-0.394-0.484-0.521-0.795c-0.129-0.311-0.194-0.664-0.197-1.058c-0.004-0.372,0.055-0.722,0.172-1.052     c0.117-0.33,0.287-0.619,0.508-0.867s0.49-0.446,0.808-0.591C74.566,7.614,74.922,7.54,75.316,7.537z"/>
		</g>
		<g class="st2">
			<path class="st4" d="M77.242,7.742l0.99-0.008l-0.014-1.602l0.918-0.008l0.014,1.602l1.609-0.013l0.006,0.715l-1.609,0.013     l0.019,2.269c0.002,0.253,0.017,0.46,0.042,0.621c0.027,0.161,0.065,0.286,0.117,0.376c0.053,0.09,0.118,0.151,0.197,0.183     c0.08,0.032,0.176,0.048,0.288,0.047c0.142-0.001,0.302-0.034,0.479-0.098c0.179-0.064,0.376-0.157,0.593-0.281l0.007,0.789     c-0.227,0.15-0.443,0.255-0.652,0.314c-0.207,0.059-0.398,0.09-0.574,0.091c-0.194,0.001-0.376-0.02-0.545-0.063     s-0.317-0.12-0.445-0.23c-0.129-0.11-0.229-0.258-0.304-0.444c-0.074-0.185-0.112-0.42-0.115-0.707l-0.024-2.86l-0.99,0.008     L77.242,7.742z"/>
		</g>
		<g class="st2">
			<path class="st5" d="M69.91,17.936c0.004,0.415,0.029,0.762,0.078,1.043c0.049,0.282,0.109,0.514,0.184,0.697l-0.578,0.005     c-0.011-0.028-0.027-0.067-0.047-0.118c-0.02-0.051-0.041-0.107-0.063-0.172c-0.021-0.064-0.042-0.134-0.061-0.208     c-0.02-0.075-0.037-0.149-0.051-0.223c-0.084,0.11-0.174,0.214-0.27,0.312c-0.096,0.097-0.195,0.183-0.301,0.259     c-0.104,0.075-0.215,0.134-0.328,0.178c-0.114,0.044-0.23,0.066-0.35,0.067c-0.139,0.001-0.277-0.027-0.416-0.085     s-0.262-0.146-0.373-0.263c-0.111-0.117-0.202-0.265-0.271-0.443c-0.07-0.178-0.106-0.388-0.108-0.629     c-0.002-0.252,0.024-0.48,0.079-0.686c0.055-0.205,0.129-0.389,0.225-0.549c0.085-0.141,0.175-0.265,0.271-0.371     c0.096-0.106,0.201-0.194,0.316-0.264c0.115-0.07,0.242-0.124,0.38-0.16c0.139-0.036,0.292-0.055,0.462-0.057     c0.084,0,0.178,0.005,0.279,0.016c0.104,0.012,0.207,0.028,0.314,0.049c0.107,0.021,0.214,0.046,0.32,0.076     c0.105,0.03,0.203,0.062,0.295,0.096L69.91,17.936z M68.563,16.829c-0.07,0.001-0.142,0.01-0.213,0.026     c-0.071,0.017-0.143,0.046-0.211,0.086s-0.135,0.093-0.199,0.158c-0.065,0.065-0.126,0.147-0.182,0.247     c-0.059,0.101-0.105,0.227-0.141,0.378c-0.035,0.15-0.053,0.304-0.051,0.462c0.002,0.182,0.02,0.337,0.055,0.468     c0.035,0.13,0.082,0.237,0.139,0.321c0.057,0.084,0.121,0.145,0.193,0.184c0.071,0.039,0.144,0.059,0.217,0.058     c0.092-0.001,0.193-0.031,0.301-0.088c0.109-0.058,0.215-0.134,0.317-0.229s0.198-0.205,0.29-0.328     c0.09-0.124,0.164-0.251,0.223-0.383l-0.011-1.233c-0.032-0.015-0.075-0.03-0.127-0.045s-0.11-0.029-0.173-0.042     s-0.131-0.022-0.205-0.029S68.637,16.828,68.563,16.829z"/>
		</g>
		<g class="st2">
			<path class="st3" d="M72.942,15.378c0.275-0.002,0.513,0.028,0.713,0.091c0.2,0.063,0.376,0.146,0.529,0.249l-0.138,0.741     c-0.189-0.136-0.377-0.237-0.561-0.304c-0.186-0.067-0.386-0.1-0.601-0.098c-0.185,0.002-0.354,0.038-0.513,0.109     s-0.295,0.173-0.41,0.305c-0.116,0.133-0.206,0.295-0.271,0.488c-0.064,0.192-0.096,0.409-0.094,0.65     c0.002,0.222,0.034,0.422,0.096,0.603c0.062,0.18,0.149,0.335,0.265,0.464c0.113,0.129,0.25,0.229,0.411,0.299     c0.159,0.07,0.341,0.104,0.542,0.102c0.25-0.002,0.477-0.046,0.68-0.133c0.203-0.087,0.395-0.21,0.575-0.371l0.089,0.718     c-0.104,0.08-0.207,0.149-0.311,0.206c-0.103,0.057-0.21,0.104-0.322,0.142c-0.113,0.038-0.234,0.066-0.363,0.086     c-0.129,0.019-0.271,0.028-0.426,0.03c-0.277,0.002-0.538-0.044-0.781-0.139c-0.242-0.095-0.455-0.234-0.639-0.416     s-0.328-0.403-0.436-0.663c-0.106-0.259-0.162-0.553-0.164-0.882c-0.003-0.31,0.045-0.602,0.144-0.876     c0.099-0.275,0.239-0.516,0.423-0.723c0.185-0.207,0.408-0.371,0.674-0.493C72.318,15.443,72.615,15.381,72.942,15.378z"/>
		</g>
		<g class="st2">
			<path class="st4" d="M74.748,15.548l0.826-0.007l-0.012-1.335l0.765-0.006l0.011,1.335l1.342-0.011l0.006,0.596l-1.342,0.011     l0.016,1.89c0.002,0.211,0.014,0.384,0.035,0.518c0.021,0.134,0.055,0.239,0.098,0.313s0.098,0.126,0.164,0.152     c0.066,0.027,0.146,0.041,0.24,0.04c0.119-0.001,0.252-0.028,0.4-0.082c0.147-0.053,0.313-0.131,0.493-0.234l0.006,0.658     c-0.188,0.125-0.37,0.212-0.544,0.261c-0.172,0.049-0.332,0.075-0.479,0.076c-0.162,0.001-0.313-0.015-0.454-0.051     c-0.141-0.036-0.265-0.1-0.371-0.192c-0.106-0.093-0.191-0.216-0.253-0.37c-0.063-0.154-0.094-0.351-0.096-0.589l-0.021-2.383     l-0.825,0.007L74.748,15.548z"/>
		</g>
		<g class="st2">
			<path class="st5" d="M78.551,15.183c-0.001-0.061,0.008-0.119,0.027-0.172s0.047-0.102,0.084-0.143     c0.035-0.041,0.079-0.073,0.129-0.096c0.051-0.023,0.107-0.036,0.168-0.036c0.063,0,0.119,0.011,0.172,0.033     c0.054,0.023,0.1,0.054,0.137,0.094s0.068,0.087,0.09,0.141c0.023,0.053,0.035,0.111,0.035,0.172c0,0.062-0.01,0.119-0.031,0.173     c-0.021,0.054-0.051,0.101-0.088,0.142c-0.037,0.042-0.082,0.074-0.135,0.097c-0.053,0.023-0.109,0.035-0.172,0.036     c-0.062,0-0.117-0.01-0.169-0.033c-0.05-0.022-0.095-0.054-0.131-0.095c-0.036-0.04-0.065-0.086-0.085-0.14     C78.561,15.302,78.551,15.245,78.551,15.183z M79.301,18.038c0.001,0.105,0.004,0.229,0.008,0.373     c0.005,0.144,0.011,0.289,0.018,0.436s0.014,0.287,0.023,0.42c0.009,0.134,0.02,0.245,0.031,0.332l-0.678,0.005l-0.015-1.743     c-0.001-0.16-0.003-0.318-0.006-0.473c-0.002-0.155-0.006-0.303-0.01-0.442c-0.005-0.139-0.011-0.269-0.019-0.388     c-0.008-0.119-0.018-0.222-0.029-0.307l0.661-0.005L79.301,18.038z"/>
			<path class="st5" d="M80.242,17.932c-0.002-0.283,0.039-0.534,0.123-0.752c0.084-0.219,0.197-0.404,0.342-0.555     c0.145-0.152,0.313-0.267,0.506-0.345s0.398-0.119,0.616-0.12c0.228-0.002,0.435,0.035,0.624,0.11s0.352,0.187,0.488,0.336     c0.137,0.148,0.244,0.332,0.32,0.549c0.077,0.218,0.116,0.467,0.119,0.75c0.002,0.283-0.039,0.533-0.123,0.75     s-0.197,0.401-0.342,0.549s-0.313,0.261-0.506,0.338s-0.399,0.117-0.617,0.119c-0.227,0.002-0.436-0.034-0.623-0.108     c-0.189-0.074-0.353-0.184-0.489-0.329c-0.136-0.146-0.243-0.327-0.319-0.543C80.283,18.463,80.244,18.214,80.242,17.932z      M80.854,17.926c0.001,0.19,0.025,0.361,0.074,0.512c0.047,0.151,0.113,0.278,0.199,0.381s0.187,0.182,0.304,0.236     c0.117,0.054,0.247,0.08,0.392,0.079c0.131-0.001,0.256-0.029,0.371-0.085c0.117-0.056,0.219-0.136,0.305-0.242     c0.086-0.104,0.152-0.232,0.201-0.384s0.072-0.323,0.07-0.513c-0.002-0.193-0.026-0.366-0.074-0.518     c-0.047-0.152-0.113-0.281-0.199-0.387c-0.086-0.105-0.188-0.186-0.307-0.241c-0.118-0.055-0.248-0.082-0.389-0.081     c-0.135,0.001-0.26,0.031-0.376,0.087c-0.116,0.057-0.217,0.139-0.302,0.246s-0.152,0.237-0.199,0.39     C80.875,17.561,80.852,17.733,80.854,17.926z"/>
			<path class="st5" d="M86.055,16.124c0.352-0.003,0.623,0.11,0.812,0.337c0.189,0.228,0.286,0.567,0.29,1.019l0.018,2.055     l-0.611,0.005l-0.016-1.808c-0.002-0.206-0.018-0.376-0.046-0.509c-0.028-0.134-0.07-0.239-0.124-0.316     c-0.055-0.077-0.124-0.131-0.207-0.161c-0.082-0.03-0.18-0.045-0.293-0.044c-0.119,0.001-0.234,0.03-0.347,0.087     c-0.113,0.057-0.217,0.13-0.311,0.22c-0.095,0.089-0.177,0.19-0.249,0.303c-0.071,0.112-0.124,0.225-0.158,0.337l0.016,1.907     l-0.611,0.005L84.2,17.537c-0.003-0.324-0.023-0.599-0.062-0.823s-0.076-0.394-0.115-0.507l0.596-0.005     c0.013,0.035,0.026,0.08,0.04,0.136c0.014,0.056,0.026,0.115,0.038,0.176s0.021,0.122,0.031,0.181l0.027,0.148     c0.207-0.252,0.417-0.434,0.629-0.546C85.598,16.183,85.82,16.125,86.055,16.124z"/>
		</g>
		<g class="st2">
			<path class="st9" d="M84.942,23.507l1.098-0.009l0.003,0.396l-1.824,0.015v-0.029l0.172-0.205c0.268-0.336,0.48-0.622,0.64-0.856     c0.158-0.234,0.262-0.411,0.31-0.531s0.071-0.238,0.07-0.354c-0.002-0.162-0.049-0.291-0.143-0.389     c-0.092-0.097-0.215-0.145-0.368-0.144c-0.116,0.001-0.229,0.036-0.341,0.105s-0.211,0.165-0.301,0.289l-0.004-0.522     c0.223-0.184,0.453-0.277,0.691-0.279c0.252-0.002,0.461,0.08,0.625,0.246c0.164,0.166,0.247,0.377,0.25,0.635     c0,0.115-0.019,0.238-0.059,0.37c-0.039,0.131-0.109,0.282-0.211,0.454c-0.102,0.171-0.275,0.405-0.521,0.702L84.942,23.507z"/>
			<path class="st9" d="M86.591,21.02l1.28-0.011l0.003,0.366l-0.904,0.007l0.007,0.725c0.028-0.002,0.059-0.004,0.088-0.004     c0.279-0.002,0.51,0.08,0.691,0.248c0.182,0.167,0.274,0.382,0.276,0.644c0.003,0.27-0.085,0.491-0.262,0.661     c-0.177,0.171-0.407,0.257-0.69,0.26c-0.234,0.002-0.462-0.052-0.684-0.163l-0.003-0.423c0.209,0.133,0.413,0.198,0.61,0.196     c0.174-0.001,0.319-0.053,0.436-0.154c0.117-0.102,0.176-0.226,0.174-0.373c-0.001-0.152-0.066-0.278-0.195-0.379     s-0.289-0.151-0.48-0.149c-0.164,0.001-0.275,0.016-0.334,0.044L86.591,21.02z"/>
			<path class="st9" d="M90.2,20.956c0.177-0.001,0.329,0.061,0.456,0.186c0.126,0.125,0.189,0.276,0.191,0.453     c0.002,0.175-0.061,0.326-0.186,0.454c-0.125,0.127-0.275,0.191-0.451,0.193s-0.328-0.06-0.455-0.185     c-0.127-0.125-0.191-0.275-0.192-0.451c-0.001-0.177,0.06-0.329,0.184-0.456S90.022,20.958,90.2,20.956z M91.66,20.936     l0.319-0.002l-1.872,2.96l-0.318,0.003L91.66,20.936z M90.197,21.269c-0.092,0.001-0.17,0.034-0.234,0.099     c-0.064,0.065-0.098,0.144-0.096,0.236c0,0.09,0.034,0.167,0.101,0.23c0.066,0.063,0.145,0.095,0.235,0.094     c0.092,0,0.17-0.034,0.234-0.098c0.064-0.065,0.097-0.143,0.096-0.232c0-0.093-0.033-0.171-0.098-0.235     C90.369,21.299,90.291,21.268,90.197,21.269z M91.576,22.599c0.176-0.001,0.326,0.06,0.454,0.184     c0.128,0.125,0.192,0.274,0.194,0.45c0.001,0.175-0.061,0.325-0.186,0.448c-0.125,0.124-0.275,0.187-0.453,0.188     s-0.331-0.059-0.458-0.18c-0.126-0.122-0.19-0.27-0.192-0.445c-0.002-0.177,0.061-0.328,0.186-0.454S91.398,22.601,91.576,22.599     z M91.574,22.912c-0.091,0-0.168,0.034-0.23,0.098c-0.064,0.065-0.095,0.142-0.094,0.232c0,0.092,0.033,0.17,0.098,0.234     c0.064,0.064,0.142,0.096,0.232,0.095c0.093-0.001,0.172-0.034,0.235-0.098c0.063-0.065,0.096-0.144,0.095-0.237     c0-0.091-0.033-0.168-0.099-0.231S91.667,22.911,91.574,22.912z"/>
		</g>
	</g>
	<g>
		<g class="st2">
			<path class="st3" d="M74.857,30.132c0.33-0.003,0.615,0.033,0.855,0.108s0.451,0.174,0.635,0.298l-0.166,0.889     c-0.227-0.162-0.451-0.283-0.672-0.363c-0.223-0.081-0.463-0.12-0.721-0.118c-0.221,0.002-0.426,0.045-0.615,0.132     c-0.189,0.084-0.354,0.207-0.492,0.365c-0.14,0.159-0.248,0.354-0.325,0.586c-0.077,0.23-0.114,0.49-0.112,0.779     c0.002,0.267,0.041,0.508,0.115,0.725s0.18,0.402,0.316,0.557s0.302,0.273,0.494,0.357c0.192,0.085,0.408,0.125,0.65,0.123     c0.301-0.002,0.572-0.055,0.816-0.159c0.243-0.104,0.473-0.252,0.689-0.444l0.107,0.861c-0.125,0.098-0.25,0.18-0.373,0.248     s-0.252,0.125-0.387,0.171c-0.136,0.046-0.281,0.079-0.436,0.103c-0.155,0.022-0.326,0.035-0.511,0.036     c-0.333,0.003-0.646-0.054-0.938-0.167c-0.291-0.115-0.547-0.281-0.767-0.5c-0.22-0.218-0.394-0.483-0.522-0.794     c-0.128-0.312-0.193-0.664-0.197-1.059c-0.003-0.372,0.055-0.722,0.172-1.052c0.118-0.33,0.287-0.619,0.509-0.868     c0.221-0.249,0.489-0.446,0.808-0.591C74.108,30.21,74.464,30.135,74.857,30.132z"/>
			<path class="st3" d="M79.912,30.09c0.33-0.002,0.615,0.034,0.855,0.109s0.451,0.174,0.635,0.298l-0.166,0.889     c-0.227-0.162-0.451-0.284-0.672-0.364c-0.223-0.081-0.463-0.12-0.721-0.117c-0.221,0.001-0.426,0.045-0.615,0.131     c-0.189,0.085-0.354,0.207-0.492,0.367c-0.14,0.158-0.248,0.354-0.325,0.584s-0.114,0.49-0.112,0.78     c0.002,0.267,0.041,0.508,0.115,0.724c0.074,0.217,0.18,0.402,0.316,0.557c0.137,0.156,0.302,0.275,0.494,0.359     s0.408,0.125,0.65,0.123c0.301-0.004,0.572-0.057,0.816-0.16c0.243-0.104,0.473-0.252,0.689-0.445l0.107,0.862     c-0.125,0.097-0.25,0.179-0.373,0.247c-0.123,0.069-0.252,0.126-0.387,0.172c-0.136,0.045-0.281,0.079-0.436,0.102     c-0.155,0.023-0.326,0.035-0.511,0.037c-0.333,0.002-0.646-0.054-0.938-0.168c-0.291-0.114-0.547-0.28-0.767-0.499     c-0.22-0.218-0.394-0.483-0.522-0.794c-0.128-0.312-0.193-0.664-0.197-1.059c-0.003-0.372,0.055-0.723,0.172-1.053     c0.118-0.33,0.287-0.619,0.509-0.867c0.221-0.248,0.489-0.445,0.808-0.591C79.163,30.167,79.519,30.093,79.912,30.09z"/>
		</g>
		<g class="st2">
			<path class="st5" d="M67.631,38.221c0.119-0.002,0.23,0.006,0.336,0.02c0.104,0.016,0.2,0.034,0.287,0.059     c0.088,0.024,0.168,0.053,0.24,0.084c0.073,0.031,0.139,0.062,0.195,0.092l-0.109,0.576c-0.057-0.032-0.119-0.066-0.189-0.102     c-0.071-0.035-0.148-0.068-0.23-0.098c-0.083-0.031-0.172-0.057-0.266-0.076s-0.191-0.029-0.293-0.029     c-0.121,0.002-0.223,0.016-0.305,0.043s-0.148,0.061-0.197,0.102c-0.05,0.041-0.085,0.088-0.106,0.139     c-0.021,0.053-0.032,0.102-0.032,0.15c0.001,0.057,0.01,0.107,0.028,0.151c0.019,0.043,0.056,0.083,0.111,0.12     c0.057,0.037,0.138,0.072,0.241,0.107c0.104,0.033,0.242,0.069,0.416,0.107c0.15,0.031,0.293,0.073,0.424,0.123     c0.133,0.051,0.25,0.115,0.35,0.193s0.179,0.172,0.236,0.281c0.059,0.111,0.088,0.242,0.09,0.396     c0.001,0.148-0.031,0.287-0.096,0.415s-0.154,0.239-0.269,0.335c-0.113,0.098-0.247,0.172-0.401,0.228     c-0.153,0.056-0.319,0.083-0.498,0.085c-0.134,0.001-0.264-0.008-0.389-0.026c-0.124-0.019-0.241-0.046-0.35-0.079     c-0.109-0.034-0.209-0.074-0.301-0.119c-0.09-0.045-0.169-0.094-0.236-0.143l0.161-0.594c0.075,0.065,0.159,0.125,0.254,0.179     c0.095,0.055,0.19,0.101,0.29,0.14s0.199,0.067,0.3,0.088c0.101,0.02,0.194,0.029,0.283,0.028     c0.097-0.001,0.185-0.015,0.266-0.04c0.08-0.025,0.149-0.059,0.207-0.1s0.104-0.09,0.136-0.143     c0.033-0.055,0.049-0.109,0.049-0.167c-0.001-0.062-0.014-0.119-0.04-0.173c-0.026-0.053-0.072-0.104-0.14-0.152     c-0.068-0.049-0.16-0.096-0.279-0.141c-0.118-0.045-0.27-0.09-0.455-0.135c-0.201-0.047-0.365-0.102-0.492-0.167     s-0.227-0.136-0.299-0.214c-0.072-0.079-0.122-0.164-0.149-0.256c-0.026-0.092-0.041-0.189-0.042-0.293     c0-0.05,0.007-0.109,0.023-0.177c0.016-0.068,0.043-0.14,0.08-0.214c0.038-0.072,0.088-0.146,0.15-0.217     c0.063-0.072,0.141-0.137,0.234-0.193c0.095-0.057,0.205-0.104,0.333-0.139C67.316,38.24,67.463,38.222,67.631,38.221z"/>
			<path class="st5" d="M70.717,41.696c-0.705,0.006-1.062-0.462-1.07-1.405l-0.008-0.969c0-0.105-0.002-0.201-0.004-0.287     c-0.002-0.085-0.006-0.168-0.011-0.248c-0.005-0.079-0.012-0.161-0.021-0.244c-0.009-0.084-0.022-0.174-0.039-0.273l0.677-0.005     l0.016,1.825c0.002,0.186,0.014,0.346,0.033,0.48s0.051,0.246,0.097,0.332c0.044,0.086,0.103,0.149,0.175,0.19     c0.072,0.042,0.16,0.062,0.267,0.06c0.097,0,0.2-0.029,0.31-0.089s0.215-0.134,0.314-0.225c0.099-0.091,0.189-0.19,0.271-0.3     c0.081-0.109,0.144-0.215,0.186-0.315l-0.007-0.921c-0.001-0.107-0.003-0.204-0.004-0.291c-0.002-0.086-0.005-0.169-0.011-0.248     c-0.004-0.078-0.012-0.158-0.021-0.24c-0.01-0.08-0.021-0.172-0.039-0.271l0.678-0.006l0.016,1.873     c0.002,0.32,0.023,0.601,0.062,0.84c0.038,0.24,0.093,0.453,0.165,0.639l-0.561,0.004c-0.016-0.037-0.033-0.08-0.051-0.131     c-0.019-0.051-0.036-0.104-0.053-0.16c-0.018-0.057-0.033-0.117-0.048-0.179c-0.015-0.063-0.027-0.124-0.036-0.187     c-0.198,0.246-0.403,0.432-0.614,0.559C71.172,41.63,70.949,41.694,70.717,41.696z"/>
		</g>
		<g class="st2">
			<path class="st3" d="M75.596,37.299c0.275-0.002,0.513,0.027,0.713,0.091s0.377,0.146,0.529,0.249l-0.139,0.74     c-0.188-0.135-0.375-0.236-0.561-0.303c-0.185-0.068-0.385-0.1-0.6-0.099c-0.184,0.001-0.355,0.038-0.514,0.109     c-0.157,0.071-0.294,0.173-0.41,0.306c-0.115,0.133-0.205,0.295-0.27,0.487s-0.096,0.409-0.094,0.649     c0.002,0.223,0.033,0.424,0.096,0.604c0.062,0.181,0.15,0.336,0.264,0.465c0.114,0.129,0.251,0.229,0.412,0.299     c0.16,0.07,0.34,0.104,0.541,0.102c0.25-0.002,0.479-0.046,0.681-0.133c0.203-0.086,0.396-0.21,0.575-0.37l0.088,0.718     c-0.104,0.08-0.207,0.149-0.309,0.207c-0.104,0.057-0.211,0.104-0.324,0.142c-0.112,0.038-0.233,0.066-0.362,0.085     c-0.13,0.02-0.271,0.029-0.425,0.031c-0.278,0.002-0.539-0.045-0.781-0.14c-0.244-0.095-0.457-0.233-0.641-0.416     s-0.328-0.403-0.435-0.663c-0.107-0.259-0.162-0.553-0.165-0.881c-0.002-0.311,0.045-0.603,0.144-0.877     c0.099-0.275,0.239-0.516,0.424-0.723c0.184-0.207,0.409-0.371,0.673-0.494C74.973,37.363,75.268,37.302,75.596,37.299z"/>
			<path class="st3" d="M79.809,37.264c0.275-0.002,0.512,0.027,0.713,0.091c0.199,0.063,0.376,0.146,0.529,0.249l-0.139,0.74     c-0.189-0.135-0.376-0.236-0.561-0.303c-0.186-0.068-0.385-0.1-0.6-0.099c-0.185,0.001-0.355,0.038-0.514,0.109     s-0.295,0.173-0.41,0.306s-0.206,0.295-0.271,0.487s-0.096,0.409-0.094,0.649c0.002,0.223,0.034,0.424,0.096,0.604     c0.062,0.181,0.15,0.336,0.265,0.465c0.113,0.129,0.25,0.229,0.412,0.299c0.159,0.07,0.34,0.104,0.541,0.102     c0.25-0.002,0.478-0.046,0.68-0.133c0.203-0.086,0.396-0.21,0.576-0.37l0.088,0.718c-0.104,0.08-0.207,0.149-0.31,0.207     c-0.103,0.057-0.21,0.104-0.323,0.142s-0.234,0.066-0.363,0.085c-0.129,0.02-0.271,0.029-0.425,0.031     c-0.278,0.002-0.538-0.045-0.781-0.14s-0.456-0.233-0.64-0.416s-0.328-0.403-0.436-0.663c-0.107-0.259-0.162-0.553-0.164-0.881     c-0.003-0.311,0.045-0.603,0.143-0.877c0.1-0.275,0.24-0.516,0.424-0.723s0.409-0.371,0.674-0.494     C79.185,37.328,79.48,37.267,79.809,37.264z"/>
		</g>
		<g class="st2">
			<path class="st5" d="M83.403,38.089c0.181-0.001,0.341,0.019,0.479,0.06c0.14,0.042,0.26,0.1,0.361,0.175     c0.103,0.075,0.188,0.163,0.258,0.263c0.068,0.101,0.124,0.209,0.166,0.324c0.041,0.116,0.072,0.236,0.09,0.363     c0.02,0.125,0.029,0.25,0.029,0.372l0.002,0.128c0,0.055,0,0.098-0.002,0.129l-2.343,0.02c0.009,0.192,0.04,0.36,0.095,0.502     c0.056,0.143,0.131,0.26,0.225,0.352s0.205,0.162,0.332,0.206c0.127,0.045,0.266,0.067,0.416,0.065     c0.213-0.002,0.422-0.027,0.627-0.077c0.204-0.05,0.407-0.138,0.609-0.262l0.07,0.542c-0.117,0.061-0.23,0.111-0.343,0.154     s-0.224,0.078-0.337,0.104c-0.111,0.027-0.225,0.048-0.341,0.061c-0.115,0.013-0.237,0.021-0.364,0.021     c-0.212,0.002-0.414-0.033-0.605-0.104c-0.192-0.072-0.361-0.179-0.509-0.321c-0.146-0.143-0.263-0.32-0.351-0.531     c-0.088-0.212-0.133-0.458-0.136-0.738c-0.002-0.272,0.032-0.52,0.104-0.74s0.176-0.41,0.311-0.567     c0.135-0.158,0.301-0.28,0.496-0.366S83.159,38.091,83.403,38.089z M82.84,36.252l1.168,1.404l-0.528,0.004l-1.399-1.402     L82.84,36.252z M83.358,38.582c-0.242,0.002-0.44,0.074-0.593,0.217c-0.153,0.143-0.252,0.363-0.299,0.662l1.725-0.014     c-0.002-0.141-0.022-0.266-0.064-0.373c-0.041-0.108-0.1-0.199-0.174-0.273s-0.162-0.129-0.264-0.165     S83.477,38.582,83.358,38.582z"/>
		</g>
		<g class="st2">
			<path class="st6" d="M86.822,38.061c0.119-0.002,0.23,0.006,0.336,0.02c0.104,0.016,0.2,0.034,0.287,0.059     c0.088,0.024,0.168,0.053,0.24,0.084c0.073,0.031,0.139,0.062,0.195,0.092l-0.109,0.576c-0.057-0.032-0.119-0.066-0.189-0.102     c-0.071-0.035-0.148-0.068-0.23-0.099c-0.083-0.03-0.172-0.056-0.266-0.075s-0.191-0.029-0.293-0.029     c-0.121,0.002-0.223,0.016-0.305,0.043c-0.082,0.026-0.148,0.061-0.197,0.102c-0.05,0.041-0.085,0.088-0.106,0.139     c-0.021,0.053-0.032,0.102-0.032,0.15c0.001,0.057,0.01,0.107,0.028,0.15c0.019,0.044,0.056,0.084,0.111,0.121     c0.057,0.037,0.138,0.072,0.241,0.106s0.242,0.07,0.416,0.108c0.15,0.031,0.293,0.072,0.424,0.123     c0.133,0.051,0.25,0.115,0.35,0.193c0.1,0.077,0.179,0.172,0.236,0.281c0.059,0.111,0.088,0.242,0.09,0.396     c0.001,0.148-0.031,0.287-0.096,0.414c-0.064,0.128-0.154,0.24-0.269,0.336c-0.113,0.098-0.247,0.172-0.401,0.228     c-0.153,0.056-0.319,0.083-0.498,0.085c-0.134,0.001-0.264-0.008-0.389-0.026c-0.124-0.019-0.241-0.046-0.35-0.079     c-0.109-0.034-0.209-0.074-0.3-0.119s-0.169-0.094-0.236-0.143l0.161-0.594c0.074,0.065,0.159,0.125,0.253,0.179     c0.095,0.054,0.19,0.101,0.29,0.14c0.1,0.038,0.199,0.067,0.3,0.088c0.101,0.02,0.194,0.029,0.283,0.028     c0.097-0.001,0.185-0.015,0.266-0.04c0.08-0.025,0.149-0.059,0.207-0.1s0.104-0.09,0.136-0.143     c0.033-0.055,0.049-0.109,0.049-0.167c-0.001-0.062-0.014-0.119-0.04-0.173c-0.026-0.053-0.072-0.104-0.14-0.152     c-0.068-0.049-0.16-0.096-0.279-0.141c-0.118-0.045-0.27-0.09-0.455-0.135c-0.201-0.047-0.365-0.102-0.492-0.167     s-0.227-0.136-0.299-0.214c-0.072-0.079-0.121-0.164-0.148-0.256s-0.041-0.189-0.043-0.293c0-0.05,0.008-0.109,0.023-0.177     c0.016-0.069,0.043-0.14,0.081-0.214c0.038-0.072,0.088-0.146,0.15-0.217c0.062-0.072,0.14-0.137,0.233-0.193     c0.095-0.057,0.205-0.104,0.333-0.139C86.508,38.08,86.654,38.062,86.822,38.061z"/>
		</g>
		<g class="st2">
			<path class="st9" d="M84.905,43.818l0.413-0.004l0.023,2.871l-0.412,0.003L84.905,43.818z"/>
			<path class="st9" d="M87.02,43.801l0.412-0.004l0.024,2.871l-0.413,0.003L87.02,43.801z"/>
			<path class="st9" d="M90.201,43.74c0.177-0.002,0.329,0.061,0.455,0.186c0.127,0.125,0.19,0.275,0.191,0.453     c0.002,0.175-0.06,0.326-0.185,0.453s-0.275,0.191-0.452,0.193c-0.176,0.001-0.327-0.061-0.454-0.186s-0.191-0.275-0.192-0.451     c-0.002-0.176,0.059-0.328,0.184-0.455C89.872,43.807,90.023,43.742,90.201,43.74z M91.661,43.721l0.319-0.003l-1.871,2.96     l-0.319,0.003L91.661,43.721z M90.197,44.053c-0.092,0.001-0.17,0.034-0.234,0.1s-0.097,0.144-0.096,0.235     c0.001,0.09,0.035,0.167,0.102,0.23s0.145,0.095,0.234,0.095c0.093-0.001,0.17-0.033,0.235-0.099     c0.064-0.065,0.097-0.142,0.096-0.231c-0.001-0.094-0.034-0.172-0.099-0.236C90.371,44.084,90.291,44.053,90.197,44.053z      M91.576,45.383c0.176-0.001,0.327,0.061,0.455,0.185c0.127,0.124,0.191,0.274,0.193,0.45c0.002,0.175-0.061,0.324-0.186,0.447     c-0.124,0.125-0.275,0.188-0.452,0.188c-0.179,0.001-0.331-0.058-0.458-0.181c-0.127-0.121-0.191-0.27-0.193-0.445     c-0.001-0.176,0.062-0.327,0.187-0.453C91.247,45.449,91.398,45.385,91.576,45.383z M91.574,45.695     c-0.09,0.002-0.167,0.034-0.23,0.099c-0.063,0.065-0.094,0.143-0.094,0.232c0.001,0.092,0.033,0.169,0.098,0.233     s0.143,0.097,0.232,0.096c0.094,0,0.172-0.033,0.236-0.098c0.063-0.065,0.096-0.145,0.094-0.237c0-0.091-0.033-0.169-0.098-0.231     C91.747,45.727,91.668,45.695,91.574,45.695z"/>
		</g>
	</g>
	<polyline class="st10" points="19.1,31.6 19.1,3 60.3,3 60.3,43.4  "/>
	<path class="st11" d="M60.3,43v1.4H48.5c0,0-3.8,6.8-10.1,8.1c0,0,3.8-2.5,5-8.1H19.1V27.8"/>
	<g class="st2">
		<path class="st3" d="M64.512,10c-0.508,0-0.858-0.146-1.053-0.438c-0.152-0.197-0.229-0.496-0.229-0.894    c0-0.477,0.104-0.849,0.315-1.116c0.223-0.304,0.578-0.456,1.065-0.456c0.359,0,0.645,0.078,0.855,0.234    c0.152,0.124,0.229,0.273,0.229,0.45c-0.041,0.115-0.098,0.179-0.167,0.191c-0.083,0.021-0.137-0.002-0.161-0.068    c-0.033-0.049-0.05-0.092-0.05-0.129c0-0.041,0.04-0.062,0.118-0.062c-0.07-0.275-0.32-0.413-0.75-0.413    c-0.264,0-0.467,0.144-0.607,0.432c-0.132,0.271-0.197,0.567-0.197,0.888c0,0.288,0.076,0.528,0.229,0.721    c0.152,0.218,0.367,0.327,0.645,0.327c0.285,0,0.535-0.06,0.75-0.179c0.234-0.136,0.421-0.38,0.557-0.733l0.105,0.197    c-0.141,0.382-0.332,0.645-0.576,0.789C65.322,9.914,64.961,10,64.506,10H64.512z"/>
	</g>
	<g class="st2">
		<path class="st4" d="M66.619,5.272l1.165,0.013v0.167h-1.171l0.012,3.582v0.167c0,0.263,0.035,0.436,0.105,0.518    c0.063,0.078,0.17,0.117,0.322,0.117c0.256,0,0.463-0.17,0.619-0.512c0.029-0.062,0.105-0.257,0.23-0.585l0.099,0.197    c-0.157,0.407-0.271,0.662-0.341,0.764C67.503,9.9,67.278,10,66.984,10c-0.416,0-0.673-0.049-0.768-0.148    c-0.119-0.099-0.178-0.327-0.174-0.684l-0.006-5.037h0.576L66.619,5.272z"/>
	</g>
	<g class="st2">
		<path class="st3" d="M64.211,31.82c-0.508,0-0.859-0.146-1.054-0.438c-0.153-0.197-0.229-0.496-0.229-0.894    c0-0.477,0.105-0.849,0.316-1.116c0.223-0.304,0.578-0.456,1.065-0.456c0.359,0,0.644,0.078,0.854,0.234    c0.153,0.124,0.229,0.273,0.229,0.45c-0.042,0.115-0.097,0.179-0.167,0.191c-0.083,0.021-0.137-0.002-0.161-0.068    c-0.033-0.049-0.05-0.092-0.05-0.129c0-0.041,0.039-0.062,0.117-0.062c-0.07-0.275-0.319-0.413-0.749-0.413    c-0.265,0-0.467,0.144-0.606,0.432c-0.133,0.271-0.199,0.567-0.199,0.888c0,0.288,0.076,0.528,0.229,0.721    c0.153,0.219,0.368,0.327,0.645,0.327c0.284,0,0.534-0.06,0.749-0.179c0.236-0.136,0.422-0.38,0.559-0.733l0.104,0.197    c-0.14,0.382-0.333,0.646-0.576,0.789c-0.269,0.173-0.63,0.259-1.084,0.259H64.211z"/>
		<path class="st3" d="M67.054,31.82c-0.508,0-0.858-0.146-1.054-0.438c-0.152-0.197-0.229-0.496-0.229-0.894    c0-0.477,0.105-0.849,0.316-1.116c0.223-0.304,0.578-0.456,1.064-0.456c0.359,0,0.645,0.078,0.855,0.234    c0.152,0.124,0.229,0.273,0.229,0.45c-0.041,0.115-0.097,0.179-0.166,0.191c-0.084,0.021-0.137-0.002-0.162-0.068    c-0.033-0.049-0.049-0.092-0.049-0.129c0-0.041,0.039-0.062,0.117-0.062c-0.07-0.275-0.32-0.413-0.75-0.413    c-0.264,0-0.467,0.144-0.606,0.432c-0.132,0.271-0.198,0.567-0.198,0.888c0,0.288,0.076,0.528,0.229,0.721    c0.153,0.219,0.368,0.327,0.645,0.327c0.285,0,0.535-0.06,0.75-0.179c0.235-0.136,0.422-0.38,0.558-0.733l0.104,0.197    c-0.14,0.382-0.332,0.646-0.576,0.789c-0.268,0.173-0.629,0.259-1.084,0.259H67.054z"/>
	</g>
	<path class="st12" d="M31.1,41.2c0,0,3.1,1.5,7.9,0"/>
	<path class="st12" d="M40.4,41.1c0.2,0.1,3.9,2.4,8.9,0"/>
	<g class="st2">
		<path class="st13" d="M40.045,24.427l-4.539,6.507h-3.913c0.475-0.623,0.875-1.145,1.2-1.566c0.325-0.421,0.611-0.799,0.861-1.134    c0.249-0.334,0.481-0.651,0.696-0.952c0.214-0.3,0.455-0.64,0.722-1.021l3.095-4.465l-2.748-3.842    c-0.29-0.404-0.557-0.767-0.8-1.09c-0.244-0.323-0.499-0.651-0.765-0.986c-0.267-0.334-0.565-0.707-0.896-1.116    c-0.331-0.409-0.728-0.902-1.191-1.479h4l4.521,6.247l4.261-6.247h3.913c-0.452,0.577-0.834,1.07-1.147,1.479    c-0.313,0.41-0.597,0.785-0.852,1.125c-0.255,0.34-0.496,0.672-0.722,0.995c-0.226,0.323-0.479,0.681-0.757,1.073l-2.834,4.153    l3.008,4.153c0.313,0.438,0.585,0.811,0.817,1.116s0.476,0.62,0.73,0.943c0.255,0.323,0.536,0.687,0.843,1.09    s0.699,0.912,1.174,1.523h-4L40.045,24.427z"/>
	</g>
	<g class="st2">
		<path class="st9" d="M48.504,50.5v0.395h-1.438v0.592c0,0.246,0.002,0.461,0.005,0.648c0.003,0.186,0.014,0.328,0.032,0.425    h-0.545c0.018-0.099,0.029-0.241,0.032-0.428s0.005-0.401,0.005-0.646v-1.787c0-0.11-0.001-0.211-0.004-0.305    c-0.002-0.093-0.006-0.176-0.011-0.25c-0.005-0.074-0.013-0.136-0.022-0.186h2.156v0.407h-1.648V50.5H48.504z"/>
		<path class="st9" d="M49.246,51.314c0-0.213,0.033-0.4,0.098-0.563s0.15-0.302,0.26-0.415c0.109-0.111,0.236-0.197,0.381-0.254    c0.146-0.059,0.301-0.087,0.464-0.087c0.171,0,0.326,0.028,0.468,0.087c0.141,0.057,0.262,0.143,0.363,0.254    c0.102,0.113,0.182,0.252,0.237,0.415s0.084,0.351,0.084,0.563c0,0.212-0.032,0.399-0.097,0.563    c-0.064,0.162-0.15,0.299-0.26,0.408c-0.109,0.111-0.236,0.194-0.382,0.251s-0.3,0.085-0.464,0.085    c-0.17,0-0.325-0.028-0.467-0.085c-0.141-0.057-0.263-0.14-0.364-0.251c-0.102-0.109-0.181-0.246-0.236-0.408    C49.275,51.714,49.246,51.526,49.246,51.314z M49.705,51.314c0,0.143,0.018,0.271,0.052,0.385    c0.035,0.113,0.084,0.209,0.147,0.287c0.064,0.078,0.139,0.138,0.227,0.179s0.186,0.062,0.293,0.062    c0.1,0,0.192-0.021,0.279-0.062c0.088-0.041,0.164-0.101,0.229-0.179s0.116-0.174,0.153-0.287s0.057-0.242,0.057-0.385    c0-0.145-0.018-0.274-0.053-0.389c-0.034-0.114-0.084-0.211-0.146-0.291c-0.064-0.08-0.141-0.141-0.229-0.182    c-0.088-0.043-0.186-0.063-0.291-0.063c-0.102,0-0.195,0.021-0.283,0.063c-0.087,0.041-0.163,0.102-0.228,0.182    s-0.115,0.177-0.152,0.291S49.705,51.17,49.705,51.314z"/>
		<path class="st9" d="M52.221,52.56v-1.517c0-0.243-0.014-0.449-0.041-0.617c-0.027-0.169-0.056-0.296-0.084-0.381h0.446    c0.021,0.045,0.038,0.104,0.054,0.174c0.016,0.069,0.029,0.146,0.039,0.232c0.012,0.086,0.02,0.177,0.023,0.273    c0.006,0.098,0.008,0.195,0.008,0.294v0.16c0.084-0.231,0.167-0.424,0.248-0.575c0.08-0.152,0.161-0.273,0.241-0.364    s0.161-0.153,0.241-0.19c0.082-0.035,0.164-0.054,0.248-0.054c0.063,0,0.121,0.006,0.174,0.017    c0.053,0.012,0.106,0.031,0.161,0.058l-0.075,0.456c-0.047-0.02-0.09-0.033-0.125-0.039c-0.037-0.007-0.082-0.01-0.135-0.01    c-0.067,0-0.139,0.027-0.213,0.084s-0.147,0.133-0.219,0.227c-0.072,0.094-0.141,0.199-0.205,0.317s-0.121,0.239-0.17,0.364    c-0.049,0.124-0.088,0.245-0.116,0.363c-0.028,0.119-0.044,0.224-0.044,0.316c0,0.041,0.001,0.078,0.002,0.113    c0.001,0.034,0.004,0.067,0.008,0.1c0.004,0.031,0.01,0.064,0.016,0.096c0.007,0.032,0.016,0.066,0.025,0.103H52.221z"/>
		<path class="st9" d="M55.565,49.995c0.165,0,0.308,0.02,0.427,0.058c0.121,0.039,0.226,0.09,0.316,0.152l-0.086,0.443    c-0.113-0.082-0.225-0.144-0.335-0.185c-0.11-0.042-0.23-0.062-0.359-0.062c-0.11,0-0.214,0.021-0.309,0.063    s-0.178,0.103-0.247,0.182c-0.07,0.078-0.126,0.176-0.166,0.291c-0.039,0.115-0.059,0.244-0.059,0.389    c0,0.134,0.018,0.254,0.055,0.363c0.035,0.108,0.088,0.201,0.156,0.279c0.066,0.078,0.148,0.139,0.244,0.182    s0.205,0.064,0.325,0.064c0.15,0,0.286-0.025,0.409-0.077c0.122-0.051,0.237-0.124,0.347-0.22l0.05,0.432    c-0.063,0.048-0.125,0.089-0.188,0.123c-0.063,0.033-0.127,0.061-0.194,0.083s-0.141,0.038-0.218,0.05    c-0.078,0.01-0.163,0.016-0.256,0.016c-0.166,0-0.322-0.029-0.469-0.088c-0.145-0.058-0.271-0.143-0.381-0.252    c-0.109-0.11-0.195-0.244-0.258-0.4s-0.094-0.332-0.094-0.529c0-0.186,0.029-0.361,0.09-0.525s0.146-0.309,0.258-0.432    s0.247-0.221,0.406-0.292C55.191,50.031,55.369,49.995,55.565,49.995z"/>
		<path class="st9" d="M57.994,49.995c0.135,0,0.255,0.017,0.359,0.048c0.104,0.032,0.193,0.076,0.27,0.133s0.14,0.123,0.191,0.199    c0.051,0.076,0.092,0.156,0.122,0.244c0.03,0.087,0.052,0.178,0.065,0.272s0.02,0.188,0.02,0.28v0.096    c0,0.041,0,0.073-0.002,0.096h-1.757c0.005,0.145,0.028,0.271,0.067,0.377c0.041,0.107,0.097,0.195,0.166,0.266    c0.07,0.07,0.153,0.122,0.248,0.156c0.096,0.035,0.199,0.053,0.312,0.053c0.16,0,0.317-0.019,0.471-0.055s0.307-0.1,0.458-0.192    l0.05,0.407c-0.087,0.044-0.173,0.082-0.257,0.113c-0.085,0.031-0.169,0.057-0.254,0.076c-0.084,0.02-0.17,0.034-0.256,0.043    c-0.087,0.01-0.178,0.014-0.273,0.014c-0.159,0-0.311-0.027-0.454-0.082c-0.144-0.056-0.271-0.137-0.379-0.244    s-0.196-0.242-0.261-0.401s-0.096-0.345-0.096-0.555c0-0.204,0.027-0.388,0.082-0.554c0.056-0.165,0.135-0.307,0.237-0.424    s0.228-0.208,0.374-0.271C57.645,50.027,57.811,49.995,57.994,49.995z M57.957,50.365c-0.182,0-0.331,0.053-0.447,0.158    c-0.115,0.106-0.191,0.271-0.227,0.495h1.293c0-0.105-0.016-0.198-0.046-0.28c-0.03-0.081-0.073-0.15-0.129-0.205    c-0.056-0.057-0.121-0.098-0.197-0.127C58.129,50.379,58.046,50.365,57.957,50.365z"/>
	</g>
	<g class="st2">
		<path class="st9" d="M22.635,48.013h1.424v0.161h-0.601c-0.131,0-0.22,0.042-0.268,0.125c-0.026,0.046-0.04,0.106-0.04,0.181    v4.527c0,0.1,0.014,0.175,0.042,0.224c0.05,0.086,0.146,0.129,0.288,0.129h0.578v0.17h-1.424V48.013z"/>
	</g>
	<g class="st2">
		<path class="st9" d="M25.929,51.802c0,0.274,0.081,0.44,0.241,0.499c0.066,0.018,0.133,0.036,0.2,0.054    c0.104,0.029,0.155,0.056,0.155,0.081c-0.03,0.053-0.177,0.08-0.441,0.08h-0.831c-0.136,0-0.204-0.027-0.204-0.08    c0-0.025,0.071-0.063,0.212-0.114c0.147-0.052,0.221-0.222,0.221-0.507v-3.893c0-0.289-0.132-0.445-0.396-0.47    c-0.11-0.01-0.165-0.03-0.165-0.061c0-0.013,0.171-0.062,0.514-0.147c0.031-0.008,0.116-0.04,0.254-0.096    c0.125-0.05,0.199-0.074,0.22-0.074c0.027,0.016,0.041,0.035,0.041,0.061c0,0.017-0.003,0.04-0.011,0.07    c-0.007,0.031-0.011,0.055-0.011,0.071v3.401l1.219-0.971c0.054-0.042,0.081-0.085,0.081-0.127c0-0.043-0.044-0.093-0.132-0.149    c-0.088-0.056-0.132-0.091-0.132-0.101c0-0.045,0.081-0.068,0.243-0.068h0.791c0.149,0,0.235,0.032,0.258,0.096    c0,0.037-0.07,0.065-0.211,0.084c-0.081,0.01-0.14,0.02-0.177,0.027c-0.072,0.018-0.125,0.041-0.16,0.07    c-0.064,0.051-0.174,0.141-0.33,0.266l-0.752,0.609l1.204,1.604c0.179,0.238,0.368,0.356,0.568,0.356    c0.012,0,0.03-0.001,0.055-0.003c0.024-0.002,0.042-0.004,0.054-0.004c0.025,0,0.041,0.01,0.046,0.026    c0,0.073-0.085,0.108-0.256,0.108h-0.745l-1.285-1.818c-0.039,0.03-0.095,0.074-0.17,0.135c-0.075,0.06-0.131,0.104-0.168,0.134    V51.802z"/>
	</g>
	<g class="st2">
		<path class="st9" d="M29.485,50.091c0.033-0.257,0.141-0.456,0.324-0.601c0.174-0.138,0.393-0.207,0.658-0.207    c0.155,0,0.333,0.023,0.534,0.068c0.176,0.039,0.264,0.066,0.264,0.08c-0.004,0.129-0.007,0.26-0.007,0.39v0.202    c0,0.047-0.004,0.072-0.013,0.074c-0.02,0-0.057-0.059-0.11-0.173c-0.034-0.073-0.068-0.146-0.101-0.219    c-0.116-0.202-0.342-0.304-0.681-0.308c-0.141-0.001-0.264,0.051-0.37,0.156c-0.105,0.105-0.158,0.229-0.158,0.368    c0.024,0.178,0.127,0.323,0.309,0.438c0.073,0.046,0.246,0.122,0.519,0.229c0.27,0.107,0.458,0.205,0.565,0.295    c0.167,0.141,0.251,0.326,0.251,0.554c0,0.327-0.078,0.582-0.234,0.767c-0.167,0.198-0.412,0.297-0.732,0.297    c-0.057,0-0.123-0.004-0.195-0.013c-0.095-0.013-0.175-0.03-0.24-0.056c-0.098-0.04-0.195-0.08-0.292-0.12    c-0.144-0.058-0.235-0.087-0.274-0.087c-0.023,0-0.035-0.029-0.035-0.088c0-0.027,0.001-0.067,0.003-0.121    c0.002-0.054,0.003-0.094,0.003-0.122c0-0.331,0.025-0.499,0.074-0.505c0.015,0,0.043,0.068,0.086,0.206    c0.053,0.164,0.086,0.261,0.099,0.288c0.138,0.283,0.387,0.447,0.749,0.489c0.181,0,0.334-0.063,0.46-0.188    c0.126-0.125,0.187-0.271,0.183-0.438c-0.004-0.18-0.073-0.316-0.205-0.411c-0.105-0.075-0.313-0.183-0.624-0.322    c-0.271-0.123-0.471-0.245-0.598-0.365C29.555,50.52,29.485,50.333,29.485,50.091z"/>
		<path class="st9" d="M33.813,53.529h-1.428v-0.164h0.605c0.203,0,0.304-0.101,0.304-0.303v-4.53c0-0.232-0.109-0.349-0.327-0.349    h-0.582v-0.171h1.428V53.529z"/>
	</g>
	<g class="st2">
		<path class="st9" d="M49.973,53.879h0.203v1.934h0.387v0.419h-0.387v1.137h-0.483v-1.137h-1.464V56.02L49.973,53.879z     M49.692,55.813v-0.998l-0.802,0.998H49.692z"/>
		<path class="st9" d="M52.51,53.879h0.203v1.934H53.1v0.419h-0.387v1.137H52.23v-1.137h-1.465V56.02L52.51,53.879z M52.23,55.813    v-0.998l-0.802,0.998H52.23z"/>
		<path class="st9" d="M55.553,53.884c0.213,0,0.395,0.075,0.545,0.228c0.15,0.15,0.226,0.332,0.226,0.545    c0,0.21-0.075,0.391-0.227,0.542s-0.333,0.228-0.544,0.228s-0.393-0.076-0.544-0.228s-0.227-0.332-0.227-0.542    c0-0.213,0.075-0.395,0.226-0.545C55.158,53.959,55.34,53.884,55.553,53.884z M57.306,53.874h0.383l-2.276,3.534h-0.383    L57.306,53.874z M55.547,54.259c-0.111,0-0.205,0.039-0.283,0.116c-0.078,0.078-0.117,0.172-0.117,0.282    c0,0.108,0.039,0.2,0.119,0.277c0.078,0.077,0.172,0.116,0.281,0.116s0.204-0.039,0.283-0.116    c0.078-0.077,0.117-0.169,0.117-0.277c0-0.112-0.039-0.206-0.117-0.282C55.754,54.297,55.658,54.259,55.547,54.259z     M57.188,55.869c0.211,0,0.393,0.075,0.543,0.226c0.152,0.15,0.229,0.331,0.229,0.541s-0.076,0.39-0.227,0.536    c-0.15,0.147-0.332,0.221-0.545,0.221c-0.215,0-0.397-0.073-0.549-0.221c-0.15-0.146-0.227-0.326-0.227-0.536    c0-0.212,0.076-0.393,0.229-0.542C56.792,55.943,56.975,55.869,57.188,55.869z M57.182,56.244c-0.108,0-0.201,0.038-0.277,0.115    s-0.115,0.17-0.115,0.277c0,0.11,0.039,0.204,0.115,0.281c0.076,0.078,0.169,0.117,0.277,0.117c0.112,0,0.207-0.039,0.284-0.115    c0.077-0.077,0.116-0.172,0.116-0.283c0-0.109-0.039-0.203-0.116-0.279S57.294,56.244,57.182,56.244z"/>
	</g>
	<g class="st2">
		<path class="st13" d="M54.098,10.552l-1.461,2.397h-0.902c0.063-0.083,0.121-0.161,0.174-0.234    c0.052-0.073,0.109-0.156,0.172-0.25c0.063-0.094,0.137-0.207,0.222-0.34s0.19-0.301,0.315-0.504L53.686,9.9l-0.813-1.284    c-0.126-0.201-0.234-0.369-0.324-0.506s-0.17-0.255-0.24-0.355c-0.071-0.1-0.137-0.188-0.195-0.265s-0.119-0.157-0.182-0.24h0.922    l1.299,2.054l1.251-2.054h0.922c-0.06,0.076-0.12,0.152-0.179,0.229s-0.123,0.167-0.193,0.269    c-0.071,0.103-0.151,0.224-0.242,0.363c-0.09,0.139-0.196,0.308-0.319,0.506l-0.827,1.339l1.066,1.683    c0.129,0.203,0.236,0.371,0.324,0.504s0.163,0.245,0.227,0.337c0.064,0.093,0.122,0.174,0.174,0.244    c0.051,0.07,0.105,0.146,0.166,0.227h-0.902L54.098,10.552z"/>
	</g>
	<g class="st2">
		<path class="st5" d="M30.582,34.932h0.909v-1.469h0.84v1.469h1.477v0.655h-1.477v2.079c0,0.232,0.011,0.422,0.034,0.57    c0.022,0.147,0.058,0.263,0.104,0.346s0.106,0.14,0.179,0.17c0.073,0.029,0.161,0.045,0.264,0.045c0.13,0,0.277-0.029,0.44-0.086    s0.345-0.142,0.545-0.254v0.725c-0.209,0.135-0.409,0.229-0.6,0.281c-0.191,0.053-0.367,0.08-0.527,0.08    c-0.179,0-0.346-0.021-0.5-0.062c-0.154-0.04-0.29-0.112-0.407-0.214c-0.116-0.104-0.208-0.239-0.274-0.41    c-0.067-0.17-0.1-0.387-0.1-0.648v-2.622h-0.909V34.932z"/>
	</g>
	<g class="st2">
		<path class="st5" d="M38.707,37.033c0,0.57,0.032,1.049,0.095,1.436c0.063,0.388,0.146,0.708,0.246,0.961h-0.795    c-0.015-0.039-0.036-0.094-0.063-0.162c-0.027-0.07-0.055-0.148-0.084-0.238c-0.029-0.088-0.056-0.184-0.082-0.287    c-0.026-0.102-0.048-0.205-0.066-0.307c-0.118,0.15-0.243,0.292-0.375,0.424c-0.132,0.133-0.27,0.251-0.416,0.354    s-0.297,0.184-0.455,0.242c-0.157,0.059-0.318,0.088-0.481,0.088c-0.191,0-0.381-0.041-0.57-0.123    c-0.189-0.08-0.36-0.203-0.511-0.365c-0.151-0.163-0.274-0.367-0.368-0.613c-0.094-0.245-0.141-0.533-0.141-0.865    c0-0.347,0.039-0.66,0.116-0.942s0.183-0.532,0.316-0.753c0.118-0.193,0.244-0.361,0.377-0.506s0.279-0.265,0.438-0.359    c0.159-0.096,0.334-0.167,0.524-0.215c0.191-0.049,0.403-0.072,0.636-0.072c0.115,0,0.243,0.008,0.384,0.024    s0.285,0.04,0.432,0.07s0.293,0.066,0.438,0.108c0.145,0.042,0.28,0.088,0.404,0.136V37.033z M36.867,35.496    c-0.097,0-0.195,0.012-0.293,0.035c-0.099,0.021-0.195,0.061-0.291,0.115c-0.095,0.054-0.188,0.125-0.277,0.214    s-0.173,0.201-0.252,0.337c-0.082,0.139-0.147,0.312-0.197,0.518c-0.05,0.207-0.075,0.418-0.075,0.635    c0,0.251,0.023,0.465,0.07,0.645s0.109,0.327,0.187,0.443c0.077,0.115,0.165,0.201,0.263,0.256    c0.099,0.054,0.198,0.081,0.298,0.081c0.127,0,0.266-0.04,0.416-0.118s0.296-0.182,0.438-0.312    c0.142-0.13,0.276-0.278,0.402-0.448c0.126-0.168,0.229-0.343,0.312-0.523v-1.695c-0.045-0.021-0.104-0.043-0.175-0.063    c-0.071-0.021-0.15-0.04-0.236-0.059c-0.086-0.019-0.181-0.032-0.282-0.043C37.072,35.502,36.97,35.496,36.867,35.496z"/>
	</g>
	<g class="st2">
		<path class="st13" d="M43.292,37.266l-1.509,2.164h-1.301c0.158-0.207,0.291-0.381,0.399-0.521s0.203-0.266,0.286-0.377    s0.16-0.217,0.231-0.316c0.071-0.101,0.151-0.213,0.24-0.34l1.029-1.484l-0.914-1.277c-0.096-0.134-0.185-0.255-0.266-0.362    c-0.081-0.107-0.166-0.217-0.254-0.328c-0.088-0.111-0.188-0.234-0.297-0.371c-0.11-0.136-0.242-0.3-0.396-0.492h1.33l1.503,2.078    l1.417-2.078h1.301c-0.15,0.192-0.277,0.356-0.381,0.492c-0.104,0.137-0.199,0.262-0.284,0.374    c-0.084,0.113-0.165,0.224-0.24,0.331s-0.159,0.227-0.251,0.356l-0.942,1.381l1,1.381c0.104,0.146,0.195,0.27,0.272,0.371    c0.077,0.103,0.158,0.206,0.243,0.313s0.178,0.229,0.28,0.363c0.102,0.134,0.232,0.303,0.391,0.506h-1.33L43.292,37.266z"/>
	</g>
	<g class="st2">
		<path class="st5" d="M47.228,33.35c0-0.084,0.014-0.164,0.041-0.238c0.027-0.073,0.066-0.138,0.116-0.193    c0.05-0.057,0.11-0.1,0.18-0.131c0.069-0.032,0.146-0.048,0.231-0.048s0.164,0.016,0.236,0.048    c0.073,0.031,0.135,0.074,0.187,0.131c0.051,0.056,0.092,0.12,0.123,0.193c0.029,0.074,0.045,0.154,0.045,0.238    s-0.016,0.163-0.045,0.237c-0.031,0.073-0.072,0.138-0.123,0.194c-0.052,0.056-0.113,0.1-0.187,0.131    c-0.073,0.031-0.151,0.047-0.236,0.047s-0.162-0.016-0.231-0.047c-0.07-0.031-0.13-0.075-0.18-0.131    c-0.05-0.057-0.088-0.121-0.116-0.194C47.242,33.513,47.228,33.434,47.228,33.35z M48.228,37.282c0,0.146,0.003,0.315,0.007,0.513    s0.011,0.397,0.018,0.6c0.008,0.201,0.018,0.395,0.027,0.578c0.012,0.184,0.023,0.336,0.039,0.457h-0.931v-2.396    c0-0.219-0.001-0.437-0.002-0.65s-0.004-0.416-0.009-0.607c-0.004-0.191-0.011-0.369-0.02-0.534    c-0.009-0.164-0.021-0.306-0.037-0.423h0.909V37.282z"/>
	</g>
	<g class="st2">
		<path class="st13" d="M25.687,8.474c0.315-0.729,0.881-1.094,1.699-1.094c0.46,0,0.818,0.117,1.072,0.353    c0.2,0.199,0.3,0.428,0.3,0.687c0,0.079-0.006,0.124-0.018,0.136c-0.024,0.169-0.1,0.253-0.228,0.253    c-0.139,0-0.209-0.042-0.209-0.126c-0.048-0.139,0.021-0.208,0.209-0.208c0.024-0.223-0.066-0.416-0.272-0.579    c-0.224-0.15-0.476-0.226-0.754-0.226c-0.37,0-0.642,0.214-0.818,0.642c-0.158,0.374-0.236,0.808-0.236,1.302    c0,0.422,0.091,0.781,0.272,1.076c0.2,0.337,0.488,0.506,0.863,0.506c0.382,0,0.69-0.163,0.927-0.488    c0.091-0.133,0.224-0.44,0.4-0.922l0.146,0.29c-0.146,0.44-0.297,0.747-0.455,0.922c-0.339,0.416-0.812,0.624-1.417,0.624    c-0.721,0-1.217-0.337-1.49-1.013c-0.297,0.675-0.866,1.013-1.708,1.013c-0.406,0-0.697-0.084-0.873-0.253    c-0.157-0.145-0.236-0.323-0.236-0.534c0-0.078,0.003-0.126,0.009-0.145c0.018-0.163,0.094-0.244,0.227-0.244    c0.109,0,0.176,0.03,0.2,0.09c0.006,0.121-0.042,0.181-0.146,0.181c-0.006,0-0.011,0-0.014,0s-0.006,0-0.009,0    c-0.003,0-0.006,0-0.009,0c-0.003,0-0.008,0-0.014,0c-0.006,0-0.012,0-0.018,0c-0.006,0-0.011,0-0.014,0    c-0.003,0-0.006,0.003-0.009,0.009s-0.004,0.024-0.004,0.054c0,0.006,0,0.011,0,0.014s0,0.006,0,0.009c0,0.003,0,0.008,0,0.014    s0,0.051,0,0.136s0.084,0.166,0.254,0.244c0.157,0.096,0.339,0.145,0.545,0.145c0.345,0,0.618-0.217,0.818-0.651    c0.164-0.35,0.245-0.778,0.245-1.284c0-0.44-0.054-0.819-0.164-1.139c-0.157-0.41-0.388-0.615-0.69-0.615    c-0.412,0-0.769,0.458-1.072,1.375c-0.049,0.145-0.079,0.235-0.091,0.271c-0.006,0.024-0.014,0.047-0.023,0.068    S22.87,9.405,22.87,9.423c-0.012,0.024-0.024,0.066-0.036,0.127c-0.012,0.024-0.021,0.048-0.027,0.072    c-0.006,0.024-0.012,0.045-0.018,0.063c-0.006,0.018-0.014,0.04-0.023,0.063s-0.014,0.045-0.014,0.063    c-0.006,0.018-0.03,0.103-0.073,0.253l-0.154-0.28c0.254-0.802,0.415-1.257,0.481-1.365c0.315-0.711,0.672-1.067,1.072-1.067    s0.736,0.103,1.008,0.308C25.323,7.841,25.523,8.112,25.687,8.474z"/>
	</g>
	<g>
		<path class="st14" d="M12.5,18.7h2c1.2,0,1.2,1.1,1.2,1.1c0,0.6-0.4,0.9-0.4,0.9c4.2,0,4.4,1.6,4.4,1.6l0.8,2.3    c0.8-0.7,1.5-0.5,1.5-0.5c1,0.1,1.2,1,1.2,1.3c0,0.1,0,0.2,0,0.2c-0.1,0.9-1.2,1.1-1.2,1.1c-0.5,0-0.6,0.1-0.6,0.1    c1,0.9,1.7,4.7,1.7,4.7c0.5,0.6,1.2,2.8,1.2,2.8c0,1.6-2.7,1.4-2.7,1.4c0,0.6-0.3,1.2-0.5,1.5c-0.2,0.2-0.5,0.4-0.8,0.4h-0.8    c-0.4,0-0.8-0.2-1-0.5c-0.3-0.5-0.3-1.1-0.3-1.1"/>
		<path class="st14" d="M12.5,18.7h-2c-1.2,0-1.2,1.1-1.2,1.1c0,0.6,0.4,0.9,0.4,0.9c-4.2,0-4.4,1.6-4.4,1.6l-0.8,2.3    C3.6,23.9,3,24.1,3,24.1c-0.5,0.1-0.8,0.4-1,0.7c-0.3,0.6-0.1,1.3,0.4,1.6c0.3,0.2,0.5,0.3,0.5,0.3c0.5,0,0.6,0.1,0.6,0.1    c-1,0.9-1.7,4.7-1.7,4.7c-0.5,0.6-1.2,2.8-1.2,2.8c0,1.6,2.7,1.4,2.7,1.4c0,0.6,0.3,1.2,0.5,1.5c0.2,0.2,0.5,0.4,0.8,0.4h0.8    c0.4,0,0.8-0.2,1-0.5C6.7,36.6,6.7,36,6.7,36c1.4,0.2,10.2,0.2,11.6,0"/>
		<path class="st15" d="M3.3,35.8c0,0,2.9,0.3,3.4,0.3"/>
		<path class="st15" d="M18.1,36.1c0,0,3-0.2,3.8-0.4"/>
		<path class="st15" d="M1.8,31.6c0,0,10.4,3.8,21.4,0"/>
		<path class="st15" d="M7.1,32.7l-0.4-1.1c0,0-0.8-2.2,1-2.3c0,0,9.8,0,9.7,0c0,0,1.6-0.1,1,2.3L18,33"/>
		<path class="st15" d="M7.7,30.3c0,0,5.2,0.7,9.9-0.1"/>
		<path class="st15" d="M17.7,31"/>
		<path class="st15" d="M9.6,20.8c0,0,4.1-0.2,5.7,0"/>
		<path class="st15" d="M4.3,24.7c0,0,0.4,0.4,0.3,1c0,0-0.2,0.8-1.1,1"/>
		<path class="st15" d="M20.6,24.5c0,0-0.5,0.2-0.3,1.1c0,0,0.2,1.1,1.3,1.2"/>
		<path class="st15" d="M18.9,26.2c0,0-2.9-0.5-6.8-0.4c-2,0-4.2,0-6.4,0.5c0,0-1.1,0-0.5-1.3l0.7-1.7c0,0,0.4-1.3,1.6-1.5    c0,0,5.1-0.8,9.9,0c0,0,1.2,0,1.7,1.4c0,0,0.6,1.6,0.7,2C19.9,25.2,20.3,26.5,18.9,26.2z"/>
		<path class="st13" d="M10.7,19.8c0,0.1-0.1,0.2-0.2,0.2c-0.1,0-0.2-0.1-0.3-0.2c0-0.1,0.1-0.2,0.2-0.2    C10.6,19.6,10.7,19.7,10.7,19.8z"/>
		<path class="st13" d="M12,19.8c0,0.1-0.1,0.2-0.2,0.2c-0.1,0-0.2-0.1-0.3-0.2c0-0.1,0.1-0.2,0.2-0.2C11.8,19.6,11.9,19.7,12,19.8z    "/>
		<path class="st13" d="M13.2,19.8c0,0.1-0.1,0.2-0.2,0.2c-0.1,0-0.2-0.1-0.3-0.2c0-0.1,0.1-0.2,0.2-0.2    C13.1,19.6,13.2,19.7,13.2,19.8z"/>
		<path class="st13" d="M14.8,19.8c0,0.1-0.1,0.2-0.2,0.2c-0.1,0-0.2-0.1-0.3-0.2c0-0.1,0.1-0.2,0.2-0.2    C14.6,19.6,14.8,19.7,14.8,19.8z"/>
		<path class="st15" d="M7.7,31.2c0,0,5.2,0.7,9.9-0.1"/>
		<path class="st15" d="M7.7,31.9c0,0.1,5.3,0.9,9.9-0.1"/>
		<ellipse class="st15" cx="4.3" cy="30.4" rx="1.2" ry="1.2"/>
		<ellipse class="st15" cx="20.4" cy="30.4" rx="1.2" ry="1.2"/>
		<path class="st15" d="M12.9,25.8c0.6-1.1,1.5-1.8,2.7-1.7c1.2,0.1,2,0.9,2.5,2"/>
		<path class="st15" d="M13.6,25.8c0.4-0.8,1.1-1.1,2-1.1c0.8,0,1.7,0.6,2,1.3"/>
		<path class="st16" d="M12.5,18.7h2c1.2,0,1.2,1.1,1.2,1.1c0,0.6-0.4,0.9-0.4,0.9c4.2,0,4.4,1.6,4.4,1.6l0.8,2.3    c0.8-0.7,1.5-0.5,1.5-0.5c1,0.1,1.2,1,1.2,1.3c0,0.1,0,0.2,0,0.2c-0.1,0.9-1.2,1.1-1.2,1.1c-0.5,0-0.6,0.1-0.6,0.1    c1,0.9,1.7,4.7,1.7,4.7c0.5,0.6,1.2,2.8,1.2,2.8c0,1.6-2.7,1.4-2.7,1.4c0,0.6-0.3,1.2-0.5,1.5c-0.2,0.2-0.5,0.4-0.8,0.4h-0.8    c-0.4,0-0.8-0.2-1-0.5c-0.3-0.5-0.3-1.1-0.3-1.1"/>
		<path class="st16" d="M12.5,18.7h-2c-1.2,0-1.2,1.1-1.2,1.1c0,0.6,0.4,0.9,0.4,0.9c-4.2,0-4.4,1.6-4.4,1.6l-0.8,2.3    C3.6,23.9,3,24.1,3,24.1c-0.5,0.1-0.8,0.4-1,0.7c-0.3,0.6-0.1,1.3,0.4,1.6c0.3,0.2,0.5,0.3,0.5,0.3c0.5,0,0.6,0.1,0.6,0.1    c-1,0.9-1.7,4.7-1.7,4.7c-0.5,0.6-1.2,2.8-1.2,2.8c0,1.6,2.7,1.4,2.7,1.4c0,0.6,0.3,1.2,0.5,1.5c0.2,0.2,0.5,0.4,0.8,0.4h0.8    c0.4,0,0.8-0.2,1-0.5C6.7,36.6,6.7,36,6.7,36c1.4,0.2,10.2,0.2,11.6,0"/>
		<rect x="11.2" y="26.1" class="st17" width="1.2" height="0.7"/>
		<rect x="11.2" y="28.2" class="st17" width="1.2" height="0.7"/>
		<rect x="11.2" y="27.2" class="st17" width="1.2" height="0.7"/>
		<rect x="12.4" y="26.6" class="st17" width="1.2" height="0.7"/>
		<rect x="12.4" y="27.7" class="st17" width="1.2" height="0.7"/>
	</g>
</g>
</svg>