<?xml version="1.0" encoding="UTF-8"?>
<!-- Generator: Adobe Illustrator 24.0.2, SVG Export Plug-In . SVG Version: 6.00 Build 0)  -->
<svg version="1.1" id="Calque_1" xmlns="http://www.w3.org/2000/svg" xmlns:xlink="http://www.w3.org/1999/xlink" x="0px" y="0px" viewBox="0 0 64 47" style="enable-background:new 0 0 64 47;" xml:space="preserve">
<style type="text/css">
	.st0{fill:#FFFFFF;stroke:#000000;stroke-width:0.8843;stroke-miterlimit:10;stroke-dasharray:7.1653,2.5289;}
	.st1{fill:#FFFFFF;stroke:#DADADA;stroke-width:0.7169;stroke-miterlimit:10;}
	.st2{fill:#FFFFFF;stroke:#000000;stroke-width:0.8844;stroke-miterlimit:10;}
	.st3{fill:#FFFFFF;stroke:#000000;stroke-width:0.8844;stroke-linecap:square;stroke-miterlimit:10;}
	.st4{fill:none;stroke:#B2B2B2;stroke-width:0.3584;stroke-miterlimit:10;}
	.st5{enable-background:new    ;}
	.st6{fill:#575756;}
	.st7{fill:#7DB728;}
	.st8{fill:#B2B2B2;}
	.st9{fill:#E11683;}
	.st10{fill:#878787;}
	.st11{fill:#706F6F;}
	.st12{fill:#FFFFFF;}
	.st13{fill:none;stroke:#575756;stroke-width:0.172;stroke-linecap:round;stroke-linejoin:round;stroke-miterlimit:10;}
	.st14{fill:#FFFFFF;stroke:#575756;stroke-width:0.172;stroke-linecap:round;stroke-linejoin:round;stroke-miterlimit:10;}
	.st15{fill:none;stroke:#575756;stroke-width:0.5159;stroke-linecap:round;stroke-linejoin:round;stroke-miterlimit:10;}
</style>
<g id="_x3C_Groupe_x3E__xylophone">
	<polyline class="st0" points="0.5,32.6 0.5,1.5 34,1.5 34,25.1  "/>
	<rect x="34.2" y="21.9" class="st1" width="29.4" height="10.6"/>
	<path class="st2" d="M0.5,16.7"/>
	<path class="st3" d="M34.1,19v13.7h-8.3c0,0-2.7,4.8-7.1,5.7c0,0,2.7-1.8,3.5-5.7H0.5v-6.3"/>
	<path class="st4" d="M15.2,29.5c0.8,1.1,8.2,1.3,9.8,0.1"/>
	<path class="st4" d="M26.3,29.9c0,0,3.1,1.5,5.8-0.2"/>
	<path class="st4" d="M2.6,29.9c0,0,2.9,1.5,5.3-0.2"/>
	<path class="st4" d="M9,29.9c0,0,2.9,1.5,5.3-0.2"/>
	<g class="st5">
		<path class="st6" d="M4.281,27.196l-1.034,1.48H2.355c0.108-0.142,0.199-0.261,0.273-0.356c0.074-0.096,0.139-0.182,0.196-0.258    c0.057-0.076,0.11-0.148,0.159-0.217s0.104-0.146,0.165-0.232l0.705-1.016l-0.626-0.874c-0.066-0.092-0.127-0.175-0.182-0.248    c-0.056-0.073-0.114-0.148-0.174-0.225c-0.061-0.076-0.129-0.161-0.204-0.254S2.5,24.792,2.395,24.66h0.911l1.03,1.422    l0.971-1.422h0.892c-0.103,0.132-0.19,0.244-0.261,0.337c-0.072,0.093-0.136,0.179-0.194,0.256s-0.113,0.153-0.165,0.227    c-0.051,0.073-0.109,0.155-0.172,0.244L4.76,26.668l0.686,0.945c0.071,0.1,0.133,0.185,0.187,0.254    c0.053,0.07,0.108,0.142,0.167,0.215c0.058,0.074,0.122,0.156,0.192,0.248s0.159,0.207,0.268,0.347H5.346L4.281,27.196z"/>
	</g>
	<g class="st5">
		<path class="st7" d="M8.1,28.677c-0.107,0.294-0.211,0.534-0.314,0.72c-0.103,0.186-0.207,0.332-0.313,0.439    c-0.106,0.107-0.216,0.181-0.33,0.221c-0.114,0.039-0.237,0.06-0.368,0.06c-0.142,0-0.275-0.022-0.399-0.067    c-0.125-0.045-0.243-0.109-0.356-0.193l0.185-0.49c0.033,0.027,0.072,0.055,0.116,0.082c0.044,0.027,0.091,0.052,0.142,0.073    c0.051,0.021,0.103,0.039,0.156,0.054c0.054,0.014,0.106,0.021,0.157,0.021c0.062,0,0.122-0.011,0.182-0.032    s0.12-0.063,0.181-0.122c0.061-0.061,0.123-0.146,0.187-0.255c0.063-0.108,0.131-0.253,0.203-0.431l-0.86-2.115    c-0.058-0.139-0.124-0.295-0.2-0.469s-0.174-0.38-0.293-0.619H6.79l0.995,2.502c0.039-0.109,0.082-0.23,0.128-0.359    c0.046-0.13,0.094-0.264,0.144-0.401s0.099-0.276,0.148-0.417c0.049-0.139,0.096-0.273,0.142-0.402    c0.107-0.302,0.215-0.609,0.324-0.922h0.616c-0.053,0.119-0.102,0.229-0.145,0.33c-0.043,0.101-0.083,0.195-0.12,0.284    s-0.07,0.172-0.1,0.249c-0.03,0.078-0.057,0.152-0.082,0.225L8.1,28.677z"/>
	</g>
	<g class="st5">
		<path class="st8" d="M10.457,27.223c0,0.098,0.001,0.213,0.004,0.346c0.003,0.133,0.007,0.268,0.013,0.404    c0.005,0.137,0.011,0.268,0.018,0.392c0.007,0.124,0.016,0.229,0.026,0.313H9.887v-3.46c0-0.299-0.005-0.568-0.015-0.811    s-0.026-0.452-0.046-0.629h0.632V27.223z"/>
		<path class="st8" d="M11.335,27.131c0-0.264,0.04-0.497,0.12-0.701c0.08-0.203,0.188-0.374,0.323-0.514    c0.136-0.141,0.294-0.246,0.475-0.316c0.181-0.072,0.373-0.107,0.577-0.107c0.211,0,0.405,0.035,0.581,0.107    c0.176,0.07,0.327,0.176,0.453,0.316c0.126,0.14,0.225,0.311,0.294,0.514c0.07,0.204,0.105,0.438,0.105,0.701    c0,0.263-0.041,0.496-0.121,0.697c-0.08,0.203-0.188,0.372-0.323,0.509c-0.136,0.137-0.294,0.24-0.475,0.311    c-0.181,0.071-0.373,0.106-0.577,0.106c-0.211,0-0.405-0.035-0.581-0.106c-0.176-0.07-0.327-0.174-0.453-0.311    s-0.225-0.306-0.294-0.509C11.37,27.627,11.335,27.394,11.335,27.131z M11.905,27.131c0,0.177,0.021,0.336,0.065,0.477    c0.043,0.142,0.104,0.26,0.183,0.357c0.079,0.097,0.173,0.171,0.282,0.222c0.109,0.052,0.23,0.077,0.364,0.077    c0.123,0,0.239-0.025,0.348-0.077c0.109-0.051,0.204-0.125,0.285-0.222c0.081-0.098,0.145-0.216,0.191-0.357    c0.046-0.141,0.069-0.3,0.069-0.477c0-0.18-0.021-0.342-0.065-0.482c-0.043-0.143-0.104-0.263-0.183-0.361    c-0.079-0.1-0.174-0.176-0.284-0.227c-0.11-0.053-0.23-0.078-0.362-0.078c-0.125,0-0.243,0.025-0.352,0.078    c-0.109,0.051-0.204,0.127-0.284,0.227c-0.08,0.099-0.143,0.219-0.189,0.361C11.929,26.789,11.905,26.951,11.905,27.131z"/>
	</g>
	<g class="st5">
		<path class="st7" d="M15.012,27.191c0-0.189-0.001-0.365-0.004-0.528c-0.003-0.162-0.01-0.312-0.02-0.447    s-0.026-0.259-0.046-0.368c-0.021-0.111-0.048-0.209-0.083-0.295h0.555c0.022,0.053,0.045,0.129,0.068,0.226    c0.022,0.097,0.041,0.216,0.055,0.356c0.072-0.094,0.15-0.181,0.236-0.26c0.085-0.08,0.176-0.148,0.271-0.204    c0.096-0.056,0.196-0.101,0.302-0.132s0.216-0.047,0.332-0.047c0.174,0,0.334,0.038,0.479,0.114    c0.145,0.077,0.268,0.185,0.37,0.321c0.102,0.139,0.181,0.302,0.237,0.49c0.057,0.189,0.085,0.396,0.085,0.62    c0,0.262-0.037,0.498-0.111,0.709c-0.074,0.212-0.174,0.392-0.301,0.54c-0.126,0.15-0.275,0.265-0.445,0.346    c-0.17,0.08-0.352,0.121-0.545,0.121c-0.082,0-0.16-0.009-0.232-0.025c-0.073-0.016-0.144-0.039-0.213-0.066    c-0.069-0.029-0.137-0.064-0.205-0.106c-0.067-0.042-0.139-0.089-0.212-0.14v0.721c0,0.122,0.001,0.232,0.004,0.332    c0.003,0.099,0.008,0.189,0.014,0.273c0.006,0.084,0.014,0.161,0.024,0.231s0.021,0.138,0.034,0.204h-0.647V27.191z     M16.445,28.248c0.109,0,0.213-0.025,0.313-0.076s0.188-0.125,0.265-0.223c0.077-0.097,0.139-0.215,0.185-0.352    c0.046-0.139,0.069-0.294,0.069-0.467c0-0.17-0.016-0.324-0.048-0.461c-0.032-0.139-0.079-0.256-0.14-0.354    c-0.062-0.096-0.136-0.172-0.223-0.225c-0.087-0.053-0.187-0.08-0.297-0.08c-0.088,0-0.179,0.02-0.271,0.059    c-0.092,0.039-0.182,0.096-0.27,0.172s-0.169,0.17-0.245,0.283s-0.143,0.244-0.2,0.391v0.965c0.105,0.073,0.196,0.134,0.272,0.182    c0.077,0.049,0.147,0.086,0.211,0.113c0.063,0.027,0.125,0.047,0.183,0.057C16.308,28.243,16.373,28.248,16.445,28.248z"/>
		<path class="st7" d="M20.328,25.492c0.329,0,0.581,0.106,0.755,0.32c0.175,0.213,0.262,0.529,0.262,0.95v1.914h-0.57v-1.685    c0-0.191-0.013-0.35-0.039-0.475c-0.025-0.125-0.064-0.223-0.115-0.295s-0.116-0.123-0.193-0.152    c-0.077-0.028-0.167-0.043-0.27-0.043c-0.111,0-0.219,0.026-0.325,0.078c-0.106,0.053-0.203,0.119-0.291,0.203    c-0.088,0.082-0.167,0.176-0.234,0.279c-0.068,0.104-0.118,0.209-0.151,0.313v1.776h-0.57v-3.46c0-0.332-0.002-0.621-0.006-0.869    c-0.004-0.248-0.018-0.438-0.041-0.571h0.617v2.358c0.152-0.215,0.331-0.375,0.536-0.482S20.11,25.492,20.328,25.492z"/>
	</g>
	<g class="st5">
		<path class="st8" d="M22.072,27.131c0-0.264,0.04-0.497,0.12-0.701c0.08-0.203,0.188-0.374,0.323-0.514    c0.136-0.141,0.294-0.246,0.475-0.316c0.181-0.072,0.373-0.107,0.577-0.107c0.211,0,0.405,0.035,0.581,0.107    c0.176,0.07,0.327,0.176,0.453,0.316c0.126,0.14,0.225,0.311,0.294,0.514C24.965,26.634,25,26.867,25,27.131    c0,0.263-0.041,0.496-0.121,0.697c-0.08,0.203-0.188,0.372-0.323,0.509c-0.136,0.137-0.294,0.24-0.475,0.311    c-0.181,0.071-0.373,0.106-0.577,0.106c-0.211,0-0.405-0.035-0.581-0.106c-0.176-0.07-0.327-0.174-0.453-0.311    s-0.225-0.306-0.294-0.509C22.107,27.627,22.072,27.394,22.072,27.131z M22.642,27.131c0,0.177,0.021,0.336,0.065,0.477    c0.043,0.142,0.104,0.26,0.183,0.357c0.079,0.097,0.173,0.171,0.282,0.222c0.109,0.052,0.23,0.077,0.364,0.077    c0.123,0,0.239-0.025,0.348-0.077c0.109-0.051,0.204-0.125,0.285-0.222c0.081-0.098,0.145-0.216,0.191-0.357    c0.046-0.141,0.069-0.3,0.069-0.477c0-0.18-0.021-0.342-0.065-0.482c-0.043-0.143-0.104-0.263-0.183-0.361    c-0.079-0.1-0.174-0.176-0.284-0.227c-0.11-0.053-0.23-0.078-0.362-0.078c-0.125,0-0.243,0.025-0.352,0.078    c-0.109,0.051-0.204,0.127-0.284,0.227c-0.08,0.099-0.143,0.219-0.189,0.361C22.666,26.789,22.642,26.951,22.642,27.131z"/>
		<path class="st8" d="M27.508,25.492c0.329,0,0.581,0.106,0.755,0.32c0.175,0.213,0.262,0.529,0.262,0.95v1.914h-0.57v-1.685    c0-0.191-0.013-0.35-0.039-0.475c-0.025-0.125-0.063-0.223-0.114-0.295s-0.114-0.123-0.191-0.152    c-0.077-0.028-0.168-0.043-0.272-0.043c-0.111,0-0.219,0.026-0.325,0.078c-0.106,0.053-0.203,0.119-0.291,0.203    c-0.088,0.082-0.167,0.176-0.234,0.279c-0.068,0.104-0.118,0.209-0.151,0.313v1.776h-0.57v-1.884c0-0.302-0.017-0.558-0.051-0.767    c-0.034-0.21-0.068-0.367-0.104-0.474h0.555c0.013,0.033,0.025,0.075,0.037,0.127c0.012,0.053,0.024,0.107,0.034,0.164    c0.01,0.058,0.02,0.113,0.027,0.168l0.025,0.139c0.195-0.232,0.393-0.4,0.592-0.504S27.291,25.492,27.508,25.492z"/>
		<path class="st8" d="M30.716,25.492c0.168,0,0.317,0.02,0.447,0.059c0.129,0.041,0.242,0.096,0.336,0.166    c0.095,0.07,0.174,0.152,0.237,0.246c0.064,0.094,0.115,0.195,0.153,0.304c0.038,0.108,0.065,0.222,0.082,0.339    s0.024,0.232,0.024,0.348v0.119c0,0.051-0.001,0.091-0.003,0.119h-2.185c0.006,0.18,0.035,0.336,0.085,0.469    s0.119,0.242,0.207,0.329c0.087,0.087,0.19,0.151,0.308,0.194s0.247,0.064,0.387,0.064c0.199,0,0.395-0.022,0.585-0.067    s0.381-0.124,0.57-0.239l0.062,0.506c-0.109,0.055-0.216,0.102-0.32,0.141c-0.105,0.039-0.21,0.07-0.314,0.096    c-0.105,0.023-0.211,0.041-0.319,0.053c-0.108,0.012-0.222,0.018-0.341,0.018c-0.197,0-0.385-0.035-0.564-0.104    s-0.336-0.169-0.472-0.303c-0.135-0.134-0.243-0.3-0.323-0.498c-0.08-0.197-0.12-0.428-0.12-0.689    c0-0.252,0.034-0.481,0.103-0.688c0.069-0.205,0.167-0.38,0.294-0.525c0.127-0.146,0.282-0.259,0.465-0.338    C30.283,25.531,30.488,25.492,30.716,25.492z M30.67,25.951c-0.226,0-0.411,0.066-0.555,0.197    c-0.144,0.132-0.238,0.336-0.283,0.614h1.608c0-0.131-0.019-0.247-0.057-0.348c-0.038-0.101-0.092-0.187-0.161-0.256    s-0.15-0.121-0.245-0.155C30.884,25.969,30.781,25.951,30.67,25.951z"/>
	</g>
	<g class="st5">
		<path class="st8" d="M40.798,25.861v0.311l-1.966,2.545h1.42c0.098,0,0.196-0.002,0.297-0.007c0.1-0.005,0.199-0.019,0.299-0.042    v0.541h-2.775v-0.361l1.899-2.494h-1.288c-0.1,0-0.193,0.002-0.284,0.006c-0.091,0.005-0.166,0.02-0.228,0.043v-0.541H40.798z"/>
		<path class="st8" d="M41.674,24.794c0-0.062,0.01-0.118,0.029-0.173c0.02-0.053,0.048-0.1,0.084-0.141s0.08-0.072,0.131-0.096    c0.051-0.022,0.106-0.034,0.168-0.034s0.119,0.012,0.172,0.034c0.053,0.023,0.098,0.055,0.135,0.096    c0.038,0.041,0.068,0.088,0.09,0.141c0.021,0.055,0.033,0.111,0.033,0.173s-0.012,0.118-0.033,0.173    c-0.021,0.053-0.052,0.1-0.09,0.141c-0.037,0.041-0.082,0.072-0.135,0.096c-0.053,0.022-0.11,0.033-0.172,0.033    s-0.117-0.011-0.168-0.033c-0.051-0.023-0.095-0.055-0.131-0.096s-0.064-0.088-0.084-0.141    C41.684,24.912,41.674,24.855,41.674,24.794z M42.4,27.65c0,0.104,0.001,0.229,0.004,0.372c0.004,0.144,0.008,0.288,0.014,0.435    s0.012,0.287,0.02,0.42c0.008,0.134,0.018,0.244,0.028,0.332h-0.677v-1.74c0-0.159-0.001-0.316-0.002-0.473    c-0.001-0.154-0.004-0.303-0.007-0.441s-0.008-0.268-0.015-0.387s-0.016-0.222-0.026-0.307H42.4V27.65z"/>
	</g>
	<g class="st5">
		<path class="st9" d="M47.146,29.106c0,0.36-0.053,0.67-0.158,0.927c-0.106,0.258-0.246,0.468-0.418,0.631    c-0.172,0.162-0.367,0.281-0.588,0.358s-0.444,0.115-0.673,0.115c-0.265,0-0.526-0.046-0.786-0.136    c-0.261-0.09-0.501-0.209-0.721-0.357l0.268-0.635c0.195,0.139,0.393,0.252,0.591,0.34s0.4,0.131,0.606,0.131    c0.107,0,0.227-0.019,0.355-0.057c0.129-0.039,0.25-0.105,0.363-0.199s0.207-0.221,0.283-0.379    c0.076-0.159,0.113-0.357,0.113-0.596v-0.76c-0.107,0.135-0.221,0.249-0.34,0.344c-0.12,0.094-0.242,0.17-0.363,0.229    c-0.123,0.059-0.246,0.101-0.368,0.127s-0.24,0.039-0.353,0.039c-0.19,0-0.373-0.032-0.55-0.099    c-0.177-0.065-0.332-0.17-0.469-0.314c-0.136-0.143-0.245-0.33-0.326-0.56s-0.122-0.507-0.122-0.833    c0-0.314,0.041-0.621,0.125-0.919c0.082-0.298,0.21-0.563,0.383-0.794c0.174-0.23,0.396-0.417,0.668-0.559    c0.271-0.141,0.595-0.211,0.972-0.211c0.124,0,0.251,0.01,0.382,0.027s0.262,0.041,0.391,0.071s0.256,0.063,0.38,0.101    s0.242,0.073,0.354,0.109V29.106z M45.516,25.639c-0.226,0-0.418,0.047-0.578,0.138c-0.159,0.092-0.289,0.212-0.39,0.361    s-0.175,0.317-0.222,0.507c-0.047,0.188-0.07,0.381-0.07,0.574c0,0.254,0.021,0.466,0.061,0.635    c0.04,0.168,0.095,0.302,0.165,0.401c0.07,0.101,0.153,0.171,0.248,0.214c0.095,0.042,0.198,0.063,0.312,0.063    c0.104,0,0.217-0.021,0.334-0.063c0.119-0.043,0.238-0.104,0.357-0.184c0.12-0.078,0.236-0.178,0.348-0.295    s0.212-0.252,0.303-0.402v-1.785c-0.066-0.023-0.137-0.047-0.211-0.067s-0.149-0.038-0.227-0.052s-0.152-0.023-0.225-0.032    C45.647,25.643,45.579,25.639,45.516,25.639z"/>
	</g>
	<g class="st5">
		<path class="st7" d="M51.527,25.023v0.391l-2.456,3.18h1.775c0.121,0,0.244-0.003,0.37-0.008c0.125-0.006,0.25-0.023,0.373-0.055    v0.678h-3.469v-0.451l2.375-3.119h-1.611c-0.123,0-0.242,0.004-0.354,0.009s-0.208,0.022-0.284,0.054v-0.678H51.527z"/>
	</g>
	<g class="st5">
		<path class="st8" d="M55.318,27.469c0,0.414,0.023,0.762,0.069,1.043s0.106,0.514,0.179,0.697h-0.578    c-0.012-0.028-0.026-0.068-0.047-0.118c-0.02-0.05-0.039-0.108-0.061-0.173s-0.041-0.133-0.06-0.208    c-0.019-0.074-0.034-0.149-0.048-0.224c-0.086,0.109-0.177,0.213-0.272,0.309c-0.096,0.097-0.196,0.182-0.302,0.256    c-0.106,0.075-0.217,0.134-0.331,0.176c-0.114,0.043-0.231,0.064-0.351,0.064c-0.139,0-0.276-0.029-0.414-0.088    c-0.138-0.06-0.262-0.148-0.371-0.267c-0.111-0.118-0.199-0.267-0.268-0.444c-0.068-0.179-0.104-0.389-0.104-0.629    c0-0.252,0.029-0.48,0.085-0.685s0.133-0.387,0.229-0.546c0.086-0.141,0.178-0.264,0.274-0.368s0.203-0.192,0.318-0.261    c0.116-0.069,0.243-0.121,0.382-0.156s0.293-0.053,0.463-0.053c0.083,0,0.176,0.006,0.279,0.018    c0.102,0.013,0.206,0.029,0.313,0.051c0.107,0.022,0.214,0.049,0.319,0.08c0.106,0.03,0.204,0.063,0.294,0.098V27.469z     M53.98,26.354c-0.07,0-0.142,0.008-0.213,0.024c-0.072,0.017-0.143,0.044-0.211,0.083c-0.07,0.04-0.137,0.092-0.202,0.156    s-0.126,0.146-0.183,0.244c-0.061,0.102-0.107,0.227-0.145,0.377c-0.036,0.149-0.055,0.303-0.055,0.461    c0,0.182,0.018,0.338,0.052,0.468s0.079,0.237,0.136,0.321c0.056,0.084,0.119,0.146,0.191,0.186    c0.071,0.039,0.144,0.059,0.217,0.059c0.092,0,0.192-0.027,0.302-0.085c0.108-0.057,0.215-0.132,0.318-0.226    c0.104-0.095,0.201-0.203,0.292-0.326c0.092-0.122,0.168-0.249,0.227-0.381v-1.23c-0.033-0.016-0.075-0.031-0.127-0.046    s-0.109-0.03-0.172-0.042c-0.063-0.014-0.131-0.024-0.205-0.031C54.13,26.357,54.056,26.354,53.98,26.354z"/>
	</g>
	<g>
		<path class="st8" d="M59.009,29.127c0,0.289-0.042,0.536-0.128,0.742c-0.084,0.205-0.195,0.373-0.333,0.504    c-0.138,0.13-0.294,0.226-0.471,0.287c-0.177,0.061-0.356,0.092-0.538,0.092c-0.212,0-0.422-0.036-0.63-0.108    s-0.399-0.167-0.576-0.286l0.214-0.508c0.157,0.111,0.314,0.201,0.473,0.271c0.159,0.07,0.32,0.105,0.486,0.105    c0.086,0,0.18-0.016,0.283-0.046s0.201-0.083,0.291-0.159s0.166-0.177,0.227-0.304s0.091-0.286,0.091-0.476v-0.607    c-0.086,0.107-0.177,0.198-0.272,0.273c-0.096,0.076-0.193,0.137-0.291,0.184c-0.098,0.048-0.195,0.082-0.294,0.103    c-0.098,0.021-0.192,0.031-0.282,0.031c-0.152,0-0.299-0.026-0.439-0.079s-0.266-0.137-0.375-0.251s-0.195-0.265-0.261-0.448    s-0.098-0.406-0.098-0.666c0-0.252,0.033-0.497,0.099-0.735c0.066-0.239,0.169-0.45,0.308-0.636    c0.14-0.185,0.317-0.334,0.534-0.445c0.217-0.113,0.476-0.17,0.777-0.17c0.1,0,0.201,0.008,0.306,0.021s0.208,0.033,0.312,0.058    s0.205,0.051,0.305,0.08c0.1,0.03,0.193,0.059,0.284,0.087V29.127z M57.703,26.354c-0.18,0-0.334,0.036-0.462,0.109    c-0.128,0.074-0.231,0.17-0.312,0.289c-0.081,0.119-0.14,0.254-0.178,0.405c-0.037,0.151-0.056,0.304-0.056,0.46    c0,0.203,0.017,0.372,0.048,0.507s0.076,0.241,0.133,0.321c0.056,0.08,0.121,0.137,0.197,0.172    c0.076,0.033,0.159,0.051,0.25,0.051c0.084,0,0.172-0.018,0.268-0.051c0.094-0.035,0.189-0.084,0.285-0.146    c0.096-0.064,0.188-0.143,0.277-0.236c0.09-0.094,0.17-0.201,0.243-0.322v-1.428c-0.053-0.02-0.108-0.037-0.169-0.055    c-0.059-0.016-0.119-0.029-0.182-0.041c-0.061-0.01-0.121-0.02-0.18-0.025C57.809,26.356,57.754,26.354,57.703,26.354z"/>
		<path class="st8" d="M55.738,29.701v-0.262h3.717v0.262H55.738z"/>
	</g>
	<g class="st5">
		<path class="st10" d="M24.057,42.867v0.395H22.62v0.59c0,0.245,0.001,0.461,0.005,0.646c0.003,0.187,0.014,0.328,0.032,0.425    h-0.545c0.018-0.099,0.029-0.241,0.032-0.427c0.003-0.187,0.005-0.401,0.005-0.645v-1.785c0-0.109-0.001-0.211-0.004-0.304    s-0.006-0.176-0.011-0.249c-0.005-0.074-0.012-0.137-0.022-0.186h2.155v0.406H22.62v1.133H24.057z"/>
		<path class="st10" d="M24.8,43.68c0-0.212,0.032-0.399,0.097-0.563c0.064-0.164,0.151-0.301,0.26-0.414    c0.109-0.112,0.236-0.197,0.381-0.254c0.146-0.059,0.3-0.087,0.463-0.087c0.17,0,0.326,0.028,0.467,0.087    c0.141,0.057,0.263,0.142,0.364,0.254c0.102,0.113,0.181,0.25,0.237,0.414c0.056,0.163,0.084,0.351,0.084,0.563    c0,0.211-0.032,0.398-0.097,0.561c-0.064,0.163-0.151,0.299-0.26,0.409c-0.109,0.11-0.236,0.193-0.382,0.25    s-0.3,0.085-0.463,0.085c-0.17,0-0.326-0.028-0.467-0.085s-0.263-0.14-0.364-0.25s-0.181-0.246-0.236-0.409    C24.828,44.078,24.8,43.891,24.8,43.68z M25.259,43.68c0,0.143,0.017,0.271,0.052,0.384s0.084,0.209,0.147,0.287    c0.063,0.077,0.139,0.138,0.227,0.179c0.088,0.041,0.185,0.061,0.292,0.061c0.099,0,0.192-0.02,0.28-0.061    c0.088-0.041,0.164-0.102,0.229-0.179c0.065-0.078,0.116-0.174,0.153-0.287s0.056-0.241,0.056-0.384    c0-0.145-0.018-0.273-0.052-0.388s-0.084-0.211-0.147-0.29c-0.063-0.08-0.14-0.141-0.228-0.183s-0.185-0.063-0.291-0.063    c-0.101,0-0.195,0.021-0.282,0.063c-0.088,0.042-0.164,0.103-0.228,0.183c-0.064,0.079-0.115,0.176-0.152,0.29    S25.259,43.535,25.259,43.68z"/>
		<path class="st10" d="M27.773,44.923v-1.515c0-0.242-0.013-0.447-0.041-0.616c-0.027-0.168-0.055-0.295-0.083-0.38h0.446    c0.02,0.045,0.038,0.104,0.053,0.174c0.016,0.068,0.029,0.146,0.04,0.232c0.011,0.085,0.019,0.176,0.024,0.273    c0.005,0.096,0.007,0.193,0.007,0.293v0.159c0.084-0.231,0.167-0.423,0.248-0.575c0.081-0.151,0.162-0.272,0.242-0.363    c0.08-0.09,0.161-0.152,0.242-0.189c0.081-0.035,0.163-0.054,0.248-0.054c0.063,0,0.121,0.006,0.173,0.018    c0.053,0.011,0.106,0.03,0.161,0.056l-0.074,0.456c-0.048-0.02-0.09-0.032-0.126-0.039c-0.037-0.007-0.081-0.011-0.134-0.011    c-0.068,0-0.139,0.029-0.213,0.086c-0.075,0.057-0.147,0.131-0.219,0.225c-0.072,0.094-0.14,0.199-0.205,0.318    c-0.064,0.117-0.121,0.238-0.17,0.363c-0.048,0.123-0.087,0.244-0.116,0.363c-0.029,0.117-0.043,0.223-0.043,0.314    c0,0.041,0,0.078,0.001,0.113c0,0.034,0.003,0.068,0.007,0.1c0.004,0.032,0.009,0.064,0.016,0.096    c0.006,0.032,0.015,0.066,0.025,0.103H27.773z"/>
		<path class="st10" d="M31.118,42.362c0.166,0,0.308,0.02,0.428,0.058c0.12,0.039,0.225,0.09,0.316,0.152l-0.087,0.442    c-0.112-0.082-0.224-0.144-0.334-0.185s-0.23-0.062-0.359-0.062c-0.11,0-0.213,0.021-0.308,0.063    c-0.095,0.041-0.178,0.102-0.248,0.18c-0.07,0.08-0.125,0.176-0.165,0.291s-0.06,0.244-0.06,0.389    c0,0.133,0.018,0.254,0.055,0.362c0.036,0.108,0.088,0.202,0.156,0.279c0.068,0.078,0.149,0.139,0.246,0.181    c0.096,0.043,0.204,0.064,0.324,0.064c0.15,0,0.287-0.025,0.409-0.076c0.122-0.051,0.238-0.124,0.347-0.219l0.049,0.43    c-0.063,0.049-0.125,0.089-0.187,0.123c-0.062,0.033-0.126,0.061-0.194,0.083s-0.141,0.038-0.218,0.05    c-0.078,0.01-0.163,0.016-0.255,0.016c-0.167,0-0.323-0.029-0.468-0.088c-0.146-0.058-0.272-0.143-0.381-0.252    c-0.109-0.109-0.195-0.242-0.258-0.398c-0.063-0.156-0.094-0.332-0.094-0.529c0-0.186,0.03-0.36,0.09-0.525    c0.061-0.164,0.146-0.307,0.258-0.43s0.247-0.221,0.406-0.292S30.921,42.362,31.118,42.362z"/>
		<path class="st10" d="M33.545,42.362c0.137,0,0.256,0.017,0.359,0.048c0.104,0.032,0.195,0.076,0.271,0.133    c0.076,0.057,0.14,0.123,0.19,0.199c0.052,0.074,0.092,0.156,0.123,0.243s0.053,0.178,0.066,0.272    c0.013,0.094,0.02,0.188,0.02,0.279v0.096c0,0.041-0.002,0.073-0.003,0.096h-1.756c0.005,0.145,0.027,0.271,0.068,0.377    c0.041,0.107,0.096,0.195,0.166,0.265s0.152,0.122,0.248,0.156c0.095,0.034,0.198,0.052,0.311,0.052    c0.16,0,0.317-0.018,0.471-0.055c0.154-0.035,0.307-0.1,0.459-0.191l0.049,0.406c-0.088,0.045-0.174,0.082-0.258,0.113    s-0.168,0.057-0.252,0.076s-0.17,0.034-0.257,0.043c-0.087,0.01-0.178,0.014-0.274,0.014c-0.158,0-0.309-0.027-0.453-0.082    c-0.143-0.055-0.27-0.137-0.378-0.244c-0.109-0.107-0.196-0.24-0.26-0.4c-0.064-0.158-0.097-0.344-0.097-0.554    c0-0.204,0.028-0.388,0.083-0.553s0.134-0.306,0.237-0.423c0.102-0.117,0.227-0.208,0.375-0.271    C33.197,42.395,33.362,42.362,33.545,42.362z M33.508,42.732c-0.182,0-0.33,0.053-0.445,0.158    c-0.116,0.105-0.191,0.271-0.228,0.494h1.293c0-0.105-0.015-0.199-0.046-0.28s-0.074-0.149-0.129-0.206    c-0.055-0.055-0.121-0.098-0.197-0.125S33.598,42.732,33.508,42.732z"/>
	</g>
	<g class="st5">
		<path class="st10" d="M2.187,35.295h1.424v0.16H3.009c-0.131,0-0.22,0.041-0.268,0.125c-0.026,0.046-0.04,0.105-0.04,0.18v4.521    c0,0.099,0.014,0.174,0.043,0.223c0.05,0.085,0.146,0.128,0.288,0.128h0.578v0.171H2.187V35.295z"/>
	</g>
	<g class="st5">
		<path class="st10" d="M7.41,36.754l0.092,0.228l-0.496,0.147c0.044,0.104,0.075,0.184,0.093,0.24    c0.037,0.122,0.056,0.242,0.056,0.361c0,0.295-0.121,0.539-0.362,0.731c-0.225,0.18-0.488,0.269-0.791,0.269    c-0.056,0-0.155-0.01-0.297-0.029c-0.067,0-0.152,0.055-0.255,0.161c-0.103,0.107-0.154,0.194-0.154,0.263    c0,0.07,0.077,0.121,0.231,0.154c0.101,0.021,0.213,0.033,0.337,0.033c0.563,0,0.948,0.031,1.153,0.095    c0.333,0.103,0.499,0.324,0.499,0.663c0,0.355-0.213,0.644-0.641,0.863c-0.353,0.182-0.726,0.272-1.12,0.272    c-0.254,0-0.498-0.05-0.73-0.151c-0.297-0.127-0.446-0.303-0.446-0.525c0-0.132,0.139-0.32,0.416-0.567l0.218-0.193l0.04-0.04    c-0.104-0.04-0.181-0.078-0.228-0.114c-0.088-0.067-0.132-0.145-0.132-0.233c0-0.143,0.2-0.389,0.601-0.742    c-0.199-0.064-0.356-0.183-0.471-0.353c-0.109-0.164-0.164-0.353-0.164-0.565c0-0.313,0.119-0.572,0.357-0.779    c0.227-0.196,0.5-0.295,0.819-0.295c0.16,0,0.337,0.038,0.532,0.113c0.082,0.045,0.191,0.092,0.33,0.14L7.41,36.754z M5.065,40.35    c0,0.324,0.342,0.486,1.027,0.486c0.275,0,0.529-0.044,0.76-0.131c0.317-0.117,0.476-0.292,0.476-0.523    c0-0.147-0.093-0.244-0.278-0.291c-0.108-0.028-0.325-0.045-0.65-0.05c-0.131-0.003-0.3-0.009-0.505-0.021    c-0.144-0.007-0.302-0.029-0.476-0.064c-0.048,0-0.119,0.078-0.213,0.234S5.065,40.266,5.065,40.35z M6.122,38.574    c0.12,0,0.222-0.033,0.304-0.1c0.132-0.104,0.198-0.287,0.198-0.548c0-0.259-0.052-0.491-0.155-0.7    C6.34,36.965,6.16,36.834,5.93,36.834c-0.339,0-0.509,0.234-0.509,0.702c0,0.244,0.055,0.468,0.164,0.67    C5.717,38.451,5.896,38.574,6.122,38.574z"/>
	</g>
	<g class="st5">
		<path class="st10" d="M9.055,37.013c-0.133,0-0.223,0.065-0.271,0.195c-0.022,0.063-0.051,0.094-0.088,0.094    c-0.018,0-0.026-0.011-0.026-0.033c0-0.032,0.025-0.138,0.076-0.315c0.06-0.203,0.092-0.32,0.099-0.351    c0-0.022,0.018-0.033,0.055-0.033c0.013,0,0.033,0.003,0.06,0.007s0.048,0.006,0.062,0.006h1.691c0.123,0,0.191,0.01,0.203,0.027    c0,0.027-0.021,0.068-0.063,0.125l-0.038,0.051l-1.787,2.386c-0.045,0.061-0.067,0.104-0.067,0.135    c0.009,0.03,0.074,0.046,0.196,0.046h1.117c0.103,0,0.192-0.097,0.269-0.291c0.032-0.082,0.055-0.124,0.069-0.124    c0.035,0.007,0.053,0.024,0.053,0.052c0,0.039-0.038,0.162-0.113,0.369c-0.048,0.133-0.092,0.259-0.13,0.379    c-0.004,0.012-0.022,0.02-0.054,0.02c-0.019,0-0.046-0.003-0.082-0.008c-0.036-0.004-0.063-0.006-0.08-0.006H8.644    c-0.114,0-0.175-0.012-0.183-0.035c0-0.055,0.02-0.107,0.061-0.16c0.107-0.141,0.293-0.387,0.558-0.738l1.275-1.682    c0.009-0.018,0.013-0.035,0.013-0.054c0-0.04-0.052-0.061-0.155-0.061H9.055z"/>
		<path class="st10" d="M13.197,40.803H11.77v-0.164h0.604c0.203,0,0.304-0.102,0.304-0.303v-4.523c0-0.231-0.109-0.348-0.327-0.348    H11.77v-0.17h1.427V40.803z"/>
	</g>
	<g class="st5">
		<path class="st10" d="M25.666,36.954h0.495v3.439h-0.495V36.954z"/>
		<path class="st10" d="M28.125,40.434l-0.305-0.357c0.256-0.161,0.48-0.355,0.671-0.585c0.192-0.229,0.32-0.464,0.384-0.705    c-0.157,0.097-0.341,0.146-0.553,0.146c-0.264,0-0.491-0.098-0.68-0.293c-0.189-0.195-0.284-0.431-0.284-0.705    c0-0.285,0.101-0.527,0.302-0.726c0.202-0.198,0.448-0.298,0.738-0.298c0.327,0,0.595,0.117,0.803,0.352    c0.208,0.234,0.313,0.536,0.313,0.904c0,0.416-0.131,0.838-0.392,1.264S28.53,40.189,28.125,40.434z M28.973,38.296    c0.02-0.132,0.029-0.217,0.029-0.256c0-0.198-0.056-0.361-0.167-0.487c-0.111-0.127-0.255-0.189-0.43-0.189    c-0.16,0-0.293,0.053-0.398,0.16c-0.105,0.108-0.157,0.243-0.157,0.406c0,0.148,0.057,0.277,0.171,0.386    c0.114,0.108,0.25,0.163,0.409,0.163C28.615,38.479,28.796,38.418,28.973,38.296z"/>
	</g>
	<g class="st5">
		<path class="st10" d="M31.172,36.915c0.213,0,0.395,0.075,0.545,0.226c0.15,0.152,0.226,0.333,0.226,0.545    c0,0.21-0.076,0.391-0.227,0.541c-0.151,0.151-0.332,0.227-0.543,0.227s-0.393-0.075-0.544-0.227    c-0.151-0.15-0.227-0.331-0.227-0.541c0-0.212,0.075-0.393,0.225-0.545C30.777,36.99,30.959,36.915,31.172,36.915z M32.925,36.904    h0.383l-2.275,3.529h-0.383L32.925,36.904z M31.166,37.289c-0.11,0-0.205,0.039-0.283,0.117c-0.078,0.077-0.117,0.171-0.117,0.28    c0,0.108,0.039,0.2,0.118,0.277s0.173,0.115,0.282,0.115c0.11,0,0.205-0.038,0.283-0.115s0.117-0.169,0.117-0.277    c0-0.111-0.039-0.205-0.116-0.282C31.373,37.328,31.278,37.289,31.166,37.289z M32.806,38.896c0.211,0,0.393,0.075,0.543,0.226    c0.152,0.149,0.229,0.33,0.229,0.54c0,0.211-0.076,0.389-0.227,0.535c-0.15,0.147-0.332,0.221-0.545,0.221    c-0.214,0-0.397-0.073-0.548-0.221c-0.151-0.146-0.227-0.324-0.227-0.535s0.076-0.393,0.228-0.541    C32.411,38.971,32.593,38.896,32.806,38.896z M32.801,39.271c-0.109,0-0.201,0.038-0.278,0.115    c-0.077,0.076-0.115,0.169-0.115,0.277c0,0.109,0.038,0.203,0.115,0.281c0.077,0.077,0.169,0.115,0.278,0.115    c0.112,0,0.207-0.037,0.284-0.115c0.077-0.076,0.116-0.17,0.116-0.281c0-0.109-0.039-0.203-0.116-0.279    S32.913,39.271,32.801,39.271z"/>
	</g>
	<g class="st5">
		<path class="st6" d="M17.742,17.65l-2.987,4.277h-2.576c0.313-0.41,0.576-0.752,0.79-1.029c0.213-0.277,0.402-0.525,0.566-0.745    s0.316-0.428,0.458-0.625c0.141-0.197,0.299-0.421,0.475-0.671l2.037-2.935l-1.808-2.525c-0.191-0.265-0.367-0.504-0.527-0.717    c-0.16-0.212-0.328-0.428-0.503-0.648c-0.176-0.22-0.372-0.465-0.59-0.734c-0.217-0.269-0.479-0.593-0.784-0.973h2.632    l2.976,4.106l2.805-4.106h2.576c-0.298,0.379-0.55,0.704-0.756,0.973s-0.393,0.516-0.561,0.739    c-0.168,0.224-0.327,0.442-0.475,0.654c-0.149,0.212-0.315,0.447-0.498,0.705l-1.866,2.73l1.98,2.73    c0.206,0.289,0.385,0.533,0.538,0.734c0.153,0.201,0.313,0.408,0.481,0.62c0.167,0.212,0.353,0.452,0.555,0.717    c0.202,0.266,0.459,0.599,0.772,1.001h-2.633L17.742,17.65z"/>
	</g>
	<g class="st5">
		<path class="st11" d="M28.35,9.332l-1.146,1.88h-0.709c0.049-0.065,0.095-0.126,0.136-0.184s0.086-0.123,0.136-0.196    c0.049-0.073,0.107-0.162,0.174-0.266c0.067-0.104,0.15-0.236,0.249-0.395l0.838-1.351l-0.638-1.008    c-0.099-0.157-0.184-0.29-0.254-0.396c-0.071-0.107-0.134-0.2-0.189-0.279s-0.106-0.148-0.152-0.208    c-0.046-0.061-0.094-0.123-0.144-0.188h0.724l1.02,1.611l0.983-1.611H30.1C30.053,6.8,30.006,6.86,29.96,6.92    c-0.046,0.06-0.097,0.13-0.153,0.211c-0.055,0.081-0.119,0.175-0.189,0.285s-0.154,0.241-0.251,0.396l-0.65,1.05l0.838,1.32    c0.101,0.159,0.185,0.291,0.254,0.395c0.069,0.104,0.128,0.192,0.179,0.265c0.05,0.073,0.095,0.136,0.135,0.191    s0.084,0.114,0.131,0.178h-0.709L28.35,9.332z"/>
	</g>
	<g class="st5">
		<path class="st11" d="M5.459,8.313c0.244-0.564,0.684-0.847,1.317-0.847c0.357,0,0.634,0.091,0.831,0.273    C7.763,7.894,7.84,8.071,7.84,8.271c0,0.061-0.004,0.096-0.014,0.105C7.807,8.507,7.749,8.573,7.65,8.573    c-0.108,0-0.162-0.033-0.162-0.098C7.45,8.367,7.504,8.313,7.65,8.313c0.019-0.172-0.052-0.322-0.211-0.448    C7.265,7.749,7.07,7.69,6.854,7.69c-0.287,0-0.498,0.166-0.634,0.497c-0.122,0.29-0.183,0.625-0.183,1.008    c0,0.327,0.071,0.604,0.211,0.833c0.155,0.262,0.378,0.392,0.669,0.392c0.296,0,0.535-0.126,0.718-0.378    c0.07-0.103,0.174-0.34,0.31-0.714l0.113,0.224c-0.113,0.34-0.23,0.579-0.353,0.714c-0.263,0.322-0.629,0.483-1.099,0.483    c-0.559,0-0.944-0.261-1.155-0.784c-0.23,0.523-0.672,0.784-1.324,0.784c-0.315,0-0.54-0.065-0.676-0.196    c-0.122-0.112-0.183-0.25-0.183-0.413c0-0.061,0.002-0.098,0.007-0.112C3.29,9.902,3.348,9.839,3.452,9.839    c0.084,0,0.136,0.023,0.155,0.07c0.005,0.093-0.033,0.14-0.113,0.14c-0.004,0-0.008,0-0.01,0s-0.005,0-0.007,0s-0.004,0-0.007,0    s-0.006,0-0.011,0c-0.004,0-0.009,0-0.014,0c-0.004,0-0.008,0-0.01,0s-0.005,0.002-0.007,0.007    c-0.002,0.004-0.003,0.019-0.003,0.042c0,0.004,0,0.008,0,0.01c0,0.002,0,0.005,0,0.007s0,0.006,0,0.01c0,0.005,0,0.04,0,0.105    s0.066,0.128,0.197,0.189c0.122,0.075,0.263,0.112,0.423,0.112c0.268,0,0.479-0.168,0.634-0.504    c0.127-0.271,0.19-0.602,0.19-0.994c0-0.341-0.042-0.635-0.127-0.882C4.619,7.835,4.44,7.676,4.205,7.676    c-0.319,0-0.596,0.355-0.831,1.064c-0.038,0.112-0.061,0.182-0.07,0.21C3.299,8.969,3.293,8.987,3.286,9.003    C3.279,9.02,3.275,9.035,3.275,9.048C3.266,9.067,3.257,9.1,3.247,9.146C3.238,9.165,3.231,9.184,3.226,9.203    C3.222,9.221,3.217,9.237,3.212,9.251C3.208,9.266,3.202,9.282,3.194,9.3c-0.007,0.019-0.01,0.035-0.01,0.049    C3.179,9.363,3.16,9.429,3.127,9.545l-0.12-0.217C3.205,8.708,3.33,8.355,3.381,8.271c0.244-0.551,0.521-0.826,0.831-0.826    s0.57,0.08,0.782,0.238C5.177,7.824,5.333,8.034,5.459,8.313z"/>
	</g>
	<g>
		<path class="st12" d="M60.7,16.9L59.5,17c-0.1,0-0.2-0.3-0.2-0.3L58.9,15l-23.8,1l-0.3,1.4c0,0.5-0.5,0.5-0.5,0.5l-1,0.1    c-0.4,0-0.5-0.2-0.5-0.2l-1-1.9c-0.4-0.4-0.1-1.4-0.1-1.4L34,8c0-0.2,0.2-0.2,0.2-0.2h1.4c0.2-0.1,0.2,0.1,0.2,0.1L36,8.3l0,0    C36,8.1,36.2,8,36.4,8h1.3c0.2,0,0.4,0.2,0.4,0.5L38,8.9h0.4l0.1-0.5c0-0.2,0.2-0.3,0.4-0.3h1.3c0.2,0,0.4,0.2,0.4,0.4v0.4h0.5    l0.1-0.5c0-0.2,0.2-0.3,0.4-0.3h1.3c0.2,0,0.4,0.2,0.4,0.4v0.4h0.6L44,8.6c0-0.2,0.2-0.3,0.4-0.3l1.4,0.1c0.2,0,0.4,0.2,0.4,0.4    v0.5h0.6V8.8c0-0.2,0.2-0.4,0.4-0.4h1.5c0.2,0,0.4,0.2,0.4,0.4v0.5h0.7V8.8c0-0.2,0.2-0.4,0.4-0.4h1.4c0.2,0,0.4,0.2,0.4,0.4v0.5    h0.8V8.8c0-0.2,0.2-0.4,0.4-0.4h1.4c0.2,0,0.4,0.2,0.4,0.4v0.5h0.7V8.8c0-0.2,0.2-0.4,0.4-0.4l1.6,0.1c0.2,0,0.4,0.2,0.4,0.4v0.6    H59l0.1-0.8c0-0.2,0.2-0.3,0.4-0.3h0.8c0.2,0,0.3,0.1,0.4,0.3l0.9,4.6c0,0.2,0,0.4,0,0.6L60.7,16.9z"/>
		<path class="st7" d="M38.5,8.9l-1.3,5.8c-0.1,0.3,0.2,0.5,0.4,0.5l1.6-0.1c0.2,0,0.3-0.1,0.4-0.3l1.1-6.3l-0.3-0.4h-1.5l-0.2,0.2    L38.5,8.9z"/>
		<path class="st7" d="M46.7,9.3l-0.1,5.3c0,0.2,0.2,0.4,0.4,0.4h1.5c0.2,0,0.4-0.2,0.4-0.4L49,9.3l0,0V8.9c0,0,0,0,0-0.1    s0-0.2-0.1-0.3s-0.3-0.2-0.5-0.2h-0.1c-0.5,0-0.9,0-1.4,0C47,8.4,46.7,8.4,46.7,9.3C46.7,9.2,46.7,9.3,46.7,9.3z"/>
		<path class="st7" d="M49.6,9.3v5.1c0,0.2,0.1,0.3,0.3,0.3h1.5c0.2,0,0.4-0.3,0.4-0.5V9c0-0.3-0.2-0.5-0.5-0.5h-1.5    c-0.2,0-0.4,0.2-0.4,0.4L49.6,9.3z"/>
		<path class="st13" d="M35.7,7.8l-2.2,6.7c0,0-0.2,0.7,0.1,1.2l1.1,2.1"/>
		<polyline class="st13" points="34.3,15.3 34.5,16 35.2,16   "/>
		<line class="st13" x1="38" y1="8.9" x2="37.5" y2="11.1"/>
		<path class="st13" d="M37,13l-0.5,2c0,0.2-0.2,0.3-0.4,0.3l-1.6,0.1c-0.3,0-0.5-0.2-0.4-0.5L36,8.3"/>
		<g>
			<path class="st13" d="M37.1,9.2c0,0.2-0.1,0.3-0.3,0.3s-0.3-0.1-0.3-0.3s0.1-0.3,0.3-0.3S37.1,9,37.1,9.2z"/>
			<path class="st14" d="M39.7,9.3c0,0.2-0.1,0.3-0.3,0.3s-0.3-0.1-0.3-0.3S39.2,9,39.4,9C39.5,9,39.7,9.1,39.7,9.3z"/>
			<path class="st13" d="M42.5,9.4c0,0.2-0.1,0.3-0.3,0.3s-0.3-0.1-0.3-0.3s0.1-0.3,0.3-0.3C42.3,9.1,42.5,9.2,42.5,9.4z"/>
			<path class="st13" d="M45.4,9.5c0,0.2-0.1,0.3-0.3,0.3s-0.3-0.1-0.3-0.3s0.1-0.3,0.3-0.3C45.3,9.2,45.4,9.3,45.4,9.5z"/>
			<path class="st14" d="M48.2,9.6c0,0.2-0.1,0.3-0.3,0.3s-0.3-0.1-0.3-0.3s0.1-0.3,0.3-0.3C48.1,9.3,48.2,9.4,48.2,9.6z"/>
			<path class="st14" d="M51,9.7c0,0.2-0.1,0.3-0.3,0.3s-0.3-0.1-0.3-0.3s0.1-0.3,0.3-0.3S51,9.5,51,9.7z"/>
			<path class="st13" d="M54,9.8c0,0.2-0.1,0.3-0.3,0.3s-0.3-0.1-0.3-0.3s0.1-0.3,0.3-0.3S54,9.7,54,9.8z"/>
			<path class="st13" d="M57,10c0,0.2-0.1,0.3-0.3,0.3s-0.3-0.1-0.3-0.3s0.1-0.3,0.3-0.3S57,9.8,57,10z"/>
			<path class="st13" d="M35.9,13.6c0,0.2-0.1,0.3-0.3,0.3s-0.3-0.1-0.3-0.3s0.1-0.3,0.3-0.3C35.8,13.4,35.9,13.5,35.9,13.6z"/>
			<path class="st14" d="M38.9,13.6c0,0.2-0.1,0.3-0.3,0.3s-0.3-0.1-0.3-0.3s0.1-0.3,0.3-0.3C38.8,13.3,38.9,13.4,38.9,13.6z"/>
			<path class="st13" d="M42,13.5c0,0.2-0.1,0.3-0.3,0.3s-0.3-0.1-0.3-0.3s0.1-0.3,0.3-0.3S42,13.3,42,13.5z"/>
			<path class="st13" d="M45,13.4c0,0.2-0.1,0.3-0.3,0.3s-0.3-0.1-0.3-0.3s0.1-0.3,0.3-0.3C44.9,13.1,45,13.2,45,13.4z"/>
			<path class="st14" d="M48.1,13.4c0,0.2-0.1,0.3-0.3,0.3s-0.3-0.1-0.3-0.3s0.1-0.3,0.3-0.3C47.9,13.2,48.1,13.3,48.1,13.4z"/>
			<path class="st14" d="M51,13.4c0,0.2-0.1,0.3-0.3,0.3s-0.3-0.1-0.3-0.3s0.1-0.3,0.3-0.3C50.9,13.1,51,13.2,51,13.4z"/>
			<path class="st13" d="M54,13.4c0,0.2-0.1,0.3-0.3,0.3s-0.3-0.1-0.3-0.3s0.1-0.3,0.3-0.3C53.9,13.1,54,13.2,54,13.4z"/>
			<path class="st13" d="M57.1,13.2c0,0.2-0.1,0.3-0.3,0.3s-0.3-0.1-0.3-0.3s0.1-0.3,0.3-0.3C57,13,57.1,13.1,57.1,13.2z"/>
		</g>
		<line class="st13" x1="38.5" y1="8.9" x2="38" y2="11.2"/>
		<path class="st13" d="M37.6,13l-0.4,1.8c-0.1,0.2,0.1,0.5,0.4,0.5l1.6-0.1c0.2,0,0.3-0.1,0.4-0.3l0.3-1.9"/>
		<line class="st13" x1="40.6" y1="9" x2="40.3" y2="11.2"/>
		<line class="st13" x1="36.7" y1="14.2" x2="37.4" y2="14.2"/>
		<path class="st13" d="M40.6,12.9l-0.3,1.8c0,0.2,0.2,0.4,0.4,0.4h1.4c0.2,0,0.3-0.1,0.4-0.3l0.3-1.9"/>
		<line class="st13" x1="41.2" y1="9" x2="40.9" y2="11.2"/>
		<line class="st13" x1="43.3" y1="9.1" x2="43" y2="11.3"/>
		<line class="st13" x1="39.8" y1="14.2" x2="40.4" y2="14.1"/>
		<path class="st13" d="M43.6,12.9l-0.2,1.7c0,0.2,0.2,0.4,0.4,0.4l1.6-0.1c0.2,0,0.4-0.2,0.4-0.4l0.1-1.7"/>
		<line class="st13" x1="46" y1="11.4" x2="46.2" y2="9.2"/>
		<line class="st13" x1="44" y1="9.1" x2="43.8" y2="11.3"/>
		<line class="st13" x1="42.7" y1="14.1" x2="43.5" y2="14.1"/>
		<line class="st13" x1="46.7" y1="9.3" x2="46.7" y2="11.4"/>
		<path class="st13" d="M46.6,12.9v1.6c0,0.2,0.2,0.4,0.4,0.4h1.5c0.2,0,0.4-0.2,0.4-0.4l0.1-1.6"/>
		<line class="st13" x1="49" y1="9.3" x2="48.9" y2="11.5"/>
		<line class="st13" x1="45.9" y1="14" x2="46.6" y2="14"/>
		<line class="st13" x1="49.6" y1="9.3" x2="49.6" y2="11.5"/>
		<path class="st13" d="M49.6,12.9v1.5c0,0.2,0.2,0.4,0.4,0.4l1.5-0.1c0.2,0,0.4-0.2,0.4-0.4v-1.5"/>
		<line class="st13" x1="51.9" y1="11.6" x2="51.9" y2="9.4"/>
		<line class="st13" x1="48.9" y1="14" x2="49.6" y2="13.9"/>
		<line class="st13" x1="52.7" y1="11.6" x2="52.7" y2="9.5"/>
		<path class="st13" d="M52.7,12.8v1.5c0,0.2,0.2,0.4,0.4,0.4l1.4-0.1c0.2,0,0.4-0.2,0.4-0.4v-1.4"/>
		<line class="st13" x1="54.9" y1="11.7" x2="54.9" y2="9.5"/>
		<line class="st13" x1="51.9" y1="13.9" x2="52.7" y2="13.8"/>
		<line class="st13" x1="55.6" y1="9.6" x2="55.6" y2="11.7"/>
		<path class="st13" d="M55.6,12.8v1.4c0,0.2,0.3,0.4,0.5,0.4l1.5-0.1c0.2,0,0.4-0.2,0.4-0.4V9.6"/>
		<line class="st13" x1="55.6" y1="13.8" x2="54.9" y2="13.8"/>
		<polyline class="st13" points="58.8,9.7 59,10.8 58,12.1   "/>
		<line class="st13" x1="58" y1="10.7" x2="59" y2="10.7"/>
		<polyline class="st13" points="58,12.8 59.2,12.8 59.4,13.7 58.9,15   "/>
		<path class="st13" d="M58.9,8.8l0.9,4.6c0,0.2,0,0.5,0,0.7l-0.5,2.5"/>
		<g>
			<path class="st12" d="M52.8,1L40.6,0.8c0,0-0.1-0.5-0.7-0.5c0,0-0.7-0.1-0.8,0.7c0,0-0.1,0.6,0.7,0.8c0,0,0.6,0.1,0.8-0.5     l12.3,0.2C52.8,1.4,52.9,1.1,52.8,1z"/>
			<path class="st12" d="M54.3,1.6L42,4.4c0,0-0.3-0.5-1.1-0.4c0,0-0.5,0.1-0.6,0.6c-0.1,0.3,0,0.6,0.2,0.8c0.1,0.1,0.2,0.2,0.5,0.3     c0.2,0.1,0.5,0,0.7-0.1s0.5-0.3,0.5-0.6l12.4-3C54.6,2,54.6,1.6,54.3,1.6z"/>
			<path class="st14" d="M54.3,1.6L42,4.4c0,0-0.3-0.5-1.1-0.4c0,0-0.5,0.1-0.6,0.6c-0.1,0.3,0,0.6,0.2,0.8c0.1,0.1,0.2,0.2,0.5,0.3     c0.2,0.1,0.5,0,0.7-0.1s0.5-0.3,0.5-0.6l12.4-3C54.6,2,54.6,1.6,54.3,1.6z"/>
			<path class="st14" d="M52.8,1L40.6,0.8c0,0-0.1-0.5-0.7-0.5c0,0-0.7-0.1-0.8,0.7c0,0-0.1,0.6,0.7,0.8c0,0,0.6,0.1,0.8-0.5     l12.3,0.2C52.8,1.4,52.9,1.1,52.8,1z"/>
			<path class="st13" d="M40.6,0.8c0.1,0.1,0.1,0.3,0,0.5"/>
			<path class="st13" d="M42.1,4.4c0,0,0.2,0.3,0.1,0.5"/>
		</g>
		<path class="st13" d="M37,13h0.6l0.4-1.8h-0.6L37,13z M40,12.9h0.7l0.3-1.7h-0.6L40,12.9z M42.8,12.9h0.8l0.1-1.6H43    C43,11.3,42.9,12.8,42.8,12.9z M46,12.9h0.7v-1.4L46,11.4V12.9z M48.9,12.9h0.7v-1.3h-0.7V12.9z M51.9,12.9h0.8v-1.2h-0.8V12.9z     M54.9,12.8h0.7v-1.1h-0.7V12.8z"/>
		<line class="st13" x1="54.9" y1="10.4" x2="55.6" y2="10.5"/>
		<line class="st13" x1="51.9" y1="10.3" x2="52.7" y2="10.4"/>
		<line class="st13" x1="49" y1="10.2" x2="49.6" y2="10.2"/>
		<line class="st13" x1="46.1" y1="10.1" x2="46.7" y2="10.1"/>
		<line class="st13" x1="43.2" y1="10" x2="43.9" y2="10"/>
		<line class="st13" x1="40.5" y1="9.9" x2="41" y2="9.9"/>
		<line class="st13" x1="37.8" y1="9.8" x2="38.3" y2="9.8"/>
		<line class="st13" x1="58" y1="13.7" x2="59.4" y2="13.7"/>
		<path class="st15" d="M60.7,16.9L59.5,17c-0.1,0-0.2-0.3-0.2-0.3L58.9,15l-23.8,1l-0.3,1.4c0,0.5-0.5,0.5-0.5,0.5l-1,0.1    c-0.4,0-0.5-0.2-0.5-0.2l-1-1.9c-0.4-0.4-0.1-1.4-0.1-1.4L34,8c0-0.2,0.2-0.2,0.2-0.2h1.4c0.2-0.1,0.2,0.1,0.2,0.1L36,8.3l0,0    C36,8.1,36.2,8,36.4,8h1.3c0.2,0,0.4,0.2,0.4,0.5L38,8.9h0.4l0.1-0.5c0-0.2,0.2-0.3,0.4-0.3h1.3c0.2,0,0.4,0.2,0.4,0.4v0.4h0.5    l0.1-0.5c0-0.2,0.2-0.3,0.4-0.3h1.3c0.2,0,0.4,0.2,0.4,0.4v0.4h0.6L44,8.6c0-0.2,0.2-0.3,0.4-0.3l1.4,0.1c0.2,0,0.4,0.2,0.4,0.4    v0.5h0.6V8.8c0-0.2,0.2-0.4,0.4-0.4h1.5c0.2,0,0.4,0.2,0.4,0.4v0.5h0.7V8.8c0-0.2,0.2-0.4,0.4-0.4h1.4c0.2,0,0.4,0.2,0.4,0.4v0.5    h0.8V8.8c0-0.2,0.2-0.4,0.4-0.4h1.4c0.2,0,0.4,0.2,0.4,0.4v0.5h0.7V8.8c0-0.2,0.2-0.4,0.4-0.4l1.6,0.1c0.2,0,0.4,0.2,0.4,0.4v0.6    H59l0.1-0.8c0-0.2,0.2-0.3,0.4-0.3h0.8c0.2,0,0.3,0.1,0.4,0.3l0.9,4.6c0,0.2,0,0.4,0,0.6L60.7,16.9z"/>
	</g>
</g>
</svg>