<?xml version="1.0" encoding="UTF-8"?>
<!-- Generator: Adobe Illustrator 24.0.2, SVG Export Plug-In . SVG Version: 6.00 Build 0)  -->
<svg version="1.1" id="Calque_1" xmlns="http://www.w3.org/2000/svg" xmlns:xlink="http://www.w3.org/1999/xlink" x="0px" y="0px" viewBox="0 0 99 66" style="enable-background:new 0 0 99 66;" xml:space="preserve">
<style type="text/css">
	.st0{fill:none;stroke:#7DB728;stroke-width:7.2787;stroke-miterlimit:10;}
	.st1{fill:#FFFFFF;stroke:#9D9D9C;stroke-width:0.7206;stroke-miterlimit:10;}
	.st2{fill:#FFFFFF;stroke:#000000;stroke-width:0.9705;stroke-miterlimit:10;stroke-dasharray:9.7049,4.8524,9.7049,4.8524;}
	.st3{fill:#FFFFFF;stroke:#000000;stroke-width:0.9705;stroke-miterlimit:10;}
	.st4{enable-background:new    ;}
	.st5{fill:#706F6F;}
	.st6{fill:#E11683;}
	.st7{fill:none;stroke:#B2B2B2;stroke-width:0.3639;stroke-miterlimit:10;}
	.st8{fill:#878787;}
	.st9{fill:#9D9D9C;}
	.st10{fill:#B2B2B2;}
	.st11{fill:#575756;stroke:#575756;stroke-width:0.428;stroke-miterlimit:10;}
	.st12{fill:#575756;}
	.st13{opacity:0.8;enable-background:new    ;}
	.st14{fill:#7DB728;}
	.st15{fill:#7FC7EB;}
	.st16{fill:#FFFFFF;stroke:#000000;stroke-width:0.0514;stroke-miterlimit:10;}
	.st17{fill:none;stroke:#000000;stroke-width:0.0514;stroke-miterlimit:10;}
	.st18{fill:#FFFFFF;}
	.st19{fill:none;stroke:#000000;stroke-width:0.061;stroke-miterlimit:10;}
	.st20{fill:none;stroke:#575756;stroke-width:0.1746;stroke-miterlimit:10;}
	.st21{fill:none;stroke:#575756;stroke-width:0.1746;stroke-linecap:round;stroke-linejoin:round;stroke-miterlimit:10;}
	.st22{fill:none;stroke:#575756;stroke-width:0.5238;stroke-linecap:round;stroke-linejoin:round;stroke-miterlimit:10;}
</style>
<g id="_x3C_Groupe_x3E__tuyau">
	<path class="st0" d="M86.2,68.6"/>
	<polygon class="st1" points="73.2,49 52.4,49 52.4,2.5 98.1,2.5 98.1,49 77.5,49  "/>
	<polyline class="st2" points="17,48.9 17,13.3 52.5,13.3 52.5,48.9  "/>
	<path class="st3" d="M52.5,48.9h-10c0,0-3.2,5.9-8.6,7.1c0,0,3.2-2.2,4.3-7.1H16.4"/>
	<g class="st4">
		<path class="st5" d="M87.777,7.173v0.489h-0.813v3.946h0.813v0.489h-2.236v-0.489h0.795V7.662h-0.795V7.173H87.777z"/>
	</g>
	<g class="st4">
		<path class="st6" d="M90.271,11.541c0.163,0,0.318,0,0.464-0.001c0.146-0.001,0.281-0.003,0.404-0.007    c0.124-0.003,0.234-0.008,0.332-0.015c0.097-0.007,0.179-0.016,0.244-0.027v0.607H88.85c0.023-0.135,0.038-0.33,0.043-0.585    c0.004-0.255,0.006-0.549,0.006-0.882V8.64c0-0.333-0.002-0.627-0.006-0.882c-0.005-0.255-0.02-0.45-0.043-0.585h0.679v4.368    H90.271z"/>
		<path class="st6" d="M93.85,11.541c0.164,0,0.318,0,0.465-0.001c0.145-0.001,0.279-0.003,0.403-0.007s0.234-0.008,0.331-0.015    c0.098-0.007,0.18-0.016,0.246-0.027v0.607h-2.867c0.025-0.135,0.039-0.33,0.043-0.585c0.005-0.255,0.008-0.549,0.008-0.882V8.64    c0-0.333-0.003-0.627-0.008-0.882c-0.004-0.255-0.018-0.45-0.043-0.585h0.68v4.368H93.85z"/>
	</g>
	<g class="st4">
		<path class="st5" d="M56.686,10.29c0.252,0,0.379,0.128,0.379,0.384s-0.127,0.385-0.379,0.385c-0.229,0-0.344-0.128-0.344-0.385    S56.457,10.29,56.686,10.29z M57.004,13.616c0,0.283,0.016,0.472,0.047,0.567c0.039,0.175,0.121,0.263,0.245,0.263    c0.159,0,0.312-0.189,0.458-0.567c0.018-0.054,0.035-0.108,0.056-0.162c0.021-0.054,0.038-0.105,0.056-0.155    c0.023-0.059,0.041-0.108,0.054-0.148s0.024-0.07,0.033-0.088l0.112,0.216c-0.158,0.455-0.258,0.72-0.298,0.796    c-0.133,0.234-0.313,0.351-0.544,0.351c-0.561,0-0.842-0.306-0.842-0.917v-2.253l0.623,0.007V13.616z"/>
	</g>
	<g class="st4">
		<path class="st6" d="M60.459,13.528c-0.133,0.391-0.316,0.681-0.551,0.87c-0.238,0.193-0.587,0.29-1.047,0.29    c-0.375,0-0.629-0.119-0.762-0.357c-0.058-0.085-0.098-0.209-0.119-0.371c-0.018-0.13-0.027-0.29-0.027-0.479V7.625    c0-0.666,0.073-1.199,0.219-1.599c0.203-0.589,0.541-0.883,1.015-0.883c0.27,0,0.47,0.15,0.603,0.452    c0.115,0.279,0.173,0.644,0.173,1.093c0,0.324-0.026,0.667-0.079,1.032c-0.049,0.302-0.131,0.657-0.246,1.066    c-0.026,0.072-0.051,0.142-0.072,0.209c-0.04,0.121-0.071,0.218-0.094,0.29c-0.021,0.054-0.043,0.11-0.065,0.168    c-0.022,0.059-0.042,0.122-0.06,0.189c-0.027,0.067-0.053,0.138-0.076,0.212c-0.025,0.074-0.05,0.15-0.076,0.226    c-0.076,0.216-0.145,0.422-0.209,0.617c-0.064,0.196-0.123,0.381-0.176,0.557c-0.119,0.387-0.21,0.785-0.271,1.194v1.045    c0,0.32,0.037,0.547,0.112,0.682c0.084,0.171,0.261,0.256,0.53,0.256c0.494,0,0.884-0.369,1.166-1.106L60.459,13.528z     M59.723,7.659c0-0.072,0.01-0.18,0.027-0.324c0.026-0.139,0.039-0.238,0.039-0.297c0.018-0.22,0.027-0.369,0.027-0.445    c0-0.346-0.043-0.616-0.127-0.81c-0.114-0.229-0.287-0.344-0.516-0.344c-0.222,0-0.381,0.171-0.479,0.513    c-0.105,0.36-0.158,0.897-0.158,1.612v3.838c0.021-0.072,0.06-0.184,0.112-0.337c0.026-0.081,0.071-0.202,0.133-0.364    c0.026-0.085,0.07-0.213,0.132-0.384c0.022-0.063,0.046-0.128,0.07-0.196c0.023-0.067,0.049-0.135,0.076-0.202    c0.189-0.526,0.329-0.922,0.418-1.188c0.018-0.063,0.043-0.153,0.079-0.27c0.013-0.045,0.026-0.091,0.04-0.138    c0.013-0.047,0.026-0.093,0.039-0.138c0.058-0.175,0.086-0.349,0.086-0.52V7.659z"/>
		<path class="st6" d="M62.858,13.528c-0.133,0.391-0.315,0.681-0.55,0.87c-0.238,0.193-0.588,0.29-1.047,0.29    c-0.377,0-0.631-0.119-0.763-0.357c-0.058-0.085-0.098-0.209-0.12-0.371c-0.018-0.13-0.025-0.29-0.025-0.479V7.625    c0-0.666,0.072-1.199,0.219-1.599c0.203-0.589,0.541-0.883,1.014-0.883c0.27,0,0.471,0.15,0.604,0.452    c0.114,0.279,0.172,0.644,0.172,1.093c0,0.324-0.027,0.667-0.08,1.032c-0.049,0.302-0.13,0.657-0.244,1.066    c-0.027,0.072-0.051,0.142-0.074,0.209c-0.039,0.121-0.07,0.218-0.092,0.29c-0.022,0.054-0.045,0.11-0.066,0.168    c-0.022,0.059-0.043,0.122-0.061,0.189c-0.025,0.067-0.051,0.138-0.076,0.212c-0.023,0.074-0.049,0.15-0.076,0.226    c-0.074,0.216-0.145,0.422-0.208,0.617c-0.064,0.196-0.122,0.381-0.176,0.557c-0.119,0.387-0.21,0.785-0.272,1.194v1.045    c0,0.32,0.038,0.547,0.113,0.682c0.084,0.171,0.261,0.256,0.53,0.256c0.495,0,0.884-0.369,1.167-1.106L62.858,13.528z     M62.123,7.659c0-0.072,0.008-0.18,0.025-0.324c0.027-0.139,0.041-0.238,0.041-0.297c0.018-0.22,0.025-0.369,0.025-0.445    c0-0.346-0.041-0.616-0.125-0.81c-0.115-0.229-0.287-0.344-0.518-0.344c-0.221,0-0.38,0.171-0.477,0.513    c-0.106,0.36-0.16,0.897-0.16,1.612v3.838c0.023-0.072,0.061-0.184,0.113-0.337c0.027-0.081,0.07-0.202,0.133-0.364    c0.026-0.085,0.07-0.213,0.133-0.384c0.021-0.063,0.045-0.128,0.069-0.196s0.05-0.135,0.076-0.202    c0.19-0.526,0.329-0.922,0.417-1.188c0.018-0.063,0.045-0.153,0.08-0.27c0.014-0.045,0.026-0.091,0.039-0.138    c0.014-0.047,0.027-0.093,0.041-0.138c0.057-0.175,0.086-0.349,0.086-0.52V7.659z"/>
	</g>
	<path class="st7" d="M23.7,45.6c0.4,0.1,5.2,2.4,12.1,0.1"/>
	<path class="st7" d="M32.1,45.6c0.4,0.1,5.9,2.4,13.8,0.1"/>
	<g class="st4">
		<path class="st8" d="M41.212,59.082v0.404h-1.441v0.607c0,0.252,0.001,0.473,0.005,0.664s0.014,0.337,0.032,0.437h-0.547    c0.019-0.101,0.029-0.247,0.033-0.438c0.003-0.191,0.005-0.412,0.005-0.662V58.26c0-0.113-0.001-0.217-0.004-0.313    s-0.006-0.182-0.011-0.257s-0.012-0.14-0.022-0.19h2.163v0.418h-1.653v1.164H41.212z"/>
		<path class="st8" d="M41.958,59.916c0-0.217,0.032-0.41,0.097-0.577c0.064-0.168,0.152-0.31,0.261-0.425    c0.109-0.115,0.237-0.203,0.382-0.262c0.146-0.06,0.301-0.089,0.465-0.089c0.171,0,0.327,0.029,0.469,0.089    c0.142,0.059,0.263,0.146,0.365,0.262s0.181,0.257,0.237,0.425c0.056,0.167,0.084,0.36,0.084,0.577    c0,0.219-0.032,0.41-0.097,0.578c-0.065,0.166-0.152,0.307-0.261,0.42c-0.109,0.112-0.237,0.198-0.383,0.256    c-0.146,0.059-0.301,0.088-0.465,0.088c-0.17,0-0.327-0.029-0.468-0.088c-0.142-0.058-0.264-0.144-0.365-0.256    c-0.102-0.113-0.181-0.254-0.237-0.42C41.986,60.326,41.958,60.135,41.958,59.916z M42.417,59.916    c0,0.147,0.018,0.279,0.052,0.396s0.084,0.214,0.148,0.294s0.14,0.143,0.228,0.184c0.088,0.043,0.186,0.064,0.293,0.064    c0.1,0,0.193-0.021,0.281-0.064c0.088-0.041,0.165-0.104,0.23-0.184s0.117-0.178,0.154-0.294s0.056-0.248,0.056-0.396    s-0.017-0.28-0.052-0.398c-0.035-0.117-0.084-0.216-0.148-0.298c-0.064-0.081-0.14-0.144-0.229-0.187    c-0.088-0.043-0.186-0.064-0.292-0.064c-0.101,0-0.195,0.021-0.283,0.064s-0.164,0.105-0.229,0.187    c-0.065,0.082-0.116,0.181-0.153,0.298C42.436,59.636,42.417,59.769,42.417,59.916z"/>
		<path class="st8" d="M44.94,61.194v-1.556c0-0.25-0.014-0.461-0.041-0.634s-0.055-0.304-0.083-0.392h0.448    c0.02,0.048,0.038,0.107,0.053,0.179s0.029,0.151,0.04,0.239c0.011,0.088,0.019,0.182,0.023,0.281s0.007,0.199,0.007,0.301v0.164    c0.084-0.238,0.167-0.435,0.249-0.59c0.081-0.156,0.162-0.281,0.242-0.374c0.081-0.093,0.161-0.157,0.243-0.194    c0.081-0.037,0.164-0.056,0.249-0.056c0.063,0,0.121,0.006,0.174,0.018s0.107,0.031,0.162,0.058l-0.075,0.469    c-0.048-0.021-0.09-0.034-0.126-0.041c-0.037-0.006-0.082-0.01-0.134-0.01c-0.068,0-0.139,0.029-0.214,0.088    c-0.075,0.058-0.148,0.135-0.22,0.23c-0.072,0.097-0.141,0.205-0.205,0.326c-0.065,0.122-0.122,0.246-0.17,0.373    c-0.049,0.128-0.088,0.252-0.117,0.374c-0.029,0.121-0.043,0.229-0.043,0.323c0,0.043,0,0.082,0.001,0.117    s0.003,0.069,0.007,0.102c0.004,0.033,0.01,0.066,0.017,0.1c0.006,0.032,0.015,0.067,0.024,0.104H44.94z"/>
		<path class="st8" d="M48.295,58.563c0.166,0,0.309,0.02,0.429,0.06c0.12,0.039,0.226,0.092,0.317,0.155l-0.087,0.456    c-0.113-0.085-0.225-0.148-0.335-0.19s-0.231-0.063-0.36-0.063c-0.111,0-0.214,0.021-0.31,0.064S47.77,59.15,47.7,59.23    c-0.07,0.082-0.125,0.182-0.165,0.299c-0.04,0.119-0.06,0.252-0.06,0.4c0,0.137,0.018,0.26,0.055,0.371    c0.036,0.111,0.088,0.207,0.156,0.287s0.15,0.143,0.246,0.187s0.205,0.065,0.326,0.065c0.151,0,0.288-0.025,0.41-0.078    s0.238-0.127,0.348-0.225l0.05,0.442c-0.063,0.049-0.125,0.091-0.188,0.125s-0.127,0.063-0.195,0.086s-0.141,0.04-0.219,0.051    c-0.078,0.011-0.163,0.017-0.256,0.017c-0.167,0-0.324-0.03-0.47-0.09c-0.146-0.061-0.273-0.146-0.383-0.26    s-0.195-0.25-0.258-0.41s-0.094-0.341-0.094-0.543c0-0.191,0.03-0.371,0.09-0.539c0.061-0.169,0.147-0.316,0.259-0.443    c0.112-0.126,0.248-0.227,0.407-0.299C47.919,58.6,48.098,58.563,48.295,58.563z"/>
		<path class="st8" d="M50.73,58.563c0.137,0,0.256,0.017,0.361,0.05c0.104,0.032,0.193,0.078,0.271,0.136    c0.076,0.059,0.14,0.126,0.191,0.204c0.052,0.077,0.093,0.16,0.123,0.25s0.052,0.183,0.065,0.279    c0.014,0.098,0.02,0.193,0.02,0.287v0.1c0,0.041,0,0.074-0.002,0.098h-1.762c0.004,0.148,0.028,0.277,0.069,0.388    c0.04,0.109,0.096,0.2,0.166,0.272c0.07,0.071,0.153,0.125,0.248,0.16c0.096,0.035,0.199,0.053,0.313,0.053    c0.16,0,0.318-0.018,0.473-0.055s0.307-0.104,0.459-0.197l0.051,0.416c-0.088,0.047-0.175,0.085-0.26,0.117    c-0.084,0.031-0.168,0.059-0.253,0.078c-0.085,0.021-0.171,0.035-0.257,0.045c-0.088,0.009-0.179,0.014-0.275,0.014    c-0.158,0-0.311-0.028-0.455-0.085c-0.144-0.057-0.271-0.14-0.379-0.251c-0.109-0.109-0.197-0.247-0.261-0.41    c-0.064-0.164-0.097-0.354-0.097-0.57c0-0.209,0.027-0.398,0.083-0.567s0.135-0.314,0.237-0.435    c0.103-0.121,0.228-0.214,0.376-0.279C50.381,58.596,50.547,58.563,50.73,58.563z M50.693,58.943    c-0.182,0-0.331,0.054-0.447,0.162c-0.115,0.109-0.191,0.278-0.229,0.508h1.297c0-0.107-0.016-0.203-0.045-0.287    c-0.031-0.084-0.074-0.154-0.13-0.211c-0.056-0.058-0.122-0.101-0.198-0.129C50.865,58.957,50.783,58.943,50.693,58.943z"/>
	</g>
	<g class="st4">
		<path class="st8" d="M18.549,52.289h1.428v0.165h-0.603c-0.132,0-0.221,0.042-0.269,0.128c-0.027,0.047-0.04,0.109-0.04,0.186    v4.645c0,0.103,0.015,0.18,0.043,0.23c0.049,0.087,0.146,0.131,0.288,0.131h0.58v0.176h-1.428V52.289z"/>
	</g>
	<g class="st4">
		<path class="st8" d="M21.301,56.203c0,0.272,0.14,0.447,0.419,0.523c0.118,0.032,0.177,0.065,0.177,0.1    c-0.029,0.055-0.176,0.082-0.441,0.082h-0.835c-0.135,0-0.202-0.027-0.202-0.082c0-0.025,0.071-0.064,0.214-0.117    c0.147-0.054,0.22-0.227,0.22-0.52v-1.68c0-0.264-0.071-0.413-0.213-0.447c-0.059-0.008-0.117-0.016-0.176-0.025    c-0.089-0.016-0.134-0.035-0.134-0.059c0-0.024,0.159-0.08,0.476-0.165c0.03-0.008,0.115-0.04,0.257-0.099    c0.127-0.05,0.2-0.075,0.219-0.075c0.026,0.015,0.04,0.036,0.04,0.063c0,0.015-0.003,0.038-0.01,0.071    c-0.007,0.032-0.01,0.057-0.01,0.074V56.203z M20.63,52.729c0.001-0.084,0.036-0.157,0.105-0.22    c0.069-0.063,0.149-0.093,0.241-0.091c0.084,0.002,0.156,0.037,0.217,0.107c0.061,0.07,0.09,0.152,0.088,0.246    c-0.001,0.085-0.036,0.158-0.104,0.217c-0.068,0.061-0.147,0.089-0.236,0.086c-0.083,0-0.156-0.036-0.22-0.105    C20.659,52.898,20.628,52.818,20.63,52.729z"/>
	</g>
	<g class="st4">
		<path class="st8" d="M24.627,56.859c0,0.199-0.045,0.404-0.134,0.615c-0.089,0.212-0.205,0.387-0.346,0.525    c-0.142,0.138-0.284,0.207-0.428,0.207c-0.022,0-0.056-0.004-0.103-0.014c-0.054-0.017-0.081-0.132-0.081-0.346    c0-0.139,0.029-0.207,0.088-0.207c-0.071,0-0.031,0.037,0.12,0.113c0.15,0.076,0.247,0.114,0.287,0.114    c0.1-0.03,0.149-0.218,0.149-0.56V54.51c0-0.263-0.076-0.408-0.227-0.437c-0.064-0.006-0.127-0.012-0.19-0.019    c-0.097-0.013-0.146-0.031-0.146-0.056c0-0.014,0.058-0.036,0.174-0.065c0.078-0.019,0.192-0.047,0.343-0.086    c0.068-0.02,0.163-0.061,0.283-0.125c0.105-0.056,0.168-0.083,0.19-0.083c0.028,0.015,0.042,0.036,0.042,0.063    c0,0.017-0.003,0.041-0.011,0.072c-0.007,0.032-0.011,0.056-0.011,0.073V56.859z M24.011,52.729    c0.001-0.084,0.036-0.157,0.105-0.22s0.149-0.093,0.239-0.091c0.085,0.002,0.158,0.037,0.219,0.107    c0.061,0.07,0.09,0.152,0.088,0.246c-0.001,0.084-0.036,0.156-0.104,0.217c-0.068,0.06-0.146,0.089-0.235,0.086    c-0.083,0-0.156-0.036-0.22-0.105C24.039,52.898,24.008,52.818,24.011,52.729z"/>
	</g>
	<g class="st4">
		<path class="st8" d="M27.373,57.949h-1.432V57.78h0.606c0.203,0,0.305-0.104,0.305-0.311v-4.647c0-0.238-0.109-0.358-0.328-0.358    h-0.583v-0.175h1.432V57.949z"/>
	</g>
	<g class="st4">
		<path class="st8" d="M45.851,53.213l0.049-0.035l0.301,0.385c-0.265,0.174-0.485,0.364-0.66,0.57s-0.31,0.449-0.404,0.728    c0.184-0.097,0.367-0.144,0.549-0.144c0.273,0,0.503,0.098,0.691,0.295c0.187,0.197,0.281,0.439,0.281,0.727    c0,0.295-0.102,0.545-0.306,0.752c-0.204,0.205-0.452,0.309-0.743,0.309c-0.327,0-0.59-0.117-0.792-0.352    c-0.202-0.232-0.302-0.539-0.302-0.916c0-0.283,0.052-0.566,0.155-0.847s0.253-0.544,0.448-0.79    C45.313,53.65,45.557,53.422,45.851,53.213z M45.03,55.385c-0.013,0.078-0.02,0.167-0.02,0.266c0,0.198,0.057,0.361,0.17,0.49    c0.113,0.128,0.259,0.192,0.436,0.192c0.159,0,0.291-0.056,0.394-0.165s0.155-0.248,0.155-0.414c0-0.171-0.055-0.309-0.165-0.414    c-0.11-0.105-0.256-0.158-0.437-0.158c-0.093,0-0.177,0.014-0.252,0.043C45.237,55.254,45.143,55.307,45.03,55.385z"/>
		<path class="st8" d="M49.146,53.184c0.213,0,0.396,0.077,0.546,0.232c0.151,0.154,0.227,0.342,0.227,0.559    s-0.076,0.402-0.228,0.557c-0.152,0.155-0.333,0.232-0.545,0.232c-0.212,0-0.394-0.077-0.546-0.232    c-0.151-0.154-0.227-0.34-0.227-0.557s0.075-0.404,0.226-0.559C48.75,53.261,48.932,53.184,49.146,53.184z M50.904,53.173h0.384    l-2.283,3.626h-0.384L50.904,53.173z M49.14,53.568c-0.111,0-0.206,0.039-0.284,0.119c-0.079,0.08-0.118,0.176-0.118,0.289    c0,0.111,0.04,0.205,0.119,0.285c0.08,0.078,0.174,0.118,0.283,0.118c0.111,0,0.205-0.04,0.284-0.118    c0.078-0.08,0.118-0.174,0.118-0.285c0-0.115-0.039-0.211-0.117-0.291C49.347,53.607,49.252,53.568,49.14,53.568z M50.785,55.22    c0.211,0,0.394,0.077,0.545,0.231c0.152,0.154,0.229,0.34,0.229,0.555c0,0.217-0.075,0.4-0.227,0.551s-0.334,0.227-0.547,0.227    c-0.215,0-0.398-0.076-0.55-0.227s-0.228-0.334-0.228-0.551s0.076-0.402,0.229-0.557C50.389,55.297,50.571,55.22,50.785,55.22z     M50.779,55.604c-0.108,0-0.201,0.04-0.278,0.119s-0.115,0.174-0.115,0.285c0,0.112,0.038,0.209,0.115,0.289    s0.17,0.119,0.278,0.119c0.113,0,0.208-0.039,0.285-0.118c0.078-0.079,0.117-0.176,0.117-0.29c0-0.113-0.039-0.208-0.117-0.286    C50.987,55.643,50.893,55.604,50.779,55.604z"/>
	</g>
	<g>
		<g class="st4">
			<path class="st9" d="M67.551,12.706c0-0.22,0.034-0.427,0.104-0.62c0.07-0.193,0.168-0.362,0.296-0.508     c0.128-0.146,0.28-0.26,0.458-0.342s0.375-0.124,0.592-0.124s0.418,0.042,0.604,0.124s0.344,0.197,0.475,0.342     c0.132,0.146,0.236,0.315,0.313,0.508s0.116,0.399,0.116,0.62c0,0.221-0.039,0.427-0.116,0.62s-0.182,0.362-0.313,0.507     c-0.131,0.146-0.289,0.26-0.475,0.343C69.418,14.258,69.217,14.3,69,14.3s-0.414-0.042-0.592-0.124     c-0.178-0.083-0.33-0.197-0.458-0.343c-0.128-0.146-0.226-0.314-0.296-0.507C67.585,13.133,67.551,12.926,67.551,12.706z      M70.102,22.977c0,0.378,0.006,0.825,0.018,1.34c0.012,0.516,0.027,1.037,0.047,1.564c0.019,0.527,0.042,1.031,0.069,1.511     c0.026,0.48,0.06,0.877,0.099,1.192h-2.378v-6.257c0-0.574-0.002-1.141-0.006-1.7c-0.004-0.559-0.011-1.088-0.022-1.588     c-0.012-0.5-0.029-0.964-0.053-1.393c-0.023-0.429-0.055-0.797-0.093-1.104h2.319V22.977z"/>
		</g>
		<g class="st4">
			<path class="st6" d="M75.898,22.977c0,0.378,0.006,0.823,0.018,1.334c0.012,0.512,0.026,1.031,0.046,1.559     c0.019,0.527,0.042,1.031,0.069,1.511s0.061,0.881,0.1,1.204h-2.379V15.244c0-1.149-0.02-2.19-0.058-3.123     c-0.038-0.933-0.097-1.742-0.174-2.426h2.378V22.977z"/>
			<path class="st6" d="M82.451,22.977c0,0.378,0.006,0.823,0.018,1.334c0.012,0.512,0.027,1.031,0.047,1.559     c0.019,0.527,0.042,1.031,0.069,1.511c0.026,0.48,0.06,0.881,0.099,1.204h-2.378V15.244c0-1.149-0.02-2.19-0.058-3.123     c-0.039-0.933-0.098-1.742-0.174-2.426h2.377V22.977z"/>
		</g>
		<g class="st4">
			<path class="st10" d="M65.57,35.973h0.994v-0.886c0-0.759,0.152-1.328,0.455-1.708c0.304-0.379,0.724-0.569,1.26-0.569     c0.196,0,0.389,0.031,0.577,0.094s0.361,0.149,0.517,0.26l-0.229,0.759c-0.125-0.095-0.265-0.169-0.417-0.223     c-0.153-0.054-0.302-0.081-0.448-0.081c-0.129,0-0.243,0.023-0.342,0.068c-0.1,0.045-0.183,0.119-0.249,0.22     s-0.116,0.232-0.151,0.393s-0.053,0.354-0.053,0.584v1.088h1.342v0.733h-1.342v1.802c0,0.246,0.003,0.49,0.008,0.73     c0.005,0.241,0.014,0.471,0.025,0.688c0.011,0.218,0.027,0.419,0.047,0.604s0.043,0.344,0.069,0.476h-1.069v-4.301H65.57V35.973z     "/>
		</g>
		<g class="st4">
			<path class="st9" d="M69.97,32.5c0-0.118,0.019-0.229,0.056-0.332c0.037-0.103,0.09-0.194,0.158-0.272     c0.068-0.078,0.15-0.139,0.246-0.183c0.096-0.044,0.201-0.066,0.316-0.066c0.116,0,0.225,0.022,0.324,0.066     c0.099,0.044,0.184,0.105,0.254,0.183c0.07,0.078,0.127,0.169,0.168,0.272c0.041,0.104,0.063,0.214,0.063,0.332     c0,0.118-0.021,0.229-0.063,0.332c-0.041,0.104-0.098,0.194-0.168,0.272c-0.07,0.078-0.155,0.139-0.254,0.184     c-0.1,0.044-0.208,0.066-0.324,0.066c-0.115,0-0.221-0.022-0.316-0.066s-0.178-0.105-0.246-0.184     c-0.068-0.078-0.121-0.168-0.158-0.272C69.988,32.729,69.97,32.618,69.97,32.5z M71.337,38.002c0,0.203,0.003,0.442,0.009,0.719     c0.007,0.275,0.016,0.555,0.025,0.838c0.01,0.282,0.022,0.553,0.037,0.81s0.032,0.47,0.053,0.639h-1.273v-3.353     c0-0.307-0.001-0.611-0.004-0.91c-0.002-0.299-0.006-0.583-0.012-0.852c-0.006-0.268-0.016-0.516-0.027-0.746     c-0.014-0.229-0.029-0.426-0.051-0.591h1.243V38.002z"/>
		</g>
		<g class="st4">
			<path class="st6" d="M74.677,38.002c0,0.203,0.003,0.441,0.009,0.715c0.007,0.274,0.016,0.553,0.025,0.836     c0.01,0.281,0.022,0.552,0.037,0.809c0.015,0.258,0.032,0.473,0.053,0.646h-1.273V33.86c0-0.616-0.011-1.173-0.031-1.673     s-0.052-0.933-0.094-1.3h1.274V38.002z"/>
			<path class="st6" d="M78.188,38.002c0,0.203,0.003,0.441,0.01,0.715c0.006,0.274,0.014,0.553,0.024,0.836     c0.011,0.281,0.022,0.552,0.037,0.809c0.015,0.258,0.032,0.473,0.053,0.646h-1.273V33.86c0-0.616-0.011-1.173-0.031-1.673     s-0.052-0.933-0.093-1.3h1.273V38.002z"/>
		</g>
		<g class="st4">
			<path class="st10" d="M81.984,35.744c0.271,0,0.512,0.033,0.721,0.1c0.208,0.065,0.389,0.156,0.541,0.273     c0.152,0.115,0.28,0.252,0.383,0.406c0.103,0.156,0.185,0.322,0.246,0.502c0.062,0.178,0.105,0.365,0.132,0.559     s0.04,0.385,0.04,0.574v0.197c0,0.084-0.002,0.15-0.006,0.197h-3.523c0.01,0.297,0.055,0.555,0.137,0.774     c0.081,0.22,0.191,0.4,0.332,0.544c0.142,0.143,0.307,0.25,0.498,0.321c0.19,0.071,0.398,0.106,0.623,0.106     c0.322,0,0.637-0.037,0.945-0.111c0.308-0.074,0.614-0.206,0.92-0.395l0.099,0.834c-0.176,0.092-0.348,0.169-0.517,0.232     c-0.17,0.064-0.338,0.117-0.508,0.158c-0.168,0.04-0.34,0.069-0.514,0.088s-0.357,0.027-0.549,0.027     c-0.318,0-0.622-0.057-0.91-0.169c-0.289-0.112-0.542-0.28-0.761-0.501s-0.393-0.495-0.522-0.822     c-0.129-0.327-0.193-0.707-0.193-1.139c0-0.418,0.056-0.797,0.166-1.136c0.111-0.339,0.27-0.629,0.475-0.87     c0.206-0.241,0.456-0.427,0.752-0.557C81.284,35.81,81.615,35.744,81.984,35.744z M81.909,36.504     c-0.364,0-0.663,0.108-0.896,0.326c-0.231,0.217-0.384,0.556-0.457,1.015h2.596c0-0.216-0.031-0.407-0.093-0.575     c-0.062-0.166-0.147-0.307-0.259-0.422c-0.11-0.115-0.242-0.201-0.395-0.258C82.254,36.532,82.088,36.504,81.909,36.504z"/>
		</g>
		<g class="st4">
			<path class="st8" d="M85.375,43.02h1.541v0.45h-1.089v0.894c0.034-0.004,0.07-0.006,0.106-0.006c0.337,0,0.613,0.104,0.83,0.313     c0.217,0.209,0.326,0.474,0.326,0.796c0,0.333-0.107,0.603-0.322,0.812c-0.215,0.207-0.492,0.313-0.834,0.313     c-0.281,0-0.555-0.07-0.82-0.208V45.86c0.251,0.165,0.495,0.248,0.734,0.248c0.208,0,0.383-0.062,0.525-0.187     c0.141-0.123,0.212-0.275,0.212-0.456c0-0.187-0.077-0.344-0.231-0.47c-0.153-0.125-0.346-0.188-0.576-0.188     c-0.197,0-0.332,0.017-0.402,0.051V43.02z"/>
			<path class="st8" d="M88.322,44.497h0.029c0.218,0,0.383-0.046,0.496-0.137s0.17-0.224,0.17-0.397     c0-0.156-0.055-0.284-0.164-0.382c-0.111-0.098-0.256-0.146-0.434-0.146c-0.182,0-0.382,0.058-0.602,0.172v-0.483     c0.201-0.103,0.422-0.154,0.66-0.154c0.32,0,0.572,0.086,0.758,0.256c0.184,0.17,0.276,0.402,0.276,0.697     c0,0.179-0.036,0.329-0.106,0.451c-0.071,0.123-0.186,0.227-0.341,0.314c0.136,0.055,0.235,0.121,0.298,0.199     c0.063,0.078,0.112,0.174,0.146,0.285c0.035,0.111,0.053,0.229,0.053,0.354c0,0.31-0.102,0.564-0.303,0.766     c-0.203,0.202-0.457,0.303-0.766,0.303c-0.264,0-0.518-0.064-0.764-0.194v-0.552c0.262,0.167,0.517,0.25,0.764,0.25     c0.167,0,0.302-0.05,0.404-0.15c0.102-0.102,0.152-0.236,0.152-0.402c0-0.141-0.043-0.263-0.127-0.367     c-0.05-0.059-0.105-0.103-0.165-0.131c-0.061-0.027-0.191-0.055-0.392-0.08l-0.045-0.004V44.497z"/>
			<path class="st8" d="M92.264,42.979c0.214,0,0.396,0.078,0.547,0.233s0.227,0.341,0.227,0.56c0,0.215-0.076,0.4-0.228,0.557     c-0.151,0.154-0.333,0.232-0.546,0.232c-0.212,0-0.394-0.078-0.545-0.232c-0.152-0.156-0.228-0.342-0.228-0.557     c0-0.219,0.075-0.404,0.226-0.56C91.868,43.057,92.051,42.979,92.264,42.979z M94.022,42.969h0.384l-2.283,3.625H91.74     L94.022,42.969z M92.258,43.363c-0.111,0-0.205,0.04-0.283,0.12c-0.079,0.079-0.118,0.177-0.118,0.288s0.04,0.207,0.118,0.285     c0.08,0.08,0.174,0.119,0.283,0.119c0.111,0,0.205-0.039,0.283-0.119c0.078-0.078,0.118-0.174,0.118-0.285     c0-0.113-0.039-0.211-0.116-0.289C92.465,43.402,92.37,43.363,92.258,43.363z M93.902,45.016c0.213,0,0.395,0.077,0.547,0.231     s0.229,0.339,0.229,0.556c0,0.215-0.076,0.398-0.228,0.55s-0.334,0.227-0.548,0.227c-0.215,0-0.397-0.075-0.549-0.227     s-0.227-0.335-0.227-0.55c0-0.218,0.076-0.403,0.228-0.557C93.507,45.092,93.689,45.016,93.902,45.016z M93.898,45.4     c-0.109,0-0.202,0.039-0.279,0.118c-0.076,0.079-0.115,0.175-0.115,0.285c0,0.112,0.039,0.209,0.115,0.288     c0.077,0.08,0.17,0.121,0.279,0.121c0.111,0,0.207-0.04,0.285-0.119c0.077-0.079,0.115-0.176,0.115-0.29     c0-0.112-0.038-0.208-0.115-0.286C94.105,45.439,94.01,45.4,93.898,45.4z"/>
		</g>
	</g>
	<g>
		<path class="st11" d="M35.9,32.6c-0.4,1-0.7,1.9-1.1,2.6c-0.4,0.7-0.7,1.2-1.1,1.6c-0.4,0.4-0.8,0.6-1.1,0.8    c-0.4,0.1-0.8,0.2-1.3,0.2s-1-0.1-1.4-0.2c-0.4-0.2-0.8-0.4-1.2-0.7l0.6-1.7c0.1,0.1,0.2,0.2,0.4,0.3c0.2,0.1,0.3,0.2,0.5,0.3    s0.4,0.1,0.5,0.2c0.2,0.1,0.4,0.1,0.5,0.1c0.2,0,0.4,0,0.6-0.1s0.4-0.2,0.6-0.4c0.2-0.2,0.4-0.5,0.6-0.9c0.2-0.4,0.5-0.9,0.7-1.5    l-3-7.6c-0.2-0.5-0.4-1.1-0.7-1.7c-0.3-0.6-0.6-1.4-1-2.2h2.1l3.5,8.9c0.1-0.4,0.3-0.8,0.4-1.3c0.2-0.5,0.3-0.9,0.5-1.4    s0.3-1,0.5-1.5s0.3-1,0.5-1.4c0.4-1.1,0.7-2.2,1.1-3.3H40c-0.2,0.4-0.4,0.8-0.5,1.2c-0.1,0.4-0.3,0.7-0.4,1    c-0.1,0.3-0.2,0.6-0.3,0.9s-0.2,0.5-0.3,0.8L35.9,32.6z"/>
	</g>
	<g class="st4">
		<path class="st10" d="M24.717,41.092h0.716v-1.184h0.662v1.184h1.163v0.528h-1.163v1.676c0,0.187,0.009,0.341,0.027,0.459    c0.018,0.119,0.045,0.212,0.082,0.278c0.037,0.067,0.084,0.113,0.142,0.137c0.057,0.025,0.126,0.037,0.208,0.037    c0.103,0,0.218-0.023,0.347-0.069s0.272-0.114,0.429-0.204v0.583c-0.165,0.108-0.322,0.185-0.472,0.228s-0.289,0.064-0.415,0.064    c-0.141,0-0.272-0.018-0.394-0.05c-0.122-0.032-0.228-0.091-0.32-0.173c-0.092-0.083-0.164-0.193-0.216-0.33    s-0.079-0.312-0.079-0.522V41.62h-0.716V41.092z"/>
		<path class="st10" d="M29.298,44.809c-0.764,0-1.146-0.523-1.146-1.567v-1.075c0-0.115,0-0.222-0.002-0.316    c-0.001-0.095-0.004-0.186-0.009-0.275c-0.005-0.088-0.012-0.179-0.021-0.271c-0.009-0.092-0.022-0.192-0.04-0.302h0.734v2.022    c0,0.206,0.01,0.384,0.03,0.533c0.021,0.149,0.054,0.271,0.102,0.367c0.048,0.097,0.11,0.168,0.188,0.214s0.174,0.069,0.288,0.069    c0.105,0,0.217-0.032,0.336-0.097s0.233-0.146,0.342-0.246s0.208-0.21,0.297-0.329c0.09-0.121,0.158-0.236,0.206-0.349v-1.021    c0-0.118,0-0.226-0.002-0.322c-0.001-0.096-0.004-0.188-0.009-0.274s-0.012-0.177-0.021-0.267c-0.01-0.09-0.023-0.189-0.04-0.302    h0.734v2.077c0,0.354,0.02,0.664,0.059,0.93c0.039,0.267,0.097,0.502,0.173,0.709H30.89c-0.017-0.041-0.035-0.09-0.054-0.146    s-0.038-0.116-0.055-0.179c-0.018-0.063-0.035-0.129-0.05-0.199c-0.016-0.068-0.028-0.137-0.038-0.205    c-0.217,0.27-0.441,0.474-0.671,0.611C29.792,44.738,29.55,44.809,29.298,44.809z"/>
	</g>
	<g class="st4">
		<path class="st12" d="M34.661,44.717c-0.163,0.459-0.322,0.834-0.479,1.123c-0.157,0.291-0.315,0.52-0.477,0.687    c-0.161,0.167-0.329,0.282-0.502,0.345s-0.361,0.093-0.561,0.093c-0.216,0-0.419-0.034-0.608-0.104s-0.371-0.171-0.542-0.302    l0.282-0.765c0.05,0.041,0.109,0.084,0.176,0.127c0.067,0.043,0.139,0.08,0.216,0.114c0.077,0.033,0.156,0.062,0.237,0.083    c0.082,0.023,0.161,0.034,0.24,0.034c0.094,0,0.186-0.017,0.277-0.05c0.091-0.034,0.183-0.098,0.275-0.191    s0.187-0.227,0.284-0.397s0.2-0.394,0.31-0.671l-1.311-3.305c-0.088-0.217-0.189-0.461-0.305-0.731    c-0.116-0.271-0.265-0.593-0.446-0.966h0.939l1.517,3.906c0.06-0.172,0.125-0.359,0.195-0.562s0.144-0.411,0.219-0.626    c0.075-0.216,0.15-0.433,0.225-0.65c0.075-0.219,0.147-0.429,0.216-0.629c0.163-0.473,0.327-0.952,0.493-1.439h0.939    c-0.082,0.185-0.155,0.355-0.221,0.514c-0.066,0.158-0.127,0.307-0.183,0.445c-0.057,0.139-0.107,0.268-0.153,0.389    s-0.087,0.238-0.125,0.35L34.661,44.717z"/>
	</g>
	<g class="st13">
		<path class="st14" d="M39.977,42.786c0,0.459,0.025,0.845,0.075,1.157c0.05,0.312,0.114,0.569,0.193,0.773h-0.626    c-0.012-0.031-0.029-0.075-0.05-0.131c-0.021-0.057-0.043-0.12-0.066-0.191c-0.022-0.072-0.044-0.148-0.064-0.231    c-0.02-0.083-0.037-0.165-0.052-0.247c-0.093,0.121-0.191,0.234-0.295,0.342c-0.104,0.107-0.213,0.201-0.328,0.284    c-0.115,0.083-0.234,0.147-0.358,0.194c-0.124,0.048-0.25,0.072-0.379,0.072c-0.15,0-0.3-0.033-0.449-0.1    c-0.149-0.064-0.283-0.164-0.402-0.295c-0.12-0.131-0.216-0.295-0.29-0.493c-0.074-0.198-0.111-0.431-0.111-0.698    c0-0.279,0.03-0.531,0.091-0.76c0.061-0.227,0.144-0.429,0.249-0.605c0.093-0.156,0.192-0.292,0.297-0.408    c0.105-0.117,0.22-0.213,0.346-0.29c0.125-0.076,0.263-0.134,0.413-0.173s0.317-0.059,0.501-0.059    c0.091,0,0.191,0.007,0.303,0.021c0.111,0.013,0.224,0.032,0.34,0.056c0.116,0.025,0.231,0.055,0.345,0.088    c0.115,0.034,0.221,0.07,0.319,0.109V42.786z M38.527,41.547c-0.076,0-0.153,0.01-0.231,0.027    c-0.077,0.019-0.154,0.05-0.229,0.094c-0.075,0.043-0.148,0.102-0.218,0.173s-0.137,0.162-0.199,0.271    c-0.064,0.112-0.116,0.252-0.155,0.418c-0.04,0.166-0.059,0.337-0.059,0.512c0,0.201,0.018,0.375,0.055,0.52    s0.086,0.264,0.147,0.356c0.061,0.094,0.13,0.162,0.208,0.206c0.078,0.043,0.156,0.065,0.234,0.065c0.1,0,0.209-0.031,0.328-0.095    c0.118-0.063,0.233-0.146,0.345-0.252c0.112-0.104,0.218-0.225,0.317-0.359c0.099-0.137,0.181-0.277,0.245-0.424v-1.365    c-0.036-0.018-0.082-0.034-0.138-0.051c-0.056-0.018-0.118-0.033-0.186-0.048c-0.068-0.015-0.142-0.026-0.222-0.034    C38.689,41.552,38.608,41.547,38.527,41.547z"/>
	</g>
	<g class="st13">
		<path class="st15" d="M42.126,44.809c-0.764,0-1.146-0.523-1.146-1.567v-1.075c0-0.115,0-0.222-0.002-0.316    c-0.001-0.095-0.004-0.186-0.009-0.275c-0.005-0.088-0.012-0.179-0.021-0.271c-0.009-0.092-0.022-0.192-0.04-0.302h0.734v2.022    c0,0.206,0.01,0.384,0.03,0.533c0.021,0.149,0.054,0.271,0.102,0.367c0.048,0.097,0.11,0.168,0.188,0.214s0.174,0.069,0.288,0.069    c0.105,0,0.217-0.032,0.336-0.097s0.233-0.146,0.342-0.246s0.208-0.21,0.297-0.329c0.09-0.121,0.158-0.236,0.206-0.349v-1.021    c0-0.118,0-0.226-0.002-0.322c-0.001-0.096-0.004-0.188-0.009-0.274s-0.012-0.177-0.021-0.267c-0.01-0.09-0.023-0.189-0.04-0.302    h0.734v2.077c0,0.354,0.02,0.664,0.059,0.93c0.039,0.267,0.097,0.502,0.173,0.709h-0.608c-0.017-0.041-0.035-0.09-0.054-0.146    s-0.038-0.116-0.055-0.179c-0.018-0.063-0.035-0.129-0.05-0.199c-0.016-0.068-0.028-0.137-0.038-0.205    c-0.217,0.27-0.441,0.474-0.671,0.611C42.62,44.738,42.378,44.809,42.126,44.809z"/>
	</g>
	<g class="st4">
		<path class="st12" d="M45.466,16.418l1.325,2.257l1.258-2.257h0.771c-0.098,0.144-0.186,0.274-0.262,0.391    c-0.076,0.117-0.146,0.228-0.209,0.333c-0.064,0.104-0.125,0.207-0.185,0.307c-0.059,0.101-0.12,0.206-0.183,0.318l-0.906,1.578    v0.574c0,0.337,0.002,0.635,0.007,0.893c0.004,0.259,0.019,0.456,0.043,0.593h-0.738c0.024-0.137,0.039-0.334,0.043-0.593    c0.004-0.258,0.007-0.556,0.007-0.893v-0.601l-0.889-1.55c-0.065-0.112-0.128-0.221-0.19-0.328    c-0.062-0.107-0.125-0.215-0.193-0.324c-0.067-0.109-0.139-0.221-0.216-0.335c-0.077-0.114-0.163-0.234-0.256-0.362H45.466z"/>
	</g>
	<g class="st4">
		<path class="st12" d="M22.546,20.469c-0.429,0-0.709-0.066-0.838-0.198c-0.134-0.127-0.202-0.389-0.202-0.785v-1.674    c0-0.164-0.038-0.246-0.114-0.246c-0.094,0-0.224,0.23-0.39,0.689c-0.013,0.046-0.028,0.091-0.043,0.137    c-0.016,0.046-0.03,0.089-0.043,0.13c-0.018,0.045-0.035,0.091-0.05,0.137s-0.03,0.089-0.044,0.13    c-0.044,0.118-0.076,0.207-0.094,0.266c-0.018,0.046-0.035,0.09-0.05,0.133s-0.03,0.085-0.043,0.126l-0.101-0.205    c0.121-0.423,0.219-0.74,0.295-0.949c0.107-0.292,0.215-0.508,0.322-0.649c0.125-0.173,0.273-0.26,0.443-0.26    c0.25,0,0.407,0.068,0.47,0.205c0.044,0.091,0.067,0.305,0.067,0.642v1.387c0,0.218,0.025,0.378,0.074,0.478    c0.081,0.141,0.224,0.211,0.43,0.211c0.17,0,0.315-0.061,0.436-0.184c0.09-0.086,0.19-0.234,0.302-0.444v-2.24h0.664v2.951    c0.179-0.25,0.284-0.403,0.315-0.458c0.188-0.273,0.315-0.521,0.383-0.745l0.107,0.205c-0.076,0.228-0.21,0.485-0.402,0.772    c-0.045,0.073-0.079,0.125-0.101,0.157c-0.049,0.064-0.083,0.116-0.101,0.157c-0.085,0.105-0.152,0.205-0.202,0.301v3.436    c0,0.815-0.107,1.469-0.322,1.96c-0.246,0.569-0.626,0.854-1.141,0.854c-0.237,0-0.409-0.134-0.517-0.403    c-0.112-0.278-0.167-0.637-0.167-1.079c0-0.369,0.044-0.763,0.134-1.182c0.067-0.31,0.172-0.679,0.315-1.106    c0.112-0.374,0.266-0.758,0.463-1.154c0-0.005,0.016-0.032,0.047-0.082c0.009-0.037,0.044-0.109,0.107-0.219    c0.022-0.05,0.048-0.104,0.077-0.161c0.029-0.057,0.062-0.117,0.097-0.181c0.036-0.068,0.074-0.143,0.114-0.222    c0.04-0.08,0.083-0.161,0.127-0.243v-1.004c-0.21,0.401-0.485,0.601-0.826,0.601V20.469z M23.372,21.425    c-0.287,0.579-0.448,0.922-0.483,1.032c-0.161,0.337-0.284,0.653-0.369,0.949c-0.009,0.041-0.027,0.103-0.054,0.185    c-0.027,0.073-0.044,0.139-0.053,0.198c-0.014,0.027-0.024,0.058-0.03,0.092c-0.007,0.034-0.015,0.067-0.023,0.099    c-0.009,0.032-0.018,0.066-0.027,0.103c-0.009,0.037-0.016,0.073-0.021,0.109c-0.085,0.423-0.129,0.692-0.134,0.806    c-0.005,0.1-0.008,0.185-0.01,0.252c-0.002,0.068-0.003,0.121-0.003,0.157c0,0.31,0.042,0.569,0.127,0.779    c0.085,0.2,0.212,0.3,0.382,0.3c0.291,0,0.49-0.293,0.598-0.881c0.067-0.378,0.101-0.856,0.101-1.435V21.425z"/>
	</g>
	<path class="st16" d="M15.7,38.1"/>
	<path class="st16" d="M15.7,45.4"/>
	<path class="st16" d="M13.4,46.3"/>
	<path class="st16" d="M13.4,43.6"/>
	<path class="st17" d="M17.8,38.5"/>
	<path class="st17" d="M17.8,45.3"/>
	<path class="st17" d="M13.4,46.3"/>
	<path class="st17" d="M13.4,43.6"/>
	<path class="st18" d="M24.1,32.3l-12.4-0.1c-2-0.1-4.1,0.1-4.1,0.1c-6.5,0.1-7.2,2.6-7.2,3.8s1.1,2.1,1.1,2.1   c2.7,1.7,4.5,0.6,8.8,0.4c4.3-0.2,6.5,0.9,6.6,2.3c0.1,1.4-3.2,2.2-4.3,2.5c-0.9,0.2-4.1,1.1-4.1,1.1C8.2,43.9,8,44,8,44l-1.5,0.6   c0,0-0.1,0.1-0.3,0.6c-0.2,0.4-4.8,2.2-4.8,2.2s-0.4,0.3-0.2,1c0.1,0.6,0.6,0.7,0.7,0.7s0.2,0,0.2,0L7.4,48l0.7,0.4   c0,0,1.3-0.5,1.3-0.6s0.2-0.6,0.2-0.8c2.1-0.9,2.3-0.6,6.3-1.8s3.9-4.3,3.9-4.3c0-4-5.1-4.6-5.1-4.6c-0.5-0.1-1-0.2-1.5-0.2   c0,0-2-0.2-4.4,0.2c-2.4,0.3-3.4,0.4-4.6,0.2c0,0-2.1-0.3,0-0.9c2-0.5,5.5-0.7,7-0.7l13.1,0.2v-2.8H24.1z"/>
	<rect x="21.8" y="32.3" class="st15" width="2.3" height="2.8"/>
	<rect x="21.8" y="32.3" class="st19" width="2.3" height="2.8"/>
	<rect x="19.4" y="32.3" class="st14" width="2.3" height="2.8"/>
	<rect x="19.4" y="32.3" class="st20" width="2.3" height="2.8"/>
	<path class="st21" d="M8,48.2l1.2-0.5c0,0,0.1-0.3,0.1-0.8c0,0-0.1-0.9-0.3-1.4C8.7,44.6,8,44,8,44l-1.6,0.6"/>
	<path class="st21" d="M6.5,44.6c0.2-0.1,0.7-0.1,1.3,1.1c0.6,1,0.3,2.6,0.1,2.5c-0.2-0.1-0.7-0.2-0.6-0.4c0.3-1.9-1.1-2.6-1.1-2.6   l0.2-0.3C6.4,44.9,6.5,44.6,6.5,44.6"/>
	<path class="st21" d="M1.9,48.2C2,48.7,2,49,1.8,49.1s-0.5-0.2-0.6-0.7s-0.1-0.8,0.1-1C1.4,47.3,1.8,47.5,1.9,48.2z"/>
	<path class="st22" d="M24.1,32.3l-12.4-0.1c-2-0.1-4.1,0.1-4.1,0.1c-6.5,0.1-7.2,2.6-7.2,3.8s1.1,2.1,1.1,2.1   c2.7,1.7,4.5,0.6,8.8,0.4c4.3-0.2,6.5,0.9,6.6,2.3c0.1,1.4-3.2,2.2-4.3,2.5c-0.9,0.2-4.1,1.1-4.1,1.1C8.2,43.9,8,44,8,44l-1.5,0.6   c0,0-0.1,0.1-0.3,0.6c-0.2,0.4-4.8,2.2-4.8,2.2s-0.4,0.3-0.2,1c0.1,0.6,0.6,0.7,0.7,0.7s0.2,0,0.2,0L7.4,48l0.7,0.4   c0,0,1.3-0.5,1.3-0.6s0.2-0.6,0.2-0.8c2.1-0.9,2.3-0.6,6.3-1.8s3.9-4.3,3.9-4.3c0-4-5.1-4.6-5.1-4.6c-0.5-0.1-1-0.2-1.5-0.2   c0,0-2-0.2-4.4,0.2c-2.4,0.3-3.4,0.4-4.6,0.2c0,0-2.1-0.3,0-0.9c2-0.5,5.5-0.7,7-0.7l13.1,0.2v-2.8H24.1z"/>
</g>
</svg>