<?xml version="1.0" encoding="UTF-8"?>
<!-- Generator: Adobe Illustrator 24.0.2, SVG Export Plug-In . SVG Version: 6.00 Build 0)  -->
<svg version="1.1" id="Calque_1" xmlns="http://www.w3.org/2000/svg" xmlns:xlink="http://www.w3.org/1999/xlink" x="0px" y="0px" viewBox="0 0 135 53" style="enable-background:new 0 0 135 53;" xml:space="preserve">
<style type="text/css">
	.st0{fill:#FFFFFF;stroke:#DADADA;stroke-width:0.7267;stroke-miterlimit:10;}
	.st1{fill:#FFFFFF;stroke:#9D9D9C;stroke-width:0.545;stroke-miterlimit:10;}
	.st2{fill:#FFFFFF;stroke:#000000;stroke-width:1.0173;stroke-miterlimit:10;}
	.st3{enable-background:new    ;}
	.st4{fill:#E11683;}
	.st5{fill:none;stroke:#B2B2B2;stroke-width:0.3815;stroke-miterlimit:10;}
	.st6{fill:#878787;}
	.st7{fill:#B2B2B2;}
	.st8{fill:#575756;stroke:#575756;stroke-width:0.4272;stroke-miterlimit:10;}
	.st9{fill:#575756;}
	.st10{fill:#7FC7EB;}
	.st11{fill:#7DB728;}
	.st12{fill:#9D9D9C;}
	.st13{fill:#FFFFFF;}
	.st14{fill:none;stroke:#575756;stroke-width:0.183;stroke-linecap:round;stroke-linejoin:round;stroke-miterlimit:10;}
	.st15{fill:none;stroke:#575756;stroke-width:0.5491;stroke-linecap:round;stroke-linejoin:round;stroke-miterlimit:10;}
	.st16{fill:#FFFFFF;stroke:#575756;stroke-width:0.2785;}
</style>
<rect x="96.4" y="21.8" class="st0" width="37.7" height="12.2"/>
<rect x="96.4" y="9.6" class="st0" width="37.7" height="12.2"/>
<rect x="52.1" y="9.6" class="st1" width="44.3" height="41.3"/>
<path class="st2" d="M39.2,40.9H21V9.8h30.8v31.1H43c0,0-2.8,5.2-7.5,6.2C35.5,47.1,38.3,45.2,39.2,40.9z"/>
<g class="st3">
	<path class="st4" d="M91.939,14.082c-0.1-0.057-0.193-0.104-0.278-0.143s-0.167-0.071-0.248-0.096   c-0.08-0.025-0.161-0.044-0.241-0.055s-0.165-0.017-0.254-0.017c-0.113,0-0.215,0.017-0.308,0.051   c-0.093,0.034-0.173,0.079-0.239,0.136c-0.067,0.057-0.119,0.122-0.156,0.195c-0.036,0.073-0.055,0.149-0.055,0.227   c0,0.077,0.012,0.147,0.033,0.21c0.021,0.063,0.064,0.123,0.13,0.179s0.159,0.11,0.28,0.164s0.282,0.11,0.482,0.168   c0.185,0.055,0.348,0.118,0.491,0.191s0.263,0.156,0.36,0.25c0.097,0.094,0.171,0.202,0.221,0.323   c0.051,0.121,0.076,0.257,0.076,0.41c0,0.191-0.037,0.364-0.111,0.52c-0.073,0.156-0.174,0.29-0.303,0.402   c-0.127,0.112-0.276,0.199-0.446,0.261c-0.17,0.061-0.351,0.092-0.541,0.092c-0.134,0-0.266-0.009-0.394-0.028   s-0.248-0.045-0.361-0.079c-0.113-0.034-0.217-0.074-0.313-0.121c-0.096-0.046-0.178-0.098-0.25-0.154l0.127-0.58   c0.187,0.164,0.379,0.283,0.578,0.356c0.199,0.074,0.403,0.11,0.612,0.11c0.112,0,0.221-0.016,0.325-0.048s0.197-0.079,0.277-0.14   s0.145-0.137,0.193-0.227c0.049-0.089,0.072-0.192,0.072-0.307c0-0.073-0.011-0.144-0.034-0.211   c-0.023-0.067-0.071-0.132-0.142-0.196c-0.071-0.064-0.173-0.128-0.306-0.191c-0.132-0.063-0.308-0.127-0.526-0.194   c-0.219-0.066-0.397-0.139-0.535-0.218c-0.139-0.079-0.247-0.166-0.325-0.259c-0.079-0.093-0.132-0.193-0.161-0.3   s-0.043-0.22-0.043-0.341c0-0.121,0.023-0.248,0.074-0.382c0.049-0.134,0.127-0.258,0.233-0.371   c0.106-0.113,0.243-0.208,0.409-0.282c0.166-0.075,0.366-0.112,0.6-0.112c0.108,0,0.209,0.004,0.305,0.014   c0.094,0.009,0.186,0.024,0.273,0.045c0.09,0.021,0.177,0.047,0.263,0.08s0.175,0.071,0.267,0.116L91.939,14.082z"/>
</g>
<g class="st3">
	<path class="st4" d="M57.857,13.498l-0.762,2.061l-0.12-0.219l0.859-2.355l0.314,0.113c-0.005,0.015-0.013,0.048-0.022,0.098   c-0.005,0.03-0.008,0.078-0.008,0.144c0,0.156,0.045,0.327,0.135,0.513c0.109,0.231,0.227,0.42,0.351,0.566   c0.284,0.373,0.448,0.599,0.493,0.68c0.05,0.101,0.085,0.206,0.104,0.317c0.02,0.171,0.03,0.317,0.03,0.438   c0.229,0,0.388-0.176,0.478-0.528l0.12,0.234c-0.01,0.09-0.077,0.204-0.202,0.339c-0.145,0.146-0.282,0.219-0.411,0.219   c-0.085,0.277-0.179,0.46-0.284,0.551c-0.159,0.111-0.428,0.166-0.807,0.166c-0.399,0-0.598-0.176-0.598-0.528   c0-0.262,0.12-0.413,0.359-0.453c0.015,0,0.03,0,0.045,0c0.015,0,0.03,0,0.045,0c0.015,0,0.03,0,0.044,0c0.015,0,0.03,0,0.045,0   c0.015,0,0.03,0,0.045,0c0.015,0,0.03,0,0.045,0c0.01,0,0.021,0,0.034,0c0.012,0,0.026,0,0.041,0c0.1,0,0.207,0.008,0.321,0.023   c0-0.015,0-0.028,0-0.038c0-0.005-0.001-0.012-0.004-0.019c-0.002-0.008-0.003-0.016-0.003-0.026c0-0.005,0-0.011,0-0.019   c0-0.007,0-0.016,0-0.026c0-0.005,0-0.013,0-0.022c0-0.01,0-0.02,0-0.03c0-0.02-0.018-0.116-0.052-0.287   c-0.214-0.367-0.366-0.684-0.456-0.951C57.917,14.134,57.857,13.815,57.857,13.498z M57.76,16.336c0,0.151,0.112,0.227,0.336,0.227   c0.304,0,0.456-0.156,0.456-0.468c-0.025,0-0.077-0.007-0.157-0.022c-0.07-0.015-0.16-0.023-0.269-0.023   c-0.244,0-0.366,0.098-0.366,0.294V16.336z"/>
</g>
<path class="st5" d="M35.5,38.6c0,0,4.9,2.1,11.7,0"/>
<path class="st5" d="M25.2,38.6c0,0,4.1,1.5,9.4,0"/>
<g class="st3">
	<path class="st6" d="M23.211,43.625h1.432v0.164h-0.604c-0.132,0-0.222,0.042-0.269,0.127c-0.026,0.047-0.04,0.109-0.04,0.185v4.62   c0,0.102,0.015,0.178,0.043,0.228c0.05,0.087,0.146,0.131,0.289,0.131h0.582v0.175h-1.432V43.625z"/>
	<path class="st6" d="M26.109,45.381c-0.134,0-0.225,0.066-0.272,0.199c-0.022,0.064-0.051,0.096-0.088,0.096   c-0.018,0-0.026-0.012-0.026-0.033c0-0.033,0.025-0.141,0.076-0.322c0.06-0.208,0.093-0.328,0.1-0.359   c0-0.021,0.018-0.033,0.055-0.033c0.014,0,0.034,0.002,0.061,0.007c0.027,0.005,0.048,0.007,0.063,0.007h1.7   c0.124,0,0.192,0.009,0.205,0.026c0,0.028-0.021,0.071-0.063,0.128l-0.038,0.052l-1.796,2.438   c-0.045,0.063-0.068,0.107-0.068,0.138c0.009,0.031,0.075,0.047,0.198,0.047h1.123c0.103,0,0.193-0.099,0.271-0.297   c0.032-0.085,0.055-0.128,0.07-0.128c0.035,0.008,0.053,0.025,0.053,0.055c0,0.039-0.038,0.164-0.113,0.377   c-0.049,0.135-0.093,0.264-0.131,0.386c-0.004,0.014-0.023,0.021-0.055,0.021c-0.019,0-0.046-0.002-0.083-0.007   c-0.036-0.005-0.063-0.007-0.081-0.007h-1.571c-0.115,0-0.176-0.012-0.184-0.035c0-0.057,0.021-0.111,0.062-0.164   c0.107-0.145,0.294-0.396,0.561-0.756l1.282-1.717c0.009-0.018,0.014-0.037,0.014-0.056c0-0.041-0.052-0.062-0.156-0.062H26.109z"/>
	<path class="st6" d="M30.274,49.254h-1.435v-0.168h0.608c0.204,0,0.305-0.104,0.305-0.309v-4.623c0-0.236-0.109-0.355-0.329-0.355   h-0.584v-0.174h1.435V49.254z"/>
</g>
<g class="st3">
	<path class="st6" d="M43.861,45.598c0-0.274,0.102-0.508,0.306-0.699c0.205-0.193,0.454-0.289,0.75-0.289   c0.291,0,0.536,0.096,0.736,0.285c0.2,0.191,0.3,0.426,0.3,0.703c0,0.313-0.145,0.572-0.434,0.777   c0.322,0.188,0.483,0.465,0.483,0.83c0,0.291-0.104,0.531-0.314,0.721c-0.209,0.189-0.473,0.284-0.792,0.284   c-0.315,0-0.581-0.097-0.794-0.29c-0.214-0.194-0.321-0.434-0.321-0.719c0-0.357,0.164-0.633,0.493-0.826   c-0.148-0.121-0.254-0.241-0.318-0.361C43.893,45.895,43.861,45.756,43.861,45.598z M45.5,47.227v-0.051   c0-0.16-0.057-0.292-0.17-0.394s-0.261-0.151-0.442-0.151c-0.178,0-0.323,0.051-0.435,0.152c-0.112,0.103-0.168,0.235-0.168,0.398   c0,0.162,0.057,0.295,0.172,0.396c0.115,0.104,0.263,0.154,0.446,0.154c0.174,0,0.318-0.047,0.43-0.141   C45.444,47.498,45.5,47.376,45.5,47.227z M45.458,45.613c0-0.152-0.052-0.277-0.156-0.377c-0.104-0.1-0.235-0.148-0.395-0.148   c-0.161,0-0.293,0.049-0.396,0.146c-0.103,0.097-0.154,0.222-0.154,0.375c0,0.145,0.054,0.27,0.163,0.374s0.24,0.156,0.393,0.156   c0.151,0,0.28-0.052,0.386-0.155C45.404,45.882,45.458,45.758,45.458,45.613z"/>
</g>
<g class="st3">
	<path class="st6" d="M48.083,44.615c0.214,0,0.396,0.076,0.548,0.23c0.151,0.154,0.227,0.34,0.227,0.557   c0,0.215-0.076,0.399-0.228,0.554c-0.152,0.154-0.334,0.231-0.546,0.231c-0.213,0-0.395-0.077-0.547-0.231   s-0.228-0.339-0.228-0.554c0-0.217,0.076-0.402,0.227-0.557C47.686,44.691,47.868,44.615,48.083,44.615z M49.844,44.605h0.385   l-2.288,3.604h-0.385L49.844,44.605z M48.076,44.997c-0.111,0-0.206,0.04-0.284,0.119s-0.118,0.175-0.118,0.288   c0,0.109,0.04,0.204,0.119,0.283c0.08,0.078,0.174,0.117,0.283,0.117c0.111,0,0.206-0.039,0.284-0.117   c0.079-0.079,0.118-0.174,0.118-0.283c0-0.114-0.039-0.211-0.117-0.289C48.284,45.037,48.188,44.997,48.076,44.997z M49.725,46.641   c0.212,0,0.395,0.076,0.547,0.23c0.153,0.152,0.229,0.337,0.229,0.552c0,0.214-0.076,0.397-0.228,0.547   c-0.152,0.15-0.334,0.226-0.548,0.226c-0.216,0-0.399-0.075-0.551-0.226c-0.152-0.149-0.228-0.333-0.228-0.547   c0-0.216,0.076-0.401,0.229-0.554C49.328,46.717,49.511,46.641,49.725,46.641z M49.72,47.022c-0.109,0-0.203,0.04-0.279,0.118   c-0.077,0.078-0.116,0.173-0.116,0.283c0,0.112,0.039,0.208,0.116,0.287c0.077,0.08,0.17,0.119,0.279,0.119   c0.112,0,0.208-0.039,0.285-0.117c0.078-0.079,0.117-0.176,0.117-0.289c0-0.111-0.039-0.207-0.117-0.285   C49.928,47.062,49.833,47.022,49.72,47.022z"/>
</g>
<g class="st3">
	<path class="st6" d="M85.371,47.646l-0.307-0.364c0.258-0.164,0.482-0.363,0.676-0.598c0.191-0.234,0.32-0.475,0.385-0.721   c-0.157,0.099-0.342,0.148-0.555,0.148c-0.266,0-0.494-0.1-0.684-0.3c-0.19-0.2-0.285-0.439-0.285-0.72   c0-0.291,0.102-0.539,0.304-0.742s0.45-0.305,0.742-0.305c0.329,0,0.598,0.121,0.808,0.36c0.209,0.239,0.313,0.548,0.313,0.923   c0,0.426-0.132,0.857-0.394,1.293C86.112,47.056,85.777,47.397,85.371,47.646z M86.223,45.462c0.02-0.134,0.03-0.222,0.03-0.262   c0-0.203-0.056-0.369-0.169-0.498c-0.111-0.13-0.256-0.194-0.432-0.194c-0.161,0-0.295,0.056-0.4,0.166   c-0.105,0.109-0.157,0.247-0.157,0.413c0,0.153,0.058,0.284,0.172,0.396c0.114,0.11,0.251,0.166,0.411,0.166   C85.863,45.648,86.045,45.586,86.223,45.462z"/>
	<path class="st6" d="M87.999,44.091h0.498v3.515h-0.498V44.091z"/>
</g>
<g class="st3">
	<path class="st6" d="M91.457,44.051c0.214,0,0.396,0.076,0.548,0.23s0.227,0.34,0.227,0.557c0,0.215-0.075,0.399-0.228,0.554   s-0.334,0.231-0.547,0.231s-0.395-0.077-0.547-0.231s-0.229-0.339-0.229-0.554c0-0.217,0.076-0.402,0.227-0.557   C91.061,44.127,91.242,44.051,91.457,44.051z M93.219,44.041h0.385l-2.287,3.604h-0.385L93.219,44.041z M91.451,44.433   c-0.111,0-0.206,0.04-0.285,0.119c-0.078,0.079-0.117,0.175-0.117,0.288c0,0.109,0.039,0.204,0.119,0.283   c0.079,0.078,0.174,0.117,0.283,0.117c0.11,0,0.205-0.039,0.283-0.117c0.079-0.079,0.119-0.174,0.119-0.283   c0-0.114-0.039-0.211-0.117-0.289S91.563,44.433,91.451,44.433z M93.1,46.076c0.212,0,0.395,0.076,0.547,0.23   c0.152,0.152,0.229,0.337,0.229,0.552c0,0.214-0.075,0.397-0.227,0.547c-0.152,0.15-0.335,0.226-0.549,0.226   c-0.216,0-0.399-0.075-0.551-0.226c-0.152-0.149-0.228-0.333-0.228-0.547c0-0.216,0.076-0.401,0.229-0.554   C92.703,46.152,92.886,46.076,93.1,46.076z M93.095,46.458c-0.109,0-0.202,0.04-0.279,0.118s-0.116,0.173-0.116,0.283   c0,0.112,0.039,0.208,0.116,0.287c0.077,0.08,0.17,0.119,0.279,0.119c0.112,0,0.208-0.039,0.285-0.117   c0.078-0.079,0.116-0.176,0.116-0.289c0-0.111-0.038-0.207-0.116-0.285C93.303,46.497,93.207,46.458,93.095,46.458z"/>
</g>
<g>
	<g class="st3">
		<path class="st4" d="M74.627,15.551c0.561,0,1.088,0.037,1.58,0.11c0.494,0.073,0.945,0.17,1.355,0.291s0.785,0.257,1.129,0.409    c0.342,0.152,0.648,0.301,0.918,0.448l-0.545,2.752c-0.26-0.157-0.555-0.323-0.887-0.496c-0.333-0.173-0.693-0.333-1.082-0.479    c-0.39-0.146-0.805-0.27-1.246-0.37s-0.9-0.149-1.377-0.149c-0.572,0-1.052,0.063-1.441,0.189    c-0.389,0.125-0.699,0.286-0.934,0.479c-0.233,0.194-0.402,0.414-0.506,0.66c-0.104,0.247-0.155,0.485-0.155,0.716    c0,0.272,0.041,0.514,0.124,0.723c0.083,0.21,0.258,0.404,0.521,0.582c0.266,0.178,0.641,0.351,1.129,0.519    c0.488,0.168,1.142,0.346,1.961,0.535c0.706,0.157,1.371,0.359,1.993,0.605c0.622,0.247,1.167,0.559,1.635,0.936    c0.467,0.377,0.835,0.831,1.104,1.36c0.271,0.529,0.405,1.161,0.405,1.895c0,0.713-0.155,1.373-0.467,1.98    c-0.312,0.609-0.737,1.141-1.276,1.597c-0.54,0.456-1.174,0.813-1.899,1.069c-0.727,0.257-1.511,0.385-2.351,0.385    c-0.633,0-1.243-0.047-1.829-0.141c-0.587-0.095-1.137-0.227-1.65-0.394s-0.983-0.362-1.409-0.581    c-0.426-0.221-0.793-0.451-1.105-0.692l0.779-2.831c0.352,0.314,0.749,0.604,1.19,0.865c0.44,0.262,0.896,0.487,1.362,0.676    c0.467,0.189,0.937,0.334,1.408,0.433c0.473,0.101,0.916,0.149,1.332,0.149c0.456,0,0.874-0.061,1.253-0.181    c0.378-0.12,0.706-0.278,0.98-0.472s0.491-0.42,0.646-0.676c0.156-0.258,0.234-0.521,0.234-0.795c0-0.293-0.061-0.568-0.18-0.825    s-0.337-0.503-0.653-0.739c-0.317-0.236-0.753-0.464-1.308-0.684c-0.556-0.22-1.27-0.44-2.141-0.661    c-0.944-0.23-1.715-0.503-2.313-0.818c-0.596-0.314-1.063-0.66-1.4-1.038c-0.338-0.377-0.568-0.786-0.693-1.227    c-0.124-0.44-0.186-0.907-0.186-1.399c0-0.241,0.038-0.524,0.116-0.849c0.077-0.325,0.208-0.663,0.39-1.014    c0.181-0.351,0.42-0.697,0.715-1.038c0.297-0.34,0.668-0.645,1.113-0.912c0.447-0.267,0.971-0.485,1.572-0.652    C73.144,15.635,73.839,15.551,74.627,15.551z"/>
	</g>
	<g class="st3">
		<path class="st7" d="M63.286,39.885c0-0.261-0.002-0.502-0.006-0.724c-0.004-0.223-0.013-0.427-0.027-0.612    c-0.014-0.186-0.035-0.354-0.063-0.506c-0.027-0.15-0.065-0.285-0.112-0.402h0.747c0.03,0.072,0.061,0.176,0.091,0.309    s0.055,0.295,0.075,0.488c0.097-0.129,0.203-0.248,0.318-0.356c0.115-0.108,0.236-0.202,0.365-0.278    c0.128-0.077,0.264-0.137,0.407-0.181s0.291-0.065,0.446-0.065c0.235,0,0.45,0.053,0.646,0.158    c0.195,0.104,0.361,0.251,0.498,0.439c0.137,0.189,0.244,0.412,0.32,0.671s0.114,0.542,0.114,0.85c0,0.357-0.05,0.681-0.15,0.971    c-0.1,0.289-0.234,0.536-0.404,0.739c-0.17,0.205-0.371,0.361-0.6,0.473c-0.229,0.11-0.475,0.166-0.735,0.166    c-0.111,0-0.215-0.012-0.313-0.034s-0.194-0.054-0.286-0.093c-0.093-0.039-0.185-0.087-0.276-0.145    c-0.091-0.057-0.187-0.121-0.286-0.19v0.985c0,0.168,0.002,0.319,0.006,0.455c0.004,0.136,0.011,0.261,0.019,0.375    c0.008,0.115,0.019,0.221,0.033,0.316c0.014,0.097,0.029,0.189,0.045,0.279h-0.872V39.885z M65.216,41.331    c0.147,0,0.287-0.035,0.421-0.104c0.134-0.07,0.253-0.172,0.357-0.305c0.104-0.133,0.187-0.293,0.249-0.482    c0.063-0.188,0.094-0.401,0.094-0.639c0-0.232-0.021-0.443-0.064-0.631c-0.043-0.189-0.106-0.35-0.189-0.482    s-0.183-0.236-0.301-0.309s-0.251-0.109-0.401-0.109c-0.119,0-0.241,0.027-0.365,0.08s-0.246,0.131-0.363,0.234    s-0.228,0.232-0.33,0.389c-0.102,0.154-0.192,0.333-0.27,0.534v1.321c0.141,0.1,0.264,0.184,0.367,0.249    c0.104,0.065,0.199,0.118,0.284,0.155c0.086,0.037,0.168,0.063,0.247,0.078C65.031,41.324,65.119,41.331,65.216,41.331z"/>
		<path class="st7" d="M68.143,41.918V39.34c0-0.414-0.023-0.765-0.068-1.051c-0.046-0.287-0.092-0.503-0.139-0.648h0.747    c0.033,0.078,0.063,0.178,0.09,0.296s0.049,0.251,0.066,0.396c0.018,0.146,0.031,0.301,0.039,0.467    c0.009,0.164,0.013,0.33,0.013,0.498v0.273c0.142-0.395,0.28-0.721,0.415-0.979c0.136-0.259,0.271-0.465,0.404-0.618    c0.135-0.154,0.27-0.262,0.405-0.323s0.274-0.093,0.415-0.093c0.105,0,0.202,0.01,0.291,0.029c0.088,0.02,0.178,0.053,0.27,0.097    l-0.125,0.776c-0.08-0.034-0.15-0.057-0.211-0.067s-0.136-0.017-0.225-0.017c-0.113,0-0.232,0.048-0.357,0.145    c-0.124,0.096-0.246,0.225-0.367,0.383c-0.12,0.16-0.234,0.34-0.342,0.541c-0.108,0.201-0.203,0.408-0.285,0.619    c-0.081,0.211-0.146,0.417-0.195,0.619c-0.048,0.201-0.072,0.379-0.072,0.536c0,0.069,0.001,0.134,0.002,0.192    c0.002,0.059,0.006,0.115,0.013,0.17s0.017,0.109,0.027,0.164s0.024,0.112,0.042,0.174H68.143z"/>
		<path class="st7" d="M71.838,36.277c0-0.078,0.012-0.15,0.037-0.219c0.024-0.069,0.061-0.129,0.105-0.182    c0.046-0.051,0.1-0.092,0.164-0.121c0.063-0.029,0.135-0.044,0.212-0.044s0.149,0.015,0.216,0.044s0.123,0.07,0.17,0.121    c0.047,0.053,0.084,0.112,0.112,0.182c0.027,0.068,0.042,0.141,0.042,0.219c0,0.079-0.015,0.152-0.042,0.221    c-0.028,0.068-0.065,0.129-0.112,0.181s-0.104,0.092-0.17,0.122c-0.066,0.029-0.139,0.043-0.216,0.043s-0.148-0.014-0.212-0.043    c-0.064-0.03-0.118-0.07-0.164-0.122c-0.045-0.052-0.081-0.112-0.105-0.181C71.85,36.43,71.838,36.356,71.838,36.277z     M72.75,39.926c0,0.135,0.002,0.293,0.007,0.477c0.004,0.184,0.01,0.368,0.017,0.555c0.007,0.188,0.016,0.367,0.025,0.537    c0.01,0.171,0.021,0.313,0.035,0.424h-0.852v-2.223c0-0.203,0-0.405-0.002-0.604c-0.002-0.199-0.004-0.387-0.008-0.564    s-0.011-0.342-0.02-0.494c-0.008-0.152-0.02-0.283-0.033-0.393h0.83V39.926z"/>
	</g>
	<g class="st3">
		<path class="st4" d="M76.113,36.248c0.195,0,0.377,0.014,0.549,0.039c0.17,0.025,0.326,0.059,0.469,0.101s0.273,0.089,0.392,0.142    s0.225,0.104,0.318,0.155l-0.188,0.954c-0.09-0.055-0.193-0.111-0.309-0.172c-0.115-0.06-0.24-0.115-0.375-0.166    s-0.278-0.094-0.432-0.128c-0.152-0.034-0.313-0.052-0.477-0.052c-0.199,0-0.365,0.021-0.5,0.064    c-0.135,0.045-0.242,0.1-0.324,0.167c-0.08,0.067-0.139,0.144-0.175,0.229c-0.036,0.085-0.054,0.168-0.054,0.248    c0,0.094,0.014,0.178,0.043,0.25s0.089,0.141,0.181,0.201c0.092,0.063,0.222,0.123,0.392,0.181c0.169,0.058,0.396,0.12,0.68,0.185    c0.244,0.055,0.475,0.125,0.691,0.211c0.215,0.085,0.404,0.193,0.566,0.324s0.289,0.288,0.383,0.471    c0.094,0.184,0.141,0.403,0.141,0.658c0,0.246-0.055,0.476-0.162,0.686c-0.107,0.211-0.256,0.396-0.443,0.554    c-0.187,0.158-0.406,0.282-0.658,0.371s-0.523,0.134-0.814,0.134c-0.22,0-0.431-0.017-0.635-0.049    c-0.203-0.033-0.393-0.079-0.571-0.137c-0.179-0.059-0.341-0.125-0.488-0.202c-0.147-0.076-0.275-0.155-0.384-0.239l0.27-0.981    c0.123,0.108,0.261,0.209,0.414,0.3c0.152,0.091,0.31,0.169,0.472,0.234s0.325,0.115,0.488,0.15    c0.163,0.034,0.317,0.051,0.462,0.051c0.158,0,0.303-0.021,0.434-0.063c0.132-0.041,0.245-0.096,0.34-0.163    c0.096-0.067,0.17-0.146,0.225-0.235c0.055-0.088,0.081-0.18,0.081-0.274c0-0.103-0.021-0.197-0.062-0.286    c-0.042-0.09-0.117-0.175-0.228-0.256c-0.109-0.082-0.261-0.162-0.453-0.238s-0.44-0.152-0.742-0.229    c-0.327-0.08-0.595-0.174-0.802-0.283s-0.368-0.229-0.485-0.359c-0.116-0.131-0.196-0.273-0.24-0.426    c-0.043-0.152-0.064-0.314-0.064-0.485c0-0.083,0.013-0.182,0.04-0.294c0.027-0.113,0.072-0.23,0.135-0.352    c0.063-0.122,0.146-0.242,0.248-0.359c0.104-0.119,0.232-0.225,0.387-0.316c0.154-0.094,0.336-0.168,0.545-0.227    S75.84,36.248,76.113,36.248z"/>
	</g>
	<g class="st3">
		<path class="st7" d="M78.777,39.801c0-0.361,0.055-0.68,0.162-0.959c0.107-0.277,0.254-0.513,0.436-0.704    c0.184-0.191,0.396-0.336,0.64-0.435c0.243-0.098,0.503-0.146,0.776-0.146c0.285,0,0.546,0.049,0.783,0.146    c0.236,0.099,0.439,0.243,0.609,0.435s0.303,0.427,0.396,0.704c0.094,0.279,0.142,0.598,0.142,0.959    c0,0.36-0.054,0.679-0.162,0.955c-0.108,0.277-0.253,0.51-0.437,0.697c-0.182,0.187-0.395,0.328-0.639,0.425    s-0.502,0.146-0.776,0.146c-0.285,0-0.546-0.049-0.782-0.146s-0.44-0.238-0.61-0.425c-0.171-0.188-0.303-0.42-0.396-0.697    C78.824,40.479,78.777,40.161,78.777,39.801z M79.546,39.801c0,0.242,0.028,0.461,0.087,0.654    c0.059,0.192,0.141,0.355,0.247,0.488s0.233,0.234,0.38,0.304s0.311,0.104,0.49,0.104c0.166,0,0.322-0.035,0.469-0.104    s0.274-0.171,0.384-0.304s0.195-0.296,0.257-0.488c0.063-0.193,0.094-0.412,0.094-0.654c0-0.246-0.029-0.467-0.087-0.66    c-0.058-0.195-0.141-0.359-0.247-0.496c-0.106-0.135-0.234-0.238-0.382-0.31s-0.311-0.106-0.487-0.106    c-0.17,0-0.327,0.035-0.474,0.106c-0.147,0.071-0.274,0.175-0.382,0.31c-0.107,0.137-0.193,0.301-0.256,0.496    C79.576,39.334,79.546,39.555,79.546,39.801z"/>
		<path class="st7" d="M86.101,37.557c0.442,0,0.782,0.146,1.017,0.438c0.236,0.292,0.354,0.726,0.354,1.302v2.621h-0.768v-2.307    c0-0.262-0.018-0.479-0.053-0.649s-0.086-0.306-0.153-0.405c-0.067-0.099-0.153-0.168-0.257-0.207    c-0.104-0.039-0.227-0.059-0.368-0.059c-0.149,0-0.296,0.035-0.438,0.107c-0.143,0.07-0.272,0.162-0.392,0.275    s-0.224,0.242-0.315,0.385s-0.159,0.285-0.203,0.428v2.432h-0.769V39.34c0-0.414-0.022-0.765-0.068-1.051    c-0.046-0.287-0.092-0.503-0.14-0.648h0.748c0.017,0.045,0.033,0.104,0.05,0.174c0.017,0.072,0.032,0.146,0.046,0.225    s0.025,0.155,0.037,0.23l0.033,0.189c0.263-0.319,0.528-0.549,0.797-0.69S85.807,37.557,86.101,37.557z"/>
	</g>
</g>
<g>
	<path class="st8" d="M41.9,15.7V17l-8.3,11h6c0.4,0,0.8,0,1.3,0c0.4,0,0.8-0.1,1.3-0.2v2.3H30.4v-1.6l8-10.7H33c-0.4,0-0.8,0-1.2,0   c-0.4,0-0.7,0.1-1,0.2v-2.3H41.9z"/>
</g>
<g class="st3">
	<path class="st9" d="M29.84,32.783v0.447l-2.775,3.65h2.005c0.137,0,0.276-0.003,0.417-0.01c0.142-0.006,0.282-0.025,0.422-0.061   v0.777h-3.918V37.07l2.682-3.581h-1.819c-0.14,0-0.273,0.003-0.401,0.009c-0.128,0.007-0.235,0.027-0.322,0.063v-0.777H29.84z"/>
</g>
<g class="st3">
	<path class="st7" d="M32.5,33.668c0.204,0,0.384,0.025,0.541,0.074s0.292,0.116,0.407,0.203c0.114,0.086,0.21,0.188,0.287,0.303   c0.077,0.116,0.139,0.24,0.185,0.373c0.046,0.134,0.079,0.272,0.099,0.417s0.03,0.287,0.03,0.428v0.147   c0,0.063-0.001,0.111-0.004,0.146h-2.645c0.007,0.221,0.042,0.414,0.103,0.576c0.061,0.164,0.144,0.299,0.25,0.406   c0.105,0.106,0.23,0.186,0.373,0.238s0.299,0.08,0.468,0.08c0.241,0,0.478-0.027,0.709-0.083s0.461-0.153,0.69-0.294l0.075,0.621   c-0.132,0.068-0.261,0.126-0.388,0.174c-0.127,0.048-0.254,0.087-0.381,0.117c-0.127,0.029-0.255,0.052-0.386,0.066   c-0.13,0.014-0.268,0.02-0.412,0.02c-0.239,0-0.466-0.041-0.683-0.126c-0.216-0.084-0.406-0.208-0.571-0.373   c-0.164-0.165-0.294-0.368-0.392-0.612s-0.146-0.526-0.146-0.848c0-0.313,0.042-0.594,0.125-0.847s0.202-0.468,0.356-0.647   s0.342-0.318,0.563-0.415C31.975,33.717,32.223,33.668,32.5,33.668z M31.88,31.558l1.306,1.62h-0.597l-1.567-1.62H31.88z    M32.443,34.233c-0.273,0-0.498,0.081-0.671,0.243c-0.174,0.162-0.289,0.414-0.343,0.756h1.948c0-0.16-0.023-0.304-0.069-0.428   c-0.046-0.125-0.11-0.229-0.194-0.314c-0.083-0.086-0.182-0.15-0.297-0.192C32.702,34.255,32.578,34.233,32.443,34.233z"/>
</g>
<g class="st3">
	<path class="st7" d="M35.647,37.343v-4.458c0-0.161-0.002-0.322-0.005-0.484c-0.004-0.162-0.01-0.316-0.017-0.464   s-0.019-0.273-0.034-0.379h0.747v2.921c0.087-0.115,0.182-0.223,0.283-0.32c0.102-0.098,0.212-0.184,0.331-0.256   c0.118-0.073,0.246-0.131,0.382-0.172s0.284-0.063,0.44-0.063c0.189,0,0.362,0.047,0.519,0.14s0.292,0.224,0.407,0.39   c0.114,0.168,0.203,0.367,0.267,0.598c0.063,0.231,0.095,0.484,0.095,0.758c0,0.324-0.043,0.617-0.129,0.878   c-0.085,0.262-0.207,0.485-0.364,0.671s-0.346,0.329-0.569,0.43s-0.472,0.15-0.748,0.15c-0.152,0-0.298-0.01-0.44-0.031   c-0.142-0.021-0.279-0.049-0.412-0.083c-0.133-0.034-0.262-0.07-0.386-0.109S35.767,37.381,35.647,37.343z M37.251,37.098   c0.164,0,0.316-0.033,0.455-0.102s0.259-0.163,0.36-0.286c0.101-0.124,0.18-0.272,0.237-0.446c0.057-0.176,0.086-0.368,0.086-0.579   c0-0.208-0.019-0.397-0.056-0.565c-0.038-0.168-0.091-0.311-0.162-0.428c-0.071-0.117-0.159-0.207-0.263-0.27   s-0.224-0.094-0.358-0.094c-0.117,0-0.234,0.025-0.351,0.077c-0.117,0.052-0.229,0.124-0.334,0.216   c-0.106,0.094-0.205,0.205-0.297,0.334c-0.092,0.13-0.169,0.272-0.231,0.428v1.508c0.092,0.037,0.176,0.07,0.252,0.096   c0.076,0.027,0.149,0.049,0.222,0.064c0.072,0.017,0.144,0.028,0.215,0.035C37.097,37.094,37.172,37.098,37.251,37.098z"/>
	<path class="st7" d="M39.994,37.588V35.27c0-0.371-0.021-0.686-0.062-0.943s-0.083-0.451-0.125-0.582h0.672   c0.03,0.07,0.057,0.158,0.08,0.266c0.023,0.106,0.043,0.225,0.06,0.355s0.028,0.271,0.036,0.418   c0.007,0.148,0.011,0.299,0.011,0.449v0.245c0.127-0.354,0.251-0.647,0.373-0.88s0.243-0.418,0.364-0.557   c0.121-0.138,0.242-0.234,0.364-0.29s0.246-0.083,0.373-0.083c0.095,0,0.182,0.01,0.261,0.027s0.161,0.046,0.243,0.086   l-0.112,0.697c-0.072-0.03-0.136-0.051-0.19-0.061s-0.122-0.015-0.202-0.015c-0.102,0-0.209,0.043-0.321,0.13   s-0.222,0.201-0.33,0.345c-0.108,0.144-0.211,0.306-0.308,0.486c-0.097,0.181-0.182,0.366-0.255,0.556s-0.132,0.375-0.175,0.557   c-0.043,0.18-0.065,0.342-0.065,0.482c0,0.063,0,0.12,0.002,0.173c0.001,0.053,0.005,0.104,0.011,0.153   c0.006,0.049,0.014,0.098,0.024,0.146c0.01,0.049,0.022,0.102,0.037,0.156H39.994z"/>
	<path class="st7" d="M44.882,33.668c0.204,0,0.384,0.025,0.541,0.074s0.292,0.116,0.407,0.203c0.114,0.086,0.21,0.188,0.287,0.303   c0.077,0.116,0.139,0.24,0.185,0.373c0.046,0.134,0.079,0.272,0.099,0.417s0.03,0.287,0.03,0.428v0.147   c0,0.063-0.001,0.111-0.004,0.146h-2.645c0.007,0.221,0.042,0.414,0.103,0.576c0.061,0.164,0.144,0.299,0.25,0.406   c0.105,0.106,0.23,0.186,0.373,0.238s0.299,0.08,0.468,0.08c0.241,0,0.478-0.027,0.709-0.083s0.461-0.153,0.69-0.294l0.075,0.621   c-0.132,0.068-0.261,0.126-0.388,0.174c-0.127,0.048-0.254,0.087-0.381,0.117c-0.127,0.029-0.255,0.052-0.386,0.066   c-0.13,0.014-0.268,0.02-0.412,0.02c-0.239,0-0.466-0.041-0.683-0.126c-0.216-0.084-0.406-0.208-0.571-0.373   c-0.164-0.165-0.294-0.368-0.392-0.612s-0.146-0.526-0.146-0.848c0-0.313,0.042-0.594,0.125-0.847s0.202-0.468,0.356-0.647   s0.342-0.318,0.563-0.415C44.357,33.717,44.605,33.668,44.882,33.668z M44.826,34.233c-0.273,0-0.498,0.081-0.671,0.243   c-0.174,0.162-0.289,0.414-0.343,0.756h1.948c0-0.16-0.023-0.304-0.069-0.428c-0.046-0.125-0.11-0.229-0.194-0.314   c-0.083-0.086-0.182-0.15-0.297-0.192C45.084,34.255,44.96,34.233,44.826,34.233z"/>
</g>
<g class="st3">
	<path class="st9" d="M48.704,12.855l-2.781,4.116h1.364c0.343,0,0.647-0.005,0.913-0.016c0.266-0.01,0.469-0.029,0.608-0.055v0.654   h-3.708v-0.442l2.781-4.134h-1.189c-0.173,0-0.328,0-0.467,0.002c-0.139,0.001-0.264,0.004-0.376,0.01   c-0.112,0.006-0.212,0.014-0.301,0.023c-0.088,0.01-0.168,0.021-0.238,0.036v-0.654h3.393V12.855z"/>
</g>
<g class="st3">
	<path class="st9" d="M26.283,13.083c-0.173,0.07-0.403,0.123-0.693,0.155c-0.293,0.047-0.557,0.071-0.791,0.071   c-0.009,0-0.016,0-0.021,0c-0.004,0-0.009,0-0.014,0c-0.005,0-0.011,0-0.018,0s-0.012,0-0.014,0s-0.006,0-0.01,0   c-0.005,0-0.008,0-0.011,0s-0.006,0-0.01,0c-0.005,0-0.009,0-0.014,0s-0.009,0-0.014,0c-0.004,0-0.008,0-0.01,0s-0.007,0-0.014,0   c-0.007,0-0.013,0-0.018,0c-0.004,0-0.008,0-0.01,0s-0.005,0-0.007,0c-0.002,0-0.186,0.521-0.549,1.562l-0.105-0.212l0.476-1.399   c-0.14-0.033-0.235-0.101-0.287-0.205c-0.065-0.094-0.098-0.209-0.098-0.346l0.014-0.127c0.046-0.212,0.205-0.318,0.476-0.318   c0.177,0,0.266,0.089,0.266,0.269c0,0.108-0.035,0.264-0.105,0.466c0.284,0,0.658-0.031,1.119-0.092   c0.579-0.066,0.928-0.16,1.049-0.283l-1.602,2.855c0.369-0.165,0.681-0.248,0.938-0.248c0.051,0,0.128,0.01,0.231,0.028   c0.154,0.038,0.266,0.09,0.336,0.156c0.051,0.099,0.093,0.203,0.126,0.311c0.014-0.028,0.03-0.056,0.049-0.084   s0.035-0.057,0.049-0.085c0.023-0.038,0.054-0.085,0.091-0.141c0.028-0.057,0.049-0.094,0.063-0.113   c0.004-0.009,0.021-0.035,0.049-0.078c0.126-0.24,0.212-0.434,0.259-0.58l0.112,0.219c-0.046,0.155-0.151,0.386-0.315,0.692   c-0.093,0.155-0.145,0.248-0.154,0.275c-0.014,0.024-0.028,0.047-0.042,0.071c-0.014,0.024-0.028,0.045-0.042,0.063   c-0.019,0.038-0.042,0.081-0.07,0.127c0,0.608-0.065,1.373-0.196,2.297c-0.122,0.796-0.282,1.552-0.483,2.268   c-0.182,0.603-0.359,1.053-0.532,1.35c-0.308,0.485-0.695,0.728-1.161,0.728c-0.149,0-0.266-0.108-0.35-0.325   c-0.083-0.221-0.125-0.49-0.125-0.805c0-0.222,0.021-0.434,0.063-0.636c0.079-0.372,0.175-0.718,0.287-1.039   c0.061-0.184,0.117-0.337,0.168-0.459c0.079-0.198,0.149-0.356,0.21-0.474c0.209-0.457,0.419-0.86,0.629-1.208   c0.028-0.052,0.075-0.134,0.14-0.247c0.046-0.085,0.103-0.177,0.168-0.276c0.046-0.084,0.109-0.186,0.188-0.304   c0.028-0.057,0.061-0.112,0.098-0.166c0.037-0.054,0.075-0.109,0.112-0.166c0.019-0.132,0.028-0.259,0.028-0.382   c0-0.184-0.031-0.332-0.091-0.445c-0.065-0.146-0.172-0.219-0.322-0.219c-0.145,0-0.317,0.057-0.518,0.169   c-0.219,0.113-0.359,0.226-0.42,0.339c-0.061-0.057-0.105-0.134-0.133-0.233L26.283,13.083z M24.961,19.372   c-0.056,0.108-0.101,0.209-0.133,0.304c-0.07,0.179-0.131,0.358-0.182,0.537c-0.056,0.17-0.112,0.363-0.168,0.58   c-0.084,0.368-0.126,0.669-0.126,0.905c0,0.202,0.028,0.372,0.084,0.509c0.056,0.127,0.147,0.191,0.273,0.191   c0.177,0,0.369-0.245,0.574-0.735c0.126-0.339,0.238-0.707,0.336-1.102c0.247-1.103,0.417-2.217,0.511-3.343   c-0.131,0.188-0.257,0.386-0.378,0.594c-0.122,0.207-0.238,0.419-0.35,0.636c-0.201,0.377-0.35,0.686-0.448,0.926H24.961z    M24.618,12.666c0-0.009,0-0.017,0-0.021c0-0.004,0-0.009,0-0.014c0-0.004,0-0.008,0-0.01s0-0.006,0-0.011s0-0.008,0-0.011   s0-0.004,0-0.007s0-0.014,0-0.036c0-0.021-0.017-0.036-0.049-0.046c-0.089,0-0.14,0.033-0.154,0.099   c-0.009,0.085-0.014,0.123-0.014,0.113c0,0.113,0.046,0.186,0.14,0.219L24.618,12.666z"/>
</g>
<g class="st3">
	<path class="st7" d="M105.843,28.734c0,0.422,0.023,0.777,0.071,1.064c0.047,0.287,0.107,0.525,0.178,0.713h-0.598   c-0.024-0.059-0.055-0.145-0.088-0.26c-0.035-0.115-0.066-0.235-0.096-0.361c-0.158,0.229-0.34,0.402-0.541,0.523   s-0.425,0.182-0.67,0.182c-0.204,0-0.388-0.039-0.551-0.115c-0.162-0.078-0.302-0.188-0.418-0.33   c-0.116-0.141-0.205-0.313-0.268-0.513c-0.062-0.2-0.093-0.423-0.093-0.669c0-0.297,0.04-0.566,0.121-0.805   c0.081-0.24,0.192-0.443,0.334-0.613c0.142-0.168,0.308-0.299,0.5-0.391c0.191-0.092,0.399-0.137,0.622-0.137   c0.071,0,0.145,0.008,0.221,0.023c0.077,0.016,0.153,0.037,0.23,0.063c0.076,0.026,0.15,0.058,0.224,0.092   c0.073,0.035,0.142,0.07,0.206,0.106v-0.94c0-0.271-0.006-0.507-0.019-0.709c-0.013-0.202-0.034-0.374-0.065-0.515h0.698V28.734z    M104.348,27.594c-0.126,0-0.246,0.028-0.361,0.086c-0.115,0.059-0.218,0.143-0.308,0.252c-0.089,0.109-0.161,0.244-0.214,0.401   s-0.08,0.336-0.08,0.535c0,0.392,0.066,0.688,0.197,0.889c0.133,0.201,0.344,0.302,0.633,0.302c0.102,0,0.203-0.025,0.305-0.077   c0.1-0.052,0.195-0.118,0.285-0.201s0.171-0.177,0.244-0.283s0.133-0.216,0.18-0.327v-1.325c-0.082-0.044-0.158-0.083-0.229-0.114   s-0.141-0.057-0.209-0.076c-0.069-0.021-0.139-0.036-0.21-0.046C104.51,27.598,104.432,27.594,104.348,27.594z"/>
	<path class="st7" d="M106.889,26c0-0.063,0.01-0.121,0.029-0.176c0.021-0.055,0.049-0.103,0.086-0.145   c0.036-0.041,0.08-0.074,0.131-0.097s0.107-0.035,0.169-0.035s0.12,0.012,0.173,0.035s0.099,0.056,0.137,0.097   c0.037,0.042,0.066,0.09,0.09,0.145c0.021,0.055,0.033,0.113,0.033,0.176c0,0.063-0.012,0.122-0.033,0.176   c-0.023,0.055-0.053,0.103-0.09,0.145c-0.038,0.041-0.084,0.074-0.137,0.097s-0.111,0.035-0.173,0.035s-0.118-0.012-0.169-0.035   s-0.095-0.056-0.131-0.097c-0.037-0.042-0.065-0.09-0.086-0.145C106.898,26.121,106.889,26.063,106.889,26z M107.619,28.918   c0,0.107,0.002,0.234,0.006,0.381c0.003,0.146,0.008,0.295,0.013,0.445c0.005,0.149,0.013,0.293,0.021,0.429   c0.008,0.137,0.017,0.249,0.027,0.339h-0.681v-1.777c0-0.164-0.001-0.324-0.001-0.484c-0.002-0.158-0.004-0.309-0.008-0.451   c-0.003-0.141-0.008-0.273-0.014-0.395c-0.008-0.123-0.016-0.227-0.027-0.314h0.664V28.918z"/>
</g>
<g class="st3">
	<path class="st10" d="M110.488,28.936l-1.084,1.576h-0.934c0.113-0.15,0.209-0.277,0.287-0.379   c0.076-0.103,0.146-0.194,0.205-0.275c0.059-0.081,0.115-0.158,0.166-0.23s0.108-0.155,0.172-0.248l0.739-1.081l-0.655-0.931   c-0.07-0.098-0.134-0.187-0.191-0.265c-0.059-0.078-0.119-0.158-0.184-0.239c-0.063-0.081-0.135-0.171-0.213-0.271   c-0.079-0.099-0.174-0.219-0.285-0.359h0.955l1.08,1.514l1.017-1.514h0.935c-0.108,0.14-0.199,0.26-0.274,0.359   s-0.143,0.19-0.204,0.272c-0.061,0.083-0.117,0.163-0.172,0.242c-0.054,0.078-0.113,0.164-0.18,0.26l-0.678,1.006l0.719,1.006   c0.074,0.107,0.14,0.197,0.195,0.271c0.055,0.074,0.113,0.15,0.174,0.229s0.128,0.166,0.201,0.264   c0.074,0.098,0.167,0.221,0.28,0.369h-0.954L110.488,28.936z"/>
</g>
<g class="st3">
	<path class="st7" d="M113.232,26c0-0.063,0.011-0.121,0.03-0.176c0.021-0.055,0.048-0.103,0.085-0.145   c0.037-0.041,0.08-0.074,0.131-0.097s0.107-0.035,0.17-0.035c0.062,0,0.119,0.012,0.172,0.035c0.054,0.023,0.1,0.056,0.137,0.097   c0.037,0.042,0.067,0.09,0.09,0.145c0.021,0.055,0.033,0.113,0.033,0.176c0,0.063-0.012,0.122-0.033,0.176   c-0.022,0.055-0.053,0.103-0.09,0.145c-0.037,0.041-0.083,0.074-0.137,0.097c-0.053,0.023-0.11,0.035-0.172,0.035   c-0.063,0-0.119-0.012-0.17-0.035s-0.094-0.056-0.131-0.097c-0.037-0.042-0.064-0.09-0.085-0.145   C113.243,26.121,113.232,26.063,113.232,26z M113.964,28.918c0,0.107,0.001,0.234,0.005,0.381s0.008,0.295,0.014,0.445   c0.005,0.149,0.012,0.293,0.02,0.429c0.008,0.137,0.018,0.249,0.028,0.339h-0.681v-1.777c0-0.164-0.001-0.324-0.002-0.484   c-0.001-0.158-0.004-0.309-0.007-0.451c-0.003-0.141-0.009-0.273-0.015-0.395c-0.007-0.123-0.016-0.227-0.027-0.314h0.665V28.918z"/>
	<path class="st7" d="M116.504,27.023c0.182,0,0.342,0.021,0.482,0.064c0.139,0.044,0.26,0.104,0.361,0.182s0.188,0.167,0.256,0.27   c0.068,0.104,0.123,0.214,0.164,0.332c0.041,0.119,0.07,0.242,0.088,0.371s0.027,0.256,0.027,0.381v0.131   c0,0.057-0.002,0.1-0.004,0.131h-2.354c0.007,0.197,0.037,0.367,0.091,0.514c0.055,0.145,0.129,0.266,0.223,0.36   c0.095,0.095,0.205,0.166,0.332,0.213c0.128,0.047,0.268,0.07,0.418,0.07c0.215,0,0.425-0.024,0.631-0.073   c0.205-0.05,0.41-0.137,0.614-0.262l0.066,0.553c-0.118,0.061-0.233,0.112-0.346,0.154c-0.112,0.043-0.226,0.078-0.339,0.104   s-0.227,0.046-0.344,0.059c-0.116,0.013-0.238,0.019-0.367,0.019c-0.212,0-0.414-0.037-0.607-0.112   c-0.192-0.075-0.361-0.187-0.508-0.333c-0.146-0.146-0.263-0.328-0.35-0.545c-0.086-0.217-0.129-0.468-0.129-0.754   c0-0.277,0.037-0.529,0.111-0.754s0.18-0.416,0.317-0.576s0.304-0.283,0.501-0.369S116.259,27.023,116.504,27.023z M115.953,25.145   l1.162,1.442h-0.531l-1.395-1.442H115.953z M116.455,27.525c-0.244,0-0.443,0.072-0.598,0.217   c-0.156,0.145-0.258,0.369-0.307,0.673h1.734c0-0.144-0.021-0.271-0.063-0.381c-0.04-0.11-0.098-0.204-0.172-0.28   s-0.162-0.133-0.264-0.171C116.685,27.545,116.574,27.525,116.455,27.525z"/>
	<path class="st7" d="M121.37,30.512h-0.614V28.6c0-0.208-0.008-0.377-0.023-0.505s-0.041-0.229-0.078-0.302   s-0.086-0.121-0.148-0.146c-0.062-0.024-0.139-0.037-0.232-0.037c-0.082,0-0.164,0.018-0.245,0.051   c-0.082,0.033-0.16,0.081-0.234,0.143s-0.143,0.135-0.206,0.219c-0.063,0.084-0.117,0.176-0.16,0.276v2.214h-0.615v-2.063   c0-0.332-0.019-0.611-0.057-0.841c-0.037-0.229-0.074-0.401-0.109-0.519h0.598c0.024,0.072,0.045,0.156,0.063,0.254   c0.018,0.097,0.032,0.186,0.043,0.266c0.103-0.118,0.199-0.215,0.292-0.291c0.094-0.076,0.186-0.137,0.277-0.18   s0.184-0.074,0.274-0.091s0.184-0.024,0.278-0.024c0.109,0,0.207,0.016,0.296,0.047s0.167,0.072,0.234,0.123   c0.067,0.053,0.126,0.111,0.175,0.18s0.086,0.14,0.112,0.213c0.104-0.113,0.205-0.207,0.302-0.279   c0.098-0.072,0.193-0.13,0.286-0.172c0.093-0.041,0.185-0.07,0.274-0.087s0.178-0.024,0.264-0.024c0.168,0,0.311,0.027,0.426,0.082   c0.114,0.055,0.207,0.135,0.277,0.242c0.068,0.107,0.119,0.241,0.148,0.4c0.03,0.158,0.045,0.342,0.045,0.55v2.214h-0.614v-1.846   c0-0.217-0.008-0.393-0.022-0.529c-0.016-0.137-0.042-0.244-0.078-0.322c-0.037-0.078-0.086-0.132-0.148-0.16   c-0.063-0.029-0.14-0.045-0.232-0.045c-0.082,0-0.162,0.017-0.242,0.049c-0.08,0.033-0.156,0.078-0.23,0.138   s-0.144,0.132-0.207,0.217c-0.063,0.085-0.119,0.18-0.167,0.285V30.512z"/>
	<path class="st7" d="M125.736,27.023c0.182,0,0.342,0.021,0.482,0.064c0.139,0.044,0.26,0.104,0.361,0.182s0.188,0.167,0.256,0.27   c0.068,0.104,0.123,0.214,0.164,0.332c0.041,0.119,0.07,0.242,0.088,0.371s0.027,0.256,0.027,0.381v0.131   c0,0.057-0.002,0.1-0.004,0.131h-2.354c0.007,0.197,0.037,0.367,0.091,0.514c0.055,0.145,0.129,0.266,0.223,0.36   c0.095,0.095,0.205,0.166,0.332,0.213c0.128,0.047,0.268,0.07,0.418,0.07c0.215,0,0.425-0.024,0.631-0.073   c0.205-0.05,0.41-0.137,0.614-0.262l0.066,0.553c-0.118,0.061-0.233,0.112-0.346,0.154c-0.112,0.043-0.226,0.078-0.339,0.104   s-0.227,0.046-0.344,0.059c-0.116,0.013-0.238,0.019-0.367,0.019c-0.212,0-0.414-0.037-0.607-0.112   c-0.192-0.075-0.361-0.187-0.508-0.333c-0.146-0.146-0.263-0.328-0.35-0.545c-0.086-0.217-0.129-0.468-0.129-0.754   c0-0.277,0.037-0.529,0.111-0.754s0.18-0.416,0.317-0.576s0.304-0.283,0.501-0.369S125.491,27.023,125.736,27.023z M125.688,27.525   c-0.244,0-0.443,0.072-0.598,0.217c-0.156,0.145-0.258,0.369-0.307,0.673h1.734c0-0.144-0.021-0.271-0.063-0.381   c-0.04-0.11-0.098-0.204-0.172-0.28s-0.162-0.133-0.264-0.171C125.917,27.545,125.807,27.525,125.688,27.525z"/>
</g>
<g class="st3">
	<path class="st7" d="M104.491,16.311c0-0.208-0.001-0.401-0.005-0.579s-0.011-0.341-0.021-0.49   c-0.012-0.149-0.027-0.284-0.05-0.404s-0.052-0.228-0.09-0.322h0.598c0.024,0.058,0.049,0.141,0.073,0.247   c0.024,0.106,0.045,0.237,0.061,0.391c0.076-0.103,0.162-0.198,0.254-0.285c0.092-0.087,0.189-0.162,0.291-0.223   c0.104-0.062,0.212-0.11,0.326-0.145c0.113-0.035,0.232-0.052,0.357-0.052c0.188,0,0.359,0.042,0.516,0.126   c0.156,0.083,0.289,0.201,0.398,0.352s0.195,0.33,0.256,0.537c0.061,0.207,0.092,0.434,0.092,0.679c0,0.287-0.04,0.545-0.119,0.777   c-0.08,0.231-0.188,0.429-0.324,0.592c-0.137,0.164-0.297,0.289-0.48,0.377s-0.379,0.133-0.588,0.133   c-0.088,0-0.172-0.009-0.25-0.027c-0.079-0.018-0.155-0.042-0.229-0.074s-0.147-0.07-0.221-0.116s-0.149-0.097-0.229-0.153v0.789   c0,0.134,0.002,0.255,0.006,0.364c0.003,0.108,0.008,0.208,0.014,0.3c0.008,0.092,0.016,0.176,0.027,0.253   c0.011,0.077,0.023,0.151,0.037,0.223h-0.698V16.311z M106.035,17.468c0.117,0,0.23-0.028,0.338-0.084   c0.107-0.056,0.202-0.137,0.285-0.243c0.083-0.106,0.149-0.235,0.199-0.386s0.074-0.321,0.074-0.512   c0-0.186-0.017-0.354-0.051-0.504c-0.034-0.151-0.084-0.28-0.15-0.386c-0.067-0.106-0.147-0.188-0.242-0.247   c-0.094-0.058-0.2-0.087-0.32-0.087c-0.095,0-0.191,0.021-0.291,0.063c-0.101,0.042-0.197,0.105-0.291,0.188   c-0.094,0.083-0.183,0.186-0.264,0.311c-0.082,0.124-0.154,0.267-0.217,0.428v1.057c0.113,0.081,0.211,0.147,0.294,0.2   c0.083,0.052,0.159,0.094,0.228,0.124s0.135,0.051,0.197,0.062C105.888,17.462,105.958,17.468,106.035,17.468z"/>
</g>
<g class="st3">
	<path class="st10" d="M109.416,18.021c-0.709,0-1.063-0.481-1.063-1.442v-0.99c0-0.107-0.001-0.205-0.001-0.292   c-0.002-0.087-0.004-0.171-0.009-0.253c-0.005-0.082-0.011-0.165-0.021-0.25c-0.008-0.085-0.021-0.178-0.036-0.279h0.681v1.862   c0,0.19,0.01,0.354,0.028,0.492c0.019,0.137,0.05,0.25,0.095,0.339s0.103,0.154,0.174,0.196c0.072,0.042,0.162,0.063,0.268,0.063   c0.098,0,0.201-0.029,0.313-0.089c0.111-0.059,0.217-0.135,0.317-0.227c0.101-0.091,0.192-0.193,0.275-0.303   c0.083-0.111,0.147-0.218,0.19-0.321v-0.939c0-0.11,0-0.208-0.001-0.297s-0.004-0.173-0.009-0.253   c-0.004-0.081-0.011-0.162-0.02-0.245c-0.009-0.083-0.021-0.176-0.037-0.279h0.682v1.912c0,0.327,0.018,0.612,0.055,0.857   c0.037,0.245,0.09,0.462,0.161,0.652h-0.565c-0.015-0.038-0.031-0.083-0.049-0.134c-0.018-0.051-0.035-0.106-0.052-0.164   c-0.017-0.059-0.032-0.119-0.046-0.183c-0.016-0.063-0.027-0.127-0.035-0.189c-0.201,0.248-0.409,0.436-0.623,0.563   S109.65,18.021,109.416,18.021z"/>
</g>
<g class="st3">
	<path class="st11" d="M115.658,13.66v0.398l-2.47,3.25h1.785c0.122,0,0.245-0.003,0.372-0.008c0.125-0.006,0.25-0.024,0.375-0.055   v0.692h-3.486v-0.461l2.387-3.187h-1.619c-0.125,0-0.244,0.002-0.357,0.008c-0.113,0.005-0.209,0.023-0.286,0.054V13.66H115.658z"/>
</g>
<g class="st3">
	<path class="st12" d="M120.015,13.66v0.398l-2.47,3.25h1.785c0.121,0,0.245-0.003,0.371-0.008c0.126-0.006,0.251-0.024,0.375-0.055   v0.692h-3.486v-0.461l2.387-3.187h-1.619c-0.125,0-0.243,0.002-0.357,0.008c-0.113,0.005-0.209,0.023-0.285,0.054V13.66H120.015z"/>
</g>
<g class="st3">
	<path class="st7" d="M121.656,16.344c0,0.107,0.002,0.233,0.005,0.379s0.008,0.293,0.013,0.443c0.006,0.15,0.013,0.293,0.021,0.429   c0.008,0.137,0.017,0.25,0.028,0.342h-0.682v-3.791c0-0.327-0.005-0.623-0.016-0.888c-0.012-0.265-0.027-0.495-0.051-0.689h0.682   V16.344z"/>
	<path class="st7" d="M124.197,14.449c0.182,0,0.342,0.022,0.48,0.065c0.141,0.043,0.261,0.104,0.363,0.181   c0.102,0.077,0.187,0.167,0.255,0.27c0.069,0.103,0.124,0.213,0.165,0.332s0.07,0.242,0.088,0.371   c0.018,0.129,0.026,0.256,0.026,0.381v0.131c0,0.056-0.001,0.1-0.003,0.131h-2.355c0.007,0.197,0.037,0.368,0.092,0.513   s0.128,0.266,0.223,0.361c0.094,0.095,0.205,0.166,0.332,0.213s0.266,0.07,0.416,0.07c0.215,0,0.426-0.024,0.631-0.074   c0.207-0.049,0.411-0.136,0.615-0.262l0.066,0.554c-0.117,0.06-0.232,0.112-0.346,0.154s-0.226,0.077-0.339,0.104   c-0.112,0.027-0.228,0.046-0.344,0.059s-0.238,0.019-0.366,0.019c-0.213,0-0.416-0.038-0.608-0.112   c-0.192-0.075-0.362-0.186-0.508-0.333c-0.146-0.146-0.263-0.328-0.349-0.545s-0.13-0.468-0.13-0.755   c0-0.277,0.037-0.528,0.111-0.753s0.18-0.417,0.317-0.577c0.137-0.16,0.305-0.283,0.502-0.369   C123.729,14.492,123.951,14.449,124.197,14.449z M124.146,14.952c-0.243,0-0.442,0.072-0.598,0.217   c-0.154,0.144-0.256,0.368-0.305,0.672h1.732c0-0.143-0.02-0.27-0.061-0.381c-0.041-0.11-0.099-0.204-0.173-0.28   c-0.074-0.076-0.162-0.133-0.265-0.171C124.377,14.971,124.267,14.952,124.146,14.952z"/>
</g>
<g>
	<path class="st13" d="M14.6,37l2.9,4.7c0,0-0.6,0.9,0.3,1L17.5,44c0,0,1.1,0.3,1.5,0c0,0,0-0.9-0.4-1.4c0,0-0.9-3.8-1.5-4.8   c0,0-0.9-1.2,0.4-3.1c0,0,2.3-4.4,2.6-6.7c0,0,2.1,0.7,2.9,0.5c0,0,0.4,1,1.4,0.9c0,0,1.4-0.2,1.3-1.2c0,0,0.2-0.8-0.7-1.2   c0,0-1-0.2-2.7-3.9c0,0-0.4-0.8-0.7-0.8c0,0,1.3-1.3,0.7-2.7c0,0-1.1,0.7-1.4,1.4c0,0-1.8-0.2-2.2,0.1c0,0-0.6-1.7-1.7-1.9   c0,0-0.5,1.2,0.5,2.4c0,0-2,1.5-3,4.5c0,0-1.1,2.1-1.4,2.3c0,0,0.3,0.4-1.6-0.3c0,0-1.9-0.6-3.7-0.5c0,0-4.3,0.2-5.2,2.6   c0,0-1.7,2.9-1.8,5.1c0,0-0.6,1.6-0.4,2.5l0.4-0.7L1,37.6c0,0-0.1-1.2,0-2c0,0,0.7-3.9,1.6-3.9c0,0,0.1,2.1,0.7,3.2   c0,0,0.7,1.2,0,2.3c0,0-1.4,1.4-0.3,3.1c0,0,0.4,0.9,0,1.5c0,0-0.2,0.2-0.1,0.4c0,0,0.6,0.3,0.5,0.8l-0.3,0.8c0,0,0.5,0.6,1.7,0.2   L4,41.5c0,0-0.7-1.5,0.4-2.8c0,0,1.9-2.5,1.9-2.8c0,0,0.6,0.8,0.3,1.3c0,0-0.3,0.2,0.3,1.4l0.8,2.2c0,0,0.3,0.7,0.1,1.1   c0,0-0.2,0.2,0.2,0.5c0,0,0.3,0.1,0.2,0.4L8,43.6c0,0,1,0.4,1.4,0.1l-1-4c0,0-0.9-1.7,0.9-3.5c0,0,1.7,0,2.3-0.1l0.8,4.8   c0,0,0.1,0.9-0.2,1.4c0,0,0.7,0.6,0.4,1.1c0,0-0.7,0.7,0.1,0.7c0,0,0.5,0.2,1.2,0C14,44.4,12.8,38.6,14.6,37z"/>
	<path class="st14" d="M18.7,42.5c0,0-0.3,0.1-0.8,0.2"/>
	<path class="st14" d="M13.8,43.2c0,0-0.3,0.1-1,0.1"/>
	<path class="st14" d="M9.3,43c0,0-0.4,0.1-0.9,0"/>
	<path class="st14" d="M4.6,43.2c0,0-0.7,0.1-1,0"/>
	<path class="st14" d="M9.4,36.5c0,0-2-0.1-2.8-0.6"/>
	<path class="st14" d="M6.4,36.3c0,0,0.3-0.5,0.4-0.7"/>
	<path class="st14" d="M24.6,26.8c0,0-2.4-0.2-1.9,1.7"/>
	<path class="st14" d="M22.9,27.9h0.5c0,0-0.4,0.2-0.2,0.8"/>
	<path class="st9" d="M24.4,28.1c0,0-0.3,0-0.3,0.5h0.3C24.4,28.6,24.2,28.4,24.4,28.1z"/>
	<path class="st14" d="M21,21.1c0,0,0.6,0.2,0.8,0.3l-0.3,0.8"/>
	<path class="st14" d="M21.7,22.3c0,0-1.9-1-2.9-0.1c0,0,0-0.6,0-1"/>
	<path class="st14" d="M17.5,20.2c0,0-0.1,0.8,0.7,1.5c0,0,0.2-0.3,0.3,0C18.5,21.7,18.4,20.5,17.5,20.2z"/>
	<path class="st9" d="M20.5,25.2c0,0.2,0.1,0.4,0.3,0.4c0.2,0,0.3-0.2,0.3-0.4c0-0.2-0.1-0.4-0.3-0.4C20.7,24.8,20.5,25,20.5,25.2z"/>
	<path class="st14" d="M17.5,21.5c0,0,0.4,0.7,0.9,1c0,0-1,0.1-1.3,2.4c0,0-1.5,2.7-3.9,3.8"/>
	<path class="st14" d="M19,27.1c0,0,0.5,0.5,1.4,0.9"/>
	<line class="st14" x1="21.4" y1="21.2" x2="21.2" y2="22"/>
	<line class="st14" x1="21.1" y1="21.1" x2="20.9" y2="22"/>
	<line class="st14" x1="20.8" y1="21.1" x2="20.7" y2="21.9"/>
	<line class="st14" x1="20.5" y1="21" x2="20.5" y2="21.8"/>
	<line class="st14" x1="20.3" y1="21" x2="20.2" y2="21.8"/>
	<line class="st14" x1="20.1" y1="21" x2="20" y2="21.8"/>
	<line class="st14" x1="19.8" y1="21" x2="19.8" y2="21.8"/>
	<line class="st14" x1="19.5" y1="21" x2="19.5" y2="21.8"/>
	<line class="st14" x1="19.2" y1="21.1" x2="19.3" y2="21.9"/>
	<line class="st14" x1="17.3" y1="22" x2="17.9" y2="22.8"/>
	<line class="st14" x1="17.2" y1="22.2" x2="17.7" y2="22.9"/>
	<line class="st14" x1="16.9" y1="22.4" x2="17.5" y2="23.2"/>
	<line class="st14" x1="16.8" y1="22.5" x2="17.4" y2="23.3"/>
	<line class="st14" x1="16.6" y1="22.8" x2="17.3" y2="23.6"/>
	<line class="st14" x1="16.4" y1="23" x2="17.3" y2="23.8"/>
	<line class="st14" x1="16.3" y1="23.2" x2="17.2" y2="24.1"/>
	<line class="st14" x1="16.1" y1="23.3" x2="17.1" y2="24.3"/>
	<line class="st14" x1="16" y1="23.6" x2="17.1" y2="24.6"/>
	<line class="st14" x1="15.8" y1="23.8" x2="17" y2="25"/>
	<line class="st14" x1="15.7" y1="24" x2="16.9" y2="25.3"/>
	<line class="st14" x1="15.6" y1="24.2" x2="16.7" y2="25.4"/>
	<line class="st14" x1="15.4" y1="24.4" x2="16.6" y2="25.7"/>
	<line class="st14" x1="15.3" y1="24.6" x2="16.5" y2="25.8"/>
	<line class="st14" x1="15.2" y1="24.8" x2="16.3" y2="26.1"/>
	<line class="st14" x1="15.1" y1="25.1" x2="16.1" y2="26.3"/>
	<line class="st14" x1="14.9" y1="25.4" x2="15.9" y2="26.5"/>
	<line class="st14" x1="14.8" y1="25.6" x2="15.8" y2="26.7"/>
	<line class="st14" x1="14.7" y1="25.8" x2="15.6" y2="26.9"/>
	<line class="st14" x1="14.6" y1="26.1" x2="15.4" y2="27"/>
	<line class="st14" x1="14.5" y1="26.4" x2="15.2" y2="27.2"/>
	<line class="st14" x1="14.4" y1="26.6" x2="15" y2="27.4"/>
	<line class="st14" x1="14.3" y1="26.9" x2="14.8" y2="27.6"/>
	<line class="st14" x1="14.2" y1="27.1" x2="14.7" y2="27.7"/>
	<line class="st14" x1="14" y1="27.3" x2="14.5" y2="27.9"/>
	<line class="st14" x1="13.9" y1="27.5" x2="14.3" y2="28"/>
	<line class="st14" x1="13.8" y1="27.8" x2="14.1" y2="28.2"/>
	<line class="st14" x1="13.6" y1="28" x2="13.9" y2="28.3"/>
	<line class="st14" x1="13.5" y1="28.3" x2="13.6" y2="28.4"/>
	<path class="st9" d="M9,37c0,0-1-0.8-1.8,0c0,0,1.2-0.1,1.4,0.9L9,37z"/>
	<path class="st9" d="M8.5,37.9c0,0-0.7-0.5-1.4,0.1c0,0,0.7,0.1,0.9,0.4c0,0-0.1,0.3,0,0.5c0,0-0.4-0.1-0.5,0.1   c0,0,0.8,0.4,0.9,0.8C8.4,39.8,8.2,38.3,8.5,37.9z"/>
	<path class="st9" d="M8.5,39.9c0,0-0.6,0-0.6,0.1c0,0,0.1,0.3,0.7,0.5L8.5,39.9z"/>
	<path class="st14" d="M14.8,36.2c0,0,2-0.3,2.7-1.4"/>
	<path class="st9" d="M16.5,35.6c0,0,0.3,0.1,0,0.4c0,0-1.4,0.8-1.1,1.5c0,0,0.6-1,1.4-0.8c0,0,0.2-1.6,0.4-1.7   C17.5,34.9,16.5,35.6,16.5,35.6z"/>
	<path class="st9" d="M16.9,37.1c0,0-1,0.4-0.9,1.4c0,0,0.3-0.9,1-0.9L16.9,37.1z"/>
	<path class="st9" d="M17.4,38.2c0,0-0.8,0.5-0.7,1.2c0,0,0.6-0.7,1-0.5L17.4,38.2z"/>
	<path class="st9" d="M17.8,39.4c0,0,0,0.7-0.5,1c0,0-0.1,0.3,0.2,0.1c0,0,0.3-0.3,0.5,0.2c0,0,0.1,0.5-0.2,0.7c0,0,0.4-0.1,0.7,0.1   L17.8,39.4z"/>
	<path class="st9" d="M13.6,41.1c0,0-0.8-0.2-1.1,0v0.5c0,0,0.7-0.1,1.1,0V41.1z"/>
	<path class="st9" d="M13.6,39.9c0,0-0.7-0.6-1.3,0.2l0.1,0.6c0,0,0.7-0.9,1.2-0.2V39.9z"/>
	<path class="st9" d="M12.2,39.1c0,0,0.8-1.1,1.5,0.1l0.1-0.6c0,0-0.6-1.1-1.6-0.2V39.1z"/>
	<path class="st9" d="M14.1,37.7c0,0-0.3-0.6-0.6-0.6c0,0-0.2-0.8-0.6-0.8c0,0-0.2,1-0.9,1.4l0.1,0.4c0,0,0.7-0.4,0.9-0.8   c0,0,0.8,0.1,1,0.9L14.1,37.7z"/>
	<path class="st9" d="M11.7,36.5l0.2,1.1c0-0.5,0.3-1,0.3-1l1-0.9c0.1,0.1,0.8,0.6,0.8,0.6c0.4,0.1,0.5,1,0.5,1l0.2-0.2   c-0.1-0.6,0.6-1.7,0.6-1.7c0.1-0.8-1.1-2.5-1.1-2.5c-0.1-0.3-0.6-0.9-0.6-0.9c0,0.5-0.6,1.3-0.6,1.3c-1.3,0.6-1.5,2.1-1.5,2.1   C11.4,35.7,11.7,36.5,11.7,36.5z M12.3,34.8c0.5-0.2,1.3-1.5,1.3-1.5l0,0c0.2,0.1,1,1.7,1,1.7c0.2,0.9-0.2,1.1-0.2,1.1   c0-0.2-0.9-1-0.9-1c-0.2-0.5-0.6-0.5-0.6-0.5c0,0.3-1.1,1.6-1.1,1.6C11.6,35.4,12.3,34.8,12.3,34.8z"/>
	<path class="st9" d="M3,40.2c0,0,0.6,0.2,0.7-0.1c0,0-0.2-0.5-0.6-0.6c0,0-0.2-0.1,0-0.4c0,0,0.3,0.4,0.7,0.3c0,0-0.3-0.6-0.7-0.7   c0,0-0.1-0.5,0.2-0.4c0,0,0.5,0.5,0.8,0.4c0,0,0.2-0.4-0.4-0.7c0,0-0.2-0.4-0.1-0.6c0,0,0.3-0.3,1,0.5c0,0,0.3-0.1,0-0.4L4.1,37   c0,0-0.2-0.6,0.1-0.5c0,0,0.8,0.2,1,0.5c0,0,0.4-0.4-1.2-1.5c0,0-0.2-0.6-0.1-0.6c0,0,1.1,0.3,1.4,1c0,0,0.4,0.3,0.1-0.2   c0,0-1.2-1.9-2.1-2.1c0,0-0.1-0.7-0.2-0.7c0,0,2,0.9,2.8,2.2c0,0-1.5-3.2-3.2-3.4c0,0,0.2,2.1,0.5,2.7c0,0,0.6,1.5,0.5,1.9   c0,0-0.1,0.8-0.7,1.5C3,38,2.4,39.2,3,40.2z"/>
	<path class="st14" d="M2.7,32c0,0-0.1-1.2,0-1.5"/>
	<path class="st9" d="M3.1,29.7c0,0,2.3,2,3.2,5.2c0,0-2.2-4.2-3.8-4.1C2.5,30.8,3,29.8,3.1,29.7z"/>
	<path class="st9" d="M3.6,29.2c0,0,2.2,2.1,2.7,4.1c0,0,0.7,1.6,1.5,2c0,0-0.9-1.7-1.1-2.7c0,0,0.2-1.8-2.1-4.1L3.6,29.2z"/>
	<path class="st9" d="M5.3,28.3c0.1-0.1,0.4-0.1,0.8-0.2c0.1,0,1,1.8,1,1.8c0.2-0.4-0.3-1.7-0.4-1.9c0.4-0.1,0.8-0.2,0.8-0.2   c0.5,1.5-0.2,4.6-0.2,4.6C7.4,31.3,5.3,28.3,5.3,28.3z"/>
	<path class="st9" d="M7.6,27.7c0,0,0.8,0.9,0.7,2c0,0-0.5,1.8-0.5,2.5c0,0,0.1,2.3,0.9,3.1c0,0-0.5-1.8-0.3-2.8   c0,0,0.6-2.3,0.6-2.8c0,0-0.2-1.9-0.4-2.1L7.6,27.7z"/>
	<path class="st9" d="M9.2,27.8c0,0,1,1.7,1,3.3c0,0-0.1,1.5-0.3,2c0,0-0.6,2-0.1,2.6c0,0,0-1.2,0.3-1.9c0,0,1-1.8,1-2.9   c0,0-0.3-2.5-0.8-2.9L9.2,27.8z"/>
	<path class="st9" d="M10.8,28.1c0,0,1.3,2,1.1,3.3c0,0-0.1,0.8-0.2,1.1c0,0-1.1,1.6-1.1,3.2c0,0,0.2,0,0.2-0.2c0,0,0.2-2,1.1-2.5   c0,0,0.9-0.7,0.9-1.9c0,0-0.6-2.3-1-2.7L10.8,28.1z"/>
	<path class="st9" d="M12.2,28.5c0,0,0.3,1.4,1.1,2.1c0,0,2,2.1,2.2,4c0,0-0.2,0.2,0,0.4c0,0,0.3,0,0.3-0.8c0,0,0-1.7-1.6-3.6   c0,0-1-1.1-0.8-1.9l-0.2-0.2C13.3,28.5,13.2,28.8,12.2,28.5z"/>
	<path class="st9" d="M13.5,28.5c0,0,0.7,1.1,1,1.3c0,0,2.4,1.8,2.3,4.3c0,0,0.3,0.4,0.4-1c0,0-0.1-1.9-1.2-2.8c0,0-1.3-1.2-1.3-2.1   c0,0,0.1-0.4,0.3-0.3c0,0,0.1,0.4,0.7,0.9c0,0,2.4,2.1,2.4,3.5c0,0,0.2,0.5,0.3-0.1c0,0,0-0.9-0.5-1.7c0,0-1.3-2.1-2-2.5   c0,0-0.2-0.1-0.2-0.7c0,0,0.1-0.3,0.2-0.3c0,0,0.2,0.4,0.6,0.6c0,0,2,1.2,2.3,2.8c0,0,0.4-0.9-0.6-2.1c0,0-1.6-1.2-1.7-1.8   c0,0-0.1-0.3,0-0.6c0,0,1,0.8,1.7,1.4c0,0,1.2,1.2,1.1,2c0,0,0.6-0.7-0.9-2.2c0,0-1-0.8-1.1-2.2c0,0,1.1,1,1.3,1.2   c0,0-0.6-1.2-1.1-1.7c0,0-0.3-0.3,0.1-0.7c0,0,0.5,1,1.4,1.3c0,0-1.3-1.5-1.1-2.2c0,0-0.8,0.5-1,2.2C17.1,24.8,15.7,27.5,13.5,28.5   z"/>
	<path class="st9" d="M20,25.8L20,25.8c-0.2,0.2-0.7,0.8-0.7,1.6l0.5,0.3C19.9,27.7,19.8,26.4,20,25.8"/>
	<path class="st9" d="M20.8,26.7c0,0-0.4,0.6-0.3,1.3l0.5,0.1C21,28.2,20.7,27.2,20.8,26.7z"/>
	<path class="st9" d="M21.8,27.1c0,0-0.2,0.6,0,1.2l0.4,0.1C22.3,28.4,21.7,28.2,21.8,27.1z"/>
	<path class="st9" d="M19.4,21.9c0,0-0.2,0.5,0,1.7c0,0,0.4-1.4,0.7-1.7C20.1,21.8,19.5,21.8,19.4,21.9z"/>
	<path class="st9" d="M20,24c0,0-0.4-0.8,1-2c0,0,0.6,0.2,0.8,0.4C21.8,22.4,20,22.9,20,24z"/>
	<path class="st9" d="M22.3,23.2c0,0-1.5,0.1-2.1,1.4c0,0,1.5-1,2.3-0.9L22.3,23.2z"/>
	<path class="st9" d="M22.6,23.7c0,0,0,0.2-0.2,0.4c0,0-0.4,0.2-0.5,0.6c0,0,0.5-0.6,1-0.4L22.6,23.7z"/>
	<path class="st9" d="M22.9,24.4c0,0,0.1,0.1-0.2,0.4c0,0-0.4,0.3-0.6,0.7c0,0,0.8-0.7,1.1-0.6L22.9,24.4z"/>
	<path class="st9" d="M23.3,25.2c0,0-0.4,0.7-0.5,0.8c0,0,0.5-0.5,0.7-0.3L23.3,25.2z"/>
	<path class="st9" d="M23.7,25.7c0,0-0.2,0.6-0.5,0.8c0,0,0.4-0.3,0.9-0.2L23.7,25.7z"/>
	<path class="st15" d="M14.6,37l2.9,4.7c0,0-0.6,0.9,0.3,1L17.5,44c0,0,1.1,0.3,1.5,0c0,0,0-0.9-0.4-1.4c0,0-0.9-3.8-1.5-4.8   c0,0-0.9-1.2,0.4-3.1c0,0,2.3-4.4,2.6-6.7c0,0,2.1,0.7,2.9,0.5c0,0,0.4,1,1.4,0.9c0,0,1.4-0.2,1.3-1.2c0,0,0.2-0.8-0.7-1.2   c0,0-1-0.2-2.7-3.9c0,0-0.4-0.8-0.7-0.8c0,0,1.3-1.3,0.7-2.7c0,0-1.1,0.7-1.4,1.4c0,0-1.8-0.2-2.2,0.1c0,0-0.6-1.7-1.7-1.9   c0,0-0.5,1.2,0.5,2.4c0,0-2,1.5-3,4.5c0,0-1.1,2.1-1.4,2.3c0,0,0.3,0.4-1.6-0.3c0,0-1.9-0.6-3.7-0.5c0,0-4.3,0.2-5.2,2.6   c0,0-1.7,2.9-1.8,5.1c0,0-0.6,1.6-0.4,2.5l0.4-0.7L1,37.6c0,0-0.1-1.2,0-2c0,0,0.7-3.9,1.6-3.9c0,0,0.1,2.1,0.7,3.2   c0,0,0.7,1.2,0,2.3c0,0-1.4,1.4-0.3,3.1c0,0,0.4,0.9,0,1.5c0,0-0.2,0.2-0.1,0.4c0,0,0.6,0.3,0.5,0.8l-0.3,0.8c0,0,0.5,0.6,1.7,0.2   L4,41.5c0,0-0.7-1.5,0.4-2.8c0,0,1.9-2.5,1.9-2.8c0,0,0.6,0.8,0.3,1.3c0,0-0.3,0.2,0.3,1.4l0.8,2.2c0,0,0.3,0.7,0.1,1.1   c0,0-0.2,0.2,0.2,0.5c0,0,0.3,0.1,0.2,0.4L8,43.6c0,0,1,0.4,1.4,0.1l-1-4c0,0-0.9-1.7,0.9-3.5c0,0,1.7,0,2.3-0.1l0.8,4.8   c0,0,0.1,0.9-0.2,1.4c0,0,0.7,0.6,0.4,1.1c0,0-0.7,0.7,0.1,0.7c0,0,0.5,0.2,1.2,0C14,44.4,12.8,38.6,14.6,37z"/>
</g>
<path class="st16" d="M50.9,5.5c0-2.7,9.8-4.8,23.9-4.8s23.5,2.2,23.4,4.9c0,1.7-2.2,3.1-8.8,4c-2.8,1.8-8.7,3.1-11.3,3.5  c0,0,4.6-1.8,4.9-2.9c-2.6,0.2-5.3,0.2-8.2,0.2C60.6,10.4,50.9,8.2,50.9,5.5z"/>
<g class="st3">
	<path class="st9" d="M57.733,4.67c0.136,0,0.257,0.018,0.361,0.05c0.104,0.033,0.195,0.078,0.271,0.137   c0.076,0.058,0.14,0.125,0.191,0.203c0.051,0.077,0.092,0.16,0.123,0.249c0.031,0.089,0.053,0.182,0.065,0.278   c0.013,0.097,0.02,0.192,0.02,0.286l0,0.098c0,0.042-0.001,0.075-0.002,0.098l-1.767-0.004C57,6.213,57.021,6.341,57.063,6.45   c0.04,0.109,0.096,0.199,0.166,0.271c0.07,0.071,0.153,0.125,0.249,0.16c0.095,0.036,0.2,0.054,0.313,0.054   c0.161,0,0.319-0.018,0.474-0.055c0.155-0.036,0.308-0.101,0.461-0.195l0.049,0.416c-0.088,0.044-0.174,0.083-0.259,0.115   c-0.085,0.032-0.169,0.057-0.255,0.077c-0.084,0.021-0.17,0.035-0.258,0.043c-0.087,0.009-0.179,0.014-0.275,0.013   c-0.159,0-0.311-0.029-0.455-0.085C57.126,7.208,57,7.125,56.89,7.015s-0.196-0.247-0.26-0.409   c-0.064-0.163-0.096-0.352-0.096-0.567c0-0.208,0.029-0.396,0.085-0.564c0.055-0.169,0.135-0.313,0.239-0.433   c0.103-0.12,0.229-0.211,0.376-0.275C57.382,4.702,57.549,4.67,57.733,4.67z M57.695,5.048c-0.183,0-0.333,0.053-0.449,0.161   c-0.117,0.108-0.193,0.276-0.231,0.504l1.3,0.003c0-0.107-0.015-0.203-0.045-0.286c-0.031-0.083-0.073-0.153-0.129-0.211   c-0.056-0.057-0.122-0.1-0.198-0.128S57.785,5.048,57.695,5.048z"/>
	<path class="st9" d="M60.819,4.678c0.266,0,0.469,0.089,0.609,0.265c0.141,0.176,0.211,0.436,0.21,0.782l-0.004,1.572l-0.461-0.001   l0.003-1.384c0-0.158-0.009-0.288-0.03-0.39c-0.02-0.102-0.051-0.183-0.091-0.243c-0.041-0.06-0.092-0.101-0.154-0.125   c-0.063-0.024-0.136-0.036-0.22-0.036c-0.09,0-0.178,0.021-0.263,0.063c-0.085,0.043-0.164,0.098-0.236,0.166   c-0.071,0.068-0.134,0.145-0.19,0.23c-0.055,0.085-0.096,0.17-0.123,0.256l-0.004,1.459l-0.46-0.001l0.004-1.547   c0-0.248-0.012-0.458-0.04-0.63c-0.027-0.172-0.054-0.302-0.082-0.389l0.448,0.001c0.01,0.027,0.02,0.062,0.03,0.104   c0.01,0.043,0.019,0.088,0.027,0.135s0.016,0.093,0.022,0.138l0.02,0.113c0.158-0.191,0.318-0.328,0.479-0.413   C60.474,4.72,60.644,4.678,60.819,4.678z"/>
	<path class="st9" d="M62.055,4.794l0.498,0.001l0.002-0.818l0.461,0.001l-0.002,0.818l0.81,0.002l-0.001,0.365l-0.81-0.002   L63.01,6.319c0,0.129,0.006,0.235,0.018,0.317s0.031,0.146,0.057,0.193c0.026,0.046,0.058,0.078,0.098,0.094   c0.04,0.017,0.088,0.026,0.145,0.026c0.071,0,0.152-0.016,0.242-0.047c0.09-0.031,0.19-0.079,0.299-0.14l-0.001,0.403   c-0.114,0.075-0.224,0.127-0.329,0.156c-0.104,0.029-0.201,0.043-0.289,0.043c-0.098,0-0.189-0.012-0.274-0.035   c-0.085-0.022-0.159-0.063-0.223-0.12c-0.064-0.057-0.114-0.134-0.15-0.229s-0.055-0.215-0.054-0.361l0.003-1.459l-0.498-0.001   L62.055,4.794z"/>
	<path class="st9" d="M64.44,7.304l0.004-1.547c0-0.248-0.012-0.458-0.04-0.631c-0.027-0.172-0.055-0.301-0.083-0.389l0.448,0.001   c0.02,0.047,0.038,0.107,0.053,0.178s0.029,0.15,0.039,0.237c0.011,0.087,0.019,0.181,0.023,0.279   c0.004,0.099,0.007,0.199,0.006,0.3v0.163c0.085-0.236,0.169-0.432,0.25-0.587c0.082-0.154,0.163-0.278,0.244-0.37   c0.081-0.092,0.162-0.157,0.243-0.193c0.082-0.037,0.165-0.055,0.25-0.055c0.063,0,0.121,0.006,0.174,0.018   c0.053,0.012,0.107,0.031,0.162,0.059l-0.076,0.465c-0.048-0.02-0.09-0.034-0.127-0.04c-0.037-0.007-0.082-0.011-0.135-0.011   c-0.068,0-0.139,0.028-0.214,0.086c-0.075,0.058-0.148,0.134-0.221,0.229c-0.073,0.095-0.141,0.204-0.207,0.324   c-0.065,0.12-0.122,0.244-0.171,0.371c-0.05,0.126-0.089,0.25-0.118,0.371s-0.044,0.228-0.044,0.322c0,0.042,0,0.081,0,0.116   c0.001,0.035,0.003,0.069,0.007,0.102c0.004,0.033,0.01,0.065,0.017,0.098c0.006,0.033,0.015,0.067,0.024,0.104L64.44,7.304z"/>
	<path class="st9" d="M67.709,4.695c0.136,0,0.257,0.018,0.361,0.05c0.104,0.033,0.195,0.078,0.271,0.137   c0.076,0.058,0.141,0.125,0.191,0.203c0.051,0.077,0.092,0.16,0.123,0.249c0.03,0.089,0.053,0.182,0.064,0.278   c0.014,0.097,0.02,0.192,0.02,0.286v0.098c0,0.042-0.001,0.075-0.002,0.098L66.971,6.09c0.005,0.147,0.027,0.276,0.068,0.385   c0.04,0.109,0.096,0.199,0.166,0.271c0.07,0.071,0.153,0.125,0.249,0.16c0.095,0.036,0.2,0.054,0.313,0.054   c0.161,0,0.319-0.018,0.474-0.055c0.154-0.036,0.308-0.101,0.461-0.195l0.049,0.416c-0.088,0.044-0.175,0.083-0.26,0.115   c-0.084,0.032-0.169,0.058-0.254,0.077c-0.085,0.021-0.171,0.035-0.258,0.043c-0.087,0.009-0.179,0.014-0.275,0.013   c-0.159,0-0.311-0.029-0.455-0.085c-0.145-0.057-0.271-0.14-0.381-0.25c-0.109-0.11-0.196-0.247-0.26-0.409   c-0.064-0.163-0.096-0.352-0.096-0.567c0-0.208,0.029-0.396,0.085-0.564c0.055-0.169,0.135-0.313,0.239-0.433   c0.103-0.12,0.229-0.211,0.376-0.275C67.359,4.727,67.525,4.695,67.709,4.695z M67.671,5.073c-0.183,0-0.333,0.054-0.449,0.161   c-0.117,0.108-0.193,0.276-0.231,0.504l1.3,0.003c0.001-0.107-0.015-0.203-0.045-0.286s-0.073-0.153-0.129-0.21   s-0.122-0.1-0.198-0.129S67.761,5.073,67.671,5.073z"/>
	<path class="st9" d="M73.059,7.326L70.668,7.32l0.001-0.428c0.112-0.082,0.234-0.177,0.363-0.285   c0.129-0.107,0.257-0.223,0.384-0.347s0.25-0.253,0.367-0.388c0.117-0.134,0.222-0.27,0.312-0.405s0.162-0.269,0.217-0.401   c0.054-0.131,0.081-0.255,0.081-0.371c0-0.117-0.02-0.217-0.061-0.3c-0.039-0.083-0.094-0.151-0.16-0.205   c-0.065-0.053-0.141-0.091-0.226-0.115c-0.085-0.023-0.172-0.036-0.262-0.036c-0.076,0-0.155,0.011-0.236,0.033   s-0.161,0.055-0.238,0.096c-0.077,0.042-0.151,0.091-0.222,0.148c-0.071,0.057-0.134,0.119-0.189,0.186l-0.11-0.428   c0.05-0.07,0.114-0.135,0.194-0.194c0.08-0.06,0.168-0.111,0.266-0.156c0.098-0.044,0.199-0.078,0.307-0.102   c0.107-0.024,0.213-0.036,0.318-0.036c0.148,0,0.291,0.026,0.427,0.075c0.136,0.05,0.254,0.121,0.356,0.212   c0.104,0.092,0.185,0.203,0.245,0.333c0.061,0.13,0.091,0.277,0.09,0.439c-0.001,0.141-0.026,0.284-0.077,0.429   c-0.051,0.145-0.119,0.288-0.204,0.43c-0.085,0.141-0.182,0.279-0.29,0.413s-0.22,0.261-0.334,0.381   c-0.115,0.121-0.229,0.232-0.34,0.335c-0.112,0.103-0.213,0.193-0.305,0.272l0.635,0.001c0.123,0,0.239,0,0.35,0   c0.109,0,0.21-0.002,0.303-0.004c0.092-0.002,0.174-0.006,0.247-0.011c0.073-0.005,0.135-0.011,0.185-0.02L73.059,7.326z"/>
	<path class="st9" d="M77.35,4.77c-0.035,0.072-0.071,0.15-0.109,0.233c-0.037,0.084-0.073,0.167-0.107,0.247   c-0.033,0.08-0.066,0.157-0.096,0.229c-0.031,0.072-0.056,0.133-0.076,0.184c-0.016,0.041-0.039,0.095-0.066,0.165   c-0.027,0.07-0.059,0.147-0.092,0.234c-0.035,0.086-0.071,0.178-0.109,0.274c-0.039,0.096-0.076,0.191-0.113,0.286   c-0.088,0.221-0.183,0.459-0.283,0.713l-0.473-0.001c-0.096-0.244-0.186-0.474-0.27-0.69C75.518,6.55,75.48,6.456,75.442,6.36   s-0.073-0.188-0.107-0.276S75.27,5.916,75.24,5.842c-0.028-0.074-0.053-0.135-0.072-0.184c-0.02-0.05-0.045-0.112-0.074-0.185   c-0.029-0.073-0.063-0.15-0.097-0.23c-0.035-0.081-0.07-0.163-0.106-0.246s-0.072-0.161-0.107-0.233l0.523,0.001l0.755,2.065   l0.765-2.061L77.35,4.77z"/>
	<path class="st9" d="M77.633,6.066c0.001-0.216,0.033-0.408,0.1-0.575c0.064-0.167,0.152-0.307,0.262-0.422   c0.109-0.114,0.238-0.201,0.385-0.259c0.146-0.059,0.301-0.087,0.466-0.087c0.171,0,0.327,0.03,0.47,0.09   c0.141,0.059,0.263,0.146,0.365,0.261c0.102,0.115,0.181,0.256,0.236,0.423C79.973,5.664,80,5.856,80,6.072   c-0.001,0.216-0.033,0.408-0.1,0.574c-0.064,0.166-0.152,0.305-0.262,0.417c-0.11,0.112-0.238,0.197-0.385,0.254   s-0.301,0.086-0.466,0.085c-0.171,0-0.327-0.03-0.47-0.088c-0.142-0.058-0.264-0.144-0.365-0.256   c-0.102-0.113-0.181-0.252-0.236-0.418C77.66,6.474,77.633,6.283,77.633,6.066z M78.094,6.068c0,0.146,0.017,0.277,0.052,0.393   c0.034,0.116,0.083,0.213,0.147,0.293c0.063,0.08,0.14,0.141,0.227,0.183C78.607,6.979,78.706,7,78.814,7   c0.1,0,0.193-0.021,0.281-0.062c0.088-0.042,0.165-0.103,0.23-0.182c0.066-0.08,0.117-0.177,0.156-0.292   c0.037-0.116,0.056-0.247,0.057-0.393c0-0.147-0.018-0.28-0.052-0.396c-0.034-0.116-0.083-0.216-0.147-0.297   c-0.063-0.081-0.141-0.144-0.229-0.187c-0.089-0.043-0.186-0.064-0.293-0.065c-0.102,0-0.195,0.021-0.284,0.063   c-0.088,0.042-0.164,0.104-0.229,0.186c-0.064,0.081-0.116,0.18-0.154,0.296C78.113,5.788,78.094,5.92,78.094,6.068z"/>
	<path class="st9" d="M81.865,7.348c-0.088,0.241-0.173,0.438-0.256,0.591c-0.084,0.152-0.168,0.272-0.254,0.36   c-0.086,0.088-0.175,0.148-0.267,0.181c-0.093,0.032-0.192,0.049-0.298,0.048c-0.115,0-0.223-0.019-0.322-0.056   c-0.102-0.037-0.197-0.09-0.287-0.159l0.15-0.402c0.025,0.022,0.057,0.044,0.092,0.067C80.46,8,80.498,8.02,80.539,8.038   c0.041,0.018,0.082,0.033,0.126,0.044C80.708,8.094,80.75,8.1,80.792,8.1c0.05,0,0.099-0.008,0.147-0.026   c0.047-0.018,0.096-0.051,0.145-0.1c0.051-0.05,0.101-0.119,0.152-0.208c0.051-0.09,0.106-0.208,0.165-0.353l-0.69-1.741   c-0.047-0.114-0.1-0.243-0.161-0.385s-0.14-0.313-0.235-0.509l0.498,0.001l0.799,2.058c0.032-0.09,0.066-0.189,0.105-0.295   c0.037-0.107,0.076-0.216,0.115-0.329c0.041-0.113,0.08-0.228,0.121-0.342c0.04-0.114,0.078-0.225,0.115-0.331   c0.088-0.248,0.175-0.5,0.264-0.757l0.498,0.001c-0.043,0.098-0.083,0.187-0.117,0.27c-0.035,0.083-0.068,0.161-0.098,0.234   c-0.031,0.073-0.059,0.141-0.082,0.205c-0.024,0.064-0.047,0.125-0.066,0.184L81.865,7.348z"/>
	<path class="st9" d="M84.313,4.737c0.137,0,0.257,0.018,0.361,0.05c0.104,0.033,0.195,0.078,0.271,0.137   c0.076,0.058,0.14,0.125,0.191,0.203c0.051,0.077,0.092,0.16,0.122,0.249s0.053,0.182,0.065,0.278   c0.014,0.097,0.02,0.192,0.02,0.286v0.098c0,0.042-0.002,0.075-0.003,0.098l-1.767-0.004c0.005,0.147,0.027,0.276,0.068,0.385   c0.039,0.109,0.096,0.199,0.166,0.271c0.07,0.071,0.152,0.125,0.248,0.16c0.096,0.036,0.199,0.054,0.313,0.054   c0.161,0,0.318-0.018,0.474-0.055c0.155-0.036,0.308-0.101,0.461-0.195l0.049,0.416c-0.088,0.044-0.175,0.083-0.259,0.115   c-0.085,0.032-0.17,0.058-0.255,0.077c-0.085,0.021-0.171,0.035-0.258,0.043s-0.179,0.014-0.275,0.013   c-0.159,0-0.312-0.029-0.455-0.085c-0.145-0.057-0.271-0.14-0.381-0.25c-0.109-0.11-0.196-0.247-0.261-0.409   c-0.064-0.163-0.096-0.352-0.096-0.567c0.001-0.208,0.029-0.396,0.086-0.564c0.055-0.169,0.135-0.313,0.238-0.433   s0.229-0.211,0.377-0.275C83.962,4.769,84.129,4.736,84.313,4.737z M84.274,5.114c-0.183,0-0.333,0.054-0.448,0.161   c-0.117,0.108-0.193,0.276-0.231,0.504l1.3,0.003c0.001-0.107-0.014-0.203-0.045-0.286c-0.03-0.083-0.072-0.153-0.129-0.21   c-0.055-0.057-0.121-0.1-0.197-0.128C84.447,5.129,84.364,5.115,84.274,5.114z"/>
	<path class="st9" d="M86.538,6.164c0,0.081,0.001,0.175,0.003,0.285c0.002,0.109,0.006,0.22,0.01,0.332S86.559,7,86.564,7.103   c0.006,0.103,0.013,0.188,0.021,0.257l-0.511-0.001l0.008-2.843c0-0.245-0.004-0.466-0.012-0.665   c-0.008-0.199-0.02-0.371-0.035-0.517l0.51,0.001L86.538,6.164z"/>
	<path class="st9" d="M87.945,6.167c0,0.081,0.002,0.175,0.004,0.285c0.002,0.109,0.006,0.22,0.009,0.332   c0.005,0.112,0.009,0.22,0.015,0.322c0.006,0.103,0.012,0.188,0.02,0.257l-0.51-0.001l0.007-2.843   c0.001-0.245-0.003-0.466-0.011-0.665c-0.008-0.199-0.02-0.371-0.036-0.518l0.511,0.001L87.945,6.167z"/>
	<path class="st9" d="M89.855,4.751c0.136,0,0.256,0.017,0.36,0.05c0.104,0.033,0.195,0.078,0.271,0.136   c0.076,0.058,0.14,0.126,0.191,0.203s0.093,0.16,0.122,0.25c0.031,0.089,0.053,0.182,0.066,0.278   c0.013,0.097,0.02,0.192,0.02,0.286l-0.001,0.098c0,0.042-0.001,0.075-0.003,0.098l-1.766-0.004   c0.004,0.147,0.026,0.276,0.067,0.385c0.04,0.11,0.096,0.2,0.166,0.271c0.07,0.072,0.153,0.125,0.249,0.161   c0.095,0.036,0.199,0.054,0.313,0.054c0.16,0,0.318-0.018,0.473-0.054c0.155-0.037,0.309-0.102,0.461-0.195l0.049,0.416   c-0.088,0.045-0.174,0.083-0.258,0.115c-0.086,0.031-0.17,0.057-0.256,0.077c-0.084,0.02-0.17,0.035-0.258,0.043   c-0.086,0.009-0.178,0.014-0.275,0.014c-0.158,0-0.311-0.029-0.455-0.086c-0.145-0.056-0.271-0.14-0.381-0.25   c-0.109-0.11-0.195-0.247-0.26-0.41c-0.064-0.163-0.096-0.352-0.096-0.566c0-0.208,0.029-0.396,0.085-0.564   c0.056-0.169,0.136-0.313,0.239-0.433c0.103-0.119,0.229-0.211,0.376-0.275C89.504,4.782,89.671,4.75,89.855,4.751z M89.816,5.128   c-0.182,0-0.332,0.053-0.448,0.161c-0.116,0.108-0.193,0.276-0.231,0.504l1.301,0.003c0-0.107-0.015-0.203-0.045-0.286   c-0.031-0.083-0.073-0.154-0.129-0.211c-0.056-0.057-0.121-0.1-0.197-0.128C89.99,5.143,89.906,5.128,89.816,5.128z"/>
	<path class="st9" d="M92.434,4.757c0.09,0,0.174,0.006,0.253,0.018c0.079,0.012,0.151,0.028,0.216,0.047   c0.066,0.02,0.127,0.042,0.182,0.066s0.104,0.048,0.146,0.072l-0.089,0.44C93.101,5.375,93.053,5.349,93,5.321   s-0.11-0.054-0.173-0.077s-0.129-0.044-0.199-0.06c-0.07-0.016-0.144-0.024-0.22-0.024c-0.092,0-0.168,0.009-0.231,0.029   c-0.062,0.02-0.112,0.045-0.149,0.077c-0.037,0.031-0.064,0.066-0.08,0.105c-0.018,0.039-0.025,0.077-0.025,0.114   c0,0.044,0.006,0.083,0.019,0.116c0.014,0.034,0.042,0.065,0.083,0.094c0.043,0.029,0.104,0.056,0.181,0.083   c0.078,0.027,0.183,0.056,0.313,0.086c0.113,0.026,0.22,0.059,0.319,0.098c0.099,0.04,0.187,0.09,0.261,0.15   c0.075,0.061,0.133,0.134,0.177,0.218c0.042,0.085,0.063,0.187,0.063,0.304c0,0.114-0.025,0.22-0.075,0.316   c-0.05,0.097-0.118,0.183-0.205,0.255c-0.087,0.073-0.188,0.129-0.304,0.171c-0.117,0.041-0.242,0.061-0.377,0.061   c-0.102,0-0.199-0.008-0.293-0.024C91.99,7.398,91.902,7.377,91.82,7.35c-0.082-0.027-0.156-0.059-0.225-0.094   c-0.068-0.036-0.127-0.073-0.177-0.111l0.126-0.453c0.057,0.051,0.119,0.097,0.189,0.139c0.07,0.042,0.144,0.079,0.219,0.109   c0.074,0.03,0.148,0.053,0.225,0.069c0.075,0.016,0.146,0.024,0.213,0.024c0.072,0,0.14-0.009,0.201-0.028   c0.061-0.019,0.113-0.044,0.156-0.075c0.045-0.031,0.079-0.067,0.104-0.108c0.025-0.041,0.038-0.083,0.038-0.127   c0-0.047-0.009-0.091-0.028-0.132s-0.054-0.081-0.104-0.118c-0.051-0.038-0.12-0.075-0.208-0.11   c-0.09-0.036-0.203-0.071-0.344-0.106c-0.15-0.038-0.273-0.082-0.369-0.132c-0.096-0.051-0.17-0.106-0.224-0.167   c-0.054-0.061-0.091-0.126-0.11-0.197c-0.02-0.071-0.029-0.145-0.029-0.224c0-0.039,0.006-0.084,0.02-0.136   c0.012-0.052,0.033-0.106,0.063-0.163c0.029-0.056,0.067-0.111,0.115-0.166c0.047-0.054,0.106-0.103,0.178-0.146   c0.072-0.042,0.155-0.077,0.252-0.104C92.196,4.771,92.308,4.757,92.434,4.757z"/>
</g>
<g class="st3">
	<path class="st6" d="M39.632,50.65v0.403h-1.445v0.604c0,0.249,0.001,0.469,0.005,0.66c0.003,0.189,0.014,0.334,0.032,0.434h-0.548   c0.019-0.101,0.029-0.246,0.033-0.437c0.003-0.19,0.005-0.409,0.005-0.657v-1.824c0-0.113-0.001-0.217-0.004-0.311   c-0.002-0.096-0.006-0.181-0.011-0.256c-0.005-0.076-0.012-0.139-0.022-0.189h2.167v0.416h-1.656v1.156H39.632z"/>
	<path class="st6" d="M40.379,51.481c0-0.216,0.032-0.408,0.097-0.575c0.064-0.166,0.152-0.308,0.261-0.422   c0.11-0.115,0.237-0.202,0.384-0.261c0.146-0.06,0.301-0.089,0.466-0.089c0.171,0,0.327,0.029,0.469,0.089   c0.142,0.059,0.264,0.146,0.366,0.261c0.102,0.114,0.182,0.256,0.238,0.422c0.057,0.167,0.085,0.359,0.085,0.575   s-0.033,0.407-0.097,0.573c-0.065,0.166-0.152,0.306-0.262,0.418c-0.109,0.112-0.237,0.197-0.383,0.256   c-0.146,0.058-0.302,0.086-0.466,0.086c-0.171,0-0.328-0.028-0.47-0.086c-0.142-0.059-0.264-0.144-0.366-0.256   s-0.181-0.252-0.238-0.418S40.379,51.697,40.379,51.481z M40.84,51.481c0,0.146,0.018,0.276,0.052,0.393   c0.035,0.116,0.084,0.214,0.148,0.293s0.14,0.141,0.228,0.183c0.088,0.041,0.186,0.063,0.294,0.063c0.1,0,0.193-0.021,0.281-0.063   c0.088-0.042,0.165-0.104,0.23-0.183s0.117-0.177,0.154-0.293c0.038-0.116,0.056-0.247,0.056-0.393c0-0.147-0.018-0.28-0.052-0.396   c-0.035-0.116-0.084-0.216-0.148-0.297s-0.14-0.144-0.229-0.187s-0.187-0.063-0.292-0.063c-0.102,0-0.196,0.021-0.284,0.063   s-0.165,0.105-0.229,0.187c-0.065,0.081-0.116,0.181-0.153,0.297C40.859,51.201,40.84,51.334,40.84,51.481z"/>
	<path class="st6" d="M43.369,52.752v-1.547c0-0.248-0.014-0.459-0.041-0.631c-0.028-0.172-0.056-0.301-0.083-0.389h0.448   c0.02,0.047,0.038,0.106,0.054,0.178c0.016,0.071,0.029,0.15,0.04,0.237s0.019,0.181,0.024,0.279   c0.005,0.099,0.007,0.198,0.007,0.3v0.163c0.084-0.236,0.167-0.433,0.249-0.587c0.082-0.155,0.162-0.279,0.243-0.371   c0.081-0.093,0.162-0.157,0.243-0.193c0.081-0.037,0.164-0.057,0.249-0.057c0.063,0,0.121,0.006,0.174,0.018   s0.107,0.031,0.162,0.059l-0.075,0.465c-0.048-0.02-0.09-0.033-0.127-0.039c-0.037-0.008-0.081-0.011-0.134-0.011   c-0.068,0-0.14,0.028-0.214,0.087c-0.075,0.058-0.148,0.135-0.22,0.23s-0.141,0.203-0.206,0.324   c-0.065,0.121-0.122,0.244-0.171,0.371c-0.049,0.127-0.088,0.25-0.117,0.371c-0.029,0.121-0.044,0.229-0.044,0.322   c0,0.041,0,0.08,0.001,0.115s0.003,0.069,0.007,0.102c0.004,0.033,0.01,0.066,0.016,0.099c0.007,0.032,0.015,0.067,0.025,0.104   H43.369z"/>
	<path class="st6" d="M46.731,50.135c0.166,0,0.31,0.021,0.43,0.06c0.121,0.04,0.227,0.091,0.318,0.155l-0.087,0.453   c-0.113-0.084-0.225-0.147-0.336-0.189s-0.231-0.063-0.361-0.063c-0.111,0-0.215,0.021-0.31,0.064   c-0.096,0.042-0.179,0.104-0.25,0.185c-0.07,0.08-0.125,0.179-0.166,0.297c-0.04,0.117-0.06,0.249-0.06,0.397   c0,0.136,0.018,0.259,0.055,0.369c0.037,0.111,0.089,0.207,0.157,0.286c0.068,0.079,0.15,0.142,0.247,0.185   c0.097,0.044,0.205,0.066,0.327,0.066c0.151,0,0.288-0.027,0.411-0.078c0.123-0.053,0.239-0.127,0.349-0.225l0.05,0.44   c-0.063,0.049-0.126,0.091-0.188,0.124c-0.062,0.035-0.127,0.063-0.195,0.086c-0.068,0.023-0.141,0.039-0.219,0.051   c-0.078,0.011-0.164,0.016-0.256,0.016c-0.168,0-0.325-0.029-0.471-0.089c-0.146-0.06-0.274-0.146-0.384-0.258   s-0.196-0.249-0.259-0.407c-0.063-0.16-0.094-0.34-0.094-0.541c0-0.189,0.03-0.369,0.091-0.536c0.061-0.168,0.147-0.314,0.259-0.44   c0.112-0.126,0.249-0.225,0.409-0.299C46.354,50.172,46.533,50.135,46.731,50.135z"/>
	<path class="st6" d="M49.172,50.135c0.136,0,0.257,0.018,0.361,0.05s0.195,0.077,0.271,0.136c0.076,0.058,0.14,0.125,0.192,0.203   c0.051,0.076,0.092,0.16,0.123,0.248c0.031,0.09,0.053,0.182,0.066,0.278c0.014,0.097,0.02,0.192,0.02,0.286v0.098   c0,0.042-0.001,0.074-0.002,0.098h-1.766c0.005,0.148,0.028,0.276,0.069,0.385c0.041,0.109,0.096,0.199,0.167,0.271   c0.071,0.07,0.154,0.124,0.25,0.159c0.095,0.036,0.199,0.054,0.313,0.054c0.161,0,0.319-0.02,0.473-0.057   c0.154-0.036,0.308-0.102,0.461-0.195l0.05,0.415c-0.088,0.045-0.174,0.083-0.259,0.116c-0.084,0.031-0.169,0.057-0.254,0.077   c-0.085,0.021-0.171,0.035-0.258,0.044c-0.087,0.01-0.179,0.014-0.275,0.014c-0.159,0-0.311-0.027-0.456-0.084   s-0.271-0.139-0.381-0.249c-0.109-0.11-0.197-0.246-0.261-0.409c-0.065-0.162-0.097-0.352-0.097-0.566   c0-0.207,0.028-0.396,0.083-0.564c0.055-0.168,0.135-0.313,0.238-0.433c0.103-0.12,0.228-0.212,0.376-0.276   S48.988,50.135,49.172,50.135z M49.135,50.513c-0.183,0-0.333,0.054-0.449,0.162s-0.192,0.276-0.229,0.505h1.3   c0-0.107-0.016-0.203-0.046-0.285c-0.031-0.084-0.074-0.154-0.13-0.211s-0.122-0.1-0.198-0.128   C49.307,50.527,49.224,50.513,49.135,50.513z"/>
</g>
</svg>